<svg width="102" height="102" viewBox="0 0 102 102" fill="none" xmlns="http://www.w3.org/2000/svg">
<path d="M88.7947 47.2412C86.5103 54.3684 84.0563 72.2385 82.6987 77.1857C79.3701 79.3004 74.5926 80.3316 69.5409 83.7646C69.815 79.8225 72.0994 57.697 71.6817 52.2276" fill="white"/>
<path d="M88.7947 47.2412C86.5103 54.3684 84.0563 72.2385 82.6987 77.1857C79.3701 79.3004 74.5926 80.3316 69.5409 83.7646C69.815 79.8225 72.0994 57.697 71.6817 52.2276" stroke="black" stroke-width="1.72881" stroke-linecap="round" stroke-linejoin="round"/>
<path d="M18.0341 76.2186C18.0341 76.2186 13.361 42.4625 13.5046 41.7054L43.175 19.4102L72.0099 48.7281C72.0099 48.7281 71.5661 66.8332 69.5559 83.7634C62.8726 82.3145 51.5944 83.1108 50.6937 82.0012" fill="white"/>
<path d="M60.4846 79.5605L59.9755 82.9805L49.8853 82.0799L60.4846 79.5605Z" fill="#949593"/>
<path d="M25.9298 47.7623C39.5053 36.445 53.7336 43.2589 57.5321 49.9423C63.2234 59.9151 61.1087 75.0048 60.1428 82.7585" fill="#949593"/>
<path d="M25.9298 47.7623C39.5053 36.445 53.7336 43.2589 57.5321 49.9423C63.2234 59.9151 61.1087 75.0048 60.1428 82.7585" stroke="black" stroke-width="1.72881" stroke-linecap="round" stroke-linejoin="round"/>
<path d="M18.0341 76.2186C18.0341 76.2186 13.361 42.4625 13.5046 41.7054L43.175 19.4102L72.0099 48.7281C72.0099 48.7281 71.5661 66.8332 69.5559 83.7634C61.7239 82.3667 51.5944 83.1108 50.6937 82.0012" stroke="black" stroke-width="1.72881" stroke-linecap="round" stroke-linejoin="round"/>
<path d="M43.4502 24.3971C45.6562 26.6815 53.3186 35.5447 59.8975 43.0504C64.9883 48.8722 68.7738 53.702 70.771 54.0936C75.17 54.9551 88.4322 49.8904 90.325 49.068C92.8182 47.9977 94.8937 44.7604 91.9827 40.6225C89.5548 37.1633 67.5076 17.7399 65.393 16.6956C63.2783 15.6513 46.1261 14.9464 42.1579 15.5469C39.4167 15.9646 36.5188 18.5883 27.995 25.3761C19.5494 32.1378 10.3076 40.3223 9.00228 43.6117C7.77526 46.7184 9.43304 49.3813 12.6703 48.8331C15.9075 48.2848 19.6016 43.0374 28.5954 35.9233C35.7226 30.2842 39.495 26.9556 43.4502 24.3971Z" fill="#F66749" stroke="black" stroke-width="1.72881" stroke-linecap="round" stroke-linejoin="round"/>
<path d="M87.3486 42.0453C83.0932 42.6588 76.7884 45.7655 73.264 44.7343C72.0239 44.3688 68.7475 40.1917 59.819 30.5844C53.1095 23.3659 46.7264 15.6252 44.1288 15.4033" fill="#F66749"/>
<path d="M87.3486 42.0453C83.0932 42.6588 76.7884 45.7655 73.264 44.7343C72.0239 44.3688 68.7475 40.1917 59.819 30.5844C53.1095 23.3659 46.7264 15.6252 44.1288 15.4033" stroke="black" stroke-width="1.72881" stroke-linecap="round" stroke-linejoin="round"/>
<path d="M29.7807 45.0354C28.9452 40.5711 32.1825 38.574 34.8323 39.1875C37.0384 39.6965 38.7222 42.007 36.8034 44.7743" fill="#FCD575"/>
<path d="M29.7807 45.0354C28.9452 40.5711 32.1825 38.574 34.8323 39.1875C37.0384 39.6965 38.7222 42.007 36.8034 44.7743" stroke="black" stroke-width="1.72881" stroke-linecap="round" stroke-linejoin="round"/>
<path d="M33.7096 42.3076C33.07 43.1691 32.5609 45.2968 32.5609 45.2968L33.7096 42.3076Z" fill="#FEE16E"/>
<path d="M33.7096 42.3076C33.07 43.1691 32.5609 45.2968 32.5609 45.2968" stroke="black" stroke-width="1.72881" stroke-linecap="round" stroke-linejoin="round"/>
<path d="M47.3882 47.8936C47.7798 45.6484 50.521 45.2698 52.1788 46.0922C53.4972 46.7449 54.7372 48.0372 53.9932 50.452" fill="#FCD575"/>
<path d="M47.3882 47.8936C47.7798 45.6484 50.521 45.2698 52.1788 46.0922C53.4972 46.7449 54.7372 48.0372 53.9932 50.452" stroke="black" stroke-width="1.72881" stroke-linecap="round" stroke-linejoin="round"/>
<path d="M51.6071 47.4375C51.0589 48.1685 50.7717 49.4738 50.7717 49.4738L51.6071 47.4375Z" fill="#FEE16E"/>
<path d="M51.6071 47.4375C51.0589 48.1685 50.7717 49.4738 50.7717 49.4738" stroke="black" stroke-width="1.72881" stroke-linecap="round" stroke-linejoin="round"/>
<path d="M17.0403 51.1836C12.7849 53.3896 9.2996 58.8198 9.16907 64.7852C9.06464 69.615 12.341 69.119 13.1895 68.9362" fill="#6D5A42"/>
<path d="M17.0403 51.1836C12.7849 53.3896 9.2996 58.8198 9.16907 64.7852C9.06464 69.615 12.341 69.119 13.1895 68.9362" stroke="black" stroke-width="1.72881" stroke-linecap="round" stroke-linejoin="round"/>
<path d="M34.0216 82.733C31.8808 82.6547 26.6464 82.0542 24.6623 81.741C22.6912 83.7642 19.4279 84.6649 17.9137 83.5554C15.786 82.002 16.4125 79.6916 17.4177 78.2035C12.3268 73.3215 11.7394 68.9617 11.7786 64.0797C11.8308 57.2789 15.055 51.6398 18.8796 48.7289C22.9131 45.6614 28.1084 44.2516 34.2827 44.3691C40.7571 44.4996 46.5398 46.4707 51.0824 48.5462C57.2958 51.3918 61.1335 54.6421 60.6636 55.4253C61.9167 57.9185 66.6551 76.8459 63.1046 79.3391C59.541 81.8323 47.5319 82.5633 45.5216 82.6939C42.924 85.2132 39.3213 87.85 35.7838 86.5838C32.5857 85.4351 33.63 82.8505 34.8701 81.4407" fill="#C4AB87"/>
<path d="M34.0216 82.733C31.8808 82.6547 26.6464 82.0542 24.6623 81.741C22.6912 83.7642 19.4279 84.6649 17.9137 83.5554C15.786 82.002 16.4125 79.6916 17.4177 78.2035C12.3268 73.3215 11.7394 68.9617 11.7786 64.0797C11.8308 57.2789 15.055 51.6398 18.8796 48.7289C22.9131 45.6614 28.1084 44.2516 34.2827 44.3691C40.7571 44.4996 46.5398 46.4707 51.0824 48.5462C57.2958 51.3918 61.1335 54.6421 60.6636 55.4253C61.9167 57.9185 66.6551 76.8459 63.1046 79.3391C59.541 81.8323 47.5319 82.5633 45.5216 82.6939C42.924 85.2132 39.3213 87.85 35.7838 86.5838C32.5857 85.4351 33.63 82.8505 34.8701 81.4407" stroke="black" stroke-width="1.72881" stroke-linecap="round" stroke-linejoin="round"/>
<path d="M48.276 53.1543C50.0774 53.2326 51.709 54.4988 52.9491 55.9086C55.5859 58.8847 56.8651 63.4273 57.1523 65.2679C57.4656 67.2259 57.1131 69.2622 56.108 70.202C54.8027 71.4421 52.0484 71.3638 50.8736 69.3536C49.5291 67.0431 49.5683 63.6884 49.3203 60.6339C49.1114 58.1146 48.6806 55.3864 48.2629 53.1543H48.276Z" fill="#6D5A42" stroke="black" stroke-width="1.72881" stroke-linecap="round" stroke-linejoin="round"/>
<path d="M16.2847 61.5604C16.0889 65.7506 16.7024 68.7659 18.6473 71.1155C20.8533 73.7784 25.1349 75.4754 28.6723 75.5798C35.6428 75.7886 43.4749 75.3448 45.3676 65.2676C46.4902 59.2761 43.8665 48.99 31.7138 48.5462C24.182 48.2721 16.7546 51.4963 16.2847 61.5604Z" fill="#90EBA5" stroke="black" stroke-width="1.72881" stroke-linecap="round" stroke-linejoin="round"/>
<path d="M21.2566 57.8531C23.4757 58.7016 27.4047 57.566 28.3576 56.4042C29.3497 55.2164 29.1147 53.167 27.7311 52.9712C26.2299 52.7754 25.7078 54.5245 26.4388 55.7385C27.8877 58.1925 32.7566 57.6834 34.4405 57.6051" fill="#B2DAB7"/>
<path d="M21.2566 57.8531C23.4757 58.7016 27.4047 57.566 28.3576 56.4042C29.3497 55.2164 29.1147 53.167 27.7311 52.9712C26.2299 52.7754 25.7078 54.5245 26.4388 55.7385C27.8877 58.1925 32.7566 57.6834 34.4405 57.6051" stroke="black" stroke-width="1.72881" stroke-linecap="round" stroke-linejoin="round"/>
<path d="M23.2689 61.6918C23.9477 61.2871 24.744 60.8955 24.744 60.8955L23.2689 61.6918Z" fill="#97CE9A"/>
<path d="M23.2689 61.6918C23.9477 61.2871 24.744 60.8955 24.744 60.8955" stroke="black" stroke-width="1.72881" stroke-linecap="round" stroke-linejoin="round"/>
<path d="M30.6288 60.751C31.3598 61.0773 32.4171 61.4559 32.4171 61.4559L30.6288 60.751Z" fill="#97CE9A"/>
<path d="M30.6288 60.751C31.3598 61.0773 32.4171 61.4559 32.4171 61.4559" stroke="black" stroke-width="1.72881" stroke-linecap="round" stroke-linejoin="round"/>
<path d="M26.4661 65.2677C26.7141 66.6383 27.1971 68.2439 28.6721 68.1656C29.8861 68.1003 30.2516 66.7427 30.2777 65.2024L28.0847 64.3018" fill="white"/>
<path d="M26.4661 65.2664C26.7141 66.637 27.1971 68.2426 28.6721 68.1643C29.8861 68.099 30.2516 66.7415 30.2777 65.2012" stroke="black" stroke-width="1.72881" stroke-linecap="round" stroke-linejoin="round"/>
<path d="M24.7828 64.3527C25.2919 65.5406 27.5371 65.4492 28.0853 63.8828C28.5683 65.1751 30.7221 65.5928 31.4662 63.9742" fill="#B2DAB7"/>
<path d="M24.7828 64.3527C25.2919 65.5406 27.5371 65.4492 28.0853 63.8828C28.5683 65.1751 30.7221 65.5928 31.4662 63.9742" stroke="black" stroke-width="1.72881" stroke-linecap="round" stroke-linejoin="round"/>
<path d="M58.6785 52.4375C62.242 56.5232 61.3153 79.2622 60.4407 81.5857L67.1893 81.3116L66.6019 53.1685" fill="white"/>
<path d="M43.6154 41.8379C50.1812 42.5558 55.4287 46.2761 57.5303 49.9441C63.2216 59.9169 61.1069 75.0066 60.141 82.7603" stroke="black" stroke-width="1.72881" stroke-linecap="round" stroke-linejoin="round"/>
</svg>
