<svg width="102" height="102" viewBox="0 0 102 102" fill="none" xmlns="http://www.w3.org/2000/svg">
<g clip-path="url(#clip0_3359_39834)">
<path d="M19.5538 73.7529C17.278 75.3412 15.7246 78.7439 16.46 81.2808C17.1214 83.5652 20.0977 83.2084 20.2065 80.6672C20.3457 77.4646 21.9514 76.1027 24.04 74.6058" fill="#FFDD70"/>
<path d="M19.5538 73.7529C17.278 75.3412 15.7246 78.7439 16.46 81.2808C17.1214 83.5652 20.0977 83.2084 20.2065 80.6672C20.3457 77.4646 21.9514 76.1027 24.04 74.6058" stroke="black" stroke-width="1.72881" stroke-linecap="round" stroke-linejoin="round"/>
<path d="M31.0196 72.269C28.9701 74.4664 27.6342 79.0049 28.8613 80.6845C30.0884 82.3642 32.5121 81.6027 32.5948 79.0615C32.7035 75.8589 33.3867 74.5013 35.8626 71.9209" fill="#FFDD70"/>
<path d="M31.0196 72.269C28.9701 74.4664 27.6342 79.0049 28.8613 80.6845C30.0884 82.3642 32.5121 81.6027 32.5948 79.0615C32.7035 75.8589 33.3867 74.5013 35.8626 71.9209" stroke="black" stroke-width="1.72881" stroke-linecap="round" stroke-linejoin="round"/>
<path d="M11.6952 50.864C9.61529 50.2635 7.43092 45.3944 4.58514 45.7773C0.377397 46.343 3.21882 54.6366 11.6952 60.7634" fill="#5D6E85"/>
<path d="M11.6952 50.864C9.61529 50.2635 7.43092 45.3944 4.58514 45.7773C0.377397 46.343 3.21882 54.6366 11.6952 60.7634" stroke="black" stroke-width="1.72881" stroke-linecap="round" stroke-linejoin="round"/>
<path d="M10.8989 38.3284C12.1826 35.7394 16.1553 34.3991 19.4798 38.0499C21.7381 34.5427 25.6717 33.1895 29.5923 33.7726C32.8036 34.2469 36.8721 37.5495 37.6423 45.7649C38.4821 54.6982 41.3409 56.3953 42.9161 57.2873C43.051 57.7964 43.1859 58.3099 43.3208 58.8407C45.0047 65.4722 40.0572 74.5535 25.6195 75.2671C12.6003 75.9111 10.9294 72.6476 9.90247 69.5886C8.26637 64.702 10.6988 61.7823 9.94599 58.4274C8.64494 52.6139 7.43091 46.026 10.5117 39.1247C10.6335 38.8549 10.7597 38.5939 10.8946 38.3371L10.8989 38.3284Z" fill="white"/>
<path d="M44.6218 37.3968C42.6159 38.6239 41.5019 40.8475 40.0399 43.0405C40.4663 33.8679 33.0995 30.7392 30.6888 30.2432C30.9108 28.7811 31.037 25.9789 30.1667 25.857C28.8874 25.683 27.7256 27.5366 26.4463 30.0082C20.8983 30.3607 14.4192 32.2666 11.1818 37.8407C12.6961 35.5867 16.3686 34.6337 19.4754 38.0452C21.7338 34.538 25.6674 33.1847 29.588 33.7678C32.7992 34.2421 36.8677 37.5448 37.6379 45.7601C38.4777 54.6935 41.3366 56.3905 42.9118 57.2825C42.7856 56.8126 42.6637 56.3513 42.5375 55.8945C43.6297 51.8216 48.2421 46.5608 48.9993 40.6995C49.4605 37.1183 46.7627 36.0871 44.6131 37.4012L44.6218 37.3968Z" fill="#5D6E85"/>
<path d="M42.5419 55.8901C43.6341 51.8172 48.2465 46.5564 49.0036 40.6952C49.4648 37.114 46.767 36.0827 44.6175 37.3968C42.6115 38.6239 41.4975 40.8474 40.0355 43.0405C40.4619 33.8679 33.0951 30.7392 30.6845 30.2432C30.9064 28.7811 31.0326 25.9789 30.1623 25.857C28.883 25.683 27.7212 27.5366 26.4419 30.0082C20.4893 30.3868 13.4445 32.5451 10.5117 39.1113C7.43091 46.0082 8.64494 52.5961 9.94599 58.4139C10.6988 61.7688 8.26637 64.6929 9.90247 69.5751C10.925 72.6341 12.6003 75.8976 25.6195 75.2536C40.0572 74.54 45.0047 65.4587 43.3208 58.8273C43.0597 57.809 42.7986 56.8387 42.5419 55.8857V55.8901Z" stroke="black" stroke-width="1.72881" stroke-linecap="round" stroke-linejoin="round"/>
<path d="M10.899 38.3279C12.1827 35.7388 16.1555 34.3986 19.4799 38.0451C21.7382 34.5379 25.6718 33.1846 29.5924 33.7677C32.8037 34.242 36.8722 37.5446 37.6424 45.76C38.4822 54.6934 41.341 56.3904 42.9162 57.2824" stroke="black" stroke-width="1.72881" stroke-linecap="round" stroke-linejoin="round"/>
<path d="M17.4043 43.8284C17.9138 43.8284 18.3268 43.4154 18.3268 42.9059C18.3268 42.3964 17.9138 41.9834 17.4043 41.9834C16.8949 41.9834 16.4818 42.3964 16.4818 42.9059C16.4818 43.4154 16.8949 43.8284 17.4043 43.8284Z" fill="black"/>
<path d="M23.6789 42.4231C24.1884 42.4231 24.6014 42.0101 24.6014 41.5006C24.6014 40.9911 24.1884 40.5781 23.6789 40.5781C23.1694 40.5781 22.7564 40.9911 22.7564 41.5006C22.7564 42.0101 23.1694 42.4231 23.6789 42.4231Z" fill="black"/>
<path d="M25.9765 48.4239C25.9765 50.8389 24.6058 52.4837 21.8079 52.5664C19.3929 52.6403 17.4914 51.3697 17.4914 48.7415C17.4914 46.3265 18.9056 44.4902 21.5816 44.4902C24.7407 44.4902 25.9721 46.2438 25.9721 48.4239H25.9765Z" fill="#FFDD70" stroke="black" stroke-width="1.72881" stroke-linecap="round" stroke-linejoin="round"/>
<path d="M19.7453 48.058C19.989 49.6549 22.7564 50.0422 22.9914 47.4053" stroke="black" stroke-width="1.72881" stroke-linecap="round" stroke-linejoin="round"/>
<path d="M85.8638 69.4209C87.6435 71.5487 88.0613 76.4701 86.6514 78.3455C85.5723 79.7815 83.2487 79.2811 83.5576 76.7616C83.9492 73.5808 82.4785 71.7097 80.7336 70.0954" fill="#FFDD70"/>
<path d="M85.8638 69.4209C87.6435 71.5487 88.0613 76.4701 86.6514 78.3455C85.5723 79.7815 83.2487 79.2811 83.5576 76.7616C83.9492 73.5808 82.4785 71.7097 80.7336 70.0954" stroke="black" stroke-width="1.72881" stroke-linecap="round" stroke-linejoin="round"/>
<path d="M74.4111 72.5664C76.0428 75.0902 75.9123 79.5199 74.868 81.1081C73.7062 82.8704 70.8473 82.3439 71.2694 79.4154C71.7263 76.2433 70.9169 75.0423 68.7674 72.6099" fill="#FFDD70"/>
<path d="M74.4111 72.5664C76.0428 75.0902 75.9123 79.5199 74.868 81.1081C73.7062 82.8704 70.8473 82.3439 71.2694 79.4154C71.7263 76.2433 70.9169 75.0423 68.7674 72.6099" stroke="black" stroke-width="1.72881" stroke-linecap="round" stroke-linejoin="round"/>
<path d="M87.2519 48.725C91.5336 47.8678 92.8216 44.9568 95.6848 45.1178C99.8795 45.3527 96.3941 53.7726 86.4251 58.8767" fill="#5D6E85"/>
<path d="M87.2519 48.725C91.5336 47.8678 92.8216 44.9568 95.6848 45.1178C99.8795 45.3527 96.3941 53.7726 86.4251 58.8767" stroke="black" stroke-width="1.72881" stroke-linecap="round" stroke-linejoin="round"/>
<path d="M89.3971 58.5768C90.6894 52.7982 91.6859 44.9962 90.2064 39.7267C90.1281 39.4525 90.0454 39.1784 89.9497 38.913C89.0142 36.2935 84.937 34.9445 81.6735 38.913C80.59 34.3005 77.0697 32.2641 72.1919 33.4694C68.6891 34.3353 65.3385 36.6894 62.3231 44.8482C61.7661 46.3582 59.6296 53.0201 59.4686 55.8963C59.4164 56.6056 59.3511 57.3366 59.2597 58.1112C58.2154 67.1054 60.9654 74.2025 73.4016 74.816C83.501 75.3164 88.5268 70.9738 90.2804 68.4587C92.7737 64.8862 91.0332 60.0823 89.3927 58.5768H89.3971Z" fill="white"/>
<path d="M74.1328 29.4489C67.4274 29.8797 62.6583 34.2963 60.9091 42.1288C60.735 39.9923 58.6464 35.8193 56.1922 37.116C54.2341 38.1516 54.5866 41.7981 55.7267 46.4062C56.8667 51.0142 58.629 54.0254 59.4688 55.8921C59.6298 53.0159 61.7663 46.3583 62.3233 44.844C65.3344 36.6896 68.6893 34.3311 72.1921 33.4652C77.07 32.2599 80.5902 34.2963 81.6737 38.9088C84.9372 34.9403 89.0144 36.2892 89.9499 38.9088C87.6959 32.4992 80.9079 29.0094 74.1328 29.4446V29.4489Z" fill="#5D6E85"/>
<path d="M59.4686 55.892C59.4164 56.6013 59.3511 57.3323 59.2597 58.1069C58.2154 67.1011 60.9655 74.1982 73.4016 74.8117C83.5011 75.3121 88.5269 70.9695 90.2804 68.4544C92.7738 64.8819 91.0332 60.078 89.3928 58.5725C90.6851 52.7939 91.6816 44.9919 90.2021 39.7224C88.2527 32.795 81.1861 28.9919 74.1283 29.4445C67.0704 29.897 62.6538 34.2919 60.9046 42.1243C60.7305 39.9878 58.6419 35.8149 56.1877 37.1116C54.2296 38.1472 54.5821 41.7936 55.7221 46.4017C56.8622 51.0098 58.6244 54.0209 59.4643 55.8877L59.4686 55.892Z" stroke="black" stroke-width="1.72881" stroke-linecap="round" stroke-linejoin="round"/>
<path d="M89.9498 38.913C89.0143 36.2935 84.9371 34.9445 81.6736 38.913C80.5901 34.3005 77.0699 32.2641 72.192 33.4694C68.6892 34.3353 65.3387 36.6894 62.3232 44.8482C61.7662 46.3582 59.6254 53.0201 59.4644 55.8963" stroke="black" stroke-width="1.72881" stroke-linecap="round" stroke-linejoin="round"/>
<path d="M83.5097 44.9573C84.0192 44.9573 84.4322 44.5443 84.4322 44.0348C84.4322 43.5253 84.0192 43.1123 83.5097 43.1123C83.0002 43.1123 82.5872 43.5253 82.5872 44.0348C82.5872 44.5443 83.0002 44.9573 83.5097 44.9573Z" fill="black"/>
<path d="M76.5997 43.7258C77.1092 43.7258 77.5222 43.3128 77.5222 42.8033C77.5222 42.2939 77.1092 41.8809 76.5997 41.8809C76.0903 41.8809 75.6772 42.2939 75.6772 42.8033C75.6772 43.3128 76.0903 43.7258 76.5997 43.7258Z" fill="black"/>
<path d="M74.4197 49.3916C74.572 51.5455 76.2647 53.0163 78.9625 53.0163C82.0084 53.0163 83.2398 51.4889 83.3747 49.5482C83.5314 47.2638 81.7734 45.3535 78.9233 45.3535C75.7642 45.3535 74.263 47.2202 74.4197 49.3916Z" fill="#FFDD70" stroke="black" stroke-width="1.72881" stroke-linecap="round" stroke-linejoin="round"/>
<path d="M80.5899 48.8907C80.0764 50.5877 77.7267 50.1917 77.5178 48.3555" stroke="black" stroke-width="1.72881" stroke-linecap="round" stroke-linejoin="round"/>
<path d="M67.314 35.4494C66.0565 36.5634 64.8642 39.2134 66.8136 40.9322C69.0502 42.9077 75.2944 40.6928 74.9245 36.8593C74.6547 34.0657 72.788 33.6219 71.0779 33.7742C71.0127 33.0388 70.6254 31.5071 69.4592 30.9545C68.441 30.4758 67.1748 30.9153 66.8441 32.0249C66.5395 33.0388 66.6831 34.3921 67.3097 35.4494H67.314Z" fill="#C4D6FF" stroke="black" stroke-width="1.72881" stroke-linecap="round" stroke-linejoin="round"/>
<path d="M68.9718 38.0693C69.3591 38.7046 69.6636 40.2972 69.2633 41.6679" stroke="black" stroke-width="1.72881" stroke-linecap="round" stroke-linejoin="round"/>
<path d="M71.6958 36.8555C72.5051 37.8911 72.7967 39.4837 72.5095 40.7412" stroke="black" stroke-width="1.72881" stroke-linecap="round" stroke-linejoin="round"/>
<path d="M62.0568 23.7514L63.9523 15.5596C66.6723 17.5953 67.2567 19.5036 65.7033 21.2843" stroke="black" stroke-width="1.72881" stroke-linecap="round" stroke-linejoin="round"/>
<path d="M62.2415 24.6925C62.7281 24.2378 62.9215 23.7767 62.8195 23.3049C62.7175 22.8332 62.3499 22.4932 61.7188 22.2828C61.0898 22.066 60.3779 22.0469 59.5852 22.2254C58.7884 22.3954 58.1403 22.7078 57.6451 23.1668C57.1649 23.6237 56.9758 24.0869 57.0778 24.5587C57.1798 25.0304 57.5431 25.3683 58.17 25.5765C58.8096 25.789 59.5279 25.8103 60.3248 25.6403C61.1174 25.4618 61.757 25.1473 62.2458 24.6925H62.2415Z" fill="black"/>
<path d="M46.9389 20.6816C47.0409 20.6518 47.1429 20.6199 47.2449 20.5902C47.6869 20.4181 48.08 20.1333 48.4221 19.7338C48.8365 19.2408 49.0405 18.7117 49.0341 18.1464C49.0299 17.8914 48.9937 17.6619 48.9279 17.4601C48.828 17.2093 48.6707 17.0011 48.4561 16.8311C48.0566 16.5272 47.5636 16.4528 46.9792 16.6079C46.8666 16.6271 46.7625 16.6568 46.6732 16.6993C46.2249 16.8587 45.8402 17.1434 45.5194 17.5578C45.1092 18.0423 44.901 18.5693 44.8925 19.1388C44.8819 19.3768 44.9159 19.5914 44.9945 19.7806C45.0837 20.0419 45.2452 20.2608 45.4769 20.4393C45.8827 20.7411 46.3715 20.8218 46.9367 20.6794L46.9389 20.6816Z" fill="black"/>
<path d="M38.151 21.4021C38.2403 21.6635 38.4018 21.8845 38.6334 22.0609C39.0393 22.3626 39.5259 22.4434 40.0933 22.301C40.1931 22.2712 40.293 22.2415 40.3886 22.2139C40.837 22.0396 41.2323 21.7527 41.5765 21.3532C41.9909 20.8602 42.1906 20.3311 42.1779 19.7701C42.18 19.513 42.1481 19.2835 42.0801 19.0816C41.9803 18.8309 41.823 18.6226 41.6084 18.4526C41.2089 18.1466 40.718 18.0722 40.1315 18.2295C40.0189 18.2486 39.9148 18.2805 39.8149 18.3251C39.375 18.4802 38.9946 18.765 38.6695 19.1815C38.2594 19.666 38.049 20.193 38.0341 20.7667C38.0299 21.0026 38.0681 21.2151 38.1468 21.4042L38.151 21.4021Z" fill="black"/>
<path d="M39.5905 11.1677C39.3334 11.2548 39.1612 11.3717 39.0741 11.5183C38.9891 11.6713 38.9679 11.8498 39.0104 12.0517L40.5106 19.1216C40.5531 19.3256 40.6615 19.4828 40.8315 19.5912C41.0057 19.706 41.1927 19.7421 41.3925 19.6996C41.5922 19.6571 41.7452 19.553 41.8515 19.3808C41.9662 19.2087 42.0024 19.0217 41.9599 18.8198L40.7869 13.3055L46.1057 11.3313L47.4105 17.5342C47.453 17.7382 47.555 17.8955 47.7229 18.0081C47.8992 18.1228 48.0862 18.159 48.2839 18.1165C48.4879 18.074 48.6451 17.9677 48.7535 17.7956C48.8704 17.6256 48.9065 17.4386 48.8619 17.2346L47.181 9.22333C47.1427 9.0257 47.045 8.87483 46.8856 8.76645C46.7284 8.65808 46.5711 8.62195 46.4139 8.65808C46.2651 8.68995 46.1227 8.7367 45.9889 8.79408L39.5841 11.1698L39.5905 11.1677Z" fill="black"/>
</g>
<defs>
<clipPath id="clip0_3359_39834">
<rect width="102" height="102" fill="white"/>
</clipPath>
</defs>
</svg>
