<svg width="102" height="102" viewBox="0 0 102 102" fill="none" xmlns="http://www.w3.org/2000/svg">
<g clip-path="url(#clip0_3359_38125)">
<path d="M62.2329 83.2807C62.2329 83.2807 53.8781 80.2691 50.9721 81.3799C50.1316 81.7009 48.1463 82.0726 47.441 83.0146C44.8644 86.4274 41.177 88.8435 38.6469 89.4306C34.8412 90.3091 31.479 87.5299 32.649 84.079C33.0503 82.8963 34.1823 81.6756 35.2509 81.6756C37.8782 81.6756 38.8159 76.324 41.063 73.4475C44.6659 68.8351 40.9827 53.8066 40.9827 53.8066L71.1452 62.4402" fill="#FAA92E"/>
<path d="M62.2329 83.2807C62.2329 83.2807 53.8781 80.2691 50.9721 81.3799C50.1316 81.7009 48.1463 82.0726 47.441 83.0146C44.8644 86.4274 41.177 88.8435 38.6469 89.4306C34.8412 90.3091 31.479 87.5299 32.649 84.079C33.0503 82.8963 34.1823 81.6756 35.2509 81.6756C37.8782 81.6756 38.8159 76.324 41.063 73.4475C44.6659 68.8351 40.9827 53.8066 40.9827 53.8066L71.1452 62.4402" stroke="#0D131A" stroke-width="1.72881" stroke-linecap="round" stroke-linejoin="round"/>
<path d="M72.6617 53.373C72.6617 53.373 76.5899 55.1175 75.7916 64.5409C75.158 71.9918 72.7335 77.4405 69.2489 82.0319C66.1401 86.129 59.3524 91.7214 53.4263 92.8576C48.8519 93.7362 45.8192 89.9305 47.4622 86.6401C49.194 83.1723 56.4971 80.9337 57.8614 79.1047" fill="#FAA92E"/>
<path d="M72.6617 53.373C72.6617 53.373 76.5899 55.1175 75.7916 64.5409C75.158 71.9918 72.7335 77.4405 69.2489 82.0319C66.1401 86.129 59.3524 91.7214 53.4263 92.8576C48.8519 93.7362 45.8192 89.9305 47.4622 86.6401C49.194 83.1723 56.4971 80.9337 57.8614 79.1047" stroke="#0D131A" stroke-width="1.72881" stroke-linecap="round" stroke-linejoin="round"/>
<path d="M62.7154 64.5217C64.3796 65.9367 65.4398 70.642 63.4503 74.1309C61.7524 77.113 57.9973 78.3463 53.3469 77.396C48.8358 76.4752 47.0533 73.8817 47.0871 70.1098C47.1209 66.3379 48.6753 64.0951 53.4567 63.0982C57.8749 62.1732 60.7809 62.8701 62.7196 64.5217H62.7154Z" fill="white"/>
<path d="M53.34 22.5702C52.774 20.057 53.471 15.584 58.3918 15.3728C63.2787 15.1616 64.3178 20.0908 63.6631 22.0423" fill="#FAA92E"/>
<path d="M53.34 22.5702C52.774 20.057 53.471 15.584 58.3918 15.3728C63.2787 15.1616 64.3178 20.0908 63.6631 22.0423" stroke="#0D131A" stroke-width="1.72881" stroke-linecap="round" stroke-linejoin="round"/>
<path d="M31.5167 47.2119C28.3193 33.5351 36.9655 23.043 49.24 20.175C61.1259 17.4 73.8735 22.7093 77.109 36.5593C80.3571 50.46 73.2146 59.3132 61.3287 62.0925C49.6328 64.8254 34.7606 61.1126 31.5125 47.2119H31.5167Z" fill="#FAA92E" stroke="#0D131A" stroke-width="1.72881" stroke-linecap="round" stroke-linejoin="round"/>
<path d="M66.6176 37.0495C66.6176 37.0495 69.2194 35.8753 73.249 34.4561L66.6176 37.0495Z" fill="#0D131A"/>
<path d="M66.6176 37.0495C66.6176 37.0495 69.2194 35.8753 73.249 34.4561" stroke="#0D131A" stroke-width="1.98814" stroke-linecap="round" stroke-linejoin="round"/>
<path d="M64.7915 48.818C61.5053 49.0503 60.0523 51.6268 60.6732 53.6078C61.1758 55.2255 63.1906 56.1886 64.8928 55.6268C66.7344 55.0228 67.4778 53.6078 67.4525 52.3575C68.2761 53.2995 68.8844 53.7345 70.5063 53.2277C71.8875 52.7968 73.2983 50.9721 72.614 48.8898C72.0438 47.1538 69.4546 45.6881 66.6711 48.0872L65.9023 48.894" fill="white"/>
<path d="M64.7915 48.818C61.5053 49.0503 60.0523 51.6268 60.6732 53.6078C61.1758 55.2255 63.1906 56.1886 64.8928 55.6268C66.7344 55.0228 67.4778 53.6078 67.4525 52.3575C68.2761 53.2995 68.8844 53.7345 70.5063 53.2277C71.8875 52.7968 73.2983 50.9721 72.614 48.8898C72.0438 47.1538 69.4546 45.6881 66.6711 48.0872L65.9023 48.894" stroke="#0D131A" stroke-width="1.72881" stroke-linecap="round" stroke-linejoin="round"/>
<path d="M48.2976 44.4887C48.2976 44.4887 51.6302 42.9934 55.6598 41.5742L48.2976 44.4887Z" fill="#0D131A"/>
<path d="M48.2976 44.4887C48.2976 44.4887 51.6302 42.9934 55.6598 41.5742" stroke="#0D131A" stroke-width="1.98814" stroke-linecap="round" stroke-linejoin="round"/>
<path d="M63.6164 48.8684C63.8065 49.6413 65.5129 50.71 66.459 50.2918C67.3122 49.9201 67.7811 48.2348 67.4812 47.1915C67.1306 45.975 63.0926 46.7227 63.6164 48.8684Z" fill="#0D131A"/>
<path d="M53.1941 48.3247C52.8689 47.5137 53.2659 46.5971 54.0727 46.2719C54.8837 45.9467 55.8003 46.3437 56.1255 47.1505C56.4507 47.9614 56.0537 48.878 55.2469 49.2033C54.436 49.5285 53.5194 49.1314 53.1941 48.3247Z" fill="#0D131A"/>
<path d="M69.7648 41.6587C69.4396 40.8477 69.8366 39.9311 70.6434 39.6059C71.4544 39.2806 72.3709 39.6777 72.6962 40.4844C73.0214 41.2954 72.6244 42.212 71.8176 42.5372C71.0066 42.8625 70.0901 42.4654 69.7648 41.6587Z" fill="#0D131A"/>
<path d="M40.9847 27.262C39.5824 25.1037 35.895 22.4764 32.3047 25.8428C28.7397 29.1881 31.5402 33.3782 33.3944 34.2736" fill="#FAA92E"/>
<path d="M40.9847 27.262C39.5824 25.1037 35.895 22.4764 32.3047 25.8428C28.7397 29.1881 31.5402 33.3782 33.3944 34.2736" stroke="#0D131A" stroke-width="1.72881" stroke-linecap="round" stroke-linejoin="round"/>
<path d="M60.4833 61.9196C58.9289 55.0558 52.5087 48.6905 47.0346 45.945C41.5098 43.1742 34.3715 40.8806 25.4929 44.0569C17.1551 47.039 15.664 53.0495 16.399 58.2533C17.1297 63.4571 20.3018 67.757 26.1519 68.4877C32.0061 69.2184 31.8625 71.474 32.4327 72.5891C32.8889 73.4761 33.4929 76.2934 32.1751 76.3652C30.1645 76.475 28.7538 79.0896 30.8952 81.0114C34.2955 84.0568 52.3609 85.2902 58.6924 79.3303C62.0715 76.1498 62.5446 71.0262 60.4791 61.9196H60.4833Z" fill="#AFE3F4" stroke="#0D131A" stroke-width="1.72881" stroke-linecap="round" stroke-linejoin="round"/>
<path d="M46.8718 65.4672C46.8718 65.4672 43.7461 63.879 41.4484 63.9381" stroke="#0D131A" stroke-width="1.72881" stroke-linecap="round" stroke-linejoin="round"/>
<path d="M45.7936 74.4775C45.7936 74.4775 43.0776 75.9094 39.141 74.921" stroke="#0D131A" stroke-width="1.72881" stroke-linecap="round" stroke-linejoin="round"/>
<path d="M48.4989 62.0172C48.4989 62.0172 47.9794 60.07 45.4324 58.4902" stroke="#0D131A" stroke-width="1.72881" stroke-linecap="round" stroke-linejoin="round"/>
<path d="M70.2878 68.8251C65.4768 70.9793 56.9193 72.1958 53.2276 72.1028C48.5265 71.9888 44.3787 70.6118 44.5054 66.7597C44.6237 63.1145 47.3649 61.7629 51.5043 62.067C57.6078 62.5147 64.442 60.7829 68.442 59.6552C72.0702 58.633 72.3828 62.9329 72.3828 62.9329L73.1515 64.897L71.821 69.8473" fill="#FAA92E"/>
<path d="M70.5513 68.4999C65.7404 70.654 57.1828 71.8705 53.4912 71.7776C48.79 71.6635 44.6422 70.2866 44.7689 66.4344C44.8872 62.7892 47.6285 61.4376 51.7679 61.7417C57.8713 62.1894 66.6823 60.1409 70.4457 58.3584" stroke="#0D131A" stroke-width="1.72881" stroke-linecap="round" stroke-linejoin="round"/>
<path d="M29.3221 68.7258C29.3221 68.7258 35.1384 67.8473 37.9895 68.3964C40.8406 68.9455 42.4245 70.314 42.1584 73.1144C41.867 76.1851 39.3369 77.579 34.5851 76.9539C29.7952 76.3245 26.5766 73.1144 29.3179 68.7258H29.3221Z" fill="#FAA92E" stroke="#0D131A" stroke-width="1.72881" stroke-linecap="round" stroke-linejoin="round"/>
<path d="M35.2819 45.0696C35.2481 42.4931 36.5195 39.3294 41.1446 40.0855C45.9725 40.8711 45.9767 45.9186 44.9292 47.6969" fill="#AFE3F4"/>
<path d="M35.2819 45.0696C35.2481 42.4931 36.5195 39.3294 41.1446 40.0855C45.9725 40.8711 45.9767 45.9186 44.9292 47.6969" stroke="#0D131A" stroke-width="1.72881" stroke-linecap="round" stroke-linejoin="round"/>
<path d="M21.7959 49.4886C19.7854 47.402 15.5066 46.6079 13.3525 50.6291C11.042 54.9416 15.1434 57.987 17.1919 58.2109" fill="#AFE3F4"/>
<path d="M21.7959 49.4886C19.7854 47.402 15.5066 46.6079 13.3525 50.6291C11.042 54.9416 15.1434 57.987 17.1919 58.2109" stroke="#0D131A" stroke-width="1.72881" stroke-linecap="round" stroke-linejoin="round"/>
<path d="M81.4664 26.5606C80.364 28.001 80.93 30.0031 82.7674 30.4508C84.7399 30.9323 86.2859 28.6557 85.5256 26.9915C85.5256 26.9915 87.3249 28.2122 88.5498 26.7254C89.7748 25.2386 89.3017 23.7053 88.6216 23.0337C87.8445 22.2692 86.7505 22.2185 85.7663 22.6662C85.7663 22.6662 86.9448 21.1414 86.1253 19.8785C85.3059 18.6156 83.6037 18.5987 82.7294 19.3125C81.855 20.0221 81.6523 21.1119 82.1592 22.3157C82.1592 22.3157 80.6935 20.7866 79.0462 22.0538C77.8001 23.0126 77.6143 24.8204 78.4633 25.8468C79.2785 26.831 80.2964 27.0971 81.4664 26.5606Z" fill="#FFF0C1" stroke="#0D131A" stroke-width="1.72881" stroke-linecap="round" stroke-linejoin="round"/>
<path d="M26.0642 15.8219C25.1941 14.5463 23.4243 14.4745 22.5753 15.8388C21.6629 17.3045 23.0906 19.1588 24.6365 18.9898C24.6365 18.9898 23.1708 20.1176 24.0452 21.503C24.9195 22.8884 26.288 22.9138 27.0061 22.5463C27.8297 22.1239 28.1634 21.2496 28.0663 20.3372C28.0663 20.3372 28.9828 21.6931 30.2204 21.3678C31.458 21.0426 31.9269 19.6699 31.5847 18.7744C31.2426 17.8789 30.419 17.4228 29.3123 17.5115C29.3123 17.5115 30.9385 16.7343 30.3514 15.0659C29.9079 13.8029 28.4971 13.1736 27.4411 13.5875C26.4316 13.9846 25.9417 14.7364 26.0642 15.8262V15.8219Z" fill="#FFF0C1" stroke="#0D131A" stroke-width="1.72881" stroke-linecap="round" stroke-linejoin="round"/>
<path d="M18.4074 28.5578C18.8804 27.3075 18.0568 26.015 16.6629 26.0868C15.1677 26.1671 14.5594 28.1016 15.4465 29.1153C15.4465 29.1153 13.9174 28.6338 13.3683 29.9432C12.8192 31.2526 13.4781 32.2368 14.099 32.5662C14.8087 32.9422 15.5943 32.7436 16.1941 32.2199C16.1941 32.2199 15.683 33.5462 16.532 34.2642C17.381 34.9823 18.5848 34.6317 19.0536 33.9432C19.5182 33.2547 19.4338 32.4437 18.8213 31.7003C18.8213 31.7003 20.1814 32.4691 21.0768 31.2273C21.7527 30.2854 21.5035 28.9675 20.684 28.4269C19.8984 27.9073 19.1212 27.9327 18.4116 28.5578H18.4074Z" fill="#FFF0C1" stroke="#0D131A" stroke-width="1.72881" stroke-linecap="round" stroke-linejoin="round"/>
<path d="M85.7681 22.665C85.7681 22.665 84.9022 23.0579 84.653 24.0758L85.7681 22.665Z" fill="#FFEFC0"/>
<path d="M85.7681 22.665C85.7681 22.665 84.9022 23.0579 84.653 24.0758" stroke="#0D131A" stroke-width="1.72881" stroke-linecap="round" stroke-linejoin="round"/>
<path d="M27.7706 18.2054C27.7706 18.2054 28.4211 17.5085 29.3081 17.5127L27.7706 18.2054Z" fill="#FFEFC0"/>
<path d="M27.7706 18.2054C27.7706 18.2054 28.4211 17.5085 29.3081 17.5127" stroke="#0D131A" stroke-width="1.72881" stroke-linecap="round" stroke-linejoin="round"/>
</g>
<defs>
<clipPath id="clip0_3359_38125">
<rect width="102" height="102" fill="white"/>
</clipPath>
</defs>
</svg>
