<svg width="102" height="102" viewBox="0 0 102 102" fill="none" xmlns="http://www.w3.org/2000/svg">
<g clip-path="url(#clip0_3359_37686)">
<g clip-path="url(#clip1_3359_37686)">
<g style="mix-blend-mode:multiply">
<path d="M69.7248 89.1529C69.7248 90.6386 63.8963 90.8509 49.2026 90.8182C33.0178 90.7801 29.3716 89.8659 29.3716 88.6904C29.3716 87.5149 32.5008 86.5625 49.2026 86.5625C63.6677 86.5625 69.7248 87.972 69.7248 89.1529Z" fill="#AFAFAF"/>
</g>
<path d="M66.024 75.6405C66.024 75.6405 69.3111 62.623 68.9192 52.7837C68.9192 52.7837 40.5224 46.2368 35.3034 48.2994C32.8272 51.8749 27.7987 64.1849 27.5865 64.6475C26.0953 64.2774 18.2043 63.1999 16.9853 70.8079C15.7336 78.6064 24.7566 79.6132 28.2885 79.918C31.8259 80.2228 36.9904 80.0323 47.9073 82.7533C58.8241 85.4744 66.4975 89.2077 70.9927 82.4649C72.6743 79.9398 72.8212 73.7249 66.7642 73.4365" fill="#FFD677"/>
<path d="M16.9799 70.8136C15.7282 78.6121 24.7512 79.6189 28.2831 79.9237C31.8205 80.2284 36.9851 80.038 47.9019 82.759C58.8188 85.4801 66.4921 89.2133 70.9873 82.4706C72.6689 79.9454 72.8159 73.7306 66.7588 73.4421L66.0241 75.6462C66.0241 75.6462 66.6173 73.2898 67.2758 69.8231C56.4787 69.2789 40.887 66.5307 28.4791 62.3838C27.6627 64.2722 27.6464 64.5171 27.5811 64.6586C26.09 64.2885 18.1989 63.211 16.9799 70.819V70.8136Z" fill="#A37944"/>
<path d="M66.024 75.6405C66.024 75.6405 69.3111 62.623 68.9192 52.7837C68.9192 52.7837 40.5224 46.2368 35.3034 48.2994C32.8272 51.8749 27.7987 64.1849 27.5865 64.6475C26.0953 64.2774 18.2043 63.1999 16.9853 70.8079C15.7336 78.6064 24.7566 79.6132 28.2885 79.918C31.8259 80.2228 36.9904 80.0323 47.9073 82.7533C58.8241 85.4744 66.4975 89.2077 70.9927 82.4649C72.6743 79.9398 72.8212 73.7249 66.7642 73.4365" stroke="black" stroke-width="1.72881" stroke-linecap="round" stroke-linejoin="round"/>
<path d="M83.1233 46.9824C84.0539 43.826 84.2226 37.4097 81.2675 34.0683C80.6798 30.4547 79.2703 27.1514 77.9369 24.6698C77.9914 22.531 77.9968 20.5501 76.4404 19.1025C74.9166 17.6876 72.5329 17.742 69.5017 18.1556C66.7208 16.561 63.6188 15.3855 60.076 14.5801C56.5332 13.7747 53.4257 13.6277 50.2312 13.655C48.37 12.1475 45.9592 11.9625 44.3048 12.5774C42.966 13.0727 41.6381 14.5529 40.9579 16.4794C38.9552 17.508 36.9906 19.5107 33.6382 23.5487C27.2438 24.1419 23.4071 29.6711 22.5527 33.1921C19.2003 47.0531 33.611 52.8816 50.34 55.6136C66.7425 58.2911 79.2485 60.1468 83.1178 46.9878L83.1233 46.9824Z" fill="#FFD677"/>
<path d="M50.34 55.6081C66.7425 58.2856 79.2484 60.1414 83.1178 46.9824C84.0484 43.826 84.2171 37.4097 81.262 34.0683C80.6743 30.4547 79.2648 27.1514 77.9315 24.6698C77.9859 22.531 77.9913 20.5501 76.4349 19.1025C74.9111 17.6876 72.5274 17.742 69.4962 18.1556C66.7153 16.561 63.6133 15.3855 60.0705 14.5801C56.5277 13.7747 53.4202 13.6277 50.2257 13.655C48.3645 12.1475 45.9537 11.9625 44.2993 12.5774C42.9605 13.0727 41.6326 14.5529 40.9524 16.4794C38.9497 17.508 36.1905 20.0875 33.6328 23.5487C27.2383 24.1419 23.4016 29.6711 22.5472 33.1921C20.452 41.8559 25.2955 47.3797 33.3062 50.9714" stroke="black" stroke-width="1.72881" stroke-linecap="round" stroke-linejoin="round"/>
<path d="M36.2067 54.4261C40.2502 48.8806 39.2271 42.7147 32.8272 42.5025C29.1156 42.3773 24.3756 47.0629 23.9076 52.8424C23.445 58.5893 29.2299 61.2614 29.2299 61.2614L31.4884 62.1865" fill="#FFD677"/>
<path d="M29.0125 61.1422C27.9621 60.5817 23.4996 57.9096 23.9078 52.8376C24.3758 47.058 29.1104 42.3724 32.8274 42.4976C39.2327 42.7153 40.2504 48.8812 36.2069 54.4212" stroke="black" stroke-width="1.72881" stroke-linecap="round" stroke-linejoin="round"/>
<path d="M30.3892 32.4359C29.415 35.957 31.6844 39.712 35.8041 40.6481C40.0326 41.6059 43.0638 39.5597 43.9836 35.8699C44.7999 32.6101 43.8856 29.3557 39.1891 27.8319C35.1129 26.5095 31.445 28.6101 30.3892 32.4359Z" fill="#FF9470"/>
<path d="M73.0496 42.1282C71.9993 45.9213 68.7503 48.5118 64.0756 47.222C59.1831 45.8669 57.3383 42.0139 58.5246 38.0956C59.575 34.6344 62.1763 32.278 67.3517 33.3066C71.7762 34.1882 74.1924 38.0085 73.0496 42.1282Z" fill="#FF9470"/>
<path d="M54.3889 40.3809C54.5902 43.9999 52.5494 47.1346 52.5494 47.1346C51.2651 51.4883 48.7019 55.7222 47.9781 55.6732C45.3169 55.4936 31.9021 54.4052 30.498 42.6829C30.1062 39.4068 31.913 39.3959 34.1334 38.8952C36.6966 38.3184 40.3755 35.3035 50.2529 37.5021" fill="#9C6793"/>
<path d="M44.5877 36.718C44.3646 36.2989 44.272 35.7928 44.3428 35.2159C44.6421 32.7343 48.0162 31.4827 52.2665 32.4296C56.778 33.4364 58.9657 36.4078 57.7576 38.9111C56.5004 41.5179 52.1631 40.2227 50.0026 37.7846C49.2733 36.9574 48.272 37.1152 48.272 37.1152" fill="white"/>
<path d="M44.5877 36.718C44.3646 36.2989 44.272 35.7928 44.3428 35.2159C44.6421 32.7343 48.0162 31.4827 52.2665 32.4296C56.778 33.4364 58.9657 36.4078 57.7576 38.9111C56.5004 41.5179 52.1631 40.2227 50.0026 37.7846C49.2733 36.9574 48.272 37.1152 48.272 37.1152" stroke="black" stroke-width="1.72881" stroke-linecap="round" stroke-linejoin="round"/>
<path d="M43.0802 32.2236L44.9741 33.7637" stroke="black" stroke-width="1.72881" stroke-linecap="round" stroke-linejoin="round"/>
<path d="M60.8758 36.2236L58.0242 36.425" stroke="black" stroke-width="1.72881" stroke-linecap="round" stroke-linejoin="round"/>
<path d="M59.5262 41.3116L57.567 39.6191" stroke="black" stroke-width="1.72881" stroke-linecap="round" stroke-linejoin="round"/>
<path d="M45.834 30.2151C46.934 30.2151 47.8258 29.3233 47.8258 28.2233C47.8258 27.1232 46.934 26.2314 45.834 26.2314C44.7339 26.2314 43.8422 27.1232 43.8422 28.2233C43.8422 29.3233 44.7339 30.2151 45.834 30.2151Z" fill="black"/>
<path d="M60.876 32.9963C61.976 32.9963 62.8678 32.1045 62.8678 31.0045C62.8678 29.9045 61.976 29.0127 60.876 29.0127C59.7759 29.0127 58.8842 29.9045 58.8842 31.0045C58.8842 32.1045 59.7759 32.9963 60.876 32.9963Z" fill="black"/>
<path d="M54.3889 40.3811C54.5902 44.0001 52.5494 47.1347 52.5494 47.1347C51.2651 51.4884 48.7019 55.7223 47.9781 55.6734C45.3169 55.4938 31.9021 54.4054 30.498 42.6831C30.1062 39.4069 31.913 39.396 34.1334 38.8954C36.6041 38.3348 40.1197 35.5104 49.2461 37.2899" stroke="black" stroke-width="1.72881" stroke-linecap="round" stroke-linejoin="round"/>
<circle cx="37.4475" cy="46.8244" r="0.952368" fill="black"/>
<circle cx="39.9238" cy="48.092" r="0.952368" fill="black"/>
<path d="M53.6216 64.0976C48.5768 60.8161 45.1483 54.7481 47.0095 48.6312C48.1414 44.9034 51.4339 42.2258 55.2325 44.0109C60.3535 46.4163 60.027 54.4651 64.397 57.5399L63.831 61.0773L53.6216 64.0976Z" fill="#FFD677"/>
<path d="M53.6217 64.0971C48.5768 60.8155 45.5946 54.5734 47.0966 48.3585C48.0217 44.5273 51.4829 42.726 55.2325 44.0049C60.5767 45.828 58.5849 54.2251 64.3644 57.5121" stroke="black" stroke-width="1.72881" stroke-linecap="round" stroke-linejoin="round"/>
<path d="M75.6839 79.0908C75.6839 79.0908 76.6308 81.0391 75.3737 82.6445" stroke="black" stroke-width="1.72881" stroke-linecap="round" stroke-linejoin="round"/>
<path d="M79.9068 80.6416C79.9123 81.0987 79.8361 81.6103 79.5912 82.1164" stroke="black" stroke-width="1.72881" stroke-linecap="round" stroke-linejoin="round"/>
</g>
</g>
<defs>
<clipPath id="clip0_3359_37686">
<rect width="102" height="102" fill="white"/>
</clipPath>
<clipPath id="clip1_3359_37686">
<rect width="68.7664" height="79.5254" fill="white" transform="translate(15.9078 11.293)"/>
</clipPath>
</defs>
</svg>
