<svg width="102" height="102" viewBox="0 0 102 102" fill="none" xmlns="http://www.w3.org/2000/svg">
<path d="M31.8254 79.0456C31.0001 80.9735 28.5911 82.2067 26.8576 82.4106C26.112 82.4966 25.4109 82.5158 25.0509 81.9485C24.0184 80.3362 26.8576 79.1412 28.0366 78.7206C29.1169 78.335 32.3002 77.9431 31.8254 79.0488V79.0456Z" fill="#FFCCD3" stroke="black" stroke-width="1.72881" stroke-linecap="round" stroke-linejoin="round"/>
<path d="M20.0289 74.2879C17.1642 74.9348 16.033 75.8334 13.5793 75.8047C13.283 75.8015 11.5495 75.9099 11.5973 77.6434C11.6387 79.0869 13.2384 79.278 13.6207 79.3099C15.2522 79.4469 18.1775 79.4756 21.3736 77.3311C22.3869 76.6492 21.0868 74.0489 20.0289 74.2879Z" fill="#FFCCD3" stroke="black" stroke-width="1.72881" stroke-linecap="round" stroke-linejoin="round"/>
<path d="M47.6211 65.1871C49.3833 64.2694 54.622 65.7129 52.1938 67.9467C50.3902 69.6068 46.4708 70.9643 46.3465 71.1746C43.4531 76.0596 38.9378 78.9275 35.3529 79.5648C26.8799 81.072 20.9625 78.6885 17.8493 75.7154C11.9318 70.0689 18.0532 63.3867 18.0532 63.3867C19.6815 64.3076 22.371 65.4866 26.0833 65.6523" fill="#FFCCD3"/>
<path d="M28.0111 21.0473C26.9596 18.4439 29.4132 16.5351 30.8694 16.4077C32.0134 16.3089 37.5261 15.7002 42.5513 26.2732C42.5513 26.2732 51.4768 26.0055 56.0654 32.4615C60.5967 38.8409 70.5833 62.9312 52.8215 63.5908C52.8215 63.5908 32.8228 64.961 31.1881 65.251C24.7608 66.5033 20.3475 64.687 18.0468 63.3869C18.0468 63.3869 9.4973 59.0149 9.24557 48.8945C9.048 41.0109 10.7592 33.7807 22.5048 29.7943" fill="#FFCCD3"/>
<path d="M25.3281 29.0392L22.508 29.7976C18.2922 27.4555 17.4127 25.5914 16.8136 24.0364C16.3197 22.749 16.1668 19.9544 18.2922 18.5874C20.4176 17.2203 23.6488 17.4976 27.6097 20.7128C29.2762 22.0639 31.2136 24.1543 33.1638 26.6684" fill="#FFCCD3"/>
<path d="M25.3281 29.0392L22.508 29.7976C18.2922 27.4555 17.4127 25.5914 16.8136 24.0364C16.3197 22.749 16.1668 19.9544 18.2922 18.5874C20.4176 17.2203 23.6488 17.4976 27.6097 20.7128C29.2762 22.0639 31.2136 24.1543 33.1638 26.6684" stroke="black" stroke-width="1.72881" stroke-linecap="round" stroke-linejoin="round"/>
<path d="M28.0111 21.0473C26.9596 18.4439 29.4132 16.5351 30.8694 16.4077C32.0134 16.3089 37.5261 15.7002 42.5513 26.2732C42.5513 26.2732 51.4768 26.0055 56.0654 32.4615C60.5967 38.8409 70.5833 62.9312 52.8215 63.5908C52.8215 63.5908 32.8228 64.961 31.1881 65.251C24.7608 66.5033 20.3475 64.687 18.0468 63.3869C18.0468 63.3869 9.4973 59.0149 9.24557 48.8945C9.048 41.0109 10.7592 33.7807 22.5048 29.7943" stroke="black" stroke-width="1.72881" stroke-linecap="round" stroke-linejoin="round"/>
<path d="M26.0802 65.6527C27.6097 65.7196 29.3145 65.6176 31.1914 65.2512C36.5034 64.2155 41.3087 61.6408 44.4697 61.5325C45.4448 61.5006 46.5569 61.4655 47.6563 63.4986C47.6563 63.4986 48.5772 65.8152 45.3078 67.5996C42.1372 69.3299 38.4153 70.9009 32.3258 72.3572" fill="#FFCCD3"/>
<path d="M36.4269 73.8415C36.4269 73.8415 31.7077 72.9237 30.3343 74.9376C28.9163 77.0121 30.5956 78.8507 33.8618 79.2554C36.9081 79.6314 39.0367 78.7806 39.3936 77.0886C39.7441 75.4411 37.6792 74.0836 36.4269 73.8446V73.8415Z" fill="white"/>
<path d="M38.259 76.248C38.259 76.248 34.5148 77.5545 31.4462 76.9108" stroke="black" stroke-width="1.72881" stroke-linecap="round" stroke-linejoin="round"/>
<path d="M32.7815 74.6572C32.7815 74.6572 35.2447 77.3658 37.0355 78.6946" stroke="black" stroke-width="1.72881" stroke-linecap="round" stroke-linejoin="round"/>
<path d="M26.7015 65.6718C28.0685 65.6909 29.563 65.5698 31.1881 65.2512C36.5001 64.2155 41.3054 61.6408 44.4665 61.5325C45.4415 61.5006 46.5536 61.4655 47.653 63.4986C47.653 63.4986 48.5739 65.8152 45.3045 67.5996C42.1339 69.3299 38.412 70.9009 32.3225 72.3572" stroke="black" stroke-width="1.72881" stroke-linecap="round" stroke-linejoin="round"/>
<path d="M47.6211 65.1871C49.3833 64.2694 54.622 65.7129 52.1938 67.9467C50.3902 69.6068 46.4708 70.9643 46.3465 71.1746C43.4531 76.0596 38.9378 78.9275 35.3529 79.5648C26.8799 81.072 20.9625 78.6885 17.8493 75.7154C11.9318 70.0689 18.0532 63.3867 18.0532 63.3867" stroke="black" stroke-width="1.72881" stroke-linecap="round" stroke-linejoin="round"/>
<path d="M37.0865 44.6822C38.103 44.7268 39.2979 44.2361 40.0818 42.7734C40.0818 42.7734 41.4106 44.4591 42.8223 44.0704C42.9912 45.9154 43.8388 50.4689 40.477 50.7494C37.4051 51.0075 37.1056 46.4188 37.1056 44.6822" fill="white"/>
<path d="M37.1025 44.6853C37.1025 46.422 37.402 51.0106 40.4738 50.7525C43.8356 50.4721 42.988 45.9185 42.8191 44.0703" stroke="black" stroke-width="1.72881" stroke-linecap="round" stroke-linejoin="round"/>
<path d="M35.353 38.3789C34.5181 38.4713 33.6865 38.927 32.8835 39.679L35.353 38.3789Z" fill="#FFCCD3"/>
<path d="M35.353 38.3789C34.5181 38.4713 33.6865 38.927 32.8835 39.679" stroke="black" stroke-width="1.72881" stroke-linecap="round" stroke-linejoin="round"/>
<path d="M42.6915 37.5947C43.7272 37.7286 44.3135 37.9994 44.7755 38.3468L42.6915 37.5947Z" fill="#FFCCD3"/>
<path d="M42.6915 37.5947C43.7272 37.7286 44.3135 37.9994 44.7755 38.3468" stroke="black" stroke-width="1.72881" stroke-linecap="round" stroke-linejoin="round"/>
<path d="M35.3212 43.8154C35.9903 44.9052 38.6893 45.3768 40.0819 42.7734C40.0819 42.7734 42.408 45.721 44.167 42.9232" stroke="black" stroke-width="1.72881" stroke-linecap="round" stroke-linejoin="round"/>
<path d="M60.3834 84.574C60.3834 84.5517 62.1806 84.4338 61.8843 82.576C61.623 80.9318 59.8959 81.2759 59.8895 81.2409C59.6314 79.7464 58.309 79.2302 57.5251 79.3736C55.6673 79.7177 56.0848 81.8463 56.0656 81.8527C55.6546 82.012 54.141 82.3371 54.4724 84.0769C54.5807 84.6473 55.2977 85.6128 56.6233 85.2496C56.636 85.2464 57.0822 87.1997 58.7392 86.9735C60.3962 86.7472 60.4567 85.4153 60.3834 84.5708V84.574Z" fill="white" stroke="#EAC8A5" stroke-width="1.72881" stroke-linecap="round" stroke-linejoin="round"/>
<path d="M11.3202 28.0198C11.3202 27.9975 13.2608 27.6534 12.9676 25.7956C12.7063 24.1514 10.8326 24.3203 10.8262 24.2852C10.5681 22.7907 9.33176 22.3287 8.54787 22.4721C6.69011 22.8162 6.97371 24.9034 6.9546 24.9161C6.93548 24.9289 4.9407 25.3559 5.21156 27.1563C5.33583 27.9816 6.2663 28.8197 7.58553 28.5647C7.59828 28.5647 7.83727 30.5786 9.72689 30.3492C11.505 30.1357 11.3903 28.8579 11.3202 28.0167V28.0198Z" fill="white" stroke="#EAC8A5" stroke-width="1.72881" stroke-linecap="round" stroke-linejoin="round"/>
<path d="M84.6808 17.2746C84.6649 17.2523 86.9241 15.8216 85.4073 14.1359C83.8905 12.4502 82.0296 14.5183 82.0073 14.4832C80.9717 12.9951 79.8468 12.5936 78.6742 13.3169C76.6539 14.5597 78.7188 16.7552 78.6965 16.7712C78.5148 16.905 76.7304 18.0043 77.8393 19.9864C78.1803 20.5982 79.6875 21.5064 81.4943 20.0214C81.507 20.0119 83.1608 22.0226 84.7732 20.7384C86.2199 19.5881 85.2512 18.1191 84.684 17.2714L84.6808 17.2746Z" fill="white" stroke="#EAC8A5" stroke-width="1.72881" stroke-linecap="round" stroke-linejoin="round"/>
<path d="M93.5073 48.4675C93.5073 60.8759 84.8176 70.5694 70.0607 71.0378C55.8265 71.4903 46.5855 62.0103 46.6652 48.8658C46.7416 36.4574 55.2688 25.9227 69.8473 26.0024C84.5053 26.0821 93.5073 36.0591 93.5073 48.4675Z" fill="white" stroke="black" stroke-width="1.72881" stroke-linecap="round" stroke-linejoin="round"/>
<path d="M83.9478 78.5549C81.8766 81.5566 84.002 82.5572 85.0631 82.6719C89.5179 83.1499 92.7746 78.8003 92.8957 78.7684C93.0008 78.7429 97.5831 79.4599 99.5746 77.9176C100.696 77.0509 100.209 75.6839 99.1986 74.5941C98.367 73.6986 97.0605 73.0008 97.0127 72.8446C94.4093 64.6393 86.376 62.0869 81.6376 61.5706C75.051 60.8537 71.1889 62.0104 67.9737 63.6037C67.1325 64.0211 65.6093 64.7699 64.7872 64.5979C54.4978 62.4724 55.5589 62.4342 52.0282 61.7427C50.7313 61.4878 47.8061 60.9206 46.8246 63.4953C45.4225 67.1694 49.4535 69.0463 62.0212 72.5037C63.162 72.816 64.6087 73.3895 66.3231 74.7948C71.0423 78.6569 75.6373 79.8264 83.113 80.384" fill="white"/>
<path d="M97.9432 73.5615C99.8997 74.8457 101.098 76.7385 99.5747 77.9175C97.5831 79.4566 93.004 78.7397 92.8957 78.7683C92.7746 78.8002 89.5179 83.1498 85.0632 82.6718C84.002 82.5571 81.8766 81.5566 83.9479 78.5548C88.425 78.5931 95.2187 77.4969 97.9432 73.5615Z" fill="#A8E6FF"/>
<path d="M83.9478 78.5547C81.8766 81.5564 84.002 82.557 85.0631 82.6717C89.5179 83.1497 92.7746 78.8 92.8957 78.7682C93.0008 78.7427 97.5831 79.4596 99.5746 77.9174C100.502 77.2004 100.457 76.1074 99.7117 75.1546C98.8163 74.0075 97.07 73.0324 97.0127 72.8476C94.4093 64.6422 86.376 62.0898 81.6376 61.5736C75.051 60.8566 71.1889 62.0133 67.9737 63.6066C67.1325 64.024 65.6093 64.7729 64.7872 64.6008C54.4978 62.4754 55.5589 62.4371 52.0282 61.7457C50.7313 61.4907 47.8061 60.9235 46.8246 63.4982C45.4225 67.1723 49.4535 69.0492 62.0212 72.5066C63.162 72.8189 64.6087 73.3925 66.3231 74.7977C71.0423 78.6598 75.6373 79.8293 83.113 80.3869" stroke="black" stroke-width="1.72881" stroke-linecap="round" stroke-linejoin="round"/>
<path d="M84.7796 82.6245C84.7796 82.6245 85.812 80.9133 87.1472 79.5049" stroke="black" stroke-width="1.72881" stroke-linecap="round" stroke-linejoin="round"/>
<path d="M96.5283 76.4932C96.5283 76.4932 98.6728 76.968 99.8965 77.583" stroke="black" stroke-width="1.72881" stroke-linecap="round" stroke-linejoin="round"/>
</svg>
