<svg width="102" height="102" viewBox="0 0 102 102" fill="none" xmlns="http://www.w3.org/2000/svg">
<g clip-path="url(#clip0_3359_37725)">
<path d="M77.0441 70.8418C77.8385 64.24 76.3934 58.9015 72.7087 54.8242L32.3889 55.6881C29.1418 58.4707 27.672 62.9138 27.9817 69.0152L77.0419 70.8395" fill="#FFD677"/>
<path d="M72.7079 54.8262C76.3925 58.9012 77.8376 64.2419 77.0433 70.8437M27.9831 69.0194C27.6734 62.918 29.141 58.4749 32.3903 55.6923M36.4968 63.7482L36.8939 66.0304M66.3238 64.206L65.9154 66.091" stroke="black" stroke-width="1.72881" stroke-linecap="round" stroke-linejoin="round"/>
<path d="M79.6388 36.9968C79.5109 33.4917 78.7749 30.229 77.4285 27.2108C76.1068 24.233 74.2667 21.639 71.9061 19.4309C69.6396 17.1533 66.5901 15.3356 62.7574 13.9803C59.1243 12.8762 55.3208 12.3242 51.3512 12.3242C47.3816 12.3242 43.6992 12.8762 39.945 13.9803C36.3053 15.2055 33.2535 17.0231 30.7963 19.4309C28.4199 21.6412 26.5732 24.233 25.2604 27.2108C23.923 30.229 23.1915 33.4895 23.0636 36.9968C22.7427 44.9697 24.8767 51.0015 29.4634 55.0923C34.187 59.2952 41.4822 61.4113 51.3512 61.445C61.2045 61.4136 68.4975 59.2952 73.2278 55.0923C77.8055 51.0015 79.944 44.9697 79.6388 36.9968Z" fill="#FFD677"/>
<path d="M79.6385 36.9968C79.5106 33.4917 78.7745 30.2289 77.4281 27.2108C76.1064 24.233 74.2664 21.639 71.9057 19.4309C69.6393 17.1533 66.5897 15.3356 62.757 13.9803C59.124 12.8762 55.3204 12.3242 51.3508 12.3242C47.3812 12.3242 43.6989 12.8762 39.9447 13.9803C36.3049 15.2055 33.2531 17.0231 30.796 19.4309C28.4196 21.6412 26.5728 24.233 25.2601 27.2108C23.9226 30.2289 23.1911 33.4895 23.0632 36.9968C22.7423 44.9697 24.8763 51.0015 29.463 55.0923C34.1866 59.2953 41.4818 61.4113 51.3508 61.445C61.2042 61.4136 68.4971 59.2953 73.2274 55.0923C77.8051 51.0015 79.9436 44.9697 79.6385 36.9968Z" stroke="black" stroke-width="1.72881" stroke-linecap="round" stroke-linejoin="round"/>
<path d="M39.7137 43.9699L42.7992 43.4336" stroke="black" stroke-width="1.72881" stroke-linecap="round" stroke-linejoin="round"/>
<path d="M40.5901 48.0663L42.8924 46.417" stroke="black" stroke-width="1.72881" stroke-linecap="round" stroke-linejoin="round"/>
<path d="M58.5449 44.4958L56.3368 44.2871" stroke="black" stroke-width="1.72881" stroke-linecap="round" stroke-linejoin="round"/>
<path d="M57.7039 49.0938L55.626 47.3301" stroke="black" stroke-width="1.72881" stroke-linecap="round" stroke-linejoin="round"/>
<path d="M37.8634 36.3338C37.8634 37.1013 38.1439 37.7588 38.7049 38.3041C39.2569 38.8493 39.9166 39.1209 40.6863 39.1209C41.456 39.1209 42.1517 38.8493 42.7037 38.3041C43.2647 37.7588 43.5452 37.1035 43.5452 36.3338C43.5452 35.5642 43.2647 34.9403 42.7037 34.3883C42.1517 33.852 41.4785 33.585 40.6863 33.585C39.8942 33.585 39.2569 33.8542 38.7049 34.3883C38.1439 34.9403 37.8634 35.5888 37.8634 36.3338Z" fill="black"/>
<path d="M56.0396 36.3545C56.0396 37.122 56.3223 37.7727 56.8855 38.309C57.4398 38.8543 58.104 39.1259 58.8782 39.1259C59.6524 39.1259 60.3368 38.8543 60.8843 38.309C61.4386 37.7727 61.7168 37.122 61.7168 36.3545C61.7168 35.5871 61.4386 34.9453 60.8843 34.4C60.3368 33.8637 59.6681 33.5967 58.8782 33.5967C58.0883 33.5967 57.4398 33.8637 56.8855 34.4C56.3223 34.9453 56.0396 35.5961 56.0396 36.3545Z" fill="black"/>
<path d="M39.1127 35.1591C39.8307 34.156 40.8607 33.5681 42.1981 33.3931M56.8222 33.3818C58.3189 33.5748 59.5284 34.1493 60.4484 35.1119" stroke="black" stroke-width="1.72881" stroke-linecap="round" stroke-linejoin="round"/>
<path d="M32.9994 24.5195C34.5612 25.1725 36.049 25.5809 37.346 25.2039C39.3499 24.6204 40.0545 23.2359 40.7568 21.1221M61.5047 21.3622C61.7134 23.6084 62.8264 24.7663 64.4712 25.3183C65.8849 25.794 67.4176 25.4417 68.9368 24.7483" stroke="black" stroke-width="1.72881" stroke-linecap="round" stroke-linejoin="round"/>
<path d="M62.876 40.4551C62.0525 41.4469 61.505 42.524 61.2312 43.6909C60.9597 44.8555 61.0517 45.7262 61.5072 46.3029C61.9627 46.8796 62.5776 47.1399 63.3563 47.0838C64.1349 47.0255 64.6959 46.6776 65.037 46.0381C65.3781 45.4008 65.322 44.4583 64.8687 43.2107C64.4177 41.963 63.7534 41.0452 62.876 40.4551Z" fill="#D0EBF7" stroke="black" stroke-width="1.72881" stroke-linecap="round" stroke-linejoin="round"/>
<path d="M60.2814 37.3551C60.4183 37.2272 60.4856 37.0701 60.4856 36.8861C60.4856 36.7021 60.4183 36.545 60.2814 36.4171C60.1446 36.2802 59.9807 36.2129 59.79 36.2129C59.5993 36.2129 59.4175 36.2802 59.2739 36.4171C59.146 36.545 59.0809 36.7021 59.0809 36.8861C59.0809 37.0701 59.146 37.2272 59.2739 37.3551C59.4175 37.492 59.5903 37.5593 59.79 37.5593C59.9897 37.5593 60.1468 37.492 60.2814 37.3551ZM57.3867 35.3265C57.2274 35.4948 57.1466 35.6878 57.1466 35.9032C57.1466 36.1344 57.2274 36.3363 57.3867 36.5046C57.5617 36.6572 57.7749 36.7335 58.024 36.7335C58.2731 36.7335 58.4638 36.6572 58.6254 36.5046C58.8004 36.3363 58.8902 36.1366 58.8902 35.9032C58.8902 35.6878 58.8027 35.4948 58.6254 35.3265C58.4661 35.1582 58.2641 35.0752 58.024 35.0752C57.7839 35.0752 57.564 35.1582 57.3867 35.3265ZM41.2861 37.4987C41.4298 37.6356 41.6025 37.7029 41.8023 37.7029C42.002 37.7029 42.159 37.6356 42.2937 37.4987C42.4306 37.3708 42.4979 37.2137 42.4979 37.0297C42.4979 36.8457 42.4306 36.6886 42.2937 36.5607C42.1568 36.4238 41.993 36.3565 41.8023 36.3565C41.6115 36.3565 41.4298 36.4238 41.2861 36.5607C41.1582 36.6886 41.0932 36.8457 41.0932 37.0297C41.0932 37.2137 41.1582 37.3708 41.2861 37.4987ZM40.0385 35.2166C39.7894 35.2166 39.583 35.2973 39.4147 35.4567C39.2464 35.625 39.1633 35.8202 39.1633 36.0446C39.1633 36.269 39.2464 36.4732 39.4147 36.6325C39.583 36.7918 39.7916 36.8726 40.0385 36.8726C40.2853 36.8726 40.4828 36.7918 40.6511 36.6325C40.8194 36.4732 40.9024 36.2757 40.9024 36.0446C40.9024 35.8135 40.8194 35.625 40.6511 35.4567C40.4828 35.2973 40.2786 35.2166 40.0385 35.2166Z" fill="white"/>
<path d="M31.7897 80.9654C29.2473 79.1905 27.6226 77.108 26.9158 74.7227C25.9352 70.8137 27.2187 68.343 30.7709 67.3086C33.0351 66.7453 36.2575 65.9151 40.5794 65.4573C45.2446 64.9636 49.5037 65.0377 52.9796 65.2239C59.9943 65.6031 66.4301 66.3257 73.2159 67.8067C77.9103 68.8322 79.0143 71.1189 76.7815 75.1558C75.6887 77.1305 74.3827 78.7484 72.6863 79.8996C70.2314 81.5623 67.6732 82.617 65.0388 83.1062" fill="#FF9797"/>
<path d="M31.7897 80.9654C29.2473 79.1905 27.6226 77.108 26.9158 74.7227C25.9352 70.8137 27.2187 68.343 30.7709 67.3086C33.0351 66.7453 36.2575 65.9151 40.5794 65.4573C45.2446 64.9636 49.5037 65.0377 52.9796 65.2239C59.9943 65.6031 66.4301 66.3257 73.2159 67.8067C77.9103 68.8322 79.0143 71.1189 76.7815 75.1558C75.6887 77.1305 74.3827 78.7484 72.6863 79.8996C70.2314 81.5623 67.6732 82.617 65.0388 83.1062" stroke="black" stroke-width="1.72881" stroke-linecap="round" stroke-linejoin="round"/>
<path d="M32.6553 72.0801C30.7277 75.4954 30.4808 79.088 31.9596 82.5729C33.4384 86.0578 36.5486 87.9787 40.8323 88.037C45.1251 88.0931 48.2711 86.0534 49.3101 82.3822L48.5651 79.2249L32.6553 72.0801Z" fill="#FF9797"/>
<path d="M32.6547 72.0801C30.7272 75.4954 30.4848 79.088 31.9636 82.5797C33.4446 86.0713 36.5481 87.9854 40.8363 88.0438C45.1246 88.0999 48.2684 86.0534 49.3073 82.3822" stroke="black" stroke-width="1.72881" stroke-linecap="round" stroke-linejoin="round"/>
<path d="M50.3883 71.54C47.6888 74.4752 46.7732 77.886 47.6394 81.7704C48.5056 85.6547 51.1782 87.883 55.6594 88.4574C60.1496 89.0319 63.4819 86.8193 65.6608 81.8175L50.3883 71.54Z" fill="#FF9797"/>
<path d="M50.3877 71.54C47.6881 74.4752 46.7726 77.886 47.6388 81.7704C48.505 85.6547 51.1798 87.883 55.6655 88.4574C60.1512 89.0319 63.4835 86.8193 65.6602 81.8175" stroke="black" stroke-width="1.72881" stroke-linecap="round" stroke-linejoin="round"/>
<path d="M49.4382 40.249C47.1336 40.249 45.3003 40.8168 43.9382 41.9544C42.6569 43.0271 42.1542 44.268 42.4258 45.6772C42.722 47.1897 43.6577 48.1074 45.2352 48.4261C46.8285 48.747 48.2287 48.2264 49.4382 46.8643C50.6387 48.2241 52.0435 48.7447 53.6524 48.4261C55.2142 48.1052 56.141 47.1897 56.4372 45.6772C56.7087 44.268 56.2061 43.0271 54.9247 41.9544C53.5649 40.8168 51.7338 40.249 49.4382 40.249Z" fill="white" stroke="black" stroke-width="1.72881" stroke-linecap="round" stroke-linejoin="round"/>
</g>
<defs>
<clipPath id="clip0_3359_37725">
<rect width="102" height="102" fill="white"/>
</clipPath>
</defs>
</svg>
