<svg width="102" height="102" viewBox="0 0 102 102" fill="none" xmlns="http://www.w3.org/2000/svg">
<path d="M8.77296 72.2966C7.89107 70.7262 5.78741 70.357 4.43381 71.4264C3.40835 72.238 2.97766 73.8113 3.69548 75.0536C4.41037 76.2959 6.10677 76.7002 7.39299 76.1757C8.6792 75.6513 9.68122 73.9168 8.77296 72.2966Z" fill="white" stroke="black" stroke-width="1.55593" stroke-linecap="round" stroke-linejoin="round"/>
<path d="M12.5084 60.4248C9.58149 62.4611 6.77467 68.0601 6.78053 70.8933C6.78639 73.7675 9.11271 73.7206 9.75435 73.6943C11.2017 73.6298 20.255 71.9773 20.7795 70.8786" fill="#D1ECFD"/>
<path d="M12.5084 60.4248C9.58149 62.4611 6.77467 68.0601 6.78053 70.8933C6.78639 73.7675 9.11271 73.7206 9.75435 73.6943C11.2017 73.6298 20.255 71.9773 20.7795 70.8786" stroke="black" stroke-width="1.55593" stroke-linecap="round" stroke-linejoin="round"/>
<path d="M11.1022 71.8688C9.20368 72.8942 8.63821 74.6404 8.96343 75.953C9.39705 77.6992 10.5221 78.5665 12.7488 79.2785C15.4179 80.131 17.7501 79.797 20.3987 79.8293C22.8481 79.8586 24.1402 80.6233 26.4812 80.9807C31.5792 81.7571 35.3294 81.1331 37.7143 78.461C39.9645 75.9413 38.3355 72.6598 36.3168 70.8814C34.9075 69.6391 15.2568 69.6274 11.1022 71.8717V71.8688Z" fill="white" stroke="black" stroke-width="1.55593" stroke-linecap="round" stroke-linejoin="round"/>
<path d="M20.7825 54.9368C16.25 55.1975 10.3023 59.4546 10.7272 64.7196C11.152 69.9583 16.4199 72.0854 21.3773 71.4613C27.867 70.6439 29.7069 66.8672 30.0409 63.5272C30.3749 60.1871 28.5613 54.4914 20.7825 54.9368Z" fill="white" stroke="black" stroke-width="1.55593" stroke-linecap="round" stroke-linejoin="round"/>
<path d="M18.8019 58.9767C16.376 59.3576 14.577 61.5374 15.0546 63.9546C15.3564 65.484 16.2822 66.8932 18.213 67.2683C20.3196 67.6784 22.4847 66.946 24.3628 67.1364C25.7545 67.277 27.1872 65.3756 27.1081 63.811C26.9499 60.7551 23.7124 58.2032 18.8048 58.9737L18.8019 58.9767Z" fill="#CCCCCC" stroke="black" stroke-width="1.55593" stroke-linecap="round" stroke-linejoin="round"/>
<path d="M19.7305 53.5039C17.4393 54.6729 15.5056 58.2767 16.868 61.3794C18.2275 64.4822 21.7609 64.6257 24.0989 63.1169" fill="#FFDD70"/>
<path d="M19.7305 53.5039C17.4393 54.6729 15.5056 58.2767 16.868 61.3794C18.2275 64.4822 21.7609 64.6257 24.0989 63.1169" stroke="black" stroke-width="1.55593" stroke-linecap="round" stroke-linejoin="round"/>
<path d="M18.9453 60.5919C19.1357 60.0675 19.6015 59.2149 20.2578 58.7783" stroke="black" stroke-width="1.55593" stroke-linecap="round" stroke-linejoin="round"/>
<path d="M26.1263 66.4131C24.8547 67.878 25.2356 70.5882 27.3041 71.6547C29.2788 72.6713 32.5456 72.3549 33.7147 70.2542" fill="#FFDD70"/>
<path d="M26.1263 66.4131C24.8547 67.878 25.2356 70.5882 27.3041 71.6547C29.2788 72.6713 32.5456 72.3549 33.7147 70.2542" stroke="black" stroke-width="1.55593" stroke-linecap="round" stroke-linejoin="round"/>
<path d="M19.3964 44.9134C16.3757 52.8212 19.1093 63.3366 27.8111 68.792C36.0792 73.9779 50.5616 78.9411 62.3016 75.8882C74.0416 72.8323 75.8552 49.5427 69.7464 43.3401C63.6376 37.1346 49.9551 32.4263 40.6322 32.1714C31.2185 31.9135 23.0207 35.4177 19.3935 44.9134H19.3964Z" fill="#90EBA5" stroke="black" stroke-width="1.55593" stroke-linecap="round" stroke-linejoin="round"/>
<path d="M24.219 47.5944C25.5257 46.4547 27.1371 42.7748 26.223 40.8557C25.429 39.1915 23.2492 40.1877 23.4074 41.5706C23.5627 42.9184 25.3148 43.144 26.9086 41.8724C28.1655 40.8704 29.5426 38.4884 29.8561 37.2256" stroke="black" stroke-width="1.55593" stroke-linecap="round" stroke-linejoin="round"/>
<path d="M28.3413 45.6641C28.2446 45.8662 28.0718 47.0265 28.0747 47.2462" stroke="black" stroke-width="1.55593" stroke-linecap="round" stroke-linejoin="round"/>
<path d="M30.6705 40.3927C30.7965 40.1524 31.6959 39.3408 31.9303 39.2002" stroke="black" stroke-width="1.55593" stroke-linecap="round" stroke-linejoin="round"/>
<path d="M35.3497 42.2268C37.0636 41.9104 38.4143 43.5921 38.8216 44.1722C39.0911 44.5619 40.1195 44.1576 41.2123 45.1772C42.1353 46.0386 42.0679 47.2662 41.687 48.0367C41.3061 48.8073 40.2455 49.5603 39.2376 49.238C38.467 48.9919 38.2502 48.2623 37.4885 48.2887C36.7267 48.3151 35.4112 48.6227 34.8867 48.1803C34.4092 47.7789 33.7558 47.1578 32.8798 47.1138C33.6298 46.1001 33.7441 44.3158 32.701 43.5833C33.6122 43.7093 34.8604 43.1966 35.3526 42.2268H35.3497Z" fill="white"/>
<path d="M35.5135 40.873C35.8974 42.6925 33.9724 43.759 32.6979 43.5861C34.0925 44.5647 33.4245 47.4067 31.9332 47.811" stroke="black" stroke-width="1.55593" stroke-linecap="round" stroke-linejoin="round"/>
<path d="M32.8768 47.1174C33.7528 47.1614 34.4062 47.7825 34.8837 48.1839C35.4082 48.6263 36.7208 48.3158 37.4855 48.2923C38.2502 48.2689 38.464 48.9955 39.2346 49.2416C40.2425 49.5639 41.306 48.8051 41.684 48.0404C42.0619 47.2757 42.1323 46.0422 41.2093 45.1808C40.1165 44.1583 39.091 44.5626 38.8186 44.1758C38.4142 43.5928 37.0636 41.911 35.3467 42.2304" stroke="black" stroke-width="1.55593" stroke-linecap="round" stroke-linejoin="round"/>
<path d="M85.6822 58.5642C89.4002 54.937 94.6154 56.3463 96.8363 59.2996C99.0454 62.2354 98.6704 66.9144 97.4047 70.1138C95.4475 75.0565 90.0888 82.3461 79.4299 84.3414C71.0534 85.9088 62.2725 84.5406 57.9744 84.5083C54.7076 84.4849 50.6233 84.7867 46.8848 84.3824C42.9236 83.9517 38.5317 82.5658 37.3978 78.5929C36.1439 74.1981 39.0181 71.4938 41.7897 68.7924C43.8494 66.7855 46.1377 65.0393 45.6894 60.5214C45.2441 56.0035 44.1893 50.1789 46.8145 44.7234C48.8742 40.4429 53.9429 36.8245 57.2624 35.6965C59.7089 34.8673 62.3399 34.8058 64.6633 36.3498C66.6761 37.6858 67.9037 41.4859 67.2504 43.6863" fill="white"/>
<path d="M85.6822 58.5642C89.4002 54.937 94.6154 56.3463 96.8363 59.2996C99.0454 62.2354 98.6704 66.9144 97.4047 70.1138C95.4475 75.0565 90.0888 82.3461 79.4299 84.3413C71.0534 85.9088 62.2725 84.5406 57.9744 84.5083C54.7076 84.4849 50.6233 84.7867 46.8848 84.3824C42.9236 83.9517 38.5317 82.5658 37.3978 78.5929C36.1439 74.1981 39.0181 71.4938 41.7897 68.7924C43.8494 66.7855 46.1377 65.0393 45.6894 60.5214C45.2441 56.0035 44.1893 50.1789 46.8145 44.7234C48.8742 40.4429 53.9429 36.8245 57.2624 35.6965C59.7089 34.8673 62.3399 34.8058 64.6633 36.3498C66.6761 37.6858 67.9037 41.4859 67.2504 43.6863" stroke="black" stroke-width="1.55593" stroke-linecap="round" stroke-linejoin="round"/>
<path d="M92.2746 56.9586C94.1907 63.7062 90.1768 71.3532 84.1149 74.9335C76.9894 79.1408 68.276 77.585 64.0218 76.7149C60.1543 75.9238 53.9049 76.8438 51.8511 77.4151C49.7972 77.9864 45.3731 78.1915 44.4619 76.3691C43.7412 74.9247 44.4238 73.2722 47.0168 71.2975C50.9662 68.2944 52.3198 60.6122 52.0239 56.7946C51.7661 53.4838 51.7016 48.418 53.902 45.3709C57.4295 40.4839 62.5158 38.8314 66.2368 38.5941C71.367 38.2689 75.0821 39.353 79.764 42.0133C85.9519 45.5262 90.6514 51.2512 92.2716 56.9557L92.2746 56.9586Z" fill="#D1ECFD" stroke="black" stroke-width="1.55593" stroke-linecap="round" stroke-linejoin="round"/>
<path d="M56.0462 43.1425C56.474 43.1249 57.9565 43.3652 58.4897 43.5908" stroke="black" stroke-width="1.55593" stroke-linecap="round" stroke-linejoin="round"/>
<path d="M54.8098 44.2119C54.8889 44.7832 55.472 46.5763 55.7327 47.0891" stroke="black" stroke-width="1.55593" stroke-linecap="round" stroke-linejoin="round"/>
<path d="M49.1933 41.0089C49.6445 42.0021 51.42 41.5158 52.8293 40.6163C54.2356 39.7197 55.1146 38.1317 54.3733 37.0828C53.26 35.6208 51.6017 35.7497 50.251 36.5848C48.6395 37.5809 48.2235 39.1865 49.1933 41.0089Z" fill="#90EBA5"/>
<path d="M49.1934 41.0091C49.8291 43.0131 52.551 45.7525 54.9623 44.437C57.356 43.1303 55.853 38.7062 54.3734 37.083" fill="#90EBA5"/>
<path d="M49.1934 41.0091C49.8291 43.0131 52.551 45.7525 54.9623 44.437C57.356 43.1303 55.853 38.7062 54.3734 37.083" stroke="black" stroke-width="1.55593" stroke-linecap="round" stroke-linejoin="round"/>
<path d="M44.3589 49.318C46.6179 47.0298 50.5234 46.3031 51.6133 48.8756C53.1076 52.4061 47.0632 57.8322 43.4507 59.5345" fill="#90EBA5"/>
<path d="M44.3589 49.318C46.6179 47.0298 50.5234 46.3031 51.6133 48.8756C53.1076 52.4061 47.0632 57.8322 43.4507 59.5345" stroke="black" stroke-width="1.55593" stroke-linecap="round" stroke-linejoin="round"/>
<path d="M53.8783 12.9581C51.6252 12.8087 49.3311 14.5461 49.5597 17.3969C49.7735 20.0924 52.1497 21.0944 53.9984 21.0065C56.0259 20.9099 57.7926 19.4508 57.9362 17.183C58.0739 14.9915 56.4097 13.1251 53.8783 12.9581Z" fill="white" stroke="black" stroke-width="1.55593" stroke-linecap="round" stroke-linejoin="round"/>
<path d="M47.9511 23.9658C47.0517 23.9658 46.4862 24.7042 46.4862 25.4601C46.4862 26.2306 47.1864 26.9074 47.9511 26.8928C48.7158 26.8781 49.3809 26.216 49.3809 25.4278C49.3809 24.7129 48.8477 23.9658 47.9511 23.9658Z" fill="white" stroke="black" stroke-width="1.55593" stroke-linecap="round" stroke-linejoin="round"/>
<path d="M34.7959 22.6328C34.6524 22.9199 34.3125 23.4678 34.2158 23.6436" stroke="black" stroke-width="1.55593" stroke-linecap="round" stroke-linejoin="round"/>
<path d="M35.5663 25.9053C35.8359 25.9053 36.4775 25.9756 36.6592 25.9902" stroke="black" stroke-width="1.55593" stroke-linecap="round" stroke-linejoin="round"/>
<path d="M30.6589 23.6436C30.7322 23.6875 31.4061 24.1475 31.4676 24.1914" stroke="black" stroke-width="1.55593" stroke-linecap="round" stroke-linejoin="round"/>
<path d="M30.445 27.4815C30.6032 27.3789 31.1394 27.0566 31.3064 26.9834" stroke="black" stroke-width="1.55593" stroke-linecap="round" stroke-linejoin="round"/>
<path d="M33.9228 28.0498C33.9931 28.2871 34.1337 28.9024 34.1953 29.1427" stroke="black" stroke-width="1.55593" stroke-linecap="round" stroke-linejoin="round"/>
</svg>
