<svg width="102" height="102" viewBox="0 0 102 102" fill="none" xmlns="http://www.w3.org/2000/svg">
<g clip-path="url(#clip0_3359_37759)">
<path d="M31.999 44.251L38.1606 65.5093L66.9381 66.2162L71.4 51.0632" fill="#FFD677"/>
<path d="M69.8744 50.1533C77.0986 51.387 81.5898 63.1609 73.3683 68.9173C67.9474 72.7128 69.9487 76.693 66.5044 75.1532C63.1995 73.6764 61.9614 69.721 63.2963 66.2158C64.8069 62.2492 65.498 62.5463 65.7907 59.7841" fill="#FFD677"/>
<path d="M69.8744 50.1533C77.0986 51.387 81.5898 63.1609 73.3683 68.9173C67.9474 72.7128 69.9487 76.693 66.5044 75.1532C63.1995 73.6764 61.9614 69.721 63.2963 66.2158C64.8069 62.2492 65.498 62.5463 65.7907 59.7841" stroke="black" stroke-width="1.72881" stroke-linecap="round" stroke-linejoin="round"/>
<path d="M52.8436 86.7571C49.6513 88.4095 45.6329 90.0619 41.9769 89.1051C40.0273 88.5964 38.6316 87.1803 38.0597 85.2578C36.5177 80.0822 40.6149 78.2993 45.0408 77.5068" fill="#FF9797"/>
<path d="M52.8436 86.7571C49.6513 88.4095 45.6329 90.0619 41.9769 89.1051C40.0273 88.5964 38.6316 87.1803 38.0597 85.2578C36.5177 80.0822 40.6149 78.2993 45.0408 77.5068" stroke="black" stroke-width="1.72881" stroke-linecap="round" stroke-linejoin="round"/>
<path d="M60.4344 78.4321C63.827 82.419 64.5092 86.3159 61.1841 89.0691C57.6474 91.998 51.9586 90.9106 47.3098 87.4843C41.0333 82.8602 35.6372 76.1201 34.8447 69.9089C34.6106 68.0719 34.5431 65.8477 35.2409 64.103C36.4746 61.0166 39.6443 60.303 43.7191 59.8662C51.6974 59.0153 59.5092 59.3327 66.8257 62.9099C69.3988 64.1683 72.6046 65.6901 73.737 68.5357C74.1647 69.6095 74.1332 70.7374 73.5389 71.7279C72.9378 72.7275 72.1679 73.6145 71.3394 74.4317C68.6582 77.0836 65.6528 79.4249 62.4966 81.4847" fill="#FF9797"/>
<path d="M60.4344 78.4321C63.8271 82.419 64.5092 86.3159 61.1841 89.0691C57.6474 91.998 51.9586 90.9106 47.3098 87.4843C41.0334 82.8602 35.6372 76.1201 34.8447 69.9089C34.6106 68.0719 34.5431 65.8477 35.2409 64.103C36.4746 61.0166 39.6443 60.303 43.7191 59.8662C51.6974 59.0153 59.5092 59.3327 66.8257 62.9099C69.3988 64.1683 72.6046 65.6901 73.737 68.5357C74.1647 69.6095 74.1332 70.7374 73.5389 71.7279C72.9378 72.7275 72.1679 73.6145 71.3394 74.4317C68.6582 77.0836 65.6528 79.4249 62.4966 81.4847" stroke="black" stroke-width="1.72881" stroke-linecap="round" stroke-linejoin="round"/>
<path d="M39.9954 63.7744C39.4236 61.9914 39.6285 60.5664 39.6285 60.5664" stroke="black" stroke-width="1.72881" stroke-linecap="round" stroke-linejoin="round"/>
<path d="M49.3562 62.0462C49.2999 61.1322 49.2458 59.5586 49.2458 59.5586" stroke="black" stroke-width="1.72881" stroke-linecap="round" stroke-linejoin="round"/>
<path d="M59.7072 63.0385C59.8175 62.0705 60.3645 60.7197 60.3645 60.7197" stroke="black" stroke-width="1.72881" stroke-linecap="round" stroke-linejoin="round"/>
<path d="M68.6051 66.4284C69.366 65.2938 69.5956 64.3438 69.5956 64.3438" stroke="black" stroke-width="1.72881" stroke-linecap="round" stroke-linejoin="round"/>
<path d="M80.3954 35.4373C80.6655 29.4941 78.5224 24.2217 74.7808 20.2933C74.7718 18.0421 74.155 16.3312 73.0384 15.5005C71.6606 14.4762 69.9632 14.134 67.3675 15.2528C64.4454 14.161 61.395 13.4946 57.8628 13.2808C54.3329 13.0669 50.776 13.4046 47.7683 14.0912C45.3257 12.6684 43.599 12.7157 42.1087 13.5667C40.8998 14.2555 40.1051 15.7256 39.9588 18.0308C35.6432 22.2001 32.7346 27.3869 32.1425 33.3077C31.9512 35.2167 31.9512 36.9929 32.1425 38.6386C32.3339 40.2842 33.3312 41.5269 33.9165 42.9091C37.1538 50.5723 43.4797 53.6295 55.4113 54.3836C72.2369 55.3539 79.8348 47.7335 80.3954 35.4396V35.4373Z" fill="#FFD677" stroke="black" stroke-width="1.72881" stroke-linecap="round" stroke-linejoin="round"/>
<path d="M50.9452 27.764C51.0074 26.7352 50.2227 25.8507 49.1927 25.7884C48.1626 25.7261 47.2771 26.5097 47.2149 27.5385C47.1527 28.5673 47.9373 29.4519 48.9674 29.5141C49.9975 29.5764 50.8829 28.7929 50.9452 27.764Z" fill="black"/>
<path d="M65.1124 28.6517C65.1746 27.6229 64.39 26.7384 63.3599 26.6761C62.3298 26.6138 61.4444 27.3974 61.3822 28.4262C61.32 29.455 62.1046 30.3396 63.1346 30.4018C64.1647 30.4641 65.0502 29.6806 65.1124 28.6517Z" fill="black"/>
<path d="M55.3518 31.5224C51.16 31.2792 48.8885 33.1388 48.9718 35.5183C49.0641 38.1185 52.6458 39.5165 54.8363 37.4386C56.7746 40.2436 60.6985 39.3319 61.268 36.7925C61.8398 34.2374 59.4963 31.761 55.3518 31.5224Z" fill="white" stroke="black" stroke-width="1.72881" stroke-linecap="round" stroke-linejoin="round"/>
<path d="M47.1304 32.7217L49.3343 33.8743" stroke="black" stroke-width="1.72881" stroke-linecap="round" stroke-linejoin="round"/>
<path d="M46.6577 37.4902L49.1273 36.3398" stroke="black" stroke-width="1.72881" stroke-linecap="round" stroke-linejoin="round"/>
<path d="M64.0216 33.8574L61.1355 34.8322" stroke="black" stroke-width="1.72881" stroke-linecap="round" stroke-linejoin="round"/>
<path d="M63.306 38.6568L61.1021 37.3691" stroke="black" stroke-width="1.72881" stroke-linecap="round" stroke-linejoin="round"/>
<path d="M36.6928 60.1674C31.4069 59.9332 25.1417 54.5821 24.5361 48.6861C23.8158 41.6826 28.6536 35.9487 32.1273 35.4309C34.9819 35.0032 35.6955 37.0878 34.5496 39.7015C34.8288 40.6402 36.5307 43.2539 34.4911 46.5722" fill="#FFD677"/>
<path d="M36.6928 60.1674C31.4069 59.9332 25.1417 54.5821 24.5361 48.6861C23.8158 41.6826 28.6536 35.9487 32.1273 35.4309C34.9819 35.0032 35.6955 37.0878 34.5496 39.7015C34.8288 40.6402 36.5307 43.2539 34.4911 46.5722" stroke="black" stroke-width="1.72881" stroke-linecap="round" stroke-linejoin="round"/>
<g clip-path="url(#clip1_3359_37759)">
<path d="M20.0328 43.9668C19.0173 45.6926 19.3928 48.0434 19.8877 48.9543" stroke="black" stroke-width="1.49327" stroke-linecap="round" stroke-linejoin="round"/>
<path d="M16.0223 44.8721C15.6745 45.7339 15.7727 46.952 15.7727 46.952" stroke="black" stroke-width="1.49327" stroke-linecap="round" stroke-linejoin="round"/>
</g>
<path d="M37.5727 57.6191C36.9896 59.0239 36.8118 60.6808 36.787 61.955L37.5727 57.6191Z" fill="#FFD677"/>
<path d="M37.5727 57.6191C36.9896 59.0239 36.8118 60.6808 36.787 61.955" stroke="black" stroke-width="1.72881" stroke-linecap="round" stroke-linejoin="round"/>
</g>
<defs>
<clipPath id="clip0_3359_37759">
<rect width="102" height="102" fill="white"/>
</clipPath>
<clipPath id="clip1_3359_37759">
<rect width="5.76404" height="6.48081" fill="white" transform="translate(15.0142 43.2197)"/>
</clipPath>
</defs>
</svg>
