<svg width="102" height="102" viewBox="0 0 102 102" fill="none" xmlns="http://www.w3.org/2000/svg">
<g clip-path="url(#clip0_3359_39693)">
<path d="M59.9137 80.4052C59.0054 79.5179 57.1337 78.9981 55.3223 79.1871C52.6762 79.4627 53.1514 82.2375 55.85 81.9277C57.2754 81.7623 59.1734 82.1482 60.2891 82.8544" fill="#FFCCD3"/>
<path d="M59.9137 80.4052C59.0054 79.5179 57.1337 78.9981 55.3223 79.1871C52.6762 79.4627 53.1514 82.2375 55.85 81.9277C57.2754 81.7623 59.1734 82.1482 60.2891 82.8544" stroke="black" stroke-width="1.65798" stroke-linecap="round" stroke-linejoin="round"/>
<path d="M69.1882 85.3066C72.6377 87.0235 73.1994 90.7958 71.8632 91.0373C69.6634 91.4337 70.1937 88.5067 66.844 86.3278" fill="#FFCCD3"/>
<path d="M69.1882 85.3066C72.6377 87.0235 73.1994 90.7958 71.8632 91.0373C69.6634 91.4337 70.1937 88.5067 66.844 86.3278" stroke="black" stroke-width="1.65798" stroke-linecap="round" stroke-linejoin="round"/>
<path d="M60.7276 69.8941C58.7036 67.1955 56.3646 66.5024 54.7554 67.4212C52.7997 68.5369 54.1805 72.7214 59.6985 75.5696C56.8818 78.9219 57.7087 83.0828 62.7122 85.8077C68.0937 88.7399 73.2074 87.2909 73.5146 82.2322C76.4783 83.6918 76.313 84.818 77.3315 86.8866C78.3973 89.0523 81.369 88.4328 80.9542 85.6003C80.1089 79.8302 74.6171 76.7168 68.8786 74.3122C68.8786 74.3122 62.0428 71.6425 60.7302 69.8941H60.7276Z" fill="#FFCCD3" stroke="black" stroke-width="1.65798" stroke-linecap="round" stroke-linejoin="round"/>
<path d="M68.3299 82.6688C67.6736 83.5981 65.7127 83.6979 64.3082 82.7975C63.014 81.9679 62.4129 80.2406 63.413 79.0698C64.0457 78.3295 65.6602 78.0092 67.062 78.823C68.7526 79.8048 69.1385 81.5243 68.3299 82.6688Z" fill="white"/>
<path d="M67.721 80.7031C66.6867 80.7845 64.353 81.0706 63.9172 81.1914" stroke="black" stroke-width="1.65798" stroke-linecap="round" stroke-linejoin="round"/>
<path d="M65.0038 79.0586C65.0038 79.0586 66.2298 81.7494 66.8441 82.7574" stroke="black" stroke-width="1.65798" stroke-linecap="round" stroke-linejoin="round"/>
<path d="M84.1516 58.2837C87.5485 55.7399 85.3381 54.5192 86.6061 52.5346C87.9895 50.3715 87.2335 47.4839 84.8236 47.3815C82.2379 47.2713 81.1274 48.9723 80.5972 52.2039C80.3268 53.8498 77.8145 55.0574 78.0639 54.6426C79.8857 51.6395 78.6126 51.0383 79.1113 49.7677C79.9488 47.6256 80.0931 44.8535 76.943 44.7196C74.8534 44.633 73.4358 46.552 73.1917 48.3843C72.979 49.9804 73.7718 52.3693 72.7113 52.07C65.269 49.9804 65.2008 56.2098 61.8931 57.1024C59.7064 57.693 52.2037 59.129 56.6428 68.5217C58.7324 72.9398 64.4054 74.4361 68.1934 76.2002C72.2545 78.0929 73.1864 80.8913 76.7907 80.7495C82.3796 80.5317 82.02 76.6123 84.2671 76.51C90.8614 76.2159 92.4733 70.165 90.1106 64.9148C89.3231 63.1638 87.4593 59.6934 84.1516 58.2837Z" fill="#FFCCD3" stroke="black" stroke-width="1.65798" stroke-linecap="round" stroke-linejoin="round"/>
<path d="M71.8425 66.714C71.8425 66.714 71.0392 67.5751 71.1547 68.7931C71.2544 69.8353 72.2415 70.0479 72.7271 69.2499C73.1025 68.6304 73.6932 67.7247 73.6932 67.7247C73.6932 67.7247 73.0579 67.2679 73.029 66.3281C73.029 66.336 72.378 66.6536 71.8425 66.714Z" fill="white" stroke="black" stroke-width="1.65798" stroke-linecap="round" stroke-linejoin="round"/>
<path d="M70.2805 65.9492C70.7215 66.9625 71.8765 66.889 73.029 66.3272C73.0867 67.8918 74.7274 68.4877 75.3417 67.8629" stroke="black" stroke-width="1.65798" stroke-linecap="round" stroke-linejoin="round"/>
<path d="M70.1729 71.5693C70.1729 71.5693 70.6506 72.1862 71.5274 72.034" stroke="black" stroke-width="1.65798" stroke-linecap="round" stroke-linejoin="round"/>
<path d="M72.8505 62.185C72.8505 62.5788 72.5302 62.8991 72.1365 62.8991C71.6981 62.8991 71.3778 62.5998 71.3778 62.206C71.3778 61.8123 71.6771 61.4736 72.1365 61.4736C72.5959 61.4736 72.8505 61.7939 72.8505 62.1877V62.185Z" fill="black"/>
<path d="M77.8541 64.4663C77.8541 64.8601 77.5338 65.1803 77.14 65.1803C76.7016 65.1803 76.3813 64.8811 76.3813 64.4873C76.3813 64.0935 76.6806 63.7549 77.14 63.7549C77.5994 63.7549 77.8541 64.0751 77.8541 64.4689V64.4663Z" fill="black"/>
<path d="M37.2433 58.3271C32.9381 60.3931 29.6934 62.2386 28.9426 63.8793C26.9633 68.1898 31.5021 70.8516 34.5105 69.61C36.7156 68.699 37.8182 64.8637 37.5898 59.1357" fill="#FBB379"/>
<path d="M37.2433 58.3271C32.9381 60.3931 29.6934 62.2386 28.9426 63.8793C26.9633 68.1898 31.5021 70.8516 34.5105 69.61C36.7156 68.699 37.8182 64.8637 37.5898 59.1357" stroke="black" stroke-width="1.65798" stroke-linecap="round" stroke-linejoin="round"/>
<path d="M29.0922 63.6035C29.8509 66.8981 32.7175 68.9982 36.2772 67.8799C35.8047 68.733 35.214 69.321 34.5105 69.6124C31.5021 70.8541 26.9632 68.1896 28.9426 63.8818C28.9846 63.7899 29.0344 63.698 29.0922 63.6061V63.6035Z" fill="#3A3938" stroke="black" stroke-width="1.65798" stroke-linecap="round" stroke-linejoin="round"/>
<path d="M31.1898 61.6426C31.8015 61.2199 32.5181 60.7842 33.3135 60.3379C33.8228 62.0469 35.138 62.9446 37.54 62.7399C37.477 63.5616 37.3773 64.3228 37.2407 65.0159C34.2218 65.8034 31.9406 64.6904 31.1872 61.6426H31.1898Z" fill="#3A3938" stroke="black" stroke-width="1.65798" stroke-linecap="round" stroke-linejoin="round"/>
<path d="M48.0955 57.1841C49.8464 58.8589 53.9547 58.6515 55.5351 56.835C56.3226 55.9267 55.6138 54.3175 54.2881 54.6141C52.8443 54.937 52.4716 56.2338 48.9276 54.8215" fill="#3A3938"/>
<path d="M48.0955 57.1841C49.8464 58.8589 53.9547 58.6515 55.5351 56.835C56.3226 55.9267 55.6138 54.3175 54.2881 54.6141C52.8443 54.937 52.4716 56.2338 48.9276 54.8215" stroke="black" stroke-width="1.65798" stroke-linecap="round" stroke-linejoin="round"/>
<path d="M40.6558 59.9409C40.6558 59.9409 41.2018 64.149 47.4365 64.2724C49.7624 64.317 52.1198 62.7183 50.5657 61.0356C50.0144 60.4371 49.3293 60.2612 47.9169 60.7784C45.3023 61.7365 43.8952 57.5127 43.8952 57.5127" fill="#3A3938"/>
<path d="M40.6558 59.9409C40.6558 59.9409 41.2018 64.149 47.4365 64.2724C49.7624 64.317 52.1198 62.7183 50.5657 61.0356C50.0144 60.4371 49.3293 60.2612 47.9169 60.7784C45.3023 61.7365 43.8952 57.5127 43.8952 57.5127" stroke="black" stroke-width="1.65798" stroke-linecap="round" stroke-linejoin="round"/>
<path d="M30.1238 51.9335C29.4991 55.3147 26.9579 54.2804 25.5902 55.3305C24.4982 56.1705 23.7238 59.3627 28.68 59.1211C32.3552 58.94 34.009 55.3646 33.9959 55.5273C33.9408 56.265 34.4606 65.0224 46.0216 60.2841C50.9936 58.247 53.1594 55.1493 51.1406 50.1485C50.7757 49.2454 49.9777 48.7335 51.2063 48.1927C52.5241 47.6126 52.7236 48.0405 53.9784 48.5182C59.3048 50.5448 61.7672 45.2605 59.5883 44.4965C58.2469 44.024 58.0316 44.7328 56.4592 44.5412C54.3039 44.2787 54.107 41.937 48.8358 43.4806C41.0838 41.8977 35.172 44.129 30.1212 51.9362L30.1238 51.9335Z" fill="#3A3938" stroke="black" stroke-width="1.65798" stroke-linecap="round" stroke-linejoin="round"/>
<path d="M15.5201 37.1684C13.7324 35.9057 7.36122 25.8803 11.7636 21.2234C12.5616 20.3807 14.1603 19.8872 18.1925 21.0895C20.6706 21.8271 25.2489 20.7613 26.9368 20.5645" fill="white"/>
<path d="M17.0348 20.7745C13.8453 19.9922 12.4829 20.4673 11.7662 21.226C9.79472 23.313 9.98373 26.4736 10.9524 29.4427C12.3752 25.1558 14.3309 22.129 17.0348 20.7745Z" fill="#F08A5D"/>
<path d="M15.5201 37.1684C13.7324 35.9057 7.36122 25.8803 11.7636 21.2234C12.5616 20.3807 14.1603 19.8872 18.1925 21.0895C20.6706 21.8271 25.2489 20.7613 26.9368 20.5645" stroke="black" stroke-width="1.65798" stroke-linecap="round" stroke-linejoin="round"/>
<path d="M10.9131 22.4287C10.9131 22.4287 11.3489 24.1849 12.7324 25.3662" stroke="black" stroke-width="1.65798" stroke-linecap="round" stroke-linejoin="round"/>
<path d="M11.6191 21.3838C11.6191 21.3838 13.8794 21.5754 15.1631 22.1031" stroke="black" stroke-width="1.65798" stroke-linecap="round" stroke-linejoin="round"/>
<path d="M33.3055 19.7974C33.3055 19.7974 31.9274 17.2405 35.7679 14.6889C37.3325 13.6493 38.1699 12.4444 38.5742 11.6543C39.2672 10.2997 42.6825 8.2442 45.7618 11.8013C47.1242 13.3763 47.7569 14.7624 48.3869 15.9017C49.6601 18.2092 48.6127 21.8923 50.3243 24.52" fill="white"/>
<path d="M47.0454 13.5287C46.6963 12.9827 46.2815 12.4078 45.7591 11.8014C42.6824 8.24172 39.2645 10.2998 38.5715 11.6544C38.3562 12.077 38.015 12.6178 37.5057 13.1901C40.1544 12.6073 43.7876 12.7911 47.0428 13.5287H47.0454Z" fill="#F08A5D"/>
<path d="M33.3055 19.7974C33.3055 19.7974 31.9274 17.2405 35.7679 14.6889C37.3325 13.6493 38.1699 12.4444 38.5742 11.6543C39.2672 10.2997 42.6825 8.2442 45.7618 11.8013C47.1242 13.3763 47.7569 14.7624 48.3869 15.9017C49.6601 18.2092 48.6127 21.8923 50.3243 24.52" stroke="black" stroke-width="1.65798" stroke-linecap="round" stroke-linejoin="round"/>
<path d="M41.551 9.86426C40.69 10.7384 40.837 11.862 40.2595 12.8989" stroke="black" stroke-width="1.65798" stroke-linecap="round" stroke-linejoin="round"/>
<path d="M43.0684 10.0117C43.0684 10.0117 43.9819 11.7312 44.2339 13.1908" stroke="black" stroke-width="1.65798" stroke-linecap="round" stroke-linejoin="round"/>
<path d="M27.1258 53.1705C31.2499 53.903 35.4264 52.3725 38.6764 49.6161C40.3827 48.1697 40.8867 47.8468 42.7164 46.8729C48.0428 44.0403 52.2404 45.8307 54.9653 38.6116C57.0391 33.1119 55.1884 31.5526 53.7735 28.0796C52.3795 24.6616 51.5526 23.3097 45.4728 20.128C43.0183 18.8443 40.9628 17.3428 37.2719 17.3428C34.7124 17.3428 33.0402 19.4849 29.6827 19.3536C23.6107 19.1174 21.823 20.2409 18.5626 26.7486C18.0166 27.838 16.4599 31.4345 15.8298 32.5344C11.438 40.1735 14.659 45.8674 20.9541 48.2957C23.4637 49.2644 23.2826 52.4906 27.1284 53.1732L27.1258 53.1705Z" fill="#FBB379" stroke="black" stroke-width="1.65798" stroke-linecap="round" stroke-linejoin="round"/>
<path d="M37.8102 39.2807C37.994 40.1338 37.3929 40.6405 36.6657 40.5801C35.991 40.525 35.445 39.9159 35.445 39.2387C35.445 38.5614 35.9884 38.1309 36.6657 38.1309C37.343 38.1309 37.6685 38.6191 37.8102 39.2807Z" fill="white" stroke="black" stroke-width="1.65798" stroke-linecap="round" stroke-linejoin="round"/>
<path d="M37.1013 35.6322C36.2062 35.669 34.8805 36.0654 34.0667 36.7033C33.4498 37.1889 32.5179 38.0998 32.4785 39.2103C32.4417 40.2314 33.2293 40.6777 33.8645 40.6383C35.395 40.5438 35.6628 39.0554 36.5999 38.6931C36.9937 38.5172 38.4979 38.827 39.2172 38.5829C40.1832 38.2573 40.2016 37.3254 39.9128 36.8319C39.3222 35.8265 38.6449 35.564 37.1013 35.6296V35.6322Z" fill="white" stroke="black" stroke-width="1.65798" stroke-linecap="round" stroke-linejoin="round"/>
<path d="M31.4574 34.3008C31.4574 34.3008 30.6383 35.3456 30.2393 36.1174L31.4574 34.3008Z" fill="#FBB379"/>
<path d="M31.4574 34.3008C31.4574 34.3008 30.6383 35.3456 30.2393 36.1174" stroke="black" stroke-width="1.65798" stroke-linecap="round" stroke-linejoin="round"/>
<path d="M36.8494 32.1826C36.8494 32.1826 38.5242 32.2115 39.3327 32.3296L36.8494 32.1826Z" fill="#FBB379"/>
<path d="M36.8494 32.1826C36.8494 32.1826 38.5242 32.2115 39.3327 32.3296" stroke="black" stroke-width="1.65798" stroke-linecap="round" stroke-linejoin="round"/>
<path d="M33.3397 85.6349C32.652 85.8974 32.3369 86.9737 32.3894 87.4803C32.5653 89.1998 34.5237 88.4543 34.6707 88.4726C34.8518 88.4936 35.3427 89.6539 36.7288 89.2365C37.1777 89.1 38.0545 88.0421 37.3614 86.8319C36.629 85.5561 38.4955 84.7581 39.0363 85.6926C40.1126 87.546 43.562 86.3804 42.7981 84.9602C42.4778 84.3643 41.9895 84.1543 41.8793 83.7789C41.7113 83.2092 42.0184 82.8365 41.9528 82.3351C41.7454 80.7495 39.9629 81.3507 39.5088 81.7812C38.0256 83.1882 36.7025 81.0881 37.834 80.2035C38.7711 79.4711 39.8448 78.6441 39.1754 77.9406C38.7186 77.4602 38.1385 77.8251 37.7368 77.5888C37.3693 77.371 37.3352 76.6937 36.5818 76.6963C35.8599 76.6963 34.7836 77.6597 35.2141 79.7782C35.5448 81.4032 34.0564 82.0043 33.4815 80.4607C33.2925 79.9488 32.3973 79.1692 31.3893 79.8491C30.6306 80.3584 30.544 81.1223 30.9351 81.705C30.9351 81.705 29.528 82.7472 30.3865 83.9679C31.027 84.8788 32.2057 84.1254 32.7806 83.8734C34.2874 83.2119 35.3138 84.8815 33.3371 85.6349H33.3397Z" fill="white"/>
<path d="M33.3397 85.6348C32.6519 85.8973 32.3369 86.9736 32.3894 87.4802C32.5653 89.1997 34.5236 88.4542 34.6707 88.4725C34.8518 88.4935 35.3427 89.6538 36.7288 89.2364C37.1777 89.0999 38.0544 88.042 37.3614 86.8318" stroke="black" stroke-width="1.65798" stroke-linecap="round" stroke-linejoin="round"/>
<path d="M33.484 80.4604C33.295 79.9485 32.3998 79.1689 31.3918 79.8488C30.6331 80.358 30.5465 81.1219 30.9376 81.7047C30.9376 81.7047 29.5306 82.7469 30.389 83.9676C31.0295 84.8785 32.2082 84.1251 32.7831 83.8731" stroke="black" stroke-width="1.65798" stroke-linecap="round" stroke-linejoin="round"/>
<path d="M37.834 80.2035C38.7712 79.4711 39.8449 78.6441 39.1755 77.9406C38.7187 77.4602 38.1386 77.8251 37.7369 77.5888C37.3694 77.371 37.3353 76.6937 36.5819 76.6963C35.8599 76.6963 34.7836 77.6597 35.2142 79.7782" stroke="black" stroke-width="1.65798" stroke-linecap="round" stroke-linejoin="round"/>
<path d="M39.0363 85.6924C40.1126 87.5457 43.562 86.3802 42.7981 84.96C42.4779 84.3641 41.9896 84.1541 41.8793 83.7787C41.7113 83.209 42.0185 82.8362 41.9528 82.3348C41.7455 80.7493 39.963 81.3504 39.5088 81.7809" stroke="black" stroke-width="1.65798" stroke-linecap="round" stroke-linejoin="round"/>
<path d="M36.9335 82.0485C37.3036 82.1719 37.8287 82.7547 37.6633 83.4346C37.4533 84.3035 37.2879 85.3614 36.1617 85.1829C34.6759 84.944 35.571 83.9938 34.962 83.6446C33.8988 83.033 34.8176 81.4526 35.5553 81.5839" stroke="black" stroke-width="1.65798" stroke-linecap="round" stroke-linejoin="round"/>
<path d="M27.6957 85.6352C26.1626 86.1707 24.5298 85.6352 23.5532 84.0759C22.1619 81.8603 20.0329 81.9259 18.4579 83.8002C17.6887 84.7138 16.1372 85.4121 14.6777 84.4618" stroke="black" stroke-width="1.65798" stroke-linecap="round" stroke-linejoin="round"/>
<path d="M72.1143 23.6309C71.1561 23.2923 70.5077 23.2371 69.7727 23.8672C68.8407 24.6678 70.0299 25.6969 69.9958 25.8045C69.8777 26.1904 69.413 26.0828 69.7832 27.0856C70.0142 27.713 71.2033 27.6342 72.2114 27.0042C74.133 25.7966 74.3771 26.1274 73.6946 28.8418C73.4058 30.1255 73.6185 30.913 74.5688 30.9524C75.842 31.0075 75.8577 30.094 76.3512 29.8945C76.6899 29.758 77.4223 30.2252 78.1363 29.6818C78.8031 29.1752 78.7926 28.5478 78.4198 27.986C76.1675 26.5002 76.3066 25.3845 78.7296 25.7888C79.5303 26.8231 80.1865 26.7784 80.6827 26.382C81.6881 25.5814 80.6853 24.3187 80.6643 24.2111C80.6433 24.0956 81.2655 23.098 80.5619 22.3735C79.987 21.7828 79.0551 21.7697 78.1494 22.7357C76.8526 23.7858 76.0178 22.9484 76.9419 21.5754C78.6088 20.0844 77.8581 19.4045 77.5588 19.1262C77.3488 18.9293 76.6557 18.4017 75.0885 19.8245C74.3115 19.1944 73.6185 18.9293 72.9884 19.5856C72.5947 19.9951 72.5973 20.9428 73.3087 21.8799C74.8995 23.4498 73.3901 24.1218 72.1116 23.6335L72.1143 23.6309Z" fill="white"/>
<path d="M78.7296 25.7863C79.5302 26.8206 80.1865 26.776 80.6827 26.3796C81.6881 25.5789 80.6853 24.3162 80.6643 24.2086C80.6433 24.0931 81.2654 23.0955 80.5619 22.371C79.987 21.7803 79.0551 21.7672 78.1494 22.7332" stroke="black" stroke-width="1.65798" stroke-linecap="round" stroke-linejoin="round"/>
<path d="M73.6946 28.8363C73.4058 30.12 73.6185 30.9075 74.5688 30.9469C75.842 31.002 75.8577 30.0884 76.3512 29.8889C76.6899 29.7524 77.4223 30.2197 78.1363 29.6763C78.8031 29.1697 78.7926 28.5422 78.4198 27.9805" stroke="black" stroke-width="1.65798" stroke-linecap="round" stroke-linejoin="round"/>
<path d="M72.1143 23.6302C71.1561 23.2915 70.5077 23.2364 69.7727 23.8664C68.8407 24.6671 70.0299 25.6962 69.9958 25.8038C69.8777 26.1897 69.413 26.082 69.7832 27.0848C70.0142 27.7123 71.2033 27.6335 72.2114 27.0035" stroke="black" stroke-width="1.65798" stroke-linecap="round" stroke-linejoin="round"/>
<path d="M76.9445 21.5725C78.6115 20.0814 77.8607 19.4015 77.5614 19.1233C77.3514 18.9264 76.6584 18.3987 75.0912 19.8215C74.3141 19.1915 73.6211 18.9264 72.9911 19.5827C72.5973 19.9922 72.5999 20.9398 73.3113 21.877" stroke="black" stroke-width="1.65798" stroke-linecap="round" stroke-linejoin="round"/>
<path d="M74.3195 24.5626C74.7736 24.4812 73.8916 23.5361 75.5113 23.5361C76.8212 23.5361 76.2096 24.7411 76.5692 24.7883C77.047 24.8487 77.1467 26.1009 76.5876 26.5288C76.2332 26.8018 75.7292 27.0276 75.38 26.6994C75.0073 26.3476 74.2906 26.9016 73.8102 26.0825C73.4847 25.5286 73.6054 24.6964 74.3195 24.5652V24.5626Z" fill="white" stroke="black" stroke-width="1.65798" stroke-linecap="round" stroke-linejoin="round"/>
<path d="M70.2268 30.543C70.2268 30.543 68.6622 30.5535 68.7515 31.9317C68.8565 33.6039 67.5964 33.869 66.8483 33.89C66.1001 33.911 64.5093 34.1709 64.4542 36.1214C64.4095 37.6413 62.6822 38.3212 62.6822 38.3212" stroke="black" stroke-width="1.65798" stroke-linecap="round" stroke-linejoin="round"/>
</g>
<defs>
<clipPath id="clip0_3359_39693">
<rect width="102" height="102" fill="white"/>
</clipPath>
</defs>
</svg>
