<svg width="102" height="102" viewBox="0 0 102 102" fill="none" xmlns="http://www.w3.org/2000/svg">
<path d="M58.5248 75.5351C59.0069 74.5322 59.3975 73.4858 59.9184 72.5012C60.2268 71.9186 60.5512 71.3452 60.8734 70.7695C60.172 70.7695 59.7494 69.9425 59.2536 69.9265L56.7063 69.1406C55.2762 69.8648 54.6434 71.1236 54.5406 72.2225C54.3715 74.0638 54.8673 75.2838 56.4116 76.3826C56.7452 76.6202 57.1655 76.8259 57.6476 76.9995C57.956 76.522 58.2735 76.0514 58.5226 75.5351H58.5248Z" fill="white"/>
<path d="M84.8658 69.4395L81.56 70.5086C81.3042 70.4652 81.1054 71.0478 80.5251 70.9952C80.861 71.5755 81.3659 72.1009 81.7702 72.5533C82.3345 73.1815 82.8759 73.8121 83.3923 74.4792C84.073 75.3564 84.8041 76.2268 85.5032 77.1178C86.385 76.5878 87.0361 75.859 87.3354 74.8698C88.3886 71.3973 85.9007 69.6359 84.8635 69.4417L84.8658 69.4395Z" fill="white"/>
<path d="M60.0464 68.5714C59.2263 72.9806 56.4665 78.363 69.9728 78.7125C83.479 79.062 83.4356 74.7876 82.6977 69.5812C81.9621 64.3747 74.9234 65.1902 71.4486 64.9572C67.9738 64.7242 60.7089 65.0098 60.0464 68.5714Z" fill="white"/>
<path d="M9.73962 73.4678C10.771 78.1455 11.8284 89.9719 30.8359 90.7238C48.9581 91.4389 64.5289 92.3549 74.9629 90.6503C87.9723 88.527 92.4803 80.6631 92.7227 73.5927C87.2774 73.6833 14.2416 73.4776 9.74163 73.4678H9.73962Z" fill="#B98C5C"/>
<path d="M9.73969 74.332C10.8901 74.332 90.899 74.332 91.8583 74.332" stroke="black" stroke-width="1.70067" stroke-linecap="round" stroke-linejoin="round"/>
<path d="M86.6178 72.8641C85.8228 72.6105 82.6358 71.3197 81.8157 71.1529C80.8585 70.9588 81.4227 71.0935 81.4227 71.0935C79.3667 70.8171 72.8603 70.3534 71.3662 72.8321C70.658 74.0063 70.8202 75.4844 71.6632 76.4028C72.328 77.127 73.4383 77.7073 74.8867 77.9266C79.8258 78.676 86.1769 78.6851 87.3352 74.8653C87.5248 74.2417 87.5979 73.6728 87.5887 73.1588C87.2621 73.0628 86.9376 72.9646 86.6178 72.8618V72.8641Z" fill="white"/>
<path d="M81.8182 71.1532C80.3972 70.9065 72.977 70.164 71.3709 72.8323C70.6627 74.0066 70.8249 75.4847 71.6679 76.4031C72.3327 77.1273 73.443 77.7076 74.8914 77.9269C79.8306 78.6762 86.1816 78.6854 87.3399 74.8656C88.3931 71.3931 85.9052 69.6317 84.868 69.4375" stroke="black" stroke-width="1.70067" stroke-linecap="round" stroke-linejoin="round"/>
<path d="M66.603 71.7565C64.652 70.5457 60.9304 70.8152 59.0708 70.7627C58.5362 71.3521 58.3009 71.311 57.5676 71.6148C56.8822 71.8996 56.2494 72.1662 55.6691 72.4144C55.331 72.5584 54.7621 72.4761 54.5131 72.7457C54.5108 74.8109 55.8085 75.9532 56.4139 76.385C58.3626 77.7694 63.2926 78.1418 66.3265 77.0201C68.723 76.1337 68.787 73.1158 66.603 71.7565Z" fill="white"/>
<path d="M59.0367 70.7604C60.8849 70.8175 64.6407 70.5365 66.6008 71.7541C68.7871 73.1112 68.7209 76.1313 66.3244 77.0177C63.2905 78.1395 58.3604 77.7671 56.4117 76.3826C54.8651 75.2838 54.3716 74.0638 54.5407 72.2225C54.6412 71.1236 55.2763 69.8648 56.7064 69.1406" stroke="black" stroke-width="1.70067" stroke-linecap="round" stroke-linejoin="round"/>
<path d="M37.6952 68.3262C37.6952 68.3262 41.6707 68.7242 41.9433 73.8287H38.8289H29.4857L18.0535 75.0174V68.3262H37.6952Z" fill="white"/>
<path d="M18.0875 74.8544C17.5141 74.3992 17.0563 73.7563 16.8094 72.8537C16.3363 71.1204 16.974 69.6444 17.9049 68.5L21.7289 69.094" fill="white"/>
<path d="M18.0875 74.8544C17.5141 74.3992 17.0563 73.7563 16.8094 72.8537C16.3363 71.1204 16.974 69.6444 17.9049 68.5L21.7289 69.094" stroke="black" stroke-width="1.55593" stroke-linecap="round" stroke-linejoin="round"/>
<path d="M38.7778 68.7705C38.7778 68.7705 44.1168 69.9569 44.1168 74.1095" stroke="black" stroke-width="1.55593" stroke-linecap="round" stroke-linejoin="round"/>
<path d="M46.6814 50.6146C47.1927 44.0053 45.7649 36.988 44.3708 33.8147C43.4994 31.8336 41.9033 29.0425 38.7367 32.4277C35.475 35.9138 33.3214 42.0143 33.2835 42.1221C31.144 41.8101 28.2658 41.7271 25.7764 41.9998C25.742 41.8908 23.7853 35.7203 20.6419 32.1329C17.5812 28.6463 15.898 31.3839 14.9596 33.3355C13.4599 36.4587 11.8042 43.4288 12.1029 50.0512C8.40938 55.2712 8.92423 62.6803 14.1526 66.4131C16.9633 68.4198 21.011 70.1183 29.0662 70.2495C37.1214 70.3807 41.2222 68.815 44.0968 66.9009C49.447 63.3405 50.2029 55.9521 46.6784 50.6145L46.6814 50.6146Z" fill="white"/>
<path d="M47.9693 53.1208C47.634 52.2539 47.208 51.4096 46.6818 50.6148C47.1931 44.0056 45.7652 36.9883 44.3711 33.815C43.4998 31.8339 41.9037 29.0428 38.737 32.428C35.4754 35.914 33.3218 42.0146 33.2839 42.1224C31.1444 41.8104 28.2662 41.7274 25.7767 42.0001C25.7424 41.8911 23.7857 35.7206 20.6423 32.1332C17.5816 28.6465 15.8984 31.3842 14.96 33.3358C13.4603 36.459 11.8045 43.4291 12.1033 50.0515C11.5514 50.8287 11.0982 51.6586 10.7348 52.5142C23.6284 53.5074 28.9499 48.0157 29.4536 46.4938C29.9075 48.0283 35.0472 53.6934 47.9663 53.1207L47.9693 53.1208Z" fill="#FDB5DE"/>
<path d="M46.6814 50.6146C47.1927 44.0053 45.7649 36.988 44.3708 33.8147C43.4994 31.8336 41.9033 29.0425 38.7367 32.4277C35.475 35.9138 33.3214 42.0143 33.2835 42.1221C31.144 41.8101 28.2658 41.7271 25.7764 41.9998C25.742 41.8908 23.7853 35.7203 20.6419 32.1329C17.5812 28.6463 15.898 31.3839 14.9596 33.3355C13.4599 36.4587 11.8042 43.4288 12.1029 50.0512C8.40938 55.2712 8.92423 62.6803 14.1526 66.4131C16.9633 68.4198 21.011 70.1183 29.0662 70.2495C37.1214 70.3807 41.2222 68.815 44.0968 66.9009C49.447 63.3405 50.203 55.9521 46.6784 50.6145L46.6814 50.6146Z" stroke="black" stroke-width="1.55593" stroke-linecap="round" stroke-linejoin="round"/>
<path d="M29.1964 62.2485C29.4791 62.2531 29.7114 62.064 29.7153 61.8262C29.7192 61.5884 29.4931 61.3919 29.2104 61.3872C28.9277 61.3826 28.6953 61.5717 28.6915 61.8095C28.6876 62.0473 28.9136 62.2439 29.1964 62.2485Z" fill="black"/>
<path d="M37.4926 44.2781C38.3547 44.7952 39.164 44.4831 39.7545 43.9204C40.1465 44.6346 40.8244 45.1758 41.8041 44.9478C42.5025 44.7844 43.5363 44.0061 43.5054 41.2796C43.4763 38.8123 42.6761 35.0552 41.1678 34.8228C39.6625 34.5905 37.7618 37.927 36.9856 40.2698C36.1272 42.8583 36.8781 43.9127 37.4926 44.2811L37.4926 44.2781Z" fill="#FF84CC"/>
<path d="M21.4933 44.0175C20.6149 44.5062 19.8162 44.1678 19.2443 43.5862C18.8293 44.2873 18.1341 44.8061 17.1624 44.5463C16.4696 44.3603 15.4618 43.5487 15.5814 40.8247C15.6909 38.3596 16.6131 34.6306 18.1281 34.4475C19.6402 34.2643 21.4312 37.6609 22.1306 40.0278C22.9043 42.6428 22.1195 43.6722 21.4933 44.0205L21.4933 44.0175Z" fill="#FF84CC"/>
<path d="M25.9825 63.3594C26.3724 64.7573 28.6178 64.8511 29.1005 63.5126C29.5393 64.8661 31.7866 64.8455 32.2219 63.461" stroke="black" stroke-width="1.49615" stroke-linecap="round" stroke-linejoin="round"/>
<path d="M38.3376 62.8584L38.3155 64.2165" stroke="#F5A8B3" stroke-width="1.49615" stroke-linecap="round" stroke-linejoin="round"/>
<path d="M40.9031 62.9004L41.4893 64.2684" stroke="#F5A8B3" stroke-width="1.49615" stroke-linecap="round" stroke-linejoin="round"/>
<path d="M35.7717 62.8166L35.1413 64.1647" stroke="#F5A8B3" stroke-width="1.49615" stroke-linecap="round" stroke-linejoin="round"/>
<path d="M20.0442 62.5605L20.0221 63.9186" stroke="#F5A8B3" stroke-width="1.49615" stroke-linecap="round" stroke-linejoin="round"/>
<path d="M17.4751 62.5186L16.8477 63.8669" stroke="#F5A8B3" stroke-width="1.49615" stroke-linecap="round" stroke-linejoin="round"/>
<path d="M22.6099 62.6025L23.193 63.9705" stroke="#F5A8B3" stroke-width="1.49615" stroke-linecap="round" stroke-linejoin="round"/>
<path d="M33.7735 60.1373C33.7735 60.1373 38.5117 60.1301 41.5198 60.7424" stroke="black" stroke-width="1.49615" stroke-linecap="round" stroke-linejoin="round"/>
<path d="M24.694 59.9892C24.694 59.9892 19.9586 59.8277 16.9321 60.3417" stroke="black" stroke-width="1.49615" stroke-linecap="round" stroke-linejoin="round"/>
<path d="M34.4646 33.774C34.4849 32.5333 33.4955 31.5112 32.2548 31.491C32.1464 31.4892 32.0409 31.4965 31.9352 31.5099C31.8699 30.3461 30.9151 29.4149 29.7317 29.3956C28.5483 29.3764 27.5637 30.279 27.4605 31.437C27.3553 31.4202 27.2501 31.4094 27.1417 31.4077C25.901 31.3875 24.8789 32.3768 24.8587 33.6175C24.8459 34.4034 25.2381 35.0996 25.8399 35.51C25.6783 35.8146 25.5824 36.1564 25.5764 36.5238C25.5562 37.7644 26.5455 38.7866 27.7862 38.8068C28.5179 38.8187 29.1741 38.477 29.5925 37.9416C29.9932 38.4904 30.6379 38.8533 31.3696 38.8652C32.6103 38.8854 33.6324 37.896 33.6526 36.6554C33.6586 36.288 33.5739 35.9402 33.4223 35.6335C34.0371 35.2429 34.4518 34.5599 34.4646 33.774Z" fill="#EB5B9F" stroke="black" stroke-width="1.40264" stroke-linecap="round" stroke-linejoin="round"/>
<path d="M29.627 35.8428C30.4003 35.8554 31.0374 35.2387 31.05 34.4654C31.0626 33.6921 30.4459 33.0549 29.6726 33.0423C28.8993 33.0297 28.2621 33.6464 28.2495 34.4198C28.2369 35.1931 28.8536 35.8302 29.627 35.8428Z" fill="#F8DC8E" stroke="black" stroke-width="1.21562" stroke-linecap="round" stroke-linejoin="round"/>
<path d="M29.5823 38.5742L29.5003 43.6121" stroke="black" stroke-width="1.21562" stroke-linecap="round" stroke-linejoin="round"/>
<path d="M34.4932 39.9706C34.6915 40.9286 34.0796 42.4368 33.3508 42.9791C32.6221 43.5215 31.734 43.8654 29.5749 43.6435C29.9741 41.5114 30.5557 40.7558 31.2845 40.2105C32.0132 39.6651 33.6303 39.5077 34.4932 39.9706Z" fill="#8CFB88" stroke="black" stroke-width="1.21562" stroke-linecap="round" stroke-linejoin="round"/>
<path d="M32.5945 41.3309L29.9958 43.3217" stroke="black" stroke-width="1.12211" stroke-linecap="round" stroke-linejoin="round"/>
<path d="M18.0876 74.8536C18.7434 75.3756 19.5509 75.6456 20.3583 75.7716H20.3944C22.305 76.0674 24.2311 75.5428 24.2311 75.5428C28.7031 74.671 28.1039 71.2096 28.1039 71.2096C27.9059 69.7156 27.1319 68.5455 25.0155 68.3706C22.8991 68.1958 20.3583 69.8158 20.3583 69.8158" fill="white"/>
<path d="M18.0876 74.8536C18.7434 75.3756 19.5509 75.6456 20.3583 75.7716H20.3943C22.305 76.0674 24.2311 75.5428 24.2311 75.5428C28.7031 74.671 28.1039 71.2096 28.1039 71.2096C27.9059 69.7156 27.1319 68.5455 25.0155 68.3706C22.8991 68.1958 20.3583 69.8158 20.3583 69.8158" stroke="black" stroke-width="1.55593" stroke-linecap="round" stroke-linejoin="round"/>
<path d="M38.3329 69.66C38.3329 69.66 36.2659 69.728 34.4556 69.0646C32.8277 68.4654 30.0376 67.3519 28.3969 69.1108C28.3969 69.1108 26.8591 71.0189 28.4226 73.4465C30.089 76.0361 37.5517 76.643 39.8713 73.8683" fill="white"/>
<path d="M38.3329 69.66C38.3329 69.66 36.2659 69.728 34.4556 69.0646C32.8277 68.4654 30.0376 67.3519 28.3969 69.1108C28.3969 69.1108 26.8591 71.0189 28.4226 73.4465C30.089 76.0361 37.5517 76.643 39.8713 73.8683" stroke="black" stroke-width="1.55593" stroke-linecap="round" stroke-linejoin="round"/>
<path d="M66.9305 29.9993C68.3606 28.5554 68.7033 27.2555 72.1553 28.7176C75.2897 30.045 81.2089 33.1816 87.5166 39.2608C94.007 45.5159 95.3503 51.5243 94.5073 57.4938C93.4792 64.7632 89.3419 68.5099 81.4122 70.3627C73.4574 72.2223 62.7658 72.3251 54.5482 68.4574C46.2211 64.5371 44.5465 57.1648 46.5797 50.2861C48.4576 43.9236 53.5385 38.8976 57.5821 36.4965C61.194 34.3513 65.4729 31.4774 66.9328 30.0016L66.9305 29.9993Z" fill="#FFCDCD" stroke="black" stroke-width="1.70067" stroke-linecap="round" stroke-linejoin="round"/>
<path d="M70.7846 50.1219C70.5836 51.8604 72.4729 52.5115 76.9209 52.5115C81.3689 52.5115 83.5095 52.0774 83.5529 50.7318C83.594 49.3862 81.9583 48.5615 77.1745 48.5181C72.3906 48.4747 70.9148 48.9979 70.7846 50.1242V50.1219Z" fill="white" stroke="black" stroke-width="1.42373" stroke-linecap="round" stroke-linejoin="round"/>
<path d="M78.1226 48.6875C77.3298 47.6618 75.5525 48.2466 75.4245 49.2769C75.2966 50.305 76.1967 50.9858 77.227 50.7985C78.2574 50.6134 78.7805 49.5351 78.1226 48.6875Z" fill="black"/>
<path d="M51.7704 49.8608C51.5693 51.5994 53.164 52.1202 57.1528 52.1202C61.6008 52.1202 63.2388 51.6862 63.2799 50.3406C63.3211 48.995 62.1856 48.3233 57.4041 48.1246C53.333 47.9555 51.9006 48.7368 51.7704 49.8608Z" fill="white" stroke="black" stroke-width="1.42373" stroke-linecap="round" stroke-linejoin="round"/>
<path d="M59.0672 48.2959C58.2744 47.2702 56.4971 47.855 56.3691 48.8853C56.2389 49.9134 57.1413 50.5942 58.1716 50.4069C59.202 50.2218 59.7251 49.1435 59.0672 48.2959Z" fill="black"/>
<path d="M77.2683 54.7679C75.4772 54.5874 72.6787 55.2477 72.6832 57.0913C72.6855 58.9258 75.1802 59.12 76.8502 59.2205C78.518 59.321 81.7712 59.1223 81.7506 57.2741C81.7278 55.3642 79.2696 54.9712 77.2706 54.7679H77.2683Z" fill="#F58C8C"/>
<path d="M57.1367 54.6475C55.3364 54.6475 52.7595 55.0564 52.764 56.9C52.7663 58.7345 55.0486 58.9995 56.7186 59.1C58.3863 59.2006 61.6418 59.0018 61.619 57.1536C61.5961 55.2437 59.1653 54.6475 57.139 54.6475H57.1367Z" fill="#F58C8C"/>
<path d="M66.4142 56.1215C66.0418 56.1284 64.9087 56.2449 64.5249 56.9371C64.3238 57.2981 64.3695 57.7321 64.6345 57.9903C64.8424 58.1936 65.1897 58.3376 65.7105 58.2576C66.4599 58.1434 67.0539 58.2005 67.4651 58.2736C68.1961 58.4038 68.6964 58.1365 68.6964 57.41C68.6964 56.6447 67.6593 56.1033 66.4165 56.1215H66.4142Z" fill="white" stroke="black" stroke-width="1.42373" stroke-linecap="round" stroke-linejoin="round"/>
<path d="M70.017 21.0855C67.8581 21.154 64.3947 25.7574 65.5233 29.0837C66.6519 32.41 75.7147 30.4841 76.416 28.8507C77.1174 27.2172 77.9672 20.8319 70.0193 21.0855H70.017Z" fill="#009A3E"/>
<path d="M64.9864 26.9678C64.582 27.1505 63.3095 28.2014 63.4694 29.9491C63.6111 31.482 64.5934 32.3525 67.1887 32.3525C69.7634 32.3525 70.8782 31.5414 70.732 30.358C70.5538 28.9279 68.7947 28.7931 67.3463 28.9576" fill="#009A3E"/>
<path d="M64.9864 26.9678C64.582 27.1505 63.3095 28.2014 63.4694 29.9491C63.6111 31.482 64.5934 32.3525 67.1887 32.3525C69.7634 32.3525 70.8782 31.5414 70.732 30.358C70.5538 28.9279 68.7947 28.7931 67.3463 28.9576" stroke="black" stroke-width="1.51271" stroke-linecap="round" stroke-linejoin="round"/>
<path d="M74.8647 28.4098C72.7127 28.2453 71.1226 28.7914 71.0312 30.1141C70.9353 31.5305 71.8674 32.1496 74.0263 32.2068C76.1852 32.2662 77.7432 32.0514 78.5405 30.6738C79.5549 28.917 78.5474 26.6873 76.4616 25.8877" fill="#009A3E"/>
<path d="M74.8647 28.4098C72.7127 28.2453 71.1226 28.7914 71.0312 30.1141C70.9353 31.5305 71.8674 32.1496 74.0263 32.2068C76.1852 32.2662 77.7432 32.0514 78.5405 30.6738C79.5549 28.917 78.5474 26.6873 76.4616 25.8877" stroke="black" stroke-width="1.51271" stroke-linecap="round" stroke-linejoin="round"/>
<path d="M65.9481 26.9817C62.5921 26.9908 61.5092 26.4265 61.4429 25.234C61.3881 24.2493 62.2014 23.8975 62.2014 23.8975C61.1642 23.3629 60.9632 22.2983 61.2122 21.501C61.8496 19.4541 65.0639 19.7511 65.0639 19.7511C65.0639 19.7511 65.6008 14.7113 71.054 14.6954C74.0354 14.6862 76.4341 16.2329 77.2589 18.4946C78.2115 21.1149 77.5604 24.0163 76.4593 25.8874" fill="#009A3E"/>
<path d="M65.9481 26.9817C62.5921 26.9908 61.5092 26.4265 61.4429 25.234C61.3881 24.2493 62.2014 23.8975 62.2014 23.8975C61.1642 23.3629 60.9632 22.2983 61.2122 21.501C61.8496 19.4541 65.0639 19.7511 65.0639 19.7511C65.0639 19.7511 65.6008 14.7113 71.054 14.6954C74.0354 14.6862 76.4341 16.2329 77.2589 18.4946C78.2115 21.1149 77.5604 24.0163 76.4593 25.8874" stroke="black" stroke-width="1.51271" stroke-linecap="round" stroke-linejoin="round"/>
<path d="M67.7302 19.6304C67.7302 19.6304 68.4201 17.7822 71.2484 17.7822C74.0766 17.7822 74.7483 19.4545 74.7483 19.4545C74.7483 19.4545 74.3691 21.1268 71.2506 21.1268C68.66 21.1268 67.7302 19.6304 67.7302 19.6304Z" fill="#FFD200" stroke="black" stroke-width="1.51271" stroke-linecap="round" stroke-linejoin="round"/>
<path d="M71.2459 17.7822L71.2482 21.1268" stroke="black" stroke-width="1.51271" stroke-linecap="round" stroke-linejoin="round"/>
<path d="M64.3123 23.6398C64.3123 23.6398 64.4882 21.7116 65.6168 21.7207C66.8276 21.7322 66.9852 23.7997 66.9852 23.7997" fill="white"/>
<path d="M64.3123 23.6398C64.3123 23.6398 64.4882 21.7116 65.6168 21.7207C66.8276 21.7322 66.9852 23.7997 66.9852 23.7997" stroke="black" stroke-width="1.51271" stroke-linecap="round" stroke-linejoin="round"/>
<path d="M62.2038 23.8978L67.769 23.8887" stroke="black" stroke-width="1.51271" stroke-linecap="round" stroke-linejoin="round"/>
</svg>
