<svg width="102" height="102" viewBox="0 0 102 102" fill="none" xmlns="http://www.w3.org/2000/svg">
<g clip-path="url(#clip0_3359_39521)">
<path d="M55.269 89.2998C45.3383 91.215 34.2048 90.2603 26.8152 88.5729C26.4085 79.7267 26.945 78.4923 29.7976 74.5725C29.7976 74.5725 35.3557 69.124 40.184 69.075C45.0123 69.0259 49.4426 68.6798 52.0039 70.0614C54.5652 71.4401 57.6399 73.2716 58.7128 76.5194C59.1368 77.8029 59.2176 79.1643 59.2176 79.1643C59.3762 81.417 59.7368 85.8646 55.3468 87.0789C55.3555 88.1835 55.2863 89.1094 55.2718 89.2998H55.269Z" fill="white"/>
<path d="M55.266 89.3346C55.266 89.3346 55.3525 88.3194 55.3439 87.0791" stroke="black" stroke-width="1.72881" stroke-linecap="round" stroke-linejoin="round"/>
<path d="M29.7976 74.5723C26.9421 78.4949 26.5152 81.7802 26.8181 88.6102" stroke="black" stroke-width="1.72881" stroke-linecap="round" stroke-linejoin="round"/>
<path d="M78.6867 47.9877C78.1098 66.1358 66.861 78.8989 43.7143 78.5384C24.101 78.2326 9.31024 68.1058 9.17468 49.8164C9.042 31.8961 19.7515 16.99 43.1144 16.5516C63.2123 16.1737 79.2635 29.8771 78.6867 47.9906V47.9877Z" fill="white" stroke="black" stroke-width="1.72881" stroke-linecap="round" stroke-linejoin="round"/>
<path d="M29.4368 48.7578C29.0042 49.1184 28.2341 50.4884 29.2436 51.1864C30.1781 51.8296 31.1184 50.947 31.2626 50.4423" stroke="black" stroke-width="1.72881" stroke-linecap="round" stroke-linejoin="round"/>
<path d="M24.3345 56.1504C24.1932 56.2456 23.1808 57.7022 24.2451 58.4751C25.194 59.1674 26.3362 58.0483 26.5179 57.6041" stroke="black" stroke-width="1.72881" stroke-linecap="round" stroke-linejoin="round"/>
<path d="M34.3315 43.1074C34.0229 43.1997 32.7365 44.5582 33.7027 45.5274C34.8016 46.6263 36.0967 45.236 36.1948 44.9447" stroke="black" stroke-width="1.72881" stroke-linecap="round" stroke-linejoin="round"/>
<path d="M57.0167 44.697C56.9994 44.8326 58.1358 46.318 59.3559 45.2479C60.5153 44.2298 59.3559 43.0674 59.2318 43.0674" stroke="black" stroke-width="1.72881" stroke-linecap="round" stroke-linejoin="round"/>
<path d="M62.0527 50.1773C62.0556 50.3071 63.2901 51.7031 64.3544 50.7512C65.1159 50.0705 64.3371 48.7351 64.2592 48.6572" stroke="black" stroke-width="1.72881" stroke-linecap="round" stroke-linejoin="round"/>
<path d="M64.8936 56.3124C64.885 56.4912 65.5167 58.1756 66.93 57.4834C68.1818 56.8719 67.3568 55.3086 67.2732 55.248" stroke="black" stroke-width="1.72881" stroke-linecap="round" stroke-linejoin="round"/>
<path d="M41.456 42.8596C42.5329 42.8596 43.4058 41.9866 43.4058 40.9098C43.4058 39.8329 42.5329 38.96 41.456 38.96C40.3792 38.96 39.5062 39.8329 39.5062 40.9098C39.5062 41.9866 40.3792 42.8596 41.456 42.8596Z" fill="black"/>
<path d="M53.2096 42.6086C54.2864 42.6086 55.1594 41.7356 55.1594 40.6588C55.1594 39.5819 54.2864 38.709 53.2096 38.709C52.1327 38.709 51.2598 39.5819 51.2598 40.6588C51.2598 41.7356 52.1327 42.6086 53.2096 42.6086Z" fill="black"/>
<path d="M41.7905 40.6098C41.7559 40.9357 41.3262 41.3309 40.7551 41.2588C40.4291 41.2184 40.1609 40.9934 40.1609 40.6646C40.1609 40.3358 40.458 39.7532 41.1646 39.7215C41.4934 39.707 41.8655 39.8974 41.7905 40.6098Z" fill="white"/>
<path d="M42.2463 42.0517C42.0617 42.1873 41.655 42.1614 41.5483 42.0171C41.4416 41.8729 41.6146 41.4778 41.8021 41.3451C41.9896 41.2124 42.3098 41.2009 42.4136 41.3451C42.5174 41.4893 42.4309 41.9191 42.2463 42.0546V42.0517Z" fill="white"/>
<path d="M53.248 40.9812C53.5849 40.7689 53.7059 40.3553 53.5182 40.0575C53.3305 39.7596 52.9052 39.6903 52.5683 39.9027C52.2314 40.115 52.1104 40.5285 52.2981 40.8264C52.4858 41.1242 52.9111 41.1935 53.248 40.9812Z" fill="white"/>
<path d="M54.5046 41.2993C54.5075 41.5127 54.5017 41.8675 53.8873 42.0233C53.6681 42.0781 53.4691 41.8358 53.4691 41.6224C53.4691 41.4089 53.7143 41.0022 54.046 41.0109C54.271 41.0166 54.5017 41.0455 54.5046 41.2993Z" fill="white"/>
<path d="M55.4187 52.3627C55.3264 57.168 53.5439 61.881 46.4283 61.4974C41.8682 61.2522 38.6897 57.168 38.6897 52.3627C38.6897 47.5575 41.9605 43.7848 46.5264 43.7098C52.4392 43.6146 55.5168 47.3152 55.4187 52.3627Z" fill="#A8E6FF"/>
<path d="M43.0709 47.5977C43.5238 47.9351 44.1785 48.2207 45.0467 48.1111C46.9215 47.8717 47.4378 46.3574 47.631 46.3574C47.8243 46.3574 48.1098 48.1832 50.3221 48.1832C50.8586 48.1832 51.2912 48.0592 51.6345 47.8746C53.0622 57.5428 50.0394 59.3484 47.4263 59.3397C44.9717 59.334 43.4834 57.9524 42.921 55.7343C42.3585 53.5163 43.0709 47.5948 43.0709 47.5948" fill="white"/>
<path d="M43.0708 47.5947C43.0708 47.5947 42.4622 53.5854 42.9208 55.7343C43.44 58.1715 44.9745 59.3339 47.4261 59.3397C50.0393 59.3454 53.0621 57.5427 51.6344 47.8716" stroke="black" stroke-width="1.72881" stroke-linecap="round" stroke-linejoin="round"/>
<path d="M42.2892 46.7381C42.2892 46.7381 43.1718 48.3476 45.0466 48.1082C46.9214 47.8688 47.4377 46.3545 47.6309 46.3545C47.8242 46.3545 48.1097 48.1803 50.322 48.1803C51.6257 48.1803 52.3122 47.4419 52.6295 46.9314" stroke="black" stroke-width="1.72881" stroke-linecap="round" stroke-linejoin="round"/>
<path d="M54.6837 80.6768C54.6924 79.8375 55.324 73.5872 50.7726 73.391C49.8063 73.3478 47.4037 73.5785 46.9047 76.5436C47.3576 78.1069 47.3922 80.0942 46.8701 81.9401C47.0345 87.3251 51.7186 87.4319 53.1839 87.3857C59.8409 87.1694 59.3996 81.7353 59.2179 79.1654" fill="white"/>
<path d="M54.6836 80.6768C54.6923 79.8375 55.3239 73.5872 50.7725 73.391C49.8063 73.3478 47.4036 73.5785 46.9046 76.5436C47.1642 77.4377 45.7307 78.4847 45.6903 79.5519C45.6586 80.3509 47.0921 81.1498 46.87 81.943C47.0344 87.328 51.7186 87.4347 53.1838 87.3886C59.8408 87.1723 59.4226 81.7382 59.2178 79.1683C59.163 78.4963 59.0966 77.8184 58.713 76.5234" stroke="black" stroke-width="1.72881" stroke-linecap="round" stroke-linejoin="round"/>
<path d="M30.4207 84.0919C31.2975 84.8591 34.3145 88.4184 41.1417 87.3137C47.9688 86.209 48.3553 77.1465 45.8056 74.4554C44.5076 73.0854 42.1771 73.0854 40.7552 74.1872C39.3966 75.2399 38.8111 77.507 38.69 80.5846" fill="white"/>
<path d="M30.4207 84.0919C31.2975 84.8591 34.3145 88.4184 41.1417 87.3137C47.9688 86.209 48.3553 77.1465 45.8056 74.4554C44.5076 73.0854 42.1771 73.0854 40.7552 74.1872C39.3966 75.2399 38.8111 77.507 38.69 80.5846" stroke="black" stroke-width="1.72881" stroke-linecap="round" stroke-linejoin="round"/>
<path d="M89.0848 36.4918C87.5388 36.8004 84.9458 37.4753 84.9458 37.582C84.9458 37.7378 88.7762 38.629 89.1281 38.7358C89.2117 38.7617 90.077 43.9823 90.1866 43.9766C90.3539 43.965 91.0288 38.8252 91.173 38.7156C91.3172 38.606 95.2341 37.8099 95.2341 37.5215C95.2341 37.2821 91.3634 36.5523 91.1846 36.4081C91.0057 36.2639 90.5558 31.4413 90.1866 31.4356C89.7193 31.4269 89.1454 36.4802 89.0848 36.4918Z" fill="#FAEEBF" stroke="black" stroke-width="1.72881" stroke-linecap="round" stroke-linejoin="round"/>
<path d="M84.3285 20.2586C84.6775 22.4651 85.0871 27.2905 85.537 27.2703C85.9351 27.253 86.8148 20.3826 87.0167 20.2499C87.1234 20.1778 90.5298 19.4481 90.5125 19.2664C90.4865 19.0154 86.884 18.0405 86.8119 17.8473C86.7398 17.654 85.8976 12.8661 85.6091 12.8488C85.1592 12.8199 84.4208 17.6511 84.3458 17.8069C84.291 17.9223 80.6423 19.0154 80.6308 19.2664C80.6135 19.6817 84.2996 20.0913 84.3256 20.2586H84.3285Z" fill="#FAEEBF" stroke="black" stroke-width="1.72881" stroke-linecap="round" stroke-linejoin="round"/>
</g>
<defs>
<clipPath id="clip0_3359_39521">
<rect width="89.8983" height="78.087" fill="white" transform="translate(5.9126 12.2715)"/>
</clipPath>
</defs>
</svg>
