<svg width="102" height="102" viewBox="0 0 102 102" fill="none" xmlns="http://www.w3.org/2000/svg">
<path d="M36.1284 69.9177C33.2417 69.5864 33.2292 67.5725 33.4336 66.4769C34.0943 62.9343 38.0604 61.3691 38.0604 61.3691L41.0519 63.25L36.1284 69.9177Z" fill="#3A3938" stroke="black" stroke-width="1.72881" stroke-linecap="round" stroke-linejoin="round"/>
<path d="M36.4695 91.3955C36.4695 91.3955 38.2001 97.4254 44.7995 96.3686C51.0159 95.374 49.6483 89.4062 49.6483 89.4062" fill="#F68685"/>
<path d="M36.4695 91.3955C36.4695 91.3955 38.2001 97.4254 44.7995 96.3686C51.0159 95.374 49.6483 89.4062 49.6483 89.4062" stroke="black" stroke-width="1.72881" stroke-linecap="round" stroke-linejoin="round"/>
<path d="M65.5622 85.2409C65.5622 85.2409 66.798 89.2468 71.4056 88.1626C73.7753 87.6056 77.5798 85.6338 76.0058 79.584" fill="#F68685"/>
<path d="M65.5622 85.2409C65.5622 85.2409 66.798 89.2468 71.4056 88.1626C73.7753 87.6056 77.5798 85.6338 76.0058 79.584" stroke="black" stroke-width="1.72881" stroke-linecap="round" stroke-linejoin="round"/>
<path d="M30.7106 93.427C37.2031 93.7154 49.7478 92.86 61.8349 88.0386C73.5218 83.3763 78.3706 80.5789 82.2869 76.9734C82.2869 76.9734 75.2624 64.7892 65.0675 59.9404C54.8726 55.0917 38.3991 59.1323 34.1098 71.6895C33.334 73.9597 32.583 77.5503 32.8367 81.3249C32.8565 81.6357 31.1707 82.7372 25.5635 87.494C24.539 88.3643 23.7135 89.7717 24.0193 90.918C24.6608 93.3226 28.8482 93.3424 30.7131 93.4245L30.7106 93.427Z" fill="#F68685"/>
<path d="M32.4711 81.7725C32.7297 81.5387 32.8391 81.4045 32.8342 81.3249C32.583 77.5503 33.334 73.9597 34.1073 71.6895C38.3966 59.1323 54.8701 55.0917 65.065 59.9404C69.2374 61.9247 72.8803 65.1374 75.7249 68.2431C74.0862 71.12 66.8678 75.1085 59.2216 77.8437C50.3744 81.0091 37.8993 82.6303 32.4711 81.7725Z" fill="#FEF2E8"/>
<path d="M75.7272 68.2432C74.0886 71.1201 66.8701 75.1086 59.2239 77.8438C51.7344 80.5243 41.6439 82.0958 35.43 81.9963" stroke="black" stroke-width="1.72881" stroke-linecap="round" stroke-linejoin="round"/>
<path d="M30.7106 93.427C37.2031 93.7154 49.7478 92.86 61.835 88.0386C73.5218 83.3763 78.3706 80.5789 82.2869 76.9734C82.2869 76.9734 75.2624 64.7892 65.0675 59.9404C54.8726 55.0917 38.3991 59.1323 34.1098 71.6895C33.334 73.9597 32.583 77.5503 32.8367 81.3249C32.8565 81.6357 31.1707 82.7372 25.5635 87.494C24.539 88.3643 23.7135 89.7717 24.0193 90.918C24.6608 93.3226 28.8482 93.3424 30.7131 93.4245L30.7106 93.427Z" stroke="black" stroke-width="1.72881" stroke-linecap="round" stroke-linejoin="round"/>
<path d="M61.1038 59.4734C63.849 59.2402 65.0335 58.1428 67.5797 56.4173C69.8337 54.8877 72.5074 55.1551 73.7447 56.9614C74.8018 58.5034 74.3354 60.0952 74.009 60.7885C73.7043 61.4413 72.6939 63.7109 68.3756 63.8974C63.5723 64.1057 61.6976 61.6745 61.6976 61.6745" fill="#3A3938"/>
<path d="M61.7007 61.675C61.7007 61.675 63.134 63.5372 66.7124 63.8606C66.9797 60.8231 66.1621 59.4521 64.8314 58.2676C63.7371 58.9236 62.6769 59.3371 61.1069 59.4707L61.7038 61.6719L61.7007 61.675Z" fill="#FBB379"/>
<path d="M72.4142 62.7311C71.7333 63.2036 70.7727 63.6202 69.4078 63.8068C69.8151 59.7962 68.6493 58.5527 66.9456 56.8521C67.1476 56.7122 67.359 56.5661 67.5798 56.4168C68.158 56.0251 68.7643 55.7515 69.3643 55.5898C71.5406 56.7153 72.7437 58.9599 72.4111 62.7311H72.4142Z" fill="#FBB379"/>
<path d="M66.7123 63.8606C66.9797 60.8231 66.162 59.4521 64.8314 58.2676" stroke="black" stroke-width="1.72881" stroke-linecap="round" stroke-linejoin="round"/>
<path d="M69.4078 63.8043C69.8151 59.7938 68.6493 58.5502 66.9456 56.8496" stroke="black" stroke-width="1.72881" stroke-linecap="round" stroke-linejoin="round"/>
<path d="M69.3674 55.5898C71.5437 56.7153 72.7469 58.9599 72.4142 62.7311" stroke="black" stroke-width="1.72881" stroke-linecap="round" stroke-linejoin="round"/>
<path d="M61.1038 59.4734C63.849 59.2402 65.0335 58.1428 67.5797 56.4173C69.8337 54.8877 72.5074 55.1551 73.7447 56.9614C74.8018 58.5034 74.3354 60.0952 74.009 60.7885C73.7043 61.4413 72.6939 63.7109 68.3756 63.8974C63.5723 64.1057 61.6976 61.6745 61.6976 61.6745" stroke="black" stroke-width="1.72881" stroke-linecap="round" stroke-linejoin="round"/>
<path d="M41.0573 48.8564C36.2043 48.0574 31.9544 46.4128 27.9998 45.4365C24.0452 44.4603 23.4918 46.6801 23.3892 47.1993C23.2866 47.7185 22.9944 49.8046 26.8091 51.5518C29.8651 52.9509 38.8313 55.3852 44.9435 56.1126" fill="#3A3938"/>
<path d="M41.0573 48.8564C36.2043 48.0574 31.9544 46.4128 27.9998 45.4365C24.0452 44.4603 23.4918 46.6801 23.3892 47.1993C23.2866 47.7185 22.9944 49.8046 26.8091 51.5518C29.8651 52.9509 38.8313 55.3852 44.9435 56.1126" stroke="black" stroke-width="1.72881" stroke-linecap="round" stroke-linejoin="round"/>
<path d="M38.8593 53.0905C37.224 55.5435 36.0301 58.7737 37.2488 62.3023C38.1038 64.7801 41.4179 67.83 46.8182 67.7523C46.8182 67.7523 50.4339 67.6062 51.2639 67.7523C52.094 67.8984 58.7845 68.6787 60.4447 63.7946C60.4447 63.7946 61.1286 52.0241 57.7088 49.9722C54.2889 47.9203 46.1684 45.7099 43.2709 48.4271" fill="#3A3938"/>
<path d="M38.8593 53.0905C37.224 55.5435 36.0301 58.7737 37.2488 62.3023C38.1038 64.7801 41.4179 67.83 46.8182 67.7523C46.8182 67.7523 50.4339 67.6062 51.2639 67.7523C52.094 67.8984 58.7845 68.6787 60.4447 63.7946C60.4447 63.7946 61.1286 52.0241 57.7088 49.9722C54.2889 47.9203 46.1684 45.7099 43.2709 48.4271" stroke="black" stroke-width="1.72881" stroke-linecap="round" stroke-linejoin="round"/>
<path d="M58.312 58.5474C58.312 58.5474 58.881 62.5361 61.1878 65.8783C61.5889 66.4596 62.5371 67.3053 63.8553 66.9913C65.4875 66.6026 65.3631 64.7093 65.0989 63.6243C64.1009 59.5453 63.4418 55.8892 61.7692 49.1304C61.7692 49.1304 57.1182 45.6453 57.3265 50.9833" fill="#3A3938"/>
<path d="M58.312 58.5474C58.312 58.5474 58.881 62.5361 61.1878 65.8783C61.5889 66.4596 62.5371 67.3053 63.8553 66.9913C65.4875 66.6026 65.3631 64.7093 65.0989 63.6243C64.1009 59.5453 63.4418 55.8892 61.7692 49.1304C61.7692 49.1304 57.1182 45.6453 57.3265 50.9833" stroke="black" stroke-width="1.72881" stroke-linecap="round" stroke-linejoin="round"/>
<path d="M54.2331 67.8801C54.3886 66.0334 52.9305 65.6199 51.9791 65.6665C49.9583 65.7629 48.2453 68.421 47.7043 69.7268C47.2349 70.8584 46.5789 74.014 49.0661 74.4275C50.0298 74.5892 51.2361 74.3156 51.7677 71.5331C51.8454 71.1258 52.2652 70.5476 52.6413 70.2118C53.145 69.7641 54.1461 68.9464 54.2331 67.8801Z" fill="#3A3938" stroke="black" stroke-width="1.72881" stroke-linecap="round" stroke-linejoin="round"/>
<path d="M32.4299 23.5584C32.5947 21.2671 32.7533 17.7415 34.0621 14.5798C36.0456 9.80131 39.8541 4.78658 43.6501 4.34511C46.9736 3.95961 50.6577 8.51732 53.5738 13.103" fill="white"/>
<path d="M49.4049 7.51636C47.5084 5.47689 45.5218 4.12761 43.6502 4.34524C40.9641 4.65613 38.2718 7.25832 36.223 10.4481C40.2428 7.77751 45.3726 6.7671 49.4049 7.51636Z" fill="#F08A5D"/>
<path d="M32.4299 23.5584C32.5947 21.2671 32.7533 17.7415 34.0621 14.5798C36.0456 9.80131 39.8541 4.78658 43.6501 4.34511C46.9736 3.95961 50.6577 8.51732 53.5738 13.103" stroke="black" stroke-width="1.72881" stroke-linecap="round" stroke-linejoin="round"/>
<path d="M40.7868 8.7505C40.7868 8.7505 41.1537 5.95557 42.6211 4.5752" stroke="black" stroke-width="1.72881" stroke-linecap="round" stroke-linejoin="round"/>
<path d="M46.1497 7.73979C46.1497 7.73979 45.7237 5.22466 44.0916 4.32617" stroke="black" stroke-width="1.72881" stroke-linecap="round" stroke-linejoin="round"/>
<path d="M78.5201 33.2339C78.3647 47.7682 67.0948 53.0534 52.7936 52.9757C44.9746 52.9321 37.6717 50.8678 32.8187 46.5246C28.8486 42.9711 26.6785 37.4714 26.9832 31.6981C27.3594 24.591 30.6828 18.9296 35.7722 15.4352C40.0563 12.491 45.7519 11.2132 52.2496 11.1604C61.965 11.0827 68.8886 14.745 73.6235 20.3318C76.347 23.5433 78.5668 28.8814 78.5201 33.2339Z" fill="#FBB379" stroke="black" stroke-width="1.72881" stroke-linecap="round" stroke-linejoin="round"/>
<path d="M76.4464 28.7909C78.6226 22.2092 80.174 13.3177 76.8008 10.7621C71.8887 7.04072 61.5452 11.3093 59.369 13.069C66.2739 17.6329 72.1094 21.9232 76.4495 28.7909H76.4464Z" fill="white"/>
<path d="M68.5187 9.55904C71.5623 9.03674 74.6837 9.15798 76.8009 10.7591C78.9181 12.3602 79.0953 16.4516 78.3989 20.9005C77.261 16.4858 73.2412 12.0742 68.5187 9.55904Z" fill="#F08A5D"/>
<path d="M76.4464 28.7909C78.6226 22.2092 80.174 13.3177 76.8008 10.7621C71.8887 7.04072 61.5452 11.3093 59.369 13.069" stroke="black" stroke-width="1.72881" stroke-linecap="round" stroke-linejoin="round"/>
<path d="M71.3323 12.4818C71.3323 12.4818 73.3282 10.4921 76.5677 10.5947" stroke="black" stroke-width="1.72881" stroke-linecap="round" stroke-linejoin="round"/>
<path d="M75.8774 16.4862C75.8774 16.4862 77.6899 13.57 77.3541 11.2881" stroke="black" stroke-width="1.72881" stroke-linecap="round" stroke-linejoin="round"/>
<path d="M39.2729 26.8972C39.8 26.8972 40.2273 26.4699 40.2273 25.9427C40.2273 25.4156 39.8 24.9883 39.2729 24.9883C38.7457 24.9883 38.3184 25.4156 38.3184 25.9427C38.3184 26.4699 38.7457 26.8972 39.2729 26.8972Z" fill="black"/>
<path d="M47.9654 28.113C48.4926 28.113 48.9199 27.6857 48.9199 27.1585C48.9199 26.6314 48.4926 26.2041 47.9654 26.2041C47.4383 26.2041 47.011 26.6314 47.011 27.1585C47.011 27.6857 47.4383 28.113 47.9654 28.113Z" fill="black"/>
<path d="M43.8056 35.6949C45.4067 36.2079 46.4793 35.6452 46.9394 34.9706C47.9218 33.5311 47.1197 32.1228 46.1093 31.2927C44.3465 29.8408 42.5309 29.6916 41.0759 29.7724C39.6209 29.8532 38.2406 30.7082 37.9483 31.7963C37.7898 32.3932 37.7338 33.5436 38.6727 34.1405C39.7111 34.7996 40.9951 34.5198 41.6697 34.1156C41.7412 34.0721 41.8936 34.0565 41.9589 34.1747C42.1765 34.5446 42.7548 35.3623 43.8025 35.698L43.8056 35.6949Z" fill="white" stroke="black" stroke-width="1.72881" stroke-linecap="round" stroke-linejoin="round"/>
</svg>
