<svg width="102" height="102" viewBox="0 0 102 102" fill="none" xmlns="http://www.w3.org/2000/svg">
<g clip-path="url(#clip0_3359_39086)">
<path d="M28.3816 30.1105C28.3816 28.8439 29.712 25.9169 31.2314 25.4247C32.16 25.124 33.6262 25.712 34.1238 26.3533C34.4936 26.827 32.2931 30.1637 31.8567 30.5735C31.4203 30.9833 28.3789 31.284 28.3789 30.1105H28.3816Z" fill="#B4B5B4" stroke="black" stroke-width="1.72881" stroke-linecap="round" stroke-linejoin="round"/>
<path d="M29.5097 29.6152C25.1591 29.6152 22.7164 34.3064 22.7484 38.4601C22.7776 42.0762 24.2837 45.2959 29.2809 45.1549C33.4531 45.0378 34.2434 41.5041 34.8528 38.1088C35.7921 32.8802 33.6474 29.6152 29.5097 29.6152Z" fill="#FFD5D8" stroke="black" stroke-width="1.72881" stroke-linecap="round" stroke-linejoin="round"/>
<path d="M50.9326 19.7035C49.9507 17.7132 52.3056 12.1732 57.1617 12.4526C63.0742 12.7932 61.6719 18.6604 59.6736 20.8903" fill="#FFDD70"/>
<path d="M50.9326 19.7035C49.9507 17.7132 52.3056 12.1732 57.1617 12.4526C63.0742 12.7932 61.6719 18.6604 59.6736 20.8903" stroke="black" stroke-width="1.72881" stroke-linecap="round" stroke-linejoin="round"/>
<path d="M57.0393 15.1055C55.2378 16.1805 54.6232 18.6232 54.6232 19.5359" stroke="black" stroke-width="1.72881" stroke-linecap="round" stroke-linejoin="round"/>
<path d="M68.5078 25.5897C69.9367 24.3098 74.5693 21.7793 77.954 25.6456C80.8996 29.0116 77.5628 33.3622 75.7907 33.7267" fill="#FFDD70"/>
<path d="M68.5078 25.5897C69.9367 24.3098 74.5693 21.7793 77.954 25.6456C80.8996 29.0116 77.5628 33.3622 75.7907 33.7267" stroke="black" stroke-width="1.72881" stroke-linecap="round" stroke-linejoin="round"/>
<path d="M80.4205 41.1978C82.9058 39.9924 86.059 41.4985 86.3783 44.6357C86.7269 48.0496 83.8877 48.4514 82.1501 47.8501" fill="#FFDD70"/>
<path d="M80.4205 41.1978C82.9058 39.9924 86.059 41.4985 86.3783 44.6357C86.7269 48.0496 83.8877 48.4514 82.1501 47.8501" stroke="black" stroke-width="1.72881" stroke-linecap="round" stroke-linejoin="round"/>
<path d="M82.2246 44.6758C82.8073 44.596 83.8398 44.5375 84.4331 44.7211" stroke="black" stroke-width="1.72881" stroke-linecap="round" stroke-linejoin="round"/>
<path d="M85.2794 58.465C87.7753 58.449 89.1723 60.0375 89.1723 62.6692C89.1723 65.3833 87.4401 66.7004 85.9979 66.5408" fill="#FFDD70"/>
<path d="M85.2794 58.465C87.7753 58.449 89.1723 60.0375 89.1723 62.6692C89.1723 65.3833 87.4401 66.7004 85.9979 66.5408" stroke="black" stroke-width="1.72881" stroke-linecap="round" stroke-linejoin="round"/>
<path d="M30.2122 70.9125C27.0191 63.0149 25.0261 46.7968 28.1819 36.0973C32.0615 22.9445 41.3986 17.6121 52.4174 18.0218C66.741 18.554 75.6709 27.8405 81.5382 40.3334C86.4076 50.7056 87.6583 61.7137 87.2245 69.9253" fill="#90EBA5"/>
<path d="M30.2122 70.9125C27.0191 63.0149 25.0261 46.7968 28.1819 36.0973C32.0615 22.9445 41.3986 17.6121 52.4174 18.0218C66.741 18.554 75.6709 27.8405 81.5382 40.3334C86.4076 50.7056 87.6583 61.7137 87.2245 69.9253" stroke="black" stroke-width="1.72881" stroke-linecap="round" stroke-linejoin="round"/>
<path d="M50.706 42.6369C49.3889 42.6981 47.9254 41.9983 47.5263 40.4922C47.2149 41.6736 46.1426 42.3442 45.0383 42.4267C45.0383 43.7784 45.81 46.2424 47.7232 46.3941C49.5326 46.5377 50.6236 45.1674 50.706 42.6395V42.6369Z" fill="white"/>
<path d="M45.0386 42.4268C45.0386 43.7785 45.8102 46.2425 47.7234 46.3942C49.5328 46.5378 50.6238 45.1675 50.7063 42.637" stroke="black" stroke-width="1.72881" stroke-linecap="round" stroke-linejoin="round"/>
<path d="M52.614 41.7694C51.4512 43.2409 48.1597 42.8737 47.5264 40.4922C47.0208 42.416 44.4877 42.9854 43.104 41.8599" stroke="black" stroke-width="1.72881" stroke-linecap="round" stroke-linejoin="round"/>
<path d="M44.4026 35.8945C44.4026 36.6821 43.796 37.2675 43.0482 37.2675C42.3005 37.2675 41.6938 36.6954 41.6938 35.8945C41.6938 35.1362 42.2739 34.5215 43.0482 34.5215C43.8226 34.5215 44.4026 35.1362 44.4026 35.8945Z" fill="black"/>
<path d="M54.4741 36.0965C54.4741 36.924 53.8382 37.5387 53.0505 37.5387C52.2629 37.5387 51.627 36.9373 51.627 36.0965C51.627 35.3009 52.2363 34.6543 53.0505 34.6543C53.8648 34.6543 54.4741 35.3009 54.4741 36.0965Z" fill="black"/>
<path d="M40.1426 30.0937C41.4491 31.2113 47.9683 33.0367 50.8101 29.2555C53.1144 26.1875 50.4722 23.6623 48.1173 24.3728C46.1003 24.9821 45.169 27.8958 46.9305 29.8569C48.849 31.9936 54.6258 32.2144 57.7364 30.4237" stroke="black" stroke-width="1.72881" stroke-linecap="round" stroke-linejoin="round"/>
<path d="M66.2593 52.6108C64.6095 49.2101 61.475 47.5311 58.8886 49.133C56.4699 50.6311 57.4437 54.3137 58.6837 56.5728" fill="#90EBA5"/>
<path d="M66.2593 52.6108C64.6095 49.2101 61.475 47.5311 58.8886 49.133C56.4699 50.6311 57.4437 54.3137 58.6837 56.5728" stroke="black" stroke-width="1.72881" stroke-linecap="round" stroke-linejoin="round"/>
<path d="M26.9047 42.7969C27.0005 46.1124 31.7156 49.332 36.0448 48.9196" stroke="black" stroke-width="1.72881" stroke-linecap="round" stroke-linejoin="round"/>
<path d="M35.494 49.3696C35.5126 47.3872 37.1091 46.8684 39.9882 46.903C42.8593 46.9349 44.1126 47.648 44.1126 49.351C44.1126 51.3839 42.4948 51.6633 39.8765 51.6633C36.9867 51.6633 35.4807 50.8358 35.494 49.3723V49.3696Z" fill="#4D4D4D" stroke="black" stroke-width="1.72881" stroke-linecap="round" stroke-linejoin="round"/>
<path d="M30.816 53.2731C31.742 51.0486 34.6531 47.3765 37.5774 49.0902C40.2808 50.6761 38.8945 54.8909 37.7157 56.5726" fill="#90EBA5"/>
<path d="M30.816 53.2731C31.742 51.0486 34.6531 47.3765 37.5774 49.0902C40.2808 50.6761 38.8945 54.8909 37.7157 56.5726" stroke="black" stroke-width="1.72881" stroke-linecap="round" stroke-linejoin="round"/>
<path d="M33.453 25.8101C32.865 25.4775 32.08 25.2646 31.4547 25.3684C35.0709 20.4245 42.2207 15.7998 52.6088 15.9994C66.8819 16.2708 73.3638 23.1572 76.4611 29.4502L72.6321 29.6152C67.893 22.2685 60.8044 18.7481 51.5099 18.7375C41.622 18.7268 36.3907 22.774 33.4504 25.8128L33.453 25.8101Z" fill="white" stroke="black" stroke-width="1.72881" stroke-linecap="round" stroke-linejoin="round"/>
<path d="M72.4909 30.8847C70.9077 28.6549 69.5187 27.061 70.5272 25.813C71.5357 24.5651 73.1562 24.3096 74.303 24.7593C75.7266 25.3181 77.3258 27.5958 77.3151 29.3573L72.4909 30.882V30.8847Z" fill="#B4B5B4" stroke="black" stroke-width="1.72881" stroke-linecap="round" stroke-linejoin="round"/>
<path d="M73.9038 29.0773C68.5874 31.1049 68.2681 36.4826 70.5192 41.3361C72.7304 46.1071 77.1209 46.8601 80.729 45.1358C84.1323 43.51 84.8268 38.6193 83.8343 35.3783C82.5491 31.1794 78.1293 27.4675 73.9065 29.0773H73.9038Z" fill="#FFD5D8" stroke="black" stroke-width="1.72881" stroke-linecap="round" stroke-linejoin="round"/>
<path d="M72.5574 33.4844C71.235 35.8366 72.1716 41.2648 75.2236 43.2099" stroke="black" stroke-width="1.72881" stroke-linecap="round" stroke-linejoin="round"/>
<path d="M3.97253 66.208H97.3285V72.2589C97.3285 81.8068 89.5883 89.547 80.0403 89.547H21.2607C11.7127 89.547 3.97253 81.8068 3.97253 72.2589V66.208Z" fill="#B5B5B5"/>
<path d="M5.3595 65.9792C10.503 66.2693 92.7353 65.6892 96.0455 65.9792" stroke="black" stroke-width="1.72881" stroke-linecap="round" stroke-linejoin="round"/>
<path d="M46.3131 68.5712C48.692 68.4169 62.055 67.9912 63.9948 68.2706C65.8122 68.5313 65.7111 70.8623 64.8622 71.7191C63.3163 73.281 59.0375 76.836 57.0179 77.9376C55.6422 78.688 54.2479 79.0126 51.9117 79.1004C51.0469 79.1323 47.3376 78.7492 44.5649 78.7492C39.6529 78.7492 35.8132 78.6348 36.3055 77.5464C36.992 76.0297 43.631 68.7442 46.3185 68.5712H46.3131Z" fill="#FFD5D8" stroke="black" stroke-width="1.72881" stroke-linecap="round" stroke-linejoin="round"/>
<path d="M50.7383 70.6176C51.643 70.5697 58.8407 70.3568 60.1845 70.3808C59.003 71.2083 53.926 74.8883 52.8297 75.4764" fill="#FFD5D8"/>
<path d="M50.7383 70.6176C51.643 70.5697 58.8407 70.3568 60.1845 70.3808C59.003 71.2083 53.926 74.8883 52.8297 75.4764" stroke="black" stroke-width="1.72881" stroke-linecap="round" stroke-linejoin="round"/>
<path d="M62.2651 71.333C61.7568 71.6763 58.4121 74.2254 57.8054 74.6937" stroke="black" stroke-width="1.72881" stroke-linecap="round" stroke-linejoin="round"/>
<path d="M56.1478 70.4502C55.1127 71.0569 48.5643 74.5693 47.7793 75.2159" stroke="black" stroke-width="1.72881" stroke-linecap="round" stroke-linejoin="round"/>
<path d="M45.4962 72.1899C46.4249 72.1394 56.0892 72.0649 57.8055 72.0729" stroke="black" stroke-width="1.72881" stroke-linecap="round" stroke-linejoin="round"/>
<path d="M24.555 61.5735C22.5061 61.7944 20.8883 63.2738 21.4471 65.4238C21.9979 67.5419 24.8184 74.7689 25.6992 76.5011C26.3271 77.7358 27.1307 79.0662 30.0391 79.2552C32.7266 79.4308 50.9511 79.3323 52.96 79.1008C54.2985 78.9465 56.9993 78.9864 56.1904 76.1792C55.3575 73.2974 52.3321 66.0066 51.7201 64.6442C50.9883 63.0184 50.4348 61.8502 48.064 61.6108C45.5494 61.3553 27.9263 61.2143 24.5603 61.5762L24.555 61.5735Z" fill="#FFD5D8" stroke="black" stroke-width="1.72881" stroke-linecap="round" stroke-linejoin="round"/>
<path d="M27.2345 63.9331C28.4479 63.9119 32.8197 63.8427 33.7085 63.8693" stroke="black" stroke-width="1.72881" stroke-linecap="round" stroke-linejoin="round"/>
<path d="M45.0358 64.0557C46.9889 64.0557 48.3246 64.0823 48.7663 64.6863C49.4874 65.6761 50.2378 67.5414 50.5039 68.2492" stroke="black" stroke-width="1.72881" stroke-linecap="round" stroke-linejoin="round"/>
<path d="M36.6566 72.3447C36.928 72.978 36.5103 74.995 38.2265 74.8433C39.7805 74.7049 39.5996 72.9274 38.2186 71.8418" fill="white"/>
<path d="M36.6566 72.3447C36.928 72.978 36.5103 74.995 38.2265 74.8433C39.7805 74.7049 39.5996 72.9274 38.2186 71.8418" stroke="black" stroke-width="1.72881" stroke-linecap="round" stroke-linejoin="round"/>
<path d="M36.5157 68.2522C35.5364 68.662 35.4513 69.7955 34.8393 70.3783C33.9239 71.2457 34.2858 72.4032 35.5631 72.5043C36.8722 72.6081 38.522 72.5123 39.5464 72.2276C40.5709 71.9429 40.8369 70.8173 40.0626 69.737C39.4799 68.9254 37.9845 67.6429 36.5183 68.2549L36.5157 68.2522Z" fill="white" stroke="black" stroke-width="1.72881" stroke-linecap="round" stroke-linejoin="round"/>
</g>
<defs>
<clipPath id="clip0_3359_39086">
<rect width="95.7923" height="77.7966" fill="white" transform="translate(2.75439 11.9102)"/>
</clipPath>
</defs>
</svg>
