<svg width="102" height="102" viewBox="0 0 102 102" fill="none" xmlns="http://www.w3.org/2000/svg">
<g clip-path="url(#clip0_3359_38220)">
<path d="M33.7454 89.0429C33.7454 89.0429 35.7416 89.5817 38.6525 90.0536C41.7805 90.5589 60.8536 90.8387 63.4637 90.5422C66.5583 90.1914 68.0743 89.803 68.0743 89.803L51.5613 75.2988" fill="#FAA92E"/>
<path d="M68.0707 89.8069C68.3046 85.2005 67.8744 81.5212 67.8744 81.5212C67.8744 81.5212 84.2747 73.9956 80.1736 66.708C76.0766 59.4246 71.9755 58.1884 59.6263 60.264C47.2771 62.3396 31.6119 55.0436 29.3107 62.9034C27.0096 70.7631 28.2165 82.3648 33.8295 83.15C33.8295 83.15 33.6415 85.8437 33.7418 89.0427" fill="#FAA92E"/>
<path d="M68.0707 89.8069C68.3046 85.2005 67.8744 81.5212 67.8744 81.5212C67.8744 81.5212 84.2747 73.9956 80.1736 66.708C76.0766 59.4246 71.9755 58.1884 59.6263 60.264C47.2771 62.3396 31.6119 55.0436 29.3107 62.9034C27.0096 70.7631 28.2165 82.3648 33.8295 83.15C33.8295 83.15 33.6415 85.8437 33.7418 89.0427" stroke="#0D131A" stroke-width="1.72881" stroke-linecap="round" stroke-linejoin="round"/>
<path d="M42.3952 21.8826C41.9316 18.5834 39.05 13.4925 33.0027 15.4804C26.9972 17.4516 27.987 23.8914 29.6701 25.9545" fill="#FAA92E"/>
<path d="M42.3952 21.8826C41.9316 18.5834 39.05 13.4925 33.0027 15.4804C26.9972 17.4516 27.987 23.8914 29.6701 25.9545" stroke="#0D131A" stroke-width="1.72881" stroke-linecap="round" stroke-linejoin="round"/>
<path d="M59.6912 21.8826C60.1547 18.5834 63.0364 13.4925 69.0836 15.4804C75.0891 17.4516 74.0993 23.8914 72.4163 25.9545" fill="#FAA92E"/>
<path d="M59.6912 21.8826C60.1547 18.5834 63.0364 13.4925 69.0836 15.4804C75.0891 17.4516 74.0993 23.8914 72.4163 25.9545" stroke="#0D131A" stroke-width="1.72881" stroke-linecap="round" stroke-linejoin="round"/>
<path d="M20.6482 46.3608C20.6482 28.2023 34.6178 17.5361 50.9136 17.5361C67.2095 17.5361 81.1791 27.9685 81.1791 46.3566C81.1791 64.7447 66.6916 73.7655 50.9136 73.7655C35.1357 73.7655 20.6482 64.8115 20.6482 46.3608Z" fill="#FAA92E" stroke="#0D131A" stroke-width="1.72881" stroke-linecap="round" stroke-linejoin="round"/>
<path d="M58.5201 34.7129C58.5201 34.7129 63.2393 34.5208 68.7562 34.7547L58.5201 34.7129Z" fill="#0D131A"/>
<path d="M58.5201 34.7129C58.5201 34.7129 63.2393 34.5208 68.7562 34.7547" stroke="#0D131A" stroke-width="2.07458" stroke-linecap="round" stroke-linejoin="round"/>
<path d="M49.41 47.9769C45.334 46.7449 42.3939 49.188 42.2268 51.8692C42.0932 54.0576 44.0811 56.1457 46.3948 56.2501C48.8963 56.3629 50.4457 55.0014 50.9928 53.4812C51.5524 54.9972 52.8554 56.0956 55.357 55.9619C57.6707 55.8408 59.5375 54.3165 59.5876 51.6479C59.6335 48.9625 56.6559 45.918 52.0118 47.9686L50.7088 48.5866" fill="white"/>
<path d="M49.41 47.9769C45.334 46.7449 42.3939 49.188 42.2268 51.8692C42.0932 54.0576 44.0811 56.1457 46.3948 56.2501C48.8963 56.3629 50.4457 55.0014 50.9928 53.4812C51.5524 54.9972 52.8554 56.0956 55.357 55.9619C57.6707 55.8408 59.5375 54.3165 59.5876 51.6479C59.6335 48.9625 56.6559 45.918 52.0118 47.9686L50.7088 48.5866" stroke="#0D131A" stroke-width="1.72881" stroke-linecap="round" stroke-linejoin="round"/>
<path d="M32.8032 34.7705C32.8032 34.7705 37.5224 34.5784 43.0393 34.8123L32.8032 34.7705Z" fill="#0D131A"/>
<path d="M32.8032 34.7705C32.8032 34.7705 37.5224 34.5784 43.0393 34.8123" stroke="#0D131A" stroke-width="2.07458" stroke-linecap="round" stroke-linejoin="round"/>
<path d="M48.1554 47.3763C47.9842 48.3911 49.4668 50.5293 50.8032 50.521C52.0059 50.5126 53.4259 48.7502 53.6013 47.3595C53.8059 45.735 48.6273 44.5614 48.1554 47.3763Z" fill="#0D131A"/>
<path d="M38.8756 43.7483C39.9942 43.7483 40.9011 42.8414 40.9011 41.7228C40.9011 40.6041 39.9942 39.6973 38.8756 39.6973C37.7569 39.6973 36.8501 40.6041 36.8501 41.7228C36.8501 42.8414 37.7569 43.7483 38.8756 43.7483Z" fill="#0D131A"/>
<path d="M63.1507 43.7483C64.2694 43.7483 65.1762 42.8414 65.1762 41.7228C65.1762 40.6041 64.2694 39.6973 63.1507 39.6973C62.0321 39.6973 61.1252 40.6041 61.1252 41.7228C61.1252 42.8414 62.0321 43.7483 63.1507 43.7483Z" fill="#0D131A"/>
<path d="M64.3635 58.4259L59.3979 56.4505C59.3979 56.4505 58.9803 53.548 59.3979 51.8065C59.8155 50.065 60.1204 47.5091 63.6118 47.6887C67.0989 47.8682 64.3677 58.4259 64.3677 58.4259H64.3635Z" fill="#FAA92E"/>
<path d="M60.8705 48.0967C60.8705 48.0967 58.5193 49.8257 59.1499 56.4492" stroke="#0D131A" stroke-width="1.72881" stroke-linecap="round" stroke-linejoin="round"/>
<path d="M34.5799 83.2154C34.5799 83.2154 26.2649 83.5788 22.0469 76.8424C19.7792 73.2174 19.6956 67.3122 20.4265 61.1062C21.1866 54.6247 24.49 51.3171 28.6412 51.6679C37.8457 52.4446 32.3247 67.2829 33.9451 71.7891" fill="#FAA92E"/>
<path d="M34.5799 83.2154C34.5799 83.2154 26.2649 83.5788 22.0469 76.8424C19.7792 73.2174 19.6956 67.3122 20.4265 61.1062C21.1866 54.6247 24.49 51.3171 28.6412 51.6679C37.8457 52.4446 32.3247 67.2829 33.9451 71.7891" stroke="#0D131A" stroke-width="1.72881" stroke-linecap="round" stroke-linejoin="round"/>
<path d="M66.987 81.9491C66.987 81.9491 83.5042 76.8081 84.1432 67.7874C84.565 61.8112 80.8397 56.8999 77.6491 52.4145C74.6463 48.1965 70.1359 46.5511 66.8993 49.8545C64.2474 52.5607 64.8947 56.6576 67.8933 61.1179C71.56 66.5679 72.2784 68.1215 72.2784 68.1215" fill="#FAA92E"/>
<path d="M66.987 81.9491C66.987 81.9491 83.5042 76.8081 84.1432 67.7874C84.565 61.8112 80.8397 56.8999 77.6491 52.4145C74.6463 48.1965 70.1359 46.5511 66.8993 49.8545C64.2474 52.5607 64.8947 56.6576 67.8933 61.1179C71.56 66.5679 72.2784 68.1215 72.2784 68.1215" stroke="#0D131A" stroke-width="1.72881" stroke-linecap="round" stroke-linejoin="round"/>
<path d="M63.4261 90.5457C63.5932 88.8877 63.4762 87.1546 63.0878 85.4047C62.1315 81.0823 59.0744 78.7686 59.0744 78.7686C56.9696 81.1909 55.4327 82.6359 55.4327 82.6359L51.2899 78.6768L47.2765 82.6108L43.3758 78.7436C42.6533 79.2948 40.181 81.738 39.2539 84.6697C38.8028 86.1022 38.5731 88.065 38.6399 90.0529C41.768 90.5624 46.4162 91.0928 52.2295 91.1012C57.0991 91.1095 60.816 90.8422 63.4219 90.5457H63.4261Z" fill="white"/>
</g>
<defs>
<clipPath id="clip0_3359_38220">
<rect width="102" height="102" fill="white"/>
</clipPath>
</defs>
</svg>
