<svg width="102" height="102" viewBox="0 0 102 102" fill="none" xmlns="http://www.w3.org/2000/svg">
<path d="M78.9097 68.1565C85.1446 66.8743 85.866 64.3222 90.3368 62.0004C94.0317 60.0817 98.6752 61.7276 98.7328 65.4619C98.842 72.5848 87.1663 72.9304 79.4371 70.1933" fill="#FBB379"/>
<path d="M94.9682 70.7051C96.3746 66.8102 93.6315 62.2242 91.4613 61.5301C94.9076 60.4298 98.6782 62.0999 98.7267 65.4614C98.7661 68.0377 97.2658 69.7261 94.9652 70.7051H94.9682Z" fill="#3A3938"/>
<path d="M84.7082 65.8642C85.7236 65.1913 86.5905 64.4547 87.6119 63.7061C90.4066 65.3065 90.9613 68.9013 89.8428 71.7475C88.5637 71.8111 87.227 71.7656 85.8873 71.6232C86.4783 70.2319 86.742 67.3615 84.7082 65.8611V65.8642Z" fill="#3A3938"/>
<path d="M78.9097 68.1565C85.1446 66.8743 85.866 64.3222 90.3368 62.0004C94.0317 60.0817 98.6752 61.7276 98.7328 65.4619C98.842 72.5848 87.1663 72.9304 79.4371 70.1933" stroke="black" stroke-width="1.72881" stroke-linecap="round" stroke-linejoin="round"/>
<path d="M91.4644 61.5303C93.6346 62.2214 96.3777 66.8104 94.9713 70.7053" stroke="black" stroke-width="1.72881" stroke-linecap="round" stroke-linejoin="round"/>
<path d="M84.7082 65.8643C86.742 67.3646 86.4783 70.235 85.8873 71.6263" stroke="black" stroke-width="1.72881" stroke-linecap="round" stroke-linejoin="round"/>
<path d="M87.6119 63.709C90.4066 65.3094 90.9613 68.9042 89.8428 71.7504" stroke="black" stroke-width="1.72881" stroke-linecap="round" stroke-linejoin="round"/>
<path d="M38.5148 82.0194C37.8419 84.0017 36.1324 84.3533 34.0895 84.3624C30.7917 84.3776 28.0486 82.0406 28.9488 77.4971C29.5914 74.2417 34.3077 72.6959 38.8725 73.6052" fill="#3A3938"/>
<path d="M38.5148 82.0194C37.8419 84.0017 36.1324 84.3533 34.0895 84.3624C30.7917 84.3776 28.0486 82.0406 28.9488 77.4971C29.5914 74.2417 34.3077 72.6959 38.8725 73.6052" stroke="black" stroke-width="1.72881" stroke-linecap="round" stroke-linejoin="round"/>
<path d="M36.4962 82.3685C42.5249 84.9509 57.9197 83.5506 60.1202 83.1081C69.2619 82.2745 75.1603 80.7408 79.2462 76.7853C81.7347 74.3756 82.3864 71.1566 82.1469 67.1889C82.0469 65.5097 82.0257 59.1263 73.5357 57.435C68.392 56.4105 33.2711 57.2986 33.2711 57.2986" fill="#3A3938"/>
<path d="M36.4962 82.3685C42.5249 84.9509 57.9197 83.5506 60.1202 83.1081C69.2619 82.2745 75.1603 80.7408 79.2462 76.7853C81.7347 74.3756 82.3864 71.1566 82.1469 67.1889C82.0469 65.5097 82.0257 59.1263 73.5357 57.435C68.392 56.4105 33.2711 57.2986 33.2711 57.2986" stroke="black" stroke-width="1.72881" stroke-linecap="round" stroke-linejoin="round"/>
<path d="M53.2367 82.6594C54.337 84.3326 55.8222 84.9115 57.7318 84.9479C61.1326 85.0145 63.7272 83.2141 65.2397 81.6016" fill="#3A3938"/>
<path d="M53.2367 82.6594C54.337 84.3326 55.8222 84.9115 57.7318 84.9479C61.1326 85.0145 63.7272 83.2141 65.2397 81.6016" stroke="black" stroke-width="1.72881" stroke-linecap="round" stroke-linejoin="round"/>
<path d="M37.8692 26.3636C30.9463 18.8041 20.0557 12.839 13.8299 16.2338C7.74352 19.5558 7.33433 32.7318 11.1565 46.3231" fill="white"/>
<path d="M25.1901 17.0125C20.9618 15.1424 16.8486 14.5907 13.8297 16.2366C10.8108 17.8824 9.23158 21.8471 8.8042 27.0847C13.4175 22.2138 19.0886 18.4614 25.1901 17.0125Z" fill="#F08A5D"/>
<path d="M37.8692 26.3636C30.9463 18.8041 20.0557 12.839 13.8299 16.2338C7.74352 19.5558 7.33433 32.7318 11.1565 46.3231" stroke="black" stroke-width="1.72881" stroke-linecap="round" stroke-linejoin="round"/>
<path d="M12.7204 17.001C12.4537 18.8742 12.4416 21.7779 13.1842 23.3601" stroke="black" stroke-width="1.72881" stroke-linecap="round" stroke-linejoin="round"/>
<path d="M15.2059 15.6582C17.2216 16.8797 18.5189 18.0982 19.5343 19.5016" stroke="black" stroke-width="1.72881" stroke-linecap="round" stroke-linejoin="round"/>
<path d="M49.3965 24.8417C58.5745 16.4639 67.792 15.9577 71.699 17.6187C78.1248 20.3527 76.9367 37.0508 74.1723 46.7472" fill="white"/>
<path d="M76.2819 27.6546C72.4718 23.1656 67.5646 19.6557 61.6631 17.6946C65.9854 16.4609 69.6045 16.7307 71.6989 17.6188C74.5451 18.8282 75.8969 22.7807 76.2819 27.6516V27.6546Z" fill="#F08A5D"/>
<path d="M49.3965 24.8417C58.5745 16.4639 67.792 15.9577 71.699 17.6187C78.1248 20.3527 76.9367 37.0508 74.1723 46.7472" stroke="black" stroke-width="1.72881" stroke-linecap="round" stroke-linejoin="round"/>
<path d="M70.9079 17.3369C68.6558 17.7097 67.3251 18.4614 65.7096 19.9254" stroke="black" stroke-width="1.72881" stroke-linecap="round" stroke-linejoin="round"/>
<path d="M72.5537 18.0947C72.7022 20.0104 72.6961 22.3685 72.296 24.66" stroke="black" stroke-width="1.72881" stroke-linecap="round" stroke-linejoin="round"/>
<path d="M76.9366 53.3008C76.9305 73.7119 60.1051 79.3103 43.4767 79.3103C26.8484 79.3103 7.97095 74.8637 7.97095 54.1495C7.97095 35.8116 23.6051 23.7843 44.0951 23.3933C65.4125 22.9841 76.9426 39.1942 76.9366 53.3008Z" fill="#FBB379" stroke="black" stroke-width="1.72881" stroke-linecap="round" stroke-linejoin="round"/>
<path d="M49.2116 56.1984C47.3354 54.7011 42.0098 54.2737 38.9485 55.5104C34.8838 57.1532 35.3688 60.4965 37.0935 61.2057C39.4152 62.1605 41.7279 60.9481 42.8525 59.8781C43.9467 60.7814 45.6592 61.7695 47.9507 61.4816C50.2695 61.1906 51.9365 58.3747 49.2116 56.1984Z" fill="white" stroke="black" stroke-width="1.72881" stroke-linecap="round" stroke-linejoin="round"/>
<path d="M46.8927 49.3302C47.4019 48.5846 49.457 47.8268 51.2938 47.7632C53.852 47.6753 55.1341 47.9693 56.2678 48.6755C55.4979 49.7879 54.1733 50.1335 51.3999 50.2305C48.7477 50.3244 47.3352 49.9758 46.8927 49.3302Z" fill="white" stroke="black" stroke-width="1.55593" stroke-linecap="round" stroke-linejoin="round"/>
<path d="M51.2938 47.7627C51.3999 48.6478 51.4029 49.4631 51.3999 50.23" stroke="black" stroke-width="1.55593" stroke-linecap="round" stroke-linejoin="round"/>
<path d="M30.2583 49.4483C31.3464 48.7966 32.9681 48.0782 35.0625 48.1904C36.7326 48.2813 38.6664 48.6723 39.4576 49.6968C38.7271 50.4364 37.5086 50.7092 35.1231 50.7092C32.7377 50.7092 31.2222 50.3 30.2583 49.4513V49.4483Z" fill="white" stroke="black" stroke-width="1.55593" stroke-linecap="round" stroke-linejoin="round"/>
<path d="M35.1231 50.7062C35.1625 49.8636 35.1474 48.9755 35.0625 48.1904" stroke="black" stroke-width="1.55593" stroke-linecap="round" stroke-linejoin="round"/>
</svg>
