<svg width="102" height="102" viewBox="0 0 102 102" fill="none" xmlns="http://www.w3.org/2000/svg">
<path d="M52.3178 97.3941C56.1059 97.4468 58.2623 97.107 58.2623 97.107C58.5213 96.6156 61.0985 87.275 61.8181 86.1462C62.5377 85.0173 65.6159 83.7903 73.684 79.7723C81.8661 75.6977 88.8212 71.9667 91.7318 68.51C97.3671 61.8199 94.7097 59.6676 92.1339 58.0455C87.8974 55.3766 81.7537 61.9831 77.9041 64.6673C68.2296 71.4123 64.7168 71.8263 59.9234 73.2325C55.1322 74.6408 44.4132 75.8383 35.9583 68.8818C27.5034 61.9252 22.9495 45.3992 20.3777 40.9009C17.806 36.4027 15.2453 36.6869 13.0893 37.7726C10.9334 38.8583 9.76605 41.606 10.6736 46.4797C11.5811 51.3514 14.9937 58.606 20.4338 66.1216C25.8739 73.6351 28.139 76.3298 28.527 77.5595C28.9149 78.7892 28.1348 82.1978 27.8752 84.6909C27.6157 87.1861 26.8574 90.8594 26.8764 91.4108C26.8764 91.4108 28.8486 92.8198 32.1868 94.0026C34.7739 93.9956 37.9602 93.9511 42.0509 94.6529C46.3599 95.3935 49.5705 96.5428 52.3199 97.3919L52.3178 97.3941Z" fill="#FAAA30"/>
<path d="M52.9984 81.9826L49.3928 84.2897L46.6426 79.9324L42.1081 82.9795L39.4647 78.3594C34.7748 80.567 32.0307 85.554 32.0751 92.5897C32.0793 93.0763 32.1166 93.547 32.1849 94.0018C34.4161 94.793 37.5033 95.6642 41.5983 96.3679C45.9115 97.1084 49.5482 97.356 52.316 97.3933C52.3319 97.3654 52.3498 97.3374 52.3636 97.3095C57.4186 87.7824 52.9963 81.9826 52.9963 81.9826L52.9984 81.9826Z" fill="white"/>
<path d="M58.2625 97.107C58.5215 96.6156 61.0988 87.275 61.8184 86.1462C62.538 85.0173 66.7124 83.1373 74.8236 79.2063C81.1443 76.144 88.264 72.0555 91.5361 68.9381C97.0441 63.6915 94.597 59.8148 93.2538 58.6833C91.0817 56.8556 87.2138 56.932 80.4696 62.6826C72.8125 69.2127 64.717 71.8263 59.9236 73.2325C55.1324 74.6408 44.4134 75.8383 35.9585 68.8818C27.5036 61.9252 23.7723 45.8512 20.8753 41.0882C18.2845 36.8308 15.2476 36.6869 13.0895 37.7705C10.9335 38.8562 9.76618 41.6039 10.6737 46.4776C11.5812 51.3493 15.2543 59.0079 20.4339 66.1195C25.2995 72.7994 28.1392 76.3277 28.5271 77.5574C28.915 78.7872 28.135 82.1957 27.8753 84.6888C27.6158 87.184 26.9047 90.7587 26.8765 91.4087" stroke="black" stroke-width="1.72881" stroke-linecap="round" stroke-linejoin="round"/>
<path d="M65.6908 32.5429C65.6908 32.5429 68.9451 28.7877 73.2984 31.6064C77.4102 34.269 75.8338 38.7796 74.2372 40.2" fill="#FAAA30"/>
<path d="M65.6908 32.5429C65.6908 32.5429 68.9451 28.7877 73.2984 31.6064C77.4102 34.269 75.8338 38.7796 74.2372 40.2" stroke="black" stroke-width="1.72881" stroke-linecap="round" stroke-linejoin="round"/>
<path d="M48.9908 29.1181C48.9908 29.1181 47.419 24.716 42.4217 25.8301C37.8343 26.8542 37.8239 31.5046 38.3296 32.6039" fill="#FAAA30"/>
<path d="M48.9908 29.1181C48.9908 29.1181 47.419 24.716 42.4217 25.8301C37.8343 26.8542 37.8239 31.5046 38.3296 32.6039" stroke="black" stroke-width="1.72881" stroke-linecap="round" stroke-linejoin="round"/>
<path d="M27.8197 48.5453C30.6275 33.607 43.7683 26.9954 57.1734 29.5168C70.1543 31.9559 80.4576 42.7803 77.6141 57.9074C74.762 73.0874 61.4622 77.96 48.4813 75.5188C35.7061 73.1168 24.9655 63.7254 27.8176 48.5454L27.8197 48.5453Z" fill="#FAAA30" stroke="black" stroke-width="1.72881" stroke-linecap="round" stroke-linejoin="round"/>
<path d="M62.4998 41.4902C62.4998 41.4902 68.512 42.9875 70.2916 43.3918" stroke="black" stroke-width="1.98814" stroke-linecap="round" stroke-linejoin="round"/>
<path d="M42.3588 36.1621C42.3588 36.1621 48.3711 37.6594 50.1506 38.0637" stroke="black" stroke-width="1.98814" stroke-linecap="round" stroke-linejoin="round"/>
<path d="M46.9162 43.375C46.7149 44.2585 45.8343 44.8113 44.9508 44.61C44.0674 44.4087 43.5145 43.5281 43.7158 42.6447C43.9171 41.7612 44.7977 41.2083 45.6812 41.4097C46.5646 41.611 47.1175 42.4916 46.9162 43.375Z" fill="black"/>
<path d="M66.4896 48.4991C66.2883 49.3825 65.4099 49.9374 64.5242 49.7341C63.6408 49.5327 63.0879 48.6521 63.2892 47.7687C63.4905 46.8852 64.3712 46.3324 65.2546 46.5337C66.138 46.735 66.6909 47.6156 66.4896 48.4991Z" fill="black"/>
<path d="M71.0639 55.9576C70.7543 57.184 68.9532 57.0122 66.8129 56.4729C64.6726 55.9335 63.0307 55.1221 63.3145 54.004C63.637 52.7245 65.4252 52.9494 67.5655 53.4888C69.7058 54.0281 71.3327 54.8928 71.0639 55.9576Z" fill="#EA6161"/>
<path d="M43.7824 48.9176C43.4728 50.144 41.6717 49.9722 39.5314 49.4328C37.3911 48.8935 35.7492 48.082 36.033 46.964C36.3555 45.6845 38.1437 45.9094 40.284 46.4487C42.4243 46.9881 44.0512 47.8527 43.7824 48.9176Z" fill="#EA6161"/>
<path d="M53.7408 51.1427C53.7408 51.1427 52.0569 48.074 48.7721 49.1733C46.2476 50.0188 45.815 53.485 47.6582 54.9406C49.3129 56.2446 51.3806 56.1439 52.5219 55.0257C52.5219 55.0257 53.3591 57.4283 56.0257 57.467C59.0634 57.5119 60.1356 54.3883 59.3033 52.6134C58.4823 50.8613 55.9109 50.1008 53.7386 51.1407L53.7408 51.1427Z" fill="white" stroke="black" stroke-width="1.72881" stroke-linecap="round" stroke-linejoin="round"/>
<path d="M54.3914 48.4403C52.7976 48.0464 51.7384 48.8583 51.7078 49.8665C51.6777 50.8262 52.5725 51.9689 53.5464 52.1671C54.5225 52.3652 55.7506 51.6234 56.1126 50.8187C56.4747 50.014 56.1064 48.8657 54.3914 48.4403Z" fill="black"/>
<path d="M64.1285 15.0346C63.6383 14.922 62.9098 22.6411 62.9376 23.4452C62.9655 24.2493 67.2416 25.6097 70.8612 25.2288C75.0208 24.793 76.5698 21.9762 80.7335 22.5033C81.1017 22.5503 82.1722 13.3607 82.1919 12.8998C82.2118 12.4368 78.3471 12.9123 74.7125 14.6769C71.078 16.4415 68.6586 16.0856 64.1285 15.0346Z" fill="#8CB946" stroke="black" stroke-width="1.72881" stroke-linecap="round" stroke-linejoin="round"/>
<path d="M83.2085 28.9743C82.863 28.9648 84.3927 33.3576 84.5749 33.649C84.7569 33.9426 89.8787 34.5032 92.9007 30.8823C93.1773 30.5513 91.4281 26.0967 91.2861 25.8947C91.1422 25.6903 89.794 29.163 83.2064 28.9742L83.2085 28.9743Z" fill="#8CB946" stroke="black" stroke-width="1.72881" stroke-linecap="round" stroke-linejoin="round"/>
<path d="M24.2036 18.1922C29.8382 24.518 32.2678 26.9517 31.749 30.5165C31.6886 30.926 24.5749 34.2867 24.2878 34.3467C24.0007 34.4067 27.0383 30.7742 16.815 22.9711C16.2499 22.5408 23.8066 17.7442 24.2057 18.1924L24.2036 18.1922Z" fill="#8CB946" stroke="black" stroke-width="1.72881" stroke-linecap="round" stroke-linejoin="round"/>
<path d="M74.4792 20.6935C73.7829 21.9491 72.5723 22.8054 70.7122 22.0899C69.3618 21.5707 68.9458 20.4923 69.4599 18.9452C69.9124 17.5838 71.9656 16.8437 73.2293 17.5448C74.4951 18.2459 75.1732 19.4398 74.4771 20.6933L74.4792 20.6935Z" fill="#C4E2AF"/>
<path d="M88.7976 29.9409C89.2887 30.1317 89.5198 30.7179 89.3112 31.252C89.1049 31.7843 88.5679 31.947 88.0475 31.8724C87.4854 31.7907 87.1066 31.1435 87.282 30.6006C87.552 29.7626 88.3042 29.7521 88.7974 29.943L88.7976 29.9409Z" fill="#C4E2AF"/>
<path d="M27.4569 25.9916C27.3011 27.0657 26.2717 27.806 25.1601 27.6434C24.0486 27.4808 23.2726 26.4784 23.4304 25.4045C23.5861 24.3304 24.6155 23.5901 25.7271 23.7527C26.8387 23.9153 27.6147 24.9177 27.4569 25.9916Z" fill="#C4E2AF"/>
<path d="M65.5175 17.2246C66.2222 17.4705 67.1143 17.5712 67.5752 17.5909" stroke="#C4E2AF" stroke-width="1.72881" stroke-linecap="round" stroke-linejoin="round"/>
<path d="M76.9952 20.8491C77.3526 20.6294 78.8235 20.3951 79.1259 20.4185" stroke="#C4E2AF" stroke-width="1.72881" stroke-linecap="round" stroke-linejoin="round"/>
<path d="M25.6262 30.2646C25.7815 30.6365 26.0039 31.0174 26.0034 31.505" stroke="#C4E2AF" stroke-width="1.72881" stroke-linecap="round" stroke-linejoin="round"/>
<path d="M23.7905 20.375C24.0238 20.689 24.6315 21.3228 24.7681 21.4823" stroke="#C4E2AF" stroke-width="1.72881" stroke-linecap="round" stroke-linejoin="round"/>
<path d="M75.8637 68.6195C75.8211 68.9096 74.426 78.1336 74.4324 79.1742C74.4341 79.467 80.1809 80.6616 85.0159 79.3024C89.8509 77.9432 92.108 76.9805 92.202 76.7118C93.0393 74.2915 93.8292 68.4174 93.5669 67.1012C93.488 66.7078 87.1318 68.9243 83.8777 69.4473C80.2045 70.0375 75.8638 68.6216 75.8638 68.6216L75.8637 68.6195Z" fill="#8CB946" stroke="black" stroke-width="1.72881" stroke-linecap="round" stroke-linejoin="round"/>
<path d="M17.5806 63.6672C17.8553 63.8115 23.1733 66.1966 26.4683 67.0417C29.7633 67.8889 34.0323 67.7143 35.4786 67.0682C35.7152 66.9631 35.9723 72.6515 34.0055 76.4108C33.79 76.8227 31.5888 76.8986 27.0723 76.4348C22.4776 75.9632 16.2113 72.8418 16.3035 72.6448C16.594 72.0258 17.2151 71.0331 17.4686 68.0577C17.7134 65.1965 17.5784 63.6651 17.5784 63.6651L17.5806 63.6672Z" fill="#8CB946" stroke="black" stroke-width="1.72881" stroke-linecap="round" stroke-linejoin="round"/>
<path d="M85.9242 72.64C86.7797 73.6198 86.941 74.8763 85.5767 76.2507C84.7989 77.036 83.1082 77.5599 81.9239 76.4546C80.7156 75.3247 80.8368 73.34 81.9676 72.4667C83.2627 71.4676 85.0425 71.6338 85.9221 72.6401L85.9242 72.64Z" fill="#C4E2AF"/>
<path d="M28.2465 72.7873C27.3139 74.4608 25.5642 74.4938 24.163 73.7604C22.7619 73.027 22.1763 71.3805 22.8563 70.0803C23.5363 68.78 25.4131 68.1549 26.8805 69.0377C28.2339 69.8528 29.0542 71.3415 28.2466 72.7895L28.2465 72.7873Z" fill="#C4E2AF"/>
<path d="M77.3817 71.1523C77.8777 71.2996 79.2021 71.5194 79.6565 71.4384" stroke="#C4E2AF" stroke-width="1.72881" stroke-linecap="round" stroke-linejoin="round"/>
<path d="M88.5224 76.1935C89.1433 75.9888 89.8352 75.6468 90.5136 75.4022" stroke="#C4E2AF" stroke-width="1.72881" stroke-linecap="round" stroke-linejoin="round"/>
<path d="M19.5926 66.5957C20.2642 66.9476 21.1856 67.2719 21.7981 67.4383" stroke="#C4E2AF" stroke-width="1.72881" stroke-linecap="round" stroke-linejoin="round"/>
<path d="M30.1821 74.7793C30.9506 74.9466 32.0617 74.9062 32.6762 74.824" stroke="#C4E2AF" stroke-width="1.72881" stroke-linecap="round" stroke-linejoin="round"/>
</svg>
