<svg width="102" height="102" viewBox="0 0 102 102" fill="none" xmlns="http://www.w3.org/2000/svg">
<g clip-path="url(#clip0_3359_38307)">
<path d="M33.561 67.5971C30.9989 70.232 29.6671 73.7658 29.5633 78.1985C29.4529 82.6224 31.3258 85.7145 35.1843 87.9165C37.6425 89.3234 40.5845 89.8071 43.787 90.1163C61.7963 67.2724 58.3132 60.1606 33.561 67.5971Z" fill="#FAAA30"/>
<path d="M33.5599 67.5967C30.9979 70.2316 29.6661 73.7654 29.5623 78.1981C29.5888 82.3327 31.7422 86.2022 35.1833 87.9161C37.7188 89.1794 40.5834 89.8067 43.7859 90.1159" stroke="black" stroke-width="1.72881" stroke-linecap="round" stroke-linejoin="round"/>
<path d="M78.741 87.244C81.6155 85.7494 83.097 83.0293 83.1855 79.0836C83.2651 75.1386 79.3342 68.3528 74.7384 64.5309C60.9181 60.4537 62.875 70.1778 77.2682 87.9051C77.7496 87.7185 78.242 87.4981 78.741 87.244Z" fill="#FAAA30"/>
<path d="M71.9742 62.8174C78.2819 66.5704 83.2608 75.0832 83.1812 79.0283C83.0927 82.9739 81.7922 85.5183 78.7367 87.1886C78.2377 87.4427 77.7453 87.6632 77.2639 87.8497" stroke="black" stroke-width="1.72881" stroke-linecap="round" stroke-linejoin="round"/>
<path d="M35.3991 21.8651C33.5416 18.7488 29.555 17.8675 26.5181 19.2391C24.5679 20.1203 22.9446 21.9314 22.6022 24.2173C22.2466 26.5916 23.2052 28.8621 24.7269 30.6246" fill="#FAAA30"/>
<path d="M35.3991 21.8651C33.5416 18.7488 29.555 17.8675 26.5181 19.2391C24.5679 20.1203 22.9446 21.9314 22.6022 24.2173C22.2466 26.5916 23.2052 28.8621 24.7269 30.6246" stroke="black" stroke-width="1.72881" stroke-linecap="round" stroke-linejoin="round"/>
<path d="M64.7099 23.8902C66.3266 20.2658 64.7386 16.16 61.1363 14.7818C58.9564 13.9492 56.4938 13.905 54.5457 15.1462C52.5226 16.4361 51.4338 18.6491 51.1047 20.9527" fill="#FAAA30"/>
<path d="M64.7099 23.8902C66.3266 20.2658 64.7386 16.16 61.1363 14.7818C58.9564 13.9492 56.4938 13.905 54.5457 15.1462C52.5226 16.4361 51.4338 18.6491 51.1047 20.9527" stroke="black" stroke-width="1.72881" stroke-linecap="round" stroke-linejoin="round"/>
<path d="M19.5364 48.5944C18.717 41.825 20.1151 35.0754 24.0818 29.4655C26.4362 26.1371 29.5637 23.4182 33.1527 21.4945C36.1079 19.8557 39.3634 18.7514 42.9194 18.1816C46.2897 17.5742 49.6071 17.5543 52.8693 18.1242C56.1491 18.6476 59.1816 19.7453 61.9711 21.4216C64.8225 23.1179 67.2277 25.3375 69.1845 28.0829C73.7432 34.4724 75.7 44.0093 73.3766 51.5076C71.8857 56.318 68.4049 59.9578 64.3587 62.9793C61.2864 65.2387 57.503 67.0144 53.0062 68.3043C48.4785 69.5897 44.3638 70.1043 40.6599 69.8128C36.9516 69.5212 33.6541 68.5362 30.7829 66.8554C27.6665 65.0311 25.1795 62.6281 23.2934 59.6884C21.2548 56.5146 20.0466 52.8129 19.5364 48.5922V48.5944Z" fill="#FAAA30" stroke="black" stroke-width="1.72881" stroke-linecap="round" stroke-linejoin="round"/>
<path d="M48.1451 39.284L57.3243 37.4287" stroke="black" stroke-width="2.07458" stroke-linecap="round" stroke-linejoin="round"/>
<path d="M26.5181 43.6248L35.0236 41.8203" stroke="black" stroke-width="2.07458" stroke-linecap="round" stroke-linejoin="round"/>
<path d="M33.5224 49.1573C33.8139 48.7421 33.9155 48.2805 33.8272 47.7725C33.7388 47.2711 33.4871 46.8758 33.0718 46.5842C32.6544 46.2861 32.1928 46.18 31.6848 46.2706C31.1834 46.3589 30.7881 46.6129 30.4966 47.037C30.1984 47.4544 30.0924 47.9138 30.1807 48.4152C30.2691 48.9165 30.5253 49.3229 30.9493 49.6123C31.3645 49.9038 31.8239 50.0054 32.3253 49.9193C32.8333 49.8309 33.2331 49.5769 33.5246 49.1617L33.5224 49.1573Z" fill="black"/>
<path d="M55.2968 44.9357C55.5884 44.5205 55.69 44.0588 55.6016 43.5509C55.5133 43.0495 55.2615 42.6542 54.8463 42.3626C54.4222 42.0645 53.9606 41.9606 53.4592 42.049C52.9579 42.1373 52.5515 42.3935 52.2622 42.8176C51.9706 43.2328 51.869 43.6922 51.9552 44.1936C52.0435 44.7016 52.2975 45.1013 52.7127 45.3929C53.1279 45.6844 53.5895 45.786 54.0975 45.6977C54.6055 45.6093 54.9987 45.3575 55.2968 44.9401V44.9357Z" fill="black"/>
<path d="M38.2061 53.402C37.4994 54.2236 37.1614 55.096 37.1968 56.017C37.2387 56.9424 37.6275 57.7464 38.3652 58.4289C39.1051 59.1179 40.0636 59.4227 41.2408 59.341C42.4158 59.2615 43.4362 58.4841 44.3042 57.0065C44.9027 57.4107 45.5212 57.6669 46.1572 57.7773C47.0341 57.9319 47.9374 57.8568 48.8628 57.5498C49.7883 57.2428 50.4486 56.6553 50.8484 55.7917C51.257 54.9348 51.3564 54.0778 51.1532 53.2209C50.9566 52.3706 50.5569 51.7279 49.9539 51.2928C49.3532 50.8643 48.4807 50.6456 47.3322 50.6368C46.1838 50.6302 44.7305 51.041 42.9724 51.8736C40.5031 52.0768 38.9151 52.587 38.2061 53.3998V53.402Z" fill="white"/>
<path d="M44.3094 57.0106C44.9035 57.4126 45.5198 57.6666 46.1558 57.777C47.0327 57.9316 47.936 57.8566 48.8614 57.5496C49.7869 57.2426 50.4494 56.6573 50.8536 55.7959C51.2578 54.9345 51.3572 54.0776 51.1584 53.2251C50.9574 52.3725 50.5555 51.7298 49.9547 51.2991C49.354 50.8662 48.4793 50.6454 47.3331 50.6388C46.1846 50.6321 44.7313 51.0429 42.9732 51.8756C40.5039 52.0788 38.9159 52.5912 38.2069 53.4084C37.498 54.2278 37.1645 55.098 37.202 56.0212C37.2396 56.9444 37.6261 57.7483 38.3638 58.433C39.1014 59.1177 40.06 59.4203 41.2372 59.3408C42.4122 59.2612 43.4348 58.4838 44.3072 57.0106C44.0841 56.8583 43.8633 56.686 43.6446 56.4938" stroke="black" stroke-width="1.72881" stroke-linecap="round" stroke-linejoin="round"/>
<path d="M44.0071 50.0537C43.5587 49.9146 43.0574 49.8881 42.5008 49.9742C41.9265 50.0736 41.4583 50.268 41.1005 50.5529C40.6853 50.9085 40.4975 51.3502 40.5395 51.8803C40.5748 52.4125 40.9061 52.883 41.5334 53.296C42.1673 53.7068 42.7548 53.8349 43.2937 53.6847C43.826 53.5345 44.2544 53.1591 44.5813 52.5539C44.9016 51.9576 45.0032 51.4319 44.8817 50.9769C44.758 50.5153 44.4665 50.2083 44.0071 50.0559V50.0537Z" fill="black"/>
<path d="M46.246 66.003C46.7126 60.2491 54.2152 55.0659 60.5919 61.5407C66.7597 54.5567 75.3395 59.3744 75.6629 65.7053C76.1826 75.9024 69.1912 79.1429 62.5029 82.4079C61.2759 83.0075 59.8556 83.0131 58.6275 82.4231C52.9427 79.6911 45.427 76.0713 46.246 66.003Z" fill="#FFADAD" stroke="black" stroke-width="1.72881" stroke-linecap="round" stroke-linejoin="round"/>
<path d="M69.2392 66.2774C70.0771 66.3454 70.8132 65.7002 70.8833 64.8365C70.9533 63.9727 70.3308 63.2174 69.4929 63.1494C68.6549 63.0815 67.9189 63.7266 67.8488 64.5904C67.7788 65.4541 68.4013 66.2095 69.2392 66.2774Z" fill="white"/>
<path d="M43.7825 90.1169C45.6002 90.2936 47.5416 90.2936 49.6022 90.1169C55.2851 89.6244 57.9333 87.0204 57.5423 82.3094C57.1448 77.5896 53.3238 75.3743 46.0795 75.2197L43.7825 90.1169Z" fill="#FAAA30"/>
<path d="M43.783 90.1169C45.6007 90.2936 47.5421 90.2936 49.6028 90.1169C55.2856 89.6244 57.9338 87.0204 57.5429 82.3094C57.1453 77.5896 53.3244 75.3743 46.08 75.2197" stroke="black" stroke-width="1.72881" stroke-linecap="round" stroke-linejoin="round"/>
<path d="M75.6273 75.0425C73.1436 74.7341 70.9599 75.2538 69.0784 76.6013C67.1969 77.9488 66.2989 80.0153 66.3865 82.7984C66.4736 85.5749 67.8334 87.3737 70.4704 88.1966C72.6463 88.8727 74.9119 88.7571 77.265 87.8501L75.6273 75.0425Z" fill="#FAAA30"/>
<path d="M77.7114 87.664C75.3405 88.7028 72.6469 88.873 70.471 88.1969C67.8339 87.374 66.5524 85.4528 66.387 82.7987C66.2134 80.019 67.1975 77.9491 69.079 76.6016C70.9604 75.2541 73.1441 74.7345 75.6279 75.0429" stroke="black" stroke-width="1.72881" stroke-linecap="round" stroke-linejoin="round"/>
</g>
<defs>
<clipPath id="clip0_3359_38307">
<rect width="102" height="102" fill="white"/>
</clipPath>
</defs>
</svg>
