<svg width="102" height="102" viewBox="0 0 102 102" fill="none" xmlns="http://www.w3.org/2000/svg">
<path d="M63.5329 72.2837L73.2551 69.583C73.8882 63.4753 72.7733 58.0524 69.9064 53.3145H39.8754C38.9247 59.6166 38.8534 65.6142 39.6593 71.3114L63.5329 72.2837Z" fill="#FFD677"/>
<path d="M69.906 53.3145C72.773 58.0524 73.8878 63.4753 73.2548 69.583L63.5325 72.2837L39.6589 71.3114C38.8531 65.6142 38.9244 59.6166 39.875 53.3145H69.906Z" stroke="black" stroke-width="1.71241" stroke-linecap="round" stroke-linejoin="round"/>
<path d="M71.0083 52.2604C71.6565 51.8283 72.2614 51.3638 72.8231 50.8669C76.5327 47.5678 78.2611 42.6959 78.0083 36.2511C77.8938 33.4057 77.2954 30.7677 76.2151 28.3328C75.15 25.9195 73.6592 23.8217 71.7429 22.035C71.6781 20.9482 71.4771 20.0192 71.1379 19.2479C70.7987 18.4701 70.3537 17.9019 69.7984 17.5411C69.0574 17.0593 68.2796 16.8065 67.4651 16.7849C66.5296 16.7698 65.4925 17.0507 64.354 17.6275C61.4438 16.7417 58.3694 16.2988 55.1286 16.2988C51.8879 16.2988 48.9539 16.7417 45.9141 17.6275C44.7625 17.0507 43.7211 16.7698 42.7921 16.7849C41.9711 16.8065 41.1934 17.0593 40.4588 17.5411C39.8971 17.9019 39.4498 18.4701 39.1193 19.2479C38.7801 20.0192 38.5791 20.9482 38.5143 22.035C36.5915 23.8217 35.1007 25.9195 34.0421 28.3328C32.9618 30.7677 32.3677 33.4057 32.2597 36.2511C32.0004 42.6959 33.7288 47.5678 37.4449 50.8669C37.473 50.895 37.5097 50.9274 37.5529 50.9641C37.5594 50.9706 37.5702 50.9792 37.5853 50.9857C38.1406 51.461 38.7347 51.9082 39.3677 52.3252C43.1421 54.7601 48.3943 55.9829 55.1286 55.9981C61.9342 55.9829 67.2274 54.7385 71.0083 52.2604Z" fill="#FFD677" stroke="black" stroke-width="1.71241" stroke-linecap="round" stroke-linejoin="round"/>
<path d="M46.2715 30.6406C45.7681 30.6406 45.3468 30.8178 45.0076 31.17C44.6554 31.5156 44.4783 31.9412 44.4783 32.4446C44.4783 32.9351 44.6554 33.3564 45.0076 33.7085C45.3468 34.0607 45.7681 34.2379 46.2715 34.2379C46.7749 34.2379 47.1832 34.0607 47.5354 33.7085C47.8875 33.3564 48.0647 32.9351 48.0647 32.4446C48.0647 31.9542 47.8875 31.5156 47.5354 31.17C47.1832 30.8178 46.7619 30.6406 46.2715 30.6406Z" fill="black"/>
<path d="M61.4051 31.17C61.0595 30.8178 60.6338 30.6406 60.1304 30.6406C59.627 30.6406 59.2187 30.8178 58.8665 31.17C58.5144 31.5156 58.3372 31.9412 58.3372 32.4446C58.3372 32.948 58.5144 33.3564 58.8665 33.7085C59.2187 34.0607 59.64 34.2379 60.1304 34.2379C60.6209 34.2379 61.0595 34.0607 61.4051 33.7085C61.7573 33.3564 61.9345 32.9351 61.9345 32.4446C61.9345 31.9542 61.7573 31.5156 61.4051 31.17Z" fill="black"/>
<path d="M61.0921 37.3594L58.4368 38.4396" stroke="black" stroke-width="1.71241" stroke-linecap="round" stroke-linejoin="round"/>
<path d="M60.9935 41.9189L58.5759 40.9121" stroke="black" stroke-width="1.71241" stroke-linecap="round" stroke-linejoin="round"/>
<path d="M45.309 37.3594L47.9642 38.4396" stroke="black" stroke-width="1.71241" stroke-linecap="round" stroke-linejoin="round"/>
<path d="M45.4051 41.9186L47.6196 40.9961" stroke="black" stroke-width="1.71241" stroke-linecap="round" stroke-linejoin="round"/>
<path d="M74.3556 69.1622C73.2322 67.881 71.7198 67.7362 69.8186 68.7301C69.0775 67.6995 67.9756 67.1572 66.513 67.0989C65.0503 67.0341 64.0003 67.7297 63.3587 69.1838C62.7818 68.1208 61.937 67.9588 61.1873 67.9091C60.4312 67.8594 59.7333 68.1575 59.0917 68.8057C58.3204 68.0711 57.3481 67.6714 56.175 67.6066C55.0018 67.5353 54.0642 67.9588 53.3663 68.8813C52.7117 67.7362 51.72 67.235 50.3956 67.3797C49.4601 67.4294 48.6305 67.9242 47.9111 68.8597C47.2996 67.8442 46.2302 67.4381 44.7027 67.639C43.5792 67.8183 42.8555 68.2871 42.5314 69.0433C41.3215 68.0646 40.1613 67.8831 39.053 68.5032C37.936 69.1146 37.303 69.9248 37.1517 70.9338C36.994 71.9427 37.3527 72.8998 38.232 73.8072C37.303 74.5418 36.8968 75.4384 37.0113 76.4971C37.1345 77.5557 37.6335 78.3486 38.5129 78.8736C37.6767 79.6082 37.3095 80.5739 37.411 81.7687C37.5126 82.957 38.0851 83.7888 39.1286 84.2641C38.3141 85.1996 37.9619 86.1178 38.07 87.0187C38.1715 87.911 38.6144 88.6283 39.3987 89.1684C38.9234 90.4582 38.9839 91.545 39.5823 92.4308C40.1721 93.3166 41.1163 93.6342 42.4126 93.3814C43.1255 93.9863 44.1518 94.2931 45.4913 94.2996C46.8243 94.2996 47.9694 93.9691 48.9265 93.3058C50.3805 93.4073 51.3182 93.0249 51.7351 92.1607C52.1521 91.29 52.1932 90.4906 51.854 89.7626C52.9558 89.3953 53.5867 88.5916 53.7444 87.3536C53.8092 86.6125 53.6105 85.8736 53.1503 85.1391C54.6129 85.2622 55.9957 85.178 57.2984 84.8906C57.1191 85.1996 57.0284 85.5431 57.0284 85.9169C57.0284 86.4851 57.2293 86.9712 57.6333 87.3752C57.9509 87.6928 58.1583 87.9196 58.2599 88.0558C58.0373 88.5159 57.925 89.0755 57.925 89.7301C57.925 90.3848 58.1562 90.9335 58.6163 91.3937C58.9339 91.7178 59.3012 91.9295 59.7182 92.0311C59.9559 92.9817 60.4809 93.619 61.2954 93.9431C62.5701 94.4616 63.7151 94.3277 64.7306 93.5434C65.6164 94.09 66.6599 94.2175 67.8633 93.9215C69.0581 93.6255 69.8726 92.8586 70.3047 91.6206C71.0112 91.6573 71.6334 91.303 72.1735 90.5619C72.6704 89.8857 72.7136 89.1403 72.3031 88.3258C73.3553 87.8937 73.9602 87.2067 74.118 86.2625C74.2692 85.327 73.984 84.3138 73.2646 83.227C73.351 83.1557 73.4331 83.0801 73.513 83.0002C74.0899 82.432 74.3772 81.7428 74.3772 80.9369C74.3772 80.131 74.0899 79.4418 73.513 78.8736C73.4482 78.8088 73.3834 78.7483 73.3186 78.69C74.3275 78.0137 74.8849 77.1668 74.993 76.1514C75.0945 75.2591 74.7553 74.3754 73.9775 73.5048C75.3451 71.8844 75.4726 70.4369 74.3556 69.1622Z" fill="#FFCFCF"/>
<path d="M41.4589 72.7934C41.9277 73.2622 42.4916 73.4955 43.1549 73.4955C43.8095 73.4955 44.3756 73.2622 44.8509 72.7934C45.3197 72.3245 45.553 71.7607 45.553 71.0974C45.553 70.4341 45.3197 69.8702 44.8509 69.4014C44.3756 68.9326 43.8095 68.6992 43.1549 68.6992C42.5002 68.6992 41.9277 68.9326 41.4589 69.4014C40.99 69.8702 40.7567 70.4341 40.7567 71.0974C40.7567 71.7607 40.99 72.3245 41.4589 72.7934Z" fill="#FF9797"/>
<path d="M55.129 72.2741C55.129 72.9374 55.3624 73.5013 55.8312 73.9701C56.3 74.439 56.8639 74.6723 57.5272 74.6723C58.1818 74.6723 58.7479 74.439 59.2232 73.9701C59.692 73.5013 59.9253 72.9374 59.9253 72.2741C59.9253 71.6109 59.692 71.047 59.2232 70.5781C58.7479 70.1093 58.1818 69.876 57.5272 69.876C56.8725 69.876 56.3 70.1093 55.8312 70.5781C55.3624 71.047 55.129 71.6109 55.129 72.2741Z" fill="#FF9797"/>
<path d="M72.883 73.5444C73.5377 73.5444 74.1037 73.311 74.579 72.8422C75.0478 72.3734 75.2812 71.8095 75.2812 71.1462C75.2812 70.4829 75.0478 69.919 74.579 69.4502C74.1037 68.9814 73.5377 68.748 72.883 68.748C72.2284 68.748 71.6559 68.9814 71.187 69.4502C70.7182 69.919 70.4849 70.4829 70.4849 71.1462C70.4849 71.8095 70.7182 72.3734 71.187 72.8422C71.6559 73.311 72.2197 73.5444 72.883 73.5444Z" fill="#FF9797"/>
<path d="M66.9991 79.2621C67.4679 78.7933 67.7012 78.2294 67.7012 77.5661C67.7012 76.9029 67.4679 76.339 66.9991 75.8701C66.5237 75.4013 65.9577 75.168 65.3031 75.168C64.6484 75.168 64.0759 75.4013 63.6071 75.8701C63.1382 76.339 62.9049 76.9029 62.9049 77.5661C62.9049 78.2294 63.1382 78.7933 63.6071 79.2621C64.0759 79.731 64.6398 79.9643 65.3031 79.9643C65.9577 79.9643 66.5237 79.731 66.9991 79.2621Z" fill="#FF9797"/>
<path d="M69.8294 81.9746C69.3605 82.4435 69.1272 83.0073 69.1272 83.6706C69.1272 84.3339 69.3605 84.8978 69.8294 85.3666C70.2982 85.8354 70.8621 86.0688 71.5254 86.0688C72.18 86.0688 72.746 85.8354 73.2214 85.3666C73.6902 84.8978 73.9235 84.3339 73.9235 83.6706C73.9235 83.0073 73.6902 82.4435 73.2214 81.9746C72.746 81.5058 72.18 81.2725 71.5254 81.2725C70.8707 81.2725 70.2982 81.5058 69.8294 81.9746Z" fill="#FF9797"/>
<path d="M63.3924 89.1902C63.3924 89.8534 63.6257 90.4173 64.0946 90.8861C64.5634 91.355 65.1273 91.5883 65.7905 91.5883C66.4538 91.5883 67.0112 91.355 67.4865 90.8861C67.9554 90.4173 68.1887 89.8534 68.1887 89.1902C68.1887 88.5269 67.9554 87.963 67.4865 87.4942C67.0112 87.0253 66.4452 86.792 65.7905 86.792C65.1273 86.792 64.5634 87.0253 64.0946 87.4942C63.6257 87.963 63.3924 88.5269 63.3924 89.1902Z" fill="#FF9797"/>
<path d="M59.6971 85.0961C60.1659 84.6273 60.3992 84.0634 60.3992 83.4001C60.3992 82.7368 60.1659 82.1729 59.6971 81.7041C59.2218 81.2353 58.6557 81.002 58.0011 81.002C57.3464 81.002 56.7739 81.2353 56.3051 81.7041C55.8362 82.1729 55.6029 82.7368 55.6029 83.4001C55.6029 84.0634 55.8362 84.6273 56.3051 85.0961C56.7739 85.5649 57.3378 85.7983 58.0011 85.7983C58.6557 85.7983 59.2218 85.5649 59.6971 85.0961Z" fill="#FF9797"/>
<path d="M47.3773 77.2624C47.3773 77.9257 47.6106 78.4896 48.0794 78.9584C48.5483 79.4272 49.1121 79.6606 49.7754 79.6606C50.4301 79.6606 50.9961 79.4272 51.4714 78.9584C51.9402 78.4896 52.1736 77.9257 52.1736 77.2624C52.1736 76.5991 51.9402 76.0353 51.4714 75.5664C50.9961 75.0976 50.4301 74.8643 49.7754 74.8643C49.1208 74.8643 48.5483 75.0976 48.0794 75.5664C47.6106 76.0353 47.3773 76.5991 47.3773 77.2624Z" fill="#FF9797"/>
<path d="M43.536 81.6494C42.8728 81.6494 42.3089 81.8827 41.84 82.3516C41.3712 82.8204 41.1379 83.3843 41.1379 84.0476C41.1379 84.7108 41.3712 85.2747 41.84 85.7436C42.3089 86.2124 42.8728 86.4457 43.536 86.4457C44.1907 86.4457 44.7567 86.2124 45.232 85.7436C45.7009 85.2747 45.9342 84.7108 45.9342 84.0476C45.9342 83.3843 45.7009 82.8204 45.232 82.3516C44.7567 81.8827 44.1907 81.6494 43.536 81.6494Z" fill="#FF9797"/>
<path d="M51.7135 91.4809C52.1824 91.012 52.4157 90.4482 52.4157 89.7849C52.4157 89.1216 52.1824 88.5577 51.7135 88.0889C51.2382 87.6201 50.6722 87.3867 50.0175 87.3867C49.3543 87.3867 48.7904 87.6201 48.3215 88.0889C47.8527 88.5577 47.6194 89.1216 47.6194 89.7849C47.6194 90.4482 47.8527 91.012 48.3215 91.4809C48.7904 91.9497 49.3543 92.183 50.0175 92.183C50.6808 92.183 51.2382 91.9497 51.7135 91.4809Z" fill="#FF9797"/>
<path d="M53.1508 85.139C54.2851 86.7702 53.5159 88.9091 52.1505 89.5788C52.9024 91.4109 51.4159 93.6622 48.927 93.3057C47.3153 94.535 44.7292 94.5328 43.2406 93.2193C40.5529 93.8112 38.9304 91.1603 39.3992 89.1683C37.6686 87.9563 37.6406 85.8952 39.1291 84.264C37.0205 83.4387 36.8563 80.1979 38.5134 78.8735C36.6986 77.843 36.4069 75.0991 38.2325 73.8071C35.0782 71.0547 39.3387 66.159 42.5319 69.0432C43.2449 67.196 47.1381 67.1009 47.9116 68.8596C49.3051 66.8849 52.2283 66.7747 53.3669 68.8812C54.6588 66.9972 56.9382 67.034 58.3771 68.4556C59.7468 67.075 62.0542 67.3883 63.3354 68.8877C64.3897 66.684 68.3932 66.6386 69.8212 68.73C73.3493 66.55 76.9509 70.3676 73.9802 73.5047C75.6006 75.2504 75.2571 77.4087 73.3213 78.6899C74.7472 79.8198 74.7191 82.1316 73.2673 83.2269C74.5808 85.1671 74.5981 87.3967 72.3058 88.3257C73.2046 89.7711 71.554 92.2643 70.1129 92.1649C69.4907 94.1288 66.4249 94.4637 64.7333 93.5433C63.1691 94.5134 60.194 94.2952 59.7209 92.031C57.9709 91.6702 57.5388 89.4146 58.2626 88.0557C57.474 87.3578 56.5363 86.0097 57.3011 84.8905C55.3372 85.3377 53.1076 85.2665 51.0465 84.8149" stroke="black" stroke-width="1.71241" stroke-linecap="round" stroke-linejoin="round"/>
<path d="M25.7913 26.8496L28.2219 29.8959C27.7034 30.7752 26.8024 31.4018 25.5213 31.7756C24.7068 30.8746 23.9074 29.9024 23.1231 28.8589C23.9722 28.0811 24.8623 27.4113 25.7913 26.8496Z" fill="#FFBDBD" stroke="#FF8080" stroke-width="1.71241" stroke-linecap="round" stroke-linejoin="round"/>
<path d="M20.182 38.9365C21.0613 39.1591 21.7203 39.8396 22.1589 40.9782L24.9243 38.9797C24.8876 38.2949 24.5419 37.6337 23.8873 36.9921C23.224 36.3504 22.4073 35.9442 21.4351 35.7714C20.4629 35.5921 19.7866 35.0109 19.4042 34.0322C19.173 33.2328 18.5551 32.71 17.5462 32.4658C16.4378 33.0556 15.6773 33.8961 15.2668 34.9828C16.2391 35.1189 16.9672 35.7757 17.449 36.9489C17.853 37.9362 18.7625 38.5973 20.182 38.9365Z" fill="#A3E9EE"/>
<path d="M23.8871 36.9921C24.5418 37.6337 24.8874 38.2949 24.9242 38.9797L22.1587 40.9782C21.7201 39.8396 21.0612 39.1591 20.1819 38.9365C18.7624 38.5973 17.8528 37.9362 17.4488 36.9489C16.967 35.7757 16.239 35.1189 15.2667 34.9828C15.6772 33.8961 16.4377 33.0556 17.5461 32.4658C18.555 32.71 19.1729 33.2328 19.4041 34.0322C19.7865 35.0109 20.4627 35.5921 21.435 35.7714C22.4072 35.9442 23.2239 36.3504 23.8871 36.9921Z" stroke="#53C1DB" stroke-width="1.71241" stroke-linecap="round" stroke-linejoin="round"/>
<path d="M39.5069 37.4349L36.3094 36.668C36.3158 38.0874 36.1322 39.3254 35.7584 40.384L38.6535 41.0322C39.576 40.3343 39.8591 39.1353 39.5069 37.4349Z" fill="#D2FC95"/>
<path d="M36.3099 36.668L39.5074 37.4349C39.8596 39.1353 39.5766 40.3343 38.654 41.0322L35.759 40.384C36.1327 39.3254 36.3164 38.0874 36.3099 36.668Z" stroke="#9CE061" stroke-width="1.71241" stroke-linecap="round" stroke-linejoin="round"/>
<path d="M26.1872 51.2512C27.477 51.4607 28.5681 51.882 29.4604 52.5151L31.3832 50.2249C30.5557 48.6694 29.3199 47.7771 27.6779 47.5459C26.9499 48.7061 26.4529 49.9397 26.1872 51.2512Z" fill="#FFBDBD"/>
<path d="M26.1877 51.2512C27.4776 51.4607 28.5686 51.882 29.4609 52.5151L31.3838 50.2249C30.5563 48.6694 29.3205 47.7771 27.6785 47.5459C26.9504 48.7061 26.4535 49.9397 26.1877 51.2512Z" stroke="#FF8080" stroke-width="1.71241" stroke-linecap="round" stroke-linejoin="round"/>
<path d="M16.9404 60.4009C18.1135 59.6167 19.4141 58.9318 20.8401 58.3485L19.5114 55.7559C18.3512 55.8639 17.1629 56.2096 15.9465 56.7929C15.9617 58.1691 16.2922 59.3704 16.9404 60.4009Z" fill="#FFE885"/>
<path d="M19.5122 55.7559L20.8409 58.3485C19.4149 58.9318 18.1143 59.6167 16.9412 60.4009C16.293 59.3704 15.9625 58.1691 15.9473 56.7929C17.1637 56.2096 18.352 55.8639 19.5122 55.7559Z" stroke="#FFB239" stroke-width="1.71241" stroke-linecap="round" stroke-linejoin="round"/>
<path d="M20.0267 47.6214C18.7585 46.0162 17.3844 45.8174 15.9001 47.0273C15.0424 47.7835 14.1652 47.7295 13.2643 46.8653C11.9313 45.7353 10.5313 46.0119 9.06213 47.6971L10.002 51.1539C11.1405 49.7279 12.3288 49.4514 13.5668 50.3221C14.4807 51.3008 15.3924 51.3008 16.2998 50.3221C17.3866 49.4082 18.5943 49.3974 19.9187 50.2897C20.2363 49.5983 20.2708 48.7082 20.0267 47.6214Z" fill="#D2FC95"/>
<path d="M15.8996 47.0273C17.3839 45.8174 18.758 46.0162 20.0262 47.6214C20.2703 48.7082 20.2358 49.5983 19.9182 50.2897C18.5938 49.3974 17.3861 49.4082 16.2993 50.3221C15.3919 51.3008 14.4802 51.3008 13.5663 50.3221C12.3283 49.4514 11.14 49.7279 10.0015 51.1539L9.06165 47.6971C10.5308 46.0119 11.9308 45.7353 13.2638 46.8653C14.1648 47.7295 15.0419 47.7835 15.8996 47.0273Z" stroke="#9CE061" stroke-width="1.71241" stroke-linecap="round" stroke-linejoin="round"/>
<path d="M35.0567 56.9775C33.3542 59.0883 33.0107 61.2856 34.0305 63.5671C35.007 65.5288 36.6447 66.447 38.9456 66.3217C41.0218 66.1359 42.4802 65.2717 43.3206 63.7291C44.3857 61.8732 44.349 60.0735 43.2126 58.3278C42.3398 57.0121 41.0283 56.1587 39.2805 55.7676C37.8978 55.4781 36.4891 55.88 35.0567 56.9775Z" fill="#FFD677" stroke="black" stroke-width="1.71241" stroke-linecap="round" stroke-linejoin="round"/>
<path d="M39.2662 49.6816C42.0922 52.5075 46.2468 57.3686 46.2468 57.3686L44.445 60.1103C44.445 60.1103 35.7533 57.2131 34.1415 56.243C33.6446 55.9448 33.8693 53.7239 34.9668 52.0516C36.0709 50.3686 38.402 48.8173 39.2662 49.6816Z" fill="#B1D6E8" stroke="black" stroke-width="1.71241" stroke-linecap="round" stroke-linejoin="round"/>
<path d="M71.3111 24.7422C75.6169 32.224 76.1571 39.358 72.9314 46.142C70.2805 51.4417 66.1042 54.6824 60.4005 55.8642" stroke="black" stroke-width="1.71241" stroke-linecap="round" stroke-linejoin="round"/>
<path d="M73.2112 10.591C73.2112 10.591 64.7702 14.6009 61.6223 16.4524C60.2201 17.2756 61.4992 21.5534 65.6106 23.8176C70.3723 26.4383 75.0217 26.3692 75.0822 24.2562C75.2075 19.7429 75.0822 12.0493 75.0822 12.0493C75.0541 10.5089 74.4298 10.0228 73.2134 10.591H73.2112Z" fill="#B1D6E8" stroke="black" stroke-width="1.71241" stroke-linecap="round" stroke-linejoin="round"/>
<path d="M76.6579 8.77717C76.0897 8.21544 75.4091 7.93457 74.6162 7.93457C73.8233 7.93457 73.1363 8.21544 72.5745 8.77717C72.0063 9.34538 71.7211 10.0303 71.7211 10.8296C71.7211 11.629 72.0063 12.3031 72.5745 12.8713C73.1363 13.4395 73.8168 13.7247 74.6162 13.7247C75.4156 13.7247 76.0897 13.4395 76.6579 12.8713C77.2261 12.3031 77.5113 11.6225 77.5113 10.8296C77.5113 10.0303 77.2261 9.34538 76.6579 8.77717Z" fill="#FF9797"/>
<path d="M77.511 10.8296C77.511 11.6225 77.2259 12.3031 76.6576 12.8713C76.0894 13.4395 75.4089 13.7247 74.616 13.7247C73.8231 13.7247 73.136 13.4395 72.5743 12.8713C72.0061 12.3031 71.7209 11.6225 71.7209 10.8296C71.7209 10.0367 72.0061 9.34538 72.5743 8.77717C73.136 8.21544 73.8166 7.93457 74.616 7.93457C75.4153 7.93457 76.0894 8.21544 76.6576 8.77717C77.2259 9.34538 77.511 10.0303 77.511 10.8296Z" stroke="black" stroke-width="1.71241" stroke-linecap="round" stroke-linejoin="round"/>
<path d="M63.7383 67.9644C62.3772 63.8961 62.7056 59.6832 64.7213 55.3254C60.1043 56.2825 56.0793 56.0773 52.6441 54.7097C49.2024 53.3421 46.7092 53.9427 45.1688 56.5137C43.6348 59.6399 44.97 62.4659 49.1765 64.9937C53.1799 67.407 58.0345 68.3965 63.7383 67.9644Z" fill="#FFD677"/>
<path d="M63.8854 67.9665C58.1817 68.3986 53.1801 67.4048 49.1767 64.9937C44.9702 62.4659 43.635 59.6399 45.1689 56.5137C46.7094 53.9427 49.2026 53.3421 52.6443 54.7097C56.0795 56.0773 60.1045 56.2825 64.7215 55.3254" stroke="black" stroke-width="1.71241" stroke-linecap="round" stroke-linejoin="round"/>
<path d="M53.0643 35.9766C51.1998 35.9766 49.7198 36.4367 48.6245 37.3593C47.5874 38.2235 47.1813 39.2281 47.4038 40.3732C47.5766 41.3649 48.2593 42.2982 49.534 42.551C50.8152 42.8038 51.9862 42.4343 52.9649 41.3476C53.9436 42.4343 55.1816 42.8405 56.4779 42.5877C57.7375 42.3349 58.4872 41.5982 58.7248 40.3732C58.9474 39.2281 58.5455 38.2235 57.5149 37.3593C56.4131 36.4367 54.9288 35.9766 53.0643 35.9766Z" fill="white" stroke="black" stroke-width="1.71241" stroke-linecap="round" stroke-linejoin="round"/>
</svg>
