<svg width="102" height="102" viewBox="0 0 102 102" fill="none" xmlns="http://www.w3.org/2000/svg">
<path d="M41.4113 78.5955C40.1829 81.8081 38.4432 83.8438 35.6037 83.1074C33.835 82.6507 33.208 80.9334 34.0955 78.9782C35.1535 76.6466 35.6069 74.7653 36.1279 73.3021C38.7616 65.912 41.2184 65.8059 43.6495 65.9731C48.5342 66.3108 53.0202 64.0918 61.8538 64.7511C63.7575 64.8926 65.2689 66.4619 65.2464 68.3721C65.2303 69.874 64.256 74.9165 62.7092 77.1129" fill="#FFCCD3"/>
<path d="M41.4113 78.5955C40.1829 81.8081 38.4432 83.8438 35.6037 83.1074C33.835 82.6507 33.208 80.9334 34.0955 78.9782C35.1535 76.6466 35.6069 74.7653 36.1279 73.3021C38.7616 65.912 41.2184 65.8059 43.6495 65.9731C48.5342 66.3108 53.0202 64.0918 61.8538 64.7511C63.7575 64.8926 65.2689 66.4619 65.2464 68.3721C65.2303 69.874 64.256 74.9165 62.7092 77.1129" stroke="black" stroke-width="1.72881" stroke-linecap="round" stroke-linejoin="round"/>
<path d="M67.0158 25.258C72.489 22.5985 74.3927 21.2028 75.5793 19.6592C76.3382 18.6719 76.4604 16.9546 75.9909 15.9191C74.4988 12.6325 69.5691 13.1856 67.72 13.5908C65.4819 14.0828 63.4142 14.964 61.5812 15.9995C61.8963 15.0058 61.5265 12.8158 59.6099 12.0247C56.1562 10.5936 51.6349 12.3784 49.7247 13.7645C47.6956 15.2373 44.1165 17.3212 40.5084 23.5697L54.1142 28.7987L67.0126 25.258H67.0158Z" fill="#FFCCD3"/>
<path d="M40.5084 23.5697C44.1165 17.3212 47.6988 15.2373 49.7247 13.7645C51.6349 12.3784 56.153 10.5936 59.6099 12.0247C61.5265 12.819 61.8931 15.0058 61.5812 15.9995" stroke="black" stroke-width="1.72881" stroke-linecap="round" stroke-linejoin="round"/>
<path d="M54.1145 21.9335C56.2626 19.6309 61.2824 15.0129 67.7203 13.5947C69.5694 13.1863 74.4991 12.6364 75.9912 15.923C76.4607 16.9553 76.3385 18.6726 75.5796 19.6631C74.3898 21.2067 72.4893 22.6056 67.0161 25.2619" stroke="black" stroke-width="1.72881" stroke-linecap="round" stroke-linejoin="round"/>
<path d="M61.8738 24.4096C74.8429 25.3197 82.9788 34.501 82.9788 45.2293C82.9788 60.8231 68.4726 68.165 50.1589 68.165C24.9057 68.165 17.8793 57.5718 17.8793 45.4286C17.8793 31.9123 30.6747 23.3516 44.2709 23.3516" fill="#FFCCD3"/>
<path d="M61.8738 24.4096C74.8429 25.3197 82.9788 34.5011 82.9788 45.2293C82.9788 60.8231 68.4726 68.165 50.1589 68.165C24.9057 68.165 17.8793 57.5718 17.8793 45.4286C17.8793 31.9123 30.6747 23.3516 44.2709 23.3516" stroke="black" stroke-width="1.72881" stroke-linecap="round" stroke-linejoin="round"/>
<path d="M48.6154 47.1139C47.1361 47.2811 45.4382 46.5318 45.0813 45.0879C44.5764 46.3775 43.2965 47.0432 42.1196 47.0946C41.8044 48.516 41.5182 54.1663 45.1552 54.4686C48.9498 54.7838 48.7858 49.5676 48.6154 47.1139Z" fill="white"/>
<path d="M42.1196 47.0947C41.8044 48.5161 41.5182 54.1665 45.1552 54.4688C48.9498 54.7839 48.7858 49.5677 48.6154 47.114" stroke="black" stroke-width="1.72881" stroke-miterlimit="10"/>
<path d="M40.1096 46.3308C41.1419 47.6557 44.2258 47.273 45.0779 45.083C45.5796 47.1122 48.7278 47.7683 50.1974 46.4433" fill="#FFCCD3"/>
<path d="M40.1096 46.3308C41.1419 47.6557 44.2258 47.273 45.0779 45.083C45.5796 47.1122 48.7278 47.7683 50.1974 46.4433" stroke="black" stroke-width="1.72881" stroke-linecap="round" stroke-linejoin="round"/>
<path d="M39.9135 41.5005C40.5937 41.5005 41.1451 40.949 41.1451 40.2688C41.1451 39.5886 40.5937 39.0371 39.9135 39.0371C39.2332 39.0371 38.6818 39.5886 38.6818 40.2688C38.6818 40.949 39.2332 41.5005 39.9135 41.5005Z" fill="black"/>
<path d="M50.5768 41.564C51.257 41.564 51.8084 41.0125 51.8084 40.3323C51.8084 39.652 51.257 39.1006 50.5768 39.1006C49.8965 39.1006 49.3451 39.652 49.3451 40.3323C49.3451 41.0125 49.8965 41.564 50.5768 41.564Z" fill="black"/>
<path d="M60.7318 68.5324C61.0952 63.6506 61.584 54.4789 63.835 49.3657C65.9638 44.5354 68.7583 43.8215 70.4176 43.9405C72.077 44.0594 75.238 45.4648 73.0738 51.8483C71.7972 55.6174 68.9898 62.673 68.0637 66.9598C67.5299 69.4425 67.3562 72.7838 67.562 76.1605C67.8193 80.3861 65.6873 85.4222 59.3169 86.2037C57.6704 86.4063 50.3868 87.1524 45.1933 86.194C40.3472 85.3 39.6398 83.4959 38.868 81.9362C37.6878 79.55 37.3598 76.0929 39.3761 71.3656" fill="#FFCCD3"/>
<path d="M60.7318 68.5324C61.0952 63.6506 61.584 54.4789 63.835 49.3657C65.9638 44.5354 68.7583 43.8215 70.4176 43.9405C72.077 44.0594 75.238 45.4648 73.0738 51.8483C71.7972 55.6174 68.9898 62.673 68.0637 66.9598C67.5299 69.4425 67.3562 72.7838 67.562 76.1605C67.8193 80.3861 65.6873 85.4222 59.3169 86.2037C57.6704 86.4063 50.3868 87.1524 45.1933 86.194C40.3472 85.3 39.6398 83.4959 38.868 81.9362C37.6878 79.55 37.3598 76.0929 39.3761 71.3656" stroke="black" stroke-width="1.72881" stroke-linecap="round" stroke-linejoin="round"/>
<path d="M52.8919 77.3702C52.8919 79.3994 51.0461 80.6021 48.1069 80.4992C45.1677 80.3963 44.1676 79.245 44.1676 77.3702C44.1676 75.4953 45.2127 74.2315 48.3481 74.1318C51.4834 74.0321 52.8887 75.4953 52.8887 77.3702H52.8919Z" fill="white"/>
<path d="M51.0523 75.7393C49.9783 76.5304 46.9265 78.4084 45.8075 78.8362L51.0523 75.7393Z" fill="#FFCCD3"/>
<path d="M51.0523 75.7393C49.9783 76.5304 46.9265 78.4084 45.8075 78.8362" stroke="black" stroke-width="1.72881" stroke-linecap="round" stroke-linejoin="round"/>
<path d="M46.1038 75.4785C46.5315 75.9898 48.5606 78.3085 50.7184 79.0353L46.1038 75.4785Z" fill="#FFCCD3"/>
<path d="M46.1038 75.4785C46.5315 75.9898 48.5606 78.3085 50.7184 79.0353" stroke="black" stroke-width="1.72881" stroke-linecap="round" stroke-linejoin="round"/>
<path d="M50.5348 85.4739C49.5701 86.0463 47.4348 87.3584 48.1455 89.2687C48.6343 90.584 50.3772 90.8444 52.4096 90.0662C53.9113 89.4906 55.8504 88.7541 58.0853 87.3198C59.1916 86.6091 59.7768 85.252 58.8861 84.0493C58.1368 83.0363 56.2845 82.0586 50.538 85.4739H50.5348Z" fill="#FFCCD3" stroke="black" stroke-width="1.72881" stroke-linecap="round" stroke-linejoin="round"/>
<path d="M40.64 82.3436C42.7882 81.8258 44.142 83.8422 43.5406 85.3955C42.8557 87.1674 38.9325 88.4441 37.1156 88.6467C35.5077 88.8268 34.305 88.457 34.0253 87.0677C33.7583 85.7492 34.5591 84.7201 36.6557 83.8937C38.225 83.2762 39.1672 82.6974 40.64 82.3404V82.3436Z" fill="#FFCCD3" stroke="black" stroke-width="1.72881" stroke-linecap="round" stroke-linejoin="round"/>
</svg>
