<svg width="102" height="102" viewBox="0 0 102 102" fill="none" xmlns="http://www.w3.org/2000/svg">
<path d="M41.2225 20.7843C40.1115 17.7999 36.8025 15.6644 33.3237 18.0412C29.845 20.4179 30.5806 24.6711 33.8479 26.3181" fill="#FFDD70"/>
<path d="M41.2225 20.7843C40.1115 17.7999 36.8025 15.6644 33.3237 18.0412C29.845 20.4179 30.5806 24.6711 33.8479 26.3181" stroke="black" stroke-width="1.81525" stroke-linecap="round" stroke-linejoin="round"/>
<path d="M35.641 21.1895C36.3915 21.803 37.3476 22.9199 37.8033 23.873L35.641 21.1895Z" fill="#FFDD70"/>
<path d="M35.641 21.1895C36.3915 21.803 37.3476 22.9199 37.8033 23.873" stroke="black" stroke-width="1.81525" stroke-linecap="round" stroke-linejoin="round"/>
<path d="M27.8491 34.4939C25.5349 31.6138 20.6801 32.8617 20.2333 37.237C19.7865 41.6123 22.896 42.3092 24.7664 41.7523" fill="#FFDD70"/>
<path d="M27.8491 34.4939C25.5349 31.6138 20.6801 32.8617 20.2333 37.237C19.7865 41.6123 22.896 42.3092 24.7664 41.7523" stroke="black" stroke-width="1.81525" stroke-linecap="round" stroke-linejoin="round"/>
<path d="M23.4469 37.547C24.0009 37.4398 25.7105 37.3415 27.3248 37.6185L23.4469 37.547Z" fill="#FFDD70"/>
<path d="M23.4469 37.547C24.0009 37.4398 25.7105 37.3415 27.3248 37.6185" stroke="black" stroke-width="1.81525" stroke-linecap="round" stroke-linejoin="round"/>
<path d="M22.1071 53.0487C20.0222 51.8752 16.1622 52.736 15.9567 56.4233C15.7512 60.1105 18.4019 61.1768 20.7549 59.4225" fill="#FFDD70"/>
<path d="M22.1071 53.0487C20.0222 51.8752 16.1622 52.736 15.9567 56.4233C15.7512 60.1105 18.4019 61.1768 20.7549 59.4225" stroke="black" stroke-width="1.81525" stroke-linecap="round" stroke-linejoin="round"/>
<path d="M19.0275 56.5419C19.8227 56.1993 21.2225 55.6871 22.5747 55.6543L19.0275 56.5419Z" fill="#FFDD70"/>
<path d="M19.0275 56.5419C19.8227 56.1993 21.2225 55.6871 22.5747 55.6543" stroke="black" stroke-width="1.81525" stroke-linecap="round" stroke-linejoin="round"/>
<path d="M16.8978 68.4026C14.4763 67.2053 10.4436 68.1346 10.1338 70.9939C9.82408 73.8531 11.9596 74.6811 14.1308 73.3706" fill="#FFDD70"/>
<path d="M16.8978 68.4026C14.4763 67.2053 10.4436 68.1346 10.1338 70.9939C9.82408 73.8531 11.9596 74.6811 14.1308 73.3706" stroke="black" stroke-width="1.81525" stroke-linecap="round" stroke-linejoin="round"/>
<path d="M12.4806 70.8029C13.112 70.6778 14.5565 70.6361 15.9415 70.9339L12.4806 70.8029Z" fill="#FFDD70"/>
<path d="M12.4806 70.8029C13.112 70.6778 14.5565 70.6361 15.9415 70.9339" stroke="black" stroke-width="1.81525" stroke-linecap="round" stroke-linejoin="round"/>
<path d="M63.5012 66.2668C65.9643 69.2423 70.012 69.9035 72.2339 68.2743C74.1787 66.8476 73.8124 62.389 72.4155 59.8037C74.423 57.2036 79.4326 50.7732 79.1616 40.0748C78.7834 25.2036 67.528 16.9773 55.6739 17.1977C43.9956 17.4121 34.4141 23.0145 28.2458 33.7904C22.3367 44.1105 22.5541 55.1515 19.9569 61.9333C17.3598 68.7151 15.1319 70.8119 12.4901 75.4552C9.84823 80.0985 11.6263 84.2862 18.4082 84.8789C25.193 85.4716 35.7544 83.3778 42.9472 82.0107C50.1401 80.6436 57.7439 79.2348 62.3426 78.7315C66.9412 78.2281 70.3158 76.4857 70.4677 73.7843C70.5689 71.9735 69.6546 69.8886 67.3612 68.8461" fill="#90EBA5"/>
<path d="M63.5012 66.2668C65.9643 69.2423 70.012 69.9035 72.2339 68.2743C74.1787 66.8476 73.8124 62.389 72.4155 59.8037C74.423 57.2036 79.4326 50.7732 79.1616 40.0748C78.7834 25.2036 67.528 16.9773 55.6739 17.1977C43.9956 17.4121 34.4141 23.0145 28.2458 33.7904C22.3367 44.1105 22.5541 55.1514 19.9569 61.9333C17.3598 68.7151 15.1319 70.8119 12.4901 75.4552C9.84823 80.0985 11.6263 84.2862 18.4082 84.8789C25.193 85.4716 35.7544 83.3778 42.9472 82.0107C50.1401 80.6436 57.7439 79.2348 62.3426 78.7315C66.9412 78.2281 70.3158 76.4857 70.4677 73.7843C70.5689 71.9735 69.6546 69.8886 67.3612 68.8461" stroke="black" stroke-width="1.81525" stroke-linecap="round" stroke-linejoin="round"/>
<path d="M50.947 36.7068C54.4466 36.0516 57.9969 31.8997 57.6395 27.7388C57.4429 25.4395 55.224 24.3047 53.428 25.6867C51.6827 27.03 52.4183 29.5229 54.5092 30.0888C57.9731 31.024 61.9701 29.4812 63.9388 27.9563" stroke="black" stroke-width="1.72881" stroke-linecap="round" stroke-linejoin="round"/>
<path d="M57.2493 37.5762C57.6008 38.2404 57.3506 39.0058 56.7162 39.3424C56.0609 39.6909 55.3104 39.4705 54.953 38.7914C54.6134 38.151 54.8309 37.3707 55.4861 37.0252C56.1503 36.6737 56.9098 36.9358 57.2493 37.5762Z" fill="black"/>
<path d="M64.6954 33.0101C65.0468 33.6743 64.7966 34.4397 64.1622 34.7763C63.5278 35.1128 62.7564 34.9044 62.399 34.2253C62.0595 33.5849 62.2769 32.8046 62.9322 32.4591C63.5874 32.1136 64.3558 32.3697 64.6954 33.0101Z" fill="black"/>
<path d="M59.37 42.9615C60.5733 42.9615 62.4318 41.3085 62.6016 39.6555C63.4474 39.8044 65.3804 39.7865 66.0952 38.5088" fill="#90EBA5"/>
<path d="M59.37 42.9615C60.5733 42.9615 62.4318 41.3085 62.6016 39.6555C63.4474 39.8044 65.3804 39.7865 66.0952 38.5088" stroke="black" stroke-width="1.72881" stroke-linecap="round" stroke-linejoin="round"/>
<path d="M80.8056 26.1244C81.0856 26.7588 82.822 29.8593 83.2777 30.6278C83.7632 31.4498 84.4184 29.356 84.6418 28.7961C85.3715 29.7313 86.4735 30.2882 87.5964 30.2555C89.4281 30.1989 92.1772 28.4982 92.1772 25.0016C92.1772 21.5049 89.1482 19.0537 86.4259 19.3367C84.1355 19.5719 81.6843 21.9368 82.545 25.5258C81.723 25.3947 80.5704 25.6628 80.8027 26.1274L80.8056 26.1244Z" fill="white" stroke="black" stroke-width="1.72881" stroke-linecap="round" stroke-linejoin="round"/>
</svg>
