<svg width="102" height="102" viewBox="0 0 102 102" fill="none" xmlns="http://www.w3.org/2000/svg">
<path d="M37.1836 66.7344C31.2461 68.6913 25.0759 70.9693 23.6212 76.0404C22.1966 81.0015 26.1147 85.6373 27.8367 86.8959C30.3496 88.7321 32.6211 88.5468 34.2051 87.6761C35.7892 86.8054 36.5844 84.2989 35.0694 81.7278C33.6664 79.3507 31.7978 77.9994 36.3603 76.7429" fill="white"/>
<path d="M37.1836 66.7344C31.2461 68.6913 25.0759 70.9693 23.6212 76.0404C22.1966 81.0015 26.1147 85.6373 27.8367 86.8959C30.3496 88.7321 32.6211 88.5468 34.2051 87.6761C35.7892 86.8054 36.5844 84.2989 35.0694 81.7278C33.6664 79.3507 31.7978 77.9994 36.3603 76.7429" stroke="black" stroke-width="1.72881" stroke-linecap="round" stroke-linejoin="round"/>
<path d="M93.0885 57.0703L92.9592 57.2858C92.9527 57.1953 92.9441 57.1026 92.929 57.0121C92.6359 55.1824 90.9743 55.0918 90.1165 55.3418L89.2415 55.538C89.3213 51.8914 88.2114 50.1608 87.0993 49.8591C85.8235 49.5143 84.6489 50.2018 84.3687 51.2901C84.0885 52.3785 84.3321 54.1134 84.3213 55.9647C84.3105 57.816 83.7976 58.5767 82.9614 59.4086C82.3321 60.0336 70.052 65.2276 62.8839 67.5357L34.4918 67.2017V76.3697C34.1104 80.2749 33.8151 84.1154 33.9746 89.0141C34.0328 89.0335 34.0953 89.0507 34.1535 89.0701C41.2095 90.9214 57.3603 91.0313 65.496 89.6779C65.6296 89.652 65.7675 89.624 65.9076 89.596C65.9464 86.0055 66.7697 80.527 68.0283 78.6262C69.6835 76.1284 84.345 70.6413 88.5303 68.3418C92.4613 66.8612 92.6876 64.8095 92.6338 62.9862L92.5454 62.8418C92.7351 62.8677 92.9355 62.8677 93.151 62.8289C94.7544 62.5444 95.804 60.6155 95.8471 58.9668C95.8902 57.2836 94.2717 56.5207 93.0863 57.066L93.0885 57.0703Z" fill="white"/>
<path d="M34.7482 76.3867C34.3021 79.6647 33.8172 84.1194 33.9745 89.0181" stroke="black" stroke-width="1.72881" stroke-linecap="round" stroke-linejoin="round"/>
<path d="M92.8967 57.0854C94.0713 56.5165 95.7049 57.2449 95.6963 58.9281C95.6877 60.5768 94.6791 62.5272 93.0821 62.8462C91.4873 63.1652 90.5778 61.4949 90.7976 60.788" stroke="black" stroke-width="1.72881" stroke-linecap="round" stroke-linejoin="round"/>
<path d="M89.8903 55.4215C90.7437 55.1521 92.4053 55.2082 92.7372 57.0314C93.0476 58.7362 91.9786 60.3375 90.664 60.9107" stroke="black" stroke-width="1.72881" stroke-linecap="round" stroke-linejoin="round"/>
<path d="M62.8839 67.5377C70.0498 65.2296 82.332 60.0356 82.9613 59.4106C83.7997 58.5766 84.3105 57.8158 84.3212 55.9667C84.3299 54.1154 84.0885 52.3805 84.3686 51.2921C84.6488 50.2059 85.8255 49.5184 87.0992 49.8611C88.3751 50.2059 89.6445 52.4236 89.1294 57.249" stroke="black" stroke-width="1.72881" stroke-linecap="round" stroke-linejoin="round"/>
<path d="M85.5649 59.2016C88.3644 58.4215 89.9506 58.5228 90.5282 59.9775C91.1058 61.4301 89.636 63.0508 87.1963 63.3999" stroke="black" stroke-width="1.72881" stroke-linecap="round" stroke-linejoin="round"/>
<path d="M92.3558 62.9326C92.3903 64.73 91.901 66.7602 88.0411 68.2128C83.8558 70.5102 69.5477 76.1502 67.968 78.4972C66.6792 80.4088 65.9271 86.1372 65.9077 89.7234" stroke="black" stroke-width="1.72881" stroke-linecap="round" stroke-linejoin="round"/>
<path d="M41.3496 14.5495C43.175 12.4676 43.2892 11.3146 46.966 12.6594C52.1944 14.5732 60.6189 18.2499 69.4658 26.2455C78.3106 34.239 80.5239 41.8532 79.9205 50.0342C79.3171 58.2152 74.746 65.4695 63.4615 69.3746C52.9551 73.0082 38.7505 73.1332 27.6988 68.5815C16.117 63.8143 13.1321 52.4178 15.3821 42.9179C17.5696 33.6851 24.3475 27.696 29.007 24.3835C33.6665 21.071 39.4919 16.6723 41.3496 14.5495Z" fill="#FFCDCD" stroke="black" stroke-width="1.72881" stroke-linecap="round" stroke-linejoin="round"/>
<path d="M23.8949 53.9092C23.8388 56.2325 26.9466 57.4286 30.1039 57.4307C34.0047 57.4307 36.7956 56.629 36.8711 54.1721C36.94 51.9653 34.3194 50.8532 30.8065 50.5256C27.2935 50.198 23.9509 51.5687 23.8949 53.9114V53.9092Z" fill="#F58C8C"/>
<path d="M55.384 54.3944C55.0628 56.709 57.787 57.9633 60.7244 58.168C64.0628 58.4008 67.7007 57.3297 67.7028 54.8685C67.7072 52.6573 65.0994 51.3297 61.8085 51.1444C58.5197 50.959 55.6986 52.1077 55.3818 54.3944H55.384Z" fill="#F58C8C"/>
<path d="M23.4661 43.9004C24.0458 49.4176 38.5005 49.9909 40.2397 44.5448" stroke="black" stroke-width="1.72881" stroke-linecap="round" stroke-linejoin="round"/>
<path d="M52.5263 44.616C53.8884 50.6354 67.7892 49.991 69.5801 44.5449" stroke="black" stroke-width="1.72881" stroke-linecap="round" stroke-linejoin="round"/>
<path d="M42.1363 55.2971C44.5005 55.9415 48.2267 55.3682 49.731 53.7217" stroke="black" stroke-width="1.72881" stroke-linecap="round" stroke-linejoin="round"/>
</svg>
