<svg width="102" height="102" viewBox="0 0 102 102" fill="none" xmlns="http://www.w3.org/2000/svg">
<path d="M42.551 42.5694C40.9186 40.3164 36.2626 39.4034 34.3891 41.8065C32.5077 44.2216 34.9306 46.9449 38.1519 46.4113" fill="#FFDC6C"/>
<path d="M42.551 42.5694C40.9186 40.3164 36.2626 39.4034 34.3891 41.8065C32.5077 44.2216 34.9306 46.9449 38.1519 46.4113" stroke="black" stroke-width="1.72881" stroke-linecap="round" stroke-linejoin="round"/>
<path d="M37.3217 43.2266C38.1794 43.2898 39.5272 44.0645 40.1715 44.7088" stroke="black" stroke-width="1.72881" stroke-linecap="round" stroke-linejoin="round"/>
<path d="M29.0313 56.5551C26.3278 54.8792 21.5611 56.4247 21.4504 59.9227C21.3516 63.0176 25.0551 62.654 26.5215 61.9109" fill="#FFDC6C"/>
<path d="M29.0313 56.5551C26.3278 54.8792 21.5611 56.4247 21.4504 59.9227C21.3516 63.0176 25.0551 62.654 26.5215 61.9109" stroke="black" stroke-width="1.72881" stroke-linecap="round" stroke-linejoin="round"/>
<path d="M24.6039 59.1593C25.6197 58.5388 26.9754 58.9933 27.4655 59.353" stroke="black" stroke-width="1.72881" stroke-linecap="round" stroke-linejoin="round"/>
<path d="M21.6914 70.2344C18.5057 68.2067 15.0828 70.2542 14.9959 72.6811C14.9208 74.7483 16.8101 75.6218 19.0195 74.9973" fill="#FFDC6C"/>
<path d="M21.6914 70.2344C18.5057 68.2067 15.0828 70.2542 14.9959 72.6811C14.9208 74.7483 16.8101 75.6218 19.0195 74.9973" stroke="black" stroke-width="1.72881" stroke-linecap="round" stroke-linejoin="round"/>
<path d="M18.2486 72.0805C19.2683 71.9738 20.2288 72.543 20.6636 72.8513" stroke="black" stroke-width="1.72881" stroke-linecap="round" stroke-linejoin="round"/>
<path d="M53.5126 43.8749C53.5126 43.8749 51.2992 28.7048 51.1767 26.9814C51.1767 26.9814 60.1726 35.3412 62.1211 37.2463" fill="#91A7ED"/>
<path d="M62.12 37.2448C61.5469 36.6835 60.3612 35.561 58.9738 34.2606C57.7802 33.7705 57.1794 34.893 57.1794 34.893C56.2229 34.0906 55.1281 34.4859 54.4759 35.4226C52.8752 34.7389 52.3811 36.0195 52.3811 36.0195C52.9503 40.0472 53.5115 43.8733 53.5115 43.8733L62.12 37.2448Z" fill="#FFFEF1"/>
<path d="M53.5126 43.8749C53.5126 43.8749 51.2992 28.7048 51.1767 26.9814C51.1767 26.9814 60.1726 35.3412 62.1211 37.2463" stroke="black" stroke-width="1.72881" stroke-linecap="round" stroke-linejoin="round"/>
<path d="M52.3867 36.0234C52.3867 36.0234 52.8808 34.7428 54.4815 35.4266C55.1337 34.4898 56.2285 34.0945 57.185 34.8969C57.185 34.8969 57.7858 33.7744 58.9795 34.2645" stroke="black" stroke-width="1.72881" stroke-linecap="round" stroke-linejoin="round"/>
<path d="M49.011 28.0083C48.5012 27.862 47.0822 27.2336 47.0308 26.8186C46.9795 26.4035 48.4577 25.5419 48.8964 25.3087C48.7897 24.6683 48.8253 23.2217 49.2205 23.032C49.7897 22.7553 50.7897 23.8383 51.2679 24.2454C51.9556 24.0438 52.9517 23.6723 53.422 24.0913C53.8924 24.5142 53.5327 25.1506 53.1098 26.0676C53.8845 26.7711 54.5129 27.5182 54.1611 28.0636C53.8133 28.6091 52.5841 28.4549 51.6869 28.2257C51.4102 28.6565 50.6869 30.3166 50.0782 30.2217C49.5367 30.1348 49.1929 28.6051 49.011 28.0083Z" fill="#FFFEF1" stroke="black" stroke-width="1.72881" stroke-linecap="round" stroke-linejoin="round"/>
<path d="M37.1184 90.3826C31.162 91.0269 22.1147 91.0309 16.9963 90.0862C12.7434 89.3036 11.6209 85.7186 13.6287 82.1889C15.2453 79.343 18.5931 75.256 20.9685 70.6868C28.0316 57.0978 35.8615 41.6471 53.1694 38.0661C69.7817 34.6273 82.7933 43.3862 82.2597 60.5998C81.9396 70.9675 69.841 84.3707 66.5723 88.3273C65.4142 89.7265 64.2957 90.7107 62.4143 90.7977C60.7582 90.8728 59.1772 90.3154 58.2167 88.4735C56.9124 91.774 51.5054 92.0625 50.4185 88.6672C49.6043 91.7423 44.8415 92.5447 43.553 89.5842C42.7823 91.853 37.7271 92.7384 36.6125 89.434" fill="#90EBA5"/>
<path d="M37.1184 90.3826C31.162 91.0269 22.1147 91.0309 16.9963 90.0862C12.7434 89.3036 11.6209 85.7186 13.6287 82.1889C15.2453 79.343 18.5931 75.256 20.9685 70.6868C28.0316 57.0978 35.8615 41.6471 53.1694 38.0661C69.7817 34.6273 82.7933 43.3862 82.2597 60.5998C81.9396 70.9675 69.841 84.3707 66.5723 88.3273C65.4142 89.7265 64.2957 90.7107 62.4143 90.7977C60.7582 90.8728 59.1772 90.3154 58.2167 88.4735C56.9124 91.774 51.5054 92.0625 50.4185 88.6672C49.6043 91.7423 44.8415 92.5447 43.553 89.5842C42.7823 91.853 37.7271 92.7384 36.6125 89.434" stroke="black" stroke-width="1.72881" stroke-linecap="round" stroke-linejoin="round"/>
<path d="M57.7279 46.4548C61.1389 46.2176 66.5499 43.4271 66.1823 40.68C65.8582 38.2294 62.0045 38.1938 62.3049 40.8579C62.6053 43.518 68.2889 44.435 71.7632 44.352" stroke="black" stroke-width="1.72881" stroke-linecap="round" stroke-linejoin="round"/>
<path d="M70.5474 48.8659C71.2066 48.8659 71.741 48.3315 71.741 47.6722C71.741 47.0129 71.2066 46.4785 70.5474 46.4785C69.8881 46.4785 69.3537 47.0129 69.3537 47.6722C69.3537 48.3315 69.8881 48.8659 70.5474 48.8659Z" fill="black"/>
<path d="M62.9958 49.7477C63.655 49.7477 64.1894 49.2133 64.1894 48.554C64.1894 47.8948 63.655 47.3604 62.9958 47.3604C62.3365 47.3604 61.8021 47.8948 61.8021 48.554C61.8021 49.2133 62.3365 49.7477 62.9958 49.7477Z" fill="black"/>
<path d="M70.4843 52.4908C74.5514 50.143 83.2547 45.2536 88.8238 41.9255C87.1479 41.5382 86.7211 39.2417 88.1361 37.5895C89.468 36.0362 92.7249 35.0836 95.0252 37.5895C96.958 39.6923 95.4956 42.8465 92.6419 44.641C87.306 47.9928 76.3458 54.0561 71.8676 56.3683" fill="white"/>
<path d="M88.9065 46.9013C89.2504 45.3795 88.5231 42.8301 87.8749 42.4902L90.1871 40.8301C91.029 40.8301 92.7246 42.8736 91.8353 45.1345" fill="#FFA9AF"/>
<path d="M81.3855 51.1943C82.0179 49.8069 81.5238 46.8622 81.2234 46.3563L84.6582 44.3721C85.2234 44.9373 85.5317 47.6646 85.3261 48.9729" fill="#FFA9AF"/>
<path d="M74.1163 55.1763C74.3297 54.1447 74.306 51.2237 74.1953 50.362L77.6617 48.3857C77.962 49.0498 77.8118 52.7692 77.7249 53.2198" fill="#FFA9AF"/>
<path d="M95.4564 41.5418C94.8437 39.3521 91.5711 38.4074 90.6501 39.5576L90.3498 39.8027C89.4288 38.4509 91.0889 36.1307 93.0216 36.2611C95.8477 36.8343 96.5591 39.7987 95.4564 41.5418Z" fill="#FFA9AF"/>
<path d="M71.8665 56.3722C76.3447 54.06 87.3049 47.9927 92.6408 44.6449C95.4945 42.8543 96.9529 39.6962 95.0241 37.5934C92.7238 35.0875 89.4669 36.0401 88.135 37.5934C86.72 39.2456 87.1468 41.5421 88.8227 41.9294" stroke="black" stroke-width="1.46949" stroke-linecap="round" stroke-linejoin="round"/>
<path d="M70.4842 52.4909C74.5513 50.1431 83.2547 45.2537 88.8237 41.9256C89.7051 41.3999 90.6814 40.5501 90.551 39.9414" stroke="black" stroke-width="1.46949" stroke-linecap="round" stroke-linejoin="round"/>
<path d="M90.1898 40.8301C91.0316 40.8301 92.7273 42.8736 91.838 45.1345" stroke="black" stroke-width="1.46949" stroke-linecap="round" stroke-linejoin="round"/>
<path d="M87.8749 42.4902C88.5192 42.8302 89.2504 45.3796 88.9065 46.9013" stroke="black" stroke-width="1.46949" stroke-linecap="round" stroke-linejoin="round"/>
<path d="M84.6622 44.3721C85.2274 44.9373 85.5357 47.6646 85.3301 48.9729" stroke="black" stroke-width="1.46949" stroke-linecap="round" stroke-linejoin="round"/>
<path d="M81.2255 46.3574C81.5298 46.8634 82.0199 49.808 81.3875 51.1954" stroke="black" stroke-width="1.46949" stroke-linecap="round" stroke-linejoin="round"/>
<path d="M77.6622 48.3887C77.9626 49.0527 77.8124 52.7721 77.7255 53.2227" stroke="black" stroke-width="1.46949" stroke-linecap="round" stroke-linejoin="round"/>
<path d="M74.1953 50.3604C74.302 51.2181 74.3297 54.143 74.1163 55.1746" stroke="black" stroke-width="1.46949" stroke-linecap="round" stroke-linejoin="round"/>
<path d="M90.6475 39.5536C91.5684 38.4074 94.845 39.3481 95.4537 41.5379" stroke="black" stroke-width="1.46949" stroke-linecap="round" stroke-linejoin="round"/>
<path d="M93.0173 36.2611C91.0846 36.1307 89.4206 38.4509 90.3455 39.8027" stroke="black" stroke-width="1.46949" stroke-linecap="round" stroke-linejoin="round"/>
<path d="M67.6745 51.6604C68.7891 51.3718 69.9828 51.6169 70.5045 52.53C70.9551 53.3205 70.6626 54.2019 70.1211 54.8383C70.1211 54.8383 71.3977 55.0438 71.8483 56.2652C72.2752 57.4193 71.6112 58.8502 70.6072 59.4351" fill="#90EBA5"/>
<path d="M67.6745 51.6604C68.7891 51.3718 69.9828 51.6169 70.5045 52.53C70.9551 53.3205 70.6626 54.2019 70.1211 54.8383C70.1211 54.8383 71.3977 55.0438 71.8483 56.2652C72.2752 57.4193 71.6112 58.8502 70.6072 59.4351" stroke="black" stroke-width="1.72881" stroke-linecap="round" stroke-linejoin="round"/>
<path d="M31.0286 33.0795C31.1097 33.2756 30.4505 36.3112 30.2409 36.4194C30.0043 36.5445 26.8504 35.794 26.5529 35.5202C26.3974 35.3782 27.1986 32.8598 27.4893 32.6401C27.6482 32.5184 30.9204 32.8057 31.032 33.0795H31.0286Z" fill="#D0F5CA" stroke="#AEDEB6" stroke-width="1.72881" stroke-linecap="round" stroke-linejoin="round"/>
<path d="M14.3932 43.7043C14.1971 43.6266 12.5509 41.2333 12.6185 41.0068C12.6928 40.7499 14.951 39.4349 15.3566 39.4112C15.5662 39.3977 16.8981 41.4969 16.8575 41.862C16.8339 42.0615 14.667 43.8159 14.3932 43.7077V43.7043Z" fill="#F3F6C7" stroke="#E9D0A7" stroke-width="1.72881" stroke-linecap="round" stroke-linejoin="round"/>
<path d="M27.7063 17.8081C27.8956 17.9061 29.356 20.526 29.2681 20.7457C29.1667 20.9959 26.5705 22.5407 26.1648 22.5272C25.9553 22.5204 24.6436 20.0054 24.7214 19.6471C24.7653 19.451 27.4426 17.6729 27.7063 17.8081Z" fill="#CBDAF7" stroke="#95ADDD" stroke-width="1.72881" stroke-linecap="round" stroke-linejoin="round"/>
<path d="M48.7764 14.4696C48.604 14.3479 47.8637 11.3528 47.982 11.1432C48.1138 10.91 50.666 9.89584 51.048 10.0344C51.2846 10.1189 52.532 12.8199 52.4847 12.9788C52.4272 13.1715 49.0198 14.6352 48.7764 14.4662V14.4696Z" fill="#EAD1F1" stroke="#BFA1C7" stroke-width="1.72881" stroke-linecap="round" stroke-linejoin="round"/>
<path d="M69.1888 22.6156C69.3511 22.477 70.71 19.394 70.5275 19.2385C70.3246 19.0627 67.3296 18.4813 67.0017 18.7247C66.7989 18.8768 66.1498 21.2668 66.214 21.4223C66.2884 21.6082 68.9623 22.8082 69.1888 22.6156Z" fill="#F3F6C7" stroke="#E9D0A7" stroke-width="1.72881" stroke-linecap="round" stroke-linejoin="round"/>
<path d="M86.4355 23.3972C86.2225 23.3904 83.4979 21.6258 83.481 21.3892C83.4641 21.1222 85.4045 18.2995 85.7932 18.1846C86.0366 18.1136 89.0857 20.0066 89.1331 20.1655C89.1905 20.3582 86.7296 23.404 86.4355 23.3938V23.3972Z" fill="#D0F5CA" stroke="#AEDEB6" stroke-width="1.72881" stroke-linecap="round" stroke-linejoin="round"/>
<path d="M76.5826 31.8542C76.5894 31.621 78.4384 29.0586 78.7055 29.0383C79.0064 29.0146 81.0109 30.9821 81.0819 31.2491C81.1191 31.3843 79.2768 33.6424 79.0435 33.7067C78.8407 33.7641 76.5758 32.1787 76.5826 31.8542Z" fill="#CBDAF7" stroke="#95ADDD" stroke-width="1.72881" stroke-linecap="round" stroke-linejoin="round"/>
</svg>
