<svg width="102" height="102" viewBox="0 0 102 102" fill="none" xmlns="http://www.w3.org/2000/svg">
<path d="M21.497 34.895C19.5048 31.1743 23.5038 24.9047 28.3818 25.3442C31.2236 25.5932 32.3808 27.8491 30.7255 32.3608" fill="#FFDD70"/>
<path d="M21.497 34.895C19.5048 31.1743 23.5038 24.9047 28.3818 25.3442C31.2236 25.5932 32.3808 27.8491 30.7255 32.3608" stroke="black" stroke-width="1.72881" stroke-linecap="round" stroke-linejoin="round"/>
<path d="M26.9609 28.1572C26.2431 29.0215 25.2031 30.9258 25.2616 32.5518L26.9609 28.1572Z" fill="#FEE16E"/>
<path d="M26.9609 28.1572C26.2431 29.0215 25.2031 30.9258 25.2616 32.5518" stroke="black" stroke-width="1.72881" stroke-linecap="round" stroke-linejoin="round"/>
<path d="M44.5542 27.7617C46.3853 24.2608 49.8716 22.3565 54.0611 22.9131C57.0347 23.3086 58.3531 26.1651 55.2329 29.0948" fill="#FFDD70"/>
<path d="M44.5542 27.7617C46.3853 24.2608 49.8716 22.3565 54.0611 22.9131C57.0347 23.3086 58.3531 26.1651 55.2329 29.0948" stroke="black" stroke-width="1.72881" stroke-linecap="round" stroke-linejoin="round"/>
<path d="M52.7861 25.1689C51.7168 25.7402 50.5596 26.4727 49.4756 27.4248L52.7861 25.1689Z" fill="#FEE16E"/>
<path d="M52.7861 25.1689C51.7168 25.7402 50.5596 26.4727 49.4756 27.4248" stroke="black" stroke-width="1.72881" stroke-linecap="round" stroke-linejoin="round"/>
<path d="M69.0905 33.1373C71.1267 31.0866 76.0632 29.8121 79.2419 32.6246C81.3513 34.485 81.1755 38.3376 75.3015 38.8503" fill="#FFDD70"/>
<path d="M69.0905 33.1373C71.1267 31.0866 76.0632 29.8121 79.2419 32.6246C81.3513 34.485 81.1755 38.3376 75.3015 38.8503" stroke="black" stroke-width="1.72881" stroke-linecap="round" stroke-linejoin="round"/>
<path d="M76.6928 34.4863C75.6527 34.5303 73.4847 34.75 72.5179 35.4824L76.6928 34.4863Z" fill="#FEE16E"/>
<path d="M76.6928 34.4863C75.6527 34.5303 73.4847 34.75 72.5179 35.4824" stroke="black" stroke-width="1.72881" stroke-linecap="round" stroke-linejoin="round"/>
<path d="M84.4429 46.6881C88.8521 46.234 91.7525 47.5084 92.9536 49.691C94.4917 52.4596 93.4517 55.3307 89.7896 55.7116" fill="#FFDD70"/>
<path d="M84.4429 46.6881C88.8521 46.234 91.7525 47.5084 92.9536 49.691C94.4917 52.4596 93.4517 55.3307 89.7896 55.7116" stroke="black" stroke-width="1.72881" stroke-linecap="round" stroke-linejoin="round"/>
<path d="M90.6671 50.862C88.2648 50.7301 86.1993 51.2575 86.1993 51.2575L90.6671 50.862Z" fill="#FEE16E"/>
<path d="M90.6671 50.862C88.2648 50.7301 86.1993 51.2575 86.1993 51.2575" stroke="black" stroke-width="1.72881" stroke-linecap="round" stroke-linejoin="round"/>
<path d="M11.5225 67.8113C10.4824 64.8962 7.05469 52.1374 12.6797 42.4841C18.92 31.7907 34.4034 25.8434 48.6857 26.8541C62.9679 27.8649 75.0822 33.8415 82.8752 43.0554C91.4153 53.1482 93.0705 61.6882 93.6858 66.9031C94.1985 71.3269 93.803 75.2234 91.5178 76.8494C89.2327 78.4754 86.3908 77.5965 82.6262 75.9558C80.5315 75.0476 77.7336 73.5242 70.5412 72.5574L49.6964 74.491" fill="#90EBA5"/>
<path d="M93.6868 66.9181C93.0715 61.7032 91.4163 53.1632 82.8762 43.0704C75.1272 33.9151 63.13 27.9678 48.9943 26.8838C51.1036 28.5391 53.2277 30.9121 54.8683 34.3838C57.1388 39.1446 59.1017 45.7657 58.8234 55.0089C58.5451 64.1349 56.2892 70.1407 53.5206 74.1544L70.5275 72.5724C77.7199 73.5392 80.5178 75.0626 82.6125 75.9708C86.3772 77.6115 89.219 78.4904 91.5042 76.8644C93.7893 75.2384 94.1995 71.3419 93.6721 66.9181H93.6868Z" fill="#4FC485"/>
<path d="M80.6189 40.7111C78.5534 38.6163 76.239 36.7267 73.7194 35.0568C65.5895 32.0831 57.5621 30.8966 52.9625 30.9552C53.2262 31.3214 53.4752 31.6876 53.7242 32.0831C53.7389 32.1124 53.7682 32.1564 53.7828 32.1857C53.8854 32.3468 53.9733 32.5079 54.0758 32.6691C54.1198 32.7423 54.1491 32.8009 54.193 32.8741C54.2662 33.006 54.3395 33.1378 54.4127 33.2843C54.4127 33.3136 54.442 33.3429 54.4567 33.3575C60.6383 33.5773 71.361 35.7159 80.6189 40.7111Z" fill="white"/>
<path d="M87.9721 50.335C86.9028 48.5186 85.5991 46.6143 84.0464 44.6514C78.6557 41.3994 72.9721 39.3779 68.6508 38.1768C63.5238 36.7559 58.9974 36.082 55.6576 35.877C55.7894 36.1846 55.9213 36.5068 56.0531 36.8291C56.097 36.9316 56.1263 37.0342 56.1703 37.1221C56.2289 37.2539 56.2728 37.3857 56.3168 37.5322C56.4193 37.7959 56.5072 38.0596 56.6097 38.3232C64.9301 39.0557 78.6557 42.5567 87.9575 50.335H87.9721Z" fill="white"/>
<path d="M55.6008 30.6194C54.0042 30.2532 53.0227 30.8977 53.0227 30.8977" stroke="black" stroke-width="1.72881" stroke-linecap="round" stroke-linejoin="round"/>
<path d="M60.3456 45.224C59.4667 45.1068 58.5878 45.3119 58.3241 45.3705" stroke="black" stroke-width="1.72881" stroke-linecap="round" stroke-linejoin="round"/>
<path d="M61.3131 51.4189C60.8444 51.375 59.028 51.4189 59.028 51.4189" stroke="black" stroke-width="1.72881" stroke-linecap="round" stroke-linejoin="round"/>
<path d="M61.6935 57.9971C61.1075 57.9971 59.4669 58.0557 58.7931 58.085" stroke="black" stroke-width="1.72881" stroke-linecap="round" stroke-linejoin="round"/>
<path d="M60.301 65.7605C59.217 65.5554 58.1184 65.5701 57.6204 65.5847" stroke="black" stroke-width="1.72881" stroke-linecap="round" stroke-linejoin="round"/>
<path d="M53.5339 74.1544C56.3025 70.1407 58.5584 64.1349 58.8367 55.0089C58.9246 52.1964 59.0857 48.7979 58.4265 46.5127C57.8113 44.3594 57.6648 42.0596 57.0056 39.877C56.3904 37.8116 55.658 35.9951 54.8816 34.3838C53.2263 30.9121 50.9851 28.334 48.6853 26.8545" stroke="black" stroke-width="1.72881" stroke-linecap="round" stroke-linejoin="round"/>
<path d="M57.4003 42.2637C56.536 42.2637 55.6571 42.4688 54.6171 43.5381" stroke="black" stroke-width="1.72881" stroke-linecap="round" stroke-linejoin="round"/>
<path d="M57.4009 34.2217C62.2495 35.1445 62.8355 40.0811 60.521 41.9414" stroke="black" stroke-width="1.72881" stroke-linecap="round" stroke-linejoin="round"/>
<path d="M50.0623 35.4233C51.1462 34.1343 52.5818 33.7095 54.53 33.8413L50.0623 35.4233Z" fill="#97CE9A"/>
<path d="M50.0623 35.4233C51.1462 34.1343 52.5818 33.7095 54.53 33.8413" stroke="black" stroke-width="1.72881" stroke-linecap="round" stroke-linejoin="round"/>
<path d="M72.6507 68.8945C75.2141 68.9824 76.1517 72.3662 74.4964 74.168C72.1966 76.6875 67.0403 75.6914 65.3997 75.6182L62.0891 75.8672L63.6565 71.6484" fill="#4FC485"/>
<path d="M72.6507 68.8945C75.2141 68.9824 76.1517 72.3662 74.4964 74.168C72.1966 76.6875 67.0403 75.6914 65.3997 75.6182L62.0891 75.8672L63.6565 71.6484" stroke="black" stroke-width="1.72881" stroke-linecap="round" stroke-linejoin="round"/>
<path d="M64.3877 69.6719C64.3877 69.6719 67.8155 70.624 67.8155 73.2315C67.8155 76.6592 64.9004 77.2598 62.9082 77.2598C60.916 77.2598 55.5254 76.9229 53.9141 76.8496L51.6436 72.3818" fill="#6CCA98"/>
<path d="M64.3877 69.6719C64.3877 69.6719 67.8155 70.624 67.8155 73.2315C67.8155 76.6592 64.9004 77.2598 62.9082 77.2598C60.916 77.2598 55.5254 76.9229 53.9141 76.8496L51.6436 72.3818" stroke="black" stroke-width="1.72881" stroke-linecap="round" stroke-linejoin="round"/>
<path d="M12.1224 63.5918C10.0423 64.6611 8.15264 67.8106 8.78252 70.711C9.60284 74.5342 13.8655 76.2041 17.8939 76.5996C24.4125 77.2588 34.0658 76.6289 37.4203 76.4385C42.9428 76.1455 46.7074 77.3614 51.1899 77.6104C54.017 77.7715 56.9907 77.2295 57.2543 74.1973C57.518 71.2383 54.7348 70.6084 52.2446 70.3887" fill="#90EBA5"/>
<path d="M12.1224 63.5918C10.0423 64.6611 8.15264 67.8106 8.78252 70.711C9.60284 74.5342 13.8655 76.2041 17.8939 76.5996C24.4125 77.2588 34.0658 76.6289 37.4203 76.4385C42.9428 76.1455 46.7074 77.3614 51.1899 77.6104C54.017 77.7715 56.9907 77.2295 57.2543 74.1973C57.518 71.2383 54.7348 70.6084 52.2446 70.3887" stroke="black" stroke-width="1.72881" stroke-linecap="round" stroke-linejoin="round"/>
<path d="M13.8811 56.0778C15.9319 55.2282 19.4622 53.2653 19.3889 48.7975C19.345 45.8092 17.1624 45.4137 15.9319 46.4831C15.009 47.2741 15.3606 49.0173 16.2688 49.8229C17.177 50.6286 21.9378 52.5329 26.347 46.9372" stroke="black" stroke-width="1.72881" stroke-linecap="round" stroke-linejoin="round"/>
<path d="M17.0454 59.4775C17.0454 59.4775 17.8804 57.6611 18.2026 57.1191" stroke="black" stroke-width="1.72881" stroke-linecap="round" stroke-linejoin="round"/>
<path d="M24.2524 52.6211C25.0874 52.4307 26.9624 52.2988 26.9624 52.2988" stroke="black" stroke-width="1.72881" stroke-linecap="round" stroke-linejoin="round"/>
<path d="M20.2528 61.9229C22.2011 61.1611 23.2411 60.4727 23.08 58.3926C24.6766 58.8174 27.4892 58.9492 27.8847 56.166" stroke="black" stroke-width="1.72881" stroke-linecap="round" stroke-linejoin="round"/>
<path d="M16.0785 61.7623C19.0961 61.4547 21.806 62.1725 24.1937 63.7106" stroke="black" stroke-width="1.72881" stroke-linecap="round" stroke-linejoin="round"/>
<path d="M10.6122 64.5886C9.41102 59.4177 8.29774 50.0134 12.6923 42.4694C18.9179 31.7907 34.4013 25.8434 48.6836 26.8542C62.9659 27.8649 75.0802 33.8415 82.8731 43.0554C91.4132 53.1482 93.0685 61.6882 93.6837 66.9031C94.1964 71.3269 93.8009 75.2234 91.5157 76.8494C89.2306 78.4754 86.3888 77.5965 82.6241 75.9558C81.0567 75.2674 79.0792 74.242 75.168 73.3631" stroke="black" stroke-width="1.72881" stroke-linecap="round" stroke-linejoin="round"/>
</svg>
