<svg width="102" height="102" viewBox="0 0 102 102" fill="none" xmlns="http://www.w3.org/2000/svg">
<path d="M16.7826 64.9736C16.7826 64.9736 15.498 70.0652 18.76 73.6386" stroke="#0D131A" stroke-width="1.72881" stroke-linecap="round" stroke-linejoin="round"/>
<path d="M40.488 71.3957C35.2057 73.887 34.4116 77.4488 34.1624 80.6914C33.9328 83.6731 35.7701 85.7323 37.6814 85.9737C42.1929 86.5381 43.3607 84.4633 44.3417 81.6723C45.3343 78.8462 48.5535 78.0872 51.0175 78.2974C53.287 78.492 54.7039 79.9868 55.0386 81.8669C55.5603 84.7864 52.7264 91.906 59.231 91.9216C62.24 91.9294 63.4857 89.1656 64.7702 86.1488C68.4682 77.4566 70.7337 61.8315 70.8661 59.457" fill="#FAA92E"/>
<path d="M62.7214 52.2588L59.6306 54.0805C59.6306 54.0805 58.4745 58.6388 54.1926 59.3512C49.9107 60.0635 49.6421 57.2997 49.6421 57.2997L45.0138 57.51C45.0138 57.51 46.5085 66.6576 40.2258 71.5195C40.2258 71.5195 45.7339 72.1502 47.4077 78.7521C47.4077 78.7521 51.4716 76.8213 54.3872 80.1807C54.3872 80.1807 61.7171 81.5781 67.2018 78.9739C67.2018 78.9739 70.2186 66.4085 70.8648 59.4602C70.8648 59.4602 64.5198 60.8849 62.7214 52.2627V52.2588Z" fill="#B2DEF6"/>
<path d="M49.6455 57.3045C49.6455 57.3045 50.2372 60.1344 54.196 59.3559C58.1548 58.5774 59.2759 55.2141 59.4588 54.1709" fill="#FAA92E"/>
<path d="M49.6455 57.3045C49.6455 57.3045 50.2372 60.1344 54.196 59.3559C58.1548 58.5774 59.2759 55.2141 59.4588 54.1709" stroke="#0D131A" stroke-width="1.72881" stroke-linecap="round" stroke-linejoin="round"/>
<path d="M40.4883 71.3957C36.0507 73.4783 34.4236 77.4332 34.1628 80.6914C33.9214 83.6731 35.7704 85.7323 37.6817 85.9737C42.1933 86.5381 43.3611 84.4633 44.342 81.6723C45.3346 78.8462 48.5539 78.0872 51.0179 78.2974C53.2873 78.492 54.7042 79.9868 55.039 81.8669C55.5606 84.7864 52.7268 91.906 59.2314 91.9216C62.2404 91.9294 63.486 89.1656 64.7706 86.1488C68.4686 77.4566 70.7341 61.8315 70.8664 59.457" stroke="#0D131A" stroke-width="1.72881" stroke-linecap="round" stroke-linejoin="round"/>
<path d="M40.4885 71.3965C40.4885 71.3965 45.1675 71.5405 47.398 78.7419" stroke="#070102" stroke-width="1.72881" stroke-linecap="round" stroke-linejoin="round"/>
<path d="M54.3732 80.1805C54.4705 80.1883 62.2285 81.4573 67.2734 78.7285" stroke="#070102" stroke-width="1.72881" stroke-linecap="round" stroke-linejoin="round"/>
<path d="M48.8032 13.6173C48.8032 13.6173 48.7721 9.95826 52.7543 9.0902C56.569 8.25718 59.5625 10.9275 58.963 15.3028" fill="#FAA92E"/>
<path d="M48.8032 13.6173C48.8032 13.6173 48.7721 9.95826 52.7543 9.0902C56.569 8.25718 59.5625 10.9275 58.963 15.3028" stroke="#0D131A" stroke-width="1.72881" stroke-linecap="round" stroke-linejoin="round"/>
<path d="M34.6304 18.5953C34.6304 18.5953 32.5011 15.8705 28.5112 17.9686C25.0429 19.7903 25.1791 24.1306 27.8456 26.5752" fill="#FAA92E"/>
<path d="M34.6304 18.5953C34.6304 18.5953 32.5011 15.8705 28.5112 17.9686C25.0429 19.7903 25.1791 24.1306 27.8456 26.5752" stroke="#0D131A" stroke-width="1.72881" stroke-linecap="round" stroke-linejoin="round"/>
<path d="M69.1655 45.5638C67.6046 47.6931 65.3819 50.9201 60.6873 53.5165C50.3291 59.2425 42.0066 57.7594 37.2732 55.5601C32.2517 53.2245 26.911 47.7164 25.7159 38.2612C24.264 26.7935 32.9757 18.9109 38.0673 16.4274C42.9136 14.0646 48.7019 12.8618 54.7589 14.0568C63.4589 15.7696 68.2819 21.5034 70.3839 27.2762C72.447 32.9439 72.8051 40.6085 69.1733 45.5638H69.1655Z" fill="#FAA92E"/>
<path d="M25.6263 32.7775C25.6263 32.7775 43.5441 21.6368 64.759 18.5266C64.759 18.5266 62.4623 16.1793 59.0018 14.9531C59.0018 14.9531 39.9512 17.8648 27.6855 26.5298C27.6855 26.5298 26.0351 29.1535 25.6263 32.7775Z" fill="#B2DEF6"/>
<path d="M69.1655 45.5638C67.6046 47.6931 65.3819 50.9201 60.6873 53.5165C50.329 59.2425 42.0066 57.7594 37.2732 55.5601C32.2517 53.2245 26.911 47.7164 25.7159 38.2612C24.264 26.7935 32.9757 18.9109 38.0673 16.4274C42.9136 14.0646 48.7019 12.8618 54.7589 14.0568C63.4589 15.7696 68.2819 21.5034 70.3839 27.2762C72.447 32.9439 72.8051 40.6085 69.1733 45.5638H69.1655Z" stroke="#0D131A" stroke-width="1.72881" stroke-linecap="round" stroke-linejoin="round"/>
<path d="M58.6852 32.9123C59.3275 30.8414 56.8284 29.6737 55.6606 31.4993C55.0184 33.5702 57.5174 34.738 58.6852 32.9123Z" fill="#0D131A"/>
<path d="M51.889 28.3381C51.889 28.3381 55.3223 26.929 59.4563 25.6172L51.889 28.3381Z" fill="#0D131A"/>
<path d="M51.889 28.3381C51.889 28.3381 55.3223 26.929 59.4563 25.6172" stroke="#0D131A" stroke-width="2.07458" stroke-linecap="round" stroke-linejoin="round"/>
<path d="M40.7751 39.4907C41.4096 37.4431 38.9416 36.2909 37.7855 38.0932C37.151 40.1407 39.6189 41.293 40.7751 39.4907Z" fill="#0D131A"/>
<path d="M48.6884 40.5419C45.3446 40.5886 43.7214 43.1149 44.2352 45.1586C44.6518 46.8285 46.637 47.9223 48.3965 47.4513C50.2961 46.9414 51.133 45.5517 51.1836 44.2866C51.9621 45.2909 53.2 45.8008 55.0412 45.1079C56.7462 44.4657 57.7816 42.8853 57.1821 40.8767C56.5788 38.8564 53.6282 37.2838 50.6386 39.9191L49.8134 40.6937" fill="white"/>
<path d="M48.6884 40.5419C45.3446 40.5886 43.7214 43.1149 44.2352 45.1586C44.6518 46.8285 46.637 47.9223 48.3965 47.4513C50.2961 46.9414 51.133 45.5517 51.1836 44.2866C51.9621 45.2909 53.2 45.8008 55.0412 45.1079C56.7462 44.4657 57.7816 42.8853 57.1821 40.8767C56.5788 38.8564 53.6282 37.2838 50.6386 39.9191L49.8134 40.6937" stroke="#0D131A" stroke-width="1.72881" stroke-linecap="round" stroke-linejoin="round"/>
<path d="M32.9279 35.2942C32.9279 35.2942 36.3612 33.8851 40.4951 32.5732L32.9279 35.2942Z" fill="#0D131A"/>
<path d="M32.9279 35.2942C32.9279 35.2942 36.3612 33.8851 40.4951 32.5732" stroke="#0D131A" stroke-width="2.07458" stroke-linecap="round" stroke-linejoin="round"/>
<path d="M47.4981 40.522C47.646 41.3161 49.3121 42.4995 50.2969 42.1297C51.1805 41.7988 51.7566 40.1172 51.5114 39.0428C51.2272 37.7894 47.0894 38.3149 47.4981 40.5181V40.522Z" fill="#0D131A"/>
<path d="M37.2578 57.3469C39.282 55.8521 43.7585 56.8876 44.7005 60.605C45.8138 64.9998 43.6262 68.1412 43.6262 68.1412C42.7347 69.7021 39.9165 72.6878 35.5528 71.3604C31.7731 70.2121 29.5699 67.3743 30.3601 62.2205" fill="#FAA92E"/>
<path d="M37.2578 57.3469C39.282 55.8521 43.7585 56.8876 44.7005 60.605C45.8138 64.9998 43.6262 68.1412 43.6262 68.1412C42.7347 69.7021 39.9165 72.6878 35.5528 71.3604C31.7731 70.2121 29.5699 67.3743 30.3601 62.2205" stroke="#0D131A" stroke-width="1.72881" stroke-linecap="round" stroke-linejoin="round"/>
<path d="M29.9363 59.2197C29.9363 59.2197 29.5276 57.5536 28.2197 57.2656C27.2932 57.0632 25.8335 57.1761 25.0044 57.4369C24.3426 57.6471 23.3928 58.5774 23.3422 60.006C23.2838 61.7771 23.4201 63.5366 23.8366 64.319C24.2492 65.1015 24.872 65.4401 26.4836 65.4168C28.0951 65.3934 30.2283 65.082 30.24 63.4977L40.7072 63.1162C40.7072 63.1162 41.5442 64.5526 42.9689 64.5292C44.4597 64.5059 47.4804 64.7589 47.6906 62.4194C47.8969 60.15 47.5388 58.3361 47.0561 57.4057C46.2776 55.8993 43.3036 56.0394 41.9801 56.4637C40.824 56.8335 40.7267 58.5151 40.7267 58.5151C40.7267 58.5151 35.7636 58.7214 33.8173 58.811C32.3303 58.8771 29.9363 59.2236 29.9363 59.2236V59.2197Z" fill="#FE787A" stroke="#0D131A" stroke-width="1.72881" stroke-linecap="round" stroke-linejoin="round"/>
<path d="M30.667 67.1021C30.1882 65.7825 30.0597 64.1671 30.3595 62.2207C30.8655 58.912 32.9364 57.3588 34.6608 57.3511C36.3152 57.3394 37.9423 57.5262 39.4332 60.1693C40.3986 61.8782 40.1105 64.5485 40.1105 64.5485" fill="#FAA92E"/>
<path d="M30.667 67.1021C30.1882 65.7825 30.0597 64.1671 30.3595 62.2207C30.8655 58.912 32.9364 57.3588 34.6608 57.3511C36.3152 57.3394 37.9423 57.5262 39.4332 60.1693C40.3986 61.8782 40.1105 64.5485 40.1105 64.5485" stroke="#0D131A" stroke-width="1.72881" stroke-linecap="round" stroke-linejoin="round"/>
<path d="M25.8221 32.5824C25.8221 32.5824 43.3507 21.8309 64.5655 18.7207" stroke="#0D131A" stroke-width="1.72881" stroke-linecap="round" stroke-linejoin="round"/>
<path d="M58.4283 15.0918C58.4283 15.0918 40.3431 17.4741 28.0774 26.1391" stroke="#0D131A" stroke-width="1.72881" stroke-linecap="round" stroke-linejoin="round"/>
<path d="M66.6528 32.4495C66.6528 32.4495 66.4076 30.7485 65.1347 30.3358C64.2355 30.0439 62.768 30.0128 61.9194 30.1918C61.2382 30.3358 60.2027 31.1689 60.0159 32.5858C59.7823 34.3414 59.7512 36.1047 60.0859 36.9261C60.4207 37.7474 61.0085 38.1445 62.6123 38.2768C64.216 38.4092 66.3725 38.308 66.536 36.7353L76.2053 37.2881C76.2053 37.2881 76.8943 38.7984 78.3151 38.9152C79.8021 39.0359 82.7839 39.5847 83.2199 37.2764C83.6442 35.0381 83.4651 33.1969 83.0797 32.2238C82.453 30.6473 79.479 30.4954 78.1205 30.7913C76.9333 31.0482 76.6724 32.7104 76.6724 32.7104C76.6724 32.7104 72.8849 32.5585 70.9386 32.4573C69.4516 32.3795 66.6489 32.4495 66.6489 32.4495H66.6528Z" fill="#FE787A" stroke="#0D131A" stroke-width="1.72881" stroke-linecap="round" stroke-linejoin="round"/>
<path d="M75.6112 43.7305C76.4403 37.1247 75.9732 30.9821 70.7104 31.6711C66.6503 32.2044 66.5375 36.8133 65.5448 43.8784C64.6534 50.2195 62.6565 52.7342 62.6565 52.7342C62.7811 55.1632 65.8017 60.7919 70.8622 59.4567C71.2826 59.3439 74.821 50.0093 75.6112 43.7305Z" fill="#FAA92E" stroke="#0D131A" stroke-width="1.72881" stroke-linecap="round" stroke-linejoin="round"/>
<path d="M19.9606 65.9424C19.9606 65.9424 19.0614 69.6092 21.5176 71.8242" stroke="#0D131A" stroke-width="1.72881" stroke-linecap="round" stroke-linejoin="round"/>
<path d="M81.7668 44.3643C81.7668 44.3643 82.3896 49.0354 79.8204 54.4851" stroke="#0D131A" stroke-width="1.72881" stroke-linecap="round" stroke-linejoin="round"/>
<path d="M85.0277 43.8779C85.0277 43.8779 85.561 52.0525 81.6683 57.8992" stroke="#0D131A" stroke-width="1.72881" stroke-linecap="round" stroke-linejoin="round"/>
</svg>
