<svg width="102" height="102" viewBox="0 0 102 102" fill="none" xmlns="http://www.w3.org/2000/svg">
<path opacity="0.5" d="M16.6876 32.8458C16.6739 32.6476 16.6794 32.3788 16.7509 32.0722C16.8621 31.5953 17.1211 31.0804 17.6146 30.6241C17.9208 30.4013 18.6838 29.8799 19.2857 29.5759C21.2647 28.5396 24.1912 27.3296 27.5184 26.254C31.5177 24.9612 36.1677 23.8389 40.5512 23.4473C40.8583 23.4199 41.1609 23.5357 41.3713 23.7611L78.8272 63.9014L78.8326 63.9071C80.6491 65.7968 82.3738 67.9589 83.3529 70.1252C84.3336 72.2949 84.6437 74.6667 83.254 76.7281C82.277 78.1764 80.6816 78.7316 79.1966 78.8255C78.3832 78.877 77.5545 78.7956 76.786 78.6222C76.6474 79.9907 75.5527 81.0635 74.4575 81.7527C73.0923 82.6119 71.3093 83.1816 69.73 83.3596C70.0825 87.5155 67.2704 88.9184 65.8203 89.1004C64.4886 89.3222 62.9208 89.0891 61.4011 88.6862C59.8595 88.2775 58.2633 87.6652 56.8327 87.0394C55.3987 86.4122 54.1109 85.7625 53.1824 85.2703C52.8314 85.0842 52.531 84.9202 52.2925 84.7879C51.3667 85.4525 50.0219 85.937 48.6454 86.0576C46.8755 86.2126 44.8219 85.785 43.3232 84.1106L43.3131 84.0991C42.5124 83.1766 41.9967 81.8785 41.8406 80.3967C41.227 80.6986 40.576 80.9614 39.9551 81.181C38.7297 81.6144 37.5081 81.919 36.7247 82.025C30.922 82.8086 24.4558 81.8125 20.133 78.3125C12.1555 71.8528 11.5291 62.8629 12.5753 54.0102C12.9595 50.7649 13.9713 47.5203 14.9096 44.5115L14.9096 44.5115L14.9097 44.5114C15.1166 43.8478 15.32 43.1957 15.5122 42.5575C16.6027 38.9385 17.3201 35.817 16.7396 33.1963L16.735 33.177C16.7298 33.1541 16.7239 33.1263 16.7181 33.0939C16.7064 33.0293 16.6945 32.9454 16.6876 32.8458Z" fill="black"/>
<path d="M48.7764 14.8034C39.6614 15.3768 29.0931 19.7967 25.2446 22.0056C23.8162 22.8254 24.137 24.0364 24.137 24.0364C25.4268 30.0897 22.8494 36.4555 21.7791 44.8377C20.655 53.6401 21.4479 62.6268 29.4139 69.7834C33.5502 73.4994 39.208 75.4661 45.2074 74.8139C51.6912 74.1101 60.0403 69.6964 68.3542 61.1652C77.8253 51.4436 80.0942 46.5476 80.0776 37.0931C80.0693 31.5823 78.0323 25.6305 73.3785 21.2645C67.3315 15.5901 58.7443 14.1782 48.7764 14.8055V14.8034Z" fill="#FFCDCD"/>
<path d="M48.7763 15.01C39.6923 15.9498 29.0929 19.7962 25.2445 22.0051C23.816 22.8249 24.1369 24.036 24.1369 24.036C25.4266 30.0892 22.8493 36.455 21.779 44.8372C20.6549 53.6396 21.4478 62.6263 29.4138 69.783C33.5501 73.4989 39.2079 75.4656 45.2073 74.8135C51.6911 74.1096 60.0402 69.696 68.354 61.1648C77.8251 51.4432 80.4915 46.7542 80.4915 37.2997C80.4915 31.2071 78.0321 25.63 73.3784 21.264C67.3313 15.5896 58.1687 14.0391 48.7763 15.012V15.01Z" stroke="black" stroke-width="1.72881" stroke-linecap="round" stroke-linejoin="round"/>
<path d="M27.8551 49.3613C27.4162 49.9575 26.7952 50.4192 26.4557 51.0754C25.5551 52.8061 26.3439 54.4436 25.638 56.2633C25.4993 56.6194 25.286 56.9403 25.1204 57.286C24.5345 58.5012 24.5925 60.0062 25.2695 61.1738C25.2695 61.1738 26.4391 63.2668 28.0994 62.2213C29.8653 61.1096 28.2609 59.5363 28.7287 58.3873C28.8385 58.1161 29.0455 57.9278 29.3022 56.8782C29.77 54.955 28.617 54.3008 29.3436 52.6591C29.6189 52.0381 30.1613 51.5785 30.5298 51.0051" fill="#C2E0F6"/>
<path d="M27.8551 49.3613C27.4162 49.9575 26.7952 50.4192 26.4557 51.0754C25.5551 52.8061 26.3439 54.4436 25.638 56.2633C25.4993 56.6194 25.286 56.9403 25.1204 57.286C24.5345 58.5012 24.5925 60.0062 25.2695 61.1738C25.2695 61.1738 26.4391 63.2668 28.0994 62.2213C29.8653 61.1096 28.2609 59.5363 28.7287 58.3873C28.8385 58.1161 29.0455 57.9278 29.3022 56.8782C29.77 54.955 28.617 54.3008 29.3436 52.6591C29.6189 52.0381 30.1613 51.5785 30.5298 51.0051" stroke="black" stroke-width="1.72881" stroke-linecap="round" stroke-linejoin="round"/>
<path d="M47.3315 30.6055C47.3501 31.8063 46.2405 32.6178 46.3647 33.5908C46.3896 33.7833 46.4558 34.2801 46.4682 34.4727C46.5283 35.4829 45.5946 36.1536 45.7126 37.1577C45.7602 37.5676 46.048 38.1824 46.0086 38.5944C45.901 39.7081 45.0791 39.822 44.6568 39.791C44.2324 39.7599 43.6631 39.4121 43.3588 39.1181C42.4024 38.1907 42.3341 36.903 42.9882 35.4726C43.2532 34.895 43.748 34.4147 43.7377 33.4976C43.7335 33.1498 43.7666 32.6426 43.9219 31.9574C44.2966 30.3095 45.8824 31.2577 46.3295 28.9308L47.3315 30.6055Z" fill="#C2E0F6" stroke="black" stroke-width="1.72881" stroke-linecap="round" stroke-linejoin="round"/>
<path d="M44.0998 47.0672C44.0998 47.0672 45.8946 44.5374 48.8095 42.3906" stroke="black" stroke-width="1.72881" stroke-linecap="round" stroke-linejoin="round"/>
<path d="M51.8713 31.1551C49.2732 33.9705 49.5879 35.4051 50.24 35.9952C51.0432 36.7197 52.776 36.3057 54.8979 34.0285C57.0198 31.7513 57.3304 30.0165 56.5023 29.2422C55.6742 28.468 54.0181 28.8282 51.8692 31.1571L51.8713 31.1551Z" fill="#F58C8C"/>
<path d="M33.3969 51.3671C31.0783 54.4165 31.5275 55.8139 32.2314 56.3397C33.0988 56.9856 34.786 56.408 36.6823 53.9403C38.5786 51.4727 38.7235 49.7172 37.8271 49.0236C36.9286 48.3301 35.3139 48.8477 33.3969 51.3692V51.3671Z" fill="#F58C8C"/>
<path d="M36.6243 41.8044C35.8976 41.0964 32.989 43.0734 29.3952 47.1931C24.228 53.1159 24.5758 55.1467 25.5012 55.5587C26.4845 55.9976 28.1924 55.0142 32.2355 49.934C36.1399 45.0318 37.6304 42.7836 36.6243 41.8023V41.8044Z" fill="white" stroke="black" stroke-width="1.72881" stroke-linecap="round" stroke-linejoin="round"/>
<path d="M28.5962 48.2617C28.5962 48.2617 29.5009 49.7129 31.4344 50.806L33.5274 48.299C33.5274 48.299 32.5689 47.0507 30.8837 45.792L28.5983 48.2617H28.5962Z" fill="black" stroke="black" stroke-width="1.72881" stroke-linecap="round" stroke-linejoin="round"/>
<path d="M55.3781 21.2497C54.695 20.5458 51.5234 22.113 47.4224 26.7253C42.307 32.4784 42.5098 34.1345 43.2179 34.8115C43.9259 35.4884 45.0251 35.1407 50.0681 29.607C54.3058 24.9574 56.3263 22.2248 55.3781 21.2497Z" fill="white" stroke="black" stroke-width="1.72881" stroke-linecap="round" stroke-linejoin="round"/>
<path d="M46.6418 28.1022C46.6418 28.1022 47.4409 29.2801 49.1033 30.2137L51.4033 27.6488C51.4033 27.6488 50.4841 26.5495 48.9004 25.5703L46.6418 28.1001V28.1022Z" fill="black" stroke="black" stroke-width="1.72881" stroke-linecap="round" stroke-linejoin="round"/>
<path d="M81.4997 74.6464C81.4997 74.6464 87.5032 74.7499 89.9875 71.3693C92.4717 67.9887 92.333 63.3639 88.677 59.2235C85.019 55.0832 79.4999 50.1064 79.4999 50.1064L64.253 56.0996L64.5532 74.2676" fill="white"/>
<path d="M81.4997 74.6464C81.4997 74.6464 87.5032 74.7499 89.9875 71.3693C92.4717 67.9887 92.333 63.3639 88.677 59.2235C85.019 55.0832 79.4999 50.1064 79.4999 50.1064L64.253 56.0996L64.5532 74.2676" stroke="black" stroke-width="1.72881" stroke-linecap="round" stroke-linejoin="round"/>
<path d="M77.4981 78.4766C78.5332 81.3748 77.4443 85.0329 73.9105 85.0329C69.0807 85.0329 60.4543 77.9259 60.4543 77.9259C57.97 75.7874 54.5894 72.1294 57.9017 67.6433C61.744 62.4389 67.9753 64.7927 67.9753 64.7927" fill="white"/>
<path d="M77.4981 78.4766C78.5332 81.3748 77.4443 85.0329 73.9105 85.0329C69.0807 85.0329 60.4543 77.9259 60.4543 77.9259C57.97 75.7874 54.5894 72.1294 57.9017 67.6433C61.744 62.4389 67.9753 64.7927 67.9753 64.7927" stroke="black" stroke-width="1.72881" stroke-linecap="round" stroke-linejoin="round"/>
<path d="M80.0505 61.778C75.7714 57.5176 71.01 54.1866 66.3831 59.0723C62.5491 63.1195 63.5966 66.6367 65.849 69.3549C66.8862 70.6053 74.9868 79.3435 78.6013 79.6748C81.835 79.9708 83.7333 77.9586 83.2903 75.1721C82.7417 71.7149 78.74 68.3384 75.5644 64.5396" fill="white"/>
<path d="M80.0505 61.778C75.7714 57.5176 71.01 54.1866 66.3831 59.0723C62.5491 63.1195 63.5966 66.6367 65.849 69.3549C66.8862 70.6053 74.9868 79.3435 78.6013 79.6748C81.835 79.9708 83.7333 77.9586 83.2903 75.1721C82.7417 71.7149 78.74 68.3384 75.5644 64.5396" stroke="black" stroke-width="1.72881" stroke-linecap="round" stroke-linejoin="round"/>
<path d="M59.4896 77.0481C58.0922 75.4168 56.8418 73.4045 59.0735 70.6802C61.8951 67.2354 64.5243 66.4135 63.4892 63.095C62.4541 59.7765 58.1067 58.3957 54.0346 62.474C50.2731 66.2396 47.7682 73.5515 51.2751 77.3731C53.72 80.0395 58.2537 78.6276 59.4896 77.0481Z" fill="white" stroke="black" stroke-width="1.72881" stroke-linecap="round" stroke-linejoin="round"/>
<path d="M82.81 47.4397C84.8885 50.0088 83.0171 52.6669 80.8082 53.9794C78.9926 55.058 74.1836 56.3249 71.01 59.5006C68.7286 61.7819 67.2609 64.8872 64.6607 65.4358C62.0378 65.9885 59.1623 64.1688 59.5287 60.4508C59.8268 57.4118 61.9985 54.3624 65.9712 50.8762C69.8424 47.479 79.8704 43.8127 82.808 47.4417L82.81 47.4397Z" fill="white" stroke="black" stroke-width="1.72881" stroke-linecap="round" stroke-linejoin="round"/>
</svg>
