<svg width="102" height="102" viewBox="0 0 102 102" fill="none" xmlns="http://www.w3.org/2000/svg">
<g clip-path="url(#clip0_3359_38481)">
<path d="M41.4915 16.3099C41.4915 16.3099 44.1437 17.0402 45.7538 17.1384C46.5375 16.1391 46.9859 13.5723 46.9859 13.5723C46.9859 13.5723 44.9188 13.7816 42.6297 12.9658C41.9506 14.5631 41.4915 16.3078 41.4915 16.3078V16.3099Z" fill="#A3E9EE" stroke="#53C1DB" stroke-width="1.72881" stroke-linecap="round" stroke-linejoin="round"/>
<path d="M54.6933 23.9162C54.2726 25.8231 53.6811 27.7044 53.6811 27.7044C53.6811 27.7044 55.4727 28.4433 56.991 28.832C57.2964 27.0083 58.0352 24.9455 58.0352 24.9455C58.0352 24.9455 56.1411 24.1383 54.6933 23.9141V23.9162Z" fill="#D2FC95" stroke="#9CE061" stroke-width="1.72881" stroke-linecap="round" stroke-linejoin="round"/>
<path d="M69.2311 20.0713C70.8028 19.3965 71.8214 18.079 71.8214 18.079C71.8214 18.079 70.4547 16.7871 68.8681 14.6943C67.5719 15.0424 66.3056 16.4902 66.3056 16.4902C66.3056 16.4902 67.4758 19.1083 69.2311 20.0692V20.0713Z" fill="#FFE885" stroke="#FFB63B" stroke-width="1.72881" stroke-linecap="round" stroke-linejoin="round"/>
<path d="M93.9105 72.4248C95.5463 73.1978 96.5008 74.7225 96.5008 74.7225C96.5008 74.7225 94.5853 76.7555 93.7568 77.7997C92.5652 76.5035 91.2776 75.3631 91.2776 75.3631C91.2776 75.3631 92.7382 73.7296 93.9105 72.4248Z" fill="#A3E9EE" stroke="#53C1DB" stroke-width="1.72881" stroke-linecap="round" stroke-linejoin="round"/>
<path d="M81.2795 80.6377C82.9942 82.1047 84.7752 82.8564 84.7752 82.8564C84.7752 82.8564 83.5196 85.1563 82.1636 85.6346C80.0751 84.4964 78.5696 82.9397 78.5696 82.9397C78.5696 82.9397 79.648 81.2228 81.2774 80.6377H81.2795Z" fill="#FFBDBD" stroke="#FF8080" stroke-width="1.72881" stroke-linecap="round" stroke-linejoin="round"/>
<path d="M71.781 33.4317C75.3942 28.1593 78.7148 23.2158 79.8038 23.2158C80.8865 23.2158 83.5686 30.2435 85.9667 35.7294" fill="#B1D6E8"/>
<path d="M71.781 33.4317C75.3942 28.1593 78.7148 23.2158 79.8038 23.2158C80.8865 23.2158 83.5686 30.2435 85.9667 35.7294" stroke="black" stroke-width="1.72881" stroke-linecap="round" stroke-linejoin="round"/>
<path d="M80.0217 24.3242C81.2282 24.3242 82.2062 23.3461 82.2062 22.1396C82.2062 20.9331 81.2282 19.9551 80.0217 19.9551C78.8152 19.9551 77.8371 20.9331 77.8371 22.1396C77.8371 23.3461 78.8152 24.3242 80.0217 24.3242Z" fill="#FF9797" stroke="black" stroke-width="1.72881" stroke-linecap="round" stroke-linejoin="round"/>
<path d="M91.2775 60.8091C94.7433 56.6045 96.2637 52.3699 95.4778 46.8776C96.6502 45.417 97.0367 44.1464 96.6929 42.9249C96.3299 41.6372 94.9376 40.6379 92.8705 40.1574C89.6738 36.6489 86.3489 33.2642 81.4758 31.8719C79.3127 31.2548 70.5574 29.0873 62.7716 38.6797C56.2842 46.6747 57.4245 54.61 67.9159 62.4812C78.4521 70.2947 84.7324 68.7572 91.2796 60.8113L91.2775 60.8091Z" fill="#FFD677" stroke="black" stroke-width="1.72881" stroke-linecap="round" stroke-linejoin="round"/>
<path d="M82.0162 47.2282C82.0162 47.2282 76.857 53.596 75.1636 52.161C73.5193 50.7687 78.8813 44.0977 78.8813 44.0977L81.3157 45.3383L82.014 47.2282H82.0162Z" fill="#B53F3C" stroke="black" stroke-width="1.72881" stroke-linecap="round" stroke-linejoin="round"/>
<path d="M82.4966 43.3477C80.2181 41.3746 77.8371 41.6287 77.0854 43.0188C76.1843 44.6823 77.3673 46.6427 79.9256 46.5487C80.1455 48.6692 82.424 49.6707 83.7352 48.6073C84.9716 47.6036 84.773 45.323 82.4945 43.3477H82.4966Z" fill="white" stroke="black" stroke-width="1.72881" stroke-linecap="round" stroke-linejoin="round"/>
<path d="M76.9957 40.668L77.9375 42.2033" stroke="black" stroke-width="1.72881" stroke-linecap="round" stroke-linejoin="round"/>
<path d="M74.9692 43.3945L76.8548 43.6102" stroke="black" stroke-width="1.72881" stroke-linecap="round" stroke-linejoin="round"/>
<path d="M86.0435 47.5649L84.4911 47.2275" stroke="black" stroke-width="1.72881" stroke-linecap="round" stroke-linejoin="round"/>
<path d="M83.8441 50.4754L83.1074 48.9443" stroke="black" stroke-width="1.72881" stroke-linecap="round" stroke-linejoin="round"/>
<path d="M88.5942 46.0836C89.062 45.4807 88.9518 44.6122 88.348 44.1437C87.7442 43.6752 86.8755 43.7841 86.4078 44.387C85.94 44.9898 86.0502 45.8583 86.654 46.3268C87.2578 46.7953 88.1264 46.6864 88.5942 46.0836Z" fill="black"/>
<path d="M80.4023 39.7271C80.87 39.1243 80.7598 38.2558 80.156 37.7873C79.5522 37.3188 78.6836 37.4277 78.2158 38.0305C77.748 38.6334 77.8582 39.5019 78.462 39.9704C79.0658 40.4389 79.9345 40.33 80.4023 39.7271Z" fill="black"/>
<path d="M69.5238 83.0246C73.3676 77.2867 78.1446 72.3902 80.6857 70.6178C84.6064 67.8802 87.9227 67.8844 90.7372 67.0751C93.6093 66.2508 95.3177 64.8649 95.1618 62.0504C94.9931 59.0096 92.0697 57.203 87.1817 57.44C83.4575 57.6194 80.9142 58.7063 75.8874 62.0355C72.9896 60.4617 68.8127 57.1475 66.8481 54.57C68.3109 50.88 68.5928 47.7388 68.1999 44.2773C67.6148 39.1373 65.2103 37.3905 62.9489 37.1876C59.8845 36.91 58.0053 38.9857 57.7128 43.485C57.2238 51.0017 59.1328 52.9023 54.7595 58.0529" fill="#FFD677"/>
<path d="M54.0698 60.0049C51.8105 62.7916 49.4978 65.9948 47.4457 69.5139C44.313 74.8803 44.5116 77.7717 47.3923 79.8879C50.3648 82.0724 53.2156 80.8061 55.7888 77.5731L59.1158 80.0651C56.139 83.7829 55.6436 86.2344 58.4175 88.31C60.1643 89.6169 62.3189 89.6596 64.1447 88.3313C66.8653 86.3539 71.7063 80.2231 75.281 75.4355C74.9713 74.6582 70.0684 69.3581 66.2972 66.5372C62.1118 63.4066 57.2046 61.0747 54.074 60.007L54.0698 60.0049Z" fill="#A37944"/>
<path d="M69.5238 83.0247C73.3676 77.2868 78.1446 72.3902 80.6857 70.6178C84.6064 67.8802 87.9227 67.8845 90.7372 67.0752C93.6093 66.2509 95.3177 64.865 95.1618 62.0505C94.9931 59.0096 92.0697 57.2031 87.1817 57.4401C83.4575 57.6195 80.9142 58.7064 75.8874 62.0355C72.9896 60.4617 68.8127 57.1475 66.8481 54.5701C68.3109 50.8801 68.5928 47.7389 68.1999 44.2773C67.6148 39.1373 65.2103 37.3906 62.9489 37.1877C59.8845 36.9101 57.9007 38.9793 57.7128 43.4851C57.448 49.8487 59.1328 52.9023 54.7595 58.053" stroke="black" stroke-width="1.72881" stroke-linecap="round" stroke-linejoin="round"/>
<path d="M38.073 28.1133C38.6325 29.3134 36.1191 31.4125 31.545 31.8183C26.6933 32.2475 23.4752 31.577 23.4047 30.5797C23.3428 29.685 29.0017 17.0133 29.4736 16.0054C29.7363 15.4417 30.9983 15.226 31.3336 15.7727C32.0981 17.024 35.7817 23.1933 38.073 28.1133Z" fill="#95C6E8"/>
<path d="M34.6799 21.6148C35.4721 23.3701 36.2665 24.1175 36.6851 25.2599C34.8102 23.7032 30.1955 21.9329 27.0906 21.3692C27.5348 20.4317 27.8444 19.522 28.2309 18.749C31.2184 19.3747 33.1018 20.2033 34.6799 21.6169V21.6148Z" fill="white"/>
<path d="M36.6552 28.4341C35.47 28.7437 33.1787 28.8248 32.0128 29.0982C29.4674 27.4945 26.8386 26.6702 24.7822 26.2452C25.1367 25.4573 25.5467 24.5604 25.9738 23.6357C28.7776 24.2785 33.4158 25.7947 36.6552 28.4341Z" fill="white"/>
<path d="M38.8247 29.7797C39.3842 30.9798 36.1191 31.4133 31.5429 31.819C26.6912 32.2482 23.4731 31.5777 23.4027 30.5805C23.3407 29.6857 28.9761 17.0034 29.4715 16.0062C29.8495 15.2438 30.7443 14.9897 31.3315 15.7734C32.2113 16.9479 36.5334 24.8597 38.8247 29.7797Z" stroke="black" stroke-width="1.72881" stroke-linecap="round" stroke-linejoin="round"/>
<path d="M31.9445 12.1445C31.0135 11.2754 29.555 11.3245 28.688 12.2535C27.821 13.1824 27.7826 14.6067 28.8054 15.51C29.7621 16.3513 31.3167 16.2574 32.1495 15.2986C33.0571 14.2565 32.8756 13.0137 31.9424 12.1445H31.9445Z" fill="white" stroke="black" stroke-width="1.72881" stroke-linecap="round" stroke-linejoin="round"/>
<path d="M71.102 87.481C70.8842 83.8144 68.3452 79.1293 66.8718 77.7178L32.4038 78.5527L34.5328 86.0096C35.5109 86.6972 36.2839 88.0618 36.7067 88.933C41.4388 90.9425 46.2243 91.6023 52.4619 91.4913C59.6497 91.3632 64.9584 90.2421 71.0999 87.481H71.102Z" fill="#FAAA30"/>
<path d="M71.1127 87.703C70.9867 84.0045 68.3751 79.1571 66.8718 77.7178L32.4038 78.5527L34.5328 86.0096C36.0362 87.0688 37.0612 89.7274 37.0612 89.7274" fill="#FAAA30"/>
<path d="M71.1127 87.703C70.9867 84.0045 68.3751 79.1571 66.8718 77.7178L32.4038 78.5527L34.5328 86.0096C36.0362 87.0688 37.0612 89.7274 37.0612 89.7274" stroke="black" stroke-width="1.72881" stroke-linecap="round" stroke-linejoin="round"/>
<path d="M38.0498 80.2249C41.1142 87.4939 46.0449 89.5866 54.0933 88.6385C62.1417 87.6904 65.8467 81.993 64.4267 76.9385" fill="white"/>
<path d="M30.8918 77.9397C33.7042 75.9345 39.1965 75.6676 40.9048 78.623C42.6452 81.6319 40.5568 86.2828 35.8503 87.8289C30.4775 89.5927 25.6088 87.4509 23.9986 84.0684C22.3416 80.5876 22.7323 75.9901 25.7262 71.9669L49.4722 57.0381C54.373 56.8822 58.4837 59.0711 61.5459 61.4948C67.5763 66.2632 70.5702 73.6112 66.9357 79.3619C64.9903 82.4391 60.7387 84.2093 57.1875 81.6041C53.7622 79.0928 54.5139 73.4703 59.2076 70.7412" fill="#FAAA30"/>
<path d="M30.8918 77.9397C33.7042 75.9345 39.1965 75.6676 40.9048 78.623C42.6452 81.6319 40.5568 86.2828 35.8503 87.8289C30.4775 89.5927 25.6088 87.4509 23.9986 84.0684C22.3416 80.5876 22.7323 75.9901 25.7262 71.9669L49.4722 57.0381C54.373 56.8822 58.4837 59.0711 61.5459 61.4948C67.5763 66.2632 70.5702 73.6112 66.9357 79.3619C64.9903 82.4391 60.7387 84.2093 57.1875 81.6041C53.7622 79.0928 54.5139 73.4703 59.2076 70.7412" stroke="black" stroke-width="1.72881" stroke-linecap="round" stroke-linejoin="round"/>
<path d="M35.2396 70.5116C35.009 72.8926 34.8617 75.4615 35.4062 78.4981L38.304 80.4264L59.3059 80.0869L57.4118 66.7725" fill="#FFCFCF"/>
<path d="M35.2396 70.5116C35.009 72.8926 34.8617 75.4615 35.4062 78.4981L38.304 80.4264L59.3059 80.0869L57.4118 66.7725" stroke="black" stroke-width="1.72881" stroke-linecap="round" stroke-linejoin="round"/>
<path d="M36.9929 81.9388L61.9219 81.7295L61.5631 78.915L35.8355 79.1948" fill="white"/>
<path d="M36.9929 81.9388L61.9219 81.7295L61.5631 78.915L35.8355 79.1948" stroke="black" stroke-width="1.72881" stroke-linecap="round" stroke-linejoin="round"/>
<path d="M14.4959 39.3162C12.7299 37.3687 8.58717 35.3208 5.51856 39.3034C2.46917 43.2582 5.97341 47.023 7.99139 47.6209" fill="#FAAA30"/>
<path d="M14.4959 39.3162C12.7299 37.3687 8.58717 35.3208 5.51856 39.3034C2.46917 43.2582 5.97341 47.023 7.99139 47.6209" stroke="black" stroke-width="1.72881" stroke-linecap="round" stroke-linejoin="round"/>
<path d="M11.0408 64.4499C2.593 52.3143 8.41418 39.2796 17.857 32.7474C22.1194 29.7983 26.7426 28.5 31.985 28.5C39.2135 28.5 45.1969 31.3401 49.8009 38.118C57.828 49.9333 52.4489 61.9707 42.344 68.834C32.3993 75.5905 19.0678 76.2653 11.0408 64.4499Z" fill="#FAAA30" stroke="black" stroke-width="1.72881" stroke-linecap="round" stroke-linejoin="round"/>
<path d="M30.7721 53.9179C27.5882 54.77 26.6486 57.5759 27.6331 59.406C28.436 60.9008 30.5949 61.4645 32.1623 60.5911C33.8557 59.6473 34.3191 58.1183 34.0586 56.8947C35.0451 57.6656 36.3499 57.8535 37.9429 56.7474C39.4164 55.7224 40.025 53.9628 38.9679 52.1861C37.9045 50.3987 34.7056 49.6108 32.4826 52.8502L31.8783 53.7877" fill="white"/>
<path d="M30.7721 53.9179C27.5882 54.77 26.6486 57.5759 27.6331 59.406C28.436 60.9008 30.5949 61.4645 32.1623 60.5911C33.8557 59.6473 34.3191 58.1183 34.0586 56.8947C35.0451 57.6656 36.3499 57.8535 37.9429 56.7474C39.4164 55.7224 40.025 53.9628 38.9679 52.1861C37.9045 50.3987 34.7056 49.6108 32.4826 52.8502L31.8783 53.7877" stroke="black" stroke-width="1.72881" stroke-linecap="round" stroke-linejoin="round"/>
<path d="M29.6298 54.1879C29.9629 54.9118 31.8399 55.6378 32.6941 55.0506C33.4607 54.521 33.6017 52.7764 33.1084 51.809C32.5318 50.6794 28.7073 52.1806 29.6298 54.19" fill="black"/>
<path d="M37.7991 45.2906C38.5261 44.7973 38.7188 43.8127 38.2294 43.0915C37.74 42.3703 36.7539 42.1856 36.0269 42.679C35.2999 43.1723 35.1072 44.1569 35.5966 44.8781C36.086 45.5993 37.0721 45.784 37.7991 45.2906Z" fill="black"/>
<path d="M22.251 55.8541C22.978 55.3607 23.1706 54.3762 22.6813 53.655C22.1919 52.9338 21.2058 52.7491 20.4787 53.2424C19.7517 53.7358 19.559 54.7204 20.0484 55.4416C20.5378 56.1627 21.5239 56.3474 22.251 55.8541Z" fill="black"/>
<path d="M30.96 41.6074C30.96 41.6074 33.8984 39.4314 37.5329 37.1807" stroke="black" stroke-width="1.98814" stroke-linecap="round" stroke-linejoin="round"/>
<path d="M14.4959 52.793C14.4959 52.793 17.4342 50.617 21.0687 48.3662" stroke="black" stroke-width="1.98814" stroke-linecap="round" stroke-linejoin="round"/>
<path d="M36.5699 72.3598C39.0662 72.5371 39.2242 71.2345 40.6229 71.1789C42.2202 71.117 42.1198 73.1542 45.5536 72.9898C49.1155 72.819 48.8486 68.4819 50.8665 68.8065C52.5044 69.0691 51.7271 72.362 55.5816 72.3065C56.8564 72.2872 57.7255 71.5484 58.3704 70.6707C59.2075 69.5283 59.5535 68.4563 59.4702 67.175C59.3634 65.5521 58.742 63.9975 57.2878 62.7846C56.1432 61.83 54.548 61.0485 52.6987 60.7559C50.7384 60.4484 48.65 60.6107 45.4596 60.6833C35.3206 60.9203 33.2813 64.9072 33.2813 68.2321C33.2813 70.9483 34.9619 72.2424 36.572 72.3577L36.5699 72.3598Z" fill="white" stroke="black" stroke-width="1.72881" stroke-linecap="round" stroke-linejoin="round"/>
<path d="M43.6915 68.6263C44.3685 68.6263 44.9173 68.0775 44.9173 67.4005C44.9173 66.7236 44.3685 66.1748 43.6915 66.1748C43.0146 66.1748 42.4658 66.7236 42.4658 67.4005C42.4658 68.0775 43.0146 68.6263 43.6915 68.6263Z" fill="#FFCFCF" stroke="black" stroke-width="1.72881" stroke-linecap="round" stroke-linejoin="round"/>
<path d="M52.8824 66.1458C53.5594 66.1458 54.1082 65.597 54.1082 64.9201C54.1082 64.2431 53.5594 63.6943 52.8824 63.6943C52.2055 63.6943 51.6567 64.2431 51.6567 64.9201C51.6567 65.597 52.2055 66.1458 52.8824 66.1458Z" fill="#FFCFCF" stroke="black" stroke-width="1.72881" stroke-linecap="round" stroke-linejoin="round"/>
<path d="M38.7609 63.4554C39.4378 63.4554 39.9866 62.9066 39.9866 62.2296C39.9866 61.5527 39.4378 61.0039 38.7609 61.0039C38.0839 61.0039 37.5351 61.5527 37.5351 62.2296C37.5351 62.9066 38.0839 63.4554 38.7609 63.4554Z" fill="#FFCFCF" stroke="black" stroke-width="1.72881" stroke-linecap="round" stroke-linejoin="round"/>
<path d="M44.3706 55.2203C44.4581 54.9299 44.6204 54.727 44.8275 54.5754C45.2354 54.2721 45.891 54.0757 46.7537 54.0714C47.7082 54.0671 48.2207 54.176 48.6243 54.3383C49.0343 54.5028 49.2479 54.7718 49.3525 55.0729C49.4764 55.4338 49.3845 55.7477 49.3098 55.9335C49.186 56.241 48.9703 56.4054 48.9041 56.745C48.7973 57.2874 48.8315 59.4506 48.8293 60.2684C48.8272 60.924 48.4727 61.4173 46.6042 61.4258C45.6326 61.4301 44.6909 61.1824 44.7208 60.2385C44.7528 59.252 44.7912 57.3322 44.7336 56.8987C44.6994 56.6361 44.4816 56.4225 44.3706 56.0851C44.298 55.8652 44.2638 55.579 44.3727 55.2203H44.3706Z" fill="#F9E36A"/>
<path d="M48.8827 56.8674C48.8314 56.7777 49.2735 56.1542 49.4037 55.4922C48.9275 56.009 47.0206 57.0895 44.7506 57.2262C44.7506 57.2262 44.757 57.8689 44.757 58.2704C45.7906 58.2704 47.4883 58.1017 48.8827 56.8653V56.8674Z" fill="white"/>
<path d="M48.8336 57.8408C48.0499 58.3469 46.711 59.1584 44.7506 59.1541C44.7506 59.1541 44.7506 59.7777 44.7506 60.1791C45.6561 60.1791 47.4626 59.9207 48.8165 58.9043" fill="white"/>
<path d="M44.3706 55.2203C44.4581 54.9299 44.6204 54.727 44.8275 54.5754C45.2354 54.2721 45.891 54.0757 46.7537 54.0714C47.7082 54.0671 48.2207 54.176 48.6243 54.3383C49.0343 54.5028 49.2479 54.7718 49.3525 55.0729C49.4764 55.4338 49.3845 55.7477 49.3098 55.9335C49.186 56.241 48.9703 56.4054 48.9041 56.745C48.7973 57.2874 48.8315 59.4506 48.8293 60.2684C48.8272 60.924 48.4727 61.4173 46.6042 61.4258C45.6326 61.4301 44.6909 61.1824 44.7208 60.2385C44.7528 59.252 44.7912 57.3322 44.7336 56.8987C44.6994 56.6361 44.4816 56.4225 44.3706 56.0851C44.298 55.8652 44.2638 55.579 44.3727 55.2203H44.3706Z" stroke="black" stroke-width="1.72881" stroke-linecap="round" stroke-linejoin="round"/>
<path d="M46.9438 47.4455C46.9438 47.4455 44.6289 49.7923 44.6396 52.0901C44.6503 54.1849 45.9849 54.518 46.8413 54.5437C47.6976 54.5693 49.2372 53.9521 49.2287 52.0879C49.2201 49.818 46.9416 47.4434 46.9416 47.4434L46.9438 47.4455Z" fill="#CD2F32" stroke="black" stroke-width="1.72881" stroke-linecap="round" stroke-linejoin="round"/>
<path d="M46.9288 50.6143C46.9288 50.6143 46.1408 51.4215 46.1451 52.2671C46.1494 53.038 46.5914 53.2173 46.8946 53.2259C47.1979 53.2344 47.7403 53.0081 47.7381 52.3226C47.7339 51.4876 46.9309 50.6143 46.9309 50.6143H46.9288Z" fill="#F9BA06"/>
<path d="M66.9336 79.36C64.9882 82.4371 60.7365 84.2074 57.1853 81.6022C53.7601 79.0909 54.5118 73.4683 59.2054 70.7393" fill="#FAAA30"/>
<path d="M66.9336 79.36C64.9882 82.4371 60.7365 84.2074 57.1853 81.6022C53.7601 79.0909 54.5118 73.4683 59.2054 70.7393" stroke="black" stroke-width="1.72881" stroke-linecap="round" stroke-linejoin="round"/>
<path d="M30.8918 77.9398C33.7041 75.9346 39.1965 75.6677 40.9048 78.6232C42.6452 81.632 40.5567 86.2829 35.8502 87.829C34.6672 88.2176 33.5098 88.4162 32.4037 88.4547" fill="#FAAA30"/>
<path d="M30.8918 77.9398C33.7041 75.9346 39.1965 75.6677 40.9048 78.6232C42.6452 81.632 40.5567 86.2829 35.8502 87.829C34.6672 88.2176 33.5098 88.4162 32.4037 88.4547" stroke="black" stroke-width="1.72881" stroke-linecap="round" stroke-linejoin="round"/>
</g>
<defs>
<clipPath id="clip0_3359_38481">
<rect width="102" height="102" fill="white"/>
</clipPath>
</defs>
</svg>
