<svg width="102" height="102" viewBox="0 0 102 102" fill="none" xmlns="http://www.w3.org/2000/svg">
<g clip-path="url(#clip0_3359_37657)">
<path d="M90.2872 65.6385C90.6887 65.3772 91.0734 65.0797 91.4363 64.7579C94.9562 61.6251 94.4724 54.5876 88.4171 47.7583C83.6827 42.4191 76.5437 40.5346 69.8425 40.433C67.416 38.5436 65.8097 29.6652 65.5968 27.9717C65.0621 23.6898 63.6324 16.6209 57.0159 17.6128C49.8284 18.6893 51.7541 29.0942 52.417 31.7747C52.417 31.7747 54.6499 43.1667 55.3974 46.8438L46.5311 68.3286C45.2803 68.8512 40.9621 77.7635 50.38 76.0894C59.2609 76.595 66.6637 76.9433 74.8502 76.416C80.8982 78.1336 89.5735 79.4859 92.1306 72.0445C93.0813 69.2745 92.0096 67.1795 90.2847 65.6409L90.2872 65.6385Z" fill="#FFD677"/>
<path d="M60.4643 24.4353C60.5054 25.5384 59.6515 26.3948 57.9217 26.3561C56.2863 26.3198 55.3719 25.3739 55.5049 24.278C55.6453 23.1095 56.6783 22.3136 58.0475 22.3572C59.4168 22.4007 60.4159 23.1458 60.4643 24.4353Z" fill="#E6756A"/>
<path d="M61.1175 21.5181C61.1296 21.9874 60.8732 22.4108 60.2926 22.389C59.8233 22.372 59.4797 22.089 59.4362 21.6221C59.3902 21.1286 59.7797 20.6714 60.2466 20.6931C60.774 20.7149 61.1054 21.0512 61.1175 21.5181Z" fill="#E6756A"/>
<path d="M58.1637 21.5987C57.7307 21.7753 57.2711 21.6325 57.0582 21.1318C56.8743 20.7011 57.0533 20.2657 57.4743 20.0601C57.9194 19.8423 58.4831 20.048 58.6307 20.4931C58.7952 20.9939 58.5992 21.4221 58.1637 21.5987Z" fill="#E6756A"/>
<path d="M55.8245 22.4506C55.3915 22.6272 54.9318 22.4844 54.7189 21.9837C54.5351 21.5531 54.7141 21.1176 55.135 20.912C55.5802 20.6942 56.1608 20.9555 56.2914 21.345C56.4583 21.8458 56.26 22.274 55.8245 22.4506Z" fill="#E6756A"/>
<path d="M74.8507 76.4141C80.8987 78.1317 89.574 79.484 92.1311 72.0426C93.0818 69.2727 92.0101 67.1776 90.2852 65.639C90.6868 65.3778 91.0715 65.0802 91.4344 64.7585C94.9543 61.6256 94.4704 54.5882 88.4152 47.7588C84.3413 43.1648 78.4844 41.1278 72.6589 40.5859C60.7903 49.1305 59.1356 68.0026 60.021 76.5592C65.0215 76.7334 69.7849 76.7431 74.8507 76.4165V76.4141Z" fill="#A37944"/>
<path d="M52.4845 31.4394C51.8217 28.759 49.896 18.354 57.0834 17.2775C63.6975 16.2881 65.0619 23.6908 65.5966 27.9727C65.8071 29.6637 67.4158 38.0559 69.8423 39.9429C76.5435 40.0421 83.6825 42.4201 88.4169 47.7568C94.4722 54.5862 94.9536 61.6236 91.4361 64.7565C88.3467 67.5071 83.7261 68.4627 79.5336 60.4527" stroke="black" stroke-width="1.72881" stroke-linecap="round" stroke-linejoin="round"/>
<path d="M52.4917 29.0933C47.4574 24.7291 41.5303 22.6171 35.4726 22.9921C33.5349 21.3785 31.6261 20.6721 30.1117 21.0326C28.2441 21.4753 26.7297 22.6824 25.8225 25.7088C22.7864 27.424 20.0212 29.5554 17.302 32.4245C14.5804 35.2937 13.2668 37.2847 11.6967 40.3546C8.72112 41.419 7.5962 42.9964 7.25267 44.8857C6.97446 46.4171 7.78006 48.2871 9.49285 50.1354C9.56301 54.9471 11.6097 61.5854 16.2279 66.385C25.266 75.7763 37.8459 77.8762 50.8467 64.2465C63.7724 50.5442 61.225 36.6678 52.4917 29.0957V29.0933Z" fill="#FFD677" stroke="black" stroke-width="1.72881" stroke-linecap="round" stroke-linejoin="round"/>
<path d="M25.1241 52.3317C26.2785 52.3317 27.2143 51.3959 27.2143 50.2415C27.2143 49.0872 26.2785 48.1514 25.1241 48.1514C23.9697 48.1514 23.0339 49.0872 23.0339 50.2415C23.0339 51.3959 23.9697 52.3317 25.1241 52.3317Z" fill="black"/>
<path d="M36.2989 40.6784C37.4533 40.6784 38.3891 39.7426 38.3891 38.5882C38.3891 37.4339 37.4533 36.498 36.2989 36.498C35.1445 36.498 34.2087 37.4339 34.2087 38.5882C34.2087 39.7426 35.1445 40.6784 36.2989 40.6784Z" fill="black"/>
<path d="M40.8055 50.1279C40.8055 50.1279 43.5585 52.4116 41.9376 54.3518C40.2878 56.3283 37.6049 54.1873 37.6049 54.1873L37.9024 51.1392L40.803 50.1279H40.8055Z" fill="#B23F3C" stroke="black" stroke-width="1.72881" stroke-linecap="round" stroke-linejoin="round"/>
<path d="M33.1201 46.9992C30.0187 50.2675 30.1106 53.918 32.2976 55.3042C34.6853 56.8162 37.9464 54.7768 37.644 51.2908C41.1422 51.4093 43.0074 48.0467 41.3696 45.7412C39.8721 43.6292 36.2215 43.7308 33.1201 47.0016V46.9992Z" fill="white" stroke="black" stroke-width="1.72881" stroke-linecap="round" stroke-linejoin="round"/>
<path d="M28.2579 54.5786L30.7279 53.4658" stroke="black" stroke-width="1.72881" stroke-linecap="round" stroke-linejoin="round"/>
<path d="M32.6785 58.0164L32.7873 55.6553" stroke="black" stroke-width="1.72881" stroke-linecap="round" stroke-linejoin="round"/>
<path d="M40.719 41.332L39.6691 44.0415" stroke="black" stroke-width="1.72881" stroke-linecap="round" stroke-linejoin="round"/>
<path d="M44.5034 45.0693L42.1907 46.3297" stroke="black" stroke-width="1.72881" stroke-linecap="round" stroke-linejoin="round"/>
<path d="M50.3826 76.0877C40.9308 82.0534 36.0803 78.4391 33.1966 76.0659C30.3129 73.6927 27.7873 67.4705 32.9232 64.2433C38.0592 61.0161 41.0808 65.0634 42.4597 67.0351C43.8387 69.0067 45.2854 68.8495 46.5361 68.3269C46.5361 68.3269 47.586 69.4156 49.0182 72.2968C50.4504 75.1781 50.385 76.0877 50.385 76.0877H50.3826Z" fill="#FFD677"/>
<path d="M46.6327 68.1773C45.382 68.6998 43.9184 68.5401 42.5419 66.5685C41.1629 64.5969 38.0591 61.0189 32.9231 64.2461C27.7872 67.4733 30.3128 73.6954 33.1965 76.0687C36.0802 78.4419 40.9307 82.0537 50.3825 76.0904C59.2634 76.596 66.6661 76.9444 74.8527 76.417C82.1127 77.7645 90.4977 79.0443 92.5419 72.1689C93.304 69.6022 92.7572 66.987 91.0396 65.521" stroke="black" stroke-width="1.72881" stroke-linecap="round" stroke-linejoin="round"/>
</g>
<defs>
<clipPath id="clip0_3359_37657">
<rect width="102" height="102" fill="white"/>
</clipPath>
</defs>
</svg>
