<svg width="102" height="102" viewBox="0 0 102 102" fill="none" xmlns="http://www.w3.org/2000/svg">
<ellipse opacity="0.5" cx="50.5678" cy="89.0337" rx="26.3644" ry="8.64407" fill="black"/>
<path d="M35.9081 57.8425L63.4851 58.8035L66.2131 64.4146L63.9147 71.4162C63.9147 71.4162 66.8376 79.7022 60.9741 82.8554C60.8324 82.9306 57.874 88.5727 57.874 88.5727L51.9928 89.7994C51.9928 89.7994 38.0427 83.1211 37.8833 83.0104C37.7238 82.9041 32.4316 72.0008 32.4316 72.0008L34.5707 63.5023L35.4254 57.6211L35.638 57.7274L35.8992 57.8337" fill="#FAAA30"/>
<path d="M64.3354 77.293C65.2964 78.1477 64.7339 85.8358 63.7242 88.1918C62.4798 91.0925 60.075 91.2697 58.7376 91.3538C56.1336 91.5133 53.9901 90.0562 53.5782 89.1262" fill="#FAAA30"/>
<path d="M64.3354 77.293C65.2964 78.1477 64.7339 85.8358 63.7242 88.1918C62.4798 91.0925 60.075 91.2697 58.7376 91.3538C56.1336 91.5133 53.9901 90.0562 53.5782 89.1262" stroke="black" stroke-width="1.64806" stroke-linecap="round" stroke-linejoin="round"/>
<path d="M34.9471 60.8145C34.9471 60.8145 34.2872 67.8515 33.9817 73.3386C33.7691 77.187 32.7505 83.0107 35.7531 86.6599C37.808 89.1576 40.412 89.5872 43.1932 89.1576" fill="#FAAA30"/>
<path d="M34.9471 60.8145C34.9471 60.8145 34.2872 67.8515 33.9817 73.3386C33.7691 77.187 32.7505 83.0107 35.7531 86.6599C37.808 89.1576 40.412 89.5872 43.1932 89.1576" stroke="black" stroke-width="1.64806" stroke-linecap="round" stroke-linejoin="round"/>
<path d="M42.2321 82.7446C42.5155 85.0607 42.1258 88.1962 43.1931 89.4805C44.3622 90.8844 45.7572 91.438 48.4321 91.438C50.4826 91.438 52.5994 90.7604 53.4542 88.3025C54.0565 86.5753 54.9245 77.5277 53.0113 77.1689" fill="#FAAA30"/>
<path d="M42.2321 82.7446C42.5155 85.0607 42.1258 88.1962 43.1931 89.4805C44.3622 90.8844 45.7572 91.438 48.4321 91.438C50.4826 91.438 52.5994 90.7604 53.4542 88.3025C54.0565 86.5753 54.9245 77.5277 53.0113 77.1689" stroke="black" stroke-width="1.64806" stroke-linecap="round" stroke-linejoin="round"/>
<path d="M44.1187 69.0652L46.736 66.3947L49.5659 68.2636L52.3338 66.2397L54.8581 68.2105L57.1034 66.1777L60.2034 69.7605C60.2034 69.7605 54.5924 69.9731 54.1096 70.9341C53.6269 71.8951 52.5065 70.1325 49.3533 69.8623C46.2001 69.5966 44.1143 69.0608 44.1143 69.0608" fill="white"/>
<path d="M61.5587 67.5681C61.5587 67.7806 61.665 69.654 59.4197 69.8134C57.1744 69.9728 54.3179 70.2828 53.7821 71.8328C53.2462 73.3828 52.0461 77.6697 55.2524 78.365C58.4587 79.0603 65.1725 79.7025 67.5595 74.8576C70.8544 68.1659 67.5595 60.748 64.0166 59.9287" fill="#FAAA30"/>
<path d="M61.5587 67.5681C61.5587 67.7806 61.665 69.654 59.4197 69.8134C57.1744 69.9728 54.3179 70.2828 53.7821 71.8328C53.2462 73.3828 52.0461 77.6697 55.2524 78.365C58.4587 79.0603 65.1725 79.7025 67.5595 74.8576C70.8544 68.1659 67.5595 60.748 64.0166 59.9287" stroke="black" stroke-width="1.64806" stroke-linecap="round" stroke-linejoin="round"/>
<path d="M34.6194 59.4639C30.7709 63.9545 30.5716 71.43 33.5521 74.8577C37.8257 79.7735 45.3411 79.9374 49.7475 79.1889C53.9946 78.4626 54.3134 75.4777 54.1141 73.6664C53.9946 72.5903 53.2196 70.159 50.2391 70.1147C45.7263 70.0527 41.0364 69.7294 40.1684 67.0368" fill="#FAAA30"/>
<path d="M34.6194 59.4639C30.7709 63.9545 30.5716 71.43 33.5521 74.8577C37.8257 79.7735 45.3411 79.9374 49.7475 79.1889C53.9946 78.4626 54.3134 75.4777 54.1141 73.6664C53.9946 72.5903 53.2196 70.159 50.2391 70.1147C45.7263 70.0527 41.0364 69.7294 40.1684 67.0368" stroke="black" stroke-width="1.64806" stroke-linecap="round" stroke-linejoin="round"/>
<path d="M43.4278 17.8566C42.4978 15.1108 39.7609 11.8337 35.1242 13.707C30.0091 15.7707 31.2403 21.3197 32.8257 23.0159" fill="#FAAA30"/>
<path d="M43.4278 17.8566C42.4978 15.1108 39.7609 11.8337 35.1242 13.707C30.0091 15.7707 31.2403 21.3198 32.8257 23.0159" stroke="black" stroke-width="1.64806" stroke-linecap="round" stroke-linejoin="round"/>
<path d="M43.605 19.1498C43.202 16.2712 40.6865 11.8293 35.4076 13.5609C30.1686 15.2837 31.0322 20.8991 32.5025 22.6972" fill="#FAAA30"/>
<path d="M43.605 19.1498C43.202 16.2712 40.6865 11.8293 35.4076 13.5609C30.1686 15.2837 31.0322 20.8991 32.5025 22.6972" stroke="black" stroke-width="1.64806" stroke-linecap="round" stroke-linejoin="round"/>
<path d="M58.6932 19.77C59.0962 16.8914 61.6117 12.4495 66.8906 14.181C72.1297 15.9038 71.2661 21.5193 69.7958 23.3173" fill="#FAAA30"/>
<path d="M58.6932 19.77C59.0962 16.8914 61.6117 12.4495 66.8906 14.181C72.1297 15.9038 71.2661 21.5193 69.7958 23.3173" stroke="black" stroke-width="1.64806" stroke-linecap="round" stroke-linejoin="round"/>
<path d="M24.6328 40.5051C24.6328 24.6639 36.8204 15.3594 51.0407 15.3594C65.2609 15.3594 77.4485 24.4646 77.4485 40.5051C77.4485 56.5455 64.8092 64.4196 51.0407 64.4196C37.2721 64.4196 24.6328 56.6075 24.6328 40.5051Z" fill="#FAAA30"/>
<path d="M24.6328 40.5051C24.6328 24.6639 36.8204 15.3594 51.0407 15.3594C65.2609 15.3594 77.4485 24.4646 77.4485 40.5051C77.4485 56.5455 64.8092 64.4196 51.0407 64.4196C37.2721 64.4196 24.6328 56.6075 24.6328 40.5051Z" stroke="black" stroke-width="1.64806" stroke-linecap="round" stroke-linejoin="round"/>
<path d="M66.1334 41.6164C67.5904 39.6988 65.4292 37.5332 63.5116 38.9902C62.0546 40.9078 64.2158 43.0734 66.1334 41.6164Z" fill="black"/>
<path d="M60.7792 34.2606C60.7792 34.2606 64.8978 34.0923 69.7118 34.296L60.7792 34.2606Z" fill="#13110C"/>
<path d="M60.7792 34.2606C60.7792 34.2606 64.8978 34.0923 69.7118 34.296" stroke="black" stroke-width="1.64806" stroke-miterlimit="10"/>
<path d="M60.7792 34.2606C60.7792 34.2606 64.8978 34.0923 69.7118 34.296" stroke="black" stroke-width="1.97767" stroke-linecap="round" stroke-linejoin="round"/>
<path d="M44.9382 41.6742C46.3775 39.7787 44.2429 37.6353 42.3474 39.079C40.9037 40.9745 43.0427 43.1179 44.9382 41.6742Z" fill="black"/>
<path d="M52.8032 45.7792C49.2957 44.5569 46.643 46.5763 46.3994 48.9058C46.2001 50.8056 47.8564 52.7011 49.8714 52.8782C52.0503 53.0687 53.4498 51.9394 53.9812 50.6329C54.4152 51.9748 55.5091 52.9801 57.6968 52.9535C59.7207 52.9314 61.4036 51.6737 61.5408 49.3486C61.6826 47.0103 59.1981 44.2469 55.0751 45.8633L53.9192 46.3549" fill="white"/>
<path d="M52.8032 45.7792C49.2957 44.5569 46.643 46.5763 46.3994 48.9058C46.2001 50.8056 47.8564 52.7011 49.8714 52.8782C52.0503 53.0687 53.4498 51.9394 53.9812 50.6329C54.4152 51.9748 55.5091 52.9801 57.6968 52.9535C59.7207 52.9314 61.4036 51.6737 61.5408 49.3486C61.6826 47.0103 59.1981 44.2469 55.0751 45.8633L53.9192 46.3549" stroke="black" stroke-width="1.64806" stroke-linecap="round" stroke-linejoin="round"/>
<path d="M38.3439 34.3085C38.3439 34.3085 42.4625 34.1402 47.2764 34.3439L38.3439 34.3085Z" fill="#13110C"/>
<path d="M38.3439 34.3085C38.3439 34.3085 42.4625 34.1402 47.2764 34.3439" stroke="black" stroke-width="1.64806" stroke-miterlimit="10"/>
<path d="M38.3439 34.3085C38.3439 34.3085 42.4625 34.1402 47.2764 34.3439" stroke="black" stroke-width="1.97767" stroke-linecap="round" stroke-linejoin="round"/>
<path d="M51.5633 45.3097C51.4171 46.1954 52.7058 48.0643 53.875 48.051C54.9246 48.0421 56.1602 46.5054 56.3152 45.292C56.4923 43.8748 51.9751 42.8518 51.5633 45.3053" fill="black"/>
<path d="M44.3652 44.5116C44.3652 44.5116 42.9415 45.9867 43.4845 47.8397C44.0275 49.6955 43.3332 52.0191 41.7204 53.1055C40.013 54.2581 40.6506 56.0662 41.2936 57.314C42.2688 59.212 43.1978 60.6986 40.6097 62.2133L37.4802 60.7529L34.3506 59.0296C34.3506 59.0296 37.3925 58.4956 36.5415 56.2751C35.8905 54.5753 36.6037 52.2966 38.2759 51.2287C39.8482 50.2268 40.2291 49.1112 39.7915 47.2529C39.3971 45.5769 40.013 44.2816 40.9883 43.6445" fill="#3FABD5"/>
<path d="M64.6191 44.336C64.6191 44.336 65.7734 45.5125 65.3331 46.9905C64.8929 48.4707 65.4558 50.324 66.7633 51.1906C68.1475 52.1099 67.6307 53.5521 67.1094 54.5473C66.3187 56.0612 65.8171 57.2968 67.9153 58.5049C67.9153 58.5049 68.6975 58.1139 69.0885 57.7228C69.4796 57.3317 71.826 55.3764 71.826 55.3764C71.826 55.3764 70.272 55.4919 70.9619 53.7208C71.4898 52.365 70.9116 50.5475 69.5558 49.6957C68.2811 48.8966 67.9723 48.0068 68.3271 46.5246C68.6469 45.1878 68.1475 44.1546 67.3569 43.6465" fill="#3FABD5"/>
<path d="M72.2172 55.3765C72.2172 55.3765 70.1473 55.49 70.8372 53.7188C71.365 52.3631 70.7868 50.5456 69.4311 49.6938C68.1564 48.8946 67.8476 48.0049 68.2024 46.5226C68.5221 45.1858 68.0228 44.1527 67.2321 43.6445" stroke="black" stroke-width="1.40085" stroke-linecap="round" stroke-linejoin="round"/>
<path d="M68.3381 59.0281C68.3381 59.0281 65.9048 57.4257 66.5947 55.6546C67.1225 54.2988 67.9504 51.6969 66.5947 50.8451C65.32 50.046 65.0112 49.1562 65.366 47.674C65.6858 46.3372 65.1864 45.304 64.3958 44.7959" stroke="black" stroke-width="1.40085" stroke-linecap="round" stroke-linejoin="round"/>
<path d="M34.3506 59.0837C34.3506 59.0837 37.219 58.5479 36.4166 56.3195C35.8026 54.6138 36.4752 52.3271 38.0521 51.2554C39.5347 50.25 39.8939 49.1305 39.4812 47.2656C39.1093 45.5837 39.6901 44.2839 40.6097 43.6445" stroke="black" stroke-width="1.64806" stroke-linecap="round" stroke-linejoin="round"/>
<path d="M43.9479 44.4785C43.9479 44.4785 42.4727 45.9395 43.0354 47.775C43.598 49.613 42.8786 51.9145 41.2074 52.9906C39.4382 54.1322 40.0989 55.9232 40.7651 57.159C41.7757 59.0389 42.6655 60.9211 39.9838 62.4214" stroke="black" stroke-width="1.64806" stroke-linecap="round" stroke-linejoin="round"/>
</svg>
