<svg width="102" height="102" viewBox="0 0 102 102" fill="none" xmlns="http://www.w3.org/2000/svg">
<g clip-path="url(#clip0_3359_39021)">
<path d="M22.9123 28.0141C19.8456 28.0141 15.5567 27.3698 12.8434 24.8627C10.8259 22.9962 9.97549 19.2668 12.2249 16.7523C14.8388 13.8292 18.7964 15.7547 18.7964 15.7547C18.7964 15.7547 18.524 11.3626 22.2239 10.0593C25.4047 8.94016 28.361 11.1896 29.3145 13.7629C30.7135 17.5328 29.3587 22.2231 28.0775 25.0505C28.7107 26.6335 28.453 27.4729 27.9118 27.7675C27.4664 28.0067 26.8037 27.8816 26.2552 27.3367C26.2552 27.3367 28.3868 30.1199 27.2418 30.963C26.2662 31.6846 24.2966 29.9027 22.9087 28.0141H22.9123Z" fill="#FFAAB1" stroke="#E15F69" stroke-width="1.55593" stroke-linecap="round" stroke-linejoin="round"/>
<path d="M35.6616 35.6531C35.6027 33.0319 37.8595 28.4484 42.5903 29.1515C46.4043 29.7185 45.6717 34.232 43.8052 35.204" fill="#FFDD70"/>
<path d="M35.6616 35.6531C35.6027 33.0319 37.8595 28.4484 42.5903 29.1515C46.4043 29.7185 45.6717 34.232 43.8052 35.204" stroke="black" stroke-width="1.72881" stroke-linecap="round" stroke-linejoin="round"/>
<path d="M41.1507 32.1406C40.3445 32.737 39.5713 34.1397 39.4462 34.8944" stroke="black" stroke-width="1.72881" stroke-linecap="round" stroke-linejoin="round"/>
<path d="M59.7535 35.974C61.0789 34.8512 64.4548 34.0376 67.0503 35.0831C69.7452 36.1655 70.1281 38.5511 69.377 39.858C68.7769 40.8999 67.1129 41.1576 66.3435 40.9883" fill="#FFDD70"/>
<path d="M59.7535 35.974C61.0789 34.8512 64.4548 34.0376 67.0503 35.0831C69.7452 36.1655 70.1281 38.5511 69.377 39.858C68.7769 40.8999 67.1129 41.1576 66.3435 40.9883" stroke="black" stroke-width="1.72881" stroke-linecap="round" stroke-linejoin="round"/>
<path d="M66.3472 37.4578C65.4636 37.421 63.3357 37.7633 62.5663 38.3229" stroke="black" stroke-width="1.72881" stroke-linecap="round" stroke-linejoin="round"/>
<path d="M76.1731 50.0625C77.4837 49.7753 81.0106 49.9557 82.1077 52.8126C83.1054 55.4117 81.2425 57.4918 80.7676 57.5912" fill="#FFDD70"/>
<path d="M76.1731 50.0625C77.4837 49.7753 81.0106 49.9557 82.1077 52.8126C83.1054 55.4117 81.2425 57.4918 80.7676 57.5912" stroke="black" stroke-width="1.72881" stroke-linecap="round" stroke-linejoin="round"/>
<path d="M79.8694 53.1444C79.4313 53.0523 78.4078 52.9787 77.9955 53.0192" stroke="black" stroke-width="1.72881" stroke-linecap="round" stroke-linejoin="round"/>
<path d="M85.9216 66.7324C88.7122 67.3656 90.7297 71.1944 88.5134 73.7273L85.9216 66.7324Z" fill="#FFDD70"/>
<path d="M85.9216 66.7324C88.7122 67.3656 90.7297 71.1944 88.5134 73.7273" stroke="black" stroke-width="1.72881" stroke-linecap="round" stroke-linejoin="round"/>
<path d="M62.8792 87.6179L42.2111 71.04L37.6387 81.5581L46.6805 85.56L62.8792 87.6179Z" fill="#90EBA5"/>
<path d="M68.3756 90.0075C72.3406 91.1598 77.9734 92.3305 80.7566 92.6103C87.4533 93.2804 90.6672 91.631 90.6672 84.8534C90.6672 74.3242 80.3075 49.1537 66.2993 39.2283C52.5967 29.5164 39.7408 32.2444 31.104 38.1496C18.2923 46.9116 17.6112 66.9943 29.6314 76.7466C30.4781 77.4351 31.3285 78.0462 32.3262 78.6794C34.2038 80.6785 38.8278 84.2901 41.7288 82.4714C44.1991 80.9252 43.7978 77.8916 41.9055 75.8815" fill="#90EBA5"/>
<path d="M68.3757 90.0075C72.3406 91.1598 77.9734 92.3305 80.7566 92.6103C87.4533 93.2804 90.6672 91.631 90.6672 84.8534C90.6672 74.3242 80.3075 49.1537 66.2993 39.2283C52.5967 29.5164 39.7408 32.2444 31.104 38.1496C18.2923 46.9116 17.6112 66.9943 29.6314 76.7466C30.4781 77.4351 31.3285 78.0462 32.3262 78.6794C34.2038 80.6785 38.8278 84.2901 41.7288 82.4714C44.1991 80.9252 43.7978 77.8916 41.9055 75.8815" stroke="black" stroke-width="1.72881" stroke-linecap="round" stroke-linejoin="round"/>
<path d="M77.7379 76.4746C79.0044 77.7411 79.7002 80.3071 77.9846 81.7097C76.1843 83.1823 73.7066 82.0558 72.5985 80.8004" fill="#90EBA5"/>
<path d="M77.7379 76.4746C79.0044 77.7411 79.7002 80.3071 77.9846 81.7097C76.1843 83.1823 73.7066 82.0558 72.5985 80.8004" stroke="black" stroke-width="1.72881" stroke-linecap="round" stroke-linejoin="round"/>
<path d="M40.6539 82.8945C46.5775 85.9428 58.1006 89.4734 58.1006 89.4734C60.9759 91.1964 66.0638 92.8457 67.761 90.8282C69.1857 89.1347 68.3279 87.0731 66.951 86.2189" fill="#90EBA5"/>
<path d="M40.6539 82.8945C46.5775 85.9428 58.1006 89.4734 58.1006 89.4734C60.9759 91.1964 66.0638 92.8457 67.761 90.8282C69.1857 89.1347 68.3279 87.0731 66.951 86.2189" stroke="black" stroke-width="1.72881" stroke-linecap="round" stroke-linejoin="round"/>
<path d="M63.1811 62.1533C63.7775 63.3056 64.7163 67.0792 61.1821 68.364C58.524 69.3286 56.7348 67.694 55.8696 65.6802" fill="#90EBA5"/>
<path d="M63.1811 62.1533C63.7775 63.3056 64.7163 67.0792 61.1821 68.364C58.524 69.3286 56.7348 67.694 55.8696 65.6802" stroke="black" stroke-width="1.72881" stroke-linecap="round" stroke-linejoin="round"/>
<path d="M30.5813 48.6965C34.1082 47.9786 37.7934 43.4062 36.8031 41.0206C35.8127 38.6349 32.6577 40.0082 33.5412 42.4195C34.5647 45.2065 39.336 45.6261 43.1647 43.2516" stroke="black" stroke-width="1.55593" stroke-linecap="round" stroke-linejoin="round"/>
<path d="M33.9352 52.9409C34.8562 52.9409 35.6029 52.1943 35.6029 51.2732C35.6029 50.3521 34.8562 49.6055 33.9352 49.6055C33.0141 49.6055 32.2675 50.3521 32.2675 51.2732C32.2675 52.1943 33.0141 52.9409 33.9352 52.9409Z" fill="black"/>
<path d="M33.8542 51.2103C33.9057 51.063 34.1782 50.8127 34.0383 50.5366C33.8505 50.1758 33.1326 50.2089 32.9338 50.8422C32.7792 51.3392 33.0038 51.5785 33.2909 51.619C33.6223 51.6631 33.7695 51.4533 33.8542 51.2103Z" fill="white"/>
<path d="M34.2592 52.0688C34.7231 52.2345 34.9734 51.4724 34.528 51.3141C34.0825 51.1558 33.7622 51.8921 34.2592 52.0688Z" fill="white"/>
<path d="M41.7658 49.2007C42.6868 49.2007 43.4335 48.454 43.4335 47.533C43.4335 46.6119 42.6868 45.8652 41.7658 45.8652C40.8447 45.8652 40.098 46.6119 40.098 47.533C40.098 48.454 40.8447 49.2007 41.7658 49.2007Z" fill="black"/>
<path d="M41.6849 47.4671C41.7364 47.3199 42.0089 47.0695 41.869 46.7934C41.6812 46.4326 40.9633 46.4658 40.7645 47.099C40.6099 47.596 40.8344 47.8353 41.1216 47.8758C41.4529 47.92 41.6002 47.7101 41.6849 47.4671Z" fill="white"/>
<path d="M42.0861 48.3247C42.55 48.4904 42.8004 47.7283 42.3549 47.57C41.9094 47.4117 41.5891 48.148 42.0861 48.3247Z" fill="white"/>
<path d="M42.3585 52.9193C41.3903 53.3721 40.1864 53.2837 39.185 52.8125C39.1151 53.8912 38.526 54.8557 37.5688 55.3307C37.9849 56.7959 40.1901 59.6049 42.6052 58.5704C44.711 57.6684 43.6397 54.1305 42.3511 52.9193H42.3585Z" fill="white"/>
<path d="M36.2949 55.6396C37.9921 55.6028 39.0892 54.3142 39.1886 52.8122C40.6281 53.4896 42.4983 53.3718 43.4628 51.9912" stroke="black" stroke-width="1.55593" stroke-linecap="round" stroke-linejoin="round"/>
<path d="M37.5762 55.334C37.9922 56.7956 40.1974 59.6083 42.6125 58.5701C44.7183 57.6681 43.647 54.1302 42.3585 52.9189" stroke="black" stroke-width="1.55593" stroke-linecap="round" stroke-linejoin="round"/>
<path d="M48.5251 46.8809L47.9471 48.9204" stroke="black" stroke-width="1.29661" stroke-linecap="round" stroke-linejoin="round"/>
<path d="M50.712 45.4893L49.9609 48.6001" stroke="black" stroke-width="1.29661" stroke-linecap="round" stroke-linejoin="round"/>
<path d="M52.5012 45.5928L52.0374 47.5403" stroke="black" stroke-width="1.29661" stroke-linecap="round" stroke-linejoin="round"/>
<path d="M27.8645 58.666L27.3822 60.7313" stroke="black" stroke-width="1.29661" stroke-linecap="round" stroke-linejoin="round"/>
<path d="M29.9813 57.1709L29.3812 60.3186" stroke="black" stroke-width="1.29661" stroke-linecap="round" stroke-linejoin="round"/>
<path d="M31.7779 57.1895L31.4023 59.1591" stroke="black" stroke-width="1.29661" stroke-linecap="round" stroke-linejoin="round"/>
</g>
<defs>
<clipPath id="clip0_3359_39021">
<rect width="102" height="102" fill="white"/>
</clipPath>
</defs>
</svg>
