<svg width="102" height="102" viewBox="0 0 102 102" fill="none" xmlns="http://www.w3.org/2000/svg">
<g clip-path="url(#clip0_3359_38549)">
<g opacity="0.5">
<path d="M24.3628 30.1494L32.1139 36.2074C50.0969 16.5986 82.3693 31.586 84.333 52.9653L94.9107 51.4778C90.3687 14.468 41.666 3.98388 24.3628 30.1494Z" fill="#F3B6DB"/>
<path d="M30.0503 34.5929L32.1158 36.2066C50.0987 16.5978 82.3711 31.5852 84.3349 52.9645L87.0597 52.5819C80.8815 24.0233 48.0963 16.264 30.0483 34.5929H30.0503Z" fill="#A36BF3"/>
<path d="M92.6294 51.7964L94.9127 51.4749C90.3686 14.4671 41.6659 3.98301 24.3627 30.1485L25.9744 31.4081C43.2736 8.28695 87.3731 17.7393 92.6294 51.7964Z" fill="#F35AB7"/>
<path d="M25.9764 31.4083L27.7855 32.8205C46.1876 12.5279 84.0867 21.2375 90.0043 52.1669L92.6314 51.7965C87.3751 17.7395 43.2736 8.28708 25.9764 31.4083Z" fill="#FBE15D"/>
<path d="M27.7835 32.8225L30.0504 34.5929C48.0964 16.2641 80.8816 24.0233 87.0618 52.5819L90.0043 52.1688C84.0867 21.2416 46.1876 12.5299 27.7855 32.8225H27.7835Z" fill="#6AD4F1"/>
</g>
<path d="M60.3409 68.853C59.12 68.5946 58.0923 68.503 57.258 68.5783C56.4236 68.6536 55.457 68.7818 54.3581 68.9649C53.2654 69.1481 52.3395 69.087 51.5804 68.7818C50.8275 68.4827 50.333 67.8315 50.0949 66.8282C49.8589 65.825 50.3025 64.0668 51.0208 63.1857C51.7392 62.3045 52.9703 61.6493 54.7143 61.2219C56.4643 60.7946 58.481 60.5972 60.7683 60.6318C63.0617 60.6664 64.9277 60.8963 66.3644 61.3237L69.4026 61.8833" fill="#FFD677"/>
<path d="M66.3644 61.3237C64.9277 60.8963 63.0637 60.6664 60.7744 60.6318C58.485 60.5972 56.4664 60.7946 54.7204 61.2219C52.9744 61.6493 51.7412 62.3045 51.0208 63.1857C50.3025 64.0668 49.8589 65.825 50.0949 66.8282C50.333 67.8315 50.8295 68.4847 51.5865 68.7859C52.3415 69.087 53.2674 69.1461 54.3643 68.9649C55.4591 68.7818 56.4257 68.6536 57.26 68.5783C58.0943 68.503 59.122 68.5946 60.343 68.853" stroke="black" stroke-width="1.51271" stroke-linecap="round" stroke-linejoin="round"/>
<path d="M44.9058 57.9249C42.4007 57.8781 39.7858 58.3807 37.061 59.4307L41.9347 68.7203C43.5546 67.9185 45.2802 67.536 47.1137 67.5706C48.9553 67.6133 50.4022 67.3284 51.4583 66.7159C52.5185 66.1095 53.0965 65.0086 53.188 63.4091C53.2796 61.8116 52.547 60.5093 50.9903 59.502C49.4417 58.4947 47.4128 57.9696 44.9058 57.9249Z" fill="#FAAA30"/>
<path d="M37.061 59.4307C39.7858 58.3807 42.4007 57.8781 44.9058 57.9249C47.4128 57.9696 49.4417 58.4947 50.9944 59.502C52.547 60.5093 53.2776 61.8116 53.188 63.4091C53.0965 65.0086 52.5206 66.1115 51.4644 66.72C50.4063 67.3284 48.9574 67.6133 47.1198 67.5746C45.2822 67.536 43.5546 67.9185 41.9347 68.7183" stroke="black" stroke-width="1.51271" stroke-linecap="round" stroke-linejoin="round"/>
<path d="M22.0124 64.4268L20.9542 73.6655L33.6116 82.1309L43.5015 81.6425L42.5247 65.7292L36.9897 58.4033L22.0124 64.4268Z" fill="#FAAA30"/>
<path d="M22.0125 74.6124C23.4431 75.5383 24.1309 76.6066 25.299 78.2244C26.465 79.8402 27.4581 81.7469 28.2802 83.9427C29.1084 86.1384 30.2765 88.564 31.2512 89.3455C32.228 90.133 33.5243 90.3568 35.0159 90.1798C36.5136 90.0089 37.5108 89.1888 38.0073 88.1245C38.5038 87.0602 38.6341 84.5308 38.3939 82.1621C37.8262 73.0963 34.1612 68.593 27.395 68.6499C23.0239 68.6845 21.5017 70.807 22.0125 74.6124Z" fill="#FAAA30"/>
<path d="M38.394 82.162C38.6341 84.5307 38.5039 87.0601 38.0073 88.1244C37.5108 89.1887 36.5157 90.0108 35.02 90.1838C33.5243 90.3588 32.226 90.135 31.2492 89.3495C30.2745 88.564 29.1085 86.1363 28.2843 83.9426C27.4601 81.7469 26.4651 79.8401 25.299 78.2244C24.131 76.6066 23.4431 75.5382 22.0126 74.6123" stroke="black" stroke-width="1.51271" stroke-linecap="round" stroke-linejoin="round"/>
<path d="M26.5341 28.7538C24.8145 28.9369 23.6668 29.7285 23.0869 31.1306C22.6249 32.2335 22.5781 33.4016 22.9444 34.6368L30.9947 33.6926C31.1107 33.2734 31.1168 32.7789 31.015 32.2091C30.8991 31.5762 30.6772 31.0024 30.3476 30.4896C29.5071 29.1424 28.2353 28.5645 26.5341 28.7538Z" fill="#FAAA30"/>
<path d="M22.9546 34.6407C22.5883 33.4055 22.6372 32.2374 23.0971 31.1345C23.675 29.7324 24.8248 28.9408 26.5443 28.7577C28.2455 28.5684 29.5174 29.1463 30.3578 30.4935C30.6875 31.0063 30.9093 31.5802 31.0253 32.213C31.127 32.7828 31.1229 33.2773 31.011 33.6985" stroke="black" stroke-width="1.51271" stroke-linecap="round" stroke-linejoin="round"/>
<path d="M13.9744 38.3579C13.2886 37.2651 12.381 36.5305 11.2475 36.15C9.81695 35.6616 8.4637 36.0075 7.18779 37.1878C5.92611 38.3335 5.52319 39.6664 5.97699 41.1865C6.14589 41.7766 6.43078 42.322 6.83167 42.8246C7.19796 43.2723 7.57443 43.602 7.96107 43.8116L13.9744 38.3579Z" fill="#FAAA30"/>
<path d="M13.9744 38.3579C13.2886 37.2651 12.3811 36.5305 11.2476 36.15C9.817 35.6616 8.46376 36.0075 7.18784 37.1878C5.92617 38.3335 5.52324 39.6664 5.97704 41.1865C6.14594 41.7766 6.43084 42.322 6.83172 42.8246C7.19801 43.2723 7.57448 43.602 7.96112 43.8116" stroke="black" stroke-width="1.51271" stroke-linecap="round" stroke-linejoin="round"/>
<path d="M7.23051 57.042C6.12553 54.6021 5.76127 52.1581 5.73278 49.7142C5.71243 47.4004 6.1703 45.1823 7.10638 43.0599C8.0099 41.0127 9.31634 39.169 11.0237 37.5309C12.7106 35.8948 14.6846 34.5659 16.9454 33.5403C19.1452 32.5432 21.3999 31.949 23.7116 31.7597C26.062 31.5583 28.3106 31.7842 30.4514 32.4353C32.6939 33.1109 34.6862 34.2139 36.4301 35.7462C38.2799 37.3803 39.7613 39.4275 40.8765 41.8857C43.0722 46.7289 43.5016 51.2994 41.3506 55.5932C40.3962 57.5142 39.043 59.2602 37.2889 60.8291C35.5999 62.3451 33.2413 63.6068 31.0232 64.6121C28.8295 65.6051 26.6094 66.236 24.3628 66.5026C22.0308 66.7773 19.8228 66.647 17.739 66.1078C15.527 65.5319 13.3639 64.724 11.6586 63.2772C9.82101 61.7204 8.34363 59.5043 7.22644 57.04L7.23051 57.042Z" fill="#FAAA30" stroke="black" stroke-width="1.51271" stroke-linecap="round" stroke-linejoin="round"/>
<path d="M28.6383 47.2889C28.2802 47.0163 27.8732 46.8453 27.4214 46.7761C26.3287 46.6113 25.3051 47.0468 24.3527 48.0805L23.787 48.7439C21.98 48.8905 20.7834 49.385 20.1953 50.2335C19.6499 51.0251 19.5319 51.831 19.8433 52.647C20.0793 53.2676 20.5453 53.7113 21.2372 53.9819C21.9393 54.2607 22.621 54.2688 23.2803 54.0084C23.9518 53.7337 24.4524 53.3368 24.7841 52.8118C25.0711 52.356 25.1932 51.9002 25.1545 51.4484C25.5249 51.7414 25.9461 51.9225 26.4223 51.9917C26.9493 52.063 27.5273 51.9286 28.1581 51.5908C28.8032 51.2612 29.2427 50.8054 29.4747 50.2274C29.7352 49.6007 29.7108 48.9373 29.4015 48.2352C29.2427 47.8648 28.9884 47.5494 28.6363 47.2889H28.6383Z" fill="white"/>
<path d="M23.7808 48.7492C21.9738 48.8957 20.7793 49.3923 20.1912 50.2429C19.6438 51.0324 19.5257 51.8363 19.8391 52.6563C20.0731 53.2729 20.5412 53.7186 21.2392 53.9892C21.9372 54.266 22.6189 54.2741 23.2823 54.0157C23.9497 53.741 24.4483 53.3421 24.782 52.8232C25.0669 52.3633 25.189 51.9075 25.1504 51.4557C25.5207 51.7488 25.942 51.9299 26.4181 51.9991C26.9452 52.0703 27.5252 51.936 28.1601 51.6002C28.8011 51.2685 29.2386 50.8127 29.4746 50.2327C29.7311 49.608 29.7066 48.9446 29.3953 48.2425C29.2366 47.8722 28.9842 47.5547 28.6342 47.2942C28.272 47.0236 27.865 46.8547 27.4153 46.7896C26.3205 46.6227 25.2989 47.0582 24.3466 48.094L23.7788 48.7513L23.7808 48.7492Z" stroke="black" stroke-width="1.51271" stroke-linecap="round" stroke-linejoin="round"/>
<path d="M10.8751 47.4104C10.8751 47.4104 13.7546 45.8984 16.3186 44.6123" stroke="black" stroke-width="1.72881" stroke-linecap="round" stroke-linejoin="round"/>
<path d="M24.6518 40.3084L26.2839 39.4354C27.6208 38.7374 28.9252 38.1005 30.1971 37.5205" stroke="black" stroke-width="1.72881" stroke-linecap="round" stroke-linejoin="round"/>
<path d="M30.1848 42.2706C30.0322 41.9694 29.7962 41.7659 29.4746 41.6621C29.1531 41.5584 28.8336 41.5787 28.5325 41.7313C28.2313 41.884 28.0237 42.1261 27.9199 42.4497C27.8141 42.7712 27.8385 43.0805 27.9912 43.3817C28.1438 43.6829 28.3839 43.8925 28.7034 43.9962C29.0249 44.1021 29.3363 44.0756 29.6415 43.921C29.9468 43.7663 30.1482 43.5302 30.2561 43.2087C30.3619 42.8872 30.3354 42.5758 30.1808 42.2706H30.1848Z" fill="black"/>
<path d="M17.0451 48.9262C16.8925 48.625 16.6564 48.4215 16.3349 48.3177C16.0114 48.2078 15.698 48.2322 15.3927 48.3869C15.0875 48.5416 14.8901 48.7776 14.7863 49.1032C14.6764 49.4268 14.6988 49.7381 14.8514 50.0393C15.0041 50.3405 15.2462 50.548 15.5698 50.6518C15.8913 50.7576 16.2006 50.7332 16.5018 50.5806C16.803 50.428 17.0126 50.1878 17.1163 49.8683C17.2222 49.5468 17.1957 49.2355 17.041 48.9302L17.0451 48.9262Z" fill="black"/>
<path d="M24.8472 47.3068C24.7678 47.0789 24.5419 46.9487 24.1716 46.9141C23.8216 46.8795 23.4492 46.9365 23.0544 47.0871C22.6372 47.2478 22.3177 47.4676 22.1 47.7443C21.8517 48.072 21.7866 48.4281 21.9067 48.8107C22.0064 49.1281 22.3218 49.413 22.8529 49.6633C23.4085 49.9218 23.8582 49.9625 24.2001 49.7834C24.5175 49.6226 24.7414 49.2685 24.8736 48.7232C25.0039 48.192 24.9937 47.7199 24.8452 47.3068H24.8472Z" fill="black"/>
<path d="M62.3454 84.5929C61.5925 86.9473 61.7451 88.3514 62.3963 89.2122C63.0475 90.0791 64.1158 90.6835 65.6013 90.6163C67.0889 90.5553 68.5704 89.8939 69.6407 87.8183C70.7111 85.7426 71.7856 83.9111 72.8661 82.3239C73.9487 80.7366 75.3732 79.0639 77.1396 77.3077C72.4266 73.7018 67.2232 75.8588 62.3454 84.5929Z" fill="white"/>
<path d="M62.0197 66.4619C60.1761 68.6597 58.3812 71.2258 56.6373 74.1642C54.8913 77.1027 53.7008 79.8051 53.0659 82.2735C52.4392 84.748 52.5572 86.2885 53.4221 87.2999C54.293 88.3113 55.6056 88.6511 56.9527 88.3174C58.3059 87.9918 59.238 86.724 60.1578 84.105C63.2611 76.9277 63.8817 71.0467 62.0197 66.4619Z" fill="white"/>
<path d="M77.5261 76.6365L79.561 66.8687L68.0941 61.6104L61.165 67.4385C57.8257 71.5389 57.2294 74.1701 59.3743 75.3341L73.1204 81.9579L77.5261 76.6365Z" fill="#FFD677"/>
<path d="M58.9877 70.4707C58.1961 71.6286 57.4126 72.8597 56.6373 74.1642C54.8913 77.1026 53.7009 79.8051 53.0659 82.2735C52.4392 84.748 52.5572 86.2884 53.4221 87.2998C54.293 88.3112 55.6056 88.651 56.9527 88.3173C58.306 87.9917 59.9034 86.7911 60.87 84.0296C61.3096 84.1741 60.4976 83.9523 60.4996 83.9523C61.2302 84.0846 61.6718 84.2637 62.3453 84.5933C61.5924 86.9478 61.745 88.3519 62.3962 89.2127C63.0474 90.0796 64.1158 90.6839 65.6013 90.6168C67.0888 90.5557 68.5703 89.8944 69.6407 87.8187C70.7111 85.7431 71.7855 83.9116 72.8661 82.3243C73.6984 81.1013 74.7342 79.8254 75.9694 78.4986C70.8413 74.0319 64.9094 71.0853 58.9877 70.4707Z" fill="#A37944"/>
<path d="M76.1423 78.6509C76.0874 78.6021 76.0304 78.5532 75.9734 78.5044M58.9917 70.4704C58.8533 70.4561 58.717 70.4419 58.5806 70.4297" stroke="black" stroke-width="1.51271" stroke-linecap="round" stroke-linejoin="round"/>
<path d="M77.1396 77.3076C75.3732 79.0638 73.9487 80.7365 72.8661 82.3238C71.7856 83.9111 70.7111 85.7425 69.6407 87.8182C68.5704 89.8938 67.0889 90.5552 65.6013 90.6203C64.1158 90.6834 63.0475 90.081 62.3963 89.2162C61.7451 88.3513 61.5925 86.9452 62.3454 84.5907" stroke="black" stroke-width="1.51271" stroke-linecap="round" stroke-linejoin="round"/>
<path d="M60.813 84.0705C59.8932 86.6895 58.9531 88.0651 57.144 88.4416C55.7826 88.7244 54.295 88.3113 53.4261 87.3C52.5572 86.2886 52.4392 84.7502 53.07 82.2777C53.7029 79.8052 54.8913 77.1008 56.6352 74.1623C58.3792 71.2238 60.174 68.6577 62.0177 66.46" stroke="black" stroke-width="1.51271" stroke-linecap="round" stroke-linejoin="round"/>
<path d="M59.2704 83.7852C60.353 83.8523 61.3807 84.1209 62.3554 84.593" stroke="black" stroke-width="1.51271" stroke-linecap="round" stroke-linejoin="round"/>
<path d="M89.6911 49.7104C89.2149 49.4377 88.5943 49.281 87.8312 49.2444C86.5654 47.9339 85.1043 46.8147 83.4458 45.8908C81.828 44.9893 80.1065 44.332 78.2791 43.9189C77.8456 43.2881 77.3878 42.8424 76.9055 42.582C76.4761 42.35 75.9999 42.2564 75.479 42.2991C75.0862 42.3215 74.6874 42.4863 74.2824 42.7956C73.8897 43.0968 73.5173 43.518 73.1693 44.0614C71.6594 44.4297 69.6712 45.0911 68.4258 46.0434C67.1621 46.9856 65.9757 48.3185 65.2167 49.6249C63.487 52.5756 63.316 56.1165 64.2887 58.8962C65.2838 61.7655 67.8438 64.1545 71.9727 66.4724C76.1078 68.7617 79.6588 69.5777 82.6217 68.9143C85.4991 68.2814 87.8027 66.2587 89.5365 62.844C90.2996 61.3361 90.7493 59.7977 90.8877 58.2267C91.0362 56.6639 90.8714 55.1417 90.3911 53.6623C90.6699 53.0803 90.8327 52.541 90.8836 52.0486C90.9406 51.5439 90.8734 51.1186 90.6862 50.7727C90.4441 50.3026 90.1124 49.9485 89.6952 49.7084L89.6911 49.7104Z" fill="#FFD677"/>
<path d="M89.5324 62.8479C90.2955 61.34 90.7452 59.8016 90.8836 58.2306C91.0321 56.6678 90.8673 55.1456 90.3871 53.6682C90.6659 53.0862 90.8286 52.547 90.8795 52.0545C90.9365 51.5499 90.8693 51.1245 90.6821 50.7786C90.44 50.3085 90.1083 49.9544 89.6911 49.7143C89.2149 49.4416 88.5943 49.2849 87.8312 49.2483C86.5654 47.9378 85.1043 46.8186 83.4458 45.8947C81.828 44.9932 80.1065 44.3359 78.2791 43.9228C77.8456 43.294 77.3878 42.8463 76.9055 42.5859C76.4761 42.3539 75.9999 42.2603 75.479 42.303C75.0862 42.3254 74.6874 42.4902 74.2824 42.7995C73.8897 43.1007 73.5173 43.5219 73.1693 44.0653C71.6593 44.4336 69.6712 45.095 68.4258 46.0473C67.1621 46.9895 65.9757 48.3224 65.2167 49.6289C63.487 52.5795 63.316 56.1204 64.2887 58.9001C65.2838 61.7694 67.8438 64.1585 71.9727 66.4763C76.1078 68.7656 79.6588 69.5816 82.6217 68.9182C85.4991 68.2853 87.8027 66.2626 89.5365 62.8479H89.5324Z" stroke="black" stroke-width="1.51271" stroke-linecap="round" stroke-linejoin="round"/>
<path d="M74.8278 60.1601C75.2857 60.3697 75.7273 60.3351 76.1526 60.0604C76.5779 59.7857 76.9279 59.3787 77.2047 58.8414C77.107 57.1789 76.2035 56.7292 74.4961 57.4943C74.2397 58.0112 74.1136 58.5281 74.1217 59.0449C74.1258 59.5679 74.3618 59.9403 74.8278 60.1601Z" fill="#BF5849"/>
<path d="M77.2026 58.8511C76.9258 59.3883 76.5758 59.7953 76.1505 60.07C75.7252 60.3447 75.2836 60.3793 74.8258 60.1697C74.3597 59.9479 74.1237 59.5755 74.1196 59.0545C74.1115 58.5377 74.2376 58.0208 74.4941 57.5039" stroke="black" stroke-width="1.51271" stroke-linecap="round" stroke-linejoin="round"/>
<path d="M74.4086 50.32C74.3394 50.5336 74.3639 50.729 74.4799 50.9121C74.6081 51.1116 74.8421 51.2682 75.1819 51.3781C75.5177 51.486 75.7985 51.5023 76.0264 51.4229C76.2279 51.3517 76.3622 51.2092 76.4314 50.9956C76.5006 50.7819 76.4741 50.5886 76.3561 50.4095C76.2279 50.2101 75.9939 50.0534 75.654 49.9435C75.3183 49.8356 75.0395 49.8194 74.8197 49.8967C74.6182 49.9679 74.4819 50.1083 74.4086 50.32Z" fill="black"/>
<path d="M81.5799 53.867C81.4354 54.0379 81.3845 54.2272 81.4293 54.4368C81.4781 54.6708 81.6389 54.9028 81.9116 55.1327C82.1802 55.3606 82.4366 55.4787 82.6767 55.4848C82.8924 55.4888 83.0715 55.4034 83.2119 55.2304C83.3564 55.0595 83.4072 54.8702 83.3625 54.6606C83.3116 54.4307 83.1508 54.2027 82.8761 53.9708C82.6075 53.7428 82.3511 53.6248 82.111 53.6187C81.8973 53.6106 81.7203 53.694 81.5799 53.867Z" fill="black"/>
<path d="M79.7728 56.579C79.4716 55.7813 78.8387 55.1138 77.8721 54.5766C76.9014 54.0353 75.9999 53.8481 75.1697 54.0129C74.3821 54.1574 73.8815 54.5603 73.6658 55.2258C73.4318 55.9258 73.6089 56.5261 74.199 57.0267C74.7891 57.5273 75.4973 57.6372 76.3194 57.3584C76.5087 58.2029 76.9788 58.7462 77.7256 58.9925C78.45 59.2245 79.0503 59.0596 79.5286 58.4959C79.9783 57.9689 80.0576 57.3319 79.7687 56.581L79.7728 56.579Z" fill="white"/>
<path d="M77.8721 54.5844C76.9015 54.0431 76 53.8559 75.1697 54.0207C74.3822 54.1652 73.8816 54.5682 73.6659 55.2336C73.4318 55.9336 73.6089 56.5339 74.199 57.0345C74.7892 57.5351 75.4973 57.645 76.3195 57.3662C76.5087 58.2107 76.9788 58.7541 77.7256 59.0003C78.4501 59.2323 79.0504 59.0674 79.5286 58.5038C79.9783 57.9767 80.0577 57.3398 79.7687 56.5889C79.4675 55.7912 78.8347 55.1237 77.8681 54.5865L77.8721 54.5844Z" stroke="black" stroke-width="1.51271" stroke-linecap="round" stroke-linejoin="round"/>
<path d="M81.6734 57.8421L80.2 57.665" stroke="black" stroke-width="1.51271" stroke-linecap="round" stroke-linejoin="round"/>
<path d="M80.3018 60.1796L79.5142 59.1621" stroke="black" stroke-width="1.51271" stroke-linecap="round" stroke-linejoin="round"/>
<path d="M73.2304 53.0049L74.1563 54.1648" stroke="black" stroke-width="1.51271" stroke-linecap="round" stroke-linejoin="round"/>
<path d="M71.9605 55.3994L73.2405 55.5358" stroke="black" stroke-width="1.51271" stroke-linecap="round" stroke-linejoin="round"/>
<path d="M72.5914 62.3408C73.0187 62.8089 73.6048 63.047 74.3516 63.0531" stroke="black" stroke-width="1.51271" stroke-linecap="round" stroke-linejoin="round"/>
<path d="M92.1166 67.2358C90.973 66.6741 89.0805 66.4197 86.4391 66.4727C83.7977 66.5256 80.2365 67.1259 75.7556 68.2736L77.3123 77.1562C79.1824 75.5709 81.4046 74.936 82.4099 74.6593C83.4151 74.3825 86.0708 73.827 87.9857 73.7883C89.8985 73.7497 91.8032 73.5401 92.7373 72.8014C93.6795 72.0708 94.1109 71.1429 94.0804 69.9219C94.058 68.7009 93.2684 67.8056 92.1166 67.2358Z" fill="#FFD677"/>
<path d="M75.7555 68.2726C80.2365 67.1249 83.7977 66.5245 86.4391 66.4716C89.0804 66.4187 90.9729 66.6751 92.1227 67.2388C93.2704 67.8045 94.06 68.6979 94.0864 69.9189C94.1129 71.1398 93.6815 72.0698 92.7433 72.8044C91.8052 73.539 89.9005 73.7466 87.9856 73.7853C86.0707 73.8239 83.4212 74.3795 82.4139 74.6562C81.4066 74.935 79.1824 75.5659 77.3123 77.1531" stroke="black" stroke-width="1.51271" stroke-linecap="round" stroke-linejoin="round"/>
<path d="M89.5139 68.7007C89.6564 68.4931 89.8619 68.3832 90.1305 68.371C90.4195 68.3547 90.6596 68.4443 90.8468 68.6376C91.032 68.8228 91.1419 69.0751 91.1765 69.3966C91.2152 69.708 91.1582 69.9807 91.0096 70.2127C90.8631 70.4426 90.6556 70.5851 90.389 70.642C90.1305 70.697 89.9026 70.6319 89.7052 70.4467C89.5017 70.2554 89.3817 69.9766 89.3471 69.6103C89.3023 69.2277 89.3573 68.9245 89.5139 68.6986V68.7007Z" fill="#E6756A"/>
<path d="M91.2946 70.3216C91.2987 70.2158 91.3394 70.1283 91.4127 70.0632C91.4859 69.9899 91.5836 69.9492 91.7037 69.9512C91.8074 69.9512 91.901 69.9919 91.9824 70.0856C92.0638 70.1792 92.0842 70.2707 92.0699 70.3827C92.0557 70.4946 92.015 70.5821 91.9417 70.6452C91.8665 70.7103 91.7769 70.7449 91.6691 70.7388C91.5449 70.7306 91.4493 70.6838 91.3801 70.6045C91.3191 70.5312 91.2865 70.4396 91.2906 70.3277L91.2946 70.3216Z" fill="#E6756A"/>
<path d="M92.0355 68.9952C91.952 68.9443 91.8584 68.924 91.7506 68.9443C91.6427 68.9647 91.5633 69.0115 91.4942 69.0908C91.4412 69.1519 91.4148 69.2496 91.4351 69.3717C91.4555 69.4673 91.5043 69.5385 91.5837 69.5853C91.6631 69.6321 91.7485 69.6545 91.8421 69.6464C91.9642 69.6362 92.0578 69.5975 92.1331 69.51C92.2003 69.4286 92.2206 69.3269 92.1982 69.2292C92.1738 69.1214 92.1209 69.0461 92.0355 68.9952Z" fill="#E6756A"/>
<path d="M91.7404 68.0938C91.661 68.0408 91.5654 68.0083 91.4555 68.0185C91.3395 68.0286 91.2438 68.0714 91.1706 68.1406C91.1075 68.1996 91.0831 68.2891 91.0994 68.4051C91.1116 68.4926 91.1523 68.5699 91.2276 68.6167C91.309 68.6696 91.4026 68.692 91.4962 68.69C91.6183 68.6859 91.7241 68.6452 91.8014 68.5679C91.8726 68.4967 91.895 68.4112 91.8828 68.3237C91.8686 68.222 91.8218 68.1487 91.7404 68.0938Z" fill="#E6756A"/>
<path d="M22.0002 74.4992L25.3314 67.4766L25.5105 66.4286C22.3014 65.8038 18.0503 64.2756 15.7529 64.3997C13.4554 64.53 10.7835 64.6459 8.96426 65.6573C7.14908 66.6667 6.31271 68.2031 6.35748 70.0813C6.40835 71.9575 7.59066 72.971 8.76483 73.5631C9.939 74.1614 11.9251 74.2367 14.7212 73.7849C17.5233 73.3413 20.0934 73.4919 22.0002 74.5033V74.4992Z" fill="#FAAA30"/>
<path d="M22.0429 74.6112C20.1361 73.5998 17.5537 73.4553 14.7557 73.903C11.9576 74.3507 9.96945 74.2775 8.79528 73.6812C7.61908 73.087 6.44084 72.0716 6.39403 70.1953C6.34519 68.3171 7.149 66.6667 8.96418 65.6554C10.7814 64.644 13.028 64.3876 15.356 64.3977C18.8419 64.414 20.9542 65.0164 25.309 66.3696" stroke="black" stroke-width="1.51271" stroke-linecap="round" stroke-linejoin="round"/>
<path d="M47.7445 76.0666C46.6354 71.7301 44.863 68.1587 42.4231 65.3525C34.2059 66.4066 33.3411 71.5246 39.0145 81.9273C39.8224 84.3652 40.907 85.6594 41.8838 86.4856C42.8708 87.3138 44.1508 87.5641 45.3127 87.4542C46.4808 87.3443 47.8259 86.5385 48.4465 84.9492C49.0753 83.366 48.8576 80.4112 47.7445 76.0666Z" fill="#FAAA30"/>
<path d="M42.4231 65.3525C44.863 68.1587 46.6375 71.7301 47.7485 76.0707C48.8596 80.4133 49.0753 83.366 48.4506 84.9533C47.8259 86.5385 46.4808 87.3443 45.3168 87.4542C44.1507 87.5641 42.8708 87.3118 41.8879 86.4856C40.907 85.6594 39.8224 84.3631 39.0125 81.9273" stroke="black" stroke-width="1.51271" stroke-linecap="round" stroke-linejoin="round"/>
<path d="M37.6369 65.0814L37.3073 64.9756L36.1046 67.3768L33.4062 66.6239L32.0856 69.0129L28.9945 68.5754C28.7564 69.1981 28.5997 69.8819 28.5264 70.6267C28.4532 71.3694 28.4939 72.2587 28.6444 73.2945C28.8032 74.3344 29.1817 75.2847 29.7759 76.1455C30.3762 77.0022 31.121 77.6798 32.0082 78.1764C32.8955 78.6749 34.09 78.8642 35.5857 78.7482C37.0834 78.6363 38.4489 78.1947 39.68 77.4255C40.9132 76.6562 41.7313 75.8423 42.1321 74.9876C42.5412 74.1349 42.6897 73.1276 42.5758 71.9616C42.4699 70.7996 42.2034 69.8168 41.7801 69.0129C41.3629 68.2071 40.8155 67.4542 40.1379 66.7562C39.4623 66.0643 38.6279 65.5067 37.6329 65.0855L37.6369 65.0814Z" fill="white"/>
<path d="M80.2286 18.7234C81.8504 19.2383 82.8537 20.6668 83.2403 23.007C83.7084 20.966 84.8032 19.5415 86.5268 18.7336C84.7564 18.1089 83.745 16.6742 83.4947 14.4297C83.1487 16.6071 82.06 18.0377 80.2286 18.7234Z" fill="#ABEBFF"/>
<path d="M80.2286 18.7234C82.06 18.0377 83.1487 16.6071 83.4947 14.4297C83.745 16.6742 84.7564 18.1089 86.5268 18.7336C84.8032 19.5415 83.7084 20.966 83.2403 23.007C82.8537 20.6668 81.8504 19.2383 80.2286 18.7234Z" stroke="black" stroke-width="1.51271" stroke-linecap="round" stroke-linejoin="round"/>
<path d="M26.3368 11.4775C26.5525 14.1128 25.6592 15.694 23.6608 16.219C25.7161 16.3187 26.9819 17.5682 27.456 19.9633C27.2871 17.5315 28.1744 16.0033 30.1218 15.3745C28.0116 15.1934 26.7499 13.8951 26.3368 11.4775Z" fill="#ABEBFF"/>
<path d="M23.6608 16.219C25.6591 15.694 26.5525 14.1128 26.3368 11.4775C26.7499 13.8951 28.0116 15.1934 30.1218 15.3745C28.1743 16.0033 27.2871 17.5315 27.456 19.9633C26.9819 17.5682 25.7161 16.3187 23.6608 16.219Z" stroke="black" stroke-width="1.51271" stroke-linecap="round" stroke-linejoin="round"/>
<path d="M56.3219 41.0652C58.1859 41.928 59.3926 43.4196 59.9441 45.5421C60.52 43.4196 61.7593 41.9544 63.6579 41.1466C61.5293 40.5524 60.2921 38.9651 59.9441 36.3848C59.6633 38.8756 58.4565 40.4364 56.3219 41.0652Z" fill="#ABEBFF"/>
<path d="M56.3219 41.0652C58.4566 40.4364 59.6633 38.8756 59.9441 36.3848C60.2921 38.9651 61.5293 40.5524 63.6579 41.1466C61.7593 41.9544 60.52 43.4196 59.9441 45.5421C59.3926 43.4196 58.1859 41.928 56.3219 41.0652Z" stroke="black" stroke-width="1.51271" stroke-linecap="round" stroke-linejoin="round"/>
<path d="M38.3939 82.1007C39.0919 81.8016 39.7573 81.5981 40.3882 81.4902" stroke="black" stroke-width="1.51271" stroke-linecap="round" stroke-linejoin="round"/>
</g>
<defs>
<clipPath id="clip0_3359_38549">
<rect width="102" height="102" fill="white"/>
</clipPath>
</defs>
</svg>
