<svg width="102" height="102" viewBox="0 0 102 102" fill="none" xmlns="http://www.w3.org/2000/svg">
<path d="M56.7383 23.9053C56.7383 23.9053 66.6059 18.0207 77.4965 13.9173C76.6734 20.716 73.7393 31.7829 72.0598 35.9119" fill="#FF708F"/>
<path d="M74.8722 23.1511C73.8791 23.261 72.9843 22.5433 72.8743 21.5501C72.7644 20.557 73.4821 19.6622 74.4752 19.5522C75.4684 19.4423 76.3632 20.16 76.4731 21.1532C76.5831 22.1463 75.8654 23.0411 74.8722 23.1511Z" fill="white"/>
<path d="M66.8115 22.1374C65.8183 22.2473 64.9235 21.5296 64.8136 20.5364C64.7036 19.5433 65.4214 18.6485 66.4145 18.5385C67.4077 18.4286 68.3025 19.1463 68.4124 20.1395C68.5224 21.1326 67.8046 22.0274 66.8115 22.1374Z" fill="white"/>
<path d="M70.5423 28.9299C70.4324 27.9368 69.5376 27.219 68.5444 27.329C67.7083 27.4205 67.0722 28.0695 66.9526 28.8644C67.7453 29.5129 68.5138 30.1951 69.2053 30.8774C70.0567 30.653 70.6406 29.8325 70.5423 28.9299Z" fill="white"/>
<path d="M56.7383 23.9053C56.7383 23.9053 66.6059 18.0207 77.4965 13.9173C76.6734 20.716 73.7893 31.6904 72.1098 35.8194" stroke="black" stroke-width="1.72881" stroke-linecap="round" stroke-linejoin="round"/>
<path d="M76.5583 9.59007C74.3072 9.9692 73.7848 13.2434 76.0855 14.2997C76.1077 16.9683 78.5431 17.7547 79.9511 16.4439C82.3494 16.8006 83.5268 15.0922 82.8078 13.0621C84.1382 12.1686 83.8808 9.28059 81.2777 9.3181C80.5646 7.34775 77.2606 6.90527 76.5612 9.59103L76.5583 9.59007Z" fill="white" stroke="black" stroke-width="1.72881" stroke-linecap="round" stroke-linejoin="round"/>
<path d="M57.0136 23.8295C55.6833 24.7808 58.354 28.5121 63.0775 32.0648C66.0289 34.2842 70.6778 37.337 71.9731 36.008C73.2684 34.6791 69.257 30.4608 65.3946 27.6596C61.9631 25.1748 58.2728 22.9283 57.0136 23.8295Z" fill="#E63C60" stroke="black" stroke-width="1.72881" stroke-linecap="round" stroke-linejoin="round"/>
<path d="M30.2194 59.8388C29.8327 59.8388 27.8989 65.0512 27.8989 65.0512C27.8989 65.0512 37.3599 71.8569 38.0352 74.4198C39.005 78.0911 39.7727 84.7524 40.1595 84.6543C40.5462 84.5561 57.061 84.4638 57.061 84.4638L61.6962 75.0952L69.131 68.2376L68.3575 61.6686L30.2137 59.833L30.2194 59.8388Z" fill="white"/>
<path d="M31.6568 58.0025C31.6568 58.0025 24.3316 50.2502 20.4526 53.754C18.2706 55.7281 18.2764 59.1916 22.5768 64.1847C28.5628 71.1404 37.8332 75.5794 37.8332 75.5794" fill="white"/>
<path d="M31.6568 58.0025C31.6568 58.0025 24.3316 50.2502 20.4526 53.754C18.2706 55.7281 18.2764 59.1916 22.5768 64.1847C28.5628 71.1404 37.8332 75.5794 37.8332 75.5794" stroke="black" stroke-width="1.72881" stroke-linecap="round" stroke-linejoin="round"/>
<path d="M38.3297 73.3574C38.3297 73.3574 38.7396 80.1746 40.5521 85.3293C42.7629 91.6386 44.8698 96.9953 48.2755 97.5957C51.889 98.2306 52.5298 95.2001 51.8486 88.9025" fill="white"/>
<path d="M38.3297 73.3574C38.3297 73.3574 38.7396 80.1746 40.5521 85.3293C42.7629 91.6386 44.8698 96.9953 48.2755 97.5957C51.889 98.2306 52.5298 95.2001 51.8486 88.9025" stroke="black" stroke-width="1.72881" stroke-linecap="round" stroke-linejoin="round"/>
<path d="M52.1373 81.1793C52.1373 81.1793 43.4152 81.6064 41.418 82.0451C38.8031 82.6224 38.018 85.3411 38.2316 86.7785C38.4971 88.5679 40.2981 90.6286 47.7907 90.5421C56.5993 90.4439 65.0674 91.4137 66.8049 74.4198C66.8049 74.4198 84.4857 65.2417 84.7685 59.7406C85.1033 53.189 78.1996 55.8789 78.1996 55.8789" fill="white"/>
<path d="M52.1373 81.1793C52.1373 81.1793 43.4152 81.6064 41.418 82.0451C38.8031 82.6224 38.018 85.3411 38.2316 86.7785C38.4971 88.5679 40.2981 90.6286 47.7907 90.5421C56.5993 90.4439 65.0674 91.4137 66.8049 74.4198C66.8049 74.4198 84.4857 65.2417 84.7685 59.7406C85.1033 53.189 78.1996 55.8789 78.1996 55.8789" stroke="black" stroke-width="1.72881" stroke-linecap="round" stroke-linejoin="round"/>
<path d="M52.7088 20.9146C52.7088 20.9146 50.0535 20.0199 49.1241 21.5669C46.8671 25.3131 39.2303 28.6207 34.1275 32.1188C29.2267 35.4783 24.1586 41.6548 24.9609 51.5025C25.7633 61.3501 34.4507 68.4502 46.6997 68.8427C60.132 69.2756 73.7145 68.5598 78.6556 55.5085C84.7108 39.4959 64.8539 24.1587 52.7145 20.9146" fill="#FFCDCD"/>
<path d="M39.6709 52.7401C39.5545 54.4153 37.5926 55.2476 35.2558 55.0857C32.9213 54.9201 31.0964 53.796 31.2126 52.1463C31.3346 50.4284 33.2893 49.6582 35.6268 49.8231C37.9643 49.988 39.783 51.1516 39.6709 52.7401Z" fill="#F58C8C"/>
<path d="M58.0142 53.543C57.9748 55.2217 59.852 56.2347 62.194 56.2874C64.536 56.3401 66.456 55.3879 66.4923 53.7354C66.5305 52.0125 64.6536 51.0662 62.3146 51.0127C59.9726 50.96 58.0523 51.9503 58.0172 53.5423L58.0142 53.543Z" fill="#F58C8C"/>
<path d="M48.9713 53.1554C48.9713 53.1554 48.984 53.1555 48.9907 53.1571C50.7761 53.3482 51.9651 52.6912 53.4635 52.511C54.4717 52.3897 55.4154 52.8521 55.7686 53.8611C56.1525 54.9577 55.5055 56.0035 54.6117 56.5825C53.1397 57.5368 51.3086 57.8105 49.5861 57.8262C47.877 57.8576 46.1178 57.5522 44.6035 56.7271C43.7838 56.279 42.8694 55.6762 42.5156 54.769C42.0978 53.7027 42.6819 52.4374 43.6966 52.0036C44.6738 51.5852 45.6984 52.0533 46.5909 52.4615C47.3305 52.8022 48.1582 53.0738 48.9736 53.1517L48.9713 53.1554Z" fill="white" stroke="black" stroke-width="1.69354" stroke-linecap="round" stroke-linejoin="round"/>
<path d="M61.7365 41.1673C61.7365 41.1673 58.8467 43.561 55.4465 46.9356C58.9617 49.8701 62.8648 51.8281 62.8648 51.8281" stroke="black" stroke-width="1.69354" stroke-linecap="round" stroke-linejoin="round"/>
<path d="M37.0919 39.6369C37.0919 39.6369 41.0624 43.7704 43.0288 46.3734C40.6896 48.1202 35.1073 50.9009 35.1073 50.9009" stroke="black" stroke-width="1.65918" stroke-linecap="round" stroke-linejoin="round"/>
<path d="M33.5801 44.2217L43.0288 46.3739" stroke="black" stroke-width="1.65918" stroke-linecap="round" stroke-linejoin="round"/>
<path d="M64.6444 45.7154L55.4465 46.9355" stroke="black" stroke-width="1.69354" stroke-linecap="round" stroke-linejoin="round"/>
<path d="M52.7088 20.9146C52.7088 20.9146 50.0535 20.0199 49.1241 21.5669C46.8671 25.3131 39.2303 28.6207 34.1275 32.1188C29.2267 35.4783 24.1586 41.6548 24.9609 51.5025C25.7633 61.3501 34.4507 68.4502 46.6997 68.8427C60.132 69.2756 73.7145 68.5598 78.6556 55.5085C84.7108 39.4959 64.8539 24.1587 52.7145 20.9146H52.7088Z" stroke="black" stroke-width="1.72881" stroke-linecap="round" stroke-linejoin="round"/>
<path d="M20.7458 19.7679C20.7458 19.7679 23.3981 20.4982 25.0082 20.5965C25.7919 19.5971 26.2403 17.0303 26.2403 17.0303C26.2403 17.0303 24.1732 17.2396 21.884 16.4238C21.205 18.0211 20.7458 19.7658 20.7458 19.7658V19.7679Z" fill="#A3E9EE" stroke="#53C1DB" stroke-width="1.72881" stroke-linecap="round" stroke-linejoin="round"/>
<path d="M35.5885 17.2902C35.1678 19.1972 34.5763 21.0785 34.5763 21.0785C34.5763 21.0785 36.3679 21.8173 37.8862 22.206C38.1916 20.3823 38.9304 18.3195 38.9304 18.3195C38.9304 18.3195 37.0363 17.5123 35.5885 17.2881V17.2902Z" fill="#D2FC95" stroke="#9CE061" stroke-width="1.72881" stroke-linecap="round" stroke-linejoin="round"/>
<path d="M90.2306 46.004C91.8023 45.3292 92.8209 44.0116 92.8209 44.0116C92.8209 44.0116 91.4542 42.7197 89.8676 40.627C88.5714 40.975 87.3051 42.4228 87.3051 42.4228C87.3051 42.4228 88.4753 45.0409 90.2306 46.0018V46.004Z" fill="#FFE885" stroke="#FFB63B" stroke-width="1.72881" stroke-linecap="round" stroke-linejoin="round"/>
<path d="M83.964 29.3896C85.6788 30.8567 87.4597 31.6084 87.4597 31.6084C87.4597 31.6084 86.2041 33.9082 84.8481 34.3866C82.7596 33.2484 81.2542 31.6916 81.2542 31.6916C81.2542 31.6916 82.3325 29.9748 83.9619 29.3896H83.964Z" fill="#FFBDBD" stroke="#FF8080" stroke-width="1.72881" stroke-linecap="round" stroke-linejoin="round"/>
<path d="M17.0839 32.678C15.1495 33.8403 13.8728 35.2917 13.8728 35.2917C13.8728 35.2917 12.0886 33.3727 12.064 31.9351C13.8047 30.3142 15.7579 29.3788 15.7579 29.3788C15.7579 29.3788 17.0452 30.9452 17.0845 32.6759L17.0839 32.678Z" fill="#FFBDBD" stroke="#FF8080" stroke-width="1.72881" stroke-linecap="round" stroke-linejoin="round"/>
</svg>
