<svg width="24" height="24" viewBox="0 0 24 24" fill="none" xmlns="http://www.w3.org/2000/svg">
<path fill-rule="evenodd" clip-rule="evenodd" d="M3 6C3 4.34315 4.34315 3 6 3H18C19.6569 3 21 4.34315 21 6V18C21 19.6569 19.6569 21 18 21H6C4.34315 21 3 19.6569 3 18V6ZM9.64468 8.3314C9.58586 8.20199 9.50939 8.10634 9.40939 8.03882C9.29174 7.9488 9.14468 7.90379 8.96233 7.90379C8.79763 7.90379 8.65645 7.9488 8.5388 8.03882C8.44468 8.11197 8.36821 8.20762 8.30351 8.3314L5.29174 14.5767C5.22704 14.7005 5.22115 14.813 5.22115 14.8693C5.22115 15.1619 5.47998 15.4038 5.79763 15.4038C5.93292 15.4038 6.05645 15.3644 6.15645 15.2856C6.2388 15.2237 6.30939 15.1337 6.35645 15.0268L7.09174 13.4739H10.7917L11.5623 15.0212C11.6741 15.2575 11.8859 15.4038 12.1329 15.4038C12.4564 15.4038 12.7212 15.1562 12.7212 14.8524C12.7212 14.7511 12.6976 14.6555 12.6506 14.5598L9.64468 8.3314ZM10.2506 12.3768H7.62704L8.90939 9.68173L10.2506 12.3768ZM15.8127 9.63456C16.6074 9.63456 17.2587 9.8545 17.7008 10.2718H17.7128C18.1311 10.6666 18.3462 11.2136 18.3462 11.8904V14.7609C18.3462 14.9132 18.2864 15.0598 18.1789 15.1613C17.9638 15.3756 17.5574 15.3756 17.3364 15.1613C17.2647 15.0936 17.2109 15.0034 17.187 14.9075C16.8106 15.1669 16.2668 15.4038 15.514 15.4038C14.9404 15.4038 14.3668 15.2402 13.9426 14.9526C13.4347 14.6086 13.1538 14.1067 13.1538 13.5315C13.1538 12.9111 13.4227 12.4092 13.9306 12.0652C14.3907 11.7494 15.03 11.5858 15.7769 11.5858C16.2788 11.5858 16.709 11.6253 17.1571 11.7099C17.1213 11.411 17.0077 11.1854 16.8225 11.0219C16.5895 10.8245 16.2489 10.723 15.7888 10.723C15.3288 10.723 14.9045 10.8189 14.4504 11.0219C14.3907 11.0501 14.2951 11.0839 14.1875 11.0839C13.8708 11.0839 13.6079 10.8301 13.6079 10.5369C13.6079 10.3846 13.6737 10.2662 13.7274 10.1985C13.7932 10.1252 13.8768 10.0632 13.9605 10.0293C14.6177 9.75299 15.1734 9.63456 15.8127 9.63456ZM17.1691 13.1198V12.8153C16.8285 12.7419 16.3445 12.663 15.741 12.663C15.281 12.663 14.9105 12.7476 14.6655 12.9168C14.4624 13.0521 14.3608 13.2495 14.3608 13.4864C14.3608 13.7401 14.4684 13.9319 14.6775 14.0785C14.8926 14.2308 15.1973 14.3154 15.5319 14.3154C16.464 14.3154 17.1691 13.8022 17.1691 13.1198Z" fill="#949494"/>
</svg>
