<svg width="102" height="102" viewBox="0 0 102 102" fill="none" xmlns="http://www.w3.org/2000/svg">
<g opacity="0.5">
<path d="M88.0133 80.391C88.0133 80.391 95.3774 78.7245 97.1125 77.9339C98.9162 76.9894 95.3371 76.5373 93.55 76.161C87.7269 74.9301 85.6438 75.136 85.6438 75.136" fill="black"/>
<path d="M88.0133 80.391C88.0133 80.391 95.3774 78.7245 97.1125 77.9339C98.9162 76.9894 95.3371 76.5373 93.55 76.161C87.7269 74.9301 85.6438 75.136 85.6438 75.136" stroke="black" stroke-width="1.65698" stroke-linecap="round" stroke-linejoin="round"/>
</g>
<path d="M85.6438 81.8414C90.7496 79.711 90.9864 74.9152 91.3414 69.0589C91.7202 62.8027 92.9392 34.1392 91.7557 28.9363C90.5721 23.7334 86.2924 18.6512 74.0994 17.6073C62.3443 16.5989 48.1416 15.5621 40.7538 19.7046C33.9081 23.544 35.2408 41.9057 35.2408 41.9057" fill="#33538C"/>
<path d="M85.6438 81.8414C90.7496 79.711 90.9864 74.9152 91.3414 69.0589C91.7202 62.8027 92.9392 34.1392 91.7557 28.9363C90.5721 23.7334 86.2924 18.6512 74.0994 17.6073C62.3443 16.5989 48.1416 15.5621 40.7538 19.7046C33.9081 23.544 35.2408 41.9057 35.2408 41.9057" stroke="black" stroke-width="1.65698" stroke-linecap="round" stroke-linejoin="round"/>
<path d="M36.0291 46.6494C36.0291 46.6494 20.986 47.5442 15.6884 48.6094C13.7592 48.9976 11.4892 51.2274 11.0157 55.3296C10.5423 59.4318 10.7198 70.6567 10.779 73.0049C10.8311 75.0548 11.1767 79.0789 16.4222 79.2777C21.6678 79.4742 23.4029 76.4774 23.4029 76.4774L36.0267 46.6518L36.0291 46.6494Z" fill="#33538C" stroke="black" stroke-width="1.65698" stroke-linecap="round" stroke-linejoin="round"/>
<path d="M17.6508 49.3027C17.6508 49.3027 21.6346 49.7478 22.269 53.9967C22.9034 58.2457 23.0288 71.8022 22.5365 74.077C22.1412 75.8997 20.6073 76.8891 19.8971 76.8986" stroke="black" stroke-width="1.65698" stroke-linecap="round" stroke-linejoin="round"/>
<path d="M44.6642 44.8338C44.8748 44.4149 34.2583 42.0028 26.087 41.3707C19.4236 40.8547 16.9287 42.1306 14.9616 44.4149C12.3791 47.4093 14.4219 52.3636 20.4202 52.9152C26.4161 53.4667 31.1148 51.8926 35.6384 51.341C40.1619 50.7895 45.656 49.7456 45.656 49.7456L44.6642 44.8338Z" fill="#FAAA30" stroke="black" stroke-width="1.65698" stroke-linecap="round" stroke-linejoin="round"/>
<path opacity="0.35" d="M40.0555 44.7604C40.0555 44.7604 26.847 44.0928 23.6916 44.0455C19.8545 43.9863 18.3988 43.0229 18.1431 42.6868C16.4317 40.4498 22.6359 40.0948 27.3607 40.6463C31.8842 41.1742 32.3198 41.1197 39.8377 42.6016C40.0981 42.6536 39.7691 43.101 39.8638 43.6123C39.9727 44.1899 40.0579 44.7604 40.0579 44.7604H40.0555Z" fill="#FFF18D"/>
<path d="M25.7724 56.3545C25.7724 56.3545 59.1795 61.4036 59.3618 62.3504C59.5441 63.2972 60.6282 87.7827 60.6282 87.7827C60.6282 87.7827 27.027 80.8305 21.5897 78.764L25.7724 56.3545Z" fill="#33538C" stroke="black" stroke-width="1.65698" stroke-linecap="round" stroke-linejoin="round"/>
<path d="M61.1016 19.7025C60.7512 17.2147 58.5759 13.3705 54.0121 14.8689C49.479 16.3578 50.227 21.2175 51.4982 22.7727" fill="#FAAA30"/>
<path d="M61.1016 19.7025C60.7512 17.2147 58.5759 13.3705 54.0121 14.8689C49.479 16.3578 50.227 21.2175 51.4982 22.7727" stroke="black" stroke-width="1.65698" stroke-linecap="round" stroke-linejoin="round"/>
<path d="M75.2167 20.382C76.5707 18.2634 80.145 15.6738 83.6744 18.9333C87.1801 22.1716 84.4792 26.2809 82.6755 27.1662" fill="#FAAA30"/>
<path d="M75.2167 20.382C76.5707 18.2634 80.145 15.6738 83.6744 18.9333C87.1801 22.1716 84.4792 26.2809 82.6755 27.1662" stroke="black" stroke-width="1.65698" stroke-linecap="round" stroke-linejoin="round"/>
<path d="M39.9561 38.1757C39.9561 24.4701 50.4992 16.4219 62.7987 16.4219C75.0983 16.4219 85.6414 24.2973 85.6414 38.1757C85.6414 52.0541 74.7077 58.8619 62.7987 58.8619C50.8898 58.8619 39.9561 52.1014 39.9561 38.1757Z" fill="#FAAA30" stroke="black" stroke-width="1.65698" stroke-linecap="round" stroke-linejoin="round"/>
<path d="M70.5652 33.4388C71.8269 31.7795 69.9545 29.9047 68.2975 31.1688C67.0358 32.8281 68.9082 34.7029 70.5652 33.4388Z" fill="#231F20"/>
<path d="M66.3943 27.0215C69.9734 27.1327 69.945 27.1327 74.0993 27.6085L66.3943 27.0215Z" fill="#231F20"/>
<path d="M66.3943 27.0215C69.9734 27.1327 69.945 27.1327 74.0993 27.6085" stroke="#010202" stroke-width="1.65698" stroke-linecap="round" stroke-linejoin="round"/>
<path d="M52.2295 32.0683C53.4769 30.4279 51.6258 28.5745 49.9878 29.8243C48.7403 31.4647 50.5914 33.3182 52.2295 32.0683Z" fill="#231F20"/>
<path d="M56.2821 35.297C53.3658 33.9477 50.9111 35.4627 50.5064 37.4487C50.175 39.0678 51.2047 40.8408 52.9232 41.1627C54.7814 41.513 56.0833 40.6561 56.6514 39.5767C56.9094 40.7698 58.0054 41.7261 59.8896 41.8894C61.6318 42.0409 63.187 41.1012 63.5042 39.1128C63.8238 37.1126 61.9182 34.5229 58.2326 35.5645L57.1958 35.8911" fill="white"/>
<path d="M56.2821 35.297C53.3658 33.9477 50.9111 35.4627 50.5064 37.4487C50.175 39.0678 51.2047 40.8408 52.9232 41.1627C54.7814 41.513 56.0833 40.6561 56.6514 39.5767C56.9094 40.7698 58.0054 41.7261 59.8896 41.8894C61.6318 42.0409 63.187 41.1012 63.5042 39.1128C63.8238 37.1126 61.9182 34.5229 58.2326 35.5645L57.1958 35.8911" stroke="black" stroke-width="1.65698" stroke-linecap="round" stroke-linejoin="round"/>
<path d="M47.5072 26.138C47.5072 26.138 50.833 26.0125 54.9755 26.4883L47.5072 26.138Z" fill="#231F20"/>
<path d="M47.5072 26.138C47.5072 26.138 50.833 26.0125 54.9755 26.4883" stroke="#010202" stroke-width="1.65698" stroke-linecap="round" stroke-linejoin="round"/>
<path d="M55.257 34.7856C55.0558 35.536 56.0074 37.2522 57.0134 37.3421C57.9176 37.425 59.113 36.2059 59.3474 35.1738C59.6219 33.9666 55.818 32.7049 55.257 34.7856Z" fill="black"/>
<path d="M64.4344 53.9877C64.4344 53.9877 60.647 49.1754 51.2401 48.2285C42.4983 47.348 33.8181 47.5918 26.0066 52.9628C20.9173 56.4637 16.0955 62.2963 15.5132 69.7693C15.0398 75.8457 15.5913 80.7361 19.774 81.2096C23.9188 81.6782 26.5605 79.7112 27.034 77.0269C27.6613 73.4762 28.9442 67.137 32.4002 66.7701C35.3591 66.4553 37.0303 67.5584 37.2126 69.0378C37.5795 72.018 32.8736 77.4624 34.6087 83.4986C35.6053 86.9593 42.0202 88.46 44.8655 85.4704C48.0208 82.1564 49.0482 75.3699 53.3871 71.5044C56.2205 68.981 64.1172 63.9296 64.4344 63.4562C64.7492 62.9828 64.4344 53.9877 64.4344 53.9877Z" fill="#FAAA30"/>
<path d="M34.9236 49.2231C32.521 50.3096 29.4698 52.3761 29.2354 55.1386C28.9443 58.5519 34.1141 59.9367 36.6705 60.2894C42.0155 61.0256 47.1379 60.7084 51.8627 57.9389C53.5031 56.9754 55.1293 55.986 56.7319 54.961C58.2586 53.9834 60.2873 52.9987 61.5111 51.6731C59.7452 50.7476 58.0716 49.5119 56.2537 48.6763C52.4166 46.9128 48.0706 48.0727 44.0228 47.7934C41.1752 47.5969 38.1192 47.8928 35.4112 49.0101C35.2526 49.0764 35.0893 49.1474 34.9212 49.2208L34.9236 49.2231Z" fill="white"/>
<path d="M64.4346 53.9877C64.4346 53.9877 60.6472 49.1754 51.2403 48.2285C42.4986 47.348 33.8184 47.5918 26.0069 52.9628C20.9176 56.4637 16.0958 62.2963 15.5134 69.7693C15.04 75.8457 15.6342 80.4544 19.7743 81.2096C24.4588 82.0664 26.8614 80.5704 27.6473 77.3819C28.5113 73.881 29.3469 67.1631 32.8029 66.7938C35.7618 66.479 36.5571 67.556 36.7394 69.0378C37.1063 72.018 32.8715 77.4624 34.609 83.4986C35.6055 86.9593 42.0204 88.46 44.8657 85.4704C48.021 82.1564 49.0484 75.3699 53.3873 71.5044C56.2207 68.981 64.1174 63.9296 64.4346 63.4562C64.7495 62.9828 64.4346 53.9877 64.4346 53.9877Z" stroke="black" stroke-width="1.65698" stroke-linecap="round" stroke-linejoin="round"/>
<path d="M83.8849 52.0156C83.8849 52.0156 67.05 52.4251 63.5727 53.1092C60.0954 53.7933 54.6511 55.4479 53.5859 60.4189C52.5207 65.3898 53.1124 80.5394 53.5859 83.6166C54.0593 86.6939 55.953 87.7591 57.965 88.3509C59.9771 88.9426 63.1064 89.4161 66.3943 88.3509C69.6822 87.2857 85.6437 81.8413 85.6437 81.8413" fill="#33538C"/>
<path d="M83.8849 52.0156C83.8849 52.0156 67.05 52.4251 63.5727 53.1092C60.0954 53.7933 54.6511 55.4479 53.5859 60.4189C52.5207 65.3898 53.1124 80.5394 53.5859 83.6166C54.0593 86.6939 55.953 87.7591 57.965 88.3509C59.9771 88.9426 63.1064 89.4161 66.3943 88.3509C69.6822 87.2857 85.6437 81.8413 85.6437 81.8413" stroke="black" stroke-width="1.65698" stroke-linecap="round" stroke-linejoin="round"/>
<path d="M61.0424 56.3545C61.0424 56.3545 65.4665 56.9013 66.1151 61.6355C66.7637 66.3698 66.7234 81.4459 66.1435 83.9693C65.6795 85.9908 63.961 87.0702 63.1728 87.0702" fill="#304572"/>
<path d="M61.0424 56.3545C61.0424 56.3545 65.4665 56.9013 66.1151 61.6355C66.7637 66.3698 66.7234 81.4459 66.1435 83.9693C65.6795 85.9908 63.961 87.0702 63.1728 87.0702" stroke="black" stroke-width="1.65698" stroke-linecap="round" stroke-linejoin="round"/>
<path d="M58.8885 53.4364C59.4968 49.2751 65.0666 48.6407 68.2812 48.1933C71.1477 47.7932 79.3498 46.6073 80.9287 50.1769C84.0296 57.1883 67.2207 59.3732 63.5398 58.8548C60.0531 58.3648 58.4813 56.2391 58.8908 53.4364H58.8885Z" fill="#FAAA30" stroke="black" stroke-width="1.65698" stroke-linecap="round" stroke-linejoin="round"/>
<g style="mix-blend-mode:hard-light">
<path d="M60.684 60.5226C60.684 60.5226 60.6677 60.5064 60.6399 60.4785C60.6677 60.5087 60.684 60.5226 60.684 60.5226Z" fill="#9ECCC6"/>
</g>
<path d="M14.9522 42.8908C15.1108 42.9121 15.6931 43.092 15.8612 43.1701C16.5618 43.4968 17.2246 43.7761 17.9087 44.1406C18.8437 44.6401 19.961 44.8697 20.6262 45.755C20.9789 46.2237 20.8084 46.9646 20.6901 47.4996C20.5481 48.134 20.5599 48.5837 19.8876 48.8867C19.5988 49.0169 19.0284 49.1021 18.7206 49.1779C17.7264 49.4217 16.6186 49.7483 15.6245 49.9921C13.4562 50.5248 12.204 50.9035 10.0357 51.4361C9.46995 51.5758 8.37634 51.8125 7.84847 51.6373C7.22119 51.4314 6.49212 51.0787 5.91691 50.752C5.3417 50.4253 4.73808 50.0419 4.18418 49.7294C3.78414 49.5022 3.30835 49.2749 3.01246 48.9056C2.68106 48.4914 2.68106 47.9162 2.61005 47.3954C2.57691 47.1469 2.48459 46.4746 2.53903 46.2332C2.61951 45.8757 2.50826 46.0083 2.88463 45.8805C4.4493 45.3479 5.27068 45.2698 6.28854 45.007C8.55861 44.4247 10.8263 43.8424 13.0964 43.2624C13.7663 43.092 14.332 42.8032 14.9522 42.8884V42.8908Z" fill="#757575" stroke="black" stroke-width="1.4967" stroke-linecap="round" stroke-linejoin="round"/>
<path d="M18.5525 47.1582L8.63904 49.6342L3.67993 46.8008" stroke="black" stroke-width="0.880414" stroke-linecap="round" stroke-linejoin="round"/>
<path d="M8.41424 47.1517C8.41424 47.1517 9.45104 46.844 9.78717 47.3032C10.0191 47.618 9.82978 47.9352 9.01786 48.2264C8.66042 48.3542 7.68517 47.547 8.41424 47.1517Z" fill="#E53030" stroke="black" stroke-width="0.880414" stroke-linecap="round" stroke-linejoin="round"/>
<path d="M6.83539 46.1195C6.83539 46.1195 7.87218 45.8118 8.20831 46.271C8.44029 46.5858 8.25092 46.903 7.439 47.1942C7.08157 47.322 6.10631 46.5148 6.83539 46.1195Z" fill="#A8A8A8" stroke="black" stroke-width="0.880414" stroke-linecap="round" stroke-linejoin="round"/>
<path d="M10.0168 45.779L12.4384 47.3674L17.2839 46.1815L14.4244 44.5576L10.0168 45.779Z" fill="#5B5B5B" stroke="black" stroke-width="0.880414" stroke-linecap="round" stroke-linejoin="round"/>
<path d="M14.5876 46.6313L12.6915 45.3057" stroke="black" stroke-width="0.880414" stroke-linecap="round" stroke-linejoin="round"/>
<path d="M11.3519 46.4744L15.8234 45.3477" stroke="black" stroke-width="0.880414" stroke-linecap="round" stroke-linejoin="round"/>
<path d="M8.17275 51.4364C8.08754 51.6826 8.16565 50.8162 8.37396 49.7676" stroke="black" stroke-width="1.18356" stroke-linecap="round" stroke-linejoin="round"/>
<path d="M34.0643 66.7562C31.8203 66.5195 29.5384 66.9148 28.2791 68.0557" stroke="black" stroke-width="1.65698" stroke-linecap="round" stroke-linejoin="round"/>
</svg>
