<svg width="102" height="102" viewBox="0 0 102 102" fill="none" xmlns="http://www.w3.org/2000/svg">
<path d="M60.9793 78.5566C60.9793 78.5566 59.4222 83.7223 67.5062 85.4946C67.5062 85.4946 72.0903 86.4489 75.7287 83.2792C75.7287 83.2792 74.2333 78.0155 69.2402 76.8759C64.5751 75.8108 62.0465 76.9739 60.9793 78.5566Z" fill="#92D16D"/>
<path d="M60.9793 78.5566C60.9793 78.5566 59.4222 83.7223 67.5062 85.4946C67.5062 85.4946 72.0903 86.4489 75.7287 83.2792C75.7287 83.2792 74.2333 78.0155 69.2402 76.8759C64.5751 75.8108 62.0465 76.9739 60.9793 78.5566Z" stroke="black" stroke-width="1.72881" stroke-linecap="round" stroke-linejoin="round"/>
<path d="M75.3092 83.4194C75.3092 83.4194 67.7812 80.4244 60.9795 78.5583" stroke="black" stroke-width="1.72881" stroke-linecap="round" stroke-linejoin="round"/>
<path d="M43.2713 76.6025C43.2713 76.6025 42.0699 78.6901 40.7556 80.6925C39.0259 83.3254 38.4507 87.7242 42.4618 88.1907C45.2204 88.5124 46.6732 86.5462 48.4711 83.581C49.0675 82.5543 50.269 80.2558 51.6174 78.0979" fill="white"/>
<path d="M43.2713 76.6025C43.2713 76.6025 42.0699 78.6901 40.7556 80.6925C39.0259 83.3254 38.4507 87.7242 42.4618 88.1907C45.2204 88.5124 46.6732 86.5462 48.4711 83.581C49.0675 82.5543 50.269 80.2558 51.6174 78.0979" stroke="black" stroke-width="1.72881" stroke-linecap="round" stroke-linejoin="round"/>
<path d="M55.2553 76.8566C55.2553 76.8566 53.8047 77.9067 53.9644 82.6208C54.0496 85.1408 54.6802 89.9082 58.0736 89.4864C62.2594 88.9688 61.0515 84.0395 62.4276 81.0658C64.0913 77.47 63.7058 75.7979 63.7058 75.7979" fill="white"/>
<path d="M55.2553 76.8566C55.2553 76.8566 53.8047 77.9067 53.9644 82.6208C54.0496 85.1408 54.6802 89.9082 58.0736 89.4864C62.2594 88.9688 61.0515 84.0395 62.4276 81.0658C64.0913 77.47 63.7058 75.7979 63.7058 75.7979" stroke="black" stroke-width="1.72881" stroke-linecap="round" stroke-linejoin="round"/>
<path d="M52.8935 79.1846C48.3754 82.6547 41.1733 83.4322 36.3505 83.3641C31.2977 83.2916 17.0213 80.8526 13.417 65.7816C11.698 58.5922 12.8909 51.9737 13.5257 49.7285C14.9465 44.7056 17.2386 38.5898 28.2686 28.2137C35.0767 21.8104 38.0973 19.4778 41.0455 15.0002C42.151 13.3195 43.1202 10.5226 48.4713 12.2693C53.8223 14.0161 65.7257 19.6951 74.1357 26.5756C82.5456 33.4561 90.1525 43.3401 89.424 57.0436C88.5804 72.9198 79.2119 82.0519 60.2895 80.8185C55.6414 80.516 50.7868 79.2805 48.369 75.3312" fill="#FF9376"/>
<path d="M52.8935 79.1846C48.3754 82.6547 41.1733 83.4322 36.3505 83.3641C31.2977 83.2916 17.0213 80.8526 13.417 65.7816C11.698 58.5922 12.8909 51.9737 13.5257 49.7285C14.9465 44.7056 17.2386 38.5898 28.2686 28.2137C35.0767 21.8104 38.0973 19.4778 41.0455 15.0002C42.151 13.3195 43.1202 10.5226 48.4713 12.2693C53.8223 14.0161 65.7257 19.6951 74.1357 26.5756C82.5456 33.4561 90.1525 43.3401 89.424 57.0436C88.5804 72.9198 79.2119 82.0519 60.2895 80.8185C55.6414 80.516 50.7868 79.2805 48.369 75.3312" stroke="black" stroke-width="1.72881" stroke-linecap="round" stroke-linejoin="round"/>
<path d="M25.8674 42.3006C27.6141 37.4949 31.6423 33.0812 39.0809 31.0533C48.6923 28.4331 57.6944 28.4843 63.9806 32.2547C66.7114 33.8928 72.5716 38.7091 71.0783 48.8552C69.4402 59.9939 56.6634 61.96 47.3801 62.8334C47.3801 62.8334 39.247 64.0157 32.9651 61.3039C24.7895 57.7764 24.1185 47.1084 25.8674 42.3006Z" fill="#FFCDCD"/>
<path d="M25.8674 42.3006C27.6141 37.4949 31.6423 33.0812 39.0809 31.0533C48.6923 28.4331 57.6944 28.4843 63.9806 32.2547C66.7114 33.8928 72.5716 38.7091 71.0783 48.8552C69.4402 59.9939 56.6634 61.96 47.3801 62.8334C47.3801 62.8334 39.247 64.0157 32.9651 61.3039C24.7895 57.7764 24.1185 47.1084 25.8674 42.3006Z" stroke="black" stroke-width="1.72881" stroke-miterlimit="10"/>
<path d="M46.0703 53.2218C46.0703 53.2218 48.5818 54.9409 51.0933 52.7852" stroke="black" stroke-width="1.72881" stroke-linecap="round" stroke-linejoin="round"/>
<path d="M36.9039 51.141C35.3701 51.3284 32.5455 51.9611 33.6553 54.3448C34.337 55.8061 37.151 55.657 38.755 55.0776C40.3185 54.5109 40.9469 53.1263 40.2461 51.9909C39.5005 50.7831 38.1159 50.9919 36.9039 51.141Z" fill="#F58C8C"/>
<path d="M60.0038 48.0611C58.4615 48.1293 56.521 49.3499 56.8554 50.9369C57.1877 52.5153 60.3084 52.2895 61.2329 51.9764C62.5408 51.5312 63.6485 50.432 63.2545 49.2775C62.7965 47.9333 61.2244 48.0079 60.0038 48.0611Z" fill="#F58C8C"/>
<path d="M33.9067 41.7191C35.6321 41.2249 38.576 40.801 41.1173 41.4911C45.1774 42.5967 45.7931 47.6878 43.1325 49.7115C40.5933 51.6414 35.2849 52.387 32.7244 52.0781C29.8806 51.7352 28.332 49.8372 28.3703 47.102C28.4193 43.5531 32.2153 42.2026 33.9067 41.7191Z" fill="white"/>
<path d="M33.9067 41.7191C35.6321 41.2249 38.576 40.801 41.1173 41.4911C45.1774 42.5967 45.7931 47.6878 43.1325 49.7115C40.5933 51.6414 35.2849 52.387 32.7244 52.0781C29.8806 51.7352 28.332 49.8372 28.3703 47.102C28.4193 43.5531 32.2153 42.2026 33.9067 41.7191Z" stroke="black" stroke-width="1.72881" stroke-miterlimit="10"/>
<path d="M55.7905 38.4787C58.4724 37.8525 62.0894 37.7417 64.4092 39.4735C66.4967 41.0328 66.7843 44.7798 64.7436 46.5052C61.9744 48.8484 56.9898 49.4534 54.1502 48.8527C51.234 48.2349 49.7088 46.3796 49.958 43.8596C50.3287 40.1147 54.0735 38.8771 55.7883 38.4766" fill="white"/>
<path d="M55.7905 38.4787C58.4724 37.8525 62.0894 37.7417 64.4092 39.4735C66.4967 41.0328 66.7843 44.7798 64.7436 46.5052C61.9744 48.8484 56.9898 49.4534 54.1502 48.8527C51.234 48.2349 49.7088 46.3796 49.958 43.8596C50.3287 40.1147 54.0735 38.8771 55.7883 38.4766L55.7905 38.4787Z" stroke="black" stroke-width="1.72881" stroke-miterlimit="10"/>
<path d="M59.6116 43.3383C59.6116 44.1521 58.8533 44.8124 57.9181 44.8124C56.983 44.8124 56.2246 44.1521 56.2246 43.3383C56.2246 42.5246 56.983 41.8643 57.9181 41.8643C58.8533 41.8643 59.6116 42.5246 59.6116 43.3383Z" fill="black"/>
<path d="M37.8796 46.6334C37.8689 47.4472 37.1021 48.0969 36.1669 48.0841C35.2318 48.0713 34.4841 47.4003 34.4947 46.5866C34.5054 45.7729 35.2723 45.1231 36.2074 45.1359C37.1426 45.1487 37.8902 45.8197 37.8796 46.6334Z" fill="black"/>
<path d="M32.0005 63.3641C30.5605 62.9381 28.9671 62.1925 27.2779 61.4171C23.5863 59.7194 20.359 64.9873 24.3787 67.6799C26.5898 69.1603 28.9543 70.0763 31.6639 70.53C33.679 70.8687 36.9063 71.3864 38.8554 70.349C40.9046 69.2583 41.1432 65.7286 38.5295 64.7892C36.4163 64.0309 34.8911 64.2205 32.0005 63.3641Z" fill="white"/>
<path d="M32.0005 63.3641C30.5605 62.9381 28.9671 62.1925 27.2779 61.4171C23.5863 59.7194 20.359 64.9873 24.3787 67.6799C26.5898 69.1603 28.9543 70.0763 31.6639 70.53C33.679 70.8687 36.9063 71.3864 38.8554 70.349C40.9046 69.2583 41.1432 65.7286 38.5295 64.7892C36.4163 64.0309 34.8911 64.2205 32.0005 63.3641Z" stroke="black" stroke-width="1.72881" stroke-miterlimit="10"/>
<path d="M60.1294 59.329C58.6894 58.9029 57.096 58.1574 55.4068 57.382C51.7152 55.6842 48.4879 60.9522 52.5076 63.6447C54.7187 65.1252 57.0832 66.0412 59.7928 66.4949C61.808 66.8336 65.0352 67.3512 66.9843 66.3138C69.0335 65.2232 69.2721 61.6935 66.6584 60.7541C64.5452 59.9957 63.02 60.1853 60.1294 59.329Z" fill="white"/>
<path d="M60.1294 59.329C58.6894 58.9029 57.096 58.1574 55.4068 57.382C51.7152 55.6842 48.4879 60.9522 52.5076 63.6447C54.7187 65.1252 57.0832 66.0412 59.7928 66.4949C61.808 66.8336 65.0352 67.3512 66.9843 66.3138C69.0335 65.2232 69.2721 61.6935 66.6584 60.7541C64.5452 59.9957 63.02 60.1853 60.1294 59.329Z" stroke="black" stroke-width="1.72881" stroke-miterlimit="10"/>
</svg>
