<svg width="24" height="24" viewBox="0 0 24 24" fill="none" xmlns="http://www.w3.org/2000/svg">
<path fill-rule="evenodd" clip-rule="evenodd" d="M12 21C16.9708 21 21 16.9703 21 12C21 7.02975 16.9708 3 12 3C7.02975 3 3 7.02975 3 12C3 16.9703 7.02975 21 12 21ZM8.42821 11.0439C8.9408 11.0439 9.35633 10.6284 9.35633 10.1158C9.35633 9.60319 8.9408 9.18766 8.42821 9.18766C7.91562 9.18766 7.50008 9.60319 7.50008 10.1158C7.50008 10.6284 7.91562 11.0439 8.42821 11.0439ZM16.465 13.7582C16.6611 13.2591 15.9919 12.947 15.54 13.2357C14.5806 13.8487 13.3464 14.2175 11.9999 14.2175C10.6535 14.2175 9.41944 13.8488 8.46008 13.2359C8.00816 12.9472 7.33904 13.2594 7.53521 13.7585C8.23524 15.5396 9.9704 16.8006 12 16.8006C14.0298 16.8006 15.765 15.5395 16.465 13.7582ZM15.1782 11.0439C15.6908 11.0439 16.1063 10.6284 16.1063 10.1158C16.1063 9.60319 15.6908 9.18766 15.1782 9.18766C14.6656 9.18766 14.2501 9.60319 14.2501 10.1158C14.2501 10.6284 14.6656 11.0439 15.1782 11.0439Z" fill="#424242"/>
</svg>
