<svg width="102" height="102" viewBox="0 0 102 102" fill="none" xmlns="http://www.w3.org/2000/svg">
<path d="M65.0971 55.5824C73.4473 61.0668 77.28 69.0913 76.7151 79.5865C79.3644 80.7511 80.1922 82.5287 79.5082 84.1418C77.9028 87.9169 72.2721 87.4867 70.2676 88.7121C68.7988 89.6076 66.1094 94.7495 61.6577 93.9024C59.9233 93.573 58.9571 91.9612 59.1311 88.6894C51.3895 86.3332 43.7275 74.4792 46.7928 68.0325" fill="white"/>
<path d="M76.7151 79.5866C74.2659 85.319 63.0388 90.8377 59.1285 88.6851C58.9581 91.9578 59.9207 93.5686 61.6551 93.8981C66.1069 94.7452 68.7953 89.6067 70.265 88.7078C72.2695 87.4823 77.9003 87.9125 79.5056 84.1374C80.1886 82.5279 79.3619 80.7467 76.7126 79.5821L76.7151 79.5866Z" fill="#A8E6FF"/>
<path d="M65.0971 55.5824C73.4473 61.0668 77.28 69.0913 76.7151 79.5865C79.3644 80.7511 80.1922 82.5287 79.5082 84.1418C77.9028 87.9169 72.2721 87.4867 70.2676 88.7121C68.7988 89.6076 66.1094 94.7495 61.6577 93.9024C59.9233 93.573 58.9571 91.9612 59.1311 88.6894C51.3895 86.3332 43.7275 74.4792 46.7928 68.0325" stroke="black" stroke-width="1.72881" stroke-linecap="round" stroke-linejoin="round"/>
<path d="M79.3869 84.3979C77.8944 83.9228 76.1103 83.5124 74.8158 83.5752" stroke="black" stroke-width="1.72881" stroke-linecap="round" stroke-linejoin="round"/>
<path d="M61.6576 93.9021C61.9719 92.4906 62.7203 91.1841 63.7554 90.1123" stroke="black" stroke-width="1.72881" stroke-linecap="round" stroke-linejoin="round"/>
<path d="M75.8512 28.8847C82.6886 44.7418 74.3333 60.4402 57.4867 68.7824C41.4196 76.7398 23.8699 71.6052 16.7265 55.3617C9.89922 39.8455 17.892 21.8252 34.2185 14.5123C50.5451 7.19945 68.8231 12.5893 75.8512 28.8847Z" fill="white" stroke="black" stroke-width="1.72881" stroke-linecap="round" stroke-linejoin="round"/>
<path d="M47.8176 32.3428C48.6537 32.2661 49.3485 32.3095 50.0999 32.4507" stroke="black" stroke-width="1.72881" stroke-linecap="round" stroke-linejoin="round"/>
<path d="M39.627 36.5854C39.0728 37.2373 38.6414 37.9636 38.3164 38.7559" stroke="black" stroke-width="1.72881" stroke-linecap="round" stroke-linejoin="round"/>
<path d="M52.4329 39.4382C53.3691 42.4099 51.4759 45.6606 48.3564 46.6436C45.2368 47.6267 41.9014 46.1617 40.9617 43.1891C40.022 40.2165 41.8377 36.8623 44.9607 35.8802C48.0847 34.8946 51.4967 36.4665 52.4329 39.4382Z" fill="#A8E6FF"/>
<path d="M42.673 42.2726C44.3383 43.8838 46.783 42.4456 46.1587 39.7266C47.403 41.3942 50.4384 40.9072 50.4452 38.3573" stroke="black" stroke-width="1.72881" stroke-linecap="round" stroke-linejoin="round"/>
<path d="M61.24 58.5331C72.3257 61.1578 73.7435 72.8231 64.0322 77.4251C54.3209 82.0272 47.38 73.9478 51.311 65.2941" fill="white"/>
<path d="M61.24 58.5331C72.3257 61.1578 73.7435 72.8231 64.0322 77.4251C54.3209 82.0272 47.38 73.9478 51.311 65.2941" stroke="black" stroke-width="1.72881" stroke-linecap="round" stroke-linejoin="round"/>
<path d="M63.0978 56.411C61.6085 52.9228 56.5811 54.3642 52.6381 56.6674C47.8485 59.4653 43.8546 64.2163 47.9437 66.1087C47.2398 67.5436 47.9358 68.5644 48.9076 68.7947C51.0414 69.3025 51.2272 66.6315 52.058 66.1814C52.968 65.6887 53.6318 66.5355 54.7744 65.8195C55.917 65.1034 55.6855 64.1583 56.4405 63.6127C57.1206 63.1222 58.2673 63.5272 59.0383 63.0761C60.1614 62.4188 60.0734 61.3166 60.7657 60.8369C61.7065 60.1871 64.3719 61.123 65.0492 58.6513C65.3372 57.6048 64.3541 56.6875 63.0943 56.4101L63.0978 56.411Z" fill="#FDF2C6" stroke="black" stroke-width="1.72881" stroke-linecap="round" stroke-linejoin="round"/>
<path d="M50.2825 63.8037C52.5455 61.2345 55.5154 59.4072 58.7265 58.5314" stroke="black" stroke-width="1.72881" stroke-linecap="round" stroke-linejoin="round"/>
<path d="M58.1763 65.2689C63.3155 62.2603 65.0514 62.7104 66.9142 65.5057C69.9758 70.1104 67.828 72.951 63.5452 75.0917C58.2084 77.758 54.9932 77.1483 54.2101 72.876C53.6579 69.8456 54.3924 67.4832 58.1728 65.268L58.1763 65.2689Z" fill="#7C6455"/>
<path d="M58.0549 75.2021C60.0988 72.8899 62.9899 71.7217 66.561 71.2693" stroke="black" stroke-width="1.72881" stroke-linecap="round" stroke-linejoin="round"/>
<path d="M71.0578 67.5026C65.7605 66.1921 60.9898 71.0094 59.4324 67.7473C58.0026 64.7523 63.6135 60.5022 68.8977 61.3844C71.261 62.9572 72.299 64.9039 71.0578 67.5026Z" fill="white"/>
<path d="M71.0578 67.5026C65.7605 66.1921 60.9898 71.0094 59.4324 67.7473C58.0026 64.7523 63.6135 60.5022 68.8977 61.3844" stroke="black" stroke-width="1.72881" stroke-linecap="round" stroke-linejoin="round"/>
<path d="M48.014 73.1249C51.4485 67.6001 57.5728 64.4496 59.2353 67.3753C61.2091 70.8505 54.1391 73.7439 52.462 78.1236" fill="white"/>
<path d="M48.014 73.1249C51.4485 67.6001 57.5728 64.4496 59.2353 67.3753C61.2091 70.8505 54.1391 73.7439 52.462 78.1236" stroke="black" stroke-width="1.72881" stroke-linecap="round" stroke-linejoin="round"/>
</svg>
