<svg width="102" height="102" viewBox="0 0 102 102" fill="none" xmlns="http://www.w3.org/2000/svg">
<g clip-path="url(#clip0_3359_37822)">
<path d="M66.3501 38.7783L59.8927 40.637L61.5316 50.2215L64.0413 55.199L73.6782 55.9023L76.5898 51.0672L71.4699 42.3492L66.3501 38.7783Z" fill="#FFD677"/>
<path d="M92.2971 49.199C93.3374 42.3 86.8821 34.2582 80.1757 32.2341C75.8554 30.9301 72.6968 30.5303 70.4844 30.4863C70.4844 30.4863 69.262 37.6302 69.6639 48.4727C70.0657 59.3152 77.2013 61.7034 77.2013 61.7034C83.5268 61.7034 96.249 63.38 96.7953 55.9954C97.3102 49.0525 87.7445 47.8175 87.7445 47.8175" fill="#A37944"/>
<path d="M67.0685 30.7409C68.7012 30.4332 72.7012 29.979 80.1759 32.2354C86.8823 34.2595 93.3376 42.3013 92.2973 49.2003" stroke="black" stroke-width="1.72881" stroke-linecap="round" stroke-linejoin="round"/>
<path d="M87.7432 45.5566C87.7955 45.8643 87.8457 47.2018 87.7432 47.8193C87.7432 47.8193 97.3089 49.0543 96.794 55.9972C96.2477 63.3818 83.5255 61.7052 77.2 61.7052" stroke="black" stroke-width="1.72881" stroke-linecap="round" stroke-linejoin="round"/>
<path d="M67.1189 51.9049C75.2446 52.7275 79.0918 54.896 78.5141 59.6265C78.0431 63.4967 74.3843 63.2476 72.9442 63.2999C71.5041 63.3522 62.131 63.1974 61.256 62.9399C61.256 62.9399 44.0482 61.2298 54.3319 31.279C55.2068 28.7317 58.3235 28.5538 61.2246 28.7631C64.7369 29.0164 78.2587 32.6919 77.3921 39.5867C76.49 46.7704 68.9191 44.246 63.8306 41.0184" fill="#FFD677"/>
<path d="M67.1189 51.9049C75.2446 52.7275 79.0918 54.896 78.5141 59.6265C78.0431 63.4967 74.3843 63.2476 72.9442 63.2999C71.5041 63.3522 62.131 63.1974 61.256 62.9399C61.256 62.9399 44.0482 61.2298 54.3319 31.279C55.2068 28.7317 58.3235 28.5538 61.2246 28.7631C64.7369 29.0164 78.2587 32.6919 77.3921 39.5867C76.49 46.7704 68.9191 44.246 63.8306 41.0184" stroke="black" stroke-width="1.72881" stroke-linecap="round" stroke-linejoin="round"/>
<path d="M42.5259 23.4166C37.3391 23.1529 32.7613 24.099 29.1234 27.5233C27.2982 27.5506 25.7597 28.011 24.8764 29.1476C24.0287 30.2402 23.5557 31.8415 24.4641 34.1356C23.4343 36.6578 22.8796 39.4291 22.6012 42.504C22.3228 45.5809 22.2977 48.4108 22.6389 51.3642C21.3327 53.4574 21.1757 55.1779 21.879 56.5029C22.4484 57.5767 24.2862 58.3511 26.2286 58.6546C29.1297 62.3993 33.6258 64.1868 38.7771 64.8566C50.2099 66.3448 58.5511 61.6792 59.7672 45.7504C60.9205 30.6484 54.0383 23.9985 42.5238 23.4145L42.5259 23.4166Z" fill="#FFD677" stroke="black" stroke-width="1.72881" stroke-linecap="round" stroke-linejoin="round"/>
<path d="M38.7277 38.9247C38.8089 38.0267 38.1478 37.2329 37.2509 37.1518C36.354 37.0706 35.5611 37.7328 35.4798 38.6308C35.3986 39.5288 36.0598 40.3226 36.9566 40.4038C37.8535 40.4849 38.6464 39.8227 38.7277 38.9247Z" fill="black"/>
<path d="M40.8601 44.8831C40.6989 48.3996 43.0328 50.4907 45.0296 50.1914C47.2107 49.8627 48.4268 46.9805 46.4697 45.0757C48.5922 43.3572 47.6419 40.4289 45.5006 39.9036C43.5393 39.4221 41.0213 41.3667 40.8601 44.8831Z" fill="white" stroke="black" stroke-width="1.72881" stroke-linecap="round" stroke-linejoin="round"/>
<path d="M35.1035 26.8509C35.2124 26.3067 37.2029 18.6186 47.1894 20.8624C56.2046 22.8886 56.4537 29.8525 56.0874 31.6337" fill="#FFD677"/>
<path d="M35.1035 26.8509C35.2124 26.3067 37.2029 18.6186 47.1894 20.8624C56.2046 22.8886 56.4537 29.8525 56.0874 31.6337" stroke="black" stroke-width="1.72881" stroke-linecap="round" stroke-linejoin="round"/>
<path d="M49.7715 41.2181C47.3267 41.9234 41.9221 40.8266 41.1728 39.8324C41.1728 39.8324 42.7154 34.4719 46.8515 35.5729C50.9855 36.6738 49.7715 41.2181 49.7715 41.2181Z" fill="#FFD677"/>
<path d="M41.2541 39.833C42.0013 40.8272 47.408 41.9241 49.8528 41.2187L41.2541 39.833Z" fill="#FFD677"/>
<path d="M41.2541 39.833C42.0013 40.8272 47.408 41.9241 49.8528 41.2187" stroke="black" stroke-width="1.72881" stroke-linecap="round" stroke-linejoin="round"/>
<path d="M30.1464 73.0162C30.0773 73.707 30.4918 75.0194 32.0805 75.0194C33.6692 75.0194 34.0836 74.1905 34.2908 73.5688L35.2851 72.4092C35.2851 72.4092 34.856 73.9749 36.6519 74.3454C38.2239 74.6698 38.8811 73.8639 39.1491 73.1899C39.1491 73.1899 41.1585 74.0188 41.8157 72.6813C42.0041 72.2983 42.0774 71.9403 42.0585 71.6159L42.0502 71.5343C42.0502 71.8231 42.653 72.7713 44.1726 72.6499C45.6316 72.5327 46.046 71.1554 46.046 71.1554C46.1276 71.5615 46.5693 72.8446 48.629 72.4511C50.6091 72.0722 50.1465 69.8451 50.1465 69.8451C51.7017 71.147 53.3134 69.9498 53.55 69.2046L53.8849 69.2862C55.0194 70.0879 57.1041 69.64 57.7572 67.7562C58.5338 68.5306 60.5013 68.8383 61.1125 66.9775C61.4642 65.9079 60.9744 64.9995 60.2732 64.5453C61.8702 64.5453 63.2915 62.5045 62.1486 60.7734C61.0079 59.0424 59.1052 59.3313 59.1052 59.3313C59.2622 58.898 59.8964 57.6107 58.5652 56.629C57.2653 55.6724 55.7268 56.6081 55.7268 56.6081C55.1952 55.5427 54.2658 55.3166 54.2658 55.3166C55.0591 54.7996 55.2622 53.483 54.5798 52.7483C53.5479 51.6369 52.2355 52.4469 52.2355 52.4469C53.0623 50.6761 52.2585 49.9268 51.4715 49.6505C51.6661 49.2507 51.7331 48.7462 51.6243 48.1623C51.2475 46.1277 48.6729 46.7389 48.6729 46.7389C48.9325 45.8431 48.9136 44.0869 46.4186 44.0869C44.9199 44.0869 44.3987 45.0079 44.3108 45.8179L44.338 45.7593C43.2537 45.1251 42.0585 45.7426 42.0585 45.7426C41.5604 44.2188 39.5802 43.6808 38.4269 44.6165C37.529 45.3449 37.8513 46.5547 38.1778 46.9775C37.619 47.0801 36.8843 47.3773 36.7566 48.3611L36.7147 48.6332C36.1747 48.3255 34.5483 47.8797 33.5875 48.8425C32.6268 49.8054 33.215 51.2036 33.3845 51.5887V51.5929C32.608 51.6306 31.6974 51.9864 31.5425 53.19C31.5111 53.4412 31.5111 53.6651 31.5425 53.8661H31.5216C28.6749 53.3051 28.0365 55.0026 28.0365 55.0026C26.7492 54.3538 25.9015 54.9775 25.5603 55.5615C25.5603 55.5615 23.5006 62.9817 24.6916 66.7975C25.8827 70.6133 30.1506 73.0225 30.1506 73.0225L30.1464 73.0162Z" fill="#FFF5C0"/>
<path d="M30.1465 73.0713C30.0775 73.762 30.7368 74.9049 31.9027 74.997C33.4851 75.1226 33.9058 74.1681 34.1131 73.5464L35.191 73.7202" stroke="black" stroke-width="1.72881" stroke-linecap="round" stroke-linejoin="round"/>
<path d="M35.2822 72.4663C35.2822 72.4663 34.8531 74.0319 36.649 74.4024C38.221 74.7269 38.8782 73.921 39.1461 73.247C39.1461 73.247 41.1556 74.0759 41.8128 72.7384C42.5642 71.2083 41.4988 70.0508 39.8369 70.0068" stroke="black" stroke-width="1.72881" stroke-linecap="round" stroke-linejoin="round"/>
<path d="M53.5456 69.2588C53.3091 70.0039 51.6995 71.1991 50.1422 69.8993C50.1422 69.8993 50.6068 72.1243 48.6246 72.5053C46.565 72.9009 46.1233 71.6157 46.0417 71.2096C46.0417 71.2096 45.6272 72.5869 44.1683 72.7041C42.6487 72.8255 42.0458 71.8773 42.0458 71.5885" stroke="black" stroke-width="1.72881" stroke-linecap="round" stroke-linejoin="round"/>
<path d="M53.3094 67.007C53.0477 67.4382 52.7442 68.5392 53.8766 69.3409C55.0111 70.1425 57.0959 69.6946 57.7489 67.8108C58.5255 68.5852 60.5349 69.0604 61.1461 67.1996C61.7573 65.3388 59.8881 63.8799 58.7181 64.4011C58.6971 64.399 59.0551 62.8207 57.6966 62.4377C56.0828 61.9814 55.302 63.1201 55.3502 63.8652" stroke="black" stroke-width="1.72881" stroke-linecap="round" stroke-linejoin="round"/>
<path d="M39.198 50.5955C38.4445 50.8069 36.4915 50.4469 36.7532 48.4103C36.8809 47.4265 37.6135 47.1293 38.1744 47.0267C37.8479 46.606 37.5256 45.3941 38.4235 44.6657C39.5769 43.73 41.557 44.268 42.0551 45.7918C42.0551 45.7918 43.2503 45.1764 44.3346 45.8085" stroke="black" stroke-width="1.72881" stroke-linecap="round" stroke-linejoin="round"/>
<path d="M44.5018 46.9855C44.125 46.4936 44.0182 44.1367 46.417 44.1367C48.912 44.1367 48.933 45.8929 48.6713 46.7887C48.6713 46.7887 51.248 46.1775 51.6227 48.2121C51.9597 50.0352 50.6033 51.065 48.9602 50.6464" stroke="black" stroke-width="1.72881" stroke-linecap="round" stroke-linejoin="round"/>
<path d="M51.4694 49.7051C52.2564 49.9814 53.0581 50.7307 52.2334 52.5015C52.2334 52.5015 53.5458 51.6915 54.5778 52.8029C55.2601 53.5376 55.0571 54.8542 54.2638 55.3712C54.2638 55.3712 55.1931 55.5973 55.7248 56.6627C55.7248 56.6627 57.2633 55.727 58.5631 56.6836C59.8944 57.6632 59.2622 58.9526 59.1031 59.3859C59.1031 59.3859 61.0037 59.097 62.1466 60.828C63.2874 62.5591 61.8661 64.5999 60.2711 64.5999" stroke="black" stroke-width="1.72881" stroke-linecap="round" stroke-linejoin="round"/>
<path d="M33.4415 55.609C32.891 55.4395 31.3023 55.0816 31.5388 53.2396C31.7984 51.2134 34.2034 51.5881 34.4986 51.8435" stroke="black" stroke-width="1.72881" stroke-linecap="round" stroke-linejoin="round"/>
<path d="M36.7144 48.6834C36.1744 48.3757 34.548 47.9299 33.5873 48.8927C32.6265 49.8556 33.2147 51.2538 33.3842 51.6389" stroke="black" stroke-width="1.72881" stroke-linecap="round" stroke-linejoin="round"/>
<path d="M25.5555 55.6095C25.8946 55.0255 26.7445 54.4018 28.0317 55.0507C28.0317 55.0507 28.6702 53.3552 31.5168 53.9183" stroke="black" stroke-width="1.72881" stroke-linecap="round" stroke-linejoin="round"/>
<path d="M41.2779 59.7705C40.8509 59.1593 40.8258 58.0981 41.7615 57.5037C42.695 56.9092 44.1497 57.4032 44.3381 58.3095C44.3381 58.3095 44.9828 56.9071 46.4229 57.3174C47.796 57.7088 48.0221 59.3561 47.5783 60.4885C47.5783 60.4885 48.3088 60.7438 48.5872 61.8553" stroke="black" stroke-width="1.72881" stroke-linecap="round" stroke-linejoin="round"/>
<path d="M29.4272 63.0417C30.5241 61.924 33.0651 62.5854 33.1468 64.3039C33.9233 63.9418 34.5115 64.3311 34.7753 64.8272" stroke="black" stroke-width="1.72881" stroke-linecap="round" stroke-linejoin="round"/>
<path d="M10.4545 77.3465C13.3807 78.008 26.2808 77.2754 28.3614 76.1765C30.442 75.0776 30.9276 72.2728 30.2075 66.2257C29.4645 59.9839 28.1018 56.4654 24.2211 55.3874C22.0861 54.795 17.6947 55.9986 14.197 56.8589C10.6994 57.7192 7.76894 58.7281 6.72864 59.6658L10.4524 77.3444L10.4545 77.3465Z" fill="#DD2A2A"/>
<path d="M11.175 68.0593C11.9118 72.8128 12.0897 77.0095 10.4507 77.2628C8.81181 77.5161 6.26444 73.6961 5.52765 68.9426C4.79086 64.189 5.25554 59.9274 6.90076 59.7014C8.29061 59.5088 10.4382 63.3057 11.175 68.0593Z" fill="white" stroke="black" stroke-width="1.72881" stroke-linecap="round" stroke-linejoin="round"/>
<path d="M21.9514 77.2254C20.9572 70.4729 15.8834 61.2903 9.13293 58.7032C11.3077 57.6168 13.0681 57.3887 13.0681 57.3887C18.3575 58.4101 26.7112 67.9695 27.1131 76.4656C25.2837 76.9888 21.9514 77.2275 21.9514 77.2275V77.2254Z" fill="white"/>
<path d="M6.73047 59.668C8.12242 58.8182 10.7012 57.7214 14.1988 56.8611C17.6965 56.0008 23.1052 54.6654 24.6479 55.2933C27.1262 56.3022 28.2104 58.343 29.1147 60.3357C30.358 63.0756 31.0341 66.8077 30.762 69.8197C30.4857 72.8757 29.3261 75.4503 27.3397 76.3566C26.5233 76.7292 13.3846 78.0081 10.4563 77.3467" stroke="black" stroke-width="1.72881" stroke-linecap="round" stroke-linejoin="round"/>
<path d="M59.8313 84.1865C59.4588 83.3702 59.6723 81.0907 61.9245 81.2394C63.8586 81.367 64.6058 82.7799 63.8628 84.2933C63.8628 84.2933 66.0689 85.388 65.1668 87.0708C64.3839 88.534 62.1359 87.8935 61.5875 87.2634C61.5875 87.2634 59.7769 88.67 58.4289 87.5565C56.8046 86.2148 57.7361 83.8976 59.8313 84.1865Z" fill="#FFF5C0" stroke="black" stroke-width="1.72881" stroke-linecap="round" stroke-linejoin="round"/>
<path d="M66.7208 77.9793C67.0829 78.2744 68.1923 78.3644 68.5334 77.345C68.8746 76.3257 68.0185 75.5156 66.8024 75.5156C65.0483 75.5156 64.8286 78.1969 66.7208 77.9793Z" fill="#FFF5C0" stroke="black" stroke-width="1.72881" stroke-linecap="round" stroke-linejoin="round"/>
<path d="M72.0951 80.5565C72.2249 80.0144 72.6477 79.0013 73.9371 78.9343C75.5279 78.8527 76.453 81.6826 75.149 83.1981C74.1485 84.3619 72.0532 84.9417 70.858 84.1316C69.847 83.4451 69.6545 81.4482 72.0951 80.5565Z" fill="#FFF5C0" stroke="black" stroke-width="1.72881" stroke-linecap="round" stroke-linejoin="round"/>
</g>
<defs>
<clipPath id="clip0_3359_37822">
<rect width="102" height="102" fill="white"/>
</clipPath>
</defs>
</svg>
