<svg width="102" height="102" viewBox="0 0 102 102" fill="none" xmlns="http://www.w3.org/2000/svg">
<path d="M51.7804 85.0361C51.7804 85.0361 51.9655 87.2088 50.9382 89.9366C49.8279 92.8813 52.6641 94.4637 54.9069 92.1028C56.2405 90.699 56.9679 87.598 56.936 85.2977" fill="#FFCCD3"/>
<path d="M51.7804 85.0361C51.7804 85.0361 51.9655 87.2088 50.9382 89.9366C49.8279 92.8813 52.6641 94.4637 54.9069 92.1028C56.2405 90.699 56.9679 87.598 56.936 85.2977" stroke="black" stroke-width="1.73276" stroke-linecap="round" stroke-linejoin="round"/>
<path d="M66.929 83.6064C66.929 83.6064 65.94 87.8369 66.2271 90.989C66.4664 93.6338 63.2952 94.4346 61.9201 92.565C60.8641 91.1294 60.6887 88.4143 61.2884 84.6848" fill="#FFCCD3"/>
<path d="M66.929 83.6064C66.929 83.6064 65.94 87.8369 66.2271 90.989C66.4664 93.6338 63.2952 94.4346 61.9201 92.565C60.8641 91.1294 60.6887 88.4143 61.2884 84.6848" stroke="black" stroke-width="1.73276" stroke-linecap="round" stroke-linejoin="round"/>
<path d="M43.0814 71.0592C43.7737 78.7544 44.2778 86.7176 57.5241 86.9122C68.4574 87.0717 72.9366 80.8696 73.3833 73.9912C73.6162 70.3892 70.8119 67.0329 69.0827 66.1875" fill="#FFCCD3"/>
<path d="M43.0814 71.0592C43.7737 78.7544 44.2778 86.7176 57.5241 86.9122C68.4574 87.0717 72.9366 80.8696 73.3833 73.9912C73.6162 70.3892 70.8119 67.0329 69.0827 66.1875" stroke="black" stroke-width="1.73276" stroke-linecap="round" stroke-linejoin="round"/>
<path d="M58.7807 79.1327C58.7807 81.1044 56.8473 81.9243 54.1164 81.9243C51.3855 81.9243 50.0487 80.9257 50.0487 78.9541C50.0487 76.9824 51.5641 76.1816 54.295 76.1816C57.026 76.1816 58.7807 77.1611 58.7807 79.1327Z" fill="white"/>
<path d="M56.8691 77.5283C55.7461 78.2525 53.5416 79.567 52.3261 79.9753" stroke="black" stroke-width="1.73276" stroke-linecap="round" stroke-linejoin="round"/>
<path d="M51.5485 77.6328C53.1628 78.5931 55.4821 79.2599 57.3038 79.7034" stroke="black" stroke-width="1.73276" stroke-linecap="round" stroke-linejoin="round"/>
<path d="M47.2571 77.4685C48.8044 78.6681 50.1635 78.9648 52.1862 80.2697C54.2153 81.5809 53.7877 85.1031 50.0455 85.0329C47.9526 84.9914 44.3858 83.1123 43.0076 81.766C40.2607 79.086 38.8218 75.7234 39.6864 72.9127C39.9417 72.08 42.2291 70.5007 43.4478 72.0353C44.9633 73.9463 45.4673 76.0807 47.2603 77.4685H47.2571Z" fill="#FFCCD3" stroke="black" stroke-width="1.73276" stroke-linecap="round" stroke-linejoin="round"/>
<path d="M64.5101 74.0713C62.9372 76.5534 60.6944 78.9845 58.19 79.6034C57.0638 79.881 54.3074 80.2351 54.0936 82.0472C53.8065 84.4432 55.995 85.0653 58.7802 84.8292C61.8844 84.5676 67.7132 82.3886 70.811 75.4304" fill="#FFCCD3"/>
<path d="M64.5101 74.0713C62.9372 76.5534 60.6944 78.9845 58.19 79.6034C57.0638 79.881 54.3074 80.2351 54.0936 82.0472C53.8065 84.4432 55.995 85.0653 58.7802 84.8292C61.8844 84.5676 67.7132 82.3886 70.811 75.4304" stroke="black" stroke-width="1.73276" stroke-linecap="round" stroke-linejoin="round"/>
<path d="M81.7158 49.2625C81.2564 61.4881 75.0448 73.6306 48.6001 74.1028C33.6948 74.3676 14.9515 69.7033 15.7491 49.722C16.266 36.7595 29.2156 24.8115 48.6001 24.4223C72.9233 23.9342 82.2071 36.2043 81.7158 49.2625Z" fill="#FFCCD3" stroke="black" stroke-width="1.73276" stroke-linecap="round" stroke-linejoin="round"/>
<path d="M33.9527 29.7536C36.0456 22.5657 41.5426 16.2488 46.628 13.4476C50.6542 11.2303 56.9073 12.0279 55.0888 18.4629C54.1795 21.6756 51.6496 25.2744 50.6669 27.0163" fill="#FFCCD3"/>
<path d="M33.9527 29.7536C36.0456 22.5657 41.5426 16.2488 46.628 13.4476C50.6542 11.2303 56.9073 12.0279 55.0888 18.4629C54.1795 21.6756 51.6496 25.2744 50.6669 27.0163" stroke="black" stroke-width="1.73276" stroke-linecap="round" stroke-linejoin="round"/>
<path d="M48.0929 27.9892C51.363 20.4312 57.9224 15.3266 60.5097 14.1142C67.4902 10.8377 71.2357 16.0316 69.6788 20.8044C68.7472 23.6598 65.4579 27.0097 61.8529 31.2593" fill="#FFCCD3"/>
<path d="M48.0929 27.9892C51.363 20.4312 57.9224 15.3266 60.5097 14.1142C67.4902 10.8377 71.2357 16.0316 69.6788 20.8044C68.7472 23.6598 65.4579 27.0097 61.8529 31.2593" stroke="black" stroke-width="1.73276" stroke-linecap="round" stroke-linejoin="round"/>
<path d="M39.1185 63.7218C39.983 64.2993 42.1365 64.5864 43.8242 62.752C45.6172 64.9501 48.9032 64.5067 49.7965 63.6229" stroke="black" stroke-width="1.73276" stroke-linecap="round" stroke-linejoin="round"/>
<path d="M47.9262 56.7061C47.9262 56.7061 49.5181 57.1878 50.7305 57.7908" stroke="black" stroke-width="1.73276" stroke-linecap="round" stroke-linejoin="round"/>
<path d="M38.5851 56.8145C38.5851 56.8145 37.5323 57.1526 36.4285 57.8864" stroke="black" stroke-width="1.73276" stroke-linecap="round" stroke-linejoin="round"/>
</svg>
