<svg width="102" height="102" viewBox="0 0 102 102" fill="none" xmlns="http://www.w3.org/2000/svg">
<path d="M50.2854 56.4531C50.9891 52.3496 56.2774 52.7229 57.1462 55.5268C58.0652 58.4887 53.9079 59.756 51.7394 58.6215" fill="#FFF174"/>
<path d="M50.2854 56.4531C50.9891 52.3496 56.2774 52.7229 57.1462 55.5268C58.0652 58.4887 53.9079 59.756 51.7394 58.6215" stroke="black" stroke-width="1.72881" stroke-linecap="round" stroke-linejoin="round"/>
<path d="M54.0336 56.4385C52.8775 56.5354 51.7323 56.8226 50.7809 58.0361L54.0336 56.4385Z" fill="#FFF174"/>
<path d="M54.0336 56.4385C52.8775 56.5354 51.7323 56.8226 50.7809 58.0361" stroke="black" stroke-width="1.72881" stroke-linecap="round" stroke-linejoin="round"/>
<path d="M42.3583 46.1742C44.0169 43.0831 47.4563 42.103 49.1795 44.0237C51.6998 46.8384 48.3789 50.6152 43.8159 48.8668" fill="#FFF174"/>
<path d="M42.3583 46.1742C44.0169 43.0831 47.4563 42.103 49.1795 44.0237C51.6998 46.8384 48.3789 50.6152 43.8159 48.8668" stroke="black" stroke-width="1.72881" stroke-linecap="round" stroke-linejoin="round"/>
<path d="M46.785 46.3604C45.7869 46.4932 44.7243 46.9384 43.8303 48.159L46.785 46.3604Z" fill="#FFF174"/>
<path d="M46.785 46.3604C45.7869 46.4932 44.7243 46.9384 43.8303 48.159" stroke="black" stroke-width="1.72881" stroke-linecap="round" stroke-linejoin="round"/>
<path d="M32.9844 40.9653C33.6162 35.4688 38.3481 35.6017 39.9277 37.7055C41.4607 39.7447 39.1702 42.7245 36.693 42.6778" fill="#FFF174"/>
<path d="M32.9844 40.9653C33.6162 35.4688 38.3481 35.6017 39.9277 37.7055C41.4607 39.7447 39.1702 42.7245 36.693 42.6778" stroke="black" stroke-width="1.72881" stroke-linecap="round" stroke-linejoin="round"/>
<path d="M37.2782 39.5225C36.5997 39.8599 35.458 41.4863 35.1493 43.0444L37.2782 39.5225Z" fill="#FFF174"/>
<path d="M37.2782 39.5225C36.5997 39.8599 35.458 41.4863 35.1493 43.0444" stroke="black" stroke-width="1.72881" stroke-linecap="round" stroke-linejoin="round"/>
<path d="M20.7922 40.3804C20.7922 36.6359 22.8745 34.1084 25.5348 34.1084C28.3423 34.1084 29.4337 37.9534 27.1109 39.9101" fill="#FFF174"/>
<path d="M20.7922 40.3804C20.7922 36.6359 22.8745 34.1084 25.5348 34.1084C28.3423 34.1084 29.4337 37.9534 27.1109 39.9101" stroke="black" stroke-width="1.72881" stroke-linecap="round" stroke-linejoin="round"/>
<path d="M23.255 41.2492C23.2909 39.5619 24.7916 37.1708 25.1721 36.8262L23.255 41.2492Z" fill="#FFF174"/>
<path d="M23.255 41.2492C23.2909 39.5619 24.7916 37.1708 25.1721 36.8262" stroke="black" stroke-width="1.72881" stroke-linecap="round" stroke-linejoin="round"/>
<path d="M47.4204 78.5076C47.4743 79.3836 46.9214 81.2325 45.0545 81.534C41.9814 82.0331 41.0551 79.0066 40.7069 78.127C40.7499 78.9312 40.8792 81.7279 37.7522 81.771C35.1744 81.8069 34.3272 79.3979 33.9969 77.9978C33.9179 78.8019 33.8605 82.0833 30.615 81.8895C28.3029 81.7495 27.61 79.423 27.2905 77.9367C27.1577 80.4355 25.7862 81.5915 24.0486 81.5771C21.3703 81.5556 20.4118 78.3963 18.8644 76.5581C16.7929 74.0989 14.4916 72.0812 12.2478 69.8481C5.90042 63.5438 5.17521 52.8991 10.9877 46.1568C17.1986 38.9514 28.7948 37.8097 36.7756 41.7732C41.3854 44.0637 45.155 47.46 48.2964 51.4738C50.6767 54.5146 52.6872 58.0617 54.8484 61.2461C56.6363 63.8813 58.4924 66.2544 60.6824 68.5665C61.58 69.5107 62.596 70.3077 63.4827 71.2662C64.1433 71.9843 65.0803 72.9536 65.2886 73.9086C66.1825 77.9978 61.2856 79.4697 58.5319 79.6205C54.1986 79.8574 49.6032 79.7067 47.4276 78.7948" fill="#90EBA5"/>
<path d="M47.4204 78.5076C47.4743 79.3836 46.9214 81.2325 45.0545 81.534C41.9814 82.0331 41.0551 79.0066 40.7069 78.127C40.7499 78.9312 40.8792 81.7279 37.7522 81.771C35.1744 81.8069 34.3272 79.3979 33.9969 77.9978C33.9179 78.8019 33.8605 82.0833 30.615 81.8895C28.3029 81.7495 27.61 79.423 27.2905 77.9367C27.1577 80.4355 25.7862 81.5915 24.0486 81.5771C21.3703 81.5556 20.4118 78.3963 18.8644 76.5581C16.7929 74.0989 14.4916 72.0812 12.2478 69.8481C5.90042 63.5438 5.17521 52.8991 10.9877 46.1568C17.1986 38.9514 28.7948 37.8097 36.7756 41.7732C41.3854 44.0637 45.155 47.46 48.2964 51.4738C50.6767 54.5146 52.6872 58.0617 54.8484 61.2461C56.6363 63.8813 58.4924 66.2544 60.6824 68.5664C61.58 69.5107 62.596 70.3077 63.4827 71.2662C64.1433 71.9843 65.0803 72.9536 65.2886 73.9086C66.1825 77.9978 61.2856 79.4697 58.5319 79.6205C54.1986 79.8574 49.6032 79.7067 47.4276 78.7948" stroke="black" stroke-width="1.72881" stroke-linecap="round" stroke-linejoin="round"/>
<path d="M31.7029 56.2803L30.3889 57.824" stroke="#FF7373" stroke-width="1.38305" stroke-linecap="round" stroke-linejoin="round"/>
<path d="M34.4243 56.0117L32.5394 58.4207" stroke="#FF7373" stroke-width="1.38305" stroke-linecap="round" stroke-linejoin="round"/>
<path d="M36.3449 56.9912L35.1674 58.5027" stroke="#FF7373" stroke-width="1.38305" stroke-linecap="round" stroke-linejoin="round"/>
<path d="M11.1707 57.0381L9.93213 58.6429" stroke="#FF7373" stroke-width="1.38305" stroke-linecap="round" stroke-linejoin="round"/>
<path d="M14.1792 56.4316L12.4093 58.9268" stroke="#FF7373" stroke-width="1.38305" stroke-linecap="round" stroke-linejoin="round"/>
<path d="M16.3262 57.4121L15.2205 58.9774" stroke="#FF7373" stroke-width="1.38305" stroke-linecap="round" stroke-linejoin="round"/>
<path d="M20.0096 57.76C19.7906 59.1996 20.6092 63.4216 23.1259 63.4826C25.3123 63.5329 25.7646 59.1278 25.1292 57.5625" fill="white"/>
<path d="M20.0096 57.76C19.7906 59.1996 20.6092 63.4216 23.1259 63.4826C25.3123 63.5329 25.7646 59.1278 25.1292 57.5625" stroke="black" stroke-width="1.72881" stroke-miterlimit="10"/>
<path d="M19.0403 57.5588C19.5178 57.8101 20.8138 58.3522 22.4007 56.6182C23.1582 57.4116 24.6445 58.1942 26.3175 57.5624" stroke="black" stroke-width="1.72881" stroke-linecap="round" stroke-linejoin="round"/>
<path d="M25.3914 52.9668C25.3914 52.9668 26.1237 53.1607 26.5187 53.3868" stroke="black" stroke-width="1.72881" stroke-linecap="round" stroke-linejoin="round"/>
<path d="M18.4336 53.9154C18.6382 53.7251 18.9793 53.4343 19.3634 53.1758" stroke="black" stroke-width="1.72881" stroke-linecap="round" stroke-linejoin="round"/>
<path d="M17.0118 49.6106C17.2703 49.9445 21.0041 51.7216 23.4023 48.1566C24.1778 47.0006 23.6644 45.5322 22.6304 45.5322C21.5965 45.5322 20.5086 46.7995 21.4421 48.7454C22.1098 50.1384 26.8919 50.8923 28.4931 49.6393" stroke="black" stroke-width="1.55593" stroke-linecap="round" stroke-linejoin="round"/>
<path d="M88.4202 79.6187C92.3263 76.5025 93.7695 73.1241 93.3782 66.0264C93.2023 63.6605 92.4591 61.2192 91.8847 59.4277C86.9914 62.7881 72.8641 66.608 72.8641 66.608L73.4493 81.7548C78.7663 82.1713 84.7906 81.7082 88.4238 79.6187H88.4202Z" fill="#A37944"/>
<path d="M92.944 63.1218C93.6512 67.2791 94.0641 72.9982 91.3176 76.4699C87.4115 81.4099 79.4953 82.4008 73.6326 81.3704C58.2237 78.6707 58.2632 57.9053 58.2632 57.9053" stroke="black" stroke-width="1.72881" stroke-linecap="round" stroke-linejoin="round"/>
<path d="M93.048 63.0752C92.4305 60.4041 89.623 53.1413 87.1566 51.9062L73.9951 56.3473C73.9951 56.3473 78.393 66.6007 82.7658 69.5015C83.2397 69.1712 90.3841 66.3961 93.048 63.0716V63.0752Z" fill="#FFD677"/>
<path d="M75.3092 82.6451L61.0096 81.7009L59.8752 71.8604L58.2632 57.9055L87.8531 51.874C89.9354 54.2543 92.147 59.4169 92.9476 63.1219" stroke="black" stroke-width="1.72881" stroke-linecap="round" stroke-linejoin="round"/>
<path d="M53.2799 70.9092C51.9372 73.6664 52.1095 76.7862 53.7933 80.2687C55.5201 83.2305 57.9255 84.6702 61.0023 84.5804C64.079 84.4907 66.0608 83.3957 66.9476 81.2954C69.0011 76.4272 65.989 68.7982 60.5786 67.6565C57.606 67.0282 54.9493 68.5217 53.2799 70.9092Z" fill="#A37944" stroke="black" stroke-width="1.72881" stroke-linecap="round" stroke-linejoin="round"/>
<path d="M74.7024 71.0664C71.8338 68.2051 68.5129 67.7958 64.7397 69.835C62.6467 71.5726 61.8712 74.1827 62.4169 77.6687C63.4185 82.1025 65.6372 84.6372 69.0694 85.269C72.3939 85.7178 74.7454 84.8598 76.1169 82.6913C77.0431 81.284 77.2765 79.7007 76.8062 77.9452C76.7954 77.9057 76.7846 77.8662 76.7739 77.8231" fill="#A37944"/>
<path d="M74.7024 71.0664C71.8338 68.2051 68.5129 67.7958 64.7397 69.835C62.6467 71.5726 61.8712 74.1827 62.4169 77.6687C63.4185 82.1025 65.6372 84.6372 69.0694 85.269C72.3939 85.7178 74.7454 84.8598 76.1169 82.6913C77.0431 81.284 77.2765 79.7007 76.8062 77.9452C76.7954 77.9057 76.7846 77.8662 76.7739 77.8231" stroke="black" stroke-width="1.72881" stroke-linecap="round" stroke-linejoin="round"/>
<path d="M49.9088 63.4664C49.9591 63.7608 50.0309 64.0552 50.1207 64.3496C50.9859 67.0852 53.5744 69.1998 56.3675 69.7096C60.27 70.4169 63.4365 70.0292 65.8634 68.5428C67.4575 65.186 67.2456 62.0124 65.2244 59.0182C62.4349 57.1908 58.8806 55.4998 55.4556 55.8948C51.7362 56.322 49.2985 59.9014 49.9053 63.47L49.9088 63.4664Z" fill="#FFD677" stroke="black" stroke-width="1.72881" stroke-linecap="round" stroke-linejoin="round"/>
<path d="M84.5681 68.051C79.305 71.2605 72.0493 72.3448 67.2959 70.9841C64.2335 70.3666 61.7168 68.094 61.5768 64.8162C61.4368 60.9209 64.0899 58.8853 68.2006 59.1869C73.4135 59.4203 77.8007 58.7525 81.3693 57.1836" fill="#FFD677"/>
<path d="M84.5681 68.051C79.305 71.2605 72.0493 72.3448 67.2959 70.9841C64.2335 70.3666 61.7168 68.094 61.5768 64.8162C61.4368 60.9209 64.0899 58.8853 68.2006 59.1869C73.4135 59.4203 77.8007 58.7525 81.3693 57.1836" stroke="black" stroke-width="1.72881" stroke-linecap="round" stroke-linejoin="round"/>
<path d="M91.0374 34.0202C89.6013 28.9653 86.5174 25.8239 84.1515 23.5334C83.8787 22.7508 83.5412 21.5732 82.7298 20.3669C81.6492 18.7621 80.1054 18.2451 79.0786 18.281C77.9262 18.3205 76.5476 18.8483 75.2192 20.0438C73.0005 19.3437 70.1607 19.0314 66.707 19.1032C63.4184 19.175 60.3453 19.3545 57.4588 20.1012C55.9402 19.5627 55.1862 19.394 54.4179 19.3114C53.524 19.2181 52.648 19.4335 51.991 19.8751C51.334 20.3166 50.8493 20.9449 50.537 21.7527C50.2282 22.5641 50.0559 23.5406 50.02 24.6823C47.6074 26.9261 45.8519 29.5289 44.7856 32.042C43.7265 34.5803 42.9762 37.316 42.9438 40.2707C42.89 46.9555 45.0764 51.9817 49.0902 55.3169C53.2404 58.7599 59.5339 60.4078 67.9635 60.257C76.3896 60.0523 81.9364 57.6003 85.8748 53.9994C92.0534 48.7039 92.9007 40.583 91.0338 34.0202H91.0374Z" fill="#FFD677" stroke="black" stroke-width="1.72881" stroke-linecap="round" stroke-linejoin="round"/>
<path d="M46.1609 43.2357C46.1609 46.2299 48.7709 48.944 52.1385 48.7789C55.5958 48.6102 57.4842 46.3376 57.4088 43.2214C57.3406 40.4713 55.9476 38.0982 52.0128 37.9223C48.5986 37.7715 46.1609 39.983 46.1609 43.2321V43.2357Z" fill="#FF9470"/>
<path d="M81.6747 43.2353C81.6747 46.2295 79.8509 48.7857 76.2321 48.7857C72.6132 48.7857 70.3478 46.3372 70.4232 43.2209C70.4914 40.4709 71.8808 37.9327 75.8192 37.9219C78.9247 37.9147 81.6711 39.9826 81.6711 43.2317L81.6747 43.2353Z" fill="#FF9470"/>
<path d="M72.326 40.7305L68.9082 42.1593" stroke="black" stroke-width="1.72881" stroke-linecap="round" stroke-linejoin="round"/>
<path d="M72.2256 45.7277L68.9083 44.2988" stroke="black" stroke-width="1.72881" stroke-linecap="round" stroke-linejoin="round"/>
<path d="M55.5095 40.7305L59.3402 42.3317" stroke="black" stroke-width="1.72881" stroke-linecap="round" stroke-linejoin="round"/>
<path d="M55.6105 45.7277L58.9242 44.2988" stroke="black" stroke-width="1.72881" stroke-linecap="round" stroke-linejoin="round"/>
<path d="M63.9176 38.9785C59.7603 38.9785 57.3764 41.6388 57.8359 44.0263C58.3386 46.6363 61.7743 47.5374 63.9176 45.0746C66.0574 47.5374 69.4931 46.6327 69.9993 44.0263C70.4625 41.6388 68.075 38.9785 63.9176 38.9785Z" fill="white" stroke="black" stroke-width="1.72881" stroke-linecap="round" stroke-linejoin="round"/>
<path d="M58.2657 36.8195C58.9673 36.2031 59.0459 35.1456 58.4413 34.4574C57.8367 33.7692 56.7779 33.711 56.0763 34.3273C55.3747 34.9437 55.296 36.0012 55.9006 36.6894C56.5052 37.3776 57.5641 37.4359 58.2657 36.8195Z" fill="black"/>
<path d="M71.432 37.6182C72.348 37.6182 73.0906 36.8612 73.0906 35.9273C73.0906 34.9934 72.348 34.2363 71.432 34.2363C70.5159 34.2363 69.7733 34.9934 69.7733 35.9273C69.7733 36.8612 70.5159 37.6182 71.432 37.6182Z" fill="black"/>
</svg>
