<svg width="102" height="102" viewBox="0 0 102 102" fill="none" xmlns="http://www.w3.org/2000/svg">
<path d="M59.1807 81.2531C61.158 87.1941 71.3854 87.1941 76.1926 84.2351C82.0415 80.6355 79.018 72.943 73.4871 73.4961C70.4221 73.8003 67.076 78.1466 63.6377 78.1881" fill="#FBB379"/>
<path d="M71.7957 74.0036C72.3672 73.7363 72.9295 73.5473 73.4826 73.492C78.8936 72.9528 81.9033 80.2949 76.5661 83.9868C76.0084 79.8202 74.3076 76.3681 71.7957 74.0036Z" fill="#3A3938"/>
<path d="M72.5238 85.6923C71.1457 86.0242 69.6524 86.1947 68.1729 86.1763C68.0761 82.7241 66.9422 80.0878 65.3936 77.8293C66.403 77.4514 67.4032 76.82 68.3849 76.1562C70.7723 78.1151 72.0629 81.8069 72.5514 85.6877" fill="#3A3938"/>
<path d="M76.5661 83.991C76.0084 79.8244 74.3076 76.3722 71.7957 74.0078" stroke="black" stroke-width="1.72881" stroke-linecap="round" stroke-linejoin="round"/>
<path d="M68.385 76.1514C70.7725 78.1102 72.063 81.802 72.5516 85.6828" stroke="black" stroke-width="1.72881" stroke-linecap="round" stroke-linejoin="round"/>
<path d="M68.1729 86.1761C68.0761 82.7239 66.9422 80.0875 65.3936 77.8291" stroke="black" stroke-width="1.72881" stroke-linecap="round" stroke-linejoin="round"/>
<path d="M59.1807 81.2531C61.158 87.1941 71.3854 87.1941 76.1926 84.2351C82.0415 80.6355 79.018 72.943 73.4871 73.4961C70.4221 73.8003 67.076 78.1466 63.6377 78.1881" stroke="black" stroke-width="1.72881" stroke-linecap="round" stroke-linejoin="round"/>
<path d="M39.1729 80.12C37.3938 82.6918 34.7252 82.1526 33.5868 81.0234C30.3559 77.8293 34.0984 70.3673 39.5739 64.1221L64.6562 64.3433L62.8403 75.2897" fill="#3A3938"/>
<path d="M39.1729 80.12C37.3938 82.6918 34.7252 82.1526 33.5868 81.0234C30.3559 77.8293 34.0984 70.3673 39.5739 64.1221L64.6562 64.3433L62.8403 75.2897" stroke="black" stroke-width="1.72881" stroke-linecap="round" stroke-linejoin="round"/>
<path d="M55.8575 19.8116C59.1806 15.5574 70.3529 6.99846 78.0868 10.423C82.8894 12.5477 84.0832 24.7432 79.7783 33.6156" fill="white"/>
<path d="M82.4332 21.6269C78.6584 17.1838 72.7819 12.7453 66.8409 11.4778C70.6157 9.73097 74.6854 8.91978 78.0869 10.4223C80.8661 11.6529 82.4378 16.2481 82.4332 21.6223V21.6269Z" fill="#F08A5D"/>
<path d="M55.8575 19.8116C59.1806 15.5574 70.3529 6.99846 78.0868 10.423C82.8894 12.5477 84.0832 24.7432 79.7783 33.6156" stroke="black" stroke-width="1.72881" stroke-linecap="round" stroke-linejoin="round"/>
<path d="M77.543 10.2061C77.543 10.2061 74.6347 11.5934 72.4777 13.7181" stroke="black" stroke-width="1.72881" stroke-linecap="round" stroke-linejoin="round"/>
<path d="M79.7001 11.6494C79.7001 11.6494 79.3314 15.3412 77.2711 18.056" stroke="black" stroke-width="1.72881" stroke-linecap="round" stroke-linejoin="round"/>
<path d="M47.7456 21.5032C42.1825 13.5204 30.9457 8.88833 25.4149 12.2114C20.4556 15.1981 19.8149 25.6882 22.2808 36.7222" fill="white"/>
<path d="M36.8774 12.7508C31.5816 13.4007 24.7557 17.853 20.9855 22.3053C21.3634 17.5165 22.7784 13.8017 25.4148 12.2162C28.2493 10.5108 32.5772 10.898 36.8728 12.7508" fill="#F08A5D"/>
<path d="M47.7456 21.5032C42.1825 13.5204 30.9457 8.88833 25.4149 12.2114C20.4556 15.1981 19.8149 25.6882 22.2808 36.7222" stroke="black" stroke-width="1.72881" stroke-linecap="round" stroke-linejoin="round"/>
<path d="M24.9033 12.5576C24.9033 12.5576 24.8526 15.3968 25.5347 18.4249" stroke="black" stroke-width="1.72881" stroke-linecap="round" stroke-linejoin="round"/>
<path d="M27.2125 11.4551C27.2125 11.4551 29.9134 13.1927 31.4482 14.9902" stroke="black" stroke-width="1.72881" stroke-linecap="round" stroke-linejoin="round"/>
<path d="M38.0067 72.2491C32.5173 84.7349 39.2281 88.5235 53.1151 88.1041C62.1027 87.8322 65.3382 84.9101 67.2556 73.4935C63.2088 56.1082 44.4685 58.8045 38.0067 72.2491Z" fill="#3A3938"/>
<path d="M83.65 44.5669C83.0278 64.017 68.1268 69.8474 51.4606 69.0823C34.7943 68.3172 19.4647 63.2104 19.4601 45.6316C19.4555 28.0527 35.1584 17.3736 52.5022 17.0833C69.3205 16.8021 84.2354 26.2368 83.65 44.5623V44.5669Z" fill="#FBB379" stroke="black" stroke-width="1.72881" stroke-linecap="round" stroke-linejoin="round"/>
<path d="M41.5327 37.5608C42.2759 37.5608 42.8785 36.9583 42.8785 36.215C42.8785 35.4717 42.2759 34.8691 41.5327 34.8691C40.7894 34.8691 40.1868 35.4717 40.1868 36.215C40.1868 36.9583 40.7894 37.5608 41.5327 37.5608Z" fill="black"/>
<path d="M52.0413 37.5608C52.7846 37.5608 53.3871 36.9583 53.3871 36.215C53.3871 35.4717 52.7846 34.8691 52.0413 34.8691C51.298 34.8691 50.6954 35.4717 50.6954 36.215C50.6954 36.9583 51.298 37.5608 52.0413 37.5608Z" fill="black"/>
<path d="M50.1608 44.1104C50.2022 49.3462 50.276 54.3516 46.7962 54.3516C42.7172 54.3516 42.7771 48.618 43.2795 43.2393" fill="white"/>
<path d="M50.1608 44.1104C50.2022 49.3462 50.276 54.3516 46.7962 54.3516C42.7172 54.3516 42.7771 48.618 43.2795 43.2393" stroke="black" stroke-width="1.72881" stroke-linecap="round" stroke-linejoin="round"/>
<path d="M46.4919 44.8517C48.3356 46.4695 52.433 46.7598 53.1889 44.6489C54.3457 41.4318 51.1885 40.0583 46.6717 40.0537C43.2933 40.0537 39.3065 40.9709 39.5876 43.9806C39.8319 46.5939 44.2842 46.5939 46.4919 44.8517Z" fill="white" stroke="black" stroke-width="1.72881" stroke-linecap="round" stroke-linejoin="round"/>
<path d="M60.9598 68.7175C61.5175 59.3428 63.1906 51.7425 64.859 49.1107C66.675 46.2393 70.5881 47.0689 70.6756 50.2399C70.7955 54.6462 68.2882 67.3164 67.2511 73.4925C63.6146 73.0823 61.3977 71.5797 60.9552 68.7175H60.9598Z" fill="#3A3938"/>
<path d="M38.0067 72.2485C32.5173 84.7343 39.2281 88.523 53.1151 88.1035C62.1027 87.8316 65.3382 84.9095 67.2556 73.4929C68.2926 67.3168 70.7999 54.6466 70.6801 50.2404C70.5925 47.0648 66.6794 46.2351 64.8635 49.1112C63.195 51.7475 61.5219 59.3478 60.9642 68.718" stroke="black" stroke-width="1.72881" stroke-linecap="round" stroke-linejoin="round"/>
<path d="M41.7907 84.0019C43.5606 85.6611 41.9059 87.5877 40.1176 88.6339C38.5782 89.5327 35.2505 90.6435 34.1259 89.187C33.5728 88.4726 33.2917 87.3065 34.278 86.3202C35.0247 85.5735 36.8913 84.896 37.3706 84.6794C38.3524 84.2323 40.385 82.6791 41.7953 84.0019H41.7907Z" fill="#3A3938" stroke="black" stroke-width="1.72881" stroke-linecap="round" stroke-linejoin="round"/>
<path d="M56.6873 84.997C58.4571 86.6562 56.8025 88.5828 55.0142 89.6291C53.4748 90.5278 50.147 91.6386 49.0224 90.1821C48.4694 89.4677 48.1882 88.3017 49.1745 87.3153C49.9212 86.5687 51.7879 85.8911 52.2672 85.6745C53.2489 85.2274 55.2815 83.6742 56.6919 84.997H56.6873Z" fill="#3A3938" stroke="black" stroke-width="1.72881" stroke-linecap="round" stroke-linejoin="round"/>
</svg>
