<svg width="102" height="102" viewBox="0 0 102 102" fill="none" xmlns="http://www.w3.org/2000/svg">
<path d="M89.5973 48.28C90.4808 47.8988 92.0399 46.1953 93.4461 46.7526C94.7569 47.2723 94.3469 48.843 94.3844 48.8834C94.4075 48.9065 95.8512 48.5052 96.7289 49.6774C97.5229 50.7371 96.4431 52.1085 96.4575 52.149C96.4633 52.1634 99.0359 51.7274 99.0099 53.5666C98.9955 54.6523 97.8088 55.5531 97.8088 55.608C97.8088 55.6513 99.7808 56.3731 99.3131 58.0506C98.9955 59.1882 97.5576 59.4452 97.5576 59.4452C97.5576 59.4452 98.7616 60.8398 97.9416 62.116C97.1245 63.3922 95.7501 62.7454 95.7242 62.8407C95.6982 62.936 96.189 64.5182 94.9821 65.1246C93.7752 65.7309 92.577 64.7867 92.5048 64.7406C92.4326 64.6944 92.857 66.4614 91.4942 67.0013C89.9293 67.6221 89.04 66.0341 89.0169 66.0398C88.988 66.0456 88.2547 67.3969 87.0911 67.1717C85.9275 66.9465 85.7138 65.7742 85.6243 65.8233C84.2355 66.6029 82.6042 66.6779 82.353 65.7742C80.404 58.7725 81.8852 51.6148 89.5944 48.2828L89.5973 48.28Z" fill="#E7FBF4" stroke="black" stroke-width="1.72881" stroke-linecap="round" stroke-linejoin="round"/>
<path d="M92.8742 57.9318C93.2207 58.388 93.9454 58.9309 94.7221 58.6479C95.8423 58.2408 95.5247 56.826 95.4872 56.748" fill="#E7FBF4"/>
<path d="M92.8742 57.9318C93.2207 58.388 93.9454 58.9309 94.7221 58.6479C95.8423 58.2408 95.5247 56.826 95.4872 56.748" stroke="black" stroke-width="1.72881" stroke-linecap="round" stroke-linejoin="round"/>
<path d="M73.9364 61.5184C73.8816 61.8996 71.2166 73.0446 64.3939 77.2861C64.3361 77.3236 65.5661 79.7721 63.5334 80.644C62.6961 81.0021 60.6519 81.6286 56.6847 78.4901C56.5894 78.415 51.4673 81.62 48.7013 80.26C45.9699 78.9174 49.7061 75.5681 50.3788 75.3256C51.0516 75.0831 47.6359 59.3501 54.2767 58.3395C60.9175 57.329 75.0192 54.0692 73.9364 61.5213V61.5184Z" fill="white"/>
<path d="M64.4199 77.3948C64.5815 77.8827 65.3236 79.875 63.5335 80.643C62.6961 81.001 60.6519 81.6276 56.6847 78.4891C56.5894 78.414 51.4673 81.6189 48.7013 80.259C47.0786 79.4621 47.7398 77.952 48.684 76.8115C52.7551 77.1984 57.8599 77.516 64.4199 77.3948Z" fill="#A8E6FF"/>
<path d="M73.9364 61.5184C73.8816 61.8996 71.2166 73.0446 64.3939 77.2861C64.3361 77.3236 65.5661 79.7721 63.5334 80.644C62.6961 81.0021 60.6519 81.6286 56.6847 78.4901C56.5894 78.415 51.4673 81.62 48.7013 80.26C45.9699 78.9174 49.7061 75.5681 50.3788 75.3256C51.0516 75.0831 47.6359 59.3501 54.2767 58.3395C60.9175 57.329 75.0192 54.0692 73.9364 61.5213V61.5184Z" stroke="black" stroke-width="1.72881" stroke-linecap="round" stroke-linejoin="round"/>
<path d="M61.7838 78.5469C62.0379 78.7981 62.9272 79.9674 63.2534 80.7499" stroke="black" stroke-width="1.72881" stroke-linecap="round" stroke-linejoin="round"/>
<path d="M50.4364 78.9697C49.8936 79.3191 49.5096 79.6078 48.8282 80.3152" stroke="black" stroke-width="1.72881" stroke-linecap="round" stroke-linejoin="round"/>
<path d="M46.6137 45.6435C46.6137 55.062 54.8513 64.8153 68.4014 65.0521C82.0527 65.2888 90.8503 59.2948 90.8503 46.2123C90.8503 35.3849 83.9208 24.7018 68.4736 24.8462C55.5789 24.9674 46.6137 33.8633 46.6137 45.6435Z" fill="white" stroke="black" stroke-width="1.72881" stroke-linecap="round" stroke-linejoin="round"/>
<path d="M79.5869 48.9176C79.5869 51.4238 77.2309 53.4276 74.6785 53.4276C72.1261 53.4276 70.105 51.3458 70.105 48.8367C70.105 46.3276 71.9355 44.295 74.7276 44.2979C78.1086 44.2979 79.5869 46.4085 79.5869 48.9176Z" fill="#A8E6FF"/>
<path d="M73.0153 47.861C73.6996 48.0487 74.586 47.9707 75.2212 46.9919C75.2501 46.9457 75.8968 47.8697 76.7313 47.962C76.7313 47.962 77.2568 50.142 76.353 51.4095C75.712 52.3103 73.8815 52.2844 73.2925 51.2103C72.6977 50.1275 73.0153 47.8581 73.0153 47.8581" fill="white"/>
<path d="M73.0155 47.8613C73.0155 47.8613 72.6979 50.1308 73.2926 51.2135C73.8817 52.2876 75.7122 52.3107 76.3532 51.4127C77.2569 50.1452 76.7314 47.9653 76.7314 47.9653" stroke="black" stroke-width="1.72881" stroke-linecap="round" stroke-linejoin="round"/>
<path d="M72.0279 47.2926C72.3513 47.7229 74.1472 48.6526 75.2213 46.9924C75.2675 46.9202 76.8584 49.2676 78.2934 46.9375" stroke="black" stroke-width="1.72881" stroke-linecap="round" stroke-linejoin="round"/>
<path d="M71.2281 43.7735C71.7974 43.7735 72.2589 43.312 72.2589 42.7427C72.2589 42.1734 71.7974 41.7119 71.2281 41.7119C70.6588 41.7119 70.1973 42.1734 70.1973 42.7427C70.1973 43.312 70.6588 43.7735 71.2281 43.7735Z" fill="black"/>
<path d="M78.5677 43.7061C79.137 43.7061 79.5985 43.2446 79.5985 42.6753C79.5985 42.106 79.137 41.6445 78.5677 41.6445C77.9985 41.6445 77.537 42.106 77.537 42.6753C77.537 43.2446 77.9985 43.7061 78.5677 43.7061Z" fill="black"/>
<path d="M62.8231 70.4824C64.2004 71.3977 65.0839 72.0531 67.2436 72.3938" stroke="black" stroke-width="1.72881" stroke-linecap="round" stroke-linejoin="round"/>
<path d="M70.6478 61.4294C70.6766 61.4063 71.4562 58.4959 73.307 58.8914C74.7016 59.1888 74.716 60.8057 74.742 60.7971C74.7766 60.7855 76.1135 57.9906 78.0162 59.0243C79.2953 59.7201 78.6601 61.6575 78.6832 61.6777C78.7034 61.6921 80.3463 59.671 81.7033 60.6729C82.8842 61.5449 81.7639 63.3783 81.7755 63.3928C81.7841 63.4043 83.2538 62.9193 83.7186 63.8721C84.2586 64.9808 82.9853 65.847 82.9882 65.8759C82.9882 65.8961 84.787 65.9163 84.9515 67.5938C85.0901 69.0028 83.8746 69.5861 83.8688 69.6034C83.863 69.6178 85.5174 71.0471 84.7032 72.4994C84.1344 73.5128 82.7774 73.3309 82.7629 73.3454C82.7485 73.3598 83.2105 74.5609 82.6994 75.2799C82.1884 75.9988 81.0912 75.6985 81.0796 75.7158C81.0681 75.7332 81.0941 76.7408 80.5628 77.2201C79.584 78.1037 78.0768 77.1739 78.0537 77.1942C78.0335 77.2115 77.6004 78.4819 76.3387 78.3953C75.2328 78.3202 75.0278 77.2692 74.9845 77.2577C74.9412 77.2461 73.7747 78.4039 72.3686 77.9564C70.8297 77.4656 71.1646 75.9208 71.1415 75.9006C71.1271 75.8862 69.3456 76.9689 68.0867 75.866C66.9404 74.8612 67.977 73.1057 67.9654 73.0739C67.9481 73.0278 65.6123 73.1808 65.5603 71.3185C65.5228 70.0163 66.7181 69.358 66.7152 69.3204C66.7152 69.28 65.081 68.5784 65.2109 67.0828C65.3553 65.4226 67.4197 64.9144 67.4111 64.8682C67.4024 64.822 65.6383 63.3408 67.1368 61.9693C68.3812 60.8288 70.9596 61.5536 71.0404 61.5795" fill="#E7FBF4"/>
<path d="M70.6478 61.4294C70.6766 61.4063 71.4562 58.4959 73.307 58.8914C74.7016 59.1888 74.716 60.8057 74.742 60.7971C74.7766 60.7855 76.1134 57.9906 78.0162 59.0243C79.2953 59.7201 78.6601 61.6575 78.6832 61.6777C78.7034 61.6921 80.3463 59.671 81.7033 60.6729C82.8842 61.5449 81.7639 63.3783 81.7755 63.3928C81.7841 63.4043 83.2538 62.9193 83.7186 63.8721C84.2586 64.9808 82.9853 65.847 82.9882 65.8759C82.9882 65.8961 84.787 65.9163 84.9515 67.5938C85.0901 69.0028 83.8746 69.5861 83.8688 69.6034C83.863 69.6178 85.5174 71.0471 84.7032 72.4994C84.1344 73.5128 82.7774 73.3309 82.7629 73.3454C82.7485 73.3598 83.2105 74.5609 82.6994 75.2799C82.1884 75.9988 81.0912 75.6985 81.0796 75.7158C81.0681 75.7332 81.0941 76.7408 80.5628 77.2201C79.584 78.1037 78.0768 77.1739 78.0537 77.1942C78.0335 77.2115 77.6004 78.4819 76.3387 78.3953C75.2328 78.3202 75.0278 77.2692 74.9845 77.2577C74.9412 77.2461 73.7747 78.4039 72.3686 77.9564C70.8297 77.4656 71.1646 75.9208 71.1415 75.9006C71.1271 75.8862 69.3456 76.9689 68.0867 75.866C66.9404 74.8612 67.977 73.1057 67.9654 73.0739C67.9481 73.0278 65.6123 73.1808 65.5603 71.3185C65.5228 70.0163 66.7181 69.358 66.7152 69.3204C66.7152 69.28 65.081 68.5784 65.2109 67.0828C65.3553 65.4226 67.4197 64.9144 67.4111 64.8682C67.4024 64.822 65.6383 63.3408 67.1368 61.9693C68.3812 60.8288 70.9596 61.5536 71.0404 61.5795" stroke="black" stroke-width="1.72881" stroke-linecap="round" stroke-linejoin="round"/>
<path d="M77.4821 73.3276C78.1692 73.625 79.4772 73.7607 80.0142 72.6058C80.4156 71.7396 79.8323 70.8186 79.8381 70.8041C79.8468 70.7868 81.0681 70.706 81.2211 69.7965C81.2846 69.4124 81.1027 68.8494 80.5975 68.3701" stroke="black" stroke-width="1.72881" stroke-linecap="round" stroke-linejoin="round"/>
<path d="M20.7953 62.595C21.0292 63.8337 21.084 65.338 24.8722 65.5545C28.9087 65.7855 26.928 58.5903 23.3939 59.3468C19.8598 60.1032 20.6019 61.5729 20.7953 62.595Z" fill="#FFCCD3" stroke="black" stroke-width="1.72881" stroke-linecap="round" stroke-linejoin="round"/>
<path d="M8.6455 65.1275C8.65416 65.1131 7.53099 66.3604 6.38184 65.3037C5.39438 64.397 6.13064 61.9486 6.11621 61.9342C6.10177 61.9197 4.04022 62.6646 3.42234 61.0073C2.78135 59.2923 4.67832 57.6927 4.661 57.6696C4.6379 57.6378 2.91706 57.8833 2.86797 56.3414C2.80445 54.3203 5.13741 54.1066 5.16628 54.1038C5.20093 54.1009 4.046 52.9633 4.7967 51.7968C5.5474 50.6303 6.7774 51.3377 6.82649 51.3117C6.87557 51.2857 6.06135 50.0182 7.12388 48.9614C8.15465 47.9393 9.56078 48.8517 9.56944 48.7853C9.75134 47.154 10.9207 47.0009 11.0391 46.9778C12.708 46.6429 13.3634 48.1299 13.424 48.1299C13.4846 48.1299 14.7666 46.8479 16.3287 47.3301C19.3979 48.2743 19.5913 54.7909 21.2804 59.1825C23.6076 65.2315 19.2246 64.7493 19.2044 64.7811C19.1698 64.8301 18.3989 66.808 16.8368 66.8166C15.7599 66.8224 15.0669 65.5866 15.0207 65.578C14.9745 65.5693 14.6598 67.14 13.2248 67.14C11.5328 67.14 11.3018 65.3441 11.3018 65.3441C11.1661 66.2016 10.6406 66.6174 10.1007 66.5972C8.67726 66.5481 8.46071 64.2613 8.42895 64.2613" fill="#E7FBF4"/>
<path d="M8.6455 65.1275C8.65416 65.1131 7.53099 66.3604 6.38184 65.3037C5.39438 64.397 6.13064 61.9486 6.11621 61.9342C6.10177 61.9197 4.04022 62.6646 3.42234 61.0073C2.78135 59.2923 4.67832 57.6927 4.661 57.6696C4.6379 57.6378 2.91706 57.8833 2.86797 56.3414C2.80445 54.3203 5.13741 54.1066 5.16628 54.1038C5.20093 54.1009 4.046 52.9633 4.7967 51.7968C5.5474 50.6303 6.7774 51.3377 6.82649 51.3117C6.87557 51.2857 6.06135 50.0182 7.12388 48.9614C8.15465 47.9393 9.56078 48.8517 9.56944 48.7853C9.75134 47.154 10.9207 47.0009 11.0391 46.9778C12.708 46.6429 13.3634 48.1299 13.424 48.1299C13.4846 48.1299 14.7666 46.8479 16.3287 47.3301C19.3979 48.2743 19.5913 54.7909 21.2804 59.1825C23.6076 65.2315 19.2246 64.7493 19.2044 64.7811C19.1698 64.8301 18.3989 66.808 16.8368 66.8166C15.7599 66.8224 15.0669 65.5866 15.0207 65.578C14.9745 65.5693 14.6598 67.14 13.2248 67.14C11.5328 67.14 11.3018 65.3441 11.3018 65.3441C11.1661 66.2016 10.6406 66.6174 10.1007 66.5972C8.67726 66.5481 8.46071 64.2613 8.42895 64.2613" stroke="black" stroke-width="1.72881" stroke-linecap="round" stroke-linejoin="round"/>
<path d="M8.19801 56.4131C8.14026 56.4622 6.86695 57.6084 7.62054 58.4573C8.1316 59.0319 9.35005 58.4862 9.38758 58.5179C9.44821 58.567 8.76969 60.1464 9.56659 60.9086C10.5367 61.8355 11.5531 60.848 11.8938 60.4409" fill="#E7FBF4"/>
<path d="M8.19801 56.4131C8.14026 56.4622 6.86695 57.6084 7.62054 58.4573C8.1316 59.0319 9.35005 58.4862 9.38758 58.5179C9.44821 58.567 8.76969 60.1464 9.56659 60.9086C10.5367 61.8355 11.5531 60.848 11.8938 60.4409" stroke="black" stroke-width="1.72881" stroke-linecap="round" stroke-linejoin="round"/>
<path d="M53.3324 74.6695C54.0542 75.3192 56.6586 77.6117 57.8077 79.5953C58.1253 80.141 58.1802 81.0303 57.4872 81.6366C56.8607 82.1852 55.9454 82.0033 55.4141 81.6078C54.8107 81.1574 52.5095 79.3903 50.4364 76.4337C49.6742 75.3481 52.7116 74.1123 53.3295 74.6695H53.3324Z" fill="#FFCCD3" stroke="black" stroke-width="1.72881" stroke-linecap="round" stroke-linejoin="round"/>
<path d="M52.7607 58.6746C56.3093 60.2511 61.4978 68.734 56.5258 74.6155C51.3893 80.6904 34.9806 77.2487 33.4273 75.5914C29.0645 70.9255 23.0762 45.494 52.7607 58.6775V58.6746Z" fill="#FFCCD3" stroke="black" stroke-width="1.72881" stroke-linecap="round" stroke-linejoin="round"/>
<path d="M49.0275 30.8693C48.7792 30.8866 55.9224 19.7907 48.5713 17.9168C42.889 16.4674 40.3568 29.853 40.1374 29.827C39.9844 29.8097 39.5946 16.6406 33.6409 17.6281C25.7817 18.9331 31.5476 31.3255 31.4033 31.5219C31.2705 31.7038 16.2102 33.1214 15.344 47.2231C14.882 54.733 16.753 63.0687 39.6697 64.6914C64.4977 66.4497 64.6219 49.1345 64.6103 46.9344C64.5266 33.413 49.5039 30.8376 49.0304 30.8693H49.0275Z" fill="#FFCCD3" stroke="black" stroke-width="1.72881" stroke-linecap="round" stroke-linejoin="round"/>
<path d="M32.6938 44.6217C33.2519 44.6217 33.7043 44.1693 33.7043 43.6111C33.7043 43.053 33.2519 42.6006 32.6938 42.6006C32.1356 42.6006 31.6832 43.053 31.6832 43.6111C31.6832 44.1693 32.1356 44.6217 32.6938 44.6217Z" fill="black"/>
<path d="M40.608 44.5758C41.1661 44.5758 41.6185 44.1234 41.6185 43.5652C41.6185 43.0071 41.1661 42.5547 40.608 42.5547C40.0499 42.5547 39.5974 43.0071 39.5974 43.5652C39.5974 44.1234 40.0499 44.5758 40.608 44.5758Z" fill="black"/>
<path d="M38.5523 49.1752C37.2559 49.2532 36.3695 47.873 36.3695 47.873C35.7689 48.7826 35.0297 49.0973 34.3859 49.0973C34.279 50.3128 34.1722 53.5668 36.6986 53.3936C39.0778 53.2319 38.8814 50.6333 38.5552 49.1781" fill="white"/>
<path d="M32.9105 48.3292C33.2628 49.0857 35.1193 49.7671 36.3695 47.873C36.3695 47.873 38.0297 50.4543 40.123 48.361" stroke="black" stroke-width="1.72881" stroke-linecap="round" stroke-linejoin="round"/>
<path d="M34.383 49.0938C34.2761 50.3093 34.1693 53.5633 36.6957 53.3901C39.0749 53.2284 38.8785 50.6298 38.5523 49.1746" stroke="black" stroke-width="1.72881" stroke-linecap="round" stroke-linejoin="round"/>
<path d="M44.3326 75.8707C46.286 75.8707 47.8696 74.5831 47.8696 72.9949C47.8696 71.4067 46.286 70.1191 44.3326 70.1191C42.3792 70.1191 40.7957 71.4067 40.7957 72.9949C40.7957 74.5831 42.3792 75.8707 44.3326 75.8707Z" fill="white"/>
<path d="M39.5107 78.8796C41.3009 77.8517 41.6127 76.1771 40.7956 75.2358C39.99 74.3119 37.556 72.6892 35.8092 77.2685C35.2722 78.6746 36.2105 83.1442 38.3731 82.8814C40.5357 82.6187 39.4443 78.9172 39.5107 78.8796Z" fill="#FFCCD3" stroke="black" stroke-width="1.72881" stroke-linecap="round" stroke-linejoin="round"/>
<path d="M46.3105 71.2344C46.3105 71.2344 44.3124 72.7993 42.7504 74.5317" stroke="black" stroke-width="1.72881" stroke-linecap="round" stroke-linejoin="round"/>
<path d="M46.0216 74.381C46.0216 74.381 44.7685 73.4167 42.7474 72.2675C42.1007 71.9008 41.3759 71.5139 40.5877 71.1328" stroke="black" stroke-width="1.72881" stroke-linecap="round" stroke-linejoin="round"/>
<path d="M46.6714 66.3857C45.9842 66.6023 44.3067 67.0354 42.4299 66.891C39.1182 66.6369 38.9305 70.8784 41.3645 70.9679C46.5097 71.1585 49.6656 70.1566 51.2911 69.6138" fill="#FFCCD3"/>
<path d="M46.6714 66.3857C45.9842 66.6023 44.3067 67.0354 42.4299 66.891C39.1182 66.6369 38.9305 70.8784 41.3645 70.9679C46.5097 71.1585 49.6656 70.1566 51.2911 69.6138" stroke="black" stroke-width="1.72881" stroke-linecap="round" stroke-linejoin="round"/>
<path d="M28.5276 75.3628C28.415 75.4061 26.7172 76.1712 25.8684 74.921C25.2072 73.9422 26.1253 72.4957 26.0647 72.4408C26.0069 72.3917 24.1388 72.3051 23.7057 71.2599C22.8915 69.2821 25.6056 68.1791 25.5941 68.1329C25.5738 68.0492 23.622 68.1387 23.1803 66.8625C22.5912 65.1648 24.5662 63.2649 26.8212 63.2707C26.8847 63.2707 25.724 61.6307 26.8933 60.5508C28.1753 59.3699 30.4419 60.4064 30.4678 60.3776C30.5054 60.3314 30.1878 58.1572 31.9952 58.1572C33.8027 58.1572 34.8161 60.1639 34.871 60.1783C34.9057 60.187 36.2338 58.573 38.0211 59.214C39.8083 59.855 39.2424 61.827 39.3059 61.8703C39.3694 61.9136 41.2606 61.1081 42.2712 62.3814C43.0594 63.3746 42.046 64.8818 42.0662 64.9424C42.0806 64.9886 43.8477 65.2774 43.7986 66.7239C43.7408 68.3812 42.098 68.7248 42.0806 68.8143C42.0604 68.9125 43.7322 69.6459 43.0277 71.2426C42.583 72.2502 41.2953 71.9904 41.2693 72.0366C41.2231 72.1145 42.7534 75.3656 39.2135 74.7882C39.1067 74.7709 39.3579 76.0615 38.483 76.639C37.2126 77.4763 36.3811 76.2982 36.2916 76.3242C36.228 76.3416 35.9047 77.9411 34.1665 77.7823C32.6795 77.6466 32.5698 76.3964 32.5236 76.2434" fill="#E7FBF4"/>
<path d="M28.5276 75.3628C28.415 75.4061 26.7172 76.1712 25.8683 74.921C25.2072 73.9422 26.1253 72.4957 26.0647 72.4408C26.0069 72.3917 24.1388 72.3051 23.7057 71.2599C22.8915 69.2821 25.6056 68.1791 25.5941 68.1329C25.5738 68.0492 23.622 68.1387 23.1803 66.8625C22.5912 65.1648 24.5662 63.2649 26.8212 63.2707C26.8847 63.2707 25.724 61.6307 26.8933 60.5508C28.1753 59.3699 30.4419 60.4064 30.4678 60.3776C30.5054 60.3314 30.1878 58.1572 31.9952 58.1572C33.8027 58.1572 34.8161 60.1639 34.871 60.1783C34.9057 60.187 36.2338 58.573 38.0211 59.214C39.8083 59.855 39.2424 61.827 39.3059 61.8703C39.3694 61.9136 41.2606 61.1081 42.2712 62.3814C43.0594 63.3746 42.046 64.8818 42.0662 64.9424C42.0806 64.9886 43.8477 65.2774 43.7986 66.7239C43.7408 68.3812 42.098 68.7248 42.0806 68.8143C42.0604 68.9125 43.7322 69.6459 43.0277 71.2426C42.583 72.2502 41.2953 71.9904 41.2693 72.0366C41.2231 72.1145 42.7534 75.3656 39.2135 74.7882C39.1067 74.7709 39.3579 76.0615 38.483 76.639C37.2126 77.4763 36.3811 76.2982 36.2916 76.3242C36.228 76.3416 35.9047 77.9411 34.1665 77.7823C32.6795 77.6466 32.5698 76.3964 32.5236 76.2434" stroke="black" stroke-width="1.72881" stroke-linecap="round" stroke-linejoin="round"/>
<path d="M32.723 75.8679C32.6739 75.9459 31.9752 77.788 30.0233 77.3433C28.3574 76.9651 28.5797 75.0133 28.5826 74.918" fill="#E7FBF4"/>
<path d="M32.723 75.8679C32.6739 75.9459 31.9752 77.788 30.0233 77.3433C28.3574 76.9651 28.5797 75.0133 28.5826 74.918" stroke="black" stroke-width="1.72881" stroke-linecap="round" stroke-linejoin="round"/>
<path d="M39.8692 68.2256C40.2301 68.803 40.2676 69.6519 39.6699 70.137C38.8932 70.7722 38.1541 70.3709 37.9029 70.1543" fill="#E7FBF4"/>
<path d="M39.8692 68.2256C40.2301 68.803 40.2676 69.6519 39.6699 70.137C38.8932 70.7722 38.1541 70.3709 37.9029 70.1543" stroke="black" stroke-width="1.72881" stroke-linecap="round" stroke-linejoin="round"/>
</svg>
