<svg width="102" height="102" viewBox="0 0 102 102" fill="none" xmlns="http://www.w3.org/2000/svg">
<path d="M73.6453 12.8583C72.665 14.1215 70.8337 14.0992 69.8824 12.8026C69.2185 11.8981 69.4123 10.4277 70.2968 9.54772C71.2548 8.59643 72.9502 8.23328 74.5275 9.23582C77.495 11.1228 77.72 15.4382 74.3849 17.04L73.3489 17.2249L70.455 14.8701" fill="#A37944"/>
<path d="M73.6453 12.8583C72.665 14.1215 70.8337 14.0992 69.8824 12.8026C69.2185 11.8981 69.4123 10.4277 70.2968 9.54772C71.2548 8.59643 72.9502 8.23328 74.5275 9.23582C77.495 11.1228 77.72 15.4382 74.3849 17.04L73.3489 17.2249L70.455 14.8701" stroke="black" stroke-width="1.72881" stroke-linecap="round" stroke-linejoin="round"/>
<path d="M70.8181 26.751C70.5998 30.6163 71.7092 32.1268 74.2044 32.1268C76.6996 32.1268 77.3435 30.3445 77.6131 26.243C77.8381 22.8054 77.0739 17.2291 73.2532 14.3285C70.5218 12.2543 66.8213 10.9666 60.7282 12.0338L60.2603 27.348" fill="#FFD677"/>
<path d="M66.6341 11.7422C70.8247 11.9873 71.1544 12.7336 73.253 14.3287C77.0716 17.2294 77.8357 22.8057 77.613 26.2433C77.3456 30.3448 76.6104 32.127 74.2043 32.127C71.7983 32.127 70.6019 30.6166 70.818 26.7512C70.818 26.7512 69.8155 27.3951 69.3877 26.9361C69.4011 26.9495 69.7642 26.172 69.7865 26.1096C70.4771 24.1246 70.671 21.9836 70.5106 19.8961C70.2878 16.9754 69.361 13.3552 66.6319 11.7422H66.6341Z" fill="#A37944"/>
<path d="M68.6926 28.683C68.4742 32.5483 69.6238 33.9719 72.119 33.9719C74.6142 33.9719 76.8844 30.9799 77.555 26.6244C78.0785 23.2181 76.9445 17.3878 73.253 14.3267C70.6598 12.1768 68.2559 10.8401 60.728 12.032" stroke="black" stroke-width="1.72881" stroke-linecap="round" stroke-linejoin="round"/>
<path d="M73.6453 12.8584C72.665 14.1216 70.8337 14.0994 69.8824 12.8027C69.2185 11.8982 69.4123 10.4279 70.2968 9.54785" fill="#A37944"/>
<path d="M73.6453 12.8584C72.665 14.1216 70.8337 14.0994 69.8824 12.8027C69.2185 11.8982 69.4123 10.4279 70.2968 9.54785" stroke="black" stroke-width="1.72881" stroke-linecap="round" stroke-linejoin="round"/>
<path d="M14.6689 77.2323C8.39302 65.0281 15.1189 53.0311 15.0833 51.4182C15.0209 48.6824 16.1816 29.6119 27.1649 30.483C38.1482 31.3541 66.1033 34.4932 70.8108 34.3194C75.5182 34.1456 85.8933 34.1456 90.6587 39.2875C96.3887 45.472 90.4337 56.3907 89.8455 58.6409C89.2061 61.0826 91.0954 73.5474 82.3198 81.9754" fill="white"/>
<path d="M14.6689 77.2323C8.39302 65.0281 15.1189 53.0311 15.0833 51.4182C15.0209 48.6824 16.1816 29.6119 27.1649 30.483C38.1482 31.3541 66.1033 34.4932 70.8108 34.3194C75.5182 34.1456 85.8933 34.1456 90.6587 39.2875C96.3887 45.472 90.4337 56.3907 89.8455 58.6409C89.2061 61.0826 91.0954 73.5474 82.3198 81.9754" stroke="black" stroke-width="1.72881" stroke-linecap="round" stroke-linejoin="round"/>
<path d="M79.5863 41.0635C76.3603 41.8477 75.0816 47.776 74.8209 48.3575L79.5863 41.0635Z" fill="white"/>
<path d="M79.5863 41.0635C76.3603 41.8477 75.0816 47.776 74.8209 48.3575" stroke="black" stroke-width="1.72881" stroke-linecap="round" stroke-linejoin="round"/>
<path d="M36.769 64.3232C34.1757 63.2404 28.0959 65.4995 26.2201 74.872C24.3598 84.1689 25.0438 86.9448 27.657 88.7048C29.9205 90.2286 33.1955 89.5959 33.1955 89.5959L57.5704 92.2894C57.5704 92.2894 60.5 93.8868 63.1178 93.1226C66.1432 92.2404 67.5735 88.9521 68.0502 79.2008C68.224 75.6273 67.9322 65.9584 59.8473 67.1102" fill="#FAAA30"/>
<path d="M36.769 64.3232C34.1757 63.2404 28.0959 65.4995 26.2201 74.872C24.3598 84.1689 25.0438 86.9448 27.657 88.7048C29.9205 90.2286 33.1955 89.5959 33.1955 89.5959L57.5704 92.2894C57.5704 92.2894 60.5 93.8868 63.1178 93.1226C66.1432 92.2404 67.5735 88.9521 68.0502 79.2008C68.224 75.6273 67.9322 65.9584 59.8473 67.1102" stroke="black" stroke-width="1.72881" stroke-linecap="round" stroke-linejoin="round"/>
<path d="M34.401 73.3174C33.6591 75.338 33.5767 78.5996 32.8326 81.1483L34.401 73.3174Z" fill="#FAAA30"/>
<path d="M34.401 73.3174C33.6591 75.338 33.5767 78.5996 32.8326 81.1483" stroke="black" stroke-width="1.72881" stroke-linecap="round" stroke-linejoin="round"/>
<path d="M59.1144 77.0957C58.8738 78.8 58.2477 81.371 58.1408 83.0819L59.1144 77.0957Z" fill="#FAAA30"/>
<path d="M59.1144 77.0957C58.8738 78.8 58.2477 81.371 58.1408 83.0819" stroke="black" stroke-width="1.72881" stroke-linecap="round" stroke-linejoin="round"/>
<path d="M62.8955 31.2423C63.6975 28.5956 66.7118 24.786 71.4193 27.1876C76.0955 29.5714 74.4603 34.7267 72.8139 36.2037" fill="#FAAA30"/>
<path d="M62.8955 31.2423C63.6975 28.5956 66.7118 24.786 71.4193 27.1876C76.0955 29.5714 74.4603 34.7267 72.8139 36.2037" stroke="black" stroke-width="1.72881" stroke-linecap="round" stroke-linejoin="round"/>
<path d="M26.087 44.2889C27.1787 38.3984 29.7942 33.7355 33.3877 30.3871C38.837 25.3098 47.8086 23.7948 55.8667 25.0491C62.8444 25.5638 69.0667 28.5112 72.7538 34.1477C75.9508 39.0356 77.3053 46.0355 74.8213 54.0803C74.2354 55.9762 74.8703 57.4354 74.1128 59.0239C68.8039 70.1542 55.488 72.7675 44.3532 70.0317C31.8326 66.9528 23.2554 59.5742 26.087 44.2911V44.2889Z" fill="#FAAA30" stroke="black" stroke-width="1.72881" stroke-linecap="round" stroke-linejoin="round"/>
<path d="M46.4985 52.2874C43.3795 50.6232 40.6504 52.1648 40.0823 54.3192C39.6166 56.0792 40.7528 58.0085 42.622 58.4719C44.6404 58.9709 46.2066 58.1756 46.8995 57.026C47.1089 58.3516 47.9934 59.4566 50.0519 59.7529C51.9567 60.0292 53.6788 59.1648 54.1511 57.0015C54.6257 54.8227 52.7387 51.7883 48.6238 52.704L47.4631 52.9981" fill="white"/>
<path d="M46.4985 52.2874C43.3795 50.6232 40.6504 52.1648 40.0823 54.3192C39.6166 56.0792 40.7528 58.0085 42.622 58.4719C44.6404 58.9709 46.2066 58.1756 46.8995 57.026C47.1089 58.3516 47.9934 59.4566 50.0519 59.7529C51.9567 60.0292 53.6788 59.1648 54.1511 57.0015C54.6257 54.8227 52.81 51.8797 48.6238 52.704L47.4631 52.9981" stroke="black" stroke-width="1.72881" stroke-linecap="round" stroke-linejoin="round"/>
<path d="M45.4048 51.6627C45.1352 52.4737 46.0776 54.4186 47.1759 54.5812C48.1629 54.7282 49.553 53.4651 49.8739 52.3444C50.2504 51.0367 46.1511 49.4148 45.4048 51.6649" fill="black"/>
<path d="M60.3333 49.3497C60.4773 48.427 59.8391 47.5612 58.9079 47.4158C57.9767 47.2705 57.105 47.9007 56.961 48.8234C56.817 49.7461 57.4552 50.612 58.3864 50.7573C59.3176 50.9026 60.1893 50.2724 60.3333 49.3497Z" fill="black"/>
<path d="M40.5563 46.0313C40.7003 45.1086 40.0621 44.2428 39.1309 44.0975C38.1996 43.9522 37.328 44.5824 37.184 45.5051C37.04 46.4278 37.6782 47.2936 38.6094 47.4389C39.5406 47.5842 40.4123 46.954 40.5563 46.0313Z" fill="black"/>
<path d="M55.8665 42.9473C55.8665 42.9473 59.763 43.3928 64.261 44.2884" stroke="black" stroke-width="1.72881" stroke-linecap="round" stroke-linejoin="round"/>
<path d="M34.8847 39.4297C34.8847 39.4297 38.7879 39.8129 43.2993 40.6394" stroke="black" stroke-width="1.72881" stroke-linecap="round" stroke-linejoin="round"/>
<path d="M43.2222 76.3878L46.6264 74.0285L49.253 77.3503L52.2918 75.1647C52.7797 75.6638 54.3838 77.7981 54.7625 80.1306C54.8873 80.9015 54.9073 81.8282 54.8271 82.7996C49.0325 82.4253 42.1217 81.249 36.6166 79.2796C36.7347 78.8674 36.8728 78.4486 37.0355 78.0208C38.2452 74.8417 40.9476 73.3379 40.9476 73.3379C42.4714 75.4165 43.2244 76.3878 43.2244 76.3878H43.2222Z" fill="white"/>
<path d="M8.54536 75.4831C28.1594 72.6716 30.6679 76.6683 46.626 78.7046C70.6958 81.7746 72.1773 77.7644 87.9193 82.61C87.9193 82.61 84.5842 100.266 42.5647 95.4915C4.20773 91.1315 8.54313 75.4853 8.54313 75.4853L8.54536 75.4831Z" fill="#AED3E5"/>
<path d="M8.54535 75.4831C28.1594 72.6716 30.6679 76.6683 46.626 78.7046C70.6957 81.7746 72.1773 77.7644 87.9193 82.61" stroke="black" stroke-width="1.72881" stroke-linecap="round" stroke-linejoin="round"/>
<path d="M76.1622 69.1049L71.4659 66.0684C71.2475 56.522 76.3048 50.7697 77.7863 49.5488L82.4648 51.8435" fill="white"/>
<path d="M71.4659 66.0684C71.2475 56.522 76.3048 50.7697 77.7863 49.5488L71.4659 66.0684Z" fill="white"/>
<path d="M71.4659 66.0684C71.2475 56.522 76.3048 50.7697 77.7863 49.5488" stroke="black" stroke-width="1.72881" stroke-linecap="round" stroke-linejoin="round"/>
<path d="M39.035 23.7147C35.4081 22.5807 30.0211 25.5883 27.5705 28.2328C24.8391 31.1825 25.1778 34.6245 27.341 36.2085C29.4174 37.7279 31.5405 37.0907 33.2359 35.0322C35.1541 32.7019 35.789 31.5501 36.825 30.8616" fill="#FFD677"/>
<path d="M39.035 23.7147C35.4081 22.5807 30.0211 25.5883 27.5705 28.2328C24.8391 31.1825 25.1778 34.6245 27.341 36.2085C29.4174 37.7279 31.5405 37.0907 33.2359 35.0322C35.1541 32.7019 35.789 31.5501 36.825 30.8616" stroke="black" stroke-width="1.72881" stroke-linecap="round" stroke-linejoin="round"/>
<path d="M62.6704 26.9365C64.5552 27.4913 66.93 29.2691 67.8903 31.2073C70.0179 35.5093 68.3759 38.6439 65.7315 39.3434C63.1939 40.0162 61.4696 38.6238 60.2198 36.2044C58.8073 33.4686 58.0142 32.2945 57.2857 31.2541" fill="#FFD677"/>
<path d="M62.6704 26.9365C64.5552 27.4913 66.93 29.2691 67.8903 31.2073C70.0179 35.5093 68.3759 38.6439 65.7315 39.3434C63.1939 40.0162 61.4696 38.6238 60.2198 36.2044C58.8073 33.4686 58.0142 32.2945 57.2857 31.2541" stroke="black" stroke-width="1.72881" stroke-linecap="round" stroke-linejoin="round"/>
<path d="M66.5109 25.21C66.5867 20.8946 65.4504 17.0003 63.0533 14.2556C63.129 12.3018 62.6166 10.9183 61.6698 10.1007C60.7274 9.2875 58.8248 8.94664 57.1829 9.94026C55.2714 9.07586 53.4134 8.63029 50.858 8.38968C48.3027 8.14907 46.0102 8.21591 43.8937 8.37854C42.2919 7.24456 40.4695 7.15099 39.3667 7.73246C38.4734 8.20254 37.2013 9.34543 36.9829 11.7582C35.0002 13.4692 33.5075 16.0847 32.505 19.0254C28.1941 22.4207 27.5658 29.0285 31.2596 32.6688C34.4254 35.7878 41.1847 35.995 46.8211 36.2401C58.6488 36.7547 66.3327 35.2598 66.5087 25.2122L66.5109 25.21Z" fill="#FFD677" stroke="black" stroke-width="1.72881" stroke-linecap="round" stroke-linejoin="round"/>
<path d="M56.8424 24.8048C58.8541 25.7739 60.0104 28.0641 58.9521 30.2274C57.7023 32.785 55.1692 33.2105 53.0996 32.15C51.2727 31.2143 50.0051 29.0644 51.4532 26.4824C52.3688 24.8471 54.6568 23.7532 56.8424 24.8048Z" fill="#FF9470"/>
<path d="M39.1266 23.6642C41.1384 24.6333 42.2946 26.9235 41.2364 29.0868C39.9866 31.6443 37.4535 32.0699 35.3838 31.0094C33.557 30.0737 32.2894 27.9238 33.7375 25.3417C34.6531 23.7065 36.9411 22.6126 39.1266 23.6642Z" fill="#FF9470"/>
<path d="M42.9865 23.1641C43.0565 22.4193 42.5085 21.7587 41.7625 21.6886C41.0164 21.6185 40.3549 22.1654 40.2849 22.9102C40.2149 23.655 40.7629 24.3156 41.5089 24.3858C42.2549 24.4559 42.9165 23.909 42.9865 23.1641Z" fill="black"/>
<path d="M53.2094 23.5186C53.2794 22.7738 52.7314 22.1132 51.9853 22.0431C51.2393 21.973 50.5778 22.5199 50.5077 23.2647C50.4377 24.0095 50.9858 24.6701 51.7318 24.7403C52.4778 24.8104 53.1394 24.2634 53.2094 23.5186Z" fill="black"/>
<path d="M47.9261 28.9152C48.0643 32.1211 46.1127 33.6828 44.4462 33.0991C42.9848 32.5867 43.1028 30.9069 44.1789 28.4941" fill="#B53F3C"/>
<path d="M47.9261 28.9152C48.0643 32.1211 46.1127 33.6828 44.4462 33.0991C42.9848 32.5867 43.1028 30.9069 44.1789 28.4941" stroke="black" stroke-width="1.72881" stroke-linecap="round" stroke-linejoin="round"/>
<path d="M46.4226 24.9733C43.366 24.6859 41.5792 26.2699 41.577 28.1458C41.577 30.1174 44.0276 30.9907 45.7676 29.3644C46.9439 31.414 49.9626 30.993 50.5107 29.1505C51.0119 27.4618 49.6975 25.283 46.4203 24.9733H46.4226Z" fill="white" stroke="black" stroke-width="1.72881" stroke-linecap="round" stroke-linejoin="round"/>
<path d="M39.8077 25.7598L41.8128 26.9962" stroke="black" stroke-width="1.72881" stroke-linecap="round" stroke-linejoin="round"/>
<path d="M39.7321 29.376L41.6369 28.6631" stroke="black" stroke-width="1.72881" stroke-linecap="round" stroke-linejoin="round"/>
<path d="M52.6686 27.1104H50.2714" stroke="black" stroke-width="1.72881" stroke-linecap="round" stroke-linejoin="round"/>
<path d="M52.0134 30.5545L50.3514 29.5342" stroke="black" stroke-width="1.72881" stroke-linecap="round" stroke-linejoin="round"/>
</svg>
