<svg width="102" height="102" viewBox="0 0 102 102" fill="none" xmlns="http://www.w3.org/2000/svg">
<path d="M27.4364 41.7988L14.7218 48.0966L21.7286 66.1714C21.7286 66.1714 44.9899 68.0786 45.2231 67.9231C45.4564 67.7676 50.1214 55.7162 50.1214 55.7162L47.9444 43.2166L42.0353 41.1768L27.4364 41.7988Z" fill="#FFD677"/>
<path d="M50.3274 62.8694C41.1985 61.4608 31.8866 61.566 19.8947 62.5493C19.7026 66.9171 19.6431 71.8337 20.073 77.0887C20.6356 83.9948 22.4742 86.4966 26.4623 86.4966C30.4505 86.4966 32.5269 83.5466 32.5406 79.2657L37.9741 79.284C38.0838 83.7112 39.7715 86.4966 43.746 86.4966C47.7204 86.4966 49.5727 83.9994 50.1353 77.0887C50.5515 71.9617 50.5057 67.1549 50.3274 62.8694ZM37.9649 79.2383H37.9741C37.9741 79.2383 37.9695 79.2383 37.9649 79.2383Z" fill="#A37944"/>
<path d="M19.7482 44.995C16.4232 41.7798 13.4641 39.0448 10.2946 41.0983C7.09761 43.1656 7.40404 47.0531 9.62681 50.9041C11.8267 54.7139 15.4261 57.6044 20.0089 60.2845" fill="#FFD677"/>
<path d="M19.7482 44.995C16.4232 41.7798 13.4641 39.0448 10.2946 41.0983C7.09761 43.1656 7.40404 47.0531 9.62681 50.9041C11.8267 54.7139 15.4261 57.6044 20.0089 60.2845" stroke="black" stroke-width="1.72881" stroke-linecap="round" stroke-linejoin="round"/>
<path d="M32.5451 79.2242C32.5451 83.5234 30.4504 86.4962 26.4622 86.4962C22.474 86.4962 20.6355 83.999 20.0729 77.0883C19.5104 70.1822 19.7893 63.8478 20.1095 58.5928" stroke="black" stroke-width="1.72881" stroke-linecap="round" stroke-linejoin="round"/>
<path d="M50.1033 58.5967C50.4235 63.8471 50.7024 70.1816 50.1399 77.0922C49.5773 84.0029 47.7388 86.5001 43.7506 86.5001C39.7624 86.5001 38.0747 83.6965 37.9741 79.2418" stroke="black" stroke-width="1.72881" stroke-linecap="round" stroke-linejoin="round"/>
<path d="M31.3789 79.2651C34.3472 79.1507 37.2011 79.1782 38.9894 79.2879" stroke="black" stroke-width="1.72881" stroke-linecap="round" stroke-linejoin="round"/>
<path d="M48.516 45.2246C52.7558 49.4918 56.2408 57.3309 56.593 63.0753C56.9452 68.8197 55.2118 71.4267 51.9737 71.9069C48.8636 72.3642 46.7735 70.3336 46.1149 67.1366C45.3694 63.5189 45.0081 62.2978 44.2809 60.9577" fill="#FFD677"/>
<path d="M48.516 45.2246C52.7558 49.4918 56.2408 57.3309 56.593 63.0753C56.9452 68.8197 55.2118 71.4267 51.9737 71.9069C48.8636 72.3642 46.7735 70.3336 46.1149 67.1366C45.3694 63.5189 45.0081 62.2978 44.2809 60.9577" stroke="black" stroke-width="1.72881" stroke-linecap="round" stroke-linejoin="round"/>
<path d="M55.9071 34.1747C55.7059 29.0019 53.6981 24.5336 50.245 21.3183C50.1169 19.3654 49.4949 17.911 48.4842 17.2478C47.2356 16.4292 45.7446 16.2234 43.5538 17.3302C40.9652 16.5344 38.285 16.1182 35.2116 16.1182C32.1381 16.1182 29.4397 16.5755 26.8693 17.3302C24.6786 16.2234 23.1876 16.4292 21.939 17.2478C20.9282 17.911 20.3062 19.3654 20.1782 21.3183C16.7297 24.5336 14.7219 29.0019 14.5161 34.1747C14.0633 45.6498 20.5761 52.0025 35.207 52.0436C49.8425 52.0025 56.3507 45.6544 55.898 34.1747H55.9071Z" fill="#FFD677" stroke="black" stroke-width="1.72881" stroke-linecap="round" stroke-linejoin="round"/>
<path d="M29.2755 31.8907C30.1565 31.7236 30.7749 31.0831 30.6567 30.4602C30.5386 29.8373 29.7286 29.4678 28.8476 29.6349C27.9666 29.802 27.3482 30.4425 27.4664 31.0654C27.5845 31.6883 28.3945 32.0578 29.2755 31.8907Z" fill="black"/>
<path d="M19.9266 36.9145C19.9266 39.5672 22.282 41.9775 25.3281 41.8311C28.4518 41.6847 30.1623 39.6632 30.0937 36.9008C30.0343 34.4631 28.772 32.3592 25.2183 32.1991C22.1311 32.0619 19.9266 34.0286 19.9266 36.9099V36.9145Z" fill="#FF9470"/>
<path d="M50.6658 36.914C50.6658 39.5347 49.0376 41.7757 45.8086 41.7757C42.5797 41.7757 40.5627 39.6307 40.6267 36.9049C40.6862 34.4992 41.9393 32.5234 45.4381 32.2673C48.4339 32.0477 50.6612 34.0693 50.6612 36.9186L50.6658 36.914Z" fill="#FF9470"/>
<path d="M37.5443 38.8994C37.5443 38.8994 37.6494 41.4332 35.1706 41.4332C32.6917 41.4332 32.8289 38.9131 32.8289 38.9131L35.1706 37.7148L37.5397 38.8994H37.5443Z" fill="#B53F3C" stroke="black" stroke-width="1.55593" stroke-linecap="round" stroke-linejoin="round"/>
<path d="M42.8667 31.0652C42.9849 30.4423 42.3664 29.8018 41.4854 29.6347C40.6044 29.4676 39.7945 29.8371 39.6763 30.46C39.5582 31.0829 40.1766 31.7234 41.0576 31.8905C41.9386 32.0576 42.7486 31.6881 42.8667 31.0652Z" fill="black"/>
<path d="M35.207 33.5391C31.7082 33.5391 29.6958 35.5423 30.0846 37.5135C30.5099 39.6677 33.4004 40.4177 35.207 38.3825C37.009 40.4177 39.9041 39.6722 40.3294 37.5135C40.7182 35.5423 38.7104 33.5391 35.207 33.5391Z" fill="white" stroke="black" stroke-width="1.72881" stroke-linecap="round" stroke-linejoin="round"/>
<path d="M28.1958 34.792L30.2814 35.6473" stroke="black" stroke-width="1.72881" stroke-linecap="round" stroke-linejoin="round"/>
<path d="M28.2781 38.922L30.0846 38.1582" stroke="black" stroke-width="1.72881" stroke-linecap="round" stroke-linejoin="round"/>
<path d="M42.4654 34.792L40.3752 35.6473" stroke="black" stroke-width="1.72881" stroke-linecap="round" stroke-linejoin="round"/>
<path d="M42.3785 38.922L40.5765 38.1582" stroke="black" stroke-width="1.72881" stroke-linecap="round" stroke-linejoin="round"/>
<path d="M14.4977 44.5247C15.0648 45.1468 14.987 46.0615 13.9671 46.8893C13.0021 47.6714 12.0051 47.5707 11.5431 46.871C11.0492 46.1209 11.2596 45.1559 12.0737 44.5064C12.8923 43.857 13.8391 43.8021 14.4977 44.5247Z" fill="#E6756A"/>
<path d="M13.4412 42.5075C13.6791 42.7728 13.7385 43.1478 13.3909 43.4177C13.1119 43.6372 12.7735 43.6418 12.5174 43.3948C12.2475 43.1296 12.2521 42.6768 12.5311 42.4572C12.8467 42.2103 13.2034 42.2423 13.4412 42.5075Z" fill="#E6756A"/>
<path d="M11.7669 44.008C11.6023 44.3236 11.2638 44.4654 10.8979 44.2824C10.5778 44.1223 10.468 43.7793 10.6144 43.4546C10.7653 43.1116 11.1952 42.9515 11.4971 43.139C11.8401 43.3494 11.9361 43.6924 11.7715 44.008H11.7669Z" fill="#E6756A"/>
<path d="M10.825 45.6494C10.6604 45.9649 10.3219 46.1067 9.95604 45.9238C9.63589 45.7637 9.52612 45.4207 9.67248 45.096C9.8234 44.7529 10.2899 44.6157 10.5552 44.7804C10.8982 44.9908 10.9942 45.3338 10.8296 45.6494H10.825Z" fill="#E6756A"/>
<path d="M42.5806 75.7148C42.9087 74.1625 45.1118 73.0049 46.9149 72.9195C49.6889 72.7861 52.1322 73.8291 54.3754 76.235C56.1145 78.1021 57.5255 81.5162 60.6702 80.2252C61.7105 79.7985 62.9348 80.0412 63.4176 81.1108C64.2684 82.9965 62.0412 84.3649 60.7876 84.6529C57.7602 85.3491 56.0425 84.4982 53.97 82.3697C53.1218 81.5002 50.9079 78.2034 48.5713 78.3101C47.1017 78.3768 45.4986 79.377 44.0609 78.7342C42.898 78.2141 42.3245 76.9391 42.5832 75.7148H42.5806Z" fill="#FFADDC" stroke="black" stroke-width="1.72881" stroke-linecap="round" stroke-linejoin="round"/>
<path d="M62.4439 67.7984C62.4439 67.7984 74.9882 67.4463 79.3493 68.4198C83.7103 69.3961 80.4802 73.9038 80.4802 73.9038L73.9613 86.5788C73.9613 86.5788 73.4119 88.2245 69.1469 88.1018C64.8818 87.9791 62.6893 87.4323 61.8358 84.8104C60.9822 82.1911 59.3979 71.7086 59.3979 71.7086C59.3979 71.7086 59.0244 69.2093 59.9126 68.4172C60.7982 67.625 62.4439 67.7957 62.4439 67.7957V67.7984Z" fill="white"/>
<path d="M81.1842 68.9131C81.1842 68.9131 85.2012 70.6122 87.6364 75.1706C87.6364 75.1706 90.8052 79.729 86.4015 81.1186C86.4015 81.1186 83.8595 82.0628 81.9978 79.4196C80.9175 77.8832 79.9866 77.0857 79.3491 76.6749" fill="white"/>
<path d="M81.1842 68.9131C81.1842 68.9131 85.2012 70.6122 87.6364 75.1706C87.6364 75.1706 90.8052 79.729 86.4015 81.1186C86.4015 81.1186 83.8595 82.0628 81.9978 79.4196C80.9175 77.8832 79.9866 77.0857 79.3491 76.6749" stroke="black" stroke-width="1.72881" stroke-linecap="round" stroke-linejoin="round"/>
<path d="M79.4028 74.1836C79.4028 74.1836 80.3604 84.7728 77.293 87.7735C74.2256 90.7742 70.4967 88.731 70.4967 88.731" fill="white"/>
<path d="M79.4028 74.1836C79.4028 74.1836 80.3604 84.7728 77.293 87.7735C74.2256 90.7742 70.4967 88.731 70.4967 88.731" stroke="black" stroke-width="1.72881" stroke-linecap="round" stroke-linejoin="round"/>
<path d="M70.2113 81.3938L70.0219 85.4775C70.0219 85.4775 71.4729 87.7073 70.0219 88.7022C68.5709 89.6971 64.4019 90.2706 62.4174 88.1368C60.6436 86.2297 59.9075 75.7285 59.9075 75.7285" fill="white"/>
<path d="M70.2113 81.3938L70.0219 85.4775C70.0219 85.4775 71.4729 87.7073 70.0219 88.7022C68.5709 89.6971 64.4019 90.2706 62.4174 88.1368C60.6436 86.2297 59.9075 75.7285 59.9075 75.7285" stroke="black" stroke-width="1.72881" stroke-linecap="round" stroke-linejoin="round"/>
<path d="M69.1445 80.8945H71.1877" stroke="black" stroke-width="1.72881" stroke-linecap="round" stroke-linejoin="round"/>
<path d="M91.7519 47.3272C92.7404 39.731 91.5146 31.5429 90.0944 27.7998C89.2056 25.4606 87.5339 22.1428 83.6756 25.8592C79.7022 29.6848 76.8473 36.5983 76.7969 36.7189C74.3483 36.2304 71.03 35.961 68.1386 36.1259C68.1051 35.9995 66.2195 28.7614 62.8048 24.4298C59.4893 20.222 57.3785 23.2807 56.1813 25.4771C54.2641 28.9916 51.9333 36.9361 51.877 44.5961C47.2998 50.3988 47.4473 58.9814 53.2609 63.6037C56.3829 66.0889 60.9527 68.2915 70.2426 68.9278C79.5325 69.5641 84.3601 68.0027 87.7916 65.9688C94.179 62.1797 95.4974 53.6999 91.7519 47.3272Z" fill="white"/>
<path d="M93.0868 50.2982C92.7541 49.2756 92.3096 48.278 91.7518 47.329C92.7403 39.7327 91.5145 31.5446 90.0943 27.8016C89.2055 25.4623 87.5338 22.1446 83.6755 25.861C79.7021 29.6866 76.8472 36.6 76.7968 36.7207C74.3482 36.2322 71.0299 35.9628 68.1385 36.1277C68.105 36.0013 66.2194 28.7631 62.8047 24.4315C59.4892 20.2238 57.3784 23.2825 56.1812 25.4788C54.264 28.9933 51.9332 36.9378 51.8769 44.5979C51.1947 45.4644 50.6183 46.392 50.1495 47.3574C64.971 49.281 71.4434 43.2593 72.1163 41.5375C72.548 43.3373 78.1391 50.1829 93.0845 50.298L93.0868 50.2982Z" fill="#FFADDC"/>
<path d="M91.7519 47.3272C92.7404 39.731 91.5146 31.5429 90.0944 27.7998C89.2056 25.4606 87.5339 22.1428 83.6756 25.8592C79.7022 29.6848 76.8473 36.5983 76.7969 36.7189C74.3483 36.2304 71.03 35.961 68.1386 36.1259C68.1051 35.9995 66.2195 28.7614 62.8048 24.4298C59.4893 20.222 57.3785 23.2807 56.1813 25.4771C54.2641 28.9916 51.9333 36.9361 51.877 44.5961C47.2998 50.3988 47.4473 58.9814 53.2609 63.6037C56.3829 66.0889 60.9527 68.2915 70.2426 68.9278C79.5325 69.5641 84.3601 68.0027 87.7916 65.9688C94.179 62.1797 95.4974 53.6999 91.7519 47.3272Z" stroke="black" stroke-width="1.72881" stroke-linecap="round" stroke-linejoin="round"/>
<path d="M81.5268 39.4613C82.4916 40.1104 83.4449 39.7987 84.1613 39.1851C84.5714 40.0351 85.3197 40.6998 86.4648 40.4926C87.2805 40.3447 88.5225 39.5095 88.6468 36.3616C88.76 33.5127 88.0627 29.1284 86.3382 28.7691C84.6136 28.4098 82.2198 32.1468 81.1832 34.8038C80.0362 37.7388 80.8394 39.0021 81.529 39.4637L81.5268 39.4613Z" fill="#FF84CC"/>
<path d="M63.0798 38.1982C62.0355 38.7098 61.1336 38.271 60.5076 37.5654C59.9854 38.3516 59.1535 38.9081 58.0473 38.5466C57.2594 38.289 56.1429 37.2923 56.4489 34.1568C56.7253 31.319 58.0137 27.0707 59.7712 26.9499C61.5286 26.8291 63.3905 30.8576 64.0553 33.6311C64.7914 36.6951 63.8234 37.837 63.0773 38.2004L63.0798 38.1982Z" fill="#FF84CC"/>
<path d="M70.9963 57.9223C71.3207 57.9445 71.599 57.7382 71.618 57.4614C71.6369 57.1847 71.3893 56.9423 71.065 56.9201C70.7406 56.8979 70.4623 57.1042 70.4433 57.381C70.4244 57.6577 70.672 57.9001 70.9963 57.9223Z" fill="black"/>
<path d="M68.874 60.5663C68.874 60.5663 68.1753 66.4941 70.4336 66.616C72.6874 66.8031 72.7056 60.8287 72.7056 60.8287C72.7056 60.8287 71.5087 60.3557 70.9311 59.5926C70.9311 59.5926 69.936 60.4798 68.874 60.5663Z" fill="#E45D82"/>
<path d="M68.874 60.5663C68.874 60.5663 68.1753 66.4941 70.4336 66.616C72.6874 66.8031 72.7055 60.8287 72.7055 60.8287" stroke="black" stroke-width="1.72881" stroke-linecap="round" stroke-linejoin="round"/>
<path d="M68.1836 59.8091C68.6465 60.3325 70.0817 60.6767 70.8844 59.3853L70.903 59.3865C71.5222 60.773 72.9933 60.6279 73.5208 60.1746" stroke="black" stroke-width="1.72881" stroke-linecap="round" stroke-linejoin="round"/>
<path d="M84.9336 58.0173C79.9381 56.6636 76.5898 57.1391 76.5898 57.1391C80.9925 53.9517 85.7609 53.5969 85.7609 53.5969" stroke="black" stroke-width="1.72881" stroke-linecap="round" stroke-linejoin="round"/>
<path d="M57.1738 56.1159C62.3072 55.456 65.5593 56.3835 65.5593 56.3835C61.6323 52.6256 56.9569 51.624 56.9569 51.624" stroke="black" stroke-width="1.72881" stroke-linecap="round" stroke-linejoin="round"/>
<path d="M61.313 67.4702C61.313 67.4702 57.0293 61.0234 53.2497 60.0525C50.7398 59.407 49.2008 60.5539 48.5953 61.9889C47.9711 63.4693 48.6566 65.8458 50.6251 67.1475C53.4098 68.9879 57.5681 71.9619 59.9126 75.7282" fill="white"/>
<path d="M61.313 67.4702C61.313 67.4702 57.0293 61.0234 53.2497 60.0525C50.7398 59.407 49.2008 60.5539 48.5953 61.9889C47.9711 63.4693 48.6566 65.8458 50.6251 67.1475C53.4098 68.9879 57.5681 71.9619 59.9126 75.7282" stroke="black" stroke-width="1.72881" stroke-linecap="round" stroke-linejoin="round"/>
<path d="M53.0176 61.4392C53.2256 61.6419 53.2976 61.9407 53.0309 62.1834C52.8149 62.3808 52.5401 62.4048 52.3161 62.2154C52.0814 62.018 52.0547 61.6446 52.2707 61.4499C52.5135 61.2312 52.8069 61.2338 53.0149 61.4366L53.0176 61.4392Z" fill="#EE9DB7"/>
<path d="M51.676 62.7271C51.5613 62.9938 51.2945 63.1298 50.9825 63.0018C50.7131 62.8898 50.6037 62.6204 50.7024 62.3457C50.8064 62.0549 51.1452 61.9002 51.4039 62.0363C51.6946 62.1883 51.7933 62.463 51.6786 62.7298L51.676 62.7271Z" fill="#EE9DB7"/>
<path d="M51.0786 64.2827C50.9639 64.5494 50.6971 64.6855 50.3851 64.5574C50.1157 64.4454 50.0063 64.176 50.105 63.9013C50.209 63.6106 50.5798 63.4745 50.8065 63.5919C51.0972 63.7413 51.1959 64.0187 51.0812 64.2854L51.0786 64.2827Z" fill="#EE9DB7"/>
<path d="M51.8227 65.3091C52.0868 65.5998 52.5242 65.6452 52.8229 65.5465C53.0603 65.4665 53.3564 65.1411 53.3431 64.677C53.8125 64.7943 54.1272 64.4796 54.2606 64.1782C54.4793 63.6794 54.2526 63.3193 54.0019 63.1113C53.5218 62.7085 52.5749 62.6231 52.0014 63.1459C51.2652 63.8208 51.3612 64.8023 51.8254 65.3064L51.8227 65.3091Z" fill="#EE9DB7"/>
</svg>
