<svg width="102" height="102" viewBox="0 0 102 102" fill="none" xmlns="http://www.w3.org/2000/svg">
<path d="M29.4076 73.7075C31.268 75.4905 32.8525 75.6362 34.2944 75.261C43.609 72.8331 38.0804 80.554 38.0804 80.554C34.0711 82.6004 29.7673 81.971 26.9394 80.185C25.6309 79.3602 21.231 76.061 23.7705 71.444C24.6542 69.8378 27.1658 69.6394 28.5425 70.6595C29.8231 71.6083 30.0029 73.5029 28.7037 74.7184C27.4386 75.9029 26.834 75.3974 26.2324 76.4238C25.7642 77.2207 25.4201 78.2966 26.0278 79.5338" fill="#FFCCD3"/>
<path d="M29.4076 73.7075C31.268 75.4905 32.8525 75.6362 34.2944 75.261C43.609 72.8331 38.0804 80.554 38.0804 80.554C34.0711 82.6004 29.7673 81.971 26.9394 80.185C25.6309 79.3602 21.231 76.061 23.7705 71.444C24.6542 69.8378 27.1658 69.6394 28.5425 70.6595C29.8231 71.6083 30.0029 73.5029 28.7037 74.7184C27.4386 75.9029 26.834 75.3974 26.2324 76.4238C25.7642 77.2207 25.4201 78.2966 26.0278 79.5338" stroke="black" stroke-width="1.72881" stroke-linecap="round" stroke-linejoin="round"/>
<path d="M36.62 78.1358C35.3921 81.1218 34.5208 84.1636 35.7239 87.1372C37.389 91.2581 41.1037 91.562 46.7749 92.0736C48.3966 92.2193 54.5981 92.1852 59.0167 91.6891C62.2073 91.3294 64.3685 90.4674 66.0739 88.7992C68.8305 86.1016 70.4801 79.2644 64.5267 71.125H35.9875" fill="#FFCCD3"/>
<path d="M36.62 78.1358C35.3921 81.1218 34.5208 84.1636 35.7239 87.1372C37.389 91.2581 41.1037 91.562 46.7749 92.0736C48.3966 92.2193 54.5981 92.1852 59.0167 91.6891C62.2073 91.3294 64.3685 90.4674 66.074 88.7992C68.8305 86.1016 70.4801 79.2644 64.5267 71.125H35.9875" stroke="black" stroke-width="1.72881" stroke-linecap="round" stroke-linejoin="round"/>
<path d="M49.2827 82.7768C49.2145 84.4015 47.5215 85.7225 45.3479 85.7225C42.765 85.7225 41.2642 84.3767 41.2642 82.7519C41.2642 80.7613 43.0006 79.8311 45.3479 79.8311C47.9742 79.8311 49.351 81.1334 49.2827 82.7768Z" fill="white"/>
<path d="M43.003 81.3594C44.4293 82.333 45.7502 83.0524 48.7734 84.6679" stroke="black" stroke-width="1.72881" stroke-linecap="round" stroke-linejoin="round"/>
<path d="M47.3203 81.3223C45.6397 82.4788 44.8149 83.1021 42.6909 84.1842" stroke="black" stroke-width="1.72881" stroke-linecap="round" stroke-linejoin="round"/>
<path d="M43.5645 91.7593C43.5645 91.7593 45.58 91.4027 45.704 88.581C45.8094 86.1873 44.5133 83.7129 41.5645 84.2369C39.2359 84.6493 38.7615 86.9904 38.7584 88.8663C38.7584 91.7531 39.8064 92.9996 41.7041 92.9996C44.0482 92.9996 43.9273 90.3454 43.8312 88.0787" fill="#FFCCD3"/>
<path d="M43.5645 91.7593C43.5645 91.7593 45.58 91.4027 45.704 88.581C45.8094 86.1873 44.5133 83.7129 41.5645 84.2369C39.2359 84.6493 38.7615 86.9904 38.7584 88.8663C38.7584 91.7531 39.8064 92.9996 41.7041 92.9996C44.0482 92.9996 43.9273 90.3454 43.8312 88.0787" stroke="black" stroke-width="1.72881" stroke-linecap="round" stroke-linejoin="round"/>
<path d="M48.7753 92.1937C50.0435 92.4635 51.5629 92.1937 51.7986 88.9534C52.0342 85.7132 50.9273 83.7442 47.3211 84.2C45.1444 84.4729 44.4436 87.0403 44.4529 88.9131C44.4622 91.1178 44.7196 93.1084 46.98 93.1736C48.7102 93.2232 49.287 91.7379 49.4947 89.0744" fill="#FFCCD3"/>
<path d="M48.7753 92.1937C50.0435 92.4635 51.5629 92.1937 51.7986 88.9534C52.0342 85.7132 50.9273 83.7442 47.3211 84.2C45.1444 84.4729 44.4436 87.0403 44.4529 88.9131C44.4622 91.1178 44.7196 93.1084 46.98 93.1736C48.7102 93.2232 49.287 91.7379 49.4947 89.0744" stroke="black" stroke-width="1.72881" stroke-linecap="round" stroke-linejoin="round"/>
<path d="M62.2377 77.791C60.2129 80.8669 55.9401 81.6328 53.0161 81.115C50.6875 80.7026 47.8007 80.8173 47.6456 83.5894C47.3945 88.0141 59.9835 88.6529 65.2858 83.8623" fill="#FFCCD3"/>
<path d="M62.2377 77.791C60.2129 80.8669 55.9401 81.6328 53.0161 81.115C50.6875 80.7026 47.8007 80.8173 47.6456 83.5894C47.3945 88.0141 59.9835 88.6529 65.2858 83.8623" stroke="black" stroke-width="1.72881" stroke-linecap="round" stroke-linejoin="round"/>
<path d="M57.0646 24.9926C73.1327 27.1383 85.3341 35.8917 85.3341 51.3582C85.3341 66.8246 69.7126 76.6292 48.7826 76.6292C24.6743 76.6292 12.6589 67.482 12.6589 52.0961C12.6589 39.9536 21.7875 29.0266 36.9998 26.0623C41.6354 11.1571 50.9097 7.78039 54.5717 12.1338C56.9623 14.9741 54.06 22.1647 51.4058 25.8267" fill="#FFCCD3"/>
<path d="M57.0646 24.9926C73.1327 27.1383 85.3341 35.8917 85.3341 51.3581C85.3341 66.8246 69.7126 76.6292 48.7826 76.6292C24.6743 76.6292 12.6589 67.482 12.6589 52.0961C12.6589 39.9536 21.7875 29.0266 36.9998 26.0623C41.6354 11.1571 50.9097 7.78039 54.5717 12.1338C56.9623 14.9741 54.06 22.1647 51.4058 25.8267" stroke="black" stroke-width="1.72881" stroke-linecap="round" stroke-linejoin="round"/>
<path d="M61.6538 29.7057C64.491 25.9941 67.2786 24.3383 68.8258 21.6934C70.2119 19.3213 70.9932 14.4501 66.8475 12.1338C60.9158 8.81915 52.4663 16.2609 48.1966 26.7476" fill="#FFCCD3"/>
<path d="M61.6538 29.7057C64.491 25.9941 67.2786 24.3383 68.8258 21.6934C70.2119 19.3213 70.9932 14.4501 66.8475 12.1338C60.9158 8.81915 52.4663 16.2609 48.1966 26.7476" stroke="black" stroke-width="1.72881" stroke-linecap="round" stroke-linejoin="round"/>
<path d="M35.9685 65.4626C37.491 66.9695 40.0925 66.523 40.8987 64.7959C41.8041 66.4672 44.9545 66.9013 46.6568 65.8036" stroke="black" stroke-width="1.72881" stroke-linecap="round" stroke-linejoin="round"/>
<path d="M48.566 57.9039C48.566 58.524 48.011 59.0295 47.3908 59.0295C46.6839 59.0295 46.1877 58.5271 46.1877 57.9039C46.1877 57.2806 46.7149 56.7783 47.3908 56.7783C48.0668 56.7783 48.566 57.2806 48.566 57.9039Z" fill="black"/>
<path d="M36.4738 57.9029C36.4738 58.5231 35.9188 59.0285 35.2987 59.0285C34.5917 59.0285 34.0956 58.5262 34.0956 57.9029C34.0956 57.2797 34.6227 56.7773 35.2987 56.7773C35.9746 56.7773 36.4738 57.2797 36.4738 57.9029Z" fill="black"/>
<path d="M44.8552 51.1221C47.7637 51.888 50.9048 52.9887 53.4102 53.7236" stroke="black" stroke-width="1.72881" stroke-linecap="round" stroke-linejoin="round"/>
<path d="M35.9835 51.2988C33.8037 52.3655 31.4843 53.5376 29.4719 54.6786" stroke="black" stroke-width="1.72881" stroke-linecap="round" stroke-linejoin="round"/>
<path d="M28.4637 70.2162C29.3412 68.1418 31.3226 67.1217 31.8249 67.3015C32.4729 67.531 32.5504 70.055 32.0822 71.5402C31.2512 74.1728 29.6947 78.8797 28.011 82.7773L24.2126 81.4347C26.4699 76.6285 26.5629 74.7061 28.4637 70.2162Z" fill="white" stroke="black" stroke-width="1.72881" stroke-linecap="round" stroke-linejoin="round"/>
<path d="M24.2132 81.4343C24.4644 80.5723 25.5962 80.5382 26.6039 80.8793C27.3729 81.1367 28.3651 81.9553 28.0116 82.777C27.6892 83.5335 26.3775 83.5398 25.4318 83.1274C24.9264 82.9072 23.9683 82.2715 24.2132 81.4343Z" fill="white" stroke="black" stroke-width="1.72881" stroke-linecap="round" stroke-linejoin="round"/>
<path d="M29.7176 68.3959C30.7781 68.3959 31.7207 68.7463 32.3812 69.4253C32.3936 68.3742 32.2075 67.4378 31.823 67.3013C31.5006 67.1866 30.5703 67.5649 29.7145 68.3959H29.7176Z" fill="black"/>
<path d="M32.0833 71.5402C31.1375 70.6224 29.5282 70.1046 28.4647 70.2162L32.0833 71.5402Z" fill="white"/>
<path d="M32.0833 71.5402C31.1375 70.6224 29.5282 70.1046 28.4647 70.2162" stroke="black" stroke-width="1.72881" stroke-linecap="round" stroke-linejoin="round"/>
<path d="M25.3133 78.9179C23.6947 77.3892 21.6947 74.0962 23.7691 71.4451C25.1334 69.7056 27.1644 69.6404 28.5411 70.6606C29.8217 71.6094 30.0016 73.504 28.7024 74.7195C27.4373 75.9039 26.8326 75.3985 26.2311 76.4249C25.9675 77.2032 25.6791 78.0093 25.3133 78.9179Z" fill="#FFCCD3" stroke="black" stroke-width="1.72881" stroke-linecap="round" stroke-linejoin="round"/>
<g style="mix-blend-mode:multiply">
<path d="M66.848 12.133C70.9905 14.4492 70.2123 19.3205 68.8262 21.6926C67.7999 23.4445 66.2309 24.7623 64.4635 26.5328C76.7362 30.1173 85.3377 38.3683 85.3377 51.3573C85.3377 61.8068 77.8494 69.9028 66.296 73.8935C70.082 80.7895 68.5099 86.4142 66.0728 88.7987C64.9906 89.856 63.7286 90.5909 62.1317 91.0777C65.1673 85.9987 65.5146 79.8345 62.9782 74.895C73.4649 68.1168 78.8664 60.7184 78.8664 50.3217C78.8664 38.8706 71.3874 33.0692 62.0883 29.1684C60.8945 27.7669 62.3984 25.8506 63.8681 23.9685C67.0836 19.8445 69.4557 13.9469 65.1922 11.457" fill="#B6B6B6"/>
</g>
<path d="M65.8497 14.536C68.0171 14.3934 70.1163 14.5453 72.1659 14.536" stroke="black" stroke-width="1.72881" stroke-linecap="round" stroke-linejoin="round"/>
<path d="M64.9036 17.2961C64.9036 17.2961 69.7624 17.0635 74.6182 17.0449" stroke="black" stroke-width="1.72881" stroke-linecap="round" stroke-linejoin="round"/>
<path d="M63.5741 20.0991C63.5741 20.0991 69.6391 19.9037 73.9027 19.9843" stroke="black" stroke-width="1.72881" stroke-linecap="round" stroke-linejoin="round"/>
<path d="M64.9601 22.9606C64.9601 22.9606 66.8887 22.8428 70.7058 22.8614" stroke="black" stroke-width="1.72881" stroke-linecap="round" stroke-linejoin="round"/>
<path d="M69.4431 26.2571C69.4431 26.2571 72.0756 26.1796 74.2895 26.1641" stroke="black" stroke-width="1.72881" stroke-linecap="round" stroke-linejoin="round"/>
<path d="M66.9881 28.8424C69.6888 28.7959 74.6686 28.6595 78.0794 28.6191" stroke="black" stroke-width="1.72881" stroke-linecap="round" stroke-linejoin="round"/>
<path d="M69.8344 32.2104C69.8344 32.2104 77.363 31.8817 81.6668 32.0678" stroke="black" stroke-width="1.72881" stroke-linecap="round" stroke-linejoin="round"/>
<path d="M72.7585 35.2829C72.7585 35.2829 76.0856 35.0721 84.3274 35.0225" stroke="black" stroke-width="1.72881" stroke-linecap="round" stroke-linejoin="round"/>
<path d="M77.6427 39.2371C77.6427 39.2371 83.2054 38.9921 86.5387 38.9053" stroke="black" stroke-width="1.72881" stroke-linecap="round" stroke-linejoin="round"/>
<path d="M79.8341 43.488C82.1348 43.2989 83.9643 43.2399 87.6231 43.1035" stroke="black" stroke-width="1.72881" stroke-linecap="round" stroke-linejoin="round"/>
<path d="M77.4874 47.0511C79.3417 47.0139 82.7277 46.831 88.5354 46.7969" stroke="black" stroke-width="1.72881" stroke-linecap="round" stroke-linejoin="round"/>
<path d="M81.1181 50.8926C81.1181 50.8926 86.3304 50.6166 88.7273 50.7468" stroke="black" stroke-width="1.72881" stroke-linecap="round" stroke-linejoin="round"/>
<path d="M87.701 54.4759C83.9615 54.4666 82.5444 54.4542 79.9181 54.5937" stroke="black" stroke-width="1.72881" stroke-linecap="round" stroke-linejoin="round"/>
<path d="M76.6837 58.426C80.0945 58.3857 83.1177 58.2741 86.9068 58.209" stroke="black" stroke-width="1.72881" stroke-linecap="round" stroke-linejoin="round"/>
<path d="M73.593 62.5724C73.593 62.5724 81.596 62.5724 84.6193 62.2871" stroke="black" stroke-width="1.72881" stroke-linecap="round" stroke-linejoin="round"/>
<path d="M71.6361 66.204C75.1617 66.0706 83.205 66.0117 83.205 66.0117" stroke="black" stroke-width="1.72881" stroke-linecap="round" stroke-linejoin="round"/>
<path d="M68.979 69.9518C68.979 69.9518 74.4239 69.6108 78.8394 69.5146" stroke="black" stroke-width="1.72881" stroke-linecap="round" stroke-linejoin="round"/>
<path d="M76.9261 72.8291C76.9261 72.8291 70.861 72.8911 66.5789 73.1764" stroke="black" stroke-width="1.72881" stroke-linecap="round" stroke-linejoin="round"/>
<path d="M65.3256 76.8023C66.6527 76.6845 69.8403 76.5015 72.1441 76.4209" stroke="black" stroke-width="1.72881" stroke-linecap="round" stroke-linejoin="round"/>
<path d="M74.1536 79.2822C74.1536 79.2822 69.7257 79.2822 65.7041 79.4187" stroke="black" stroke-width="1.72881" stroke-linecap="round" stroke-linejoin="round"/>
<path d="M66.1358 82.3057C66.1358 82.3057 71.1125 82.3429 74.6504 82.3057" stroke="black" stroke-width="1.72881" stroke-linecap="round" stroke-linejoin="round"/>
<path d="M66.1634 86.1231C66.1634 86.1231 70.2719 86.0022 73.9928 86.1231" stroke="black" stroke-width="1.72881" stroke-linecap="round" stroke-linejoin="round"/>
<path d="M64.0074 89.1678C64.0074 89.1678 67.9299 89.0654 71.5298 88.9414" stroke="black" stroke-width="1.72881" stroke-linecap="round" stroke-linejoin="round"/>
</svg>
