<svg width="102" height="102" viewBox="0 0 102 102" fill="none" xmlns="http://www.w3.org/2000/svg">
<path d="M40.2639 56.3061C43.8521 59.32 46.2638 66.7905 45.4319 71.5243C44.6224 76.1152 40.1435 76.8939 36.4013 77.1544C36.4013 77.1544 27.4939 78.0451 25.4604 76.4877C24.4212 75.6922 23.8694 74.3337 23.7517 73.0536C23.48 70.0845 23.2083 57.7542 30.844 54.9111" fill="white"/>
<path d="M40.2639 56.3061C43.8521 59.32 46.2638 66.7905 45.4319 71.5243C44.6224 76.1152 40.1435 76.8939 36.4013 77.1544C36.4013 77.1544 27.4939 78.0451 25.4604 76.4877C24.4212 75.6922 23.8694 74.3337 23.7517 73.0536C23.48 70.0845 23.2083 57.7542 30.844 54.9111" stroke="black" stroke-width="1.72881" stroke-linecap="round" stroke-linejoin="round"/>
<path d="M60.3416 65.5922C57.7618 63.9172 53.7675 64.2477 50.9188 65.3205C48.4119 66.2645 44.7341 68.4409 44.9582 71.2447C45.1823 74.0486 49.1542 75.6172 51.7788 76.1522C54.7591 76.76 58.7562 76.4603 61.039 74.3959C63.7701 71.9282 63.4283 67.5978 60.3388 65.5894L60.3416 65.5922Z" fill="#A2C9FB" stroke="black" stroke-width="1.72881" stroke-linecap="round" stroke-linejoin="round"/>
<path d="M37.5467 24.9852C35.3674 21.3354 31.4404 18.7052 28.7233 20.8873C26.1856 22.9236 25.0708 27.4474 24.8215 28.5986" fill="#A2C9FB"/>
<path d="M37.5467 24.9852C35.3674 21.3354 31.4404 18.7052 28.7233 20.8873C26.1856 22.9236 25.0708 27.4474 24.8215 28.5986" stroke="black" stroke-width="1.72881" stroke-linecap="round" stroke-linejoin="round"/>
<path d="M33.1211 25.1388C33.2387 26.7214 32.1015 27.7998 31.0231 27.2171C30.236 28.4132 28.8803 28.1583 28.4966 26.6625C28.0204 24.7998 29.2024 22.7803 30.2444 22.4357C31.2864 22.0912 32.9726 23.1668 33.1183 25.1388H33.1211Z" fill="#7FAFF1"/>
<path d="M43.9134 26.1143C49.3783 27.9686 53.6863 31.3382 55.4734 34.0329C62.0194 43.3996 58.7702 54.321 51.7227 57.94C48.1906 59.755 43.3532 60.8615 34.4879 59.2901C25.6225 57.7187 18.0625 54.8224 15.7516 47.9402C13.9225 42.4893 16.4715 34.9712 20.351 30.5343C28.2443 21.5065 42.0227 25.4728 43.9106 26.1143H43.9134Z" fill="white"/>
<path d="M55.4705 34.0583C53.6806 31.3636 49.3726 27.9939 43.9106 26.1396C42.0198 25.4982 28.2443 21.5319 20.3509 30.5597C19.2277 31.8454 18.2165 33.3888 17.3902 35.0666C18.5778 35.2403 19.645 35.2795 20.096 34.977C20.9952 34.3804 22.3144 32.1619 22.9335 31.3356C22.292 34.4728 22.1016 35.2879 22.8074 35.7949C24.6197 37.1002 31.838 38.3383 33.7399 37.7333C34.5747 37.4672 34.6783 36.6688 35.1545 33.5008C35.4542 34.4896 35.9304 37.0246 36.569 37.8957C37.2833 38.8677 39.272 39.229 40.3448 39.5399C44.2943 40.6912 46.72 41.0833 52 43.904C54.2885 45.1253 56.4873 46.2149 58.8794 47.0132C59.4032 42.932 58.462 38.3327 55.4733 34.0583H55.4705Z" fill="#A2C9FB"/>
<path d="M29.5562 46.2809C29.5562 46.2809 33.5562 45.8365 37.1121 48.9478" stroke="black" stroke-width="1.55593" stroke-linecap="round" stroke-linejoin="round"/>
<path d="M15.778 43.6143C15.778 43.6143 17.733 43.0561 20.3854 44.2671" stroke="black" stroke-width="1.55593" stroke-linecap="round" stroke-linejoin="round"/>
<path d="M23.7764 50.5396L23.4855 50.4893" stroke="black" stroke-width="1.72881" stroke-linecap="round" stroke-linejoin="round"/>
<path d="M24.8273 47.1455C24.8814 46.8402 24.6314 46.5405 24.2688 46.4762C23.9063 46.412 23.5685 46.6075 23.5144 46.9129C23.4603 47.2183 23.7103 47.5179 24.0728 47.5822C24.4354 47.6464 24.7732 47.4509 24.8273 47.1455Z" fill="black"/>
<path d="M33.3674 24.7299C38.4738 24.4722 42.8994 25.7691 43.9134 26.1136C49.3783 27.968 53.6863 31.3376 55.4734 34.0323C62.0194 43.399 58.7702 54.3204 51.7227 57.9394C48.1906 59.7544 43.3532 60.8609 34.4879 59.2895C25.6225 57.7181 18.0625 54.8218 15.7516 47.9396C13.9225 42.4887 16.4715 34.9706 20.351 30.5337C22.7206 27.8223 25.6225 26.2845 28.572 25.475" stroke="black" stroke-width="1.72881" stroke-linecap="round" stroke-linejoin="round"/>
<path d="M42.8658 25.93C41.8602 26.9804 43.8658 29.7954 46.8405 31.8374C48.5211 32.9914 53.6891 35.7785 54.0448 33.7813C54.2045 32.6133 54.6974 27.9803 52.9328 25.1793C51.0421 22.1793 46.2775 23.2689 42.8686 25.93H42.8658Z" fill="#A2C9FB"/>
<path d="M45.429 27.3292C44.6363 28.7102 45.3421 30.0407 46.6894 29.8642C46.9864 31.1891 48.4793 31.3936 49.5017 30.1723C50.779 28.6541 50.4288 26.4637 49.5101 25.8223C48.5914 25.1808 46.4149 25.6066 45.429 27.3292Z" fill="#7FAFF1"/>
<path d="M42.866 25.9289C46.2749 23.2707 51.0395 22.1811 52.9302 25.1782C54.6977 27.9793 54.2019 32.6094 54.0422 33.7803" stroke="black" stroke-width="1.72881" stroke-linecap="round" stroke-linejoin="round"/>
<path d="M31.1856 60.2807C31.1856 60.2807 30.9475 54.5862 21.1046 49.4266C16.0879 46.7964 14.5389 46.379 12.3485 45.9869C10.1581 45.5947 7.3458 48.4882 5.78281 51.8495C4.48312 54.645 3.98453 59.5104 5.54752 62.0118C7.11051 64.5131 11.3317 64.9053 15.5529 63.5748C19.7741 62.2443 20.5556 63.8885 20.5556 63.8885C20.5556 63.8885 15.2392 65.9977 12.27 68.345C9.30093 70.6895 8.12729 72.8015 10.5502 74.3645C12.9731 75.9275 18.2895 77.4121 24.7768 76.0059L31.1828 60.2807H31.1856Z" fill="#C5E4F9" stroke="black" stroke-width="1.72881" stroke-linecap="round" stroke-linejoin="round"/>
<path d="M18.1355 68.1436C18.1355 68.1436 16.3372 69.4713 15.4773 71.0371L18.1355 68.1436Z" fill="#C5E4F9"/>
<path d="M18.1355 68.1436C18.1355 68.1436 16.3372 69.4713 15.4773 71.0371" stroke="black" stroke-width="1.72881" stroke-linecap="round" stroke-linejoin="round"/>
<path d="M14.4603 56.9336C14.4603 56.9336 17.197 58.3397 18.8384 60.7627L14.4603 56.9336Z" fill="#C5E4F9"/>
<path d="M14.4603 56.9336C14.4603 56.9336 17.197 58.3397 18.8384 60.7627" stroke="black" stroke-width="1.72881" stroke-linecap="round" stroke-linejoin="round"/>
<path d="M23.1414 63.6509C23.2786 65.9141 22.1246 67.7853 19.6765 67.9701C16.5589 68.2082 15.3853 66.3875 15.2508 64.1243C14.9483 59.1132 22.8165 58.2616 23.1414 63.6509Z" fill="white" stroke="black" stroke-width="1.72881" stroke-linecap="round" stroke-linejoin="round"/>
<path d="M33.4856 68.0511C32.6145 68.0595 29.3624 67.9139 28.3036 67.715C26.7519 67.4237 25.0236 66.7934 24.2953 65.2725C23.5979 63.8187 23.8472 61.844 24.9172 60.6507C26.976 58.3594 30.8442 58.7192 33.4856 59.1701" fill="white"/>
<path d="M33.4856 68.0511C32.6145 68.0595 29.3624 67.9139 28.3036 67.715C26.7519 67.4237 25.0236 66.7934 24.2953 65.2725C23.5979 63.8187 23.8472 61.844 24.9172 60.6507C26.976 58.3594 30.8442 58.7192 33.4856 59.1701" stroke="black" stroke-width="1.72881" stroke-linecap="round" stroke-linejoin="round"/>
<path d="M32.6983 68.0599C31.9421 68.0935 30.2278 67.9787 28.1242 68.1972C28.1242 68.1972 27.2447 67.2 25.7966 67.6426C24.3316 68.0907 23.4773 70.0851 23.7518 73.0542C23.8694 74.3343 24.424 75.6928 25.4604 76.4883C27.494 78.0485 36.4013 77.155 36.4013 77.155" fill="white"/>
<path d="M32.6983 68.0599C31.9421 68.0935 30.2278 67.9787 28.1242 68.1972C28.1242 68.1972 27.2447 67.2 25.7966 67.6426C24.3316 68.0907 23.4773 70.0851 23.7518 73.0542C23.8694 74.3343 24.424 75.6928 25.4604 76.4883C27.494 78.0485 36.4013 77.155 36.4013 77.155" stroke="black" stroke-width="1.72881" stroke-linecap="round" stroke-linejoin="round"/>
<path d="M44.8312 75.2441C41.5568 77.2449 42.5468 80.6328 44.2846 81.7363C46.9557 83.4329 52.9477 84.0981 56.1087 83.7526C58.8366 83.4535 60.3011 81.2516 59.9401 79.7923C59.3419 77.3893 57.9393 77.4254 53.386 77.2449C49.7816 77.1005 47.0279 75.9661 44.8312 75.2441Z" fill="white"/>
<path d="M76.9924 75.4258C73.2382 77.1869 68.8022 77.5988 63.7887 77.4331C61.8714 77.3668 59.7788 77.9349 59.9445 80.1079C60.0913 82.0063 61.45 82.9485 63.7934 83.4219C69.2899 84.5297 74.8762 82.9248 78.995 80.2784" fill="white"/>
<path d="M73.5248 82.2795C75.9315 81.7931 93.4085 75.8787 98.3383 72.9198C100.127 71.8457 99.9495 69.6974 98.698 68.8057C97.8316 68.1875 95.4756 67.9139 94.4066 67.1945C94.2444 67.0881 91.3666 60.2177 81.8869 60.4001" fill="white"/>
<path d="M79.5612 80.0739C81.9679 79.5875 93.4084 75.8787 98.3382 72.9198C100.127 71.8457 99.9494 69.6974 98.698 68.8057C97.8316 68.1875 95.4756 67.9139 94.4065 67.1945C94.2444 67.0881 91.3665 60.2177 81.8868 60.4001" stroke="black" stroke-width="1.72881" stroke-linecap="round" stroke-linejoin="round"/>
<path d="M44.3275 75.0684C41.1102 77.0342 42.083 80.363 43.7905 81.4473C46.415 83.1142 52.3024 83.7678 55.4083 83.4284C58.0885 83.1345 59.5275 80.971 59.1728 79.5372C58.5851 77.1761 57.2069 77.2116 52.7331 77.0342C49.1915 76.8924 46.4859 75.7777 44.3275 75.0684Z" stroke="black" stroke-width="1.72881" stroke-linecap="round" stroke-linejoin="round"/>
<path d="M77.418 74.8857C73.4002 76.7705 68.6527 77.2113 63.2872 77.034C61.2352 76.9631 58.9957 77.5711 59.173 79.8967C59.3301 81.9284 60.7842 82.9367 63.2922 83.4434C69.1746 84.629 75.1533 82.9114 79.5612 80.0791" stroke="black" stroke-width="1.72881" stroke-linecap="round" stroke-linejoin="round"/>
<path d="M58.7137 35.6346C58.7137 35.6346 59.2392 34.8771 60.3706 35.2843C63.4289 36.3874 71.9647 39.9286 78.0481 45.7043C84.1269 51.4848 86.6549 57.8192 85.9874 63.3345C85.1684 70.0808 82.3373 72.4763 79.1607 74.3085C76.2349 75.9938 69.9763 78.7965 55.1962 77.4378C40.4113 76.0838 37.3056 69.3281 37.031 61.4645C36.7565 53.5963 41.2776 48.2797 46.7172 44.7007C51.8964 41.292 55.9584 39.2516 58.7184 35.6299" fill="#FFCDCD"/>
<path d="M58.7137 35.6346C58.7137 35.6346 59.2392 34.8771 60.3706 35.2843C63.4289 36.3874 71.9647 39.9286 78.0481 45.7043C84.1269 51.4848 86.6549 57.8192 85.9874 63.3345C85.1684 70.0808 82.3373 72.4763 79.1607 74.3085C76.2349 75.9938 69.9763 78.7965 55.1962 77.4378C40.4113 76.0838 37.3056 69.3281 37.031 61.4645C36.7565 53.5963 41.2776 48.2797 46.7172 44.7007C51.8964 41.292 55.9584 39.2516 58.7184 35.6299" stroke="black" stroke-width="1.72881" stroke-linecap="round" stroke-linejoin="round"/>
<path d="M58.7137 35.6346C58.7137 35.6346 59.2392 34.8771 60.3706 35.2843C63.4289 36.3874 71.9647 39.9286 78.0481 45.7043C84.1269 51.4848 86.6549 57.8192 85.9874 63.3345C85.1684 70.0808 82.3373 72.4763 79.1607 74.3085C76.2349 75.9938 69.9763 78.7965 55.1962 77.4378C40.4113 76.0838 37.3056 69.3281 37.031 61.4645C36.7565 53.5963 41.2776 48.2797 46.7172 44.7007C51.8964 41.292 55.9584 39.2516 58.7184 35.6299L58.7137 35.6346Z" stroke="black" stroke-width="1.72881" stroke-linecap="round" stroke-linejoin="round"/>
<path d="M76.6088 67.3731C76.6088 66.4167 74.7151 65.6498 72.3859 65.6593C70.0614 65.6687 68.1772 66.4546 68.182 67.4109C68.1867 68.3672 70.0756 69.1342 72.4049 69.1247C74.7341 69.1152 76.6136 68.3294 76.6088 67.3731Z" fill="#F58C8C"/>
<path d="M43.0055 67.3731C43.0102 66.4167 44.8992 65.6498 47.2284 65.6593C49.5529 65.6687 51.4371 66.4546 51.4324 67.4109C51.4324 68.3672 49.5387 69.1342 47.2142 69.1247C44.885 69.1152 43.0055 68.3294 43.0102 67.3731" fill="#F58C8C"/>
<path d="M56.7396 68.5996C56.7396 68.5996 58.8274 69.8542 62.1271 68.5996" stroke="black" stroke-width="1.72881" stroke-linecap="round" stroke-linejoin="round"/>
<path d="M64.5367 61.6868C64.5367 61.6868 65.4268 64.1628 70.7433 63.8503C75.4443 63.5757 76.2965 61.6726 76.4953 61.0098" stroke="black" stroke-width="1.72881" stroke-linecap="round" stroke-linejoin="round"/>
<path d="M54.0647 61.5354C54.0647 61.5354 53.6007 63.8788 48.2984 63.5427C44.9608 63.3296 43.0766 61.9946 42.8683 60.7021" stroke="black" stroke-width="1.72881" stroke-linecap="round" stroke-linejoin="round"/>
</svg>
