<svg width="102" height="102" viewBox="0 0 102 102" fill="none" xmlns="http://www.w3.org/2000/svg">
<g clip-path="url(#clip0_3359_38434)">
<path d="M41.3191 61.5244C39.5733 66.889 38.2261 73.4048 37.4804 78.9514C36.0679 89.4228 39.6317 91.8524 43.6663 91.8524C47.4328 91.8524 48.8865 88.7732 49.8178 82.7832" fill="#FAAA30"/>
<path d="M41.3191 61.5244C39.5733 66.889 38.2261 73.4048 37.4804 78.9514C36.0679 89.4228 39.6317 91.8524 43.6663 91.8524C47.4328 91.8524 48.8865 88.7732 49.8178 82.7832" stroke="#061922" stroke-width="1.72881" stroke-linecap="round" stroke-linejoin="round"/>
<path d="M69.4509 62.2949C67.389 66.7556 66.3167 71.7078 65.107 77.1136C63.6465 83.6397 64.186 88.1347 62.1722 90.7156C61.4093 91.6916 60.1171 92.269 58.306 92.269C54.378 92.269 52.1717 89.1176 52.6081 81.4471" fill="#FAAA30"/>
<path d="M69.4509 62.2949C67.389 66.7556 66.3167 71.7078 65.107 77.1136C63.6465 83.6397 64.186 88.1347 62.1722 90.7156C61.4093 91.6916 60.1171 92.269 58.306 92.269C54.378 92.269 52.1717 89.1176 52.6081 81.4471" stroke="#061922" stroke-width="1.72881" stroke-linecap="round" stroke-linejoin="round"/>
<path d="M62.1002 82.22L67.8634 54.7581L46.5908 51.1084L41.5356 78.4122L62.1002 82.22Z" fill="#FAAA30"/>
<path d="M60.307 62.319C60.307 62.319 62.4961 64.2504 62.9704 67.5908C63.5202 71.4535 62.5477 74.4124 61.0356 76.1788C59.6094 77.8456 57.2759 79.5673 53.4544 79.3096C49.4508 79.0415 46.7737 77.4435 45.0519 74.5258C43.7151 72.2645 43.9591 68.0135 44.9076 65.6525C45.7839 63.4806 47.8012 61.7657 48.382 61.3877L51.1313 64.4325L54.3961 61.7932L57.4856 64.7075C57.4856 64.7075 58.5681 64.0304 60.3036 62.3156" fill="white"/>
<path d="M69.6292 55.9756C71.4678 57.7901 71.4265 60.914 70.4265 63.1821C69.0793 66.227 66.1101 67.3473 63.4605 67.6085C60.8109 67.8697 56.7419 67.6394 54.869 67.2751C50.91 66.5019 49.4495 64.3162 49.4495 62.0378C49.4495 59.5015 51.0509 56.7488 56.1955 57.8417" fill="#FAAA30"/>
<path d="M69.6292 55.9756C71.4678 57.7901 71.4265 60.914 70.4265 63.1821C69.0793 66.227 66.1101 67.3473 63.4605 67.6085C60.8109 67.8697 56.7419 67.6394 54.869 67.2751C50.91 66.5019 49.4495 64.3162 49.4495 62.0378C49.4495 59.5015 51.0509 56.7488 56.1955 57.8417" stroke="#061922" stroke-width="1.72881" stroke-linecap="round" stroke-linejoin="round"/>
<path d="M56.9186 17.2614C57.0286 14.6942 55.5577 10.426 50.6915 11.0824C45.8562 11.7353 45.7049 16.7596 46.6947 18.5604" fill="#FAAA30"/>
<path d="M56.9186 17.2614C57.0286 14.6942 55.5577 10.426 50.6915 11.0824C45.8562 11.7353 45.7049 16.7596 46.6947 18.5604" stroke="#061922" stroke-width="1.72881" stroke-linecap="round" stroke-linejoin="round"/>
<path d="M70.0391 19.6904C70.8536 17.2539 73.7575 13.7967 78.067 16.1507C82.349 18.4911 80.6926 23.237 79.1221 24.5635" fill="#FAAA30"/>
<path d="M70.0391 19.6904C70.8536 17.2539 73.7575 13.7967 78.067 16.1507C82.349 18.4911 80.6926 23.237 79.1221 24.5635" stroke="#061922" stroke-width="1.72881" stroke-linecap="round" stroke-linejoin="round"/>
<path d="M36.9825 32.7743C39.5325 18.9969 51.6293 12.8694 63.9942 15.1582C75.9673 17.3748 85.4902 27.3272 82.9093 41.2798C80.3181 55.2806 68.0666 60.0403 56.0935 57.8237C44.3094 55.6414 34.3879 46.775 36.9825 32.7743Z" fill="#FAAA30" stroke="#061922" stroke-width="1.72881" stroke-linecap="round" stroke-linejoin="round"/>
<path d="M58.3235 39.2354C55.4712 37.6065 52.8387 38.9364 52.2511 40.9228C51.7734 42.5449 52.9075 44.4591 54.6292 44.9368C56.4918 45.4557 57.8905 44.6962 58.5641 43.6446C58.7222 44.8818 59.5161 45.9299 61.4199 46.2633C63.1829 46.5691 64.8462 45.7478 65.3445 43.7477C65.8428 41.7373 64.128 38.933 60.2824 39.6753L59.1964 39.9159" fill="white"/>
<path d="M58.3235 39.2354C55.4712 37.6065 52.8387 38.9364 52.2511 40.9228C51.7734 42.5449 52.9075 44.4591 54.6292 44.9368C56.4918 45.4557 57.8905 44.6962 58.5641 43.6446C58.7222 44.8818 59.5161 45.9299 61.4199 46.2633C63.1829 46.5691 64.8462 45.7478 65.3445 43.7477C65.8428 41.7373 64.128 38.933 60.2824 39.6753L59.1964 39.9159" stroke="#061922" stroke-width="1.72881" stroke-linecap="round" stroke-linejoin="round"/>
<path d="M57.3271 38.6267C57.0556 39.3725 57.8769 41.2042 58.8942 41.3863C59.8083 41.5478 61.1314 40.4103 61.4613 39.3793C61.8462 38.1731 58.0797 36.5579 57.3271 38.6267Z" fill="#061922"/>
<path d="M69.6608 37.9849C70.5339 37.9849 71.2417 37.2772 71.2417 36.4041C71.2417 35.531 70.5339 34.8232 69.6608 34.8232C68.7878 34.8232 68.08 35.531 68.08 36.4041C68.08 37.2772 68.7878 37.9849 69.6608 37.9849Z" fill="#061922"/>
<path d="M51.2375 34.565C52.1105 34.565 52.8183 33.8572 52.8183 32.9842C52.8183 32.1111 52.1105 31.4033 51.2375 31.4033C50.3644 31.4033 49.6566 32.1111 49.6566 32.9842C49.6566 33.8572 50.3644 34.565 51.2375 34.565Z" fill="#061922"/>
<path d="M67.1111 30.5469C67.1111 30.5469 70.7195 31.0658 74.8743 32.0177" stroke="#061922" stroke-width="1.98814" stroke-linecap="round" stroke-linejoin="round"/>
<path d="M47.5978 26.9355C47.5978 26.9355 51.2063 27.4545 55.3611 28.4064" stroke="#061922" stroke-width="1.98814" stroke-linecap="round" stroke-linejoin="round"/>
<path d="M55.1614 49.7541C55.2301 44.9498 53.773 41.6541 50.0511 38.5852C49.6284 37.0078 49.2676 35.8428 48.4497 35.3479C47.4428 34.7362 46.0166 34.8771 44.1539 35.7362C41.1778 35.4716 36.1054 35.3754 32.2049 37.0662C30.3491 36.3617 28.9573 36.451 27.9641 37.0868C26.9709 37.7226 26.6204 38.8842 26.507 40.6471C23.9295 43.4583 23.0326 46.8811 23.0119 50.9707C22.9673 60.0502 28.1119 64.8855 39.6726 64.5212C51.2333 64.0917 55.0308 58.8371 55.1579 49.7576L55.1614 49.7541Z" fill="#FFD37C" stroke="#061922" stroke-width="1.72881" stroke-linecap="round" stroke-linejoin="round"/>
<path d="M35.1296 43.0488C35.2602 43.5334 34.9818 44.0454 34.1089 44.2654C33.236 44.4853 32.7824 44.2035 32.6518 43.719C32.5212 43.2344 32.7858 42.743 33.6553 42.5058C34.5247 42.2721 34.999 42.5643 35.1296 43.0488Z" fill="#061922"/>
<path d="M44.6508 42.3611C44.6793 41.8608 44.1294 41.4227 43.4226 41.3824C42.7158 41.3421 42.1198 41.715 42.0913 42.2153C42.0628 42.7156 42.6127 43.1537 43.3195 43.194C44.0263 43.2342 44.6223 42.8613 44.6508 42.3611Z" fill="#061922"/>
<path d="M39.1444 44.9292C36.3848 45.1388 34.8589 46.7987 35.2541 48.3383C35.6871 50.0188 38.055 50.4346 39.354 48.6957C40.9348 49.9054 43.0415 49.3865 43.2717 47.7884C43.502 46.1904 41.904 44.7196 39.1444 44.9292Z" fill="white" stroke="#061922" stroke-width="1.72881" stroke-linecap="round" stroke-linejoin="round"/>
<path d="M33.6216 46.5645L35.309 47.0112" stroke="#061922" stroke-width="1.72881" stroke-linecap="round" stroke-linejoin="round"/>
<path d="M34.0476 49.7193L35.412 48.9014" stroke="#061922" stroke-width="1.72881" stroke-linecap="round" stroke-linejoin="round"/>
<path d="M44.6494 45.29L43.0411 46.187" stroke="#061922" stroke-width="1.72881" stroke-linecap="round" stroke-linejoin="round"/>
<path d="M45.0475 48.5003L43.4701 48.002" stroke="#061922" stroke-width="1.72881" stroke-linecap="round" stroke-linejoin="round"/>
<path d="M38.7919 52.2221C39.8263 52.2393 40.3865 52.1465 40.3865 52.1465L38.7919 52.2221Z" fill="#9B764A"/>
<path d="M38.7919 52.2221C39.8263 52.2393 40.3865 52.1465 40.3865 52.1465" stroke="#061922" stroke-width="1.72881" stroke-linecap="round" stroke-linejoin="round"/>
<path d="M44.2911 83.9275C44.2911 88.127 45.3015 90.0893 48.3532 89.9896C50.2777 89.9278 51.7829 88.7696 52.3087 86.8486C53.4462 82.6903 52.8311 70.0092 52.6077 66.1946L56.1371 57.8333C57.443 56.4243 58.3399 56.0085 59.8864 55.1803C62.1614 53.9603 62.835 51.6887 61.6838 49.4858C60.4397 47.1042 56.6869 47.362 54.0511 48.881C51.2021 50.5237 48.7106 53.675 46.7551 56.091C45.9097 57.1357 45.2911 58.177 40.2668 58.5997C38.607 58.7406 36.0948 58.6719 34.5689 57.5446C31.7578 55.4621 27.7988 53.5891 24.7746 53.0496C21.0631 52.3863 19.197 53.5754 18.3654 55.5858C17.2725 58.2251 18.9118 60.7373 22.6508 61.3593C25.0152 61.7511 28.3487 62.1772 30.7784 63.2838C31.8746 63.7821 29.9227 68.2153 29.9227 68.2153C29.6546 72.4286 29.6374 77.6763 30.4381 83.0958C31.2389 88.5153 32.9709 90.3986 36.1189 90.268C39.3699 90.134 40.6345 87.6905 40.6242 84.0477" fill="#FFD37C"/>
<path d="M56.1341 57.8304C57.44 56.4214 58.3369 56.0056 59.8834 55.1773C62.1584 53.9573 62.832 51.6857 61.6808 49.4829C60.4367 47.1013 56.6839 47.3591 54.0481 48.878C51.1991 50.5207 48.7076 53.6721 46.7521 56.088C45.9067 57.1328 45.2882 58.1741 40.2638 58.5968C39.1023 58.6964 36.6623 58.5624 35.8684 58.2668C35.3048 58.0572 34.4938 57.4867 34.0298 57.1534C31.174 55.1292 27.7958 53.5828 24.7716 53.0432C21.0601 52.3799 19.194 53.569 18.3624 55.5794C17.2695 58.2187 18.9088 60.7309 22.6478 61.3529C24.4211 61.6485 26.7408 61.9612 28.8131 62.566" fill="#FFD37C"/>
<path d="M56.1341 57.8304C57.44 56.4214 58.3369 56.0056 59.8834 55.1773C62.1584 53.9573 62.832 51.6857 61.6808 49.4829C60.4367 47.1013 56.6839 47.3591 54.0481 48.878C51.1991 50.5207 48.7076 53.6721 46.7521 56.088C45.9067 57.1328 45.2882 58.1741 40.2638 58.5968C39.1023 58.6964 36.6623 58.5624 35.8684 58.2668C35.3048 58.0572 34.4938 57.4867 34.0298 57.1534C31.174 55.1292 27.7958 53.5828 24.7716 53.0432C21.0601 52.3799 19.194 53.569 18.3624 55.5794C17.2695 58.2187 18.9088 60.7309 22.6478 61.3529C24.4211 61.6485 26.7408 61.9612 28.8131 62.566" stroke="#061922" stroke-width="1.72881" stroke-linecap="round" stroke-linejoin="round"/>
<path d="M44.2923 83.928C44.2923 88.1275 45.3027 90.0898 48.3544 89.9902C50.2789 89.9283 51.7841 88.7702 52.3099 86.8491C53.4131 82.8214 52.8701 70.8105 52.6295 66.5869" fill="#FFD37C"/>
<path d="M44.2923 83.928C44.2923 88.1275 45.3027 90.0898 48.3544 89.9902C50.2789 89.9283 51.7841 88.7702 52.3099 86.8491C53.4131 82.8214 52.8701 70.8105 52.6295 66.5869" stroke="#061922" stroke-width="1.72881" stroke-linecap="round" stroke-linejoin="round"/>
<path d="M25.9367 66.2288C25.9916 68.8853 27.5897 70.0606 29.5795 70.1225C31.9507 70.1946 33.59 68.8234 33.6656 66.5759C33.7377 64.3799 32.3012 62.775 29.7925 62.6135C27.2838 62.452 25.892 64.0981 25.9367 66.2288Z" fill="#FAAA30" stroke="#061922" stroke-width="1.72881" stroke-linecap="round" stroke-linejoin="round"/>
<path d="M53.6251 66.9606C50.6009 66.0087 49.4462 64.0601 49.4462 62.036C49.4462 59.4998 51.0477 56.747 56.1923 57.8399C56.1923 57.8399 57.9346 58.1526 58.6735 58.1904" fill="#FAAA30"/>
<path d="M53.6251 66.9606C50.6009 66.0087 49.4462 64.0601 49.4462 62.036C49.4462 59.4998 51.0477 56.747 56.1923 57.8399C56.1923 57.8399 57.9346 58.1526 58.6735 58.1904" stroke="#061922" stroke-width="1.72881" stroke-linecap="round" stroke-linejoin="round"/>
<path d="M29.7628 72.8951C29.7457 76.0568 29.9175 79.5381 30.4433 83.0915C31.244 88.511 32.9761 90.3943 36.124 90.2637C39.375 90.1297 40.6397 87.6862 40.6294 84.0434L44.2928 83.9232C44.2928 88.1227 45.3032 90.085 48.3549 89.9853C50.2794 89.9235 51.7846 88.7653 52.3104 86.8443C53.0939 83.985 53.0458 77.0946 52.8671 71.8263C50.0182 71.249 45.9458 71.1459 41.7944 71.2799C37.1859 71.4311 32.5087 71.9019 29.7628 72.8951Z" fill="#9B764A"/>
<path d="M44.2923 83.9264C44.2923 88.1259 45.3027 90.0882 48.3544 89.9885C50.2789 89.9267 51.7841 88.7685 52.3099 86.8475C53.2206 83.5209 53.0075 74.7438 52.7738 69.4102" stroke="#061922" stroke-width="1.72881" stroke-linecap="round" stroke-linejoin="round"/>
<path d="M29.8274 70.125C29.6693 73.9637 29.7586 78.4656 30.4425 83.0947C31.2432 88.5143 32.9753 90.3975 36.1232 90.2669C39.3742 90.1329 40.6389 87.6895 40.6286 84.0467" stroke="#061922" stroke-width="1.72881" stroke-linecap="round" stroke-linejoin="round"/>
<path d="M39.9102 84.0874C40.9481 83.9981 43.1269 83.9981 44.639 83.9053" stroke="#061922" stroke-width="1.72881" stroke-linecap="round" stroke-linejoin="round"/>
</g>
<defs>
<clipPath id="clip0_3359_38434">
<rect width="102" height="102" fill="white"/>
</clipPath>
</defs>
</svg>
