<svg width="102" height="102" viewBox="0 0 102 102" fill="none" xmlns="http://www.w3.org/2000/svg">
<path d="M50.548 28.844C33.4686 29.7724 16.8297 34.0259 10.5703 50.0595C4.49393 65.6232 13.5249 81.9526 27.4148 88.3317C41.8062 94.9412 58.3096 95.0474 71.7431 89.6103C85.1767 84.1731 92.552 74.0466 93.2997 61.7853C94.6459 39.6483 76.0282 27.4571 50.5503 28.844H50.548Z" fill="#EDFFE6" stroke="black" stroke-width="1.72881" stroke-linecap="round" stroke-linejoin="round"/>
<path d="M48.2688 69.7998C43.1254 70.7892 40.0714 69.138 38.192 66.5674C36.5204 66.5967 35.348 66.7436 35.348 66.7436C24.7313 65.9439 19.4207 75.4312 20.5456 83.8862C22.7006 85.6572 25.0814 87.1616 27.6294 88.3317C34.1237 91.3157 41.0495 92.9692 47.93 93.3916C51.3409 85.3907 51.2573 75.1963 48.2711 69.7998H48.2688Z" fill="#54D6B6"/>
<path d="M31.0607 57.326C31.0607 57.326 33.3738 58.4397 35.5446 58.6317C35.5988 56.3615 36.5746 54.193 38.5715 52.0696C38.1016 50.6556 37.3743 48.9591 36.3239 46.9239C33.1999 40.0433 30.1391 35.9909 23.2879 35.5459C17.7988 38.7467 13.3917 43.3797 10.785 50.057C9.75717 52.6908 9.16308 55.3473 8.94849 57.9721C12.3255 51.0915 26.5813 47.9923 31.0607 57.3238V57.326Z" fill="#54D6B6"/>
<path d="M90.7879 72.7885C92.0167 65.0112 88.8182 55.0359 75.4365 54.8281C72.8546 54.8869 70.8646 55.0698 69.3805 55.3906C68.8768 58.4085 66.1435 59.4362 68.8858 64.8508C69.2834 65.4381 69.7125 66.0525 70.1643 66.6986C76.453 71.5393 78.7571 80.4439 74.655 88.3454C74.673 88.3612 74.6911 88.3748 74.7069 88.3906C82.3804 84.6747 87.7836 79.2828 90.7857 72.7908L90.7879 72.7885Z" fill="#54D6B6"/>
<path d="M50.7626 28.844C33.6832 29.7724 17.0443 34.0259 10.7849 50.0595C4.70853 65.6232 13.7395 81.9526 27.6294 88.3317C42.0208 94.9412 58.5242 95.0474 71.9555 89.6103C85.389 84.1731 92.7643 74.0466 93.512 61.7853C94.8583 39.6483 76.2406 27.4571 50.7626 28.844Z" stroke="black" stroke-width="1.72881" stroke-linecap="round" stroke-linejoin="round"/>
<path d="M20.5454 83.8863C19.4182 75.4313 24.7288 65.944 35.3479 66.7436" stroke="black" stroke-width="1.72881" stroke-linecap="round" stroke-linejoin="round"/>
<path d="M8.85815 58.1618C12.0635 51.1503 26.5407 47.911 31.0607 57.326" stroke="black" stroke-width="1.72881" stroke-linecap="round" stroke-linejoin="round"/>
<path d="M23.6672 35.5752C30.2541 36.1422 33.2562 40.172 36.3238 46.9261" stroke="black" stroke-width="1.72881" stroke-linecap="round" stroke-linejoin="round"/>
<path d="M47.4285 68.5029C51.2189 73.407 51.6368 84.7082 47.9232 93.4049" stroke="black" stroke-width="1.72881" stroke-linecap="round" stroke-linejoin="round"/>
<path d="M70.1643 66.6963C76.453 71.5371 78.7571 80.4416 74.655 88.3432" stroke="black" stroke-width="1.72881" stroke-linecap="round" stroke-linejoin="round"/>
<path d="M90.7856 72.7946C92.019 65.015 88.8204 55.033 75.4365 54.8252" stroke="black" stroke-width="1.72881" stroke-linecap="round" stroke-linejoin="round"/>
<g style="mix-blend-mode:multiply">
<path d="M49.6782 40.57C40.3807 41.0669 31.3248 43.3371 27.9184 51.896C24.6114 60.2042 29.5267 68.9212 37.0872 72.3276C44.921 75.856 53.9024 75.9124 61.2144 73.0098C68.5264 70.1071 74.1216 64.6338 74.5282 58.0899C75.2624 46.2736 63.5478 39.8313 49.6782 40.5722V40.57Z" fill="#C1D3C1"/>
</g>
<path d="M43.0326 66.1041L34.4376 65.7314C33.778 63.8836 32.6259 62.2821 29.5923 61.6541C27.4079 61.2023 25.8177 60.8273 25.1061 59.4065C24.3946 57.9857 24.7831 55.5754 27.2091 54.9791C30.8347 54.0868 34.5166 56.2802 37.146 58.5549L40.8483 58.2161" fill="white"/>
<path d="M43.0326 66.1041L34.4376 65.7314C33.778 63.8836 32.6259 62.2821 29.5923 61.6541C27.4079 61.2023 25.8177 60.8273 25.1061 59.4065C24.3946 57.9857 24.7831 55.5754 27.2091 54.9791C30.8347 54.0868 34.5166 56.2802 37.146 58.5549L40.8483 58.2161" stroke="black" stroke-width="1.72881" stroke-linecap="round" stroke-linejoin="round"/>
<path d="M40.8076 63.4932C38.2212 63.1205 34.4985 63.7868 32.4249 66.2648C30.3512 68.7428 30.035 70.83 30.6652 72.4474C31.3316 74.1528 34.1823 74.9841 35.7816 73.866C37.3809 72.7456 37.7468 71.5664 39.4274 71.0085C40.7918 70.5544 41.6976 70.7961 43.6696 71.7019C45.6416 72.6078 48.5194 73.247 52.3053 72.2893C56.0889 71.3292 60.1933 68.4514 61.5261 67.9183C62.8588 67.3852 65.635 67.889 68.3501 70.0507C71.0631 72.2125 72.9876 72.9285 74.8535 71.7042C76.638 70.5296 76.6674 67.8551 74.5553 65.5736C72.3258 63.1656 69.1611 60.6583 63.2338 60.2968C58.4359 56.9379 53.2653 54.487 48.0947 53.3666C42.9242 52.2462 41.3249 49.3684 38.8198 49.4745C36.3147 49.5807 32.3707 51.8735 36.1543 56.8837" fill="white"/>
<path d="M40.8076 63.4932C38.2212 63.1205 34.4985 63.7868 32.4249 66.2648C30.3512 68.7428 30.035 70.83 30.6652 72.4474C31.3316 74.1528 34.1823 74.9841 35.7816 73.866C37.3809 72.7456 37.7468 71.5664 39.4274 71.0085C40.7918 70.5544 41.6976 70.7961 43.6696 71.7019C45.6416 72.6078 48.5194 73.247 52.3053 72.2893C56.0889 71.3292 60.1933 68.4514 61.5261 67.9183C62.8588 67.3852 65.635 67.889 68.3501 70.0507C71.0631 72.2125 72.9876 72.9285 74.8535 71.7042C76.638 70.5296 76.6674 67.8551 74.5553 65.5736C72.3258 63.1656 69.1611 60.6583 63.2338 60.2968C58.4359 56.9379 53.2653 54.487 48.0947 53.3666C42.9242 52.2462 41.3249 49.3684 38.8198 49.4745C36.3147 49.5807 32.3707 51.8735 36.1543 56.8837" stroke="black" stroke-width="1.72881" stroke-linecap="round" stroke-linejoin="round"/>
<path d="M34.799 22.9726C34.5866 20.7634 36.0775 19.8802 37.286 20.0225C38.4945 20.1648 38.9982 21.3101 38.6074 22.304C40.5975 21.7709 41.4152 23.6187 40.5614 24.8272C39.7075 26.0357 38.429 25.9295 37.8598 25.6087C38.5352 26.7811 37.6384 28.9338 35.7635 28.735C34.4127 28.5927 34.2343 27.5265 34.3788 27.0296C31.501 26.5326 32.4949 23.0133 34.7967 22.9704L34.799 22.9726Z" fill="#FFE885" stroke="black" stroke-width="1.72881" stroke-linecap="round" stroke-linejoin="round"/>
<path d="M60.618 10.0318C61.6007 8.41214 63.1435 8.35567 64.0899 9.12143C65.0364 9.88719 64.8805 11.1906 64.0199 11.8231C65.9874 12.4352 65.7615 14.1136 64.3949 14.6805C63.0283 15.2453 62.005 14.4727 61.6933 13.899C61.6368 15.2498 59.9562 16.7248 58.4744 15.5547C57.4082 14.7122 57.9096 13.6957 58.2959 13.3523C56.5904 11.4684 58.6483 8.83907 60.618 10.034V10.0318Z" fill="#FFE885" stroke="black" stroke-width="1.72881" stroke-linecap="round" stroke-linejoin="round"/>
<path d="M73.3493 13.5235C76.3332 16.5979 85.7099 27.262 87.1036 39.1664C88.0343 47.1154 84.3026 56.8873 74.0992 60.0113C62.8387 63.4606 46.8119 58.1839 39.0662 51.3869C32.0885 45.2631 30.1052 36.0333 33.6291 28.0978C35.8337 23.1305 41.0947 17.2755 51.8786 14.5242C58.2147 12.9068 62.2423 13.1869 65.7459 10.8829C68.6914 8.94476 70.0106 10.0832 73.3493 13.5235Z" fill="#FF7196"/>
<path d="M64.5575 24.1313C51.5779 17.8764 41.2322 23.3204 37.4147 27.3073C33.6221 31.2694 31.7043 38.1386 33.5656 43.9146C34.7605 46.6637 36.6015 49.2184 39.0682 51.3847C43.2833 55.0848 49.9538 58.333 56.9721 59.9685C64.248 60.7817 70.1979 59.5167 74.2165 56.0267C78.2666 52.5096 79.8659 47.0725 79.1205 40.9961C78.3751 34.9197 73.4055 28.3961 64.5575 24.1313Z" fill="#FFCDCD"/>
<path d="M73.3493 13.5235C76.3332 16.5979 85.7099 27.262 87.1036 39.1664C88.0343 47.1154 84.3026 56.8873 74.0992 60.0113C62.8387 63.4606 46.8119 58.1839 39.0662 51.3869C32.0885 45.2631 30.1052 36.0333 33.6291 28.0978C35.8337 23.1305 41.0947 17.2755 51.8786 14.5242C58.2147 12.9068 62.2423 13.1869 65.7459 10.8829C68.6914 8.94476 70.0106 10.0832 73.3493 13.5235Z" stroke="black" stroke-width="1.72881" stroke-linecap="round" stroke-linejoin="round"/>
<path d="M33.5973 44.0255C31.6795 38.2269 33.5973 31.2967 37.4148 27.3097C41.2323 23.3205 51.578 17.8789 64.5576 24.1337C73.4056 28.3985 78.3729 34.9222 79.1206 40.9986C79.866 47.075 78.2667 52.5121 74.2165 56.0292C70.2658 59.4604 64.4491 60.7412 57.3427 60.0116" stroke="black" stroke-width="1.72881" stroke-linecap="round" stroke-linejoin="round"/>
<path d="M59.6806 19.8173C58.2597 18.7872 58.7928 17.0818 60.356 16.5848C61.4718 16.2302 63.2699 16.691 62.9853 18.6811C63.6968 17.0456 65.7208 16.9395 66.4685 18.3241C67.2139 19.7111 66.4324 21.2381 64.8692 21.202C66.3262 21.8051 66.3985 24.0098 64.3361 24.6852C62.276 25.3606 61.6345 23.9036 61.8129 23.1582C60.8529 24.4367 58.402 24.4728 57.7628 22.9097C57.1235 21.3465 58.332 19.7472 59.6828 19.8173H59.6806Z" fill="#FFE885" stroke="black" stroke-width="1.72881" stroke-linecap="round" stroke-linejoin="round"/>
<path d="M74.8444 18.2863C73.5162 16.9671 74.3452 15.23 76.0642 14.9432C77.2908 14.7376 79.1024 15.5101 78.4903 17.5883C79.4932 15.9551 81.6346 16.1562 82.1971 17.751C82.7596 19.3457 81.7001 21.067 80.067 20.7869C81.4991 21.6588 80.8982 23.6602 78.9579 24.2046C76.7419 24.8258 76.0371 22.7386 76.3398 21.9705C75.1313 23.1858 72.7685 22.8425 72.3439 21.076C71.9192 19.3096 73.4394 18.0039 74.8444 18.2908V18.2863Z" fill="#FFE885" stroke="black" stroke-width="1.72881" stroke-linecap="round" stroke-linejoin="round"/>
<path d="M83.3016 33.5813C81.9734 32.2621 82.8024 30.4392 84.5214 30.1523C85.748 29.9467 87.2231 30.8729 86.7329 32.5829C87.7358 30.9497 89.6626 31.3631 90.2274 32.9578C90.7921 34.5526 89.7801 35.5262 88.5219 35.5668C89.8298 36.362 89.2944 38.282 87.6274 38.7496C85.4114 39.3708 84.806 38.1555 84.8828 37.1752C83.6743 38.3904 81.3116 38.0471 80.8869 36.2806C80.4622 34.5142 81.8966 33.2944 83.3016 33.579V33.5813Z" fill="#FFE885" stroke="black" stroke-width="1.72881" stroke-linecap="round" stroke-linejoin="round"/>
<path d="M45.7861 18.0059C45.6077 19.4267 47.0308 19.9259 47.9547 19.7113C48.8786 19.499 49.9809 18.5028 49.4478 17.1882C50.7263 17.4728 51.8648 16.3705 51.6163 15.1981C51.3678 14.0257 49.9809 13.3503 48.8808 14.0257C49.0231 12.6388 47.7785 12.0718 46.7484 12.248C45.7184 12.4265 44.7945 13.278 45.3276 14.735C43.8345 14.4143 42.8406 15.7651 43.3375 17.1159C43.8345 18.4667 45.2214 18.3944 45.7884 18.0036L45.7861 18.0059Z" fill="#FFE885" stroke="black" stroke-width="1.72881" stroke-linecap="round" stroke-linejoin="round"/>
<path d="M81.3591 51.9254C79.4458 54.3943 80.4985 58.0966 82.9042 58.1622C84.8762 58.2164 85.8362 55.9236 85.6239 54.3243C87.7563 54.0578 88.3436 52.3433 87.5755 51.0941C86.7217 49.7071 83.3853 49.3141 81.3614 51.9254H81.3591Z" fill="#FFE885" stroke="black" stroke-width="1.72881" stroke-linecap="round" stroke-linejoin="round"/>
<path d="M59.4253 47.0619C58.6708 48.0061 60.3492 49.8336 62.5516 50.7574C64.754 51.6813 67.0287 51.8959 67.8103 50.7574C68.5918 49.6212 66.4594 47.7012 64.1147 46.9196C61.77 46.138 60.2769 45.9957 59.4253 47.0619Z" fill="#F58C8C"/>
<path d="M37.7558 38.0854C37.0014 39.0296 38.6797 40.857 40.8844 41.7809C43.0868 42.7048 45.3615 42.9194 46.1431 41.7809C46.9246 40.6447 44.7923 38.7246 42.4475 37.943C40.1028 37.1615 38.6097 37.0192 37.7558 38.0854Z" fill="#F58C8C"/>
<path d="M51.2052 44.3379C52.0771 44.9026 53.8775 45.1127 55.2599 44.7196" stroke="black" stroke-width="1.72881" stroke-linecap="round" stroke-linejoin="round"/>
<path d="M40.1006 31.8301C39.9944 35.5618 47.0308 38.8665 51.8264 36.9464" stroke="black" stroke-width="1.72881" stroke-linecap="round" stroke-linejoin="round"/>
<path d="M60.356 40.5723C60.7829 43.7708 67.6047 47.3941 72.6149 45.3701" stroke="black" stroke-width="1.72881" stroke-linecap="round" stroke-linejoin="round"/>
<path d="M37.9276 57.0365L38.5421 52.1438C44.6433 47.3188 46.3081 44.6375 46.1884 43.5329C46.2065 43.4426 46.2065 43.3522 46.1839 43.2619C45.7931 41.719 41.3363 40.881 37.3087 41.0459C33.3286 41.2108 29.6918 42.1911 29.6601 43.5939C29.5924 45.2068 30.392 46.5056 35.985 51.0008L36.8637 51.8479L36.3916 57.285C36.3916 57.285 33.7984 57.7481 33.751 58.9295C33.7035 60.1131 35.6394 60.4339 37.2997 60.5423C38.9577 60.6485 41.0856 60.3345 41.0765 59.1079C41.0652 57.782 37.9299 57.0365 37.9299 57.0365H37.9276Z" fill="white"/>
<path d="M29.6579 43.5942C29.5902 45.207 30.3898 46.5059 35.9828 51.0011L36.8615 51.8482L36.3894 57.2853C36.3894 57.2853 33.7962 57.7484 33.7488 58.9298C33.7013 60.1134 35.6372 60.4342 37.2975 60.5426C38.9555 60.6488 41.0834 60.3348 41.0743 59.1082C41.063 57.7822 37.9277 57.0368 37.9277 57.0368L38.5421 52.1441C44.6434 47.3191 46.3082 44.6378 46.1884 43.5332" stroke="black" stroke-width="1.72881" stroke-linecap="round" stroke-linejoin="round"/>
<path d="M32.8747 45.487C32.5291 44.7981 32.0908 43.9736 32.459 43.2168C33.2722 41.5475 35.6644 42.5731 36.848 43.4744C37.3495 43.8538 39.2063 45.2769 41.6866 45.1256C42.6647 45.0669 42.1158 46.0495 41.6324 46.6052C41.0541 47.2693 40.399 47.8792 39.7462 48.471C39.5677 48.6314 38.0091 50.1087 37.8329 49.9867C36.9497 49.3813 36.0891 48.7376 35.2533 48.0667C34.2955 47.2964 33.3942 46.5261 32.8747 45.4893V45.487Z" fill="#FF72BA"/>
<path d="M35.8406 44.7548C35.8225 45.0146 35.5583 45.2066 35.2488 45.1863C34.9393 45.166 34.7021 44.9378 34.7202 44.678C34.7383 44.4183 35.0026 44.2263 35.312 44.2466C35.6215 44.2669 35.8587 44.4951 35.8406 44.7548Z" fill="white"/>
<path d="M39.6105 47.8517C39.4908 48.143 39.1452 48.2786 38.8402 48.1543C38.5353 48.0301 38.3839 47.6913 38.5037 47.3976C38.6234 47.1062 38.969 46.9707 39.2739 47.0949C39.5789 47.2192 39.7302 47.558 39.6105 47.8517Z" fill="white"/>
<path d="M37.2341 48.3577C37.1506 48.5632 36.9066 48.6581 36.692 48.57C36.4774 48.4819 36.3712 48.2447 36.4548 48.0392C36.5384 47.8336 36.7824 47.7388 36.9969 47.8268C37.2115 47.9149 37.3177 48.1521 37.2341 48.3577Z" fill="white"/>
<path d="M29.6578 43.5942C29.6194 45.3155 34.1033 46.0022 38.786 45.8531C43.4664 45.704 46.4707 44.3939 46.1816 43.2599C45.7908 41.7171 41.334 40.879 37.3064 41.0439C33.3263 41.2088 29.6895 42.1892 29.6578 43.592V43.5942Z" stroke="black" stroke-width="1.72881" stroke-linecap="round" stroke-linejoin="round"/>
<path d="M33.4752 51.2519C34.686 49.6978 37.1053 49.7001 38.56 51.1209C40.0147 52.5418 39.6307 55.1801 38.6458 56.3051C37.6632 57.43 35.1807 57.7824 33.6017 56.1515C32.0386 54.5364 32.845 52.0606 33.4752 51.2519Z" fill="white" stroke="black" stroke-width="1.72881" stroke-linecap="round" stroke-linejoin="round"/>
</svg>
