<svg width="102" height="102" viewBox="0 0 102 102" fill="none" xmlns="http://www.w3.org/2000/svg">
<path d="M77.6754 77.6277C77.2994 75.3565 76.7116 74.0577 76.2081 71.847C72.7634 67.2786 41.0786 69.9043 27.6025 72.8843C27.9807 74.4618 28.9164 77.524 29.8348 79.3198C29.8348 79.3198 34.4032 85.2907 55.2052 84.5624C71.6592 83.9854 77.187 79.1469 77.6754 77.6277Z" fill="#FFD677"/>
<path d="M29.8328 79.3195C29.2536 77.9256 28.2207 74.7511 27.6004 73.9645C26.2109 73.5733 22.5912 74.0228 17.5949 74.3556C11.1421 74.7878 7.7018 70.2886 9.08269 65.2318C10.4247 60.322 16.5836 58.6558 22.6474 59.114L75.2033 57.0005C79.2077 56.886 88.7788 57.6942 92.6946 61.2123C97.3494 65.3961 94.2851 73.9256 87.573 73.7073C81.7879 73.5193 80.729 72.8689 76.4459 73.1152C77.0078 74.8289 77.3989 76.6312 77.6734 77.6252" fill="#FFD677"/>
<path d="M29.8328 79.3195C29.2536 77.9256 28.2207 74.7511 27.6004 73.9645C26.2109 73.5733 22.5912 74.0228 17.5949 74.3556C11.1421 74.7878 7.7018 70.2886 9.08269 65.2318C10.4247 60.322 16.5836 58.6558 22.6474 59.114L75.2033 57.0005C79.2077 56.886 88.7788 57.6942 92.6946 61.2123C97.3494 65.3961 94.2851 73.9256 87.573 73.7073C81.7879 73.5193 80.729 72.8689 76.4459 73.1152C77.0078 74.8289 77.3989 76.6312 77.6734 77.6252" stroke="black" stroke-width="1.90169" stroke-linecap="round" stroke-linejoin="round"/>
<path d="M79.8301 46.8654C79.8064 39.2586 77.4012 33.6076 72.0181 27.6172C71.9446 25.2661 71.6982 23.4011 70.2957 22.0699C68.7355 20.5875 65.3448 20.6177 62.367 21.6442C59.6506 20.6177 55.4128 19.7684 51.2356 19.4832C46.7017 19.172 43.1706 19.3535 40.0026 20.004C37.5995 17.7219 34.693 18.2406 33.2105 19.1374C31.8015 19.991 30.546 21.9338 30.1527 23.9997C23.164 28.4103 20.9165 36.2527 20.6658 36.5293C18.3319 39.0922 16.7954 42.5326 16.5556 45.9211C15.676 58.4182 25.2407 68.91 45.8611 69.6144C65.6344 70.2908 79.8798 63.9331 79.828 46.8654H79.8301Z" fill="#FFD677"/>
<path d="M76.4483 58.98C76.4483 58.98 75.6638 58.98 75.0155 58.323C74.2592 57.5559 74.566 56.9357 73.9696 56.0518C73.2954 55.0513 72.1543 54.8006 71.4282 53.746C70.5357 52.4494 71.0674 50.1695 69.8248 48.3759C68.7983 46.8977 67.6897 46.9669 66.5357 45.3397C65.4638 43.8269 66.1943 42.8069 65.3515 41.2769C64.6902 40.0733 63.4887 39.2089 62.1099 38.5605C62.1099 38.5605 60.6275 38.5605 58.7668 40.9204C60.1326 41.8864 60.7182 42.4547 61.2823 43.7059C61.8463 44.9593 61.319 46.2775 62.3909 47.9264C63.48 49.599 64.7982 49.5061 65.7383 51.0404C66.7388 52.6741 65.546 54.1609 66.6157 55.7947C67.4585 57.0805 68.4806 57.3506 69.0554 58.4116C69.8637 59.9027 69.0079 61.2642 69.8529 62.6688C70.3499 63.4944 71.3245 64.1686 71.3245 64.1686" fill="#D0EBF7"/>
<path d="M58.769 40.918C60.1348 41.8839 60.7204 42.4523 61.2844 43.7035C61.8485 44.9569 61.3212 46.2751 62.393 47.924C63.4822 49.5966 64.8004 49.5037 65.7404 51.038C66.741 52.6717 65.5481 54.1585 66.6178 55.7922C67.4606 57.0781 68.4828 57.3482 69.0576 58.4092C69.8658 59.9003 69.0101 61.2618 69.855 62.6664C70.3521 63.4919 71.3267 64.1662 71.3267 64.1662" stroke="black" stroke-width="1.90169" stroke-linecap="round" stroke-linejoin="round"/>
<path d="M62.1121 38.5586C63.4909 39.2091 64.6924 40.0713 65.3536 41.275C66.1964 42.8072 65.466 43.825 66.5379 45.3377C67.6919 46.9671 68.8005 46.8958 69.8269 48.3739C71.0695 50.1676 70.5379 52.4475 71.4304 53.7441C72.1544 54.7986 73.2975 55.0493 73.9718 56.0499C74.5661 56.9337 74.2592 57.5539 75.0177 58.3211C75.666 58.978 76.4505 58.978 76.4505 58.978" stroke="black" stroke-width="1.90169" stroke-linecap="round" stroke-linejoin="round"/>
<path d="M17.7419 53.8999C19.0083 53.1349 17.6166 50.9609 19.5075 48.7999C20.5383 47.6222 21.3854 47.5941 22.1158 46.6519C23.3714 45.0333 22.6561 43.6416 24.6658 41.6405C25.9473 40.3655 26.8917 40.5902 27.8447 39.8166C28.9576 38.909 29.245 37.9062 30.1894 37.178C30.9652 36.5794 31.9312 36.5037 32.7286 36.4648C32.7286 36.4648 33.8761 38.1656 33.5865 39.7539C31.5076 40.5859 31.8015 41.7096 30.7188 42.8852C29.5433 44.1624 28.4087 44.0803 27.4449 45.4244C26.2974 47.0257 27.2396 49.0571 25.6361 50.5633C24.7134 51.4299 23.7993 51.592 22.9305 53.0161C21.7009 55.028 22.9911 57.297 21.8803 58.7341C21.2061 59.6072 20.7241 59.6137 20.7241 59.6137" fill="#D0EBF7"/>
<path d="M33.5864 39.752C31.5075 40.5839 31.8014 41.7077 30.7188 42.8833C29.5432 44.1604 28.4086 44.0783 27.4448 45.4225C26.2973 47.0238 27.2395 49.0551 25.6361 50.5614C24.7133 51.4279 23.7992 51.59 22.9305 53.0141C21.7008 55.026 22.991 57.2951 21.8802 58.7322C21.206 59.6052 20.7241 59.6117 20.7241 59.6117" stroke="black" stroke-width="1.90169" stroke-linecap="round" stroke-linejoin="round"/>
<path d="M32.7286 36.4629C31.9312 36.4996 30.9631 36.5774 30.1894 37.176C29.2472 37.9043 28.9577 38.907 27.8447 39.8146C26.8939 40.5904 25.9474 40.3657 24.6659 41.6385C22.6561 43.6396 23.3714 45.0313 22.1159 46.6499C21.3854 47.5921 20.5362 47.6202 19.5075 48.798C17.6166 50.959 19.0083 53.133 17.742 53.898" stroke="black" stroke-width="1.90169" stroke-linecap="round" stroke-linejoin="round"/>
<path d="M79.8301 46.8654C79.8064 39.2586 77.4012 33.6076 72.0181 27.6172C71.9446 25.2661 71.6982 23.4011 70.2957 22.0699C68.7355 20.5875 65.3448 20.6177 62.367 21.6442C59.6506 20.6177 55.4128 19.7684 51.2356 19.4832C46.7018 19.172 43.1706 19.3535 40.0026 20.004C37.5995 17.7219 34.693 18.2406 33.2105 19.1374C31.8015 19.991 30.546 21.9338 30.1527 23.9997C23.164 28.4103 20.9165 36.2527 20.6658 36.5293C18.3319 39.0922 16.7954 42.5326 16.5556 45.9211C15.676 58.4182 25.2407 68.91 45.8611 69.6144C65.6344 70.2908 79.8798 63.9331 79.828 46.8654H79.8301Z" stroke="black" stroke-width="1.90169" stroke-linecap="round" stroke-linejoin="round"/>
<path d="M53.7186 32.3117L55.6786 30.9805" stroke="black" stroke-width="1.90169" stroke-linecap="round" stroke-linejoin="round"/>
<path d="M39.6742 30.0791L41.4225 31.6826" stroke="black" stroke-width="1.90169" stroke-linecap="round" stroke-linejoin="round"/>
<path d="M45.3599 40.022C40.1345 39.7324 36.8087 42.3408 37.5435 45.5628C38.1378 48.1604 41.3944 48.6812 44.6662 47.1058C47.912 49.5413 52.5107 49.0183 53.455 46.4381C54.4902 43.6114 51.804 40.3807 45.3577 40.022H45.3599Z" fill="white" stroke="black" stroke-width="1.90169" stroke-linecap="round" stroke-linejoin="round"/>
<path d="M48.8044 48.921C48.2447 48.0501 47.1058 46.6951 45.1695 46.4596C43.3435 46.237 42.0987 46.9004 41.1846 48.6141C41.1846 48.6141 39.9139 50.25 43.6439 50.6973C47.3738 51.1447 48.7266 50.626 48.8044 48.921Z" fill="#FFD677"/>
<path d="M41.1846 48.6138C42.0987 46.9001 43.3435 46.2345 45.1695 46.4592C47.1058 46.6948 48.2447 48.0497 48.8044 48.9206" fill="#FFD677"/>
<path d="M41.1846 48.6138C42.0987 46.9001 43.3435 46.2345 45.1695 46.4592C47.1058 46.6948 48.2447 48.0497 48.8044 48.9206" stroke="black" stroke-width="1.90169" stroke-linecap="round" stroke-linejoin="round"/>
<path d="M46.0145 51.0801C46.0296 51.9445 46.1658 52.9018 46.1658 52.9018" stroke="black" stroke-width="1.90169" stroke-linecap="round" stroke-linejoin="round"/>
<path d="M43.0669 51.0947C42.9459 51.8295 42.8875 53.044 42.8875 53.044" stroke="black" stroke-width="1.90169" stroke-linecap="round" stroke-linejoin="round"/>
<path d="M35.7693 41.208C37.1567 41.8174 38.0016 42.4808 38.0016 42.4808" stroke="black" stroke-width="1.90169" stroke-linecap="round" stroke-linejoin="round"/>
<path d="M34.3062 44.8213L37.189 45.0028" stroke="black" stroke-width="1.90169" stroke-linecap="round" stroke-linejoin="round"/>
<path d="M56.5972 46.8724C55.6118 46.5223 53.7122 46.5785 53.5739 46.5785" stroke="black" stroke-width="1.90169" stroke-linecap="round" stroke-linejoin="round"/>
<path d="M56.4069 42.6826C54.8639 43.0176 53.6559 43.9555 53.6559 43.9555" stroke="black" stroke-width="1.90169" stroke-linecap="round" stroke-linejoin="round"/>
<path d="M56.1974 34.8531C54.3627 34.7581 53.4161 35.724 53.4161 36.9645C53.4161 38.2827 54.125 39.1298 56.1887 39.1709C58.2179 39.2098 58.7474 37.8937 58.7258 37.0444C58.6869 35.4582 57.5934 34.9266 56.1974 34.8531Z" fill="black"/>
<path d="M56.2751 36.4355C56.2838 36.9542 55.8797 37.287 55.3934 37.287C54.9072 37.287 54.5161 36.9563 54.5118 36.4355C54.5074 35.919 54.9072 35.5776 55.3934 35.5841C55.992 35.5906 56.2687 35.9644 56.2751 36.4355Z" fill="white"/>
<path d="M57.7556 37.3984C57.7556 37.729 57.5395 37.997 57.1505 37.9949C56.8177 37.9949 56.5303 37.8349 56.5216 37.4071C56.5152 37.0137 56.8155 36.7998 57.1505 36.7998C57.4855 36.7998 57.7556 37.0678 57.7556 37.3962V37.3984Z" fill="white"/>
<path d="M37.8611 33.6314C36.0242 33.586 35.1058 34.5779 35.1404 35.8183C35.1771 37.1365 35.9075 37.9642 37.9735 37.9469C40.0048 37.9296 40.4954 36.5985 40.45 35.7513C40.3679 34.1673 39.2593 33.666 37.8611 33.6314Z" fill="black"/>
<path d="M37.9972 35.2234C38.021 35.7421 37.6255 36.0857 37.1393 36.0986C36.6531 36.1116 36.2533 35.7939 36.2338 35.271C36.2144 34.7545 36.6055 34.4022 37.0917 34.3957C37.6903 34.3849 37.9756 34.7523 37.9972 35.2234Z" fill="white"/>
<path d="M39.376 36.2466C39.3847 36.5772 39.1751 36.8495 38.7882 36.8603C38.4554 36.8689 38.1637 36.7177 38.1442 36.2898C38.127 35.8965 38.423 35.6739 38.7558 35.6652C39.0886 35.6566 39.3674 35.9159 39.376 36.2466Z" fill="white"/>
</svg>
