<svg width="102" height="102" viewBox="0 0 102 102" fill="none" xmlns="http://www.w3.org/2000/svg">
<path d="M64.6285 86.6789C50.586 86.178 53.8032 91.6768 37.4993 91.6768C26.7274 91.6768 28.0905 87.8216 23.1368 86.1791C16.3296 83.922 14.0022 83.5723 14.695 80.3902C15.5526 76.4507 19.2644 77.7598 23.1368 75.9867C26.927 74.2513 25.9471 75.1793 28.3233 74.6839C43.9671 75.8525 72.7399 70.778 78.3569 75.9867C85.3781 82.4976 78.671 87.1797 64.6285 86.6789Z" fill="#C2E0F6" stroke="black" stroke-width="1.72881"/>
<path d="M62.94 80.3556C65.9881 79.7396 89.2404 72.0948 95.4842 68.3473C97.7494 66.9869 97.5248 64.2661 95.9398 63.1367C94.8425 62.3538 91.8586 62.0073 90.5046 61.0961C90.2992 60.9613 86.6544 52.2598 74.6481 52.4908" fill="white"/>
<path d="M71.7027 77.4081C74.7508 76.7921 89.2405 72.0948 95.4842 68.3473C97.7494 66.9869 97.5248 64.2661 95.9398 63.1367C94.8425 62.3538 91.8586 62.0073 90.5046 61.0961C90.2993 60.9613 86.6544 52.2598 74.6482 52.4908" stroke="black" stroke-width="1.72881" stroke-linecap="round" stroke-linejoin="round"/>
<path d="M27.0788 71.0674C23.004 73.5572 24.2361 77.7732 26.3986 79.1464C29.7226 81.2576 37.1792 82.0854 41.1129 81.6555C44.5075 81.2833 46.3299 78.5432 45.8807 76.7272C45.1363 73.7369 43.3909 73.7818 37.7247 73.5572C33.2392 73.3775 29.8125 71.9658 27.0788 71.0674Z" fill="white"/>
<path d="M27.0788 71.0674C23.004 73.5572 24.2361 77.7732 26.3986 79.1464C29.7226 81.2576 37.1792 82.0854 41.1129 81.6555C44.5075 81.2833 46.3299 78.5432 45.8807 76.7272C45.1363 73.7369 43.3909 73.7818 37.7247 73.5572C33.2392 73.3775 29.8125 71.9658 27.0788 71.0674Z" stroke="black" stroke-width="1.72881" stroke-linecap="round" stroke-linejoin="round"/>
<path d="M68.9885 70.8369C63.8998 73.224 57.8871 73.7823 51.0914 73.5577C48.4925 73.4679 45.6562 74.2379 45.8808 77.1833C46.0797 79.7566 47.9214 81.0336 51.0979 81.6753C58.548 83.1768 66.1201 81.0015 71.7029 77.4144" fill="white"/>
<path d="M68.9885 70.8369C63.8998 73.224 57.8871 73.7823 51.0914 73.5577C48.4925 73.4679 45.6562 74.2379 45.8808 77.1833C46.0797 79.7566 47.9214 81.0336 51.0979 81.6753C58.548 83.1768 66.1201 81.0015 71.7029 77.4144" stroke="black" stroke-width="1.72881" stroke-linecap="round" stroke-linejoin="round"/>
<path d="M35.7838 71.3418H59.9357" stroke="black" stroke-width="1.72881" stroke-linecap="round" stroke-linejoin="round"/>
<path d="M69.5299 28.9961C62.6673 22.748 52.9661 17.1659 48.7359 15.7308C47.1659 15.1995 46.0717 15.5127 44.9894 16.7457C40.6165 21.7331 35.7005 23.6837 28.7229 28.6433C21.3925 33.8487 15.0849 40.192 15.073 51.2531C15.0651 58.3099 18.4548 65.4382 24.5324 69.2243C32.398 74.1245 42.912 74.2196 51.9075 74.0373C60.1657 73.8708 69.3911 72.5109 75.4331 66.3143C79.1479 62.5044 80.7139 57.2712 80.9081 52.0499C81.2253 43.542 77.6889 36.4336 69.5299 29.0001V28.9961Z" fill="#FFCDCD"/>
<path d="M59.0768 60.5066C59.0768 58.1675 61.4635 56.2725 64.8888 56.2725C69.4916 56.2725 71.3708 58.1675 71.3708 60.5066C71.3708 62.8457 69.2221 64.3562 65.2218 64.3363C61.4912 64.3205 59.0728 62.8457 59.0728 60.5066" fill="#F58C8C"/>
<path d="M23.8839 60.4705C23.8839 58.1314 26.2705 56.2363 29.6959 56.2363C34.2987 56.2363 36.1779 58.1314 36.1779 60.4705C36.1779 62.8095 34.0291 64.32 30.0289 64.3002C26.2983 64.2843 23.8799 62.8095 23.8799 60.4705" fill="#F58C8C"/>
<path d="M51.0167 61.033C51.0167 61.033 50.1326 56.5373 46.3861 56.7474C42.4454 56.9575 42.2511 61.5048 42.2511 61.5048" stroke="black" stroke-width="1.72881" stroke-linecap="round" stroke-linejoin="round"/>
<path d="M48.8997 63.8883C48.8997 63.8883 48.2177 62.7307 47.8808 61.5215" stroke="black" stroke-width="1.72881" stroke-linecap="round" stroke-linejoin="round"/>
<path d="M45.5578 61.8066C45.5578 61.8066 45.4746 63.3171 45.2407 63.8722" stroke="black" stroke-width="1.72881" stroke-linecap="round" stroke-linejoin="round"/>
<path d="M58.6098 73.4749C57.737 72.1678 56.6042 70.6496 57.6981 68.0161C59.1411 64.5472 56.4723 63.3987 57.3102 59.6089C57.4498 58.9863 57.2636 57.946 55.6266 57.2306C53.7996 56.4301 52.3915 56.9521 50.7661 54.6396C49.1408 52.3309 51.1773 49.5968 51.1269 47.6787C51.0764 45.7606 50.2657 44.9911 51.3519 42.8293C52.632 40.2809 55.2581 41.4604 56.9378 40.6753C58.6135 39.8903 58.6135 37.8368 61.872 38.0495C65.1265 38.2622 65.2895 41.2554 66.6666 42.5857C67.6712 43.5486 70.0996 44.1751 70.6969 46.5573C71.4378 49.5079 69.7078 49.9565 69.7078 51.8552C69.7078 53.2822 69.731 55.0572 68.963 56.0318C67.6674 57.6714 65.4951 56.2715 64.2576 57.6212C63.2801 58.6885 62.8146 60.2431 63.6525 61.9369C64.3236 63.2904 65.2701 64.5704 63.7999 68.0315C62.9504 70.027 64.8008 71.0184 65.1305 72.0819" fill="white"/>
<path d="M58.7028 72.6105C57.83 71.3112 56.6042 70.454 57.6981 67.8363C59.1411 64.3882 56.4723 63.2466 57.3102 59.4795C57.4498 58.8606 57.2636 57.8266 55.6266 57.1155C53.7996 56.3198 52.3915 56.8387 50.7661 54.54C49.1408 52.2452 51.1773 49.5275 51.1269 47.6209C51.0764 45.7143 50.2657 44.9493 51.3519 42.8006C52.632 40.2674 55.2581 41.4398 56.9378 40.6595C58.6135 39.8792 58.6135 37.838 61.872 38.0494C65.1265 38.2609 65.2895 41.2361 66.6666 42.5584C67.6712 43.5155 70.0996 44.1383 70.6969 46.5061C71.4378 49.4391 69.7078 49.885 69.7078 51.7724C69.7078 53.1908 69.731 54.9552 68.963 55.9238C67.6674 57.5537 65.4951 56.1622 64.2576 57.5037C63.2801 58.5646 62.8146 60.1099 63.6525 61.7936C64.3236 63.1389 65.2701 64.4113 63.7999 67.8516C62.9504 69.8351 64.3042 70.4463 64.6339 71.5034" stroke="black" stroke-width="1.72881" stroke-linecap="round" stroke-linejoin="round"/>
<path d="M30.8768 71.6839C31.9671 68.5123 30.0007 66.5088 30.3972 63.2381C30.7143 60.6294 32.4786 58.3776 30.4606 56.2843C29.4536 55.2376 27.8361 56.1376 26.3771 54.084C24.8389 51.9233 25.8181 50.0282 25.7745 48.2283C25.7269 46.4284 24.9658 45.7783 26.1432 43.8396C27.4079 41.7622 29.192 42.0952 30.7659 41.3538C32.3358 40.6164 32.2288 38.2258 35.8801 38.317C38.4571 38.3844 38.1558 39.8988 39.8685 41.5124C40.8199 42.4084 42.7784 42.3251 43.6348 44.4422C44.7052 47.0905 43.2978 47.8993 43.2978 49.6833C43.2978 51.0233 44.3286 52.3158 42.7864 54.1831C41.3393 55.9354 39.1192 54.9641 38.1241 56.2843C36.9506 57.8384 38.9526 59.218 37.3391 62.5443C35.7533 65.815 38.4373 65.4344 37.6325 70.6756C37.5413 71.2702 37.24 72.3605 37.24 72.8561" fill="white"/>
<path d="M30.8927 71.2702C31.983 68.0986 30.0007 66.5088 30.3972 63.2381C30.7143 60.6294 32.4786 58.3776 30.4606 56.2843C29.4536 55.2376 27.8361 56.1376 26.3771 54.084C24.8389 51.9233 25.8181 50.0282 25.7745 48.2283C25.7269 46.4284 24.9658 45.7783 26.1432 43.8396C27.4079 41.7622 29.192 42.0952 30.7659 41.3538C32.3358 40.6164 32.2288 38.2258 35.8801 38.317C38.4571 38.3844 38.1558 39.8988 39.8685 41.5124C40.8199 42.4084 42.7784 42.3251 43.6348 44.4422C44.7052 47.0905 43.2978 47.8993 43.2978 49.6833C43.2978 51.0233 44.3286 52.3158 42.7864 54.1831C41.3393 55.9354 39.1192 54.9641 38.1241 56.2843C36.9506 57.8384 38.9526 59.218 37.3391 62.5443C35.7533 65.815 38.4373 65.4344 37.6325 70.6756C37.5413 71.2702 37.24 72.3605 37.24 72.8561" stroke="black" stroke-width="1.72881" stroke-linecap="round" stroke-linejoin="round"/>
<path d="M56.7416 49.6787C56.242 48.636 56.694 47.9382 56.6623 47.0819C56.6306 46.2256 56.9517 45.6071 57.3125 45.2304C57.8239 44.6992 58.6683 44.3543 59.3542 44.0332C60.0361 43.712 60.714 43.3949 61.6338 43.4107C62.9659 43.4345 64.4209 45.5119 64.6627 46.4872C64.964 47.6924 64.6548 47.9858 64.6548 48.7629C64.6548 49.3456 64.2385 49.7342 63.9729 50.1663C63.3743 51.1455 62.2721 50.9116 60.7656 51.427C59.5247 51.8512 57.2411 50.7213 56.7416 49.6826" fill="black"/>
<path d="M64.558 49.6787C65.0575 48.636 64.6056 47.9382 64.6373 47.0819C64.669 46.2256 64.3479 45.6071 63.9871 45.2304C63.4757 44.6992 62.6312 44.3543 61.9454 44.0332C61.2635 43.712 60.5855 43.3949 59.6657 43.4107C58.3337 43.4345 56.8787 45.5119 56.6368 46.4872C56.3355 47.6924 56.6448 47.9858 56.6448 48.7629C56.6448 49.3456 57.061 49.7342 57.3267 50.1663C57.9253 51.1455 59.0275 50.9116 60.534 51.427C61.7749 51.8512 64.0585 50.7213 64.558 49.6826V49.6787Z" stroke="black" stroke-width="1.90169" stroke-linecap="round" stroke-linejoin="round"/>
<path d="M62.3971 50.0082C61.6914 50.0082 61.2712 49.588 61.2712 49.1003C61.2712 48.5255 61.8381 47.7881 62.3931 47.7881C63.1385 47.7881 63.4715 48.5176 63.4715 49.0131C63.4715 49.3382 63.1622 49.4373 62.9006 49.6514C62.8054 49.7267 62.7182 50.0082 62.3971 50.0082Z" fill="white"/>
<path d="M59.6579 44.9131C59.3844 44.9131 59.1108 45.044 58.8492 45.1669C58.4527 45.3492 58.0285 45.6069 57.8144 45.9677C57.525 46.4514 57.5171 47.05 57.7351 47.5218C58.0127 48.1244 58.6153 48.4654 59.3011 48.4654C59.5866 48.4654 59.7848 48.2037 60.0544 48.0768C60.9147 47.6764 61.4697 46.9668 61.0217 46.0034C60.7403 45.3929 60.3359 44.9092 59.6619 44.9092" fill="white"/>
<path d="M34.1042 52.0931C32.7523 51.3398 31.8642 51.435 31.3528 50.5747C30.8136 49.6589 31.222 49.1078 31.3726 48.4814C31.6105 47.4823 31.4361 46.5467 31.666 46.1542C32.3836 44.9371 34.3936 44.8578 35.1588 44.8737C36.2649 44.8935 36.7129 45.2701 37.1807 45.7498C37.5216 46.0948 37.9736 46.5824 38.1758 47.4387C38.4255 48.5012 38.2432 48.8065 38.0806 49.6747C37.9855 50.1782 37.5058 50.7927 37.2837 51.1733C36.7882 52.0336 34.7266 52.442 34.1082 52.0971" fill="black"/>
<path d="M35.2768 52.0941C36.6287 51.3408 37.5168 51.436 38.0282 50.5757C38.5674 49.6598 38.159 49.1088 38.0084 48.4824C37.7705 47.4833 37.9449 46.5477 37.715 46.1552C36.9974 44.9381 34.9874 44.8588 34.2222 44.8747C33.1161 44.8945 32.6681 45.2711 32.2003 45.7508C31.8594 46.0957 31.4074 46.5834 31.2052 47.4397C30.9555 48.5022 31.1378 48.8075 31.3004 49.6757C31.3955 50.1792 31.8752 50.7937 32.0972 51.1743C32.5928 52.0346 34.6544 52.443 35.2728 52.098L35.2768 52.0941Z" stroke="black" stroke-width="1.90169" stroke-linecap="round" stroke-linejoin="round"/>
<path d="M35.3008 46.5039C35.1224 46.0401 34.5634 45.8379 33.9568 45.8379C33.6396 45.8379 33.2987 46.0401 32.9736 46.2621C32.1093 46.8528 31.7129 47.5981 32.1847 48.3038C32.4305 48.6725 32.8309 49.1443 33.2789 49.1443C33.6951 49.1443 34.0599 48.7003 34.3652 48.5338C35.5545 47.8717 35.4435 46.8885 35.3008 46.5079" fill="white"/>
<path d="M36.2246 51.0117C35.6101 51.0117 34.9718 50.2703 34.9718 49.6519C34.9718 49.0334 35.618 48.4229 36.2444 48.4229C36.8708 48.4229 37.3862 49.0334 37.3862 49.6519C37.3862 50.2703 36.851 51.0117 36.2246 51.0117Z" fill="white"/>
<path d="M69.5299 28.9961C62.6673 22.748 52.9661 17.1659 48.7359 15.7308C47.1659 15.1995 46.0717 15.5127 44.9894 16.7457C40.6165 21.7331 35.7005 23.6837 28.7229 28.6433C21.3925 33.8487 15.0849 40.192 15.073 51.2531C15.0651 58.3099 18.4548 65.4382 24.5324 69.2243C32.398 74.1245 42.912 74.2196 51.9075 74.0373C60.1657 73.8708 69.3911 72.5109 75.4331 66.3143C79.1479 62.5044 80.7139 57.2712 80.9081 52.0499C81.2253 43.542 77.6889 36.4336 69.5299 29.0001V28.9961Z" stroke="black" stroke-width="1.72881" stroke-linecap="round" stroke-linejoin="round"/>
</svg>
