<svg width="102" height="102" viewBox="0 0 102 102" fill="none" xmlns="http://www.w3.org/2000/svg">
<path d="M52.8665 72.5983C53.4143 76.9322 57.4325 79.2773 64.6053 79.6146C71.9077 79.9573 80.67 79.1289 85.1146 77.3883C91.4347 74.9137 92.6032 66.8961 88.5553 61.3991C90.6629 50.6235 89.945 38.9899 84.5641 33.5711C80.3219 29.2965 73.7319 27.7637 66.1786 29.0617C56.4637 30.7322 51.4497 36.1671 49.8198 47.6686L52.8665 72.5983Z" fill="white" stroke="black" stroke-width="1.61916" stroke-linecap="round" stroke-linejoin="round"/>
<path d="M90.8653 53.5374C90.5658 50.4395 90.42 46.6911 89.8938 43.4582C89.2839 39.7152 88.0237 36.2097 85.4951 33.0389C81.7414 28.3298 73.5755 26.0792 66.4242 26.8321C56.6229 27.8657 50.2435 34.2209 48.6135 45.7223L51.0504 61.1313L51.8464 62.146C55.5975 68.7818 65.4743 75.4636 67.7924 71.8582C69.2307 69.6211 65.1856 66.7849 63.5556 65.1091C57.4325 58.8186 54.6827 54.6331 54.9525 48.3453C55.3141 39.9878 58.0451 32.626 66.5349 31.7705C70.9983 31.3199 73.3542 33.5543 73.6078 33.5813C73.7671 33.5975 75.6399 31.5708 78.6218 31.6167C86.9443 31.7516 89.0789 45.8572 87.8483 55.5587C87.3599 59.4231 84.6559 64.313 83.2877 66.8955C82.1651 69.022 81.7738 70.5063 82.6643 71.2295C83.5441 71.9446 85.0607 71.1971 86.0537 70.2337C87.6081 68.7306 89.7265 65.8889 90.3391 63.6383C91.065 60.9667 91.316 58.2249 90.8626 53.5348L90.8653 53.5374Z" fill="#5D6E85" stroke="black" stroke-width="1.61916" stroke-linecap="round" stroke-linejoin="round"/>
<path d="M82.4916 74.8916C83.7384 73.205 86.3695 74.808 88.3233 75.3072C90.7844 75.936 92.4683 76.2571 92.3793 77.7197C92.2551 79.714 89.0951 80.0055 85.7461 78.9044C82.5402 77.852 81.4257 76.33 82.4916 74.8889V74.8916Z" fill="#FFDD70" stroke="black" stroke-width="1.61916" stroke-linecap="round" stroke-linejoin="round"/>
<path d="M70.294 77.69C69.5762 77.1989 68.7477 76.5485 67.6467 76.3083C66.8371 76.1302 65.9358 76.3029 65.5553 76.8103C64.2276 78.5751 66.7804 80.0378 68.6371 81.1307C70.7393 82.3694 73.3434 83.3004 74.1206 81.8243C75.2324 79.7086 72.5068 79.1985 70.2967 77.69H70.294Z" fill="#FFDD70" stroke="black" stroke-width="1.61916" stroke-linecap="round" stroke-linejoin="round"/>
<path d="M70.1724 47.7359C70.275 43.8391 71.5379 41.7073 74.9975 41.6344C78.3869 41.5615 79.8684 44.0173 80.1896 47.1341C80.6456 51.5625 80.1599 54.1829 75.7693 54.1991C71.3949 54.2153 70.0375 52.8444 70.1697 47.7332L70.1724 47.7359Z" fill="#FFDD70" stroke="black" stroke-width="1.61916" stroke-linecap="round" stroke-linejoin="round"/>
<path d="M76.943 44.8817C76.3844 44.798 75.7206 45.3512 75.367 45.3755C74.9919 45.4025 74.1986 44.8924 73.5698 44.9248C72.2502 44.9923 72.1962 47.2483 72.1692 48.5005C72.1449 49.6825 72.4013 51.6066 73.5995 51.7685C74.4765 51.8872 75.3131 51.3205 75.5559 51.3178C75.7745 51.3178 76.8405 51.6605 77.3775 51.5472C78.3031 51.3529 78.2194 49.3343 78.1898 48.5194C78.1331 46.9596 78.1574 45.0625 76.943 44.879V44.8817Z" fill="white" stroke="black" stroke-width="1.61916" stroke-linecap="round" stroke-linejoin="round"/>
<path d="M70.7661 39.5645C70.7661 39.5645 69.8728 40.2931 69.6003 40.6142L70.7661 39.5645Z" fill="white"/>
<path d="M70.7661 39.5645C70.7661 39.5645 69.8728 40.2931 69.6003 40.6142" stroke="black" stroke-width="1.61916" stroke-linecap="round" stroke-linejoin="round"/>
<path d="M77.5395 39.3271C77.5395 39.3271 78.3545 39.7481 78.8861 40.1529L77.5395 39.3271Z" fill="white"/>
<path d="M77.5395 39.3271C77.5395 39.3271 78.3545 39.7481 78.8861 40.1529" stroke="black" stroke-width="1.61916" stroke-linecap="round" stroke-linejoin="round"/>
<path d="M68.2052 44.0415C68.216 44.7998 67.8571 45.4583 66.972 45.3531C66.4943 45.2964 65.8413 44.8187 66.381 43.6826" fill="white"/>
<path d="M68.2052 44.0415C68.216 44.7998 67.8571 45.4583 66.972 45.3531C66.4943 45.2964 65.8413 44.8187 66.381 43.6826" stroke="black" stroke-width="1.61916" stroke-linecap="round" stroke-linejoin="round"/>
<path d="M64.8102 49.8857C64.5916 50.8518 65.0369 51.4078 65.5307 51.4644C66.2 51.54 66.7829 51.1433 66.7748 50.0854" fill="white"/>
<path d="M64.8102 49.8857C64.5916 50.8518 65.0369 51.4078 65.5307 51.4644C66.2 51.54 66.7829 51.1433 66.7748 50.0854" stroke="black" stroke-width="1.61916" stroke-linecap="round" stroke-linejoin="round"/>
<path d="M81.2286 43.5338C81.2367 44.6753 81.9329 44.8939 82.3593 44.8534C83.0177 44.794 83.3254 44.2462 83.1553 43.415" fill="white"/>
<path d="M81.2286 43.5338C81.2367 44.6753 81.9329 44.8939 82.3593 44.8534C83.0177 44.794 83.3254 44.2462 83.1553 43.415" stroke="black" stroke-width="1.61916" stroke-linecap="round" stroke-linejoin="round"/>
<path d="M82.2538 50.0891C82.2079 50.6801 82.5938 51.1847 83.1066 51.1982C83.9809 51.2252 84.2616 50.4831 84.0106 49.5898" fill="white"/>
<path d="M82.2538 50.0891C82.2079 50.6801 82.5938 51.1847 83.1066 51.1982C83.9809 51.2252 84.2616 50.4831 84.0106 49.5898" stroke="black" stroke-width="1.61916" stroke-linecap="round" stroke-linejoin="round"/>
<path d="M61.475 34.0597C61.9122 33.9545 64.2573 33.9194 64.5784 35.7598C64.8752 37.468 63.1023 39.9966 60.8813 40.8224C58.2583 41.7993 56.4395 39.9211 58.8898 35.3334C58.7926 34.8612 57.5486 31.4448 59.0706 30.5218C59.7156 30.1305 60.4334 30.368 60.8004 30.9374C61.2349 31.6148 61.3536 33.5848 61.475 34.057V34.0597Z" fill="#C4D6FF" stroke="black" stroke-width="1.61916" stroke-linecap="round" stroke-linejoin="round"/>
<path d="M63.6364 38.6745C62.9267 38.24 62.5219 37.6976 62.163 36.9258L63.6364 38.6745Z" fill="#FFDD70"/>
<path d="M63.6364 38.6745C62.9267 38.24 62.5219 37.6976 62.163 36.9258" stroke="black" stroke-width="1.61916" stroke-linecap="round" stroke-linejoin="round"/>
<path d="M60.3146 37.9102C60.293 39.0166 60.3146 39.8963 60.5439 40.9326L60.3146 37.9102Z" fill="#FFDD70"/>
<path d="M60.3146 37.9102C60.293 39.0166 60.3146 39.8963 60.5439 40.9326" stroke="black" stroke-width="1.61916" stroke-linecap="round" stroke-linejoin="round"/>
<path d="M76.749 21.8633C77.0647 21.2102 77.7664 20.182 78.7406 20.5706C79.4881 20.8675 79.4476 21.7122 79.1562 22.689C78.2602 22.6135 77.4533 22.3463 76.749 21.8633Z" fill="white"/>
<path d="M76.749 21.8633C77.0647 21.2102 77.7664 20.182 78.7406 20.5706C79.4881 20.8675 79.4476 21.7122 79.1562 22.689" stroke="black" stroke-width="1.61916" stroke-linecap="round" stroke-linejoin="round"/>
<path d="M83.5063 24.1356C84.046 23.3396 84.7206 23.2019 85.1659 23.4718C85.7137 23.8037 85.7893 24.4514 85.2846 25.4499C84.467 25.18 83.8814 24.7374 83.509 24.1329L83.5063 24.1356Z" fill="white"/>
<path d="M83.5063 24.1356C84.046 23.3396 84.7206 23.2019 85.1659 23.4718C85.7137 23.8037 85.7893 24.4487 85.2846 25.4499" stroke="black" stroke-width="1.61916" stroke-linecap="round" stroke-linejoin="round"/>
<path d="M83.2607 17.3436C83.8112 16.7202 84.4049 16.6635 84.923 16.9577C85.3548 17.2032 85.4924 17.7996 85.1902 18.3906C84.2807 18.3528 83.6924 17.94 83.258 17.3436H83.2607Z" fill="white"/>
<path d="M83.2607 17.3436C83.8112 16.7202 84.4049 16.6635 84.923 16.9577C85.3548 17.2032 85.4924 17.7996 85.1902 18.3906" stroke="black" stroke-width="1.61916" stroke-linecap="round" stroke-linejoin="round"/>
<path d="M47.6149 31.8271C58.3742 39.1592 55.8861 56.2522 56.2612 62.7828C57.0654 76.7831 55.654 80.437 48.8401 82.3018C42.8142 83.9533 18.3002 85.6642 13.7126 79.6383C9.02245 73.4747 13.0164 67.5296 12.196 61.3202C9.28421 39.3374 19.4147 33.3761 19.0558 33.2763" fill="white"/>
<path d="M47.6149 31.8271C58.3742 39.1592 55.8861 56.2522 56.2612 62.7828C57.0654 76.7831 55.654 80.437 48.8401 82.3018C42.8142 83.9533 18.3002 85.6642 13.7126 79.6383C9.02245 73.4747 13.0164 67.5296 12.196 61.3202C9.28421 39.3374 19.4147 33.3761 19.0558 33.2763" stroke="black" stroke-width="1.61916" stroke-linecap="round" stroke-linejoin="round"/>
<path d="M19.469 70.5414C19.2666 74.9725 18.0792 78.7047 14.7599 80.6477L14.8004 80.6774C14.3686 80.3589 14.0016 80.0135 13.7156 79.6357C9.02545 73.4721 13.0194 67.5271 12.199 61.3176C9.28721 39.3348 19.4177 33.3736 19.0588 33.2737C17.2399 32.7745 14.7249 30.478 14.849 30.2594C15.0217 29.9572 18.2438 29.6711 25.5786 29.6954C25.781 29.6954 37.6898 25.267 47.6179 31.8246C58.4852 39.0002 55.8891 56.2496 56.2642 62.7803C56.3533 64.3508 56.418 65.7919 56.4477 67.1142C53.8706 72.4601 50.0925 77.8034 48.047 75.5473C46.9487 74.3357 48.4167 71.521 50.0817 68.2557C51.6631 65.1577 53.4145 61.6118 53.6979 60.0978C55.4681 50.6015 53.7329 36.0398 46.0393 33.9376C41.6028 32.7259 38.5129 35.7322 38.3645 35.7376C38.2161 35.743 32.6651 31.6438 25.6811 36.0965C20.713 39.2646 18.5488 44.9533 18.4543 53.0977" fill="#5D6E85"/>
<path d="M19.469 70.5414C19.2666 74.9725 18.0792 78.7047 14.7599 80.6477L14.8004 80.6774C14.3686 80.3589 14.0016 80.0135 13.7156 79.6357C9.02545 73.4721 13.0194 67.5271 12.199 61.3176C9.28721 39.3348 19.4177 33.3736 19.0588 33.2737C17.2399 32.7745 14.7249 30.478 14.849 30.2594C15.0217 29.9572 18.2438 29.6711 25.5786 29.6954C25.781 29.6954 37.6898 25.267 47.6179 31.8246C58.4852 39.0002 55.8891 56.2496 56.2642 62.7802C56.3533 64.3508 56.418 65.7919 56.4477 67.1142C53.8706 72.4601 50.0925 77.8034 48.047 75.5473C46.9487 74.3357 48.4167 71.521 50.0818 68.2557C51.6631 65.1577 53.4145 61.6118 53.6979 60.0978C55.4681 50.6015 53.7329 36.0398 46.0393 33.9376C41.6028 32.7259 38.5129 35.7322 38.3645 35.7376C38.2161 35.743 32.6651 31.6438 25.6811 36.0965C20.713 39.2646 18.5488 44.9533 18.4543 53.0977" stroke="black" stroke-width="1.61916" stroke-linecap="round" stroke-linejoin="round"/>
<path d="M18.4539 53.1006C18.5267 58.9026 20.6343 60.7322 23.1386 64.011C27.7478 70.0478 34.7561 73.4831 32.1573 76.7106C30.0605 79.3175 22.0889 75.2426 16.4758 68.9306" fill="#5D6E85"/>
<path d="M18.4539 53.1006C18.5267 58.9026 20.6343 60.7322 23.1386 64.011C27.7478 70.0478 34.7561 73.4831 32.1573 76.7106C30.0605 79.3175 22.0889 75.2426 16.4758 68.9306" stroke="black" stroke-width="1.61916" stroke-linecap="round" stroke-linejoin="round"/>
<path d="M47.5044 79.5592C48.7916 77.9023 51.2068 79.9586 53.1093 80.6332C55.5381 81.4941 57.2436 82.3253 56.8712 83.742C56.3045 85.8874 53.4197 84.7486 50.1841 83.5423C47.8417 82.6707 46.4088 80.9679 47.5044 79.5592Z" fill="#FFDD70" stroke="black" stroke-width="1.61916" stroke-linecap="round" stroke-linejoin="round"/>
<path d="M34.3919 82.6332C33.7875 82.0072 32.9158 81.1355 31.885 80.6767C31.1266 80.3394 30.1794 80.2585 29.7045 80.6767C28.0476 82.1367 30.201 84.498 31.8364 85.9039C33.6876 87.4961 36.3241 88.8454 37.2983 87.4556C38.6098 85.5882 36.2513 84.5546 34.3919 82.6305V82.6332Z" fill="#FFDD70" stroke="black" stroke-width="1.61916" stroke-linecap="round" stroke-linejoin="round"/>
<path d="M34.6859 50.5691C34.8479 46.7749 36.8907 44.5297 39.9779 44.3867C43.3619 44.2274 45.035 46.899 45.3562 50.0186C45.8122 54.447 46.1792 57.3831 40.6417 57.5207C35.312 57.653 34.4889 55.1892 34.6832 50.5691H34.6859Z" fill="#FFDD70" stroke="black" stroke-width="1.61916" stroke-linecap="round" stroke-linejoin="round"/>
<path d="M42.215 47.7784C41.6268 47.6732 40.8981 48.1293 40.523 48.1562C40.1263 48.1859 39.2601 47.7973 38.5962 47.8297C37.2038 47.8999 37.0607 50.1721 37.0338 51.4917C37.0068 52.7385 37.0122 54.7192 38.2562 55.0053C39.2817 55.2428 39.9455 54.56 40.4637 54.5843C41.087 54.6113 41.5215 55.1186 42.5524 54.9459C43.737 54.7489 43.5859 52.3013 43.5562 51.4404C43.4969 49.7916 43.1191 47.9377 42.215 47.7784Z" fill="white" stroke="black" stroke-width="1.61916" stroke-linecap="round" stroke-linejoin="round"/>
<path d="M35.5901 42.0967C35.5901 42.0967 34.5484 42.9386 34.0978 43.3947L35.5901 42.0967Z" fill="white"/>
<path d="M35.5901 42.0967C35.5901 42.0967 34.5484 42.9386 34.0978 43.3947" stroke="black" stroke-width="1.61916" stroke-linecap="round" stroke-linejoin="round"/>
<path d="M42.6118 41.8789C42.6118 41.8789 43.5212 42.3728 44.0529 42.7775L42.6118 41.8789Z" fill="white"/>
<path d="M42.6118 41.8789C42.6118 41.8789 43.5212 42.3728 44.0529 42.7775" stroke="black" stroke-width="1.61916" stroke-linecap="round" stroke-linejoin="round"/>
<path d="M32.6784 47.1713C32.5812 47.9701 32.2871 48.6582 31.3992 48.5341C30.9216 48.4666 30.228 47.9323 30.6328 46.6855" fill="white"/>
<path d="M32.6784 47.1713C32.5812 47.9701 32.2871 48.6582 31.3992 48.5341C30.9216 48.4666 30.228 47.9323 30.6328 46.6855" stroke="black" stroke-width="1.61916" stroke-linecap="round" stroke-linejoin="round"/>
<path d="M29.3618 53.1924C29.1378 54.1585 29.5858 54.7306 30.0824 54.7873C30.7516 54.8628 31.2778 54.4283 31.3507 53.4541" fill="white"/>
<path d="M29.3618 53.1924C29.1378 54.1585 29.5858 54.7306 30.0824 54.7873C30.7516 54.8628 31.2778 54.4283 31.3507 53.4541" stroke="black" stroke-width="1.61916" stroke-linecap="round" stroke-linejoin="round"/>
<path d="M46.6193 46.5509C46.6193 47.5197 47.1051 47.8975 47.607 47.8975C48.2681 47.8975 48.7512 47.455 48.5488 46.2676" fill="white"/>
<path d="M46.6193 46.5509C46.6193 47.5197 47.1051 47.8975 47.607 47.8975C48.2681 47.8975 48.7512 47.455 48.5488 46.2676" stroke="black" stroke-width="1.61916" stroke-linecap="round" stroke-linejoin="round"/>
<path d="M47.6852 53.4136C47.6393 54.0046 48.0441 54.6468 48.6864 54.6468C49.6066 54.6468 49.8926 53.9101 49.7118 53.0088" fill="white"/>
<path d="M47.6852 53.4136C47.6393 54.0046 48.0441 54.6468 48.6864 54.6468C49.6066 54.6468 49.8926 53.9101 49.7118 53.0088" stroke="black" stroke-width="1.61916" stroke-linecap="round" stroke-linejoin="round"/>
<path d="M32.252 22.6361C32.252 21.7861 33.0454 21.1816 33.909 21.384C34.5944 21.5432 34.8346 22.2961 34.8292 22.7873C33.9548 23.3405 33.0967 23.2514 32.252 22.6361Z" fill="white"/>
<path d="M32.2519 22.6362C32.4408 21.6863 33.0453 21.1817 33.9089 21.3841C34.5943 21.5433 34.8291 22.3421 34.8291 22.7874" stroke="black" stroke-width="1.61916" stroke-linecap="round" stroke-linejoin="round"/>
<path d="M39.4464 22.9217C39.8458 22.2282 40.6041 21.9799 41.098 22.2687C41.5459 22.5304 41.689 22.9865 41.4731 23.7286C40.3964 24.0282 39.7757 23.6881 39.4464 22.9244V22.9217Z" fill="white"/>
<path d="M39.4464 22.9221C39.8458 22.2286 40.5124 21.9479 41.098 22.2691C41.5513 22.5174 41.689 22.9869 41.4731 23.729" stroke="black" stroke-width="1.61916" stroke-linecap="round" stroke-linejoin="round"/>
<path d="M37.9892 16.526C38.251 15.5734 39.0147 15.2928 39.6596 15.479C40.3505 15.6814 40.5367 16.329 40.337 17.2681C39.3439 17.4166 38.5694 17.1521 37.9892 16.5233V16.526Z" fill="white"/>
<path d="M40.3397 17.2714C40.5394 16.3322 40.3532 15.6846 39.6624 15.4822C39.0174 15.2933 38.2537 15.5739 37.9919 16.5292" stroke="black" stroke-width="1.61916" stroke-linecap="round" stroke-linejoin="round"/>
</svg>
