<svg width="102" height="102" viewBox="0 0 102 102" fill="none" xmlns="http://www.w3.org/2000/svg">
<path d="M70.3251 75.9557L26.283 69.9795L22.0566 74.1631C25.7073 78.4835 30.8001 81.9917 37.2465 84.2317C36.705 87.7427 36.7848 90.7664 36.7848 90.7664C36.7848 90.7664 40.3358 91.4162 47.9393 91.6214C48.9453 90.9517 50.2448 90.4045 52.0488 90.4672C53.109 90.5043 55.1552 91.1141 56.0928 91.6385C64.2577 91.4333 72.3001 90.5897 72.3001 90.5897C72.3172 85.0211 72.6677 78.74 70.3222 75.9585L70.3251 75.9557Z" fill="#FFCCD3"/>
<path d="M36.7852 90.7662C36.7852 90.7662 36.6684 86.0697 37.7542 81.6182" stroke="black" stroke-width="1.72881" stroke-linecap="round" stroke-linejoin="round"/>
<path d="M66.8967 84.2773C67.1988 86.3122 67.2444 88.7915 67.1845 91.0258" stroke="black" stroke-width="1.72881" stroke-linecap="round" stroke-linejoin="round"/>
<path d="M69.6809 75.3623C72.7189 77.9215 72.4425 85.1915 72.3028 90.5863L69.6809 75.3623Z" fill="#FFCCD3"/>
<path d="M69.6809 75.3623C72.7189 77.9215 72.4425 85.1915 72.3028 90.5863" stroke="black" stroke-width="1.72881" stroke-linecap="round" stroke-linejoin="round"/>
<path d="M57.3523 88.0706C57.3552 84.9015 54.91 83.4082 52.1285 83.4082C48.5377 83.4082 46.3432 85.5171 46.3432 88.233C46.3432 89.6494 46.9018 90.8122 47.942 91.6187C49.4354 91.6586 51.0798 91.6814 52.8894 91.6785C53.9496 91.6785 55.024 91.6614 56.0984 91.6329C57.0446 90.7295 57.3523 89.4243 57.3552 88.0677L57.3523 88.0706Z" fill="white"/>
<path d="M55.0868 85.5996C52.6444 87.0901 50.6182 88.5606 48.5919 90.1879" stroke="black" stroke-width="1.72881" stroke-linecap="round" stroke-linejoin="round"/>
<path d="M48.9454 85.5996C51.2025 87.1585 53.1062 88.6832 55.1581 90.3646" stroke="black" stroke-width="1.72881" stroke-linecap="round" stroke-linejoin="round"/>
<path d="M67.0319 29.3633C70.7823 20.657 70.8422 13.025 66.194 11.6884C59.6336 9.8018 56.5785 18.8131 54.4838 26.4279C54.4268 26.636 54.0335 26.6103 53.9965 26.3994C52.4376 17.5848 50.4997 10.2549 44.4807 11.4091C39.14 12.4351 38.3022 21.244 42.5742 28.7107" fill="#FFCCD3"/>
<path d="M67.0319 29.3633C70.7823 20.657 70.8422 13.025 66.194 11.6884C59.6336 9.8018 56.5785 18.8131 54.4838 26.4279C54.4268 26.636 54.0335 26.6103 53.9965 26.3994C52.4376 17.5848 50.4997 10.2549 44.4807 11.4091C39.14 12.4351 38.3022 21.244 42.5742 28.7107" stroke="black" stroke-width="1.72881" stroke-linecap="round" stroke-linejoin="round"/>
<path d="M66.2195 28.6159C77.8242 30.7989 87.206 38.941 87.2288 52.3496C87.2516 66.2427 77.183 79.2809 51.3203 78.7109C30.8039 78.2578 18.5466 66.9096 18.5466 52.3496C18.5466 40.1892 28.4984 28.5048 43.8023 27.6641" fill="#FFCCD3"/>
<path d="M66.2195 28.6159C77.8242 30.7989 87.206 38.941 87.2288 52.3496C87.2516 66.2427 77.183 79.2809 51.3203 78.7109C30.8039 78.2578 18.5466 66.9096 18.5466 52.3496C18.5466 40.1892 28.4984 28.5048 43.8023 27.6641" stroke="black" stroke-width="1.72881" stroke-linecap="round" stroke-linejoin="round"/>
<path d="M47.1737 47.2957C48.4248 48.2362 51.0096 47.8857 51.4684 45.6514C52.1239 48.0367 55.1476 48.487 56.7635 47.1846C57.8436 52.9812 56.5669 57.7462 52.0014 57.6094C47.2734 57.4698 45.9938 52.7304 47.1737 47.2957Z" fill="white"/>
<path d="M56.7636 47.1836C57.8437 52.9802 56.567 57.7452 52.0015 57.6084C47.2735 57.4688 45.9939 52.7294 47.1738 47.2947" stroke="black" stroke-width="1.72881" stroke-linecap="round" stroke-linejoin="round"/>
<path d="M46.5721 46.4778C47.1592 48.2989 50.9068 48.3872 51.4653 45.6514C52.1892 48.2875 55.8057 48.5611 57.2221 46.7144" stroke="black" stroke-width="1.72881" stroke-linecap="round" stroke-linejoin="round"/>
<path d="M48.2166 41.2182C48.2166 41.8081 47.7293 42.2812 47.1166 42.2812C46.5038 42.2812 46.0479 41.8024 46.0479 41.2125C46.0479 40.6226 46.5152 40.1523 47.1052 40.1523C47.6951 40.1523 48.2138 40.5827 48.2138 41.2182H48.2166Z" fill="black"/>
<path d="M57.9774 41.2182C57.9774 41.8081 57.4901 42.2812 56.8774 42.2812C56.2647 42.2812 55.8087 41.8024 55.8087 41.2125C55.8087 40.6226 56.2333 40.1523 56.866 40.1523C57.4987 40.1523 57.9746 40.5827 57.9746 41.2182H57.9774Z" fill="black"/>
<path d="M34.4485 75.2515C32.0888 74.2085 29.9685 72.9517 28.1018 71.5154C23.1744 66.568 22.0658 55.6131 26.9163 48.9843C30.205 44.4901 29.256 39.7222 26.4546 38.759C22.8438 37.5193 20.5097 40.107 19.4125 41.4236C17.8793 43.2646 16.6538 46.3311 16.2121 48.1721C12.9633 61.7289 18.606 74.9979 31.9235 81.943" fill="#FFCCD3"/>
<path d="M38.7721 76.8389C34.6227 75.5964 31.0461 73.781 28.1021 71.5154C23.1747 66.568 22.0661 55.6131 26.9166 48.9843C30.2054 44.4901 29.2563 39.7222 26.4549 38.759C22.8441 37.5193 20.5101 40.107 19.4128 41.4236C17.8796 43.2646 16.6542 46.3311 16.2124 48.1721C12.5617 63.416 20.1481 78.2924 37.2474 84.2286" stroke="black" stroke-width="1.72881" stroke-linecap="round" stroke-linejoin="round"/>
<path d="M16.5968 37.244C16.004 36.7281 15.6164 36.3206 14.8783 35.4999C16.6167 34.5565 17.0157 32.9264 16.9872 30.9429C19.25 31.1567 20.5724 29.3783 21.1651 27.7539C21.9888 28.3096 22.5929 28.8739 23.3453 29.4695C20.6807 31.7437 18.4577 34.3571 16.5996 37.244H16.5968Z" fill="#FFF5A5"/>
<path d="M23.3422 29.4695C22.5898 28.8739 21.9857 28.3096 21.1621 27.7539C20.5721 29.3783 19.2469 31.1567 16.9841 30.9429C17.0126 32.9236 16.6165 34.5565 14.8752 35.4999C15.6133 36.3235 16.0009 36.731 16.5937 37.244" stroke="black" stroke-width="1.72881" stroke-linecap="round" stroke-linejoin="round"/>
</svg>
