<svg width="102" height="102" viewBox="0 0 102 102" fill="none" xmlns="http://www.w3.org/2000/svg">
<path d="M36.983 63.302C32.2132 58.4897 23.9477 52.4079 21.004 44.9269C18.2034 37.8102 23.6482 34.7302 26.7528 35.2912C32.0143 36.2434 38.2235 45.4745 42.8391 52.7387" fill="#FFD677"/>
<path d="M36.983 63.302C32.2132 58.4897 23.9477 52.4079 21.004 44.9269C18.2034 37.8102 23.6482 34.7302 26.7528 35.2912C32.0143 36.2434 38.2235 45.4745 42.8391 52.7387" stroke="black" stroke-width="1.71241" stroke-linecap="round" stroke-linejoin="round"/>
<path d="M69.9401 52.9629C76.7752 55.7322 82.7944 57.3773 86.2119 60.9401C89.9446 64.8315 87.9665 71.7537 82.0099 71.7537C78.8449 71.7537 75.0072 69.5141 68.5208 67.7372" fill="#FFD677"/>
<path d="M69.9401 52.9629C76.7752 55.7322 82.7944 57.3773 86.2119 60.9401C89.9446 64.8315 87.9665 71.7537 82.0099 71.7537C78.8449 71.7537 75.0072 69.5141 68.5208 67.7372" stroke="black" stroke-width="1.71241" stroke-linecap="round" stroke-linejoin="round"/>
<path d="M72.6313 65.69C73.0202 68.0414 73.2079 71.6444 73.2079 71.6444L34.0103 70.8979C33.2638 64.492 34.6719 62.2278 35.7068 60.4218L41.916 48.9622C41.916 48.9622 67.8727 49.1343 68.2191 48.9622C68.5656 48.7901 72.6313 65.69 72.6313 65.69Z" fill="#FFD677"/>
<path d="M34.0081 70.8975C28.1252 72.8488 24.5021 78.0946 27.1194 83.0209C29.9536 88.3584 37.5866 86.3982 41.5696 85.5198C45.5526 84.6414 48.7735 82.4196 56.5629 83.8099C62.638 84.8939 65.4364 88.3137 72.6894 88.1684C80.3358 88.0164 82.8414 80.4304 79.339 76.5144C77.0815 73.9887 73.9791 72.4599 73.208 71.6418C72.9621 71.3803 73.0515 69.7173 72.8973 67.9248C56.6143 62.3548 42.8392 63.3003 34.2808 64.5542C34.2808 64.5542 34.1981 64.5765 34.0461 64.619C33.769 66.1367 33.6885 68.1304 34.0104 70.8953L34.0081 70.8975Z" fill="#A37944"/>
<path d="M35.7068 60.4219C34.672 62.2279 33.8003 66.3092 34.0104 70.9002" stroke="black" stroke-width="1.71241" stroke-linecap="round" stroke-linejoin="round"/>
<path d="M72.6313 65.6895C73.0202 68.0408 72.8615 71.2684 73.208 71.6439C73.9344 72.4306 77.2536 73.8164 79.3389 76.5165C82.5486 80.6761 79.8821 88.4588 72.6894 88.1705C65.4409 87.8821 62.638 84.8982 56.5629 83.812C48.7734 82.4195 45.5526 84.6412 41.5696 85.5218C37.5866 86.4002 29.9558 88.3605 27.1194 83.023C24.3501 77.8084 27.7251 72.5401 35.0586 70.5933" stroke="black" stroke-width="1.71241" stroke-linecap="round" stroke-linejoin="round"/>
<path d="M79.9401 42.3098C81.0756 36.5498 80.1592 30.7586 76.5114 25.8726C76.7595 23.8408 76.3974 22.4729 75.4698 21.4627C74.3254 20.2154 71.9562 19.6611 69.4171 20.515C66.6991 19.0778 64.6585 17.9803 60.7537 17.2092C57.3361 16.5342 54.2137 16.4068 51.0867 16.7644C49.2226 15.2154 46.7796 14.8198 45.1949 15.6133C43.9678 16.2257 43.2078 17.3723 42.6222 19.1493C39.2114 20.9195 33.8001 27.0863 32.5574 34.0644C30.396 46.1922 36.2856 55.6156 53.5543 58.0161C69.1779 60.1887 77.6647 53.8632 79.9401 42.3098Z" fill="#FFD677" stroke="black" stroke-width="1.71241" stroke-linecap="round" stroke-linejoin="round"/>
<path d="M39.2428 35.0251C38.8136 37.5843 40.7001 40.2866 43.6594 40.6398C46.6187 40.9929 48.6706 39.33 49.0505 36.6545C49.3858 34.292 48.5096 32.0591 45.1055 31.3349C42.1507 30.7068 39.7077 32.2446 39.2428 35.0229V35.0251Z" fill="#FF9470"/>
<path d="M70.2039 40.4431C69.7815 42.9688 67.8503 44.8687 64.7368 44.3479C61.4779 43.8025 60.0206 41.4333 60.5258 38.8137C60.9705 36.5003 62.4971 34.8016 65.9169 35.1168C68.8405 35.3872 70.6621 37.6984 70.2039 40.4431Z" fill="#FF9470"/>
<path d="M56.6119 39.3815C56.6119 39.3815 55.5368 46.9586 52.6513 47.0346C49.2047 47.1262 51.3526 38.8473 51.3526 38.8473L53.9387 37.6895L56.6097 39.3815H56.6119Z" fill="#B53F3C" stroke="black" stroke-width="1.71241" stroke-linecap="round" stroke-linejoin="round"/>
<path d="M54.6786 33.5525C51.0196 33.1435 48.4313 34.936 48.4962 37.3343C48.5677 39.9562 51.3102 41.1028 53.6884 39.2275C55.7224 42.6249 59.8015 41.4023 60.4139 39.2364C61.1314 36.6973 59.2338 34.0621 54.6786 33.5525Z" fill="white" stroke="black" stroke-width="1.71241" stroke-linecap="round" stroke-linejoin="round"/>
<path d="M47.0187 33.7607L49.2069 35.0795" stroke="black" stroke-width="1.71241" stroke-linecap="round" stroke-linejoin="round"/>
<path d="M46.2878 38.441L48.4961 38.0879" stroke="black" stroke-width="1.71241" stroke-linecap="round" stroke-linejoin="round"/>
<path d="M63.3129 36.7158L60.4273 37.1517" stroke="black" stroke-width="1.71241" stroke-linecap="round" stroke-linejoin="round"/>
<path d="M62.4345 41.3333L60.2463 39.9922" stroke="black" stroke-width="1.71241" stroke-linecap="round" stroke-linejoin="round"/>
<path d="M48.1252 30.7855C48.941 30.3318 50.2866 30.0859 50.2866 30.0859" stroke="black" stroke-width="1.71241" stroke-linecap="round" stroke-linejoin="round"/>
<path d="M62.059 32.3252C62.7676 32.8236 63.7712 33.854 63.7712 33.854" stroke="black" stroke-width="1.71241" stroke-linecap="round" stroke-linejoin="round"/>
<path d="M49.4283 49.9766C51.1404 51.8384 53.9142 51.1969 54.5289 50.8147" stroke="black" stroke-width="1.71241" stroke-linecap="round" stroke-linejoin="round"/>
<path d="M11.6992 25.9823C11.6992 20.8348 18.1878 15.6873 24.511 20.9823C29.6429 14.3305 37.8615 17.9939 38.6281 23.5974C39.8619 32.6229 33.6974 36.0069 27.8123 39.3909C26.7327 40.0123 25.4319 40.1196 24.2629 39.6837C18.8516 37.6654 11.6969 34.9899 11.6992 25.9823Z" fill="#FFBDBD" stroke="#FF8080" stroke-width="1.71241" stroke-linecap="round" stroke-linejoin="round"/>
<path d="M32.7855 24.5699C33.5582 24.5699 34.1847 23.9434 34.1847 23.1707C34.1847 22.3979 33.5582 21.7715 32.7855 21.7715C32.0127 21.7715 31.3863 22.3979 31.3863 23.1707C31.3863 23.9434 32.0127 24.5699 32.7855 24.5699Z" fill="white"/>
</svg>
