<svg width="102" height="102" viewBox="0 0 102 102" fill="none" xmlns="http://www.w3.org/2000/svg">
<path d="M3.62411 52.0654L98.4095 70.8024H98.4372C98.4372 79.6539 94.8666 86.0686 79.9913 86.0686H20.4344C11.1477 86.0686 3.62134 78.5422 3.62134 69.2555V52.0654H3.62411Z" fill="#B5B5B5"/>
<path d="M52.3223 62.0147C52.3223 62.0147 47.4904 66.4917 45.3365 68.5763C45.3365 68.5763 42.9025 75.4929 26.4138 71.7948C22.4468 70.905 17.1409 68.3352 17.1409 68.3352C17.1409 68.3352 25.3215 60.8531 30.633 57.3408L52.3223 62.0147Z" fill="white"/>
<path d="M23.3009 67.2012C24.7618 67.5227 26.2449 68.4847 28.0025 68.7286" stroke="black" stroke-width="1.72881" stroke-linecap="round" stroke-linejoin="round"/>
<path d="M25.8038 65.1113C25.8038 65.1113 27.9772 65.5105 29.4187 66.3228" stroke="black" stroke-width="1.72881" stroke-linecap="round" stroke-linejoin="round"/>
<path d="M28.1907 63.0898C28.1907 63.0898 29.7708 63.6415 30.8519 63.9187" stroke="black" stroke-width="1.72881" stroke-linecap="round" stroke-linejoin="round"/>
<path d="M26.0229 60.8525C21.5791 63.8271 17.0966 68.354 17.0966 68.354C17.0966 68.354 22.3165 70.6854 26.4138 71.7942" stroke="black" stroke-width="1.72881" stroke-linecap="round" stroke-linejoin="round"/>
<path d="M84.3581 65.197C84.3581 65.197 88.8712 66.4223 89.1872 62.0645C89.5032 57.7399 84.3304 56.3428 84.3304 56.3428" fill="#FFDD70"/>
<path d="M84.3581 65.197C84.3581 65.197 88.8712 66.4223 89.1872 62.0645C89.5032 57.7399 84.3304 56.3428 84.3304 56.3428" stroke="black" stroke-width="1.72881" stroke-linecap="round" stroke-linejoin="round"/>
<path d="M84.3303 60.4404C84.3303 60.4404 85.5085 61.175 86.4898 62.1619" stroke="black" stroke-width="1.72881" stroke-linecap="round" stroke-linejoin="round"/>
<path d="M82.256 47.0697C82.256 47.0697 86.9908 48.1065 87.415 44.22C87.792 40.7686 84.7066 38.5481 79.9717 38.939" fill="#FFDD70"/>
<path d="M82.256 47.0697C82.256 47.0697 86.9908 48.1065 87.415 44.22C87.792 40.7686 84.7066 38.5481 79.9717 38.939" stroke="black" stroke-width="1.72881" stroke-linecap="round" stroke-linejoin="round"/>
<path d="M81.3658 43.0029C81.3658 43.0029 83.2121 43.0279 84.3293 43.5601" stroke="black" stroke-width="1.72881" stroke-linecap="round" stroke-linejoin="round"/>
<path d="M65.7981 24.3496C65.7981 24.3496 67.356 21.1838 70.7242 21.0036C74.0924 20.8234 75.6254 22.8055 75.7141 24.6545C75.8028 26.5036 74.0369 28.3554 71.6917 27.9063" fill="#FFDD70"/>
<path d="M65.7981 24.3496C65.7981 24.3496 67.356 21.1838 70.7242 21.0036C74.0924 20.8234 75.6254 22.8055 75.7141 24.6545C75.8028 26.5036 74.0369 28.3554 71.6917 27.9063" stroke="black" stroke-width="1.72881" stroke-linecap="round" stroke-linejoin="round"/>
<path d="M72.088 24.3496C72.088 24.3496 70.5744 24.7793 68.803 26.2929" stroke="black" stroke-width="1.72881" stroke-linecap="round" stroke-linejoin="round"/>
<path d="M50.9001 22.9829C51.0332 22.9385 53.115 21.8602 52.8933 19.3514C52.6687 16.8426 49.0261 15.8169 46.3011 17.6215C43.5788 19.4262 43.6731 23.2407 44.6073 25.1867" fill="#FFDD70"/>
<path d="M50.9001 22.9829C51.0332 22.9385 53.115 21.8602 52.8933 19.3514C52.6687 16.8426 49.0261 15.8169 46.3011 17.6215C43.5788 19.4262 43.6731 23.2407 44.6073 25.1867" stroke="black" stroke-width="1.72881" stroke-linecap="round" stroke-linejoin="round"/>
<path d="M49.098 19.9639C49.098 19.9639 47.723 21.1725 48.2137 23.8532" stroke="black" stroke-width="1.72881" stroke-linecap="round" stroke-linejoin="round"/>
<path d="M85.2639 68.1519C55.6213 62.5133 43.6206 59.8936 22.8461 55.8823C22.8461 55.8823 23.3257 54 24.0686 53.0852C25.4076 51.433 26.7188 50.2382 27.0182 47.7183C27.0182 47.7183 27.2982 19.7612 57.085 21.9207C85.1585 23.9555 86.1066 59.2089 85.3165 67.8885" fill="#90EBA5"/>
<path d="M6.74268 52.7861C40.4188 59.0623 50.307 61.5378 92.9399 69.566" stroke="black" stroke-width="1.72881" stroke-linecap="round" stroke-linejoin="round"/>
<path d="M49.5173 64.2656C49.5173 64.2656 47.4187 66.8992 45.2648 68.9838" stroke="black" stroke-width="1.72881" stroke-linecap="round" stroke-linejoin="round"/>
<path d="M24.4461 75.6914C24.4461 75.6914 29.0617 65.5232 32.136 61.9609C32.136 61.9609 42.7173 63.1225 47.4605 64.3672C47.4605 64.3672 45.8332 71.8575 44.8713 75.4142C44.436 77.0248 39.4129 78.1281 37.6581 78.0339C33.3613 77.801 28.4518 76.7032 24.4433 75.6914H24.4461Z" fill="white" stroke="black" stroke-width="1.72881" stroke-linecap="round" stroke-linejoin="round"/>
<path d="M37.6885 78.0031C37.6885 78.0031 39.5986 76.3509 39.8952 73.9502C39.8952 73.9502 43.316 75.0341 44.874 75.4139" stroke="black" stroke-width="1.72881" stroke-linecap="round" stroke-linejoin="round"/>
<path d="M28.9091 73.1494C28.9091 73.1494 29.9652 73.6124 31.3485 73.6761C32.596 73.7343 33.5746 74.408 34.6225 74.1696C34.8609 74.1169 35.6731 74.1612 36.1194 74.3026C37.2588 74.6658 38.0488 75.2119 39.6789 74.918" stroke="black" stroke-width="1.72881" stroke-linecap="round" stroke-linejoin="round"/>
<path d="M30.384 70.4326C30.5614 70.6294 31.4124 70.915 32.0999 70.7209C32.4603 70.6184 33.2143 70.6904 33.7854 70.9011C34.52 71.1728 35.36 70.8263 36.1972 71.048C36.9401 71.2449 38.243 72.0127 39.2244 71.8575C40.2057 71.7023 41.0152 71.9795 41.6639 72.1763" stroke="black" stroke-width="1.72881" stroke-linecap="round" stroke-linejoin="round"/>
<path d="M31.8448 67.4521C31.8448 67.4521 33.6856 68.1286 35.3128 67.9955C36.9401 67.8624 38.4176 68.5776 39.4738 68.7634C40.53 68.9491 41.345 69.0877 42.5675 69.0794" stroke="black" stroke-width="1.72881" stroke-linecap="round" stroke-linejoin="round"/>
<path d="M33.508 64.5664C35.016 65.3565 36.3162 65.1153 38.2179 65.5228C41.1037 66.141 41.489 65.7058 43.424 66.1493" stroke="black" stroke-width="1.72881" stroke-linecap="round" stroke-linejoin="round"/>
<path d="M31.5356 54.461C31.5356 54.461 33.7644 59.875 28.525 60.726C23.5047 61.5411 22.296 57.5824 23.075 55.0265C23.3106 54.2531 23.6765 53.621 24.0923 53.0527" fill="#90EBA5"/>
<path d="M24.0922 53.0501C25.3508 51.3369 26.7452 50.2058 27.0446 47.686C27.0446 47.686 27.3218 19.726 57.1085 21.8856C85.1821 23.9203 86.1302 59.1737 85.3401 67.8533" stroke="black" stroke-width="1.72881" stroke-linecap="round" stroke-linejoin="round"/>
<path d="M31.5356 54.461C31.5356 54.461 33.7644 59.875 28.525 60.726C23.5047 61.5411 22.296 57.5824 23.075 55.0265C23.3106 54.2531 23.6765 53.621 24.0923 53.0527" stroke="black" stroke-width="1.72881" stroke-linecap="round" stroke-linejoin="round"/>
<path d="M50.875 58.9932C49.9269 59.9856 47.8534 63.3344 50.0489 65.3691C52.8349 67.9528 59.4188 66.1315 62.6067 62.8049" fill="#90EBA5"/>
<path d="M50.875 58.9932C49.9269 59.9856 47.8534 63.3344 50.0489 65.3691C52.8349 67.9528 59.4188 66.1315 62.6067 62.8049" stroke="black" stroke-width="1.72881" stroke-linecap="round" stroke-linejoin="round"/>
<path d="M41.1309 48.9574C41.1309 48.9574 40.546 52.3339 42.5142 52.2147C44.33 52.1038 44.0583 52.5307 44.3272 52.966C44.6349 53.4649 45.084 53.7394 45.6495 53.6701C46.9441 53.5121 46.8527 51.7046 46.7335 49.6033L46.7445 49.5507C44.7292 49.0739 43.9613 47.624 43.9613 47.624C43.2073 48.7523 41.8462 48.9408 40.9369 48.9547" fill="white"/>
<path d="M49.5581 46.3239C49.2476 46.0356 48.8734 45.4839 48.9482 44.5442C49.0425 43.391 49.9351 43.0056 49.9351 43.0056C49.9351 43.0056 48.8623 41.9799 49.4084 40.7851C49.6385 40.2834 50.1901 39.8398 50.545 39.8398" stroke="black" stroke-width="1.72881" stroke-linecap="round" stroke-linejoin="round"/>
<path d="M39.6506 45.5419C39.3318 45.2757 38.8799 44.7158 38.9631 43.6928C39.0574 42.5396 40.0886 42.1543 40.0886 42.1543C40.0886 42.1543 38.8633 41.4224 39.4233 39.9338C39.6173 39.4182 40.2327 39.0439 40.5876 39.0439" stroke="black" stroke-width="1.72881" stroke-linecap="round" stroke-linejoin="round"/>
<path d="M40.3104 48.9576C41.045 48.9909 43.077 48.9576 43.9613 47.627C43.9613 47.627 45.0591 49.7033 48.0807 49.7005" stroke="black" stroke-width="1.72881" stroke-linecap="round" stroke-linejoin="round"/>
<path d="M41.1307 48.957C41.1307 48.957 40.5458 52.3335 42.514 52.2143C44.3298 52.1034 44.0581 52.5303 44.327 52.9656C44.6347 53.4645 45.0838 53.739 45.6493 53.6697C46.9439 53.5117 46.8524 51.7042 46.7332 49.6029" stroke="black" stroke-width="1.72881" stroke-linecap="round" stroke-linejoin="round"/>
<path d="M38.0038 36.99C41.7324 37.9852 47.3987 35.9809 47.7091 33.2365C48.0224 30.4671 44.7097 30.5253 44.2883 33.1533C43.7699 36.3829 48.1305 38.5369 53.076 38.2513" stroke="black" stroke-width="1.72881" stroke-linecap="round" stroke-linejoin="round"/>
</svg>
