<svg width="102" height="102" viewBox="0 0 102 102" fill="none" xmlns="http://www.w3.org/2000/svg">
<path d="M51.2042 62.6006L40.1794 64.1013L40.9113 66.5649C41.3731 69.7973 40.7728 72.1824 40.311 75.1077C39.8493 78.033 40.2787 81.4201 43.8667 83.1887C44.4785 83.4888 45.1573 83.722 45.8846 83.8975L53.1114 75.4148L51.2065 62.6006H51.2042Z" fill="white"/>
<path d="M58.8421 63.4873C59.3801 72.9536 57.2929 76.814 54.4553 80.88C52.1464 84.1885 46.9907 89.1919 43.3727 89.8083C39.7548 90.4248 38.8312 87.7303 39.3715 86.1903C39.9094 84.6503 40.6021 84.7288 42.0659 83.4959C43.5297 82.263 44.451 76.8579 43.1234 74.2605" fill="white"/>
<path d="M58.8421 63.4873C59.3801 72.9536 57.2929 76.814 54.4553 80.88C52.1464 84.1885 46.9907 89.1919 43.3727 89.8083C39.7548 90.4248 38.8312 87.7303 39.3715 86.1903C39.9094 84.6503 40.6021 84.7288 42.0659 83.4959C43.5297 82.263 44.451 76.8579 43.1234 74.2605" stroke="black" stroke-width="1.72881" stroke-linecap="round" stroke-linejoin="round"/>
<path d="M65.4616 78.6547C64.5634 76.5975 60.2274 75.9533 56.0714 76.7222L41.0015 67.332C41.2739 70.1858 40.7337 72.4185 40.3088 75.106C39.8471 78.0313 40.2765 81.4184 43.8645 83.187C46.9884 84.727 51.9155 84.4961 55.6097 83.6488C59.3038 82.8014 61.0216 83.0161 63.3051 82.6559C65.3069 82.3396 66.2304 80.4163 65.4593 78.6547H65.4616Z" fill="white"/>
<path d="M40.9091 66.5654C41.3709 69.7978 40.7706 72.1829 40.3088 75.1082C39.8471 78.0335 40.2765 81.4206 43.8645 83.1892C46.9884 84.7292 51.9155 84.4984 55.6097 83.651C59.3038 82.8036 61.0216 83.0184 63.3051 82.6582C65.3069 82.3419 66.1842 80.4371 65.4593 78.6569C64.5195 76.3411 60.2251 75.9556 56.0691 76.7244" stroke="black" stroke-width="1.72881" stroke-linecap="round" stroke-linejoin="round"/>
<path d="M44.6081 12.7591C49.0712 13.8858 66.2514 18.5497 73.1895 29.4013C77.6756 36.4157 79.8783 46.5793 72.6377 54.9374C64.3512 64.503 46.3259 67.7654 35.3658 66.1792C25.4908 64.7477 19.049 59.4835 17.5136 49.3037C16.4747 42.4141 18.922 34.2915 27.0492 25.8734C31.9302 20.817 34.9525 19.4132 36.855 15.3288C38.455 11.8933 39.6117 11.4984 44.6058 12.7591H44.6081Z" fill="#FFCDCD" stroke="black" stroke-width="1.72881" stroke-linecap="round" stroke-linejoin="round"/>
<path d="M49.2789 46.5282C51.5185 46.7176 53.2848 46.4936 54.8571 45.226C56.2655 44.0924 58.1057 44.0693 59.1008 45.5031C59.9112 46.6714 59.6249 48.941 57.9533 50.3863C56.3463 51.7763 52.7353 52.8684 50.5118 52.6536C48.6693 52.4736 46.9423 51.8917 46.3905 50.0654C45.7325 47.8812 47.6304 46.3897 49.2766 46.5282H49.2789Z" fill="white" stroke="black" stroke-width="1.72881" stroke-linecap="round" stroke-linejoin="round"/>
<path d="M37.9864 49.5276C34.7447 50.592 34.0013 52.5268 34.7771 53.9884C35.5528 55.4476 37.7532 55.6808 40.7963 54.6602C43.5415 53.739 44.6243 52.0397 43.7585 50.3565C42.8973 48.6849 40.4661 48.7149 37.9864 49.5299V49.5276Z" fill="#F58C8C"/>
<path d="M62.3079 45.829C62.9636 47.7823 65.7296 47.84 67.7106 47.3136C70.5066 46.5702 71.3471 44.5499 70.9707 43.3978C70.5944 42.2457 68.9135 40.9873 65.4572 41.8185C62.5872 42.5089 61.9315 44.7092 62.3079 45.829Z" fill="#F58C8C"/>
<path d="M44.1094 44.3716C42.0129 44.9812 32.1264 48.2089 32.1264 48.2089C32.1264 48.2089 41.6435 43.425 43.3336 42.4807C41.6805 43.014 36.6748 44.8311 31.6161 46.258C32.8583 45.5838 43.0796 40.3427 43.0796 40.3427L30.7434 44.1338C30.7434 44.1338 38.8383 39.8232 42.1838 38.0592C40.4637 38.5441 35.0448 40.1626 30.0184 41.7972C30.8496 41.093 37.349 37.7244 41.3872 35.8242C39.7526 36.2213 31.0528 39.0081 29.178 39.7447" stroke="black" stroke-width="2.24746" stroke-linecap="round" stroke-linejoin="round"/>
<path d="M35.8346 38.6106C34.163 37.9226 32.87 39.361 32.5422 40.3377C32.2166 41.3143 32.7454 42.4572 33.8859 42.7827C35.0265 43.1083 36.4534 42.8312 36.8182 41.2751C37.1437 39.8897 36.525 38.8969 35.8323 38.6106H35.8346Z" fill="white"/>
<path d="M41.1404 42.7437C40.3415 41.7324 38.5014 41.9218 38.0927 43.3463C37.6863 44.7732 39.2817 45.5213 40.2191 45.0734C41.1565 44.6254 41.7522 43.5172 41.1404 42.7437Z" fill="white"/>
<path d="M54.8177 32.4119C56.9765 31.4861 63.162 29.5374 65.6763 29.2188C62.2407 30.9319 56.9835 33.594 55.2864 34.5222C61.2987 32.6936 64.9767 31.7354 66.653 31.4237C61.4211 33.661 57.0019 35.9537 56.0761 36.4616C59.858 35.2957 67.3526 33.5063 67.3526 33.5063C63.4968 34.6284 57.0343 38.6643 57.0343 38.6643C57.0343 38.6643 65.8426 35.8937 67.8097 35.5774C65.3993 36.9465 58.9206 39.9734 57.8285 40.6707C60.2413 39.8695 66.526 37.8562 68.3638 37.3067" stroke="black" stroke-width="2.24746" stroke-linecap="round" stroke-linejoin="round"/>
<path d="M61.2544 32.0245C59.749 31.251 57.768 32.6594 57.8858 34.4672C58.0035 36.2751 60.0445 36.4436 61.0766 35.5085C62.1087 34.5757 62.5797 32.7056 61.2544 32.0245Z" fill="white"/>
<path d="M65.168 34.9341C63.7157 34.126 62.3789 35.6868 62.4689 36.8343C62.5589 37.9818 63.905 38.4851 64.9902 37.8594C66.0777 37.236 66.1908 35.5021 65.168 34.9318V34.9341Z" fill="white"/>
<path d="M65.7685 59.715C65.3067 56.6373 61.1346 55.7137 58.364 56.9444C55.5933 58.175 53.991 61.4166 54.3766 64.6398C54.8383 68.4887 58.0061 71.3724 60.9407 72.4207C64.15 73.5682 67.7518 73.9514 69.5827 73.5682C70.7302 73.328 70.1438 73.268 70.9149 71.9589C71.6861 70.6498 74.2328 67.4104 74.8469 63.6401C75.4957 59.6711 73.7687 57.1753 71.0766 56.097C68.3821 55.0188 65.7662 55.9423 64.6879 57.637" fill="#FF646A"/>
<path d="M65.7685 59.715C65.3067 56.6373 61.1346 55.7137 58.364 56.9444C55.5933 58.175 53.991 61.4166 54.3766 64.6398C54.8383 68.4887 58.0061 71.3724 60.9407 72.4207C64.15 73.5682 67.7518 73.9514 69.5827 73.5682C70.7302 73.328 70.1438 73.268 70.9149 71.9589C71.6861 70.6498 74.2328 67.4104 74.8469 63.6401C75.4957 59.6711 73.7687 57.1753 71.0766 56.097C68.3821 55.0188 65.7662 55.9423 64.6879 57.637" stroke="black" stroke-width="1.72881" stroke-linecap="round" stroke-linejoin="round"/>
<path d="M70.5777 61.7487C71.0902 61.6114 71.3943 61.0847 71.257 60.5722C71.1196 60.0598 70.5929 59.7557 70.0805 59.893C69.568 60.0303 69.2639 60.557 69.4012 61.0695C69.5385 61.5819 70.0653 61.886 70.5777 61.7487Z" fill="white"/>
<path d="M50.3891 65.7432C53.8477 65.0228 56.3552 64.2194 59.6892 62.8317C62.4598 61.6773 63.9375 63.1203 64.1499 64.7365C64.3646 66.3527 63.5704 68.403 60.1648 69.9615C56.7592 71.52 52.8619 72.4366 49.6433 72.6975" fill="white"/>
<path d="M50.3891 65.7432C53.8477 65.0228 56.3552 64.2194 59.6892 62.8317C62.4598 61.6773 63.9375 63.1203 64.1499 64.7365C64.3646 66.3527 63.5704 68.403 60.1648 69.9615C56.7592 71.52 52.8619 72.4366 49.6433 72.6975" stroke="black" stroke-width="1.72881" stroke-linecap="round" stroke-linejoin="round"/>
<path d="M78.1602 62.794C78.5458 61.4087 77.8532 59.8918 78.1602 58.1994C78.4442 56.6386 79.7972 55.9783 81.0071 56.253C82.4755 56.5855 82.905 57.7215 82.6995 58.7166C84.4704 58.0239 85.6918 59.37 85.4701 60.6399C85.163 62.4108 82.3924 63.7176 78.1579 62.794H78.1602Z" fill="#FF646A" stroke="black" stroke-width="1.72881" stroke-linecap="round" stroke-linejoin="round"/>
</svg>
