<svg width="102" height="102" viewBox="0 0 102 102" fill="none" xmlns="http://www.w3.org/2000/svg">
<path d="M25.0389 71.5238C25.2049 71.3578 24.9817 60.2829 24.9817 60.2829L40.395 52.2701L60.8792 45.4248L68.7261 49.8777L72.0629 51.0452L72.8413 55.4409L70.9468 59.785L74.1748 62.2861L77.6261 59.5618L84.9178 63.7342L85.307 67.6833L86.3086 76.5891L84.5858 82.4327L81.0773 84.2127L78.187 82.1523L76.7962 77.7566L76.6874 75.8107C76.6874 75.8107 73.013 80.0975 72.7898 80.3723C72.5665 80.6527 59.4884 84.9339 59.4884 84.9339L46.7995 81.3166L43.6287 78.3118C43.6287 78.3118 38.5635 79.4279 38.3975 79.4279C38.2315 79.4279 27.3798 77.8139 27.3798 77.8139L25.0446 71.5238H25.0389Z" fill="white"/>
<path d="M69.5046 48.3154C69.5046 48.3154 75.5714 52.1559 71.5078 58.7779L70.9526 59.7795L75.1823 63.3395C74.9476 63.4082 74.215 67.3345 82.9719 66.1211C85.101 65.8292 87.2588 69.2404 86.1427 77.362C85.0266 85.4893 80.4078 83.9268 79.4634 83.3716C78.519 82.8165 77.4602 81.088 77.6834 79.0848C77.9066 77.0815 76.5158 74.9124 76.5158 74.9124" stroke="black" stroke-width="1.90169" stroke-linecap="round" stroke-linejoin="round"/>
<path d="M24.0891 65.4565C23.9231 65.4565 19.3043 71.8038 24.7588 76.4226C30.2132 81.0415 43.629 78.815 43.629 78.815C43.629 78.815 52.3115 86.8279 64.554 83.9891C76.7965 81.1502 79.7498 70.4645 84.3114 66.956C88.873 63.4533 87.9229 60.0993 84.8666 58.9432C82.8061 58.1648 74.1236 58.1076 68.5604 68.4041" fill="white"/>
<path d="M24.0891 65.4565C23.9231 65.4565 19.3043 71.8038 24.7588 76.4226C30.2132 81.0415 43.629 78.815 43.629 78.815C43.629 78.815 52.3115 86.8279 64.554 83.9891C76.7965 81.1502 79.7498 70.4645 84.3114 66.956C88.873 63.4533 87.9229 60.0993 84.8666 58.9432C82.8061 58.1648 74.1236 58.1076 68.5604 68.4041" stroke="black" stroke-width="1.90169" stroke-linecap="round" stroke-linejoin="round"/>
<path d="M69.2301 59.167C69.2301 59.167 71.6797 59.6134 73.4025 62.1718L69.2301 59.167Z" fill="white"/>
<path d="M69.2301 59.167C69.2301 59.167 71.6797 59.6134 73.4025 62.1718" stroke="black" stroke-width="1.90169" stroke-linecap="round" stroke-linejoin="round"/>
<path d="M23.0531 19.8295C23.0531 19.8295 20.529 20.7395 20.8324 22.1532C21.1357 23.5669 17.095 37.1029 16.1849 39.73C15.2749 42.357 11.9439 55.3894 19.722 64.6785C27.5002 73.9734 43.6633 71.7527 50.0278 69.326C56.3923 66.8992 71.1416 58.0107 72.5553 43.2613C73.969 28.512 62.047 20.9341 53.9655 18.9137C45.884 16.8991 32.245 16.2924 23.0531 19.8295Z" fill="#FFCDCD" stroke="black" stroke-width="1.90169" stroke-linecap="round" stroke-linejoin="round"/>
<path d="M23.0531 19.8295C23.0531 19.8295 20.529 20.7395 20.8324 22.1532C21.1357 23.5669 17.095 37.1029 16.1849 39.73C15.2749 42.357 11.9439 55.3894 19.722 64.6785C27.5002 73.9734 43.6633 71.7527 50.0278 69.326C56.3923 66.8992 71.1416 58.0107 72.5553 43.2613C73.969 28.512 62.047 20.9341 53.9655 18.9137C45.884 16.8991 32.245 16.2924 23.0531 19.8295Z" stroke="black" stroke-width="1.90169" stroke-linecap="round" stroke-linejoin="round"/>
<path d="M51.9395 38.5161C51.9395 38.5161 54.475 39.8497 58.5444 36.4213C61.4748 33.9488 60.6277 31.751 60.6277 31.751" fill="#FFCDCD"/>
<path d="M51.9395 38.5161C51.9395 38.5161 54.475 39.8497 58.5444 36.4213C61.4748 33.9488 60.6277 31.751 60.6277 31.751" stroke="black" stroke-width="1.90169" stroke-linecap="round" stroke-linejoin="round"/>
<path d="M51.9395 38.5161C51.9395 38.5161 54.475 39.8497 58.5444 36.4213C61.4748 33.9488 60.6277 31.751 60.6277 31.751" stroke="black" stroke-width="1.90169" stroke-linecap="round" stroke-linejoin="round"/>
<path d="M39.8001 44.8867C39.8001 44.8867 39.9146 47.8515 35.7594 50.2095C31.3809 52.6878 28.4219 51.2855 28.4219 51.2855" fill="#FFCDCD"/>
<path d="M39.8001 44.8867C39.8001 44.8867 39.9146 47.8515 35.7594 50.2095C31.3809 52.6878 28.4219 51.2855 28.4219 51.2855" stroke="black" stroke-width="1.90169" stroke-linecap="round" stroke-linejoin="round"/>
<path d="M39.8001 44.8867C39.8001 44.8867 39.9146 47.8515 35.7594 50.2095C31.3809 52.6878 28.4219 51.2855 28.4219 51.2855" stroke="black" stroke-width="1.90169" stroke-linecap="round" stroke-linejoin="round"/>
<path d="M54.0627 46.5977C54.0627 46.5977 54.5034 48.784 52.4316 50.3866C50.394 51.9605 48.2363 52.0521 46.6909 51.2451" fill="#FFCDCD"/>
<path d="M54.0627 46.5977C54.0627 46.5977 54.5034 48.784 52.4316 50.3866C50.394 51.9605 48.2363 52.0521 46.6909 51.2451" stroke="black" stroke-width="1.90169" stroke-linecap="round" stroke-linejoin="round"/>
<path d="M54.0627 46.5977C54.0627 46.5977 54.5034 48.784 52.4316 50.3866C50.394 51.9605 48.2363 52.0521 46.6909 51.2451" stroke="black" stroke-width="1.90169" stroke-linecap="round" stroke-linejoin="round"/>
<path d="M39.1531 53.3805C38.6495 52.3389 36.1884 52.4877 33.6529 53.7068C31.1174 54.9316 29.4748 56.7631 29.9784 57.8048C30.4821 58.8464 32.9432 58.7034 35.4729 57.4785C38.0084 56.2537 39.6568 54.4165 39.1531 53.3748" fill="#F58C8C"/>
<path d="M66.5858 36.6222C65.9505 35.6549 63.5295 36.1128 61.1714 37.6467C58.8134 39.1806 57.4168 41.2124 58.0522 42.1797C58.6817 43.1469 61.1085 42.6891 63.4608 41.1552C65.8189 39.6213 67.2154 37.5837 66.5858 36.6165" fill="#F58C8C"/>
</svg>
