<svg width="102" height="102" viewBox="0 0 102 102" fill="none" xmlns="http://www.w3.org/2000/svg">
<path d="M43.5251 67.7282C40.4664 67.2232 37.468 66.5126 34.6254 65.2347C30.9226 63.5682 27.9263 61.1245 26.0291 57.4653C24.8032 55.1006 24.1985 52.5531 23.9325 49.9225C23.6666 47.296 23.6645 44.6778 24.2941 42.0866C25.2188 38.2716 27.1948 35.0612 29.8629 32.2373C32.3293 29.6274 35.2343 27.5765 38.216 25.6149C41.468 23.4768 44.6783 21.2804 47.5084 18.5812C48.5869 17.5526 49.5801 16.4472 50.4944 15.271C51.3609 14.1552 52.4601 13.7957 53.8003 14.2716C57.6091 15.6201 61.2018 17.4113 64.5888 19.6097C70.3176 23.3292 75.3129 27.8321 79.2276 33.4632C81.5258 36.7692 83.3003 40.3349 83.9943 44.3349C85.1455 50.9593 83.5206 56.8669 79.1985 62.0243C79.0676 62.1801 78.9513 62.3443 78.8266 62.5064C77.5902 63.643 76.1793 64.524 74.7123 65.3261C73.931 65.644 73.156 65.9827 72.3643 66.2757C69.3472 67.3936 66.2116 67.963 63.0221 68.2871C59.4356 68.6508 55.8429 68.6508 52.246 68.5053C50.0352 68.416 47.8347 68.1999 45.63 68.0336C44.9422 67.8466 44.2253 67.8549 43.5272 67.7303L43.5251 67.7282ZM56.2606 66.5417C57.9727 66.5479 59.6829 66.4877 61.3909 66.3588C64.5181 66.1199 67.6101 65.6752 70.6022 64.6965C72.8796 63.9526 75.157 63.1048 76.8734 61.3864C81.2141 57.0331 82.8286 51.6825 82.1138 45.6419C81.6671 41.8622 80.0567 38.4918 77.9892 35.3396C74.7975 30.4752 70.6729 26.5105 66.0059 23.0882C62.1389 20.2518 57.9499 18.0014 53.4533 16.3329C52.6034 16.0191 52.5245 16.0461 51.9718 16.7422C50.8829 18.1136 49.6965 19.3916 48.4082 20.576C45.3765 23.3625 41.9625 25.6336 38.5402 27.8882C35.8161 29.6814 33.2187 31.6284 31.0099 34.0492C28.7117 36.5697 27.0161 39.4206 26.2536 42.7786C25.5637 45.8206 25.7549 48.8627 26.3159 51.8923C27.1367 56.3183 29.3559 59.8196 33.2499 62.178C36.082 63.8944 39.1947 64.8336 42.4259 65.4279C46.9993 66.2695 51.6268 66.471 56.2626 66.5417H56.2606Z" fill="black"/>
<path d="M43.5249 67.7272C44.2231 67.8519 44.9379 67.8436 45.6278 68.0306C45.688 69.0758 45.9602 70.0773 46.2989 71.056C47.7721 75.3075 49.956 79.1828 52.8048 82.6467C54.0869 84.2051 54.729 85.9194 54.9908 87.8581C55.1529 89.055 55.3378 90.256 56.0006 91.3116C56.7944 92.5771 58.3778 93.1589 59.799 92.7017C60.4411 92.496 60.917 92.095 61.1912 91.4716C61.2515 91.3324 61.3097 91.1994 61.2619 91.0269C60.8796 89.5994 60.7861 88.1324 60.7071 86.6654C60.6946 86.4264 60.6364 86.3121 60.3538 86.2955C59.8032 86.2623 59.2546 86.1812 58.7082 86.0939C58.0931 85.9963 57.7004 85.4789 57.7856 84.9241C57.877 84.3277 58.4069 83.9495 59.0385 84.0493C59.8926 84.1864 60.7507 84.2716 61.6151 84.3049C62.3507 84.3339 62.704 84.7142 62.7372 85.4498C62.7767 86.3475 62.7995 87.2472 62.8785 88.1407C62.9762 89.2586 63.1175 90.3724 63.5725 91.4217C63.9175 92.2176 64.5138 92.681 65.3595 92.8347C67.0987 93.1485 68.4036 92.3547 68.8753 90.6529C69.133 89.722 69.3699 88.7807 69.5299 87.829C69.827 86.0752 70.7018 84.5604 71.4187 82.975C72.815 79.8893 72.5927 76.8327 71.1652 73.8176C70.9699 73.4041 70.7766 73.0654 70.1761 73.1423C69.4925 73.2316 69.0436 72.7973 69.0166 72.1843C68.9917 71.5942 69.4156 71.1682 70.1034 71.1184C71.9818 70.9791 73.8581 70.8129 75.7199 70.522C78.3693 70.1085 80.9916 69.5869 83.4414 68.4399C84.2269 68.0742 84.9812 67.6441 85.5671 66.9854C86.5146 65.9194 86.1801 64.3755 84.8793 63.7916C84.2601 63.5132 83.6139 63.455 82.9573 63.6088C81.7812 63.883 80.6093 64.1823 79.4352 64.4607C77.8727 64.8306 76.3163 65.2275 74.7038 65.321C76.1708 64.521 77.5817 63.6379 78.8181 62.5012C80.4908 62.1002 82.122 61.4643 83.8736 61.4747C86.1531 61.4893 87.9172 63.0664 88.15 65.321C88.2767 66.5573 87.8466 67.6358 86.9635 68.5168C85.7084 69.7698 84.1417 70.4825 82.4981 71.0519C79.456 72.1054 76.2997 72.5791 73.081 72.9386C73.2826 73.4706 73.4945 73.9901 73.6794 74.5178C74.841 77.8716 74.6789 81.1734 73.0498 84.3194C72.1127 86.1272 71.56 88.0243 71.1756 89.9942C71.053 90.6217 70.8701 91.2326 70.6561 91.8373C69.374 95.4695 64.6136 95.7126 62.6208 93.6784C62.4484 93.5017 62.3715 93.4332 62.1471 93.6347C59.8302 95.7043 56.1025 95.1952 54.3466 92.5833C53.5155 91.3449 53.2079 89.9319 52.9856 88.4898C52.8942 87.8914 52.7944 87.295 52.6656 86.7049C52.4786 85.8487 52.0963 85.0986 51.5352 84.4088C48.196 80.2945 45.5592 75.7875 44.0174 70.6862C43.7265 69.7241 43.5748 68.7329 43.5166 67.7293L43.5249 67.7272Z" fill="black"/>
<path d="M56.2627 66.5415C51.6269 66.4729 46.9994 66.2693 42.4259 65.4277C39.1968 64.8334 36.0841 63.8921 33.2499 62.1779C29.3538 59.8194 27.1346 56.3181 26.3159 51.8922C25.7549 48.8625 25.5637 45.8205 26.2536 42.7784C27.0162 39.4205 28.7117 36.5696 31.0099 34.049C33.2187 31.6283 35.8161 29.6813 38.5402 27.888C41.9646 25.6335 45.3765 23.3623 48.4082 20.5758C49.6986 19.3914 50.885 18.1135 51.9718 16.742C52.5245 16.0459 52.6056 16.0169 53.4533 16.3327C57.952 18.0013 62.141 20.2517 66.0059 23.088C70.6729 26.5104 74.7976 30.475 77.9892 35.3394C80.0567 38.4916 81.6671 41.8641 82.1138 45.6418C82.8287 51.6823 81.2141 57.0308 76.8734 61.3862C75.1591 63.1067 72.8797 63.9524 70.6023 64.6963C67.6101 65.675 64.5161 66.1197 61.3909 66.3586C59.685 66.4895 57.9728 66.5477 56.2606 66.5415H56.2627ZM57.7795 47.7966C58.7624 47.8049 60.1338 47.5597 61.4553 47.061C63.0595 46.4563 64.4496 45.5649 65.3763 44.0709C65.7504 43.4662 65.6423 42.847 65.1291 42.5249C64.6013 42.1924 64.0174 42.3524 63.633 42.9612C63.2361 43.5888 62.7104 44.0771 62.0829 44.4594C60.2689 45.5628 58.2824 45.914 56.2066 45.6542C54.4653 45.434 53.0461 44.6755 52.4185 42.8802C52.1879 42.2236 51.6871 41.9576 51.0949 42.1509C50.5152 42.342 50.2679 42.874 50.4674 43.5306C50.7708 44.5322 51.3214 45.3737 52.1089 46.0594C53.6133 47.3664 55.4086 47.7924 57.7795 47.7945V47.7966ZM59.5104 54.0303C60.1816 53.9534 60.9587 53.9057 61.7192 53.7706C62.5546 53.621 63.3608 53.3488 64.0569 52.8376C64.8506 52.2537 64.8506 51.3997 64.0569 50.8179C63.7348 50.581 63.3795 50.4085 63.0075 50.261C61.4325 49.6355 59.7847 49.6688 58.1494 49.781C57.1021 49.8537 56.0632 50.0947 55.1489 50.6724C53.9479 51.4309 53.9728 52.3805 55.205 53.087C55.2653 53.1223 55.3276 53.1514 55.3879 53.1846C56.6471 53.8558 58.033 53.8973 59.5104 54.0345V54.0303ZM45.7547 47.3602C44.1485 47.354 42.8165 48.1872 42.3345 49.3592C41.8981 50.4231 42.2202 51.8527 43.1407 52.6797C43.4191 52.929 43.4482 53.0537 43.2259 53.3696C42.4093 54.5249 42.4197 56.0044 43.1989 57.0496C43.9719 58.0844 45.3973 58.4937 46.7459 58.0657C47.2986 57.8911 47.5916 57.4215 47.4939 56.8709C47.3983 56.3389 46.9266 56.0002 46.349 56.0584C46.1952 56.075 46.0435 56.1186 45.8918 56.1457C45.4908 56.2142 45.1293 56.1353 44.8674 55.8028C44.5994 55.4641 44.6472 55.0901 44.8155 54.7264C45.0545 54.207 45.5054 53.9202 46.002 53.6979C46.509 53.4693 46.7521 53.089 46.6669 52.5425C46.5859 52.0127 46.2305 51.755 45.709 51.6864C45.2186 51.6199 44.7698 51.4516 44.4477 51.0444C44.0612 50.5581 44.1319 50.0574 44.6409 49.7083C45.1043 49.3903 45.5885 49.3633 46.1163 49.5566C46.6773 49.7644 47.2259 49.5109 47.4378 48.9893C47.6581 48.449 47.4108 47.8901 46.8352 47.6345C46.4196 47.4496 45.9812 47.3644 45.7526 47.3581L45.7547 47.3602ZM32.7096 48.9207C32.346 48.9207 31.9824 48.8937 31.6208 48.9249C30.7003 49.0059 29.8151 49.2137 29.0567 49.7789C28.238 50.3877 28.1819 51.3955 28.9154 52.102C29.2603 52.4324 29.6863 52.6236 30.131 52.769C31.6042 53.2553 33.1065 53.2532 34.6234 53.0225C35.4816 52.8937 36.3127 52.6859 37.0732 52.2516C37.9605 51.7425 38.2036 50.9509 37.6758 50.2901C37.4784 50.0428 37.1979 49.8953 36.9236 49.7519C35.6021 49.0599 34.1787 48.8792 32.7138 48.9207H32.7096ZM35.0369 47.0942C35.6457 47.1005 36.2504 47.0651 36.8467 46.9467C38.9267 46.5353 40.7075 45.648 41.8337 43.7509C42.1807 43.169 42.054 42.5623 41.5532 42.2485C41.0316 41.9223 40.4124 42.0927 40.0592 42.6953C39.6332 43.4225 39.0306 43.9524 38.2846 44.3119C36.4519 45.1971 34.559 45.2906 32.6494 44.6215C31.6582 44.2745 30.8457 43.6823 30.4904 42.6142C30.2743 41.968 29.7465 41.6833 29.1668 41.8662C28.6078 42.0428 28.344 42.6184 28.5372 43.2625C28.7491 43.9711 29.1149 44.5945 29.6406 45.114C31.1387 46.5976 33.013 47.0568 35.041 47.0942H35.0369Z" fill="#FFCDCD"/>
<path d="M74.7104 65.3228C76.3228 65.2293 77.8792 64.8324 79.4418 64.4626C80.6179 64.1841 81.7877 63.8849 82.9638 63.6106C83.6204 63.4569 84.2687 63.515 84.8859 63.7935C86.1846 64.3774 86.5212 65.9213 85.5737 66.9872C84.9877 67.6459 84.2334 68.074 83.448 68.4418C80.996 69.5867 78.3758 70.1104 75.7265 70.5239C73.8647 70.8148 71.9883 70.9831 70.1099 71.1202C69.4221 71.1701 68.9982 71.5961 69.0232 72.1862C69.0481 72.7971 69.499 73.2335 70.1826 73.1441C70.7831 73.0652 70.9743 73.4059 71.1717 73.8194C72.6013 76.8345 72.8216 79.8911 71.4252 82.9768C70.7083 84.5623 69.8315 86.0771 69.5364 87.8309C69.3764 88.7826 69.1374 89.7239 68.8819 90.6548C68.4123 92.3566 67.1053 93.1503 65.366 92.8366C64.5203 92.6828 63.924 92.2194 63.579 91.4236C63.124 90.3763 62.9827 89.2626 62.885 88.1426C62.8081 87.247 62.7832 86.3493 62.7437 85.4516C62.7105 84.7181 62.3572 84.3358 61.6217 84.3067C60.7573 84.2735 59.8991 84.1862 59.0451 84.0511C58.4134 83.9493 57.8835 84.3296 57.7921 84.9259C57.7069 85.4807 58.0996 85.9981 58.7147 86.0958C59.2612 86.1831 59.8097 86.2641 60.3604 86.2974C60.643 86.314 60.7012 86.4283 60.7136 86.6672C60.7905 88.1342 60.8861 89.6013 61.2684 91.0288C61.3141 91.2013 61.258 91.3342 61.1978 91.4735C60.9235 92.0968 60.4476 92.4958 59.8056 92.7036C58.3822 93.1607 56.8009 92.5789 56.0072 91.3135C55.3443 90.2579 55.1594 89.0589 54.9973 87.86C54.7355 85.9233 54.0934 84.207 52.8114 82.6485C49.9605 79.1846 47.7787 75.3114 46.3054 71.0579C45.9667 70.0792 45.6925 69.0776 45.6343 68.0324C47.8389 68.1966 50.0394 68.4148 52.2503 68.5041C55.8472 68.6496 59.4399 68.6496 63.0263 68.2859C66.2159 67.9618 69.3515 67.3924 72.3686 66.2745C73.1603 65.9815 73.9332 65.6428 74.7166 65.3249L74.7104 65.3228Z" fill="#FDFDFD"/>
<path d="M57.7793 47.7962C55.4105 47.7941 53.6131 47.366 52.1087 46.0611C51.3212 45.3775 50.7685 44.5338 50.4672 43.5323C50.2677 42.8757 50.5129 42.3416 51.0947 42.1525C51.6869 41.9572 52.1877 42.2232 52.4183 42.8819C53.0459 44.6772 54.4651 45.4357 56.2064 45.6559C58.2822 45.9177 60.2687 45.5645 62.0827 44.4611C62.7102 44.0788 63.2359 43.5905 63.6328 42.9629C64.0193 42.3541 64.6011 42.1941 65.1289 42.5266C65.6421 42.8507 65.7502 43.4679 65.3761 44.0725C64.4494 45.5666 63.0593 46.458 61.4551 47.0627C60.1336 47.5614 58.7643 47.8066 57.7793 47.7983V47.7962Z" fill="black"/>
<path d="M59.5123 54.0299C58.0349 53.8948 56.6489 53.8512 55.3897 53.18C55.3295 53.1468 55.2651 53.1177 55.2069 53.0824C53.9747 52.378 53.9497 51.4283 55.1508 50.6678C56.0651 50.0902 57.104 49.8491 58.1513 49.7764C59.7887 49.6642 61.4364 49.6309 63.0094 50.2564C63.3813 50.4039 63.7387 50.5764 64.0587 50.8133C64.8525 51.3972 64.8525 52.2491 64.0587 52.833C63.3626 53.3463 62.5564 53.6164 61.7211 53.766C60.9606 53.9031 60.1835 53.9509 59.5123 54.0257V54.0299Z" fill="#F58C8C"/>
<path d="M45.7567 47.3623C45.9853 47.3685 46.4237 47.4537 46.8393 47.6387C47.4149 47.8943 47.6622 48.4532 47.4419 48.9935C47.23 49.515 46.6814 49.7665 46.1204 49.5607C45.5926 49.3654 45.1064 49.3945 44.6451 49.7124C44.136 50.0615 44.0653 50.5623 44.4518 51.0485C44.7739 51.4537 45.2227 51.6241 45.7131 51.6906C46.2347 51.7613 46.59 52.0168 46.671 52.5467C46.7541 53.0932 46.5131 53.4735 46.0061 53.702C45.5095 53.9244 45.0606 54.2132 44.8196 54.7306C44.6513 55.0942 44.6056 55.4683 44.8716 55.807C45.1334 56.1394 45.4949 56.2163 45.896 56.1498C46.0497 56.1249 46.1993 56.0792 46.3531 56.0626C46.9308 56.0044 47.4024 56.3431 47.498 56.875C47.5957 57.4257 47.3027 57.8932 46.75 58.0698C45.4014 58.4979 43.976 58.0885 43.203 57.0537C42.4217 56.0085 42.4113 54.5291 43.23 53.3737C43.4523 53.0579 43.4233 52.9353 43.1448 52.6839C42.2243 51.8548 41.9001 50.4252 42.3386 49.3633C42.8207 48.1914 44.1526 47.3581 45.7588 47.3644L45.7567 47.3623Z" fill="black"/>
<path d="M32.7116 48.92C34.1765 48.8785 35.6019 49.0593 36.9214 49.7512C37.1957 49.8946 37.4762 50.0421 37.6736 50.2894C38.2014 50.9502 37.9604 51.7439 37.071 52.251C36.3126 52.6852 35.4793 52.893 34.6212 53.0219C33.1043 53.2504 31.602 53.2525 30.1287 52.7684C29.6861 52.6229 29.2581 52.4317 28.9132 52.1013C28.1776 51.3948 28.2358 50.3891 29.0545 49.7782C29.8129 49.213 30.7002 49.0032 31.6186 48.9242C31.9781 48.893 32.3438 48.92 32.7074 48.92H32.7116Z" fill="#F58C8C"/>
<path d="M35.0385 47.096C33.0105 47.0565 31.1362 46.5973 29.6381 45.1157C29.1124 44.5962 28.7467 43.9729 28.5347 43.2643C28.3435 42.6201 28.6054 42.0446 29.1643 41.8679C29.7441 41.6851 30.2718 41.9698 30.4879 42.616C30.8453 43.682 31.6557 44.2742 32.6469 44.6233C34.5586 45.2923 36.4494 45.1988 38.2822 44.3136C39.0281 43.9521 39.6307 43.4243 40.0567 42.697C40.4099 42.0944 41.0291 41.924 41.5507 42.2503C42.0515 42.564 42.1782 43.1708 41.8312 43.7526C40.705 45.6498 38.9263 46.537 36.8442 46.9485C36.2479 47.0669 35.6453 47.1022 35.0344 47.096H35.0385Z" fill="black"/>
<path d="M11.0321 24.3294C10.1174 20.9159 13.5056 16.3494 18.6397 18.7372C20.861 13.4142 26.9621 14.3832 28.4661 17.9629C30.8881 23.7289 27.4014 27.0684 24.1 30.3582C23.4945 30.9621 22.6509 31.2643 21.7983 31.183C17.8512 30.8061 12.6311 30.3032 11.0321 24.3294Z" fill="#FF848C" stroke="black" stroke-width="1.72881" stroke-linecap="round" stroke-linejoin="round"/>
<path d="M24.7645 19.6452C25.2769 19.5079 25.581 18.9812 25.4437 18.4687C25.3064 17.9563 24.7797 17.6522 24.2672 17.7895C23.7548 17.9268 23.4507 18.4535 23.588 18.966C23.7253 19.4784 24.252 19.7825 24.7645 19.6452Z" fill="white"/>
<path d="M17.6813 21.8729C17.7626 22.3434 18.2098 22.6588 18.6802 22.5775C19.1507 22.4962 19.4661 22.0489 19.3848 21.5785L17.6813 21.8729ZM18.6946 16.8604C18.4818 17.41 18.179 18.2991 17.9529 19.2057C17.7382 20.0666 17.5487 21.1059 17.6813 21.8729L19.3848 21.5785C19.3211 21.2097 19.4132 20.4946 19.6303 19.624C19.8361 18.7991 20.1152 17.9793 20.3068 17.4845L18.6946 16.8604Z" fill="black"/>
</svg>
