<svg width="102" height="102" viewBox="0 0 102 102" fill="none" xmlns="http://www.w3.org/2000/svg">
<path d="M62.6136 79.4288C63.765 82.9437 69.4301 83.4552 69.2701 78.5537C69.1101 73.6523 68.092 69.0757 65.9443 68.1182C63.7966 67.1582 59.3363 69.4271 62.6136 79.4288Z" fill="white"/>
<path d="M37.3718 82.163C33.9539 81.78 32.8073 75.7126 35.3792 67.9023C36.7658 63.6868 41.3303 67.4829 40.4431 73.6812C39.5583 79.882 38.9959 82.3448 37.3718 82.163Z" fill="white"/>
<path d="M36.1162 89.5715C36.0798 89.3872 35.6726 79.8728 36.6689 69.8057C37.6651 59.741 63.7044 60.1918 64.7977 70.3802C65.8958 80.5903 65.8958 89.2394 65.8958 89.6103C65.8958 89.6103 60.9143 91.7507 51.5405 91.6392C42.1666 91.5277 36.1137 89.5715 36.1137 89.5715H36.1162Z" fill="white"/>
<path d="M65.8085 85.377C65.8982 88.2107 65.8982 89.447 65.8982 89.6069" stroke="black" stroke-width="1.81525" stroke-linecap="round" stroke-linejoin="round"/>
<path d="M47.0315 12.9997C49.0338 10.8956 49.3659 9.3442 53.002 11.2544C58.2283 14.0008 66.5695 17.7387 75.507 26.4993C84.4445 35.2574 85.8529 43.3611 84.8736 51.9156C83.8942 60.4701 78.811 67.1726 67.5415 70.0549C56.2357 72.9443 41.1362 73.1916 29.7383 67.9508C17.7949 62.4603 15.0412 51.2029 17.8046 41.3346C20.4905 31.745 28.582 26.0605 33.6071 22.7856C38.6346 19.5107 44.9929 15.1474 47.0315 12.9997Z" fill="#FFCDCD"/>
<path d="M70.5162 55.6633C71.2265 58.0074 73.3887 59.4618 73.5196 62.3707L73.5172 62.3755C73.6457 65.2189 71.9614 66.6791 71.9614 68.6156C70.2226 69.3296 67.2163 70.2392 65.7765 70.4694C65.8402 68.2477 66.7815 66.442 67.6542 64.7679L67.697 64.6857C68.6036 62.6373 67.9249 61.3671 65.9226 58.2498C65.7408 57.9661 65.5081 57.4838 65.3845 57.2026C64.0537 54.0271 65.8742 51.6151 66.7371 49.6613C67.6437 47.613 66.7298 46.1416 64.8948 43.0194C64.267 41.9479 64.0391 40.9274 64.0367 39.9505C65.5614 39.4924 67.1322 39.2839 68.7176 39.0682C69.0424 39.0245 69.3672 38.9663 69.6921 38.9033C69.5757 39.2354 69.4981 39.5918 69.486 40.0087C69.423 42.2897 72.4434 43.7514 72.6276 47.0724C72.7827 49.8746 70.8701 52.5047 70.5235 54.0755C70.3296 54.953 70.4459 55.336 70.5162 55.6633Z" fill="#C2E0F6" stroke="#4DA0DD" stroke-width="1.81525" stroke-linecap="round" stroke-linejoin="round"/>
<path d="M40.4554 66.4334C41.7838 63.6748 41.059 61.4956 40.0651 59.9563V59.9587C39.1828 58.5891 39.2216 57.5589 39.2216 57.5589C39.2337 56.5117 39.6967 55.5227 40.453 53.9495C41.3984 51.9787 40.756 50.2067 39.5803 48.4856C37.8908 46.0155 38.7004 44.5611 39.2337 43.3296C39.5997 42.4861 39.9439 40.9298 39.4131 40.1493C38.7949 40.1977 38.1453 40.2293 37.4593 40.2438C35.7333 40.2777 34.2013 40.1638 32.8657 39.9238C33.1299 40.765 33.0984 40.8522 32.3687 43.686C31.5955 46.6942 32.4803 47.7172 33.5323 49.351C34.5843 50.9848 34.4728 52.6186 33.256 54.6621C32.4051 56.0899 32.0536 57.9637 33.2244 59.6169L34.0171 60.8241C35.0692 62.4579 34.9576 64.0917 33.7408 66.1352C33.193 67.0543 32.6494 68.0874 32.7885 69.1983C33.9336 69.5938 35.8438 70.3008 39.6523 71.0469C39.3759 69.258 39.8324 67.7278 40.4554 66.4334Z" fill="#C2E0F6" stroke="#4DA0DD" stroke-width="1.81525" stroke-linecap="round" stroke-linejoin="round"/>
<path d="M47.0315 12.9997C49.0338 10.8956 49.3659 9.3442 53.002 11.2544C58.2283 14.0008 66.5695 17.7387 75.507 26.4993C84.4445 35.2574 85.8529 43.3611 84.8736 51.9156C83.8942 60.4701 78.811 67.1726 67.5415 70.0549C56.2357 72.9443 41.1362 73.1916 29.7383 67.9508C17.7949 62.4603 15.0412 51.2029 17.8046 41.3346C20.4905 31.745 28.582 26.0605 33.6071 22.7856C38.6346 19.5107 44.9929 15.1474 47.0315 12.9997Z" stroke="black" stroke-width="1.81525" stroke-linecap="round" stroke-linejoin="round"/>
<path d="M51.9671 82.151C45.9433 81.7655 42.5012 77.6107 41.7812 73.7928C41.0613 69.9725 43.386 63.6626 50.2509 62.167C50.2509 62.167 50.983 64.1038 52.9198 64.0481C52.9198 64.0481 54.1924 66.4164 56.408 64.9207C56.408 64.9207 58.1679 66.317 59.7726 63.939C59.7726 63.939 64.3468 67.2575 63.1493 74.1782C62.153 79.9354 57.1716 82.4806 51.9671 82.1485V82.151Z" fill="#FFF3D7" stroke="black" stroke-width="1.81525" stroke-linecap="round" stroke-linejoin="round"/>
<path d="M52.3162 79.2546C47.9626 78.7334 43.4684 76.0597 45.1579 69.9923C46.1542 66.4119 49.4752 65.1223 50.2145 65.0472C50.9514 64.9745 51.5065 65.6847 52.0592 66.0435C52.944 66.6156 54.5948 67.2579 56.0565 67.1028C57.3364 66.967 58.5242 66.6228 59.4308 67.7961C60.655 69.3838 60.7301 71.6382 60.4319 73.4975C59.6926 78.1105 55.8674 79.6788 52.3186 79.2546H52.3162Z" fill="#D3925E"/>
<path d="M37.7816 79.518C39.5172 79.101 40.9838 77.1157 41.8443 75.831C42.8382 74.3474 44.1423 73.133 46.4622 74.0735C48.782 75.0165 49.4753 78.0272 48.176 80.7082C47.2548 82.6087 44.9035 85.7478 41.3401 86.5162C39.842 86.8386 37.7816 86.7174 36.1308 85.9345C32.7105 84.3128 31.8087 80.6258 32.0729 77.2151C32.3081 74.1584 33.4183 71.5598 34.48 70.292" fill="white"/>
<path d="M37.7816 79.518C39.5172 79.101 40.9838 77.1157 41.8443 75.831C42.8382 74.3474 44.1423 73.133 46.4622 74.0735C48.782 75.0165 49.4753 78.0272 48.176 80.7082C47.2548 82.6087 44.9035 85.7478 41.3401 86.5162C39.842 86.8386 37.7816 86.7174 36.1308 85.9345C32.7105 84.3128 31.8087 80.6258 32.0729 77.2151C32.3081 74.1584 33.4183 71.5598 34.48 70.292" stroke="black" stroke-width="1.81525" stroke-linecap="round" stroke-linejoin="round"/>
<path d="M66.0583 79.2668C64.6475 78.765 63.6172 77.1578 62.7664 75.7398C61.7992 74.1253 60.4344 73.0539 58.1461 74.0696C55.8578 75.0877 55.3051 77.5602 56.4566 80.4764C57.3438 82.7211 59.6781 85.5427 62.9361 86.1535C64.2548 86.4008 65.4886 86.4032 66.7903 85.8311C69.7356 84.5367 71.0276 81.4096 70.7173 77.3178C70.4919 74.3435 69.0083 71.7619 67.9442 70.4189" fill="white"/>
<path d="M66.0583 79.2668C64.6475 78.765 63.6172 77.1578 62.7664 75.7398C61.7992 74.1253 60.4344 73.0539 58.1461 74.0696C55.8578 75.0877 55.3051 77.5602 56.4566 80.4764C57.3438 82.7211 59.6781 85.5427 62.9361 86.1535C64.2548 86.4008 65.4886 86.4032 66.7903 85.8311C69.7356 84.5367 71.0276 81.4096 70.7173 77.3178C70.4919 74.3435 69.0083 71.7619 67.9442 70.4189" stroke="black" stroke-width="1.81525" stroke-linecap="round" stroke-linejoin="round"/>
<path d="M69.9798 45.3076C74.3617 45.1569 77.8512 43.2103 77.7738 40.9598C77.6964 38.7093 74.0814 37.0071 69.6995 37.1579C65.3176 37.3086 61.8281 39.2551 61.9055 41.5056C61.983 43.7561 65.5979 45.4583 69.9798 45.3076Z" fill="#FFCDCD"/>
<path d="M50.889 51.6104C52.9755 52.4459 54.7302 52.7478 56.6043 51.995C58.2825 51.3223 60.0491 51.8379 60.5818 53.4999C61.0155 54.854 60.0785 56.9409 58.0575 57.8347C56.1145 58.6945 52.342 58.6838 50.2783 57.8287C48.5689 57.1181 47.0872 56.0571 47.0931 54.1492C47.102 51.8681 49.3529 50.9962 50.8868 51.6097L50.889 51.6104Z" fill="white" stroke="black" stroke-width="1.72881" stroke-linecap="round" stroke-linejoin="round"/>
<path d="M38.9511 34.2636C37.7224 34.1839 32.6332 33.964 30.0772 39.952C27.798 45.2877 31.3665 51.0103 38.1433 51.0861C44.5485 51.1582 47.4534 47.3242 47.5406 42.7772C47.6202 38.674 45.2311 34.6693 38.9511 34.2636Z" fill="#0D131A" stroke="#0D131A" stroke-width="1.55705" stroke-linecap="round" stroke-linejoin="round"/>
<path d="M36.8769 37.659C36.2436 37.6818 34.6736 37.879 34.0896 40.0444C33.6156 41.804 34.6509 43.7153 37.26 43.9201C39.7894 44.1211 40.7223 42.0808 40.8247 41.1176C41.0105 39.4111 39.9221 37.5529 36.8769 37.659Z" fill="white" stroke="white" stroke-width="1.55705" stroke-linecap="round" stroke-linejoin="round"/>
<path d="M43.6688 44.2071C42.971 44.0516 42.3225 44.3437 42.1405 44.9732C41.9053 45.7961 42.3263 46.3232 43.0734 46.3877C43.5322 46.4256 44.3476 46.6114 44.7837 45.7544C45.1136 45.1097 44.6889 44.4347 43.6688 44.2071Z" fill="white" stroke="white" stroke-width="1.55705" stroke-linecap="round" stroke-linejoin="round"/>
<path d="M37.7262 46.0496C37.1991 46.1634 36.5506 46.554 36.5392 47.3201C36.5278 48.3098 37.4607 48.526 37.8513 48.5563C38.6894 48.617 39.2355 48.3591 39.4213 47.5779C39.683 46.4782 38.6136 45.8562 37.7262 46.0496Z" fill="white" stroke="white" stroke-width="1.55705" stroke-linecap="round" stroke-linejoin="round"/>
<path d="M69.014 34.6C67.8099 34.522 62.8224 34.3064 60.3176 40.1746C58.084 45.4036 61.5812 51.0117 68.2224 51.086C74.4994 51.1566 77.3462 47.3993 77.4317 42.9433C77.5097 38.9222 75.1684 34.9977 69.014 34.6Z" fill="#0D131A" stroke="#0D131A" stroke-width="1.5259" stroke-linecap="round" stroke-linejoin="round"/>
<path d="M66.9291 37.7845C66.3085 37.8068 64.7699 38.0001 64.1976 40.1222C63.733 41.8466 64.7476 43.7196 67.3045 43.9203C69.7833 44.1173 70.6976 42.1179 70.7979 41.1739C70.98 39.5015 69.9134 37.6805 66.9291 37.7845Z" fill="white" stroke="white" stroke-width="1.5259" stroke-linecap="round" stroke-linejoin="round"/>
<path d="M73.6372 44.344C72.9534 44.1916 72.3179 44.4778 72.1395 45.0947C71.9091 45.9012 72.3216 46.4178 73.0537 46.4809C73.5034 46.5181 74.3024 46.7002 74.7298 45.8603C75.0532 45.2285 74.6369 44.567 73.6372 44.344Z" fill="white" stroke="white" stroke-width="1.5259" stroke-linecap="round" stroke-linejoin="round"/>
<path d="M67.8135 46.1505C67.297 46.262 66.6615 46.6448 66.6503 47.3955C66.6392 48.3655 67.5534 48.5773 67.9362 48.6071C68.7575 48.6665 69.2927 48.4138 69.4748 47.6482C69.7312 46.5705 68.6832 45.961 67.8135 46.1505Z" fill="white" stroke="white" stroke-width="1.5259" stroke-linecap="round" stroke-linejoin="round"/>
</svg>
