<svg width="102" height="102" viewBox="0 0 102 102" fill="none" xmlns="http://www.w3.org/2000/svg">
<path d="M84.9007 17.4128C79.6907 12.8928 69.0407 10.3728 48.7407 10.3728C45.9607 10.3728 43.3907 10.4128 40.9907 10.4828L40.7907 24.1828C40.7907 24.1828 23.1707 28.6128 22.8307 29.7728C22.1507 32.0828 22.9507 44.8328 22.9507 44.8328L7.78066 49.5928C7.78066 49.5928 6.75066 63.1128 7.76066 65.1628C9.28066 68.2528 51.8807 94.6928 54.5007 93.8828C62.6907 91.3628 83.6107 83.5428 91.6807 80.5128C92.6007 74.5528 93.1007 66.0928 93.0907 53.6828C93.0707 28.5728 89.5207 21.4328 84.9007 17.4228V17.4128Z" fill="#FBE8C2"/>
<path d="M54.5005 93.5229C54.5005 89.4729 54.7205 85.0929 54.5805 81.1829C54.5205 79.5729 54.5005 78.6229 54.5005 77.1829" stroke="black" stroke-width="1.5" stroke-linecap="round" stroke-linejoin="round"/>
<path d="M7.78076 49.5828C8.45076 48.6328 15.7208 46.5428 22.9508 44.8228C31.9908 49.8628 58.7008 65.2928 69.8508 71.4228" stroke="black" stroke-width="1.5" stroke-linecap="round" stroke-linejoin="round"/>
<path d="M22.9404 30.0627C34.4804 36.0327 59.6204 49.3427 70.5204 55.0627C70.2804 61.1327 71.2804 70.8327 70.1704 71.5427C68.7404 72.4427 56.7404 76.4727 54.5004 76.8827" stroke="black" stroke-width="1.5" stroke-linecap="round" stroke-linejoin="round"/>
<path d="M22.9508 44.8229C22.9508 44.8229 22.3208 33.1929 22.7508 30.4929C22.9108 29.5129 24.5008 28.6929 28.6708 27.6629C33.8708 26.3729 40.7908 24.1829 40.7908 24.1829C40.7908 24.1829 63.8508 36.6129 71.5608 40.5129C75.8408 42.6829 88.5508 48.7629 88.5508 48.7629C88.5508 48.7629 82.1708 51.0429 75.9408 53.2029C73.3708 54.0929 72.3608 54.4329 70.5308 55.0729" stroke="black" stroke-width="1.5" stroke-linecap="round" stroke-linejoin="round"/>
<path d="M64.8706 89.9529C58.4706 92.2729 56.6206 92.8629 54.4806 92.8929H54.4706C52.8506 92.8929 46.3206 88.9929 44.1706 87.7029C35.8606 82.7329 22.3306 74.4229 13.6206 68.8029L12.7506 68.2429C10.3606 66.7029 8.78056 65.6929 8.54056 64.7929C8.47056 64.5229 8.11056 62.7829 8.12056 54.7829C8.12056 54.2929 8.12056 53.8229 8.11056 53.3629C8.10056 52.3829 8.08056 51.1229 8.20056 50.4729C8.72056 50.7429 9.63056 51.2729 10.6406 51.8629C11.6606 52.4629 12.9406 53.2129 14.5106 54.1029C19.7406 57.0729 27.0806 61.4929 34.1906 65.7729C36.3206 67.0529 38.4506 68.3429 40.5206 69.5829L43.1706 71.1829C50.0906 75.3629 53.5206 77.3929 54.3006 77.6129C54.7006 77.7229 55.1006 77.4929 55.2206 77.1029C55.3306 76.7129 55.1006 76.2929 54.7106 76.1729C53.9306 75.9329 47.6806 72.1629 43.9506 69.9029L41.2906 68.3029C39.2206 67.0629 37.0906 65.7829 34.9606 64.4929C27.8506 60.2029 20.4906 55.7829 15.2506 52.8029C13.6806 51.9129 12.4106 51.1629 11.4006 50.5729C8.27056 48.7329 7.79056 48.4529 7.22056 49.0929C6.56056 49.8229 6.58056 51.2329 6.61056 53.3729C6.61056 53.8129 6.62056 54.2829 6.62056 54.7629C6.62056 60.2329 6.79056 64.0229 7.09056 65.1629C7.49056 66.6229 9.07056 67.6429 11.9406 69.4929L12.8106 70.0529C21.5306 75.6829 35.0806 84.0129 43.4006 88.9829C49.8106 92.8129 53.0306 94.3829 54.4806 94.3829H54.5006C56.8606 94.3529 58.7906 93.7429 65.3806 91.3529C73.9106 88.2629 85.4906 84.0129 91.4506 81.8229C91.5506 81.2829 91.6406 80.7129 91.7306 80.1229C86.0606 82.2129 73.8006 86.7129 64.8706 89.9429V89.9529Z" fill="black"/>
<path d="M40.0405 24.1729C40.0405 24.5829 40.3605 24.9229 40.7805 24.9329H40.7905C41.2005 24.9329 41.5305 24.6029 41.5405 24.1929L41.7305 11.7229C46.9505 14.0629 70.7705 24.7629 87.9505 33.1329C87.7705 36.5429 87.8005 48.2529 87.8005 48.7529C87.8005 49.1629 88.1405 49.5029 88.5505 49.5029C88.9605 49.5029 89.3005 49.1629 89.3005 48.7529C89.3005 48.6329 89.2705 36.3229 89.4305 33.1129C89.5505 33.0029 90.1605 32.8629 90.7405 32.7229C91.0305 32.6529 91.3705 32.5729 91.7505 32.4829C91.6705 31.9729 91.5805 31.4829 91.4905 31.0029C91.0805 31.1029 90.7205 31.1929 90.4005 31.2629C89.7105 31.4229 89.1105 31.5629 88.6805 31.8129C71.6405 23.5329 48.0905 12.9429 42.5205 10.4429C41.7505 10.4629 40.9905 10.4829 40.2605 10.5029C40.2605 10.5229 40.2405 10.5429 40.2405 10.5629L40.0405 24.1629V24.1729Z" fill="black"/>
<path d="M52.7006 61.3929C52.9106 62.4129 53.0606 62.7829 52.7306 64.1229C52.2906 65.9229 50.1506 67.1629 48.0506 68.2129C46.6206 68.9229 44.9906 69.7529 44.7906 69.8329C44.1206 70.1229 44.1806 70.5029 44.1606 70.8329C44.1206 71.7129 43.4006 72.4029 42.3706 72.3329C41.7006 72.2929 40.8106 71.7329 40.7906 70.4529L40.7306 71.5129C40.6206 73.2129 40.5206 75.2829 40.4506 76.0029C40.3206 77.2429 39.2806 78.6729 37.8606 78.6429C36.4406 78.6129 35.3006 77.3229 34.9206 75.7429C34.5906 74.3529 34.6906 71.1529 34.6106 71.0729C34.5306 70.9929 33.4206 70.1829 32.5006 69.6229C31.6906 69.1329 29.9106 67.8929 29.9106 68.0529C29.9106 68.2129 29.6906 69.4929 29.6006 70.7429C29.5206 72.0129 28.3306 72.6029 27.1606 72.5229C25.7106 72.4229 24.8206 71.1029 24.4206 69.3729C24.0906 67.9729 24.1306 62.9129 24.1506 60.5629L23.9106 60.6629C21.4006 60.7529 21.0406 58.7629 21.0106 58.1829C20.9806 57.6129 21.0606 56.7029 21.7306 56.1529C22.9606 55.1529 25.0906 54.3129 28.2306 53.0829C31.3506 51.8629 33.2206 51.6529 36.3606 52.3329C36.3606 52.3329 42.5506 52.9929 46.6406 55.5629C50.7406 58.1329 52.4806 60.2829 52.7006 61.3729V61.3929Z" fill="white"/>
<path d="M31.4506 55.0627C30.1906 55.4727 26.0606 57.4327 25.3106 57.7727C24.5706 58.1127 24.1706 58.5927 24.1706 59.8127C24.1706 61.0327 24.0206 67.6727 24.4206 69.3927C24.8306 71.1227 25.7106 72.4427 27.1606 72.5427C28.3306 72.6227 29.5106 72.0327 29.6006 70.7627C29.6806 69.5027 29.9106 68.2227 29.9106 68.0727C29.9106 67.9227 31.6906 69.1527 32.5006 69.6427C33.4206 70.2027 34.5306 71.0127 34.6106 71.0927C34.6906 71.1727 34.5906 74.3727 34.9206 75.7627C35.3006 77.3427 36.4406 78.6327 37.8606 78.6627C39.2806 78.6827 40.3206 77.2627 40.4506 76.0227C40.5806 74.7827 40.8206 69.6327 40.8606 69.0727C40.9006 68.6027 41.0006 68.2227 41.3606 67.9227C41.7106 67.6427 47.4306 64.8527 47.8406 64.6727" stroke="black" stroke-width="1.5" stroke-linecap="round" stroke-linejoin="round"/>
<path d="M36.4206 52.3527C34.4706 51.9127 32.6906 51.7927 30.7206 52.2827C28.9106 52.7427 27.1806 53.4527 25.4906 54.2227C24.1906 54.8227 21.7606 55.6927 21.2406 56.8027C20.3906 58.5927 21.7406 61.1627 24.1506 60.5927" stroke="black" stroke-width="1.5" stroke-linecap="round" stroke-linejoin="round"/>
<path d="M52.7008 61.3928C52.9008 62.4528 53.4608 64.1728 51.4008 66.1128C50.4408 67.0128 49.1208 67.6828 47.9008 68.3128C46.3708 69.1028 44.9208 69.7628 44.5608 69.9828C44.1508 70.2228 44.1908 70.4928 44.1608 70.9028C44.0908 71.9828 43.0408 72.5528 42.1408 72.3028C41.8608 72.2328 40.8808 71.9628 40.8008 70.5328" stroke="black" stroke-width="1.5" stroke-linecap="round" stroke-linejoin="round"/>
<path d="M34.9306 51.8728C28.0806 46.0728 29.1806 38.2528 29.3406 35.9228C29.5506 32.7328 30.4806 31.6428 35.2706 30.2828C37.9406 29.5228 42.1506 28.9628 45.3006 28.8628C48.4506 28.7628 50.9406 29.2728 54.5406 29.6728C58.1506 30.0828 60.2806 29.2128 60.5906 29.4728C64.0506 32.3128 66.4906 36.8428 68.0806 40.9728C69.2506 44.0228 69.4406 47.5328 68.0506 50.5528C67.3906 51.9728 66.8806 52.8328 66.7806 53.8528C66.3506 58.0928 62.9706 60.3528 60.9406 61.1628C58.9106 61.9728 55.7306 62.2428 52.3606 61.3928C52.3606 61.3928 35.1606 52.0628 34.9406 51.8728H34.9306Z" fill="#FFCDCD" stroke="black" stroke-width="1.5" stroke-linecap="round" stroke-linejoin="round"/>
<path d="M44.8506 45.9229C45.1206 46.1629 47.9306 47.7529 48.0306 47.8229" stroke="black" stroke-width="1.5" stroke-linecap="round" stroke-linejoin="round"/>
<path d="M55.8407 38.6027C55.1607 39.0027 55.0407 40.5427 59.1707 42.6227C63.1407 44.6227 65.3307 44.8027 65.8107 44.1627C66.2807 43.5227 65.9407 42.2027 61.7807 40.1027C57.9907 38.1927 56.7007 38.1027 55.8507 38.6027H55.8407Z" fill="white" stroke="black" stroke-width="1.5" stroke-linecap="round" stroke-linejoin="round"/>
<path d="M57.5806 41.4227L60.4406 39.5127" stroke="black" stroke-width="1.5" stroke-linecap="round" stroke-linejoin="round"/>
<path d="M60.3403 42.9128L63.0403 41.0828" stroke="black" stroke-width="1.5" stroke-linecap="round" stroke-linejoin="round"/>
<path d="M40.4406 31.5728C39.7606 31.9728 39.7406 33.2028 43.8706 35.2928C47.8406 37.2928 50.1306 37.1728 50.6106 36.5228C51.0906 35.8828 50.6406 34.8628 46.4806 32.7628C42.6906 30.8528 41.3006 31.0728 40.4406 31.5728Z" fill="white" stroke="black" stroke-width="1.5" stroke-linecap="round" stroke-linejoin="round"/>
<path d="M42.2808 34.0829L45.7108 32.4929" stroke="black" stroke-width="1.5" stroke-linecap="round" stroke-linejoin="round"/>
<path d="M45.1406 35.6028L48.4206 33.8228" stroke="black" stroke-width="1.5" stroke-linecap="round" stroke-linejoin="round"/>
<g style="mix-blend-mode:multiply" opacity="0.25">
<path d="M22.9404 44.8227V30.0627L70.5204 55.0627V71.6027" fill="#A47C36"/>
</g>
<g style="mix-blend-mode:multiply" opacity="0.25">
<path d="M7.64037 65.1528C6.41037 62.4428 7.77037 49.5828 7.77037 49.5828L21.6504 57.3028L54.4904 76.5328C54.4904 76.5328 55.7304 93.1228 54.4904 94.1128C53.6004 94.8228 9.04037 68.2428 7.63037 65.1528H7.64037Z" fill="#A47C36"/>
</g>
<g style="mix-blend-mode:multiply" opacity="0.25">
<path d="M88.5405 48.7528L88.3105 32.4828L40.9905 10.5828L40.7905 24.1828" fill="#A47C36"/>
</g>
</svg>
