<svg width="102" height="102" viewBox="0 0 102 102" fill="none" xmlns="http://www.w3.org/2000/svg">
<path d="M51.5402 90.061C55.8727 90.061 63.0706 88.8874 64.2441 87.742V83.498L38.7238 83.5985C38.7238 83.5985 38.9851 86.8539 39.1016 87.3924C39.2182 87.9269 45.0456 90.065 51.5402 90.065" fill="white"/>
<path d="M39.0615 84.2451C39.0615 85.1775 39.1057 87.7898 39.1057 87.7898" stroke="#0D131A" stroke-width="1.65011" stroke-linecap="round" stroke-linejoin="round"/>
<path d="M64.2441 88.1394C64.2441 88.1394 64.2924 85.3503 64.224 82.959" stroke="#0D131A" stroke-width="1.65011" stroke-linecap="round" stroke-linejoin="round"/>
<path d="M34.5 73.6467C38.1572 64.0576 48.2568 64.2183 51.9904 64.6845C64.6822 66.28 68.5967 72.7545 68.3797 79.8681C68.3797 79.8681 68.0983 81.556 67.8693 82.1749C67.7567 82.4844 50.8169 83.256 50.8169 83.256L33.7685 80.8607C33.7685 80.8607 32.9527 77.3482 34.5 73.6427" fill="white"/>
<path d="M34.5 73.2458C38.2416 63.9339 48.723 64.8381 51.3514 64.8743C63.5851 65.0431 68.5967 71.7547 68.3756 78.8642" stroke="#0D131A" stroke-width="1.65011" stroke-linecap="round" stroke-linejoin="round"/>
<path d="M44.049 68.3705C44.049 68.3705 40.866 71.4048 40.5123 73.9849C40.1868 76.3802 41.4929 87.2916 41.7622 87.8945C42.0315 88.4973 43.7435 90.3742 49.137 90.3661C54.3616 90.3621 56.1018 88.6179 56.3911 87.7176C56.6162 87.0103 57.3758 75.7452 57.0623 73.6473C56.572 70.3638 52.7861 68.2539 52.7861 68.2539L44.045 68.3664L44.049 68.3705Z" fill="white" stroke="#0D131A" stroke-width="1.65011" stroke-linecap="round" stroke-linejoin="round"/>
<path d="M43.5668 84.5503C43.619 83.0674 44.3987 81.3231 48.8919 81.4477C53.5659 81.5763 55.0971 82.3922 55.0891 84.4659C55.0891 84.9161 55.1574 84.1444 54.9524 85.5109C54.6992 87.1868 52.7219 88.1593 49.5309 88.091C46.4443 88.0267 43.8682 87.5726 43.6311 85.4586C43.5226 84.5101 43.5386 85.3863 43.5708 84.5463" fill="#916233"/>
<path d="M54.2611 81.9338C53.8672 81.7127 52.0989 82.4924 51.705 83.1756C51.3956 83.7101 52.6897 85.4624 53.2363 85.4986C53.6864 85.5307 55.2739 84.7832 55.3221 84.104C55.3663 83.477 54.7715 82.2231 54.2611 81.9338Z" fill="white" stroke="#0D131A" stroke-width="1.65011" stroke-linecap="round" stroke-linejoin="round"/>
<path d="M47.3243 84.6027C47.7343 84.4138 48.1402 82.5249 47.8187 81.8055C47.5655 81.2428 45.3912 81.2629 45.0376 81.6849C44.7482 82.0305 44.4227 83.7547 44.9451 84.1887C45.4274 84.5906 46.7898 84.8478 47.3243 84.6027Z" fill="white" stroke="#0D131A" stroke-width="1.65011" stroke-linecap="round" stroke-linejoin="round"/>
<path d="M48.313 69.7852C49.4303 75.8377 50.8289 83.0557 50.9495 83.7992C51.283 85.7966 48.7511 86.2668 48.2045 84.5307C47.9674 83.7831 46.4563 76.3762 45.2546 70.1509C45.2546 70.1509 47.7383 69.8937 48.309 69.7852H48.313Z" fill="#83CCD2" stroke="#0D131A" stroke-width="1.38305" stroke-linecap="round" stroke-linejoin="round"/>
<path d="M39.9656 78.3691C39.9656 78.3691 40.4117 79.1528 42.582 79.6271C45.339 80.2259 47.2761 81.2829 46.7938 83.5817C46.3276 85.8082 44.6075 86.1739 41.0106 85.6233C38.5992 85.2536 30.6819 83.6822 34.4999 73.249" fill="white"/>
<path d="M39.9656 78.3691C39.9656 78.3691 40.4117 79.1528 42.582 79.6271C45.339 80.2259 47.2761 81.2829 46.7938 83.5817C46.3276 85.8082 44.6075 86.1739 41.0106 85.6233C38.5992 85.2536 30.6819 83.6822 34.4999 73.249" stroke="#0D131A" stroke-width="1.65011" stroke-linecap="round" stroke-linejoin="round"/>
<path d="M62.307 77.666C62.307 77.666 61.5474 80.3547 57.3758 80.9294C53.9918 81.3956 53.4211 82.8464 53.4975 83.9516C53.6743 86.5037 56.0937 87.215 60.2292 86.7569C64.8269 86.2505 67.8531 84.2089 68.3756 78.8677" fill="white"/>
<path d="M62.307 77.666C62.307 77.666 61.5474 80.3547 57.3758 80.9294C53.9918 81.3956 53.4211 82.8464 53.4975 83.9516C53.6743 86.5037 56.0937 87.215 60.2292 86.7569C64.8269 86.2505 67.8531 84.2089 68.3756 78.8677" stroke="#0D131A" stroke-width="1.65011" stroke-linecap="round" stroke-linejoin="round"/>
<path d="M53.4814 13.1862C52.3601 12.5753 50.8571 12.1493 50.1497 13.2505C49.4384 14.3517 48.3251 15.9512 43.9887 18.8408C40.1586 21.3929 31.7992 24.6 25.1278 31.2915C20.1885 36.2509 15.193 46.5072 19.9554 57.1856C24.5852 67.5625 40.5806 69.6764 49.7237 69.7126C52.0346 69.7206 52.7339 69.7809 55.0488 69.7528C57.3637 69.7246 73.4314 70.6771 80.3601 60.6499C88.9807 48.1711 82.0641 32.6379 73.0898 25.038C66.4907 19.2709 55.4708 14.2713 53.4814 13.1862Z" fill="#FFCDCD" stroke="#0D131A" stroke-width="1.65011" stroke-linecap="round" stroke-linejoin="round"/>
<path d="M42.6263 69.765C42.9518 70.1348 45.0015 70.7095 48.719 70.7256C53.1077 70.7416 54.7514 70.0464 55.0207 69.6123C55.0207 69.6123 55.4989 67.1688 55.0327 66.0274C54.2249 64.0501 43.8601 64.1707 42.6423 65.9832C42.2364 66.5861 42.1279 69.1984 42.6263 69.7691V69.765Z" fill="white" stroke="#0D131A" stroke-width="1.65011" stroke-linecap="round" stroke-linejoin="round"/>
<path d="M42.6423 65.9791C42.6383 67.1164 44.909 67.5625 48.8677 67.5746C52.2155 67.5866 55.0327 67.1285 55.0368 66.0233C55.0368 65.1512 53.7386 64.275 48.4778 64.259C45.331 64.2469 42.6464 64.8739 42.6423 65.9791Z" fill="white" stroke="#0D131A" stroke-width="1.65011" stroke-linecap="round" stroke-linejoin="round"/>
<path d="M46.6251 51.7797C47.5173 50.0355 50.1819 50.7991 49.3017 53.0618C48.8677 54.179 47.0672 58.4713 47.0672 58.4713L46.7859 61.7306L47.4329 65.1588C47.3365 65.1789 46.7537 65.5285 45.8374 65.5245C44.6558 65.5245 44.2901 65.2432 44.2901 65.2432L43.627 61.8391L43.9605 57.9287C43.9605 57.9287 46.3036 52.4027 46.6211 51.7797H46.6251Z" fill="#83CCD2" stroke="#0D131A" stroke-width="1.38305" stroke-linecap="round" stroke-linejoin="round"/>
<path d="M43.6309 61.8435C43.7756 61.7591 44.7562 60.9955 46.7898 61.731" stroke="#0D131A" stroke-width="1.38305" stroke-linecap="round" stroke-linejoin="round"/>
<path d="M43.9645 57.9332C43.9645 57.9332 45.5841 57.5353 47.0671 58.4757" stroke="#0D131A" stroke-width="1.38305" stroke-linecap="round" stroke-linejoin="round"/>
<path d="M43.7957 59.9265C44.2338 59.621 45.5279 59.3638 46.9345 60.047" stroke="#0D131A" stroke-width="1.38305" stroke-linecap="round" stroke-linejoin="round"/>
<path d="M76.6145 56.8717C76.293 58.5758 73.6325 58.833 70.4253 58.7044C67.1017 58.5718 64.6341 58.0573 64.7144 56.1363C64.7667 54.8462 66.0568 53.4114 70.8915 53.8415C74.0906 54.1228 77.0526 54.5809 76.6185 56.8758" fill="#F58C8C"/>
<path d="M35.5127 54.2799C35.1912 55.984 32.5307 56.2412 29.3236 56.1126C25.9999 55.98 23.5323 55.4655 23.6127 53.5445C23.6649 52.2544 24.955 50.8196 29.7898 51.2497C32.9888 51.531 35.9508 51.9891 35.5168 54.284" fill="#F58C8C"/>
<path d="M66.3741 32.3127C65.1443 32.2564 58.5131 32.4895 56.2946 37.5012C53.4733 43.8792 57.436 51.037 65.4699 51.3585C74.0784 51.7041 75.6619 45.0889 75.6981 41.6206C75.7302 38.7551 73.3952 32.6382 66.3741 32.3127Z" fill="#0D131A" stroke="#0D131A" stroke-width="1.65011" stroke-linecap="round" stroke-linejoin="round"/>
<path d="M63.2233 35.8895C63.2233 35.8895 60.4382 35.4434 59.8876 38.6264C59.5098 40.8047 61.1455 42.1229 63.806 41.7411C65.3533 41.5201 66.764 41.1222 66.7881 38.8234C66.8122 36.9345 65.1685 35.9056 63.2233 35.8895Z" fill="white" stroke="white" stroke-width="1.65011" stroke-linecap="round" stroke-linejoin="round"/>
<path d="M64.6581 44.3048C64.3366 44.3048 63.0827 44.3611 62.8898 45.7998C62.6808 47.3632 64.1718 47.745 65.056 47.6606C66.1813 47.5561 66.6193 46.0088 66.1652 45.193C65.7111 44.3852 64.9796 44.3048 64.6581 44.3008V44.3048Z" fill="white" stroke="white" stroke-width="1.65011" stroke-linecap="round" stroke-linejoin="round"/>
<path d="M70.7144 41.4476C70.0352 41.4396 69.2515 41.5561 69.0064 42.6372C68.8255 43.429 69.1752 44.3573 70.5336 44.3734C71.4258 44.3855 72.1291 43.8751 72.0166 42.7578C71.9402 42.0143 71.4579 41.4597 70.7184 41.4476H70.7144Z" fill="white" stroke="white" stroke-width="1.65011" stroke-linecap="round" stroke-linejoin="round"/>
<path d="M36.847 31.6254C35.5449 31.541 30.1515 31.3079 27.4427 37.6538C25.0273 43.3084 28.8092 49.373 35.991 49.4534C42.779 49.5298 45.8575 45.4666 45.9499 40.6479C46.0343 36.2994 43.5024 32.0554 36.847 31.6254Z" fill="#0D131A" stroke="#0D131A" stroke-width="1.65011" stroke-linecap="round" stroke-linejoin="round"/>
<path d="M34.5924 35.0691C33.9213 35.0932 32.2574 35.3022 31.6385 37.597C31.1361 39.4618 32.2333 41.4873 34.9983 41.7043C37.679 41.9173 38.6676 39.7551 38.7761 38.7343C38.9731 36.9258 37.8196 34.9565 34.5924 35.0691Z" fill="white" stroke="white" stroke-width="1.65011" stroke-linecap="round" stroke-linejoin="round"/>
<path d="M41.8466 42.1627C41.1071 41.9979 40.4199 42.3074 40.227 42.9745C39.9778 43.8466 40.4239 44.4053 41.2156 44.4736C41.7019 44.5138 42.566 44.7107 43.0282 43.8024C43.3778 43.1192 42.9277 42.4038 41.8466 42.1627Z" fill="white" stroke="white" stroke-width="1.65011" stroke-linecap="round" stroke-linejoin="round"/>
<path d="M35.5489 44.1162C34.9903 44.2368 34.303 44.6507 34.291 45.4625C34.2789 46.5115 35.2676 46.7406 35.6815 46.7727C36.5697 46.837 37.1484 46.5637 37.3454 45.7358C37.6227 44.5703 36.4893 43.9112 35.5489 44.1162Z" fill="white" stroke="white" stroke-width="1.65011" stroke-linecap="round" stroke-linejoin="round"/>
<path d="M45.2266 48.2235C44.7885 48.6777 44.3585 48.8143 43.9887 49.6824C43.5145 50.7956 44.037 51.7321 45.315 52.0254C46.593 52.3188 47.1275 51.3422 49.6595 51.9491C51.5644 52.4032 51.6529 52.6564 52.1713 52.9176C52.8947 53.2753 54.2169 53.4522 52.7621 49.8271C51.3112 46.202 46.0183 47.6126 45.4275 48.2275" fill="#FFCDCD"/>
<path d="M45.5681 47.7734C45.5681 47.7734 44.1816 48.3602 43.9807 49.7668C43.848 50.6952 44.1896 52.3269 46.3317 51.9129C47.0592 51.7723 48.0679 51.2096 50.3225 52.1018C51.1545 52.4314 51.9904 52.8011 51.9904 52.8011" stroke="#0D131A" stroke-width="1.65011" stroke-linecap="round" stroke-linejoin="round"/>
</svg>
