<svg width="102" height="102" viewBox="0 0 102 102" fill="none" xmlns="http://www.w3.org/2000/svg">
<path d="M69.5127 64.3278L68.2118 45.3135L34.8359 52.5073L38.3613 67.4499L69.5127 64.3278Z" fill="#FAAA30"/>
<path d="M38.3612 50.9591C38.3612 50.9591 26.4149 43.7089 22.972 43.0802C18.9957 42.356 14.1565 47.2733 18.3453 51.8957C22.5384 56.5224 30.5777 60.6939 34.6234 63.2826C36.9303 64.7612 37.8799 65.9884 38.8425 68.7332" fill="#FAAA30"/>
<path d="M38.3612 50.9591C38.3612 50.9591 26.4149 43.7089 22.972 43.0802C18.9957 42.356 14.1565 47.2733 18.3453 51.8957C22.5384 56.5224 30.5777 60.6939 34.6234 63.2826C36.9303 64.7612 37.8799 65.9884 38.8425 68.7332" stroke="#0D131A" stroke-width="1.72881" stroke-linecap="round" stroke-linejoin="round"/>
<path d="M40.7889 18.1077C40.1298 15.5797 37.4283 11.8766 32.897 13.9666C28.396 16.0437 29.7445 20.9653 31.2449 22.4222" fill="#FAAA30"/>
<path d="M40.7889 18.1077C40.1298 15.5797 37.4283 11.8766 32.897 13.9666C28.396 16.0437 29.7445 20.9653 31.2449 22.4222" stroke="#0D131A" stroke-width="1.72881" stroke-linecap="round" stroke-linejoin="round"/>
<path d="M54.2568 16.5513C54.3219 13.9409 56.1084 9.71738 60.9953 10.719C65.8519 11.7164 65.6567 16.8158 64.5293 18.5763" fill="#FAAA30"/>
<path d="M54.2568 16.5513C54.3219 13.9409 56.1084 9.71738 60.9953 10.719C65.8519 11.7164 65.6567 16.8158 64.5293 18.5763" stroke="#0D131A" stroke-width="1.72881" stroke-linecap="round" stroke-linejoin="round"/>
<path d="M26.0531 39.1209C24.4227 24.9805 34.344 15.4235 47.0361 13.9578C59.3249 12.5399 71.5444 19.3651 73.1921 33.6833C74.8486 48.0535 64.3723 56.327 52.0834 57.7449C39.9897 59.1412 27.7096 53.4868 26.0531 39.1209Z" fill="#FAAA30" stroke="#0D131A" stroke-width="1.72881" stroke-linecap="round" stroke-linejoin="round"/>
<path d="M54.4293 27.9378C54.4293 27.9378 58.0891 27.3654 62.4036 27.0488L54.4293 27.9378Z" fill="#0D131A"/>
<path d="M54.4293 27.9378C54.4293 27.9378 58.0891 27.3654 62.4036 27.0488" stroke="#0D131A" stroke-width="1.98814" stroke-linecap="round" stroke-linejoin="round"/>
<path d="M48.4939 39.0385C45.2374 38.31 43.078 40.3827 43.0996 42.4901C43.117 44.2073 44.7908 45.7293 46.6076 45.6816C48.572 45.6295 49.7037 44.4718 50.0463 43.2533C50.571 44.4067 51.6507 45.1916 53.602 44.9444C55.4058 44.7146 56.7761 43.4224 56.6633 41.3323C56.5463 39.2293 54.0486 37.0178 50.5319 38.8867L49.5519 39.4461" fill="white"/>
<path d="M48.4939 39.0385C45.2374 38.31 43.078 40.3827 43.0996 42.4901C43.117 44.2073 44.7908 45.7293 46.6076 45.6816C48.572 45.6295 49.7037 44.4718 50.0463 43.2533C50.571 44.4067 51.6507 45.1916 53.602 44.9444C55.4058 44.7146 56.7761 43.4224 56.6633 41.3323C56.5463 39.2293 54.0486 37.0178 50.5319 38.8867L49.5519 39.4461" stroke="#0D131A" stroke-width="1.72881" stroke-linecap="round" stroke-linejoin="round"/>
<path d="M34.4086 30.2922C34.4086 30.2922 38.0683 29.7199 42.3829 29.4033L34.4086 30.2922Z" fill="#0D131A"/>
<path d="M34.4086 30.2922C34.4086 30.2922 38.0683 29.7199 42.3829 29.4033" stroke="#0D131A" stroke-width="1.98814" stroke-linecap="round" stroke-linejoin="round"/>
<path d="M38.1123 66.9086C39.9552 70.7245 39.9552 75.928 38.728 79.0977C36.7117 84.3055 34.8341 89.1534 37.8565 91.3779C39.4825 92.5747 43.0209 92.7351 45.0502 90.6668C46.9582 88.7198 48.2981 84.8172 49.7117 83.2735C50.5702 82.3369 52.2831 81.9943 54.9802 81.8339C57.3998 81.6908 60.2487 81.7558 60.2487 81.7558C60.5392 83.7678 58.9391 88.2472 60.3571 90.6668C61.8791 93.2642 65.7167 93.0213 67.3341 91.8115C69.4631 90.2158 70.2437 86.5257 70.7987 84.7348C71.319 83.0567 71.8654 79.7222 72.2513 74.0851C72.5852 69.2372 72.0345 63.2445 73.5175 60.2092C75.0569 57.0524 76.761 54.2946 78.9378 47.4173C81.6479 38.8446 80.8544 34.7859 77.7453 33.407C74.84 32.1148 71.1586 34.2483 70.1569 40.8003C69.0729 47.8726 65.4175 54.1428 65.4175 54.1428" fill="#FAAA30"/>
<path d="M38.1123 66.9086C39.9552 70.7245 39.9552 75.928 38.728 79.0977C36.7117 84.3055 34.8341 89.1534 37.8565 91.3779C39.4825 92.5747 43.0209 92.7351 45.0502 90.6668C46.9582 88.7198 48.2981 84.8172 49.7117 83.2735C50.5702 82.3369 52.2831 81.9943 54.9802 81.8339C57.3998 81.6908 60.2487 81.7558 60.2487 81.7558C60.5392 83.7678 58.9391 88.2472 60.3571 90.6668C61.8791 93.2642 65.7167 93.0213 67.3341 91.8115C69.4631 90.2158 70.2437 86.5257 70.7987 84.7348C71.319 83.0567 71.8654 79.7222 72.2513 74.0851C72.5852 69.2372 72.0345 63.2445 73.5175 60.2092C75.0569 57.0524 76.761 54.2946 78.9378 47.4173C81.6479 38.8446 80.8544 34.7859 77.7453 33.407C74.8401 32.1148 71.1586 34.2483 70.1569 40.8003C69.0729 47.8726 65.4175 54.1428 65.4175 54.1428" stroke="#0D131A" stroke-width="1.72881" stroke-linecap="round" stroke-linejoin="round"/>
<path d="M59.5978 60.0693C59.5978 60.0693 62.1475 61.587 63.2532 64.8305C64.5324 68.5857 64.1205 71.7207 62.9454 73.7718C61.8353 75.7057 59.832 77.8652 55.9684 78.3291C52.2696 78.7758 48.5621 77.4532 46.7019 75.3328C44.9414 73.3295 44.3604 68.8502 44.859 66.3135C45.323 63.9806 47.0141 61.8862 47.5215 61.4006L50.8647 64.1107L53.6052 60.6677L57.2606 63.1827C57.2606 63.1827 58.1885 62.116 59.5978 60.0737V60.0693Z" fill="white"/>
<path d="M47.3402 38.7438C47.3012 39.5504 48.6454 41.081 49.6861 40.9553C50.6227 40.8426 51.568 39.3422 51.581 38.2408C51.594 36.9573 47.4573 36.5063 47.3445 38.7438H47.3402Z" fill="#0D131A"/>
<path d="M38.1736 35.3445C38.0739 34.4685 38.7026 33.675 39.5785 33.5709C40.4545 33.4712 41.248 34.1 41.3521 34.9759C41.4518 35.8518 40.823 36.6453 39.9471 36.7494C39.0712 36.8491 38.2777 36.2204 38.1736 35.3445Z" fill="#0D131A"/>
<path d="M57.0789 33.1638C56.9791 32.2879 57.6079 31.4944 58.4838 31.3903C59.3597 31.2906 60.1533 31.9193 60.2573 32.7952C60.3571 33.6711 59.7283 34.4647 58.8524 34.5687C57.9765 34.6685 57.183 34.0397 57.0789 33.1638Z" fill="#0D131A"/>
<path d="M60.3182 80.8916C60.3182 80.8916 60.3746 80.9827 60.2878 82.3226" stroke="#0D131A" stroke-width="1.72881" stroke-linecap="round" stroke-linejoin="round"/>
<path d="M78.6873 29.5687C78.6873 29.5687 79.6456 26.4639 81.5795 27.11C83.3314 27.6954 83.314 29.4212 82.8804 30.4359C82.8804 30.4359 85.4995 28.1724 86.9261 29.5947C88.1359 30.8002 87.0692 32.4046 85.842 32.5303C85.842 32.5303 88.9468 33.5103 89.2373 35.4399C89.5061 37.2308 87.6459 37.5907 86.7787 37.0833C86.7787 37.0833 90.1176 42.6337 87.3554 43.3708C86.2713 43.6614 85.4951 42.9025 85.1352 41.7448C85.1352 41.7448 87.0128 46.2241 83.8864 47.0566C81.8484 47.5987 81.7183 44.9622 81.5752 44.0213C81.5752 44.0213 82.243 49.3158 79.1903 49.5846C76.9311 49.7841 76.298 47.6333 76.5148 46.6924C76.5148 46.6924 76.1983 49.2638 73.9131 48.7174C72.1049 48.2838 72.4692 44.9579 72.686 44.0213C72.686 44.0213 70.9688 46.8745 68.8571 45.539C66.6499 44.1427 68.8571 41.077 69.5812 40.5263C69.5812 40.5263 67.0662 42.3041 65.8954 40.5523C64.5772 38.5837 67.6299 35.7088 69.0045 35.3488C69.0045 35.3488 66.4852 35.9819 66.4852 33.6967C66.4852 31.7541 69.8718 30.2191 71.5369 31.0126C71.5369 31.0126 68.6793 30.4749 69.9455 28.3892C71.19 26.3382 74.208 28.3936 74.4248 29.3779C74.4248 29.3779 73.6833 26.3339 76.1593 26.026C77.8461 25.8178 78.8347 27.3268 78.6873 29.5687Z" fill="#FB8183" stroke="#0D131A" stroke-width="1.72881" stroke-linecap="round" stroke-linejoin="round"/>
<path d="M78.8348 37.6599C78.8348 37.6599 78.4012 41.7273 80.8078 41.7143C82.5943 41.7056 82.8458 39.1776 82.3558 37.2783" fill="#F98284"/>
<path d="M78.8348 37.6599C78.8348 37.6599 78.4012 41.7273 80.8078 41.7143C82.5943 41.7056 82.8458 39.1776 82.3558 37.2783" stroke="#0D131A" stroke-width="1.72881" stroke-linecap="round" stroke-linejoin="round"/>
<path d="M74.0645 34.4902C71.9484 34.7894 69.6893 37.1353 70.7907 38.6313C71.9528 40.2097 73.9561 38.8481 75.5302 37.1744" fill="#F98284"/>
<path d="M74.0645 34.4902C71.9484 34.7894 69.6893 37.1353 70.7907 38.6313C71.9528 40.2097 73.9561 38.8481 75.5302 37.1744" stroke="#0D131A" stroke-width="1.72881" stroke-linecap="round" stroke-linejoin="round"/>
<path d="M15.7081 40.7813C15.7081 40.7813 14.8062 37.1865 16.7575 36.6055C18.7955 35.9984 19.641 38.5481 19.4633 39.6018C19.4633 39.6018 20.582 35.8553 22.659 36.1285C24.3545 36.3496 24.8011 37.9627 23.9469 38.8516C23.9469 38.8516 26.0803 37.1605 27.5503 38.444C28.9119 39.6322 27.7281 41.1108 26.7394 41.2886C26.7394 41.2886 32.8752 43.3656 31.2448 45.7115C30.603 46.6308 29.5189 46.5571 28.4999 45.9067C28.4999 45.9067 32.8318 48.1095 30.9802 50.7676C29.7748 52.4977 27.9709 50.5681 27.2554 49.948C27.2554 49.948 31.1884 53.5558 29.0333 55.7369C27.4376 57.3499 25.5643 56.1185 25.1264 55.2599C25.1264 55.2599 26.5486 57.428 24.4499 58.486C22.7891 59.3229 20.9202 56.5521 20.4779 55.6935C20.4779 55.6935 21.0113 58.9804 18.5353 59.3273C15.9509 59.6872 15.6517 55.9233 15.8469 55.0344C15.8469 55.0344 15.0793 58.0134 13.05 57.4367C10.7691 56.7862 11.2418 52.6191 12.057 51.457C12.057 51.457 10.5437 53.5688 9.06501 51.8256C7.80751 50.3426 9.40323 46.9821 11.1854 46.5137C11.1854 46.5137 8.65741 47.9534 8.27582 45.5381C7.9029 43.1705 11.5323 42.7846 12.3345 43.396C12.3345 43.396 9.80217 41.5531 11.4933 39.7189C12.6467 38.4701 14.3725 38.9817 15.7124 40.7856L15.7081 40.7813Z" fill="#FB8183" stroke="#0D131A" stroke-width="1.72881" stroke-linecap="round" stroke-linejoin="round"/>
<path d="M15.0908 50.0176C15.0908 52.1857 16.1749 55.2817 18.4167 54.6747C20.6585 54.0676 19.6438 51.3922 19.1408 50.3081" fill="#F98284"/>
<path d="M15.0908 50.0176C15.0908 52.1857 16.1749 55.2817 18.4167 54.6747C20.6585 54.0676 19.6438 51.3922 19.1408 50.3081" stroke="#0D131A" stroke-width="1.72881" stroke-linecap="round" stroke-linejoin="round"/>
<path d="M23.3641 46.7704C23.3641 46.7704 26.5122 49.2247 27.7004 47.4988C29.2007 45.3264 26.239 43.6309 24.9295 43.6006" fill="#F98284"/>
<path d="M23.3641 46.7704C23.3641 46.7704 26.5122 49.2247 27.7004 47.4988C29.2007 45.3264 26.239 43.6309 24.9295 43.6006" stroke="#0D131A" stroke-width="1.72881" stroke-linecap="round" stroke-linejoin="round"/>
<path d="M74.8222 43.4053C74.8222 43.4053 74.497 44.3246 74.497 45.6818" stroke="white" stroke-width="1.72881" stroke-linecap="round" stroke-linejoin="round"/>
<path d="M84.089 34.082C84.089 34.082 85.6587 34.2425 86.4219 35.0013" stroke="white" stroke-width="1.72881" stroke-linecap="round" stroke-linejoin="round"/>
<path d="M25.2084 52.1162C25.2084 52.1162 25.7374 53.0919 26.4355 53.6339" stroke="white" stroke-width="1.72881" stroke-linecap="round" stroke-linejoin="round"/>
<path d="M16.8254 49.5156C16.8254 49.5156 16.8948 50.565 17.116 51.5406" stroke="white" stroke-width="1.72881" stroke-linecap="round" stroke-linejoin="round"/>
<path d="M21.0524 40.7511C21.0524 40.7511 21.3212 39.5586 22.028 38.6914" stroke="white" stroke-width="1.72881" stroke-linecap="round" stroke-linejoin="round"/>
</svg>
