<svg width="102" height="102" viewBox="0 0 102 102" fill="none" xmlns="http://www.w3.org/2000/svg">
<path d="M98.1102 56.187C98.1102 58.1864 96.9081 59.8058 95.4257 59.8058C93.9433 59.8058 92.7412 58.1864 92.7412 56.187C92.7412 54.1876 93.9433 52.917 95.4257 52.917C96.9081 52.917 98.1102 54.1876 98.1102 56.187Z" fill="white" stroke="black" stroke-width="1.72881" stroke-linecap="round" stroke-linejoin="round"/>
<path d="M82.8431 15.0027C85.92 15.7003 88.2028 16.4975 89.8128 17.2013C92.9022 18.5498 95.0199 20.49 95.0199 23.788C95.0199 47.3413 95.0946 79.7267 94.9918 84.3764C94.8891 89.0976 92.1112 92.4454 86.3498 89.9291C83.6279 88.7395 80.9217 87.5872 78.2154 86.1484C75.9731 84.9587 74.3879 82.8379 74.3848 80.2998C74.363 56.6748 74.5374 28.2415 75.1821 20.7392C75.5589 16.348 78.5424 14.031 82.84 15.0058L82.8431 15.0027Z" fill="#FFEDAB" stroke="black" stroke-width="1.72881" stroke-linecap="round" stroke-linejoin="round"/>
<path d="M86.5511 20.2998C86.5511 20.2998 90.5966 22.0843 90.8426 23.875C91.0357 25.2858 91.2848 33.14 91.1976 35.6937" stroke="black" stroke-width="1.72881" stroke-linecap="round" stroke-linejoin="round"/>
<path d="M91.0804 73.4834C91.0804 73.4834 90.7876 81.2566 90.9714 84.0844" stroke="black" stroke-width="1.72881" stroke-linecap="round" stroke-linejoin="round"/>
<path d="M67.7097 85.7478C66.6701 85.9126 60.0053 86.6714 47.256 86.9263C40.5795 87.0601 28.699 86.8921 19.3513 86.3075C17.6078 86.1987 8.10983 85.6856 8.28359 73.26C8.44262 61.8138 8.11866 42.6902 8.23941 25.6936C8.28653 18.9459 13.4228 13.5571 19.8136 13.4732C33.6114 13.2928 49.294 13.2928 61.6723 13.4732C64.6439 13.5167 69.5416 13.7219 72.363 16.2904C75.7263 19.347 75.632 24.6861 75.7263 28.8311C75.8117 32.5874 76.118 64.6932 75.2609 76.7302C74.9605 80.9561 72.2069 85.0295 67.7097 85.7447V85.7478Z" fill="#F7F3EF" stroke="black" stroke-width="1.72881" stroke-linecap="round" stroke-linejoin="round"/>
<path d="M38.7436 79.1797C41.643 79.1797 40.3973 88.7717 36.984 87.6007C35.374 87.0464 36.2678 85.2183 36.464 84.7138C37.009 83.3123 35.7601 79.1797 38.7467 79.1797H38.7436Z" fill="#FFCCD3" stroke="black" stroke-width="1.72881" stroke-linecap="round" stroke-linejoin="round"/>
<path d="M48.1415 79.1794C45.7684 79.251 46.0892 88.2513 49.7422 87.4602C51.1311 87.1581 50.692 85.0435 50.3868 83.8539C50.1159 82.795 51.1249 79.089 48.1415 79.1794Z" fill="#FFCCD3" stroke="black" stroke-width="1.72881" stroke-linecap="round" stroke-linejoin="round"/>
<path d="M43.4368 66.2552C50.9546 66.0932 59.388 68.7217 62.1129 71.8609C65.1867 75.4018 61.6209 77.6752 59.2852 75.7008C57.8994 74.5298 56.2457 73.7948 54.6138 73.6516C55.056 79.0486 52.7204 83.3681 43.4804 83.3588C32.5618 83.3463 30.8926 78.2981 31.7895 72.9633C29.9676 73.717 28.4261 75.3084 26.897 76.4264C24.7544 77.996 21.746 75.6478 24.3838 72.2564C29.896 65.1745 36.9716 66.3922 43.4368 66.252V66.2552Z" fill="#FFCCD3" stroke="black" stroke-width="1.72881" stroke-linecap="round" stroke-linejoin="round"/>
<path d="M47.5061 76.8447C47.5061 78.6354 45.6376 79.9029 43.333 79.9029C41.0285 79.9029 38.9886 78.6354 38.9886 76.8447C38.9886 75.054 41.0285 73.5996 43.333 73.5996C45.6376 73.5996 47.5061 75.0509 47.5061 76.8447Z" fill="white"/>
<path d="M45.921 75.5273C45.921 75.5273 41.6264 77.4551 40.7825 78.0499L45.921 75.5273Z" fill="#F7F3EF"/>
<path d="M45.921 75.5273C45.921 75.5273 41.6264 77.4551 40.7825 78.0499" stroke="black" stroke-width="1.72881" stroke-linecap="round" stroke-linejoin="round"/>
<path d="M40.6451 75.4805C40.6451 75.4805 44.4476 77.4394 46.0048 78.1992L40.6451 75.4805Z" fill="#F7F3EF"/>
<path d="M40.6451 75.4805C40.6451 75.4805 44.4476 77.4394 46.0048 78.1992" stroke="black" stroke-width="1.72881" stroke-linecap="round" stroke-linejoin="round"/>
<path d="M35.891 35.2463C24.25 37.6941 18.4855 44.9286 18.6661 53.0599C18.9433 65.6385 29.5286 70.3442 43.2874 70.3442C60.7397 70.3442 68.2139 63.0599 68.2139 52.9696C68.2139 44.5798 63.6733 37.1647 53.116 34.6203C53.116 34.6203 59.7774 23.1629 53.7855 20.8925C45.975 17.934 44.1438 33.141 44.1438 33.141C44.1438 33.141 42.8981 28.8277 41.4064 25.2245C40.2385 22.4061 36.8658 19.1485 33.6207 21.696C27.9372 26.1588 35.891 35.2463 35.891 35.2463Z" fill="#FFCCD3" stroke="black" stroke-width="1.72881" stroke-linecap="round" stroke-linejoin="round"/>
<path d="M38.6292 49.1116C39.7814 49.5943 41.6251 49.4666 43.2694 48.7939C44.5213 48.2832 44.4902 46.29 43.2164 46.29C42.0486 46.29 41.8898 48.2832 43.2694 48.7939C45.0103 49.4417 47.2743 49.4386 48.3518 48.8655" fill="#FFCCD3"/>
<path d="M38.6292 49.1116C39.7814 49.5943 41.6251 49.4666 43.2694 48.7939M43.2694 48.7939C44.5213 48.2832 44.4902 46.29 43.2164 46.29C42.0486 46.29 41.8898 48.2832 43.2694 48.7939ZM43.2694 48.7939C45.0103 49.4417 47.2743 49.4386 48.3518 48.8655" stroke="black" stroke-width="1.38305" stroke-linecap="round" stroke-linejoin="round"/>
<path d="M46.8979 52.9259C47.376 52.9259 47.7636 52.5383 47.7636 52.0601C47.7636 51.582 47.376 51.1943 46.8979 51.1943C46.4197 51.1943 46.0321 51.582 46.0321 52.0601C46.0321 52.5383 46.4197 52.9259 46.8979 52.9259Z" fill="black"/>
<path d="M39.8661 52.9757C40.3443 52.9757 40.7319 52.5881 40.7319 52.1099C40.7319 51.6318 40.3443 51.2441 39.8661 51.2441C39.388 51.2441 39.0004 51.6318 39.0004 52.1099C39.0004 52.5881 39.388 52.9757 39.8661 52.9757Z" fill="black"/>
<path d="M41.9434 57.485C42.4728 57.3292 43.0489 56.9369 43.6033 56.124C43.6033 56.124 44.332 57.0801 45.3286 57.3915C44.6714 59.7584 42.5257 59.2539 41.9434 57.485Z" fill="white"/>
<path d="M41.9434 57.485C42.5257 59.2539 44.6683 59.7553 45.3286 57.3916" stroke="black" stroke-width="1.72881" stroke-linecap="round" stroke-linejoin="round"/>
<path d="M39.9176 57.0926C39.9176 57.0926 41.8702 58.6622 43.6018 56.124C43.6018 56.124 45.4828 58.5905 47.3295 56.8901" stroke="black" stroke-width="1.72881" stroke-linecap="round" stroke-linejoin="round"/>
<path d="M42.5469 61.8965C42.5469 61.8965 43.6369 62.51 44.9853 61.8965" stroke="black" stroke-width="1.72881" stroke-linecap="round" stroke-linejoin="round"/>
<path d="M13.8345 33.6007C11.9753 34.2733 12.2618 37.4779 14.937 37.0887C15.6034 36.9423 16.3291 36.6713 17.0983 36.3194C17.3817 36.6028 17.6682 36.8551 17.9609 37.0233C19.3935 36.3288 20.77 35.5097 22.0811 34.5568C21.9534 33.937 21.4053 33.3142 21.4053 33.3142C22.0749 33.0681 22.6728 32.6477 23.2116 32.084C25.049 29.7109 22.6136 27.587 20.7762 28.7517C20.7762 28.7517 20.2094 29.1566 19.6738 29.1472C19.3561 29.141 18.998 29.0164 18.7706 28.7766C17.5498 26.9859 15.9086 26.8115 14.3079 27.9202C13.1806 28.7019 12.5826 30.6982 13.4515 31.7165C14.0183 32.3674 14.5259 33.255 13.8345 33.5976V33.6007Z" fill="white"/>
<path d="M14.9414 37.0896C12.2662 37.4788 11.9797 34.2711 13.8389 33.6016" stroke="black" stroke-width="1.72881" stroke-linecap="round" stroke-linejoin="round"/>
<path d="M23.2115 32.0907C25.0489 29.7176 22.6135 27.5937 20.7761 28.7584" stroke="black" stroke-width="1.72881" stroke-linecap="round" stroke-linejoin="round"/>
<path d="M18.7743 28.7796C17.5536 26.9889 15.9123 26.8145 14.3116 27.9231C13.1843 28.7048 12.5863 30.7011 13.4552 31.7195" stroke="black" stroke-width="1.72881" stroke-linecap="round" stroke-linejoin="round"/>
<path d="M21.4084 33.3213C21.4084 33.3213 21.9566 33.941 22.0842 34.5639" stroke="black" stroke-width="1.72881" stroke-linecap="round" stroke-linejoin="round"/>
<path d="M19.2899 34.8623C19.2899 34.8623 19.7757 35.535 19.9003 35.7218" stroke="black" stroke-width="1.72881" stroke-linecap="round" stroke-linejoin="round"/>
<path d="M17.1001 36.3232C17.3835 36.6066 17.67 36.8589 17.9627 37.0271" stroke="black" stroke-width="1.72881" stroke-linecap="round" stroke-linejoin="round"/>
</svg>
