<svg width="102" height="102" viewBox="0 0 102 102" fill="none" xmlns="http://www.w3.org/2000/svg">
<path d="M27.4066 68.3867C25.0606 72.5793 25.9488 76.755 25.9488 76.755" stroke="black" stroke-width="1.72881" stroke-linecap="round" stroke-linejoin="round"/>
<path d="M21.4866 70.3076C19.5656 74.7127 21.3974 78.8586 21.3974 78.8586" stroke="black" stroke-width="1.72881" stroke-linecap="round" stroke-linejoin="round"/>
<path d="M82.4109 74.3105C83.4606 78.6349 81.291 82.3367 81.291 82.3367" stroke="black" stroke-width="1.72881" stroke-linecap="round" stroke-linejoin="round"/>
<path d="M86.966 73.7354C88.3005 78.4337 86.5007 81.94 86.5007 81.94" stroke="black" stroke-width="1.72881" stroke-linecap="round" stroke-linejoin="round"/>
<path d="M37.0099 63.724C34.6788 62.1918 22.6746 53.5006 20.1395 48.6428C18.1675 44.8646 20.0928 41.8853 21.202 40.9227C19.91 39.6435 18.9516 37.5567 20.522 36.0735C22.5684 34.1418 25.2183 36.541 26.7844 37.9711C29.5681 40.5147 34.2771 45.1961 39.0201 48.7321" fill="#FFD677"/>
<path d="M37.0099 63.724C34.6788 62.1918 22.6746 53.5006 20.1395 48.6428C18.1675 44.8646 20.0928 41.8853 21.202 40.9227C19.91 39.6435 18.9516 37.5567 20.522 36.0735C22.5684 34.1418 25.2183 36.541 26.7844 37.9711C29.5681 40.5147 34.2771 45.1961 39.0201 48.7321" stroke="black" stroke-width="1.72881" stroke-linecap="round" stroke-linejoin="round"/>
<path d="M72.0155 74.7617L36.902 73.6354L36.0435 63.0062L36.3325 51.0828L70.0413 47.9463L72.0155 74.7617Z" fill="#FFD677"/>
<path d="M52.4016 66.2028C44.6985 66.4706 40.4549 66.8956 36.2941 67.5777C36.5427 70.6037 36.9295 74.3097 37.2546 75.8503C37.3885 76.4836 33.4636 81.6048 33.4636 85.6529C33.4636 88.0414 34.2095 90.2918 37.0315 91.8707C41.4472 94.3442 47.1019 91.4457 50.9651 85.3958L56.0949 84.9049C55.587 88.9722 56.6962 91.8006 60.5191 92.6017C66.0909 93.7683 69.4866 90.3874 71.8496 83.8871C73.2096 80.1428 73.8046 75.9544 73.3307 70.5484C73.0587 69.3691 72.8462 68.1451 72.7294 66.8701C68.5219 66.4238 60.9611 65.9032 52.4037 66.2028H52.4016Z" fill="#A37944"/>
<path d="M55.8144 84.924C55.1323 84.924 50.9651 85.3978 50.9651 85.3978C47.6629 91.0248 41.4494 94.3462 37.0315 91.8727C34.2095 90.2917 33.4636 88.0413 33.4636 85.655C33.4636 81.6068 37.3885 76.4856 37.2546 75.8523C36.7404 73.4065 36.0646 66.1538 36.0434 62.9238" stroke="black" stroke-width="1.72881" stroke-linecap="round" stroke-linejoin="round"/>
<path d="M56.2421 83.8887C55.475 88.4107 56.4418 91.7512 60.5197 92.6034C66.0915 93.77 69.4872 90.3891 71.8502 83.8887C74.0411 77.858 74.2472 71.3619 71.2 58.4482" stroke="black" stroke-width="1.72881" stroke-linecap="round" stroke-linejoin="round"/>
<path d="M64.6228 61.166C65.8659 64.6382 69.9672 73.7481 70.4432 74.0074C70.9192 74.2666 74.2618 72.8769 74.3787 72.522C74.4977 72.165 74.0004 68.8181 69.4657 58.3652" fill="#949494"/>
<path d="M64.6228 61.166C65.8659 64.6382 69.9672 73.7481 70.4432 74.0074C70.9192 74.2666 74.2618 72.8769 74.3787 72.522C74.4977 72.165 74.0004 68.8181 69.4657 58.3652" stroke="black" stroke-width="1.72881" stroke-linecap="round" stroke-linejoin="round"/>
<path d="M73.8275 59.6895C71.1097 58.5611 68.8444 58.8225 66.9574 59.7872C65.6739 60.4439 62.8647 63.1851 64.7602 67.2545C67.0998 72.2801 74.1994 70.0064 76.6708 67.6689C79.3334 65.1486 80.6934 60.9411 78.1923 56.2916C75.9313 52.0862 71.9512 50.8389 69.0994 50.8389C65.6909 50.8389 60.9458 52.4772 60.9458 52.4772" fill="#FFD677"/>
<path d="M73.8276 59.6895C71.1097 58.5611 68.8444 58.8225 66.9574 59.7872C65.6739 60.4439 62.8647 63.1851 64.7602 67.2545C67.0998 72.2801 74.1994 70.0064 76.6708 67.6689C79.3334 65.1486 80.6934 60.9411 78.1923 56.2916C75.9313 52.0862 71.9512 50.8389 69.0994 50.8389C65.6909 50.8389 60.9458 52.4772 60.9458 52.4772" stroke="black" stroke-width="1.72881" stroke-linecap="round" stroke-linejoin="round"/>
<path d="M76.6586 34.9758C76.3377 29.1788 74.1128 24.4251 69.8054 20.7935C69.6057 18.371 68.9682 16.9579 67.8568 16.1185C66.4437 15.0518 64.3739 15.1389 62.1129 16.3034C59.3483 15.498 56.2479 15.1559 52.8033 15.2494C49.0633 15.3535 46.5048 15.9018 43.6446 16.8219C41.1732 15.7233 39.3563 15.8295 37.9793 16.7794C36.8637 17.5508 36.1008 19.3549 36.2538 21.482C32.1866 25.1689 30.1636 30.4155 30.1104 36.221C29.9936 49.1049 37.3907 55.4714 53.8042 55.2568C71.0103 55.0315 77.3534 47.5451 76.6564 34.9736L76.6586 34.9758Z" fill="#FFD677" stroke="black" stroke-width="1.72881" stroke-linecap="round" stroke-linejoin="round"/>
<path d="M37.2627 39.3745C37.3945 42.2092 39.9912 44.6636 43.183 44.3597C46.4576 44.0473 48.1533 41.8055 47.943 38.8581C47.7581 36.255 46.328 34.0705 42.5858 34.0811C39.3388 34.0896 37.1182 36.2953 37.2627 39.3745Z" fill="#FF9470"/>
<path d="M69.2992 38.0803C69.4288 40.8789 67.8329 43.3524 64.4414 43.5118C60.8927 43.6797 58.8208 41.4824 58.7571 38.5669C58.6997 35.9914 59.9173 33.8239 63.5829 33.3734C66.7173 32.9888 69.1589 35.0415 69.3013 38.0803H69.2992Z" fill="#FF9470"/>
<path d="M46.252 33.3698C47.2578 33.3698 48.0731 32.5544 48.0731 31.5487C48.0731 30.5429 47.2578 29.7275 46.252 29.7275C45.2462 29.7275 44.4308 30.5429 44.4308 31.5487C44.4308 32.5544 45.2462 33.3698 46.252 33.3698Z" fill="black"/>
<path d="M60.3169 33.0172C61.3227 33.0172 62.138 32.2019 62.138 31.1961C62.138 30.1903 61.3227 29.375 60.3169 29.375C59.3111 29.375 58.4958 30.1903 58.4958 31.1961C58.4958 32.2019 59.3111 33.0172 60.3169 33.0172Z" fill="black"/>
<path d="M55.76 41.2467C55.76 41.2467 56.3317 45.4712 53.7647 45.7496C50.6515 46.0875 51.1743 41.2871 51.1743 41.2871L53.1059 39.5488L55.7579 41.2467H55.76Z" fill="#B53F3C" stroke="black" stroke-width="1.72881" stroke-linecap="round" stroke-linejoin="round"/>
<path d="M53.2523 35.0292C49.1255 35.127 47.3427 37.3604 47.7103 39.5449C48.131 42.0396 51.4418 42.4944 53.4159 40.3587C55.5048 42.5369 58.8538 41.6337 59.1279 39.2304C59.3808 37.0204 57.1772 34.9379 53.2523 35.0314V35.0292Z" fill="white" stroke="black" stroke-width="1.72881" stroke-linecap="round" stroke-linejoin="round"/>
<path d="M45.4252 36.5869L47.8264 37.7429" stroke="black" stroke-width="1.72881" stroke-linecap="round" stroke-linejoin="round"/>
<path d="M45.6144 41.3983L47.8776 40.1318" stroke="black" stroke-width="1.72881" stroke-linecap="round" stroke-linejoin="round"/>
<path d="M61.5461 36.2217L59.0471 37.4117" stroke="black" stroke-width="1.72881" stroke-linecap="round" stroke-linejoin="round"/>
<path d="M61.6074 40.7758L59.1467 39.8535" stroke="black" stroke-width="1.72881" stroke-linecap="round" stroke-linejoin="round"/>
<path d="M52.1804 49.8434C53.568 50.4894 54.9472 49.667 54.9472 49.667" stroke="black" stroke-width="1.72881" stroke-linecap="round" stroke-linejoin="round"/>
<path d="M62.916 55.9753C61.6878 54.7471 59.9814 52.5647 59.8241 51.8911C59.6648 51.2174 59.6095 48.1574 59.7498 47.7771C60.6656 45.2929 64.4651 44.9232 65.3576 45.6478C66.5561 46.6189 67.744 47.9832 68.0011 48.4974C68.2583 49.0138 68.4878 52.7984 68.288 55.9604" fill="#949494"/>
<path d="M62.916 55.9753C61.6878 54.7471 59.9814 52.5647 59.8241 51.8911C59.6648 51.2174 59.6095 48.1574 59.7498 47.7771C60.6656 45.2929 64.4651 44.9232 65.3576 45.6478C66.5561 46.6189 67.744 47.9832 68.0011 48.4974C68.2583 49.0138 68.4878 52.7984 68.288 55.9604" stroke="black" stroke-width="1.72881" stroke-linecap="round" stroke-linejoin="round"/>
<path d="M60.1044 52.2845C62.6948 47.9963 67.9117 48.9674 67.9117 48.9674" stroke="black" stroke-width="1.72881" stroke-linecap="round" stroke-linejoin="round"/>
<path d="M60.5212 58.6948C60.8931 60.0229 61.4222 61.3319 61.9917 62.3498C62.4634 63.1892 63.4877 63.4803 64.225 63.2487C66.5732 62.5134 70.5427 60.8304 72.4977 59.7956C73.3987 59.3196 73.6983 58.2103 73.5538 57.5643C73.3158 56.4954 72.6847 54.8741 72.1683 53.9391C71.7327 53.1486 70.7275 52.7278 69.9562 52.9424C67.8737 53.5204 63.2008 55.2906 61.1991 56.5486C60.5446 56.9587 60.2385 57.6897 60.519 58.6927L60.5212 58.6948Z" fill="#AED3E5" stroke="black" stroke-width="1.72881" stroke-linecap="round" stroke-linejoin="round"/>
<path d="M22.7608 23.5107C22.8628 23.4809 22.9648 23.449 23.0668 23.4193C23.5088 23.2472 23.9019 22.9624 24.244 22.5629C24.6584 22.0699 24.8624 21.5408 24.856 20.9755C24.8518 20.7205 24.8157 20.491 24.7498 20.2892C24.6499 20.0384 24.4927 19.8302 24.278 19.6602C23.8785 19.3563 23.3855 19.2819 22.8012 19.437C22.6885 19.4562 22.5844 19.4859 22.4952 19.5284C22.0468 19.6878 21.6622 19.9725 21.3413 20.3869C20.9312 20.8714 20.7229 21.3984 20.7144 21.9679C20.7038 22.2059 20.7378 22.4205 20.8164 22.6097C20.9057 22.871 21.0672 23.0899 21.2988 23.2684C21.7047 23.5702 22.1934 23.6509 22.7587 23.5085L22.7608 23.5107Z" fill="black"/>
<path d="M13.973 24.2312C14.0623 24.4926 14.2238 24.7136 14.4554 24.89C14.8613 25.1917 15.3479 25.2725 15.9153 25.1301C16.0152 25.1003 16.115 25.0706 16.2107 25.043C16.659 24.8687 17.0543 24.5818 17.3985 24.1823C17.8129 23.6893 18.0127 23.1602 17.9999 22.5992C18.002 22.3421 17.9702 22.1126 17.9022 21.9107C17.8023 21.66 17.645 21.4517 17.4304 21.2817C17.0309 20.9757 16.54 20.9013 15.9535 21.0586C15.8409 21.0777 15.7368 21.1096 15.6369 21.1542C15.197 21.3093 14.8167 21.5941 14.4915 22.0106C14.0814 22.4951 13.871 23.0221 13.8562 23.5958C13.8519 23.8317 13.8902 24.0442 13.9688 24.2333L13.973 24.2312Z" fill="black"/>
<path d="M15.4124 13.9968C15.1553 14.0839 14.9832 14.2008 14.896 14.3474C14.811 14.5004 14.7898 14.6789 14.8323 14.8808L16.3325 21.9507C16.375 22.1547 16.4834 22.3119 16.6534 22.4203C16.8277 22.5351 17.0147 22.5712 17.2144 22.5287C17.4142 22.4862 17.5672 22.3821 17.6734 22.2099C17.7882 22.0378 17.8243 21.8508 17.7818 21.6489L16.6088 16.1346L21.9277 14.1604L23.2324 20.3633C23.2749 20.5673 23.3769 20.7246 23.5448 20.8372C23.7212 20.9519 23.9082 20.9881 24.1058 20.9456C24.3098 20.9031 24.467 20.7968 24.5754 20.6247C24.6923 20.4547 24.7284 20.2677 24.6838 20.0637L23.0029 12.0524C22.9647 11.8548 22.8669 11.7039 22.7075 11.5956C22.5503 11.4872 22.393 11.4511 22.2358 11.4872C22.087 11.5191 21.9447 11.5658 21.8108 11.6232L15.406 13.9989L15.4124 13.9968Z" fill="black"/>
<path d="M87.8487 29.2554L89.7442 21.0635C92.4642 23.0992 93.0486 25.0075 91.4952 26.7882" stroke="black" stroke-width="1.72881" stroke-linecap="round" stroke-linejoin="round"/>
<path d="M88.0335 30.1964C88.5201 29.7417 88.7135 29.2806 88.6115 28.8088C88.5095 28.3371 88.1419 27.9971 87.5108 27.7867C86.8818 27.5699 86.1699 27.5508 85.3773 27.7293C84.5804 27.8993 83.9323 28.2117 83.4371 28.6707C82.9569 29.1276 82.7678 29.5908 82.8698 30.0626C82.9718 30.5343 83.3351 30.8722 83.962 31.0804C84.6016 31.2929 85.3199 31.3142 86.1168 31.1442C86.9094 30.9657 87.549 30.6512 88.0378 30.1964H88.0335Z" fill="black"/>
</svg>
