<svg width="102" height="102" viewBox="0 0 102 102" fill="none" xmlns="http://www.w3.org/2000/svg">
<path d="M47.2069 57.0165C47.2069 57.0165 43.0474 45.6473 46.6065 38.1054C49.5118 31.9464 55.7028 29.8077 63.8932 29.8184C71.4511 29.8291 76.4736 32.4235 80.4991 36.8243C85.3715 42.1471 85.5431 49.5978 83.2435 55.923C81.1263 61.7442 75.2086 62.9718 64.9438 62.9718C53.7088 62.9718 47.2069 61.4602 47.2069 57.0111" fill="#FFD37C"/>
<path d="M63.8931 29.8232C72.6195 35.4623 70.3415 55.692 64.9491 62.9766C75.2139 62.9766 81.1315 61.7491 83.2488 55.9278C85.5483 49.6027 85.3768 42.1519 80.5044 36.8291C76.4789 32.4283 71.451 29.834 63.8985 29.8232H63.8931Z" fill="#9B764A"/>
<path d="M47.2069 57.0165C47.2069 57.0165 43.0474 45.6473 46.6065 38.1054C49.5118 31.9464 55.7028 29.8077 63.8932 29.8184C71.4511 29.8291 76.4736 32.4235 80.4991 36.8243C85.3715 42.1471 85.5431 49.5978 83.2435 55.923C81.1263 61.7442 75.2086 62.9718 64.9438 62.9718C53.7088 62.9718 47.2069 61.4602 47.2069 57.0111" stroke="#061922" stroke-width="1.72881" stroke-linecap="round" stroke-linejoin="round"/>
<path d="M84.3496 55.457C85.5074 56.7542 88.1875 60.2384 89.6723 62.5112C90.337 63.535 90.9159 64.3229 90.6747 64.8161C90.2083 65.7702 83.6689 65.529 81.8196 65.2985" fill="#BE966F"/>
<path d="M84.3496 55.457C85.5074 56.7542 88.1875 60.2384 89.6723 62.5112C90.337 63.535 90.9159 64.3229 90.6747 64.8161C90.2083 65.7702 83.6689 65.529 81.8196 65.2985" stroke="#061922" stroke-width="1.72881" stroke-linecap="round" stroke-linejoin="round"/>
<path d="M84.3504 55.457C70.4406 58.7804 26.6853 56.4058 23.2977 56.0895C23.2977 58.2176 25.49 75.0113 28.6954 80.2055C30.4696 83.0786 31.8526 82.9231 34.0502 83.1375C34.463 83.1751 41.3079 83.6146 49.9379 83.6468C61.9126 83.695 76.4494 83.0625 78.0414 82.8266C78.9366 82.6926 79.6763 82.5265 80.1587 82.1405C80.6411 81.7546 81.1557 80.6075 81.8364 79.4497C83.6857 76.3032 88.2687 62.27 84.345 55.457" fill="#BE966F"/>
<path d="M84.3504 55.457C70.4406 58.7804 26.6853 56.4058 23.2977 56.0895C23.2977 58.2176 25.49 75.0113 28.6954 80.2055C30.4696 83.0786 31.8526 82.9231 34.0502 83.1375C34.463 83.1751 41.3079 83.6146 49.9379 83.6468C61.9126 83.695 76.4494 83.0625 78.0414 82.8266C78.9366 82.6926 79.6763 82.5265 80.1587 82.1405C80.6411 81.7546 81.1557 80.6075 81.8364 79.4497C83.6857 76.3032 88.2687 62.27 84.345 55.457" stroke="#061922" stroke-width="1.72881" stroke-linecap="round" stroke-linejoin="round"/>
<path d="M23.2969 56.0898C19.8825 60.5389 16.6985 65.1487 17.8885 65.8134C18.4781 66.1457 22.5519 66.4406 29.1128 67.0248C34.8214 67.5287 40.0529 68.0379 40.4549 67.9146C41.5752 67.5662 46.3619 58.904 47.2088 57.0172" fill="#BE966F"/>
<path d="M23.2969 56.0898C19.8825 60.5389 16.6985 65.1487 17.8885 65.8134C18.4781 66.1457 22.5519 66.4406 29.1128 67.0248C34.8214 67.5287 40.0529 68.0379 40.4549 67.9146C41.5752 67.5662 46.3619 58.904 47.2088 57.0172" stroke="#061922" stroke-width="1.72881" stroke-linecap="round" stroke-linejoin="round"/>
<path d="M47.2079 57.0176C47.2079 66.4999 47.2562 74.669 49.9363 83.6475" stroke="#061922" stroke-width="1.72881" stroke-linecap="round" stroke-linejoin="round"/>
<g opacity="0.99">
<path d="M67.7705 69.0775C67.7705 66.5474 65.9534 62.3717 64.1577 61.8732C62.4371 61.3962 57.9506 64.1299 56.3211 66.1668C54.6916 68.2037 53.4909 71.8487 55.2651 75.0756" fill="#996B98"/>
<path d="M67.7705 69.0775C67.7705 66.5474 65.9534 62.3717 64.1577 61.8732C62.4371 61.3962 57.9506 64.1299 56.3211 66.1668C54.6916 68.2037 53.4909 71.8487 55.2651 75.0756" stroke="#061922" stroke-width="1.72881" stroke-linecap="round" stroke-linejoin="round"/>
</g>
<path d="M61.8803 66.0908C62.143 66.198 64.1209 66.8788 64.271 66.9538" stroke="#061922" stroke-width="1.72881" stroke-linecap="round" stroke-linejoin="round"/>
<g opacity="0.99">
<path d="M68.478 71.7305C67.0039 70.5245 64.6401 68.8949 60.8933 69.313C58.1649 69.6132 55.9887 70.964 55.0453 71.9985C54.0697 73.0599 52.7243 74.5286 53.0513 75.8633C53.5176 77.7823 56.5193 78.8115 60.6306 78.5274C64.7473 78.2433 68.0009 75.8687 69.3946 73.3332" fill="#996B98"/>
<path d="M68.478 71.7305C67.0039 70.5245 64.6401 68.8949 60.8933 69.313C58.1649 69.6132 55.9887 70.964 55.0453 71.9985C54.0697 73.0599 52.7243 74.5286 53.0513 75.8633C53.5176 77.7823 56.5193 78.8115 60.6306 78.5274C64.7473 78.2433 68.0009 75.8687 69.3946 73.3332" stroke="#061922" stroke-width="1.72881" stroke-linecap="round" stroke-linejoin="round"/>
</g>
<path opacity="0.99" d="M64.4205 65.9749C63.4342 66.5967 63.0697 71.4853 67.4275 75.3715C70.2148 77.8533 78.2551 77.4459 78.7268 76.8992C79.2093 76.3417 79.3218 71.4478 75.1837 68.3013C72.1124 65.9696 66.586 64.608 64.4205 65.9749Z" fill="#996B98" stroke="#061922" stroke-width="1.72881" stroke-linecap="round" stroke-linejoin="round"/>
<path d="M75.7144 72.8574C75.6448 72.9538 75.5431 73.0876 75.495 73.1465" stroke="#061922" stroke-width="1.72881" stroke-linecap="round" stroke-linejoin="round"/>
<path d="M68.5427 71.5967C68.2908 71.8915 67.937 72.2935 67.7709 72.465" stroke="#061922" stroke-width="1.72881" stroke-linecap="round" stroke-linejoin="round"/>
<path d="M68.0013 69.2441C67.8514 69.4208 67.6373 69.6617 67.541 69.7634" stroke="#061922" stroke-width="1.72881" stroke-linecap="round" stroke-linejoin="round"/>
<path d="M57.688 75.2207C57.763 75.3869 57.9989 75.8371 58.0471 75.9336" stroke="#061922" stroke-width="1.72881" stroke-linecap="round" stroke-linejoin="round"/>
<path d="M60.4211 76.0791C60.4318 76.1273 60.4692 76.2611 60.4799 76.2986" stroke="#061922" stroke-width="1.72881" stroke-linecap="round" stroke-linejoin="round"/>
<path d="M62.1633 42.8286C62.3885 36.6053 60.3784 31.0574 56.5244 26.8817C56.5512 24.5232 55.9348 22.7221 54.777 21.8377C53.3512 20.7442 51.5769 20.3583 48.8432 21.4893C45.7986 20.2993 42.6147 19.5542 38.9215 19.2755C35.2283 18.9967 31.9425 19.2969 28.78 19.9723C26.2446 18.4446 24.4329 18.5572 22.8623 19.4256C21.5866 20.1278 20.7022 21.8163 20.3752 24.1533C15.9316 27.6911 13.1121 32.8745 12.3992 39.0603C10.8126 52.7987 18.065 61.0106 35.6625 62.3882C53.2654 63.6693 61.6648 56.642 62.1687 42.8232L62.1633 42.8286Z" fill="#FFD37C" stroke="#061922" stroke-width="1.72881" stroke-linecap="round" stroke-linejoin="round"/>
<path d="M30.7743 36.501C30.8557 35.4236 30.0482 34.4841 28.9707 34.4027C27.8933 34.3213 26.9538 35.1288 26.8724 36.2063C26.791 37.2838 27.5985 38.2232 28.676 38.3046C29.7534 38.386 30.6929 37.5785 30.7743 36.501Z" fill="#061922"/>
<path d="M45.8609 37.6378C45.9423 36.5603 45.1348 35.6208 44.0574 35.5394C42.9799 35.458 42.0405 36.2655 41.9591 37.343C41.8777 38.4205 42.6852 39.3599 43.7626 39.4413C44.8401 39.5227 45.7795 38.7152 45.8609 37.6378Z" fill="#061922"/>
<path d="M35.9312 40.7489C31.7234 40.4327 29.1237 42.6518 29.4131 45.0586C29.7294 47.6851 32.7043 48.843 35.0574 46.5648C37.0407 49.1699 41.0233 48.5374 41.7309 45.9913C42.3795 43.6596 40.1443 41.0705 35.9365 40.7543L35.9312 40.7489Z" fill="white" stroke="#061922" stroke-width="1.72881" stroke-linecap="round" stroke-linejoin="round"/>
<path d="M27.381 41.6084L29.8198 42.8252" stroke="#061922" stroke-width="1.72881" stroke-linecap="round" stroke-linejoin="round"/>
<path d="M27.1081 46.579L29.3487 45.8232" stroke="#061922" stroke-width="1.72881" stroke-linecap="round" stroke-linejoin="round"/>
<path d="M44.545 42.9092L41.956 43.7507" stroke="#061922" stroke-width="1.72881" stroke-linecap="round" stroke-linejoin="round"/>
<path d="M44.0673 47.8621L41.9661 46.7793" stroke="#061922" stroke-width="1.72881" stroke-linecap="round" stroke-linejoin="round"/>
</svg>
