<svg width="102" height="102" viewBox="0 0 102 102" fill="none" xmlns="http://www.w3.org/2000/svg">
<path d="M26.875 46.1092C26.5121 41.224 35.8229 33.2724 44.2381 38.6987C44.2381 38.6987 46.8643 40.6077 50.4482 46.1092" fill="#FFD677"/>
<path d="M26.875 46.1092C26.5121 41.224 35.8229 33.2724 44.2381 38.6987C44.2381 38.6987 46.8643 40.6077 50.4482 46.1092" stroke="black" stroke-width="1.72881" stroke-linecap="round" stroke-linejoin="round"/>
<path d="M25.3034 68.7305C24.3779 69.5895 17.5216 73.9185 13.8346 68.913C11.5907 65.866 12.5119 62.7373 14.2834 60.4697C15.8552 58.4555 18.2452 56.8686 18.8464 54.6934C19.5379 52.1896 21.5005 47.9507 24.6205 45.4877C27.7406 43.0247 30.3496 42.5609 34.9598 42.2774C34.9598 42.2774 39.89 40.9461 44.6206 40.6347C49.3511 40.3233 64.1911 48.3759 64.6141 57.9938C65.035 67.6118 48.3826 75.4388 48.3826 75.4388C46.1731 77.7902 40.3539 81.5909 37.1222 83.1821C33.8926 84.7733 28.0884 86.6694 25.1037 83.2809C22.2821 80.0792 23.1754 76.1324 27.4035 72.2393C25.6212 68.6296 25.3012 68.7305 25.3012 68.7305H25.3034Z" fill="#FFD677"/>
<path d="M25.265 45.0037C25.0525 45.1562 24.8377 45.3151 24.623 45.4869C21.503 47.9499 19.5382 52.1866 18.8489 54.6925C18.2498 56.8699 15.8598 58.4568 14.2859 60.4689C12.5143 62.7364 11.5931 65.8651 13.8371 68.9122C17.4166 73.7738 23.9831 69.8334 25.2092 68.8134C26.0381 69.7948 26.6973 70.7997 27.408 72.2384C23.18 76.1316 22.2867 80.0762 25.1083 83.2801C28.093 86.6686 33.8951 84.7725 37.1268 83.1813C40.148 81.6932 45.4325 78.2725 47.9127 75.9125C45.0396 51.8473 31.6812 44.4862 25.2672 45.0059L25.265 45.0037Z" fill="#A37944"/>
<path d="M34.9623 42.2744C30.352 42.5579 27.743 43.0217 24.623 45.4847C21.503 47.9477 19.5382 52.1844 18.8489 54.6903C18.2498 56.8677 15.8598 58.4546 14.2859 60.4667C12.5143 62.7343 11.5931 65.8629 13.8371 68.91C17.4016 73.7501 23.9251 69.8656 25.1942 68.8241" stroke="black" stroke-width="1.72881" stroke-linecap="round" stroke-linejoin="round"/>
<path d="M23.2593 66.7871C24.0795 67.5236 26.0314 69.452 27.4057 72.2371C23.1777 76.1302 22.2844 80.0749 25.106 83.2787C28.0907 86.6672 33.8927 84.7711 37.1244 83.1799C40.354 81.5887 46.1753 77.7879 48.3849 75.4366" stroke="black" stroke-width="1.72881" stroke-linecap="round" stroke-linejoin="round"/>
<path d="M64.1597 62.8975C64.9497 65.8375 64.6397 74.6675 56.8197 77.8175C49.5897 80.7275 42.3697 76.2575 43.2197 71.0175C47.6897 69.7375 48.0697 66.3775 48.0697 66.3775C49.9497 66.0875 52.0797 66.4775 53.9097 67.4275" fill="#FFD677"/>
<path d="M48.1099 66.3675C49.9799 66.0875 52.0999 66.4775 53.9099 67.4175" stroke="black" stroke-width="1.73" stroke-linecap="round" stroke-linejoin="round"/>
<path d="M64.1597 62.8975C64.9497 65.8375 64.6397 74.6675 56.8197 77.8175C49.5897 80.7275 42.3697 76.2575 43.2197 71.0175" stroke="black" stroke-width="1.73" stroke-linecap="round" stroke-linejoin="round"/>
<path d="M42.3467 70.6145C42.3467 70.6145 46.3621 69.7641 47.7278 66.4551Z" fill="#FFD677"/>
<path d="M42.3467 70.6145C42.3467 70.6145 46.3621 69.7641 47.7278 66.4551" stroke="black" stroke-width="1.72881" stroke-linecap="round" stroke-linejoin="round"/>
<path d="M78.9516 59.1248C83.9033 54.1194 85.4945 49.9234 85.7887 44.5959C87.2939 42.9403 87.8093 41.6132 87.732 39.9469C87.6547 38.2849 85.9368 36.7431 83.8325 35.7381C82.3079 32.4355 80.5857 30.2044 78.1936 27.7522C75.8015 25.2999 73.2076 23.5648 70.6008 22.1004C69.89 20.5693 69.1191 19.5815 67.4829 19.2745C66.158 19.0275 64.292 19.4999 63.2462 20.026C58.7498 19.8499 54.5518 21.2264 50.8649 23.4274C45.3463 26.7193 41.6014 31.714 41.4962 38.1603C41.3888 44.7505 45.5911 51.4932 49.8535 56.2796C56.9825 64.2806 70.4762 67.6927 78.9516 59.1248Z" fill="#FFD677" stroke="black" stroke-width="1.72881" stroke-linecap="round" stroke-linejoin="round"/>
<path d="M72.821 53.6582C70.6522 55.7455 67.2015 56.1127 64.9404 53.7355C62.2649 50.9247 62.9005 47.5083 65.2088 45.391C67.2488 43.5228 70.5728 42.9452 73.1882 46.018C74.8438 47.9635 75.1745 51.3907 72.821 53.6561V53.6582Z" fill="#FF9470"/>
<path d="M56.8922 35.7177C54.7857 37.7448 51.4359 38.1012 49.2392 35.7928C46.6409 33.0614 47.2572 29.7459 49.5011 27.6909C51.4831 25.8764 54.7105 25.316 57.2508 28.3008C58.8591 30.1904 59.1812 33.5166 56.8943 35.7177H56.8922Z" fill="#FF9470"/>
<path d="M60.9099 43.9998C60.9099 43.9998 58.2816 45.9152 56.742 44.382C54.9361 42.5847 57.2702 40.5146 57.2702 40.5146L60.0767 41.1653L60.9121 43.9998H60.9099Z" fill="#B53F3C" stroke="black" stroke-width="1.72881" stroke-linecap="round" stroke-linejoin="round"/>
<path d="M63.8218 38.0147C60.9101 34.8495 57.6977 35.0385 56.3793 36.8552C54.9406 38.8393 56.2676 42.2042 59.6195 40.9673C58.999 44.8862 62.5034 46.5998 64.5669 45.277C66.2418 44.2034 66.6262 41.0661 63.8197 38.0147H63.8218Z" fill="white" stroke="black" stroke-width="1.72881" stroke-linecap="round" stroke-linejoin="round"/>
<path d="M57.8135 33.6257L58.2816 35.6356" stroke="black" stroke-width="1.72881" stroke-linecap="round" stroke-linejoin="round"/>
<path d="M54.249 36.4177L56.0936 37.3389" stroke="black" stroke-width="1.72881" stroke-linecap="round" stroke-linejoin="round"/>
<path d="M67.8842 45.1753L65.7197 43.8418" stroke="black" stroke-width="1.72881" stroke-linecap="round" stroke-linejoin="round"/>
<path d="M65.0844 48.0091L63.8218 45.9111" stroke="black" stroke-width="1.72881" stroke-linecap="round" stroke-linejoin="round"/>
<path d="M51.7002 45.7175C52.1833 48.1054 54.3736 48.7453 54.3736 48.7453" stroke="black" stroke-width="1.72881" stroke-linecap="round" stroke-linejoin="round"/>
<path d="M61.2773 31.9053C62.1234 32.0814 62.759 32.2982 62.759 32.2982" stroke="black" stroke-width="1.72881" stroke-linecap="round" stroke-linejoin="round"/>
<path d="M70.1587 40.4736C70.2918 41.047 70.4443 41.5817 70.5602 41.9746" stroke="black" stroke-width="1.72881" stroke-linecap="round" stroke-linejoin="round"/>
<path d="M38.7199 30.8847C39.5853 26.5557 37.9834 27.0216 37.7665 25.5679C37.6012 24.4663 38.896 21.3655 35.7845 19.7937C34.7323 19.2612 32.8127 19.186 31.6681 20.5732C30.3798 22.1343 30.704 25.1427 33.6909 25.5636C34.2836 25.6473 33.2249 28.3337 36.5339 28.6944C37.7364 28.8254 38.4472 29.6435 38.7156 30.8847H38.7199Z" fill="white" stroke="black" stroke-width="1.72881" stroke-linecap="round" stroke-linejoin="round"/>
<path d="M86.9568 77.6172C87.5087 77.9307 87.747 78.7038 87.2811 79.5992C86.1043 81.8561 83.2441 86.2323 78.0176 85.4808C71.0603 84.4801 70.5235 81.899 71.026 81.0852C72.018 79.4725 73.3558 81.1539 74.3715 79.7152C75.0135 78.8068 73.5834 76.9837 75.4988 75.4205C76.8623 74.3082 80.6566 74.0311 86.9568 77.6151V77.6172Z" fill="#9F6796"/>
<path d="M77.466 74.7546L77.4445 74.7224C76.5662 74.819 75.9177 75.081 75.499 75.4224C73.5815 76.9836 75.0137 78.8067 74.3717 79.7171C73.3539 81.1558 72.0182 79.4745 71.0262 81.0871C70.5259 81.901 71.0605 84.4821 78.0178 85.4827C78.0522 85.487 78.0844 85.4892 78.1166 85.4935L78.123 85.4827C81.898 81.639 79.8752 76.2792 77.4638 74.7568L77.466 74.7546Z" fill="#FFD677"/>
<path d="M86.9568 77.6172C87.5087 77.9307 87.747 78.7038 87.2811 79.5992C86.1043 81.8561 83.2441 86.2323 78.0176 85.4808C71.0603 84.4801 70.5235 81.899 71.026 81.0852C72.018 79.4725 73.3558 81.1539 74.3715 79.7152C75.0135 78.8068 73.5834 76.9837 75.4988 75.4205C76.8623 74.3082 80.6566 74.0311 86.9568 77.6151V77.6172Z" stroke="black" stroke-width="1.72881" stroke-linecap="round" stroke-linejoin="round"/>
<path d="M77.4658 74.7542C79.8772 76.2766 81.9 81.6364 78.125 85.4801" stroke="black" stroke-width="1.72881" stroke-linecap="round" stroke-linejoin="round"/>
<path d="M82.5098 80.4258L82.5441 80.8783" stroke="black" stroke-width="1.72881" stroke-linecap="round" stroke-linejoin="round"/>
<ellipse cx="84.3219" cy="79.7623" rx="0.751557" ry="0.751569" fill="black"/>
<path d="M62.6838 81.2622C61.623 81.4662 60.0834 83.2764 60.4742 84.9686C60.8994 86.8131 62.9694 86.7637 63.7682 86.3192C64.6572 85.8253 65.2777 84.0924 65.179 82.993C65.0544 81.6015 63.4783 81.1098 62.6838 81.2622Z" fill="#FFD677" stroke="black" stroke-width="1.72881" stroke-linecap="round" stroke-linejoin="round"/>
<path d="M67.9897 88.5748C67.5581 88.9742 67.3434 89.8632 68.606 90.8316C69.7333 91.6949 70.6352 90.851 70.7555 90.3742C71.0947 89.0236 68.9453 87.6922 67.9897 88.5748Z" fill="#FFD677" stroke="black" stroke-width="1.72881" stroke-linecap="round" stroke-linejoin="round"/>
</svg>
