<svg width="102" height="102" viewBox="0 0 102 102" fill="none" xmlns="http://www.w3.org/2000/svg">
<g clip-path="url(#clip0_3359_37788)">
<path d="M7.42621 20.3247C7.00298 19.0998 7.89871 17.2009 9.52671 17.5077C10.839 17.7562 11.1749 19.1312 10.7404 20.3561C12.1826 20.1613 13.3 21.1958 13.1903 22.3289C13.0492 23.7711 11.3383 24.1809 10.3508 23.4665C11.0651 25.4483 9.86261 26.9129 8.30179 26.5008C7.43293 26.2724 6.64469 24.9512 7.30977 23.48C5.73552 24.1943 4.35609 22.9448 4.45686 21.7176C4.59794 19.9888 6.41851 19.794 7.42621 20.3247Z" fill="#FFE885" stroke="#FFB239" stroke-width="1.72881" stroke-linecap="round" stroke-linejoin="round"/>
<path d="M7.99867 63.2213C7.23954 61.824 7.85759 59.2846 10.3388 59.2891C12.4908 59.2913 13.2857 61.5105 13.017 62.8115C15.1377 62.2696 16.3268 63.7341 16.2439 65.3353C16.1454 67.232 14.4636 67.7246 12.9073 67.5231C13.7963 69.7109 12.4706 71.3456 10.6635 71.4016C9.36914 71.4419 7.55304 70.4477 8.19125 68.1165C6.35052 69.0593 4.61056 67.8881 4.43141 66.1235C4.2142 63.9648 6.19825 62.9168 7.99643 63.2191L7.99867 63.2213Z" fill="#FFE885" stroke="#FFB239" stroke-width="1.72881" stroke-linecap="round" stroke-linejoin="round"/>
<path d="M85.8894 23.0794C84.3443 22.6024 83.2201 20.1548 84.9422 18.753C86.4963 17.4878 88.496 18.6008 89.1364 20.175C89.9045 18.0656 92.0274 17.6042 93.2053 18.5694C94.7079 19.7988 94.2309 22.009 92.5335 22.9025C94.3026 24.1633 94.2175 26.257 92.7843 27.1304C91.7565 27.7574 89.6672 27.6521 88.9886 25.4845C88.7714 27.5223 86.6262 28.2433 85.2602 27.3185C83.5919 26.1899 84.0845 24.002 85.8894 23.0772V23.0794Z" fill="#FFE885" stroke="#FFB239" stroke-width="1.72881" stroke-linecap="round" stroke-linejoin="round"/>
<path d="M30.1794 69.0616C25.3693 65.8101 24.2788 62.5854 22.7247 58.2143C21.923 55.957 21.1751 55.2561 18.6558 52.916C16.9942 51.3731 15.4737 49.1584 14.7571 46.6279C13.2478 41.2961 15.3864 36.3136 28.3163 30.8653C41.1454 25.4617 46.5467 23.3187 50.8261 19.373C55.2689 15.2773 61.033 14.6189 64.9204 16.7373C68.1832 18.5131 70.1224 21.5698 71.1839 23.9972C72.2453 26.4247 72.5745 27.1278 74.3413 29.1701C76.1059 31.2101 78.5961 34.334 79.2903 38.9067" fill="white"/>
<path d="M30.1794 69.0616C25.3693 65.8101 24.2788 62.5854 22.7247 58.2143C21.923 55.957 21.1751 55.2561 18.6558 52.916C16.9942 51.3731 15.4737 49.1584 14.7571 46.6279C13.2478 41.2961 15.3864 36.3136 28.3163 30.8653C41.1454 25.4617 46.5467 23.3187 50.8261 19.373C55.2689 15.2773 61.033 14.6189 64.9204 16.7373C68.1832 18.5131 70.1224 21.5698 71.1839 23.9972C72.2453 26.4247 72.5745 27.1278 74.3413 29.1701C76.1059 31.2101 78.5961 34.334 79.2903 38.9067" stroke="black" stroke-width="1.72881" stroke-linecap="round" stroke-linejoin="round"/>
<path d="M65.2174 30.3892C62.678 25.6284 57.0841 21.9626 52.077 20.8071C51.2977 19.8218 50.0817 18.6641 48.98 18.5073C47.623 18.3125 46.3622 18.9507 44.9716 20.7399C42.7614 21.3042 41.1625 21.4386 38.3163 22.9613C35.8261 24.2938 33.2039 26.036 31.3005 28.0693C29.2962 28.3246 27.0435 28.7769 26.2508 30.6042C25.6999 31.8739 26.2351 34.0416 26.9114 34.9037C25.5902 39.3869 25.9529 45.2136 28.2572 49.3765C33.3965 58.6631 42.6158 61.1845 54.7261 53.8955C68.3211 45.713 69.3042 38.0545 65.2174 30.3892Z" fill="#FFD677" stroke="black" stroke-width="1.72881" stroke-linecap="round" stroke-linejoin="round"/>
<path d="M52.8978 37.1111C54.6355 39.3997 58.1311 40.02 60.5138 38.0136C62.9591 35.9556 62.7374 32.7467 61.1632 30.8186C59.4926 28.7718 57.1122 27.7171 54.116 29.7795C51.5161 31.5688 51.0078 34.6255 52.8956 37.1111H52.8978Z" fill="#FF9470"/>
<path d="M33.8844 48.0906C35.6221 50.3792 39.1177 50.9995 41.5003 48.9931C43.9457 46.9351 43.724 43.7261 42.1497 41.7981C40.4792 39.7513 38.0988 38.6966 35.1026 40.759C32.5027 42.5483 31.9944 45.6049 33.8821 48.0906H33.8844Z" fill="#FF9470"/>
<path d="M50.4559 47.6118C52.3661 47.6118 53.338 46.3086 53.7164 45.7129" stroke="black" stroke-width="1.72881" stroke-linecap="round" stroke-linejoin="round"/>
<path d="M50.9655 39.4082C50.9655 39.4082 52.3763 43.0158 50.4751 43.9966C47.9872 45.2797 46.5652 41.5624 46.5652 41.5624L47.8886 40.0755L50.9655 39.4104V39.4082Z" fill="#B53F3C" stroke="black" stroke-width="1.72881" stroke-linecap="round" stroke-linejoin="round"/>
<path d="M45.693 36.4359C42.9341 38.1177 41.6443 40.9236 43.3551 42.7531C44.6651 44.1549 48.0219 43.6891 48.7295 40.142C51.9967 42.1216 53.4164 39.1343 52.785 37.3653C51.9833 35.1125 48.8661 34.5011 45.6907 36.4337L45.693 36.4359Z" fill="white" stroke="black" stroke-width="1.72881" stroke-linecap="round" stroke-linejoin="round"/>
<path d="M40.3248 41.4343L42.5216 41.085" stroke="black" stroke-width="1.72881" stroke-linecap="round" stroke-linejoin="round"/>
<path d="M41.8312 44.7863L43.7257 43.1113" stroke="black" stroke-width="1.72881" stroke-linecap="round" stroke-linejoin="round"/>
<path d="M52.5258 34.1973L51.4689 35.7939" stroke="black" stroke-width="1.72881" stroke-linecap="round" stroke-linejoin="round"/>
<path d="M54.7266 37.7715H52.9261" stroke="black" stroke-width="1.72881" stroke-linecap="round" stroke-linejoin="round"/>
<path d="M37.8215 37.8309C38.1238 37.1367 38.9815 36.0215 38.9815 36.0215" stroke="black" stroke-width="1.72881" stroke-linecap="round" stroke-linejoin="round"/>
<path d="M48.5598 30.7407C49.263 30.7116 50.4946 30.8101 50.4946 30.8101" stroke="black" stroke-width="1.72881" stroke-linecap="round" stroke-linejoin="round"/>
<path d="M39.0199 38.0993C39.1767 37.8104 39.8574 36.8027 39.8574 36.8027" stroke="black" stroke-width="1.72881" stroke-linecap="round" stroke-linejoin="round"/>
<path d="M48.6927 31.7306C49.9602 31.7105 50.4909 31.8404 50.4909 31.8404" stroke="black" stroke-width="1.72881" stroke-linecap="round" stroke-linejoin="round"/>
<path d="M99.2885 54.5978C99.2885 54.5978 97.5933 51.7785 94.8747 48.9928C91.1686 45.1926 90.2774 43.1011 88.103 40.2571C86.2533 37.8364 82.7622 34.4013 77.9946 36.5577C76.5055 37.2318 72.1097 39.03 66.2292 42.2882C53.3754 49.4093 40.0334 57.8717 33.7163 62.7691C27.3991 67.6666 25.8002 69.4446 25.5965 73.5762C25.3725 78.1534 29.0562 81.2504 30.0684 82.435C31.0806 83.6196 32.9079 86.9651 34.7844 89.4665C48.104 91.605 69.109 91.3766 80.178 87.4444C91.8203 83.3083 101.04 74.0084 99.284 54.5978H99.2885Z" fill="#FF9797"/>
<path d="M34.7861 89.4665C32.9073 86.9629 31.08 83.6196 30.0701 82.435C29.0602 81.2504 25.3742 78.1534 25.5982 73.5762C25.7997 69.4446 27.4008 67.6666 33.718 62.7691C40.0351 57.8717 53.3771 49.4093 66.2309 42.2882C72.1114 39.03 76.5072 37.2318 77.9963 36.5577C82.7639 34.4013 86.2528 37.8364 88.1047 40.2571C90.2768 43.1011 91.1703 45.1926 94.8764 48.9928C97.595 51.7785 99.2902 54.5978 99.2902 54.5978" stroke="black" stroke-width="1.72881" stroke-linecap="round" stroke-linejoin="round"/>
<path d="M41.3113 56.118C42.9169 58.1491 42.6527 60.6258 39.6788 62.8472C36.705 65.0687 34.1208 64.6902 32.6137 62.6323C31.0731 60.5273 31.9778 57.7259 34.3806 55.9255C36.7834 54.1273 39.8378 54.2504 41.3136 56.118H41.3113Z" fill="#FFD677" stroke="black" stroke-width="1.72881" stroke-linecap="round" stroke-linejoin="round"/>
<path d="M74.2185 36.8016C75.7255 38.9088 75.1142 41.5602 72.2255 43.4681C69.1934 45.4723 66.5465 45.0648 65.1402 42.9374C63.7026 40.7608 64.7595 37.993 67.2653 36.3C69.7711 34.6048 72.8323 34.8646 74.2185 36.8016Z" fill="#FFD677" stroke="black" stroke-width="1.72881" stroke-linecap="round" stroke-linejoin="round"/>
</g>
<defs>
<clipPath id="clip0_3359_37788">
<rect width="102" height="102" fill="white"/>
</clipPath>
</defs>
</svg>
