<svg width="11" height="11" viewBox="0 0 11 11" fill="none" xmlns="http://www.w3.org/2000/svg">
<path d="M7.5132 5.47778C7.5132 5.99478 7.4582 6.47878 7.3317 6.89678C7.2052 7.31478 7.0072 7.66678 6.7212 7.91428C6.4352 8.16178 6.0392 8.32128 5.5442 8.32128C5.0492 8.32128 4.6917 8.18378 4.4002 7.94178C4.0702 7.66678 3.8502 7.26528 3.7237 6.77578C3.6192 6.38528 3.5752 5.94528 3.5752 5.47778C3.5752 5.16428 3.6027 4.85078 3.6522 4.55378C3.7347 4.11928 3.8722 3.71778 4.0922 3.39878C4.2407 3.17878 4.4222 2.99728 4.6477 2.86528C4.8952 2.71678 5.1922 2.63428 5.5442 2.63428C5.8962 2.63428 6.2152 2.71678 6.4682 2.86528C6.7817 3.04678 7.0182 3.32728 7.1832 3.68478C7.4142 4.17428 7.5132 4.79578 7.5132 5.47778Z" stroke="#683E28" stroke-width="0.846154" stroke-linecap="round" stroke-linejoin="round"/>
</svg>
