<svg width="252" height="252" viewBox="0 0 252 252" fill="none" xmlns="http://www.w3.org/2000/svg">
<path fill-rule="evenodd" clip-rule="evenodd" d="M126 0C172.795 0 204.331 8.04814 224.141 27.8585C243.952 47.6689 252 79.205 252 126C252 172.795 243.952 204.331 224.141 224.141C204.331 243.952 172.795 252 126 252C79.205 252 47.6689 243.952 27.8585 224.141C8.04814 204.331 0 172.795 0 126C0 79.205 8.04814 47.6689 27.8585 27.8585C47.6689 8.04814 79.205 0 126 0Z" fill="#FF5A21" fill-opacity="0.5"/>
<path fill-rule="evenodd" clip-rule="evenodd" d="M169.144 144.325C167.949 142.405 165.153 142.405 163.958 144.325L125.93 205.411C124.664 207.446 126.127 210.08 128.523 210.08H204.579C206.975 210.08 208.438 207.446 207.172 205.411L169.144 144.325ZM162.258 168.849C162.105 167.416 163.228 166.166 164.669 166.166H168.437C169.878 166.166 171.001 167.416 170.847 168.849L169.076 185.382C168.944 186.614 167.904 187.548 166.665 187.548H166.44C165.201 187.548 164.162 186.614 164.03 185.382L162.258 168.849ZM166.553 191.839C164.24 191.839 162.353 193.717 162.353 196.019C162.353 198.321 164.24 200.199 166.553 200.199C168.866 200.199 170.753 198.321 170.753 196.019C170.753 193.717 168.866 191.839 166.553 191.839Z" fill="white"/>
</svg>
