<svg fill="none" height="20" viewBox="0 0 20 20" width="20" xmlns="http://www.w3.org/2000/svg"><path d="m10 20c-7.36107 0-10-2.6388-10-10 0-7.08339 2.63893-10 10-10 7.3612 0 10 2.63893 10 10 0 7.3612-2.6388 10-10 10z" fill="#f4551e"/><g fill="#fff" opacity=".7"><path d="m9.80967 10.4458c1.46193 0 2.64713-1.18513 2.64713-2.64709 0-1.46195-1.1852-2.6471-2.64713-2.6471-1.46196 0-2.6471 1.18515-2.6471 2.6471 0 1.46196 1.18514 2.64709 2.6471 2.64709z"/><path d="m9.80549 11.2262c-1.41002 0-2.60456.2714-3.45526.8722-.86833.6133-1.33815 1.5417-1.33815 2.7501h9.59482c0-1.2085-.4698-2.1369-1.3393-2.7502-.8517-.6008-2.0483-.8721-3.46211-.8721z"/></g><g clip-rule="evenodd" fill-rule="evenodd"><path d="m13.0729 7.83081 5.1651 8.33829h-10.33016z" fill="#f4551e"/><path d="m13.2788 9.60547c-.0947-.153-.3173-.153-.4121 0l-3.01918 4.87303c-.10006.1615.0161.3701.20608.3701h6.0383c.19 0 .3062-.2086.2061-.3701zm-.5307 2.08943c-.0207-.1931.1307-.3615.3249-.3615s.3456.1684.3249.3615l-.1237 1.1546c-.011.1029-.0978.1808-.2012.1808s-.1902-.0779-.2012-.1808zm.3249 1.6991c-.1836 0-.3334.1498-.3334.3334 0 .1835.1498.3333.3334.3333.1835 0 .3333-.1498.3333-.3333 0-.1836-.1498-.3334-.3333-.3334z" fill="#fff"/></g></svg>