<svg fill="none" height="24" viewBox="0 0 24 24" width="24" xmlns="http://www.w3.org/2000/svg"><path clip-rule="evenodd" d="m18.2 12.0002c0 3.4243-2.7757 6.1998-6.2 6.1998-1.3501 0-2.59949-.4315-3.61761-1.1641l8.65341-8.65342c.7327 1.01815 1.1642 2.26752 1.1642 3.61772zm-11.23248 3.6221 8.65468-8.65469c-1.0189-.73471-2.27-1.16756-3.6222-1.16756-3.42413 0-6.19995 2.77582-6.19995 6.20015 0 1.3522.43281 2.6032 1.16747 3.6221zm13.23248-3.6221c0 4.5289-3.6712 8.1998-8.2 8.1998-4.52874 0-8.19995-3.6709-8.19995-8.1998 0-4.52885 3.67121-8.20015 8.19995-8.20015 4.5288 0 8.2 3.6713 8.2 8.20015z" fill="#424242" fill-rule="evenodd"/></svg>