<svg fill="none" height="28" viewBox="0 0 36 28" width="36" xmlns="http://www.w3.org/2000/svg" xmlns:xlink="http://www.w3.org/1999/xlink"><clipPath id="a"><path d="m9.5 7h17v12h-17z"/></clipPath><rect fill="#000" fill-opacity=".04" height="28" rx="3" width="36"/><g clip-path="url(#a)"><path clip-rule="evenodd" d="m16.1476 15.0012c3.5477 0 5.3307 1.7567 5.3307 4h-10.6717c0-2.2433 1.7831-4 5.3308-4zm8.1738-4.371-.0002 1.95 1.9509.0007v1.1704l-1.9509-.0001.0002 1.9508h-1.1704l-.0008-1.9508-1.95.0001v-1.1704l1.95-.0007.0008-1.95zm-8.1841-3.01155c1.6899 0 3.0664 1.37623 3.0664 3.06645 0 1.6898-1.3765 3.0664-3.0664 3.0664s-3.0664-1.3766-3.0664-3.0664c0-1.69022 1.3765-3.06645 3.0664-3.06645z" fill="#b3b3b3" fill-rule="evenodd"/></g></svg>