<svg fill="none" height="24" viewBox="0 0 24 24" width="24" xmlns="http://www.w3.org/2000/svg"><path clip-rule="evenodd" d="m13.7457 14.2152h.0536v-2.8254c0-.5976-.1602-1.0327-.4808-1.3583-.3205-.32632-.6947-.48877-1.1748-.48877-.641 0-1.0682.21683-1.3358.65197v-2.39099h-1.12186v6.35709h1.12186v-2.391c0-.7063.3742-1.0863.9616-1.0863.5338 0 .8543.3263.8543.9231v2.6086zm-6.21708-2.391c-.21393.8151-.90867 1.3039-1.76295 1.3039-1.12188 0-1.97689-.8688-1.97689-2.0646 0-1.19516.80135-2.06467 2.02983-2.06467.855 0 1.54902.5439 1.76295 1.35827h1.22848c-.32053-1.52071-1.49535-2.55339-3.04437-2.55339-1.76295 0-3.20537 1.35829-3.20537 3.25979 0 1.9014 1.38875 3.2597 3.20537 3.2597 1.54902 0 2.67017-.9775 2.99071-2.499zm-7.02862-.7735c0-4.18361 3.61148-7.5507 8.02502-7.5507 4.46428 0 7.97498 3.36709 7.97498 7.5507 0 4.1837-3.6108 7.5508-8.02502 7.5508-.50183 0-1.05298-.0508-1.55482-.1538l-.05004-.0507-3.0596 2.2959c-.1008.1023-.30096 0-.30096-.153v-3.6223c-1.7557-1.3264-3.00956-2.8058-3.00956-5.8669zm19.2502 2.9493v-2.2493h-2.2502v-1.5h2.2502v-2.2507h1.5v2.2507h2.2498v1.5h-2.2498v2.2493z" fill="#424242" fill-rule="evenodd"/></svg>