<svg width="18" height="18" viewBox="0 0 18 18" fill="none" xmlns="http://www.w3.org/2000/svg">
<g clip-path="url(#clip0_317_9019)">
<path fill-rule="evenodd" clip-rule="evenodd" d="M14.7913 0.871777L6.25317 4.14211V4.14227H6.25005V11.5641H6.25244V16.0176C6.25244 16.2909 6.47397 16.5124 6.74723 16.5124H7.95765C8.23092 16.5124 8.45244 16.2909 8.45244 16.0176V12.268L14.7935 14.6799C15.4479 14.9288 16.149 14.4454 16.149 13.7452V1.80562C16.149 1.10443 15.4461 0.620971 14.7913 0.871777ZM4.85005 11.5641V4.14227H2.98755C2.33171 4.14227 1.80005 4.67394 1.80005 5.32977V10.3766C1.80005 11.0325 2.33171 11.5641 2.98755 11.5641H4.85005Z" fill="#1683FF"/>
</g>
<defs>
<clipPath id="clip0_317_9019">
<rect width="18" height="18" fill="white"/>
</clipPath>
</defs>
</svg>
