<svg width="18" height="18" viewBox="0 0 18 18" fill="none" xmlns="http://www.w3.org/2000/svg">
<g clip-path="url(#clip0_317_9060)">
<path fill-rule="evenodd" clip-rule="evenodd" d="M9.00002 17.1C13.4735 17.1 17.1 13.4735 17.1 9.00002C17.1 4.52652 13.4735 0.900024 9.00002 0.900024C4.52652 0.900024 0.900024 4.52652 0.900024 9.00002C0.900024 13.4735 4.52652 17.1 9.00002 17.1ZM9.00007 12.3307C9.64421 12.3307 10.2456 12.1478 10.7553 11.8311L9.79192 10.8678L10.7465 9.91321L11.7347 10.9014C12.11 10.3624 12.3301 9.70728 12.3301 9.00073C12.3301 7.16162 10.8392 5.67073 9.00007 5.67073C7.16096 5.67073 5.67007 7.16162 5.67007 9.00073C5.67007 10.8398 7.16096 12.3307 9.00007 12.3307ZM9.00007 13.6807C10.018 13.6807 10.96 13.3558 11.728 12.8039L12.5124 13.5883L13.467 12.6337L12.7001 11.8668C13.3144 11.0749 13.6801 10.0805 13.6801 9.00073C13.6801 6.41603 11.5848 4.32073 9.00007 4.32073C6.41538 4.32073 4.32007 6.41603 4.32007 9.00073C4.32007 11.5854 6.41538 13.6807 9.00007 13.6807Z" fill="#616A78"/>
</g>
<defs>
<clipPath id="clip0_317_9060">
<rect width="18" height="18" fill="white"/>
</clipPath>
</defs>
</svg>
