<svg width="40" height="40" viewBox="0 0 40 40" fill="none" xmlns="http://www.w3.org/2000/svg">
<g clip-path="url(#clip0_130_19811)">
<path fill-rule="evenodd" clip-rule="evenodd" d="M26.7379 21.2092L22.4947 25.4525L22.4154 25.3732L22.0629 25.7276L16.3069 19.9707L10.4353 25.8423L9.46729 24.8742L16.2566 18.084L16.3358 18.1615L16.4058 18.0924L22.1617 23.8475L25.7708 20.2402L26.7379 21.2092Z" fill="white"/>
<path d="M25.3966 17.4591C26.3578 17.4591 27.137 16.663 27.137 15.6811C27.137 14.6992 26.3578 13.9031 25.3966 13.9031C24.4354 13.9031 23.6562 14.6992 23.6562 15.6811C23.6562 16.663 24.4354 17.4591 25.3966 17.4591Z" fill="white"/>
<path fill-rule="evenodd" clip-rule="evenodd" d="M34.9703 9.39049C34.9703 8.6239 34.3464 8 33.578 8L6.39236 8.00001C5.6295 8.00001 5 8.62298 5 9.38957V30.6079C5.00103 31.3762 5.62411 31.9984 6.39236 31.9984H17.3251L18.6457 30.5977H14.352L10.1852 30.5968H9.88958L7.50028 30.5958L7.32682 30.5949H6.36998L6.36998 25.7267L6.37091 25.3956V19.5539L6.37184 19.1762V9.39889L17.9733 9.39983H18.3892L25.3818 9.40076H25.7688L29.9356 9.40169L30.0807 9.40168L32.47 9.40262L32.6435 9.40355H33.6003V14.1961L33.5994 15.374L34.9703 14.0665V9.39049ZM21.3269 31.9984L16.9214 36.5L15.9534 35.5105L38.5426 12.4298L39.5106 13.4184L34.9703 18.0576L34.9703 30.6079C34.9703 31.3755 34.3408 31.9984 33.578 31.9984L21.3269 31.9984ZM22.6968 30.5987L33.5891 30.5995H33.5985L33.5985 26.9876L33.5994 20.3158V19.4584L22.6968 30.5987Z" fill="white"/>
</g>
<defs>
<clipPath id="clip0_130_19811">
<rect width="40" height="40" fill="white"/>
</clipPath>
</defs>
</svg>
