<svg width="18" height="18" viewBox="0 0 18 18" fill="none" xmlns="http://www.w3.org/2000/svg">
<g clip-path="url(#clip0_317_9028)">
<path fill-rule="evenodd" clip-rule="evenodd" d="M1 2.5C1 1.67157 1.67157 1 2.5 1H15.5C16.3284 1 17 1.67157 17 2.5V15.5C17 16.3284 16.3284 17 15.5 17H2.5C1.67157 17 1 16.3284 1 15.5V2.5ZM7.74305 8.03711C7.94197 8.03712 8.13274 8.11615 8.27339 8.25682L11.0804 11.0643L13.1064 9.03913L14.1668 10.1L11.6104 12.6553C11.3175 12.9481 10.8427 12.948 10.5498 12.6551L7.74298 9.84781L4.89025 12.7005L3.82959 11.6399L7.21269 8.25678C7.35335 8.11612 7.54413 8.0371 7.74305 8.03711ZM10.3999 5.90034C10.3999 6.56342 10.9372 7.10136 11.5996 7.10136C12.2626 7.10136 12.7999 6.56342 12.7999 5.90034C12.7999 5.23726 12.2626 4.7 11.5996 4.7C10.9372 4.7 10.3999 5.23726 10.3999 5.90034Z" fill="#00A74B"/>
</g>
<defs>
<clipPath id="clip0_317_9028">
<rect width="18" height="18" fill="white"/>
</clipPath>
</defs>
</svg>
