<svg fill="none" height="20" viewBox="0 0 20 20" width="20" xmlns="http://www.w3.org/2000/svg"><path d="m10 20c-7.36107 0-10-2.6388-10-10 0-7.08339 2.63893-10 10-10 7.3612 0 10 2.63893 10 10 0 7.3612-2.6388 10-10 10z" fill="#f4551e"/><path d="m7.64105 6.46656c-.22716.45647-.41026.96613-.54135 1.51292h-1.76524c.60037-1.38451 1.79894-2.4494 3.26965-2.86858-.37281.36251-.69802.82304-.96306 1.35566zm-2.72398 3.53339c0-.51569.07679-1.01344.21956-1.48245h1.85307c-.08103.47599-.12387.97434-.12387 1.4856 0 .5441.04851 1.0735.13993 1.577h-1.83831c-.16251-.4974-.25038-1.0285-.25038-1.58015zm3.67781 4.88645c-1.43175-.4111-2.60454-1.4343-3.21684-2.7683h1.74411c.13107.5195.30941 1.0042.52806 1.44.26114.5204.57997.9713.94467 1.3283zm6.02762-2.7683c-.6115 1.3323-1.7821 2.3546-3.2114 2.7667.3641-.3567.6823-.8071.9431-1.3267.2186-.4358.397-.9205.528-1.44zm.4609-2.11815c0 .55165-.0878 1.08275-.2503 1.58015h-1.8345c.0915-.5035.14-1.0329.14-1.577 0-.51126-.0429-1.00961-.1239-1.4856h1.8492c.1428.46901.2195.96676.2195 1.48245zm-3.6815-4.88749c1.4682.42027 2.6645 1.48423 3.2642 2.86702h-1.7614c-.1311-.54679-.3142-1.05645-.5414-1.51292-.2646-.53185-.5893-.99182-.9614-1.3541zm.4903 1.61455c.1863.37861.3411.79983.458 1.25247h-2.0816v-3.01588c.6477.30009 1.2121.92721 1.6236 1.76341zm-3.77999 0c.41037-.83395.97289-1.45995 1.61837-1.76098v3.01345h-2.07637c.11688-.45264.27169-.87386.458-1.25247zm-.57612 1.79049h2.19449v3.0626h-2.17729c-.0971-.499-.14944-1.0291-.14944-1.577 0-.5146.04618-1.01347.13224-1.4856zm2.73251 6.5252v-2.9246h2.0574c-.1098.4035-.2499.7809-.4158 1.1242-.4128.8545-.9842 1.4958-1.6416 1.8004zm2.1825-3.4626h-2.1825v-3.0626h2.1997c.0861.47213.1322.971.1322 1.4856 0 .5479-.0523 1.078-.1494 1.577zm-4.35692 1.6622c-.16585-.3433-.306-.7207-.41577-1.1242h2.05217v2.9221c-.65516-.3055-1.22466-.9457-1.6364-1.7979zm1.9058-8.86341c-3.10451 0-5.62121 2.5167-5.62121 5.62121 0 3.1045 2.5167 5.6212 5.62121 5.6212 3.10452 0 5.62122-2.5167 5.62122-5.6212 0-3.10451-2.5167-5.62121-5.62122-5.62121z" fill="#fff" opacity=".7" stroke="#fff" stroke-width=".030303"/><g clip-rule="evenodd" fill-rule="evenodd"><path d="m13.2729 8.73999 5.1651 8.33821h-10.33015z" fill="#f4551e"/><path d="m13.4788 10.5146c-.0948-.1529-.3174-.1529-.4122 0l-3.0191 4.8731c-.10008.1615.0161.3701.2061.3701h6.0383c.19 0 .3061-.2086.2061-.3701zm-.5307 2.0894c-.0207-.1932.1306-.3616.3249-.3616.1942 0 .3455.1684.3249.3616l-.1238 1.1546c-.011.1028-.0977.1808-.2011.1808-.1035 0-.1902-.078-.2012-.1808zm.3248 1.699c-.1836 0-.3333.1497-.3333.3333s.1497.3333.3333.3333.3334-.1497.3334-.3333-.1498-.3333-.3334-.3333z" fill="#fff"/></g></svg>