<svg width="40" height="40" viewBox="0 0 40 40" fill="none" xmlns="http://www.w3.org/2000/svg">
<g clip-path="url(#clip0_130_19819)">
<path fill-rule="evenodd" clip-rule="evenodd" d="M26.7379 21.2092L22.4947 25.4525L22.4154 25.3732L22.0629 25.7276L16.3069 19.9707L10.4353 25.8423L9.46729 24.8742L16.2566 18.084L16.3358 18.1615L16.4058 18.0924L22.1617 23.8475L25.7708 20.2402L26.7379 21.2092Z" fill="#888888"/>
<path d="M25.3966 17.4591C26.3578 17.4591 27.137 16.663 27.137 15.6811C27.137 14.6992 26.3578 13.9031 25.3966 13.9031C24.4354 13.9031 23.6562 14.6992 23.6562 15.6811C23.6562 16.663 24.4354 17.4591 25.3966 17.4591Z" fill="#888888"/>
<path fill-rule="evenodd" clip-rule="evenodd" d="M35.1208 9.39049C35.1208 8.6239 34.4969 8 33.7285 8H6.39236C5.6295 8 5 8.62297 5 9.38956V30.5709C5.00103 31.3391 5.62411 31.9614 6.39236 31.9614H17.3251L18.6457 30.5606H14.352L10.1852 30.5597H9.88958L7.50028 30.5588L7.32682 30.5578H6.36998L6.36998 25.7267L6.37091 25.3956V19.5539L6.37184 19.1762V9.39889L17.9733 9.39982H18.3892L25.3818 9.40075H25.7688L29.9356 9.40168H30.2313L32.6206 9.40262L32.794 9.40355H33.7509V14.1961L33.7499 15.374L35.1208 14.0665V9.39049ZM21.3632 31.9614L16.9214 36.5L15.9534 35.5105L38.5426 12.4298L39.5106 13.4184L35.1208 17.9038L35.1208 30.5709C35.1208 31.3384 34.4913 31.9614 33.7285 31.9614H21.3632ZM22.7331 30.5616L33.7397 30.5625H33.749L33.749 26.9876L33.7499 20.3158V19.3046L22.7331 30.5616Z" fill="#888888"/>
</g>
<defs>
<clipPath id="clip0_130_19819">
<rect width="40" height="40" fill="white"/>
</clipPath>
</defs>
</svg>
