<svg fill="none" height="24" viewBox="0 0 24 24" width="24" xmlns="http://www.w3.org/2000/svg"><g clip-rule="evenodd" fill="#424242" fill-rule="evenodd"><path d="m9.59736 4c-2.30709 0-4.17671 1.87154-4.17671 4.17939 0 2.30781 1.86962 4.17941 4.17671 4.17941 2.30704 0 4.17674-1.8716 4.17674-4.17941 0-2.30785-1.8697-4.17939-4.17674-4.17939zm-.00545 9.2598c-2.24713 0-4.1384.4293-5.48157 1.3799-1.37177.9709-2.11034 2.4425-2.11034 4.3598h.52411.5241 13.10359.5241.5241c0-1.9184-.7435-3.3899-2.1191-4.3602-1.3469-.9502-3.2418-1.3795-5.48899-1.3795z"/><path d="m17.595 11.7502v2.7498h1.5v-2.7498h2.75v-1.5h-2.75v-2.7502h-1.5v2.7502h-2.75v1.5z"/></g></svg>