<svg width="64" height="64" viewBox="0 0 64 64" fill="none" xmlns="http://www.w3.org/2000/svg">
<g clip-path="url(#clip0_157_11859)">
<path d="M32 64C49.6731 64 64 49.6731 64 32C64 14.3269 49.6731 0 32 0C14.3269 0 0 14.3269 0 32C0 49.6731 14.3269 64 32 64Z" fill="black" fill-opacity="0.7"/>
<path d="M19.6 24H35.4C36.2837 24 37 24.7163 37 25.6V38.4C37 39.2837 36.2837 40 35.4 40H19.6C18.7163 40 18 39.2837 18 38.4V25.6C18 24.7163 18.7163 24 19.6 24ZM39 29.6L44.4825 25.7623C45.2064 25.2555 46.204 25.4316 46.7108 26.1555C46.899 26.4244 47 26.7448 47 27.073V36.927C47 37.8106 46.2837 38.527 45.4 38.527C45.0717 38.527 44.7514 38.426 44.4825 38.2377L39 34.4V29.6Z" fill="white"/>
</g>
<defs>
<clipPath id="clip0_157_11859">
<rect width="64" height="64" fill="white"/>
</clipPath>
</defs>
</svg>
