<svg width="64" height="64" viewBox="0 0 64 64" fill="none" xmlns="http://www.w3.org/2000/svg">
<g clip-path="url(#clip0_135_20064)">
<path d="M32 64C49.6731 64 64 49.6731 64 32C64 14.3269 49.6731 0 32 0C14.3269 0 0 14.3269 0 32C0 49.6731 14.3269 64 32 64Z" fill="black" fill-opacity="0.6"/>
<path d="M27.5035 20.7129L42.07 30.6794C42.7993 31.1784 42.986 32.1741 42.487 32.9034C42.3751 33.0671 42.2337 33.2085 42.07 33.3204L27.5035 43.287C26.7742 43.786 25.7785 43.5993 25.2795 42.87C25.0974 42.6039 25 42.289 25 41.9665V22.0333C25 21.1497 25.7163 20.4333 26.6 20.4333C26.9224 20.4333 27.2374 20.5308 27.5035 20.7129Z" fill="white"/>
</g>
<defs>
<clipPath id="clip0_135_20064">
<rect width="64" height="64" fill="white"/>
</clipPath>
</defs>
</svg>
