<svg width="20" height="20" viewBox="0 0 20 20" fill="none" xmlns="http://www.w3.org/2000/svg">
<path d="M10.2292 5V5C8.2272 5 6.60417 6.65757 6.60417 8.70213V10.438C6.60417 10.8546 6.57033 11.2712 6.49268 11.68C6.40503 12.1403 6.25391 12.7146 6 13.17H10.2288" stroke="#191919" stroke-width="0.966667" stroke-linecap="round" stroke-linejoin="round"/>
<path d="M10.2305 5V5C12.2324 5 13.8555 6.65757 13.8555 8.70213V10.438C13.8555 10.8546 13.8893 11.2712 13.967 11.68C14.0546 12.1403 14.2057 12.7146 14.4596 13.17H10.2308" stroke="#191919" stroke-width="0.966667" stroke-linecap="round" stroke-linejoin="round"/>
<path d="M11.7396 13.17V13.3296C11.7396 14.1815 11.0632 14.8723 10.2293 14.8723C9.39509 14.8723 8.71875 14.1815 8.71875 13.3296V13.17" stroke="#191919" stroke-width="0.966667" stroke-linecap="round" stroke-linejoin="round"/>
</svg>
