<svg width="20" height="20" viewBox="0 0 20 20" fill="none" xmlns="http://www.w3.org/2000/svg">
<path d="M4.39844 14.6197L14.6184 4.39999" stroke="#191919" stroke-linejoin="round"/>
<path fill-rule="evenodd" clip-rule="evenodd" d="M6.4338 12.8588C6.56213 12.5368 6.66846 12.1625 6.75046 11.7405C6.8298 11.3328 6.86946 10.8965 6.86946 10.4445V8.71515C6.86946 6.85115 8.38613 5.33448 10.2505 5.33448C11.3071 5.33448 12.2515 5.82282 12.8718 6.58448L13.3078 6.14848C12.5745 5.27615 11.4765 4.71982 10.2505 4.71982C8.04746 4.71982 6.2548 6.51215 6.2548 8.71515V10.4445C6.2548 10.8575 6.21846 11.2542 6.14713 11.6232C6.0368 12.1912 5.87546 12.6722 5.6808 13.0142C5.6268 13.1092 5.62713 13.2262 5.68246 13.3208C5.73713 13.4155 5.83846 13.4735 5.9478 13.4735H5.9828L6.59746 12.8588H6.4338Z" fill="#191919" stroke="#191919" stroke-width="0.4"/>
<path fill-rule="evenodd" clip-rule="evenodd" d="M10.2539 14.5544C9.62655 14.5544 9.11355 14.0811 9.03955 13.4734H10.2536H10.2539H10.2542H11.4682C11.3939 14.0811 10.8812 14.5544 10.2539 14.5544ZM14.3568 11.6228C14.2855 11.2538 14.2491 10.8572 14.2491 10.4442V8.71483C14.2491 7.96183 14.0358 7.25883 13.6718 6.65683L13.2251 7.1035C13.4861 7.58283 13.6345 8.13183 13.6345 8.71483V10.4442C13.6345 10.8962 13.6745 11.3325 13.7538 11.7402C13.8355 12.1622 13.9418 12.5365 14.0701 12.8585H10.2541H10.2538H10.2535H7.47014L6.85547 13.4732H8.41714C8.49314 14.4208 9.28714 15.1692 10.2538 15.1692C11.2205 15.1692 12.0145 14.4208 12.0905 13.4732H14.5561C14.6658 13.4732 14.7668 13.4152 14.8218 13.3205C14.8771 13.2258 14.8775 13.1088 14.8231 13.0138C14.6285 12.6722 14.4675 12.1908 14.3568 11.6228Z" fill="#191919"/>
<path d="M9.03955 13.4734V13.2734H8.81372L8.84102 13.4976L9.03955 13.4734ZM11.4682 13.4734L11.6667 13.4977L11.6942 13.2734H11.4682V13.4734ZM13.6718 6.65683L13.8429 6.55335L13.7109 6.33492L13.5304 6.51541L13.6718 6.65683ZM13.2251 7.1035L13.0837 6.96208L12.978 7.06781L13.0495 7.19914L13.2251 7.1035ZM13.7538 11.7402L13.9502 11.7022L13.9501 11.702L13.7538 11.7402ZM14.0701 12.8585V13.0585H14.3651L14.2559 12.7845L14.0701 12.8585ZM7.47014 12.8585V12.6585H7.38729L7.32871 12.7171L7.47014 12.8585ZM6.85547 13.4732L6.71405 13.3317L6.37263 13.6732H6.85547V13.4732ZM8.41714 13.4732L8.6165 13.4572L8.60174 13.2732H8.41714V13.4732ZM12.0905 13.4732V13.2732H11.9059L11.8911 13.4572L12.0905 13.4732ZM14.8218 13.3205L14.6491 13.2196L14.6489 13.22L14.8218 13.3205ZM14.8231 13.0138L14.6494 13.1128L14.6495 13.1131L14.8231 13.0138ZM10.2539 14.3544C9.73047 14.3544 9.3002 13.9594 9.23808 13.4493L8.84102 13.4976C8.9269 14.2028 9.52263 14.7544 10.2539 14.7544V14.3544ZM9.03955 13.6734H10.2536V13.2734H9.03955V13.6734ZM10.2536 13.6734H10.2539V13.2734H10.2536V13.6734ZM10.2539 13.6734H10.2542V13.2734H10.2539V13.6734ZM10.2542 13.6734H11.4682V13.2734H10.2542V13.6734ZM11.2697 13.4491C11.2073 13.9594 10.7772 14.3544 10.2539 14.3544V14.7544C10.9852 14.7544 11.5805 14.2028 11.6667 13.4977L11.2697 13.4491ZM14.5532 11.5849C14.4845 11.2295 14.4491 10.8456 14.4491 10.4442H14.0491C14.0491 10.8687 14.0865 11.2782 14.1604 11.6608L14.5532 11.5849ZM14.4491 10.4442V8.71483H14.0491V10.4442H14.4491ZM14.4491 8.71483C14.4491 7.92344 14.2248 7.18489 13.8429 6.55335L13.5007 6.76031C13.8468 7.33277 14.0491 8.00022 14.0491 8.71483H14.4491ZM13.5304 6.51541L13.0837 6.96208L13.3666 7.24492L13.8132 6.79825L13.5304 6.51541ZM13.0495 7.19914C13.2949 7.64993 13.4345 8.16615 13.4345 8.71483H13.8345C13.8345 8.09751 13.6773 7.51573 13.4008 7.00785L13.0495 7.19914ZM13.4345 8.71483V10.4442H13.8345V8.71483H13.4345ZM13.4345 10.4442C13.4345 10.9078 13.4755 11.357 13.5575 11.7784L13.9501 11.702C13.8735 11.308 13.8345 10.8845 13.8345 10.4442H13.4345ZM13.5574 11.7782C13.641 12.2099 13.7505 12.5967 13.8843 12.9325L14.2559 12.7845C14.1331 12.4763 14.0299 12.1144 13.9502 11.7022L13.5574 11.7782ZM14.0701 12.6585H10.2541V13.0585H14.0701V12.6585ZM10.2541 12.6585H10.2538V13.0585H10.2541V12.6585ZM10.2538 12.6585H10.2535V13.0585H10.2538V12.6585ZM10.2535 12.6585H7.47014V13.0585H10.2535V12.6585ZM7.32871 12.7171L6.71405 13.3317L6.99689 13.6146L7.61156 12.9999L7.32871 12.7171ZM6.85547 13.6732H8.41714V13.2732H6.85547V13.6732ZM8.21778 13.4892C8.30201 14.5395 9.18168 15.3692 10.2538 15.3692V14.9692C9.39259 14.9692 8.68426 14.3021 8.6165 13.4572L8.21778 13.4892ZM10.2538 15.3692C11.3259 15.3692 12.2056 14.5395 12.2898 13.4892L11.8911 13.4572C11.8233 14.3021 11.115 14.9692 10.2538 14.9692V15.3692ZM12.0905 13.6732H14.5561V13.2732H12.0905V13.6732ZM14.5561 13.6732C14.7368 13.6732 14.9038 13.5774 14.9947 13.421L14.6489 13.22C14.6298 13.2529 14.5948 13.2732 14.5561 13.2732V13.6732ZM14.9945 13.4214C15.086 13.2648 15.0865 13.0714 14.9967 12.9145L14.6495 13.1131C14.6685 13.1462 14.6682 13.1869 14.6491 13.2196L14.9945 13.4214ZM14.9969 12.9148C14.8169 12.5988 14.6614 12.1405 14.5531 11.5846L14.1605 11.6611C14.2735 12.2412 14.4401 12.7455 14.6494 13.1128L14.9969 12.9148Z" fill="#191919"/>
</svg>
