<svg width="30" height="18" viewBox="0 0 30 18" fill="none" xmlns="http://www.w3.org/2000/svg">
<path d="M7.37305 1.59467C3.29749 1.59467 0 4.65745 0 8.44416C0 11.2285 1.16709 12.565 2.76026 13.7715V17.0385C2.76026 17.187 2.92699 17.2798 3.05667 17.187L5.83545 15.108C6.31711 15.2008 6.83581 15.2565 7.35452 15.2565C11.4115 15.2565 14.709 12.1937 14.7276 8.42559C14.7276 4.63889 11.4301 1.57611 7.35452 1.57611L7.37305 1.59467Z" fill="#1C1C1B"/>
<path d="M22.551 15.3832C18.7428 15.3832 15.6475 12.2879 15.6475 8.47966C15.6475 4.67145 18.7428 1.57611 22.551 1.57611C26.3592 1.57611 29.4546 4.67145 29.4546 8.47966C29.4546 12.2879 26.3592 15.3832 22.551 15.3832Z" fill="#FF5A5A"/>
<path d="M25.5134 8.0096H23.0374V5.5148H22.062V8.0096H19.5859V8.94749H22.062V11.4423H23.0374V8.94749H25.5134V8.0096Z" fill="white"/>
</svg>
