<svg width="38" height="38" viewBox="0 0 38 38" fill="none" xmlns="http://www.w3.org/2000/svg">
<rect width="38" height="38" rx="18" fill="black" fill-opacity="0.03"/>
<path fill-rule="evenodd" clip-rule="evenodd" d="M11.833 17.033C11.833 14.1614 14.1609 11.8335 17.0325 11.8335C19.9041 11.8335 22.232 14.1614 22.232 17.033C22.232 19.9046 19.9041 22.2325 17.0325 22.2325C14.1609 22.2325 11.833 19.9046 11.833 17.033ZM17.0325 10.3335C13.3325 10.3335 10.333 13.333 10.333 17.033C10.333 20.733 13.3325 23.7325 17.0325 23.7325C18.6123 23.7325 20.0644 23.1857 21.2098 22.271L26.9138 27.9749L27.9744 26.9143L22.2705 21.2103C23.1852 20.0649 23.732 18.6128 23.732 17.033C23.732 13.333 20.7325 10.3335 17.0325 10.3335Z" fill="black" fill-opacity="0.85"/>
</svg>
