<svg width="29" height="32" viewBox="0 0 29 32" fill="none" xmlns="http://www.w3.org/2000/svg">
<path fill-rule="evenodd" clip-rule="evenodd" d="M14.8469 1.06142L25.163 4.82845C26.2658 5.2312 27 6.28339 27 7.46139V17.0664C27 20.7106 26.0038 23.3312 23.4096 25.6629C21.5558 27.3289 19.2901 28.9874 17.2263 30.1933C16.1336 30.8315 15.537 31 14.4999 31C13.4628 31 12.8663 30.8315 11.7737 30.1933C9.70973 28.9874 7.44399 27.3289 5.59016 25.6629C2.99622 23.3312 2 20.7106 2 17.0664V7.46139C2 6.28339 2.73418 5.2312 3.83704 4.82845L14.153 1.06142C14.3771 0.979526 14.6227 0.979526 14.8469 1.06142ZM7.54774 15.2947C7.54774 11.7358 10.6603 8.85098 14.4999 8.85098C18.3397 8.85098 21.4519 11.7358 21.4519 15.2947L21.4434 15.2984C21.4369 18.852 18.3271 21.7307 14.4916 21.7307C13.9995 21.7307 13.5196 21.6827 13.0562 21.5925L10.4322 23.5437C10.3155 23.6305 10.1499 23.547 10.1499 23.4014V20.3209C8.64577 19.1772 7.54774 17.9224 7.54774 15.2947Z" fill="black"/>
</svg>
