<svg width="48" height="48" viewBox="0 0 48 48" fill="none" xmlns="http://www.w3.org/2000/svg">
<path d="M25.7574 21.8325L31.217 15.0669H24.7291L17.7381 26.2206H22.2164L16.7559 32.9862H20.6013L31.9739 21.8325H25.7574Z" stroke="black" stroke-width="1.2" stroke-linecap="round" stroke-linejoin="round"/>
<path d="M29.0651 21.8326H25.7568L28.6715 18.2217" stroke="black" stroke-width="1.2" stroke-miterlimit="10" stroke-linecap="round"/>
<path d="M19.8313 26.2207H22.2162L19.4404 29.6605" stroke="black" stroke-width="1.2" stroke-miterlimit="10" stroke-linecap="round"/>
<path d="M19.5797 18.26C19.5797 19.9887 18.1784 21.39 16.4497 21.39C14.721 21.39 13.3197 19.9887 13.3197 18.26C13.3197 16.5313 14.721 15.13 16.4497 15.13C18.1784 15.13 19.5797 16.5313 19.5797 18.26Z" stroke="black" stroke-width="1.2"/>
<path d="M34.6002 29.8001C34.6002 31.5288 33.1989 32.9301 31.4702 32.9301C29.7415 32.9301 28.3402 31.5288 28.3402 29.8001C28.3402 28.0714 29.7415 26.6701 31.4702 26.6701C33.1989 26.6701 34.6002 28.0714 34.6002 29.8001Z" stroke="black" stroke-width="1.2"/>
</svg>
