<svg width="40" height="40" viewBox="0 0 40 40" fill="none" xmlns="http://www.w3.org/2000/svg">
<path fill-rule="evenodd" clip-rule="evenodd" d="M14.7299 12.8835C9.60731 12.8835 5.45459 16.5505 5.45459 21.0739C5.45459 23.6583 6.81023 25.9626 8.92744 27.4637V30.8907C8.92744 31.2393 9.29626 31.4571 9.59213 31.2829L12.9068 29.1062C13.4962 29.2094 14.1061 29.2644 14.7299 29.2644C19.8525 29.2644 24.0053 25.5974 24.0053 21.0739C24.0053 16.5505 19.8525 12.8835 14.7299 12.8835" fill="#E6E6E6"/>
<path fill-rule="evenodd" clip-rule="evenodd" d="M22.9052 8.18188C20.09 8.18188 17.5101 9.0664 15.4973 10.5352C21.5402 10.8993 26.3384 15.4818 26.3384 21.0778C26.3384 24.09 24.9425 26.805 22.7173 28.734C22.7803 28.7346 22.8422 28.7382 22.9052 28.7382C23.6884 28.7382 24.4534 28.6695 25.1934 28.5394L29.3525 31.2717C29.7237 31.4902 30.1871 31.2168 30.1871 30.7788V26.4785C32.8435 24.5949 34.5452 21.7032 34.5452 18.4606C34.5452 12.7841 29.3339 8.18188 22.9052 8.18188" fill="#E6E6E6"/>
</svg>
