<svg width="16" height="16" viewBox="0 0 16 16" fill="none" xmlns="http://www.w3.org/2000/svg">
<path fill-rule="evenodd" clip-rule="evenodd" d="M7.99629 1H8.00412C11.8677 1.00206 14.9984 4.13313 15.0004 7.99629V8.00371C14.9984 11.8665 11.8677 14.9979 8.00412 15H7.99629C4.13189 14.9979 1 11.8648 1 8C1 4.13519 4.13189 1.00206 7.99629 1ZM10.9333 5.46667C10.9333 5.90849 10.5752 6.26667 10.1333 6.26667C9.69151 6.26667 9.33333 5.90849 9.33333 5.46667C9.33333 5.02484 9.69151 4.66667 10.1333 4.66667C10.5752 4.66667 10.9333 5.02484 10.9333 5.46667ZM6.92231 8.62091L4.75543 10.7878L3.9069 9.93927L6.45091 7.39526C6.71126 7.13491 7.13337 7.13491 7.39371 7.39526L9.46398 9.46552L11.2454 7.68406L12.094 8.53259L9.93538 10.6912C9.67503 10.9515 9.25292 10.9515 8.99257 10.6912L6.92231 8.62091Z" fill="#999999" fill-opacity="0.3"/>
</svg>
