<svg width="40" height="40" viewBox="0 0 40 40" fill="none" xmlns="http://www.w3.org/2000/svg">
<rect width="40" height="40" fill="black" fill-opacity="0.5"/>
<path d="M30.2037 16.0361L30.2192 16.0213V15.9999V13.1584C30.2192 12.6146 29.7767 12.1722 29.2317 12.1722H10.8262C10.2851 12.1722 9.83868 12.6138 9.83868 13.1578L9.83867 26.8598L9.83867 26.8598C9.8394 27.4047 10.2813 27.846 10.8262 27.846H18.1106H18.1322L18.147 27.8303L19.0361 26.8872L19.1156 26.8029H18.9998H16.1854L13.3799 26.8022H13.1809H13.1808L11.5724 26.8016L11.5721 26.8016L11.4556 26.801H11.4553H10.8611L10.8611 24.1578L10.8611 24.1576L10.8617 23.9349V23.9347V20.0015V20.0014L10.8623 19.7473V19.7471V13.214L18.6236 13.2147H18.9037L23.6118 13.2153H23.8724L26.6779 13.2159H26.877L28.4855 13.2166L28.4857 13.2166L28.6023 13.2172H28.6025H29.1968V16.394V16.3941L29.1961 16.8802L29.196 16.9972L29.2806 16.9165L30.2037 16.0361ZM29.1955 26.8041L21.4342 26.8035H21.2673H21.2462L21.2315 26.8186L20.3135 27.7611L20.2308 27.846H20.3493H29.2317C29.7727 27.846 30.2192 27.4044 30.2192 26.8598L30.2192 18.0825V17.9655L30.1346 18.0464L29.2116 18.9299L29.1961 18.9447V18.966V20.5144L29.1955 25.0066L29.1955 26.8041Z" fill="white" stroke="white" stroke-width="0.1"/>
<path fill-rule="evenodd" clip-rule="evenodd" d="M22.0736 20.3544C22.3396 20.1703 22.34 19.8699 22.0747 19.6838L18.2076 16.9715C17.9422 16.7853 17.7271 16.9234 17.7271 17.2811V22.7164C17.7271 23.0737 17.9423 23.2141 18.2087 23.0297L22.0736 20.3544Z" fill="white"/>
<path d="M32.5088 15.1696L32.4731 15.1331L32.4374 15.1696L17.2279 30.71L17.1937 30.7449L17.2279 30.7799L17.8797 31.4461L17.9154 31.4826L17.9512 31.4461L33.1606 15.9052L33.1949 15.8702L33.1606 15.8352L32.5088 15.1696Z" fill="white" stroke="white" stroke-width="0.1"/>
</svg>
