<svg width="40" height="40" viewBox="0 0 40 40" fill="none" xmlns="http://www.w3.org/2000/svg">
<rect width="40" height="40" fill="#F5F5F5"/>
<g clip-path="url(#clip0_139_29630)">
<path fill-rule="evenodd" clip-rule="evenodd" d="M24.5249 21.1159L21.6679 23.9729L21.6145 23.9195L21.3771 24.1581L17.5016 20.282L13.5483 24.2354L12.8965 23.5836L17.4677 19.0117L17.5211 19.0638L17.5682 19.0174L21.4437 22.8923L23.8737 20.4635L24.5249 21.1159Z" fill="#888888"/>
<path d="M23.1591 19.0119C23.8063 19.0119 24.3309 18.4759 24.3309 17.8148C24.3309 17.1536 23.8063 16.6177 23.1591 16.6177C22.5119 16.6177 21.9873 17.1536 21.9873 17.8148C21.9873 18.4759 22.5119 19.0119 23.1591 19.0119Z" fill="#888888"/>
<path fill-rule="evenodd" clip-rule="evenodd" d="M30.1692 13.1584C30.1692 12.6422 29.7491 12.2222 29.2317 12.2222H10.8262C10.3125 12.2222 9.88868 12.6416 9.88868 13.1578L9.88867 26.8598C9.88936 27.377 10.3089 27.796 10.8262 27.796H18.1872L19.0764 26.8529H16.1854L13.3799 26.8522H13.1808L11.5721 26.8516L11.4553 26.851H10.8111L10.8111 24.1576L10.8117 23.9347V20.0014L10.8123 19.7471V13.164L18.6237 13.1647H18.9037L23.6118 13.1653H23.8724L26.678 13.1659H26.877L28.4857 13.1666L28.6025 13.1672H29.2468V16.3941L29.2461 17.1871L30.1692 16.3068V13.1584ZM21.0723 26.8535L32.473 15.2048L33.1248 15.8704L30.1692 18.8904L30.1692 26.8598C30.1692 27.3765 29.7453 27.796 29.2317 27.796H21.4536L17.9154 31.4113L17.2636 30.7451L20.1499 27.796H19.9259L20.844 26.8535H21.0723ZM22.3759 26.8536L29.2392 26.8541H29.2455L29.2455 25.0066L29.2461 20.5145V19.8336L22.3759 26.8536Z" fill="#888888"/>
</g>
<defs>
<clipPath id="clip0_139_29630">
<rect width="28" height="28" fill="white" transform="translate(6 6)"/>
</clipPath>
</defs>
</svg>
