<svg width="79" height="79" viewBox="0 0 79 79" fill="none" xmlns="http://www.w3.org/2000/svg">
<rect width="79" height="79" fill="#F5F5F5"/>
<g clip-path="url(#clip0_255_7447)">
<path fill-rule="evenodd" clip-rule="evenodd" d="M51.8696 30C52.5348 30 53.0749 30.5401 53.0749 31.2037V35.2516L51.8882 36.3835L51.889 35.3639V31.215H51.0607L50.9105 31.2142L48.8421 31.2134H48.5862L44.9791 31.2126H44.6441L38.5908 31.2118H38.2307L28.1876 31.211V39.675L28.1868 40.0019V45.059L28.186 45.3456L28.186 48.8085H29.0143L29.1644 48.8093L31.2328 48.8101H31.4887L35.0958 48.8109H38.8128L37.6696 50.0235H28.2053C27.5403 50.0235 27.0009 49.4848 27 48.8198L27 31.2029C27 30.5393 27.545 30 28.2053 30H51.8696ZM41.8443 48.8117L51.8793 48.8125H51.8874L51.8874 46.4371L51.8882 40.6615V38.6707L53.0749 37.5347L53.0749 48.8198C53.0749 49.4842 52.53 50.0235 51.8696 50.0235H39.9051L41.0854 48.8117H41.8443Z" fill="#888888"/>
<path fill-rule="evenodd" clip-rule="evenodd" d="M45.818 41.4348L42.1447 45.1082L42.0761 45.0395L41.7709 45.3463L36.7881 40.3627L31.7052 45.4456L30.8672 44.6076L36.7445 38.7295L36.8131 38.7965L36.8737 38.7368L41.8565 43.7188L44.9808 40.596L45.818 41.4348Z" fill="#888888"/>
<path d="M44.0623 38.7296C44.8943 38.7296 45.5689 38.0405 45.5689 37.1905C45.5689 36.3405 44.8943 35.6514 44.0623 35.6514C43.2302 35.6514 42.5557 36.3405 42.5557 37.1905C42.5557 38.0405 43.2302 38.7296 44.0623 38.7296Z" fill="#888888"/>
<path fill-rule="evenodd" clip-rule="evenodd" d="M56.0374 33.835L56.8754 34.6907L37.3204 54.672L36.4824 53.8154L56.0374 33.835Z" fill="#888888"/>
</g>
<defs>
<clipPath id="clip0_255_7447">
<rect width="36" height="36" fill="white" transform="translate(22 22)"/>
</clipPath>
</defs>
</svg>
