<svg width="240" height="56" viewBox="0 0 240 56" fill="none" xmlns="http://www.w3.org/2000/svg">
<g clip-path="url(#clip0_711_47092)">
<path d="M18.8849 54.5275L40.243 52.6565C47.545 52.0205 53.1952 45.4386 53.1952 37.9323V18.061C53.1952 10.5547 47.545 3.98017 40.243 3.33678L18.8849 1.47314C9.94645 0.689234 2.3125 7.25632 2.3125 16.1825V39.8181C2.3125 48.7443 9.94645 55.3114 18.8849 54.5275Z" fill="#A4D9F8"/>
<path d="M43.5462 18.1715L26.6805 17.6168L25.1753 14.74L14.6699 14.3037V39.9435L18.0276 39.8177V45.0019L26.0552 39.5293L43.5462 38.8859V18.1715Z" fill="#FD72E6"/>
<path d="M22.25 30.3147L25.4139 30.2925V27.2235L22.25 27.2161V30.3147Z" fill="white"/>
<path d="M28.5029 30.2702L31.5434 30.248V27.2381L28.5029 27.2307V30.2702Z" fill="white"/>
<path d="M37.4403 27.2532L34.5156 27.2458V30.2262L37.4403 30.204V27.2532Z" fill="white"/>
</g>
<g clip-path="url(#clip1_711_47092)">
<path d="M80.3849 54.5273L101.743 52.6563C109.045 52.0203 114.695 45.4384 114.695 37.9321V18.0607C114.695 10.5544 109.045 3.97993 101.743 3.33653L80.3849 1.4729C71.4465 0.68899 63.8125 7.25608 63.8125 16.1823V39.8179C63.8125 48.7441 71.4465 55.3112 80.3849 54.5273Z" fill="#FED05A"/>
<path d="M91.4844 13.875C83.3487 13.5126 76.4326 19.5102 76.4326 27.2902C76.4326 33.0364 78.9027 35.7135 82.2295 38.0874V44.6989C82.2295 45.0095 82.5923 45.1722 82.847 44.9725L88.4663 40.5649C89.4389 40.7128 90.4423 40.7719 91.4612 40.735C99.1878 40.417 105.178 34.4267 105.185 27.3419H105.201C105.201 20.2424 99.211 14.2226 91.4767 13.875H91.4844Z" fill="#7E5D00"/>
</g>
<g clip-path="url(#clip2_711_47092)">
<path d="M159.623 54.5273L138.265 52.6563C130.963 52.0203 125.312 45.4384 125.312 37.9395V18.0681C125.312 10.5544 130.963 3.97993 138.265 3.33653L159.623 1.4729C168.554 0.68899 176.195 7.25608 176.195 16.1823V39.8179C176.195 48.7441 168.561 55.3112 159.623 54.5273Z" fill="#DCD3F6"/>
<path d="M148.555 42.5318C140.836 42.1473 134.869 35.6468 134.869 27.9999C134.869 20.3531 140.836 13.8526 148.555 13.468C156.706 13.0613 163.653 19.5618 163.653 27.9999C163.653 36.4381 156.706 42.9386 148.555 42.5318Z" fill="#FF5A5A"/>
<path d="M154.852 26.9866L149.573 27.0013V21.7358L147.543 21.7802V27.0087L142.518 27.0235V28.9685L147.543 28.9907V34.2192L149.573 34.2636V28.9981L154.852 29.0129V26.9866Z" fill="white"/>
</g>
<g clip-path="url(#clip3_711_47092)">
<path d="M221.123 54.5273L199.765 52.6563C192.463 52.0203 186.812 45.4384 186.812 37.9395V18.0681C186.812 10.5544 192.463 3.97993 199.765 3.33653L221.123 1.4729C230.054 0.68899 237.695 7.25608 237.695 16.1823V39.8179C237.695 48.7441 230.061 55.3112 221.123 54.5273Z" fill="#FFA8FF"/>
<path d="M216.854 14.3628L203.547 14.9692C199.525 15.1541 196.353 18.6373 196.353 22.7491V32.2078C196.353 36.327 199.533 39.7955 203.547 39.9582L205.878 40.0543V44.2031L213.905 40.3871L216.862 40.5128C221.393 40.7051 225.175 37.1775 225.175 32.6367V22.2019C225.175 17.6611 221.4 14.1483 216.862 14.3554L216.854 14.3628Z" fill="#787EF4"/>
<path d="M204.983 21.6401L201.417 32.9328L203.887 32.9772L204.512 30.6846L207.515 30.7142L207.53 30.766L208.156 33.0511L210.741 33.0955L207.098 21.5957L204.983 21.6401ZM205.107 28.5621L206.025 25.2416L206.928 28.5695H205.107V28.5621Z" fill="white" stroke="#787EF4" stroke-width="0.289062" stroke-miterlimit="10"/>
<path d="M218.491 23.4815V21.3442L211.528 21.4921V23.585L213.674 23.5555V31.0544L211.528 31.0322V33.1103L218.491 33.2286V31.0987L216.221 31.0765V23.5111L218.491 23.4815Z" fill="white" stroke="#787EF4" stroke-width="0.289062" stroke-miterlimit="10"/>
</g>
<defs>
<clipPath id="clip0_711_47092">
<rect width="50.875" height="53.1875" fill="white" transform="translate(2.3125 1.40625)"/>
</clipPath>
<clipPath id="clip1_711_47092">
<rect width="50.875" height="53.1875" fill="white" transform="translate(63.8125 1.40625)"/>
</clipPath>
<clipPath id="clip2_711_47092">
<rect width="50.875" height="53.1875" fill="white" transform="translate(125.312 1.40625)"/>
</clipPath>
<clipPath id="clip3_711_47092">
<rect width="50.875" height="53.1875" fill="white" transform="translate(186.812 1.40625)"/>
</clipPath>
</defs>
</svg>
