<svg fill="none" height="26" viewBox="0 0 26 26" width="26" xmlns="http://www.w3.org/2000/svg" xmlns:xlink="http://www.w3.org/1999/xlink"><clipPath id="a"><path d="m0 0h26v26h-26z"/></clipPath><g clip-path="url(#a)"><path d="m7.15306 4.11377-.08215.05027c-2.344 1.60247-3.65413 3.75869-2.84254 6.61686.47065 1.6576 1.22964 3.1821 2.18828 4.5673.64932.9382 1.26387 1.6489 1.91095 2.3007l.16614.1662c.65086.6461 1.36176 1.2609 2.30016 1.9106 1.3867.9601 2.9121 1.7199 4.5695 2.1902 2.5606.7273 4.6088-.2796 6.1956-2.2702.5565-.6991.3951-1.7287-.3417-2.2409l-3.2559-2.2646-.0813-.0506c-.3599-.1997-.8127-.145-1.1151.145l-1.667 1.5968-.0944-.0227c-.215-.0566-.4652-.1466-.7471-.2774-.8208-.3808-1.7223-1.0164-2.6744-1.9685-.9524-.9521-1.58819-1.8536-1.96913-2.6744-.13084-.2819-.22079-.5322-.27744-.7471l-.02357-.0953 1.59834-1.66678c.3118-.32515.3509-.82497.0941-1.19578l-2.62503-3.77519c-.27816-.39986-.80779-.52228-1.22631-.29448z" fill="#13aa2c"/></g></svg>