<svg fill="none" height="26" viewBox="0 0 26 26" width="26" xmlns="http://www.w3.org/2000/svg" xmlns:xlink="http://www.w3.org/1999/xlink"><clipPath id="a"><path d="m0 0h26v26h-26z"/></clipPath><g clip-path="url(#a)" fill="#949494"><path d="m7.0707 4.16383c-2.34403 1.60249-3.65417 3.75871-2.84257 6.61687.41917 1.4766 1.06958 2.8525 1.89067 4.1227.44127.6827.91159 1.3035 1.39724 1.8681.27218.3165.48131.5418.73585.8007l.29229.2928c1.76312 1.7378 3.95872 3.2392 6.81892 4.0514 2.5606.7266 4.6084-.2801 6.1956-2.2702.5564-.7006.3951-1.7294-.3417-2.2415l-3.2559-2.2647-.0812-.0505c-.3596-.1996-.8122-.1447-1.1148.1446l-1.6674 1.5973-.0944-.0229c-.2149-.0566-.4651-.1465-.747-.2773-.8208-.3809-1.7224-1.0164-2.6745-1.9685-.9524-.9524-1.58813-1.8541-1.96908-2.6748-.13084-.2818-.22079-.532-.27744-.7469l-.02356-.095 1.59838-1.66697c.3118-.32518.3509-.82588.0938-1.19613l-2.62548-3.77422c-.29563-.42645-.87873-.53805-1.30772-.24485z"/><path d="m21.0961 4.00586.943.943-2.667 2.667 2.667 2.66704-.943.943-2.667-2.66704-2.667 2.66704-.943-.943 2.667-2.66704-2.667-2.667.943-.943 2.667 2.667z"/></g></svg>