<svg fill="none" height="26" viewBox="0 0 26 26" width="26" xmlns="http://www.w3.org/2000/svg" xmlns:xlink="http://www.w3.org/1999/xlink"><clipPath id="a"><path d="m0 0h26v26h-26z"/></clipPath><g clip-path="url(#a)"><path d="m16.3612 6.00128h-11.45245c-1.05428 0-1.90875.85476-1.90875 1.90874v10.17998c0 1.054.85447 1.9088 1.90875 1.9088h11.45245c.3514 0 .6363-.2849.6363-.6363v-12.72497c0-.35139-.2849-.63625-.6363-.63625zm6.5199.21727-4.4537 5.08995c-.1015.116-.1574.2649-.1574.419v1.9088c0 .1415.0471.2789.134.3906l4.4537 5.7262c.372.4782 1.1385.2152 1.1385-.3906v-12.72497c0-.58749-.7282-.86111-1.1151-.41898z" fill="#191919"/></g></svg>