<svg fill="none" height="26" viewBox="0 0 26 26" width="26" xmlns="http://www.w3.org/2000/svg" xmlns:xlink="http://www.w3.org/1999/xlink"><clipPath id="a"><path d="m0 0h26v26h-26z"/></clipPath><g clip-path="url(#a)"><path clip-rule="evenodd" d="m13.947 16.0163-.8998.8998-3.0022-3.0023-3.00231 3.0023-.89979-.8998 3.00226-3.0029-3.00226-3.0023.89979-.89976 3.00231 3.00226 3.0022-3.00226.8998.89976-3.0023 3.0023zm2.4162-10.01604h-11.45417c-1.05251 0-1.90903.85588-1.90903 1.90903v10.18151c0 1.0525.85652 1.909 1.90903 1.909h11.45417c.3519 0 .6363-.2851.6363-.6363v-12.7269c0-.35189-.2844-.63634-.6363-.63634zm7.2238.04028c-.2476-.0929-.5282-.02291-.7026.17691l-4.4544 5.09075c-.1018.1158-.1578.2647-.1578.4193v1.9091c0 .1412.0478.2787.1343.3907l4.4544 5.7271c.1228.1578.3099.2456.5021.2456.0693 0 .1393-.0115.2068-.0344.2571-.0884.4295-.3309.4295-.6019v-12.7269c0-.26536-.1642-.50335-.4123-.59626z" fill="#949494" fill-rule="evenodd"/></g></svg>