<svg fill="none" height="32" viewBox="0 0 32 32" width="32" xmlns="http://www.w3.org/2000/svg"><g fill="#fff"><circle cx="16" cy="16" fill-opacity=".12" r="16"/><path clip-rule="evenodd" d="m8.39969 16.07c0-4.236 3.43401-7.67 7.67001-7.67s7.67 3.434 7.67 7.67-3.434 7.67-7.67 7.67-7.67001-3.434-7.67001-7.67zm7.67001-9.07c-5.0092 0-9.07001 4.0608-9.07001 9.07s4.06081 9.07 9.07001 9.07 9.07-4.0608 9.07-9.07-4.0608-9.07-9.07-9.07zm.9626 7.7048c.118.339-.0613.7095-.4004.8274-.2009.0699-.3193.2396-.3193.4215 0 .1814.1186.3516.3193.4214.3391.1179.5184.4884.4004.8274-.1179.3391-.4884.5183-.8274.4004-.6715-.2335-1.1923-.8613-1.1923-1.6492 0-.7887.521-1.4158 1.1923-1.6493.339-.1179.7095.0613.8274.4004zm-4.769 2.8551c.3208-.161.7114-.0313.8724.2896.5764 1.1492 1.7219 1.9165 3.0269 1.9165 1.3043 0 2.4494-.7672 3.0258-1.9165.161-.3209.5516-.4506.8725-.2896.3209.1609.4505.5515.2896.8724-.7791 1.5533-2.3531 2.6337-4.1879 2.6337-1.8351 0-3.4098-1.0803-4.1889-2.6337-.161-.3209-.0313-.7115.2896-.8724zm.2154-4.5475c.359 0 .65.2911.65.65v.7852c0 .359-.291.65-.65.65s-.65-.291-.65-.65v-.7852c0-.3589.291-.65.65-.65zm7.9679.6505c0-.359-.291-.65-.65-.65s-.65.291-.65.65v.7852c0 .359.291.65.65.65s.65-.291.65-.65z" fill-opacity=".7" fill-rule="evenodd"/></g></svg>