<svg fill="none" height="32" viewBox="0 0 32 32" width="32" xmlns="http://www.w3.org/2000/svg"><g fill="#fff"><circle cx="16" cy="16" fill-opacity=".2" r="16"/><path clip-rule="evenodd" d="m6.79999 15.1244c0-4.5258 4.22061-8.0243 9.20001-8.0243s9.2 3.4985 9.2 8.0243c0 4.5259-4.2207 8.024-9.2 8.024-.5068 0-1.0042-.0359-1.4894-.1048l-3.0727 2.278s0 0-.0001 0c-.5949.4412-1.4427.0198-1.44466-.7245 0-.0001 0-.0002 0-.0004l-.00945-3.3947c-.86969-.6246-1.64583-1.2995-2.21178-2.1955-.63939-1.0123-.97192-2.2426-.97192-3.8821zm9.20001-6.6243c-4.4091 0-7.80001 3.06-7.80001 6.6243 0 1.44.28868 2.3953.75557 3.1345.47584.7533 1.17594 1.3467 2.12534 2.0035l.3008.208.001.3657.0077 2.7779 2.5219-1.8697.2405-.1782.295.0507c.5015.0862 1.0202.1316 1.5522.1316 4.4091 0 7.8-3.0597 7.8-6.624s-3.391-6.6243-7.8-6.6243z" fill-opacity=".7" fill-rule="evenodd"/></g></svg>