<svg width="46" height="46" viewBox="0 0 46 46" fill="none" xmlns="http://www.w3.org/2000/svg">
<path fill-rule="evenodd" clip-rule="evenodd" d="M28.304 14.6879L29.0881 12.9489C29.258 12.5694 29.7977 12.5736 29.9628 12.9544L30.7194 14.6972L32.4333 15.4695C32.7875 15.6302 32.806 16.1128 32.4934 16.3084L32.4264 16.3435L30.7094 17.0885L29.9263 18.828C29.7668 19.1821 29.2842 19.2013 29.0867 18.8887L29.0512 18.8218L28.294 17.0779L26.5821 16.3071C26.2278 16.1475 26.2093 15.6642 26.5215 15.4679L26.5883 15.4327L28.304 14.6879ZM18.5455 20.5603L20.9913 15.1314C21.2646 14.5226 22.1313 14.528 22.3965 15.1398L24.761 20.5846C24.7715 20.6088 24.7896 20.6272 24.8124 20.6373L30.1633 23.0474C30.771 23.3219 30.7647 24.1871 30.1529 24.453L24.7884 26.7819C24.7661 26.7915 24.7471 26.8103 24.7367 26.8335L22.2908 32.2633C22.0174 32.8714 21.1502 32.8655 20.885 32.254L18.5213 26.8092C18.5109 26.7855 18.4923 26.7666 18.4699 26.7565L13.119 24.3464C12.5115 24.0721 12.5173 23.2071 13.1287 22.9408L18.4946 20.6116C18.5166 20.6022 18.535 20.5839 18.5455 20.5603Z" fill="white" fill-opacity="0.3"/>
</svg>
