<svg width="23" height="23" viewBox="0 0 23 23" fill="none" xmlns="http://www.w3.org/2000/svg">
<circle cx="11.5" cy="11.5" r="11.5" fill="white"/>
<path fill-rule="evenodd" clip-rule="evenodd" d="M11.9351 13.6614C13.2155 13.4594 14.2083 12.389 14.2899 11.073L11.9351 13.6614Z" fill="#151515"/>
<path fill-rule="evenodd" clip-rule="evenodd" d="M11.4976 14.8994C11.28 14.8994 11.0676 14.877 10.8592 14.8434L10.238 15.5262C10.5156 15.6018 10.8024 15.6546 11.0976 15.679V18.0994H11.8976V15.679C14.3572 15.4746 16.2976 13.411 16.2976 10.8994H15.4976C15.4976 13.105 13.7032 14.8994 11.4976 14.8994Z" fill="#151515"/>
<path fill-rule="evenodd" clip-rule="evenodd" d="M17.1825 5.42973L14.2993 8.59933V7.69893C14.2993 6.15493 13.0429 4.89893 11.4993 4.89893C9.95534 4.89893 8.69934 6.15493 8.69934 7.69893V10.8989C8.69934 11.9069 9.23654 12.7897 10.0381 13.2829L9.22054 14.1821C8.18174 13.4585 7.49934 12.2573 7.49934 10.8989H6.69934C6.69934 12.4921 7.48134 13.9033 8.68014 14.7757L5.60254 18.1585L5.64574 18.1977L6.19454 18.6969L9.37614 15.1997L9.93854 14.5817L10.8201 13.6121L14.2993 9.78813L17.7549 5.98933L17.7741 5.96813L17.1825 5.42973Z" fill="#151515"/>
</svg>
