<svg width="56" height="56" viewBox="0 0 56 56" fill="none" xmlns="http://www.w3.org/2000/svg">
<path fill-rule="evenodd" clip-rule="evenodd" d="M56 0H0V56H56V0ZM8 5C6.34315 5 5 6.34314 5 8V48C5 49.6569 6.34314 51 8 51H48C49.6569 51 51 49.6569 51 48V8C51 6.34315 49.6569 5 48 5H8Z" fill="#222222"/>
<path fill-rule="evenodd" clip-rule="evenodd" d="M6 0C2.68629 0 0 2.68629 0 6V50C0 53.3137 2.68629 56 6 56H50C53.3137 56 56 53.3137 56 50V6C56 2.68629 53.3137 0 50 0H6ZM8 5C6.34315 5 5 6.34314 5 8V48C5 49.6569 6.34314 51 8 51H48C49.6569 51 51 49.6569 51 48V8C51 6.34315 49.6569 5 48 5H8Z" fill="white" fill-opacity="0.12"/>
</svg>
