<svg fill="none" height="32" viewBox="0 0 32 32" width="32" xmlns="http://www.w3.org/2000/svg"><path clip-rule="evenodd" d="m14.9661 7.49c0-.65032.5271-1.1775 1.1775-1.1775.6503 0 1.1775.52718 1.1775 1.1775v7.3434h.6281v-5.6559c0-.65032.5272-1.1775 1.1775-1.1775s1.1775.52718 1.1775 1.1775v5.6559 2.5281c1.0116-1.6992 2.2174-2.3718 3.2819-2.1823.1208.0215.2378.0572.3479.1062.6844.3044.9619 1.0449.6197 1.6539l-2.7888 5.0381c-1.381 2.3809-3.7274 3.647-7.0726 3.647-3.1437 0-5.69207-2.2674-5.69207-5.0643v-5.1401h-.00023l.00023-.0362v-.5504h.00343l.02033-3.2583c.00404-.6474.53002-1.1701 1.17741-1.1701.6532 0 1.1816.5317 1.1775 1.1848l-.0202 3.2436h.6245v-6.08591c0-.65031.5271-1.1775 1.1775-1.1775.6503 0 1.1775.52719 1.1775 1.1775v6.08591h.6279z" fill="#fff" fill-rule="evenodd"/></svg>