<svg fill="none" height="32" viewBox="0 0 32 32" width="32" xmlns="http://www.w3.org/2000/svg"><path clip-rule="evenodd" d="m16.206 6.41113c-.813 0-1.589.11569-2.3267.30041-.2097.0525-.3833.19891-.4705.39669l-.6697 1.51918c-.4146.19617-.8074.42676-1.1771.68487l-1.6648-.18094c-.21489-.02335-.42851.05388-.57879.20924-1.07828 1.11482-1.88654 2.48872-2.3249 4.02262-.05938.2078-.01946.4314.10815.6058l.99006 1.3529c-.01937.22-.03127.4461-.03127.6781 0 .2316.01189.4579.0315.6784l-.99072 1.3531c-.12771.1744-.16767.398-.10828.6059.43819 1.5333 1.24454 2.908 2.32281 4.0222.15029.1553.36389.2325.57873.2091l1.67301-.182c.3672.2566.7574.4872 1.1705.6831l.6736 1.5276c.0873.198.2612.3445.4711.3968.7387.1842 1.5147.2947 2.3233.2947.8081 0 1.5841-.1105 2.3232-.2947.21-.0523.384-.1989.4713-.3969l.673-1.5276c.4131-.1958.8033-.4264 1.1705-.683l1.6735.182c.215.0234.4286-.0539.5789-.2093 1.0775-1.114 1.8844-2.4885 2.3227-4.022.0594-.2079.0194-.4316-.1084-.6061l-.9911-1.3528c.0198-.2201.032-.4465.032-.6785 0-.2319-.0122-.4584-.032-.6785l.9912-1.3535c.1277-.1744.1677-.3981.1082-.606-.4382-1.5324-1.2451-2.9067-2.3223-4.02169-.1503-.15556-.3641-.23291-.5792-.20952l-1.6738.18205c-.3671-.25629-.7571-.48674-1.1701-.68282l-.6732-1.52732c-.0872-.19804-.2612-.34457-.4712-.39691-.7391-.18417-1.5151-.29466-2.3232-.29466zm-2.2939 3.02624.6366-1.44415c.5414-.11544 1.0929-.18209 1.6573-.18209.5641 0 1.1159.06395 1.6549.17732l.6396 1.45111c.0713.16191.2014.29079.3639.36071.4854.20883.9421.47993 1.3691.79853.1418.1058.3184.154.4943.1349l1.5915-.1731c.7328.8236 1.3001 1.7948 1.6542 2.8639l-.9428 1.2875c-.1046.1428-.1512.3199-.1304.4956.0316.2683.0513.531.0513.7924s-.0197.5241-.0513.7924c-.0208.1758.0259.353.1305.4957l.9428 1.287c-.3542 1.07-.9215 2.0411-1.6541 2.8638l-1.5917-.1731c-.1761-.0192-.3528.0291-.4947.1352-.4268.3189-.8832.5898-1.3682.798-.1628.0699-.293.1989-.3645.361l-.6396 1.4516c-.539.1134-1.0907.1773-1.6548.1773-.5645 0-1.1163-.0639-1.6549-.1773l-.6401-1.4518c-.0715-.162-.2017-.291-.3645-.3608-.485-.2082-.9413-.4791-1.3681-.798-.1419-.1061-.3187-.1544-.4948-.1352l-1.5912.1731c-.73288-.8226-1.29987-1.7938-1.65399-2.8639l.94238-1.287c.10454-.1428.15113-.3198.1304-.4956-.03155-.2673-.05074-.5302-.05074-.7924 0-.2628.0192-.5254.05034-.7937.02033-.1753-.02625-.3517-.13043-.4941l-.94141-1.2865c.35423-1.0698.92236-2.0409 1.65625-2.8646l1.583.172c.1761.0192.353-.0292.4948-.1353.4263-.3188.8859-.5896 1.3748-.79958.1627-.06987.2929-.19882.3643-.36085zm-.2121 6.61933c0-1.3016 1.0553-2.3567 2.3572-2.3567 1.3017 0 2.3567 1.055 2.3567 2.3567s-1.055 2.3567-2.3567 2.3567c-1.3019 0-2.3572-1.0551-2.3572-2.3567zm2.3572-3.7567c-2.0748 0-3.7572 1.6816-3.7572 3.7567s1.6824 3.7567 3.7572 3.7567c2.0749 0 3.7567-1.6818 3.7567-3.7567s-1.6818-3.7567-3.7567-3.7567z" fill="#fff" fill-opacity=".7" fill-rule="evenodd"/></svg>