<svg fill="none" height="32" viewBox="0 0 32 32" width="32" xmlns="http://www.w3.org/2000/svg"><g fill="#fff"><circle cx="16" cy="16" fill-opacity=".2" r="16"/><path clip-rule="evenodd" d="m12.6739 12.2244c0-1.8239 1.4783-3.30218 3.3023-3.30218 1.8239 0 3.3022 1.47828 3.3022 3.30218 0 1.824-1.4783 3.3023-3.3022 3.3023-1.824 0-3.3023-1.4783-3.3023-3.3023zm3.3023-4.70218c-2.5972 0-4.7023 2.10506-4.7023 4.70218 0 2.5972 2.1051 4.7023 4.7023 4.7023 2.5971 0 4.7022-2.1051 4.7022-4.7023 0-2.59712-2.1051-4.70218-4.7022-4.70218zm-.0068 10.14008c-2.4623 0-4.5642.4727-6.06917 1.5344-1.54279 1.0884-2.37801 2.74-2.37801 4.8789h1.4c0-1.7283.64894-2.9334 1.78508-3.7349 1.1739-.8281 2.9456-1.2784 5.2621-1.2784 2.3236 0 4.0987.4504 5.2742 1.2787 1.1375.8014 1.7864 2.0064 1.7864 3.7346h1.4c0-2.139-.8353-3.7907-2.38-4.8791-1.5067-1.0616-3.6119-1.5342-6.0806-1.5342z" fill-opacity=".7" fill-rule="evenodd"/></g></svg>