<svg fill="none" height="56" viewBox="0 0 56 56" width="56" xmlns="http://www.w3.org/2000/svg"><path d="m5 5h46v46h-46z" fill="#000" fill-opacity=".3"/><g clip-rule="evenodd" fill-rule="evenodd"><path d="m56 0h-56v56h56zm-48 5c-1.65685 0-3 1.34314-3 3v40c0 1.6569 1.34314 3 3 3h40c1.6569 0 3-1.3431 3-3v-40c0-1.65685-1.3431-3-3-3z" fill="#222"/><path d="m6 0c-3.31371 0-6 2.68629-6 6v44c0 3.3137 2.68629 6 6 6h44c3.3137 0 6-2.6863 6-6v-44c0-3.31371-2.6863-6-6-6zm2 5c-1.65685 0-3 1.34314-3 3v40c0 1.6569 1.34314 3 3 3h40c1.6569 0 3-1.3431 3-3v-40c0-1.65685-1.3431-3-3-3z" fill="#fff" fill-opacity=".2"/></g></svg>