<svg fill="none" height="32" viewBox="0 0 32 32" width="32" xmlns="http://www.w3.org/2000/svg"><g fill="#fff"><circle cx="16" cy="16" fill-opacity=".12" r="16"/><path clip-rule="evenodd" d="m16.7309 8.16134c0-.18011-.1919-.46129-.6052-.46129-.4134 0-.6053.28118-.6053.46129v.5461c.0006.01128.0008.02264.0008.03406v5.8065c0 .3866-.3134.7-.7.7s-.7-.3134-.7-.7v-5.1913c-.0005-.01129-.0008-.02265-.0008-.03407 0-.18011-.1918-.46129-.6052-.46129s-.6052.28118-.6052.46129v1.70617c.0006.0119.0009.0239.0009.0359v3.4839c0 .3866-.3134.7-.7.7s-.7-.3134-.7-.7v-2.2868c-.0006-.0119-.0009-.0239-.0009-.0359 0-.1802-.1919-.4613-.6052-.4613-.4134 0-.6053.2811-.6053.4613v8.129c0 2.1042 1.945 3.9452 4.5209 3.9452 2.8625 0 4.7581-1.0638 5.8782-2.9905l2.5545-4.6148.0022-.0039c.0531-.0946.0561-.1882.0237-.2747-.0336-.0897-.1148-.1924-.2663-.2598-.0484-.0215-.1013-.0379-.1573-.0478-.5371-.0956-1.3346.1957-2.2126 1.6706-.1612.2707-.4834.4004-.7872.3168s-.5143-.3598-.5143-.6749v-7.51783c0-.18011-.1918-.46129-.6052-.46129-.3988 0-.5914.26167-.6045.44184v4.66418c0 .3866-.3134.7-.7.7s-.7-.3134-.7-.7v-4.61269c-.0005-.01062-.0007-.0213-.0007-.03204zm-.6052-1.86129c-.8358 0-1.6376.50112-1.9086 1.28073-.2232-.07785-.4611-.11944-.7019-.11944-1.0283 0-2.0052.75868-2.0052 1.86129v1.13017c-.1947-.0577-.3989-.0882-.6052-.0882-1.02836 0-2.00526.7586-2.00526 1.8613v8.129c0 3.0267 2.72996 5.3452 5.92086 5.3452 3.2713 0 5.6791-1.2567 7.0927-3.694l.007-.0122h-.0001l2.5558-4.6172.0012-.0022c.5395-.963.0591-2.0727-.8953-2.4973-.1537-.0683-.3154-.1175-.481-.147-.8501-.1512-1.6468.1282-2.3594.7312v-5.55813c0-1.10261-.9769-1.86129-2.0052-1.86129-.2064 0-.4107.03057-.6055.08834-.0181-1.0858-.9863-1.83027-2.0049-1.83027z" fill-opacity=".7" fill-rule="evenodd"/></g></svg>