<svg fill="none" height="24" viewBox="0 0 24 24" width="24" xmlns="http://www.w3.org/2000/svg"><path clip-rule="evenodd" d="m16.641 4.72718.6861-1.52158c.1486-.3321.6208-.32842.7653.00479l.662 1.52496 1.4997.6758c.31.14055.3261.56284.0526.73401l-.0586.03073-1.5024.65187-.6852 1.52202c-.1396.30988-.5619.32668-.7346.05316l-.0311-.05857-.6625-1.52594-1.498-.67445c-.31-.13963-.3262-.56249-.0531-.73424l.0585-.03085zm-8.53867 5.13841 2.14007-4.75027c.2391-.53272.9975-.528 1.2295.00731l2.0689 4.76422c.0093.02115.025.03722.045.04611l4.6821 2.10884c.5317.2401.5262.9972-.0092 1.2299l-4.6939 2.0377c-.0195.0085-.0362.0249-.0452.0452l-2.1402 4.7511c-.2392.5321-.998.527-1.23-.0082l-2.06832-4.7641c-.00905-.0208-.02534-.0374-.04494-.0462l-4.68209-2.1088c-.53152-.24-.52642-.9969.00857-1.2299l4.6951-2.03801c.01924-.00826.03539-.02424.04461-.0449z" fill="#fff" fill-rule="evenodd"/></svg>