<svg width="16" height="16" viewBox="0 0 16 16" fill="none" xmlns="http://www.w3.org/2000/svg">
<g clip-path="url(#clip0_522_40537)">
<path d="M7.9999 15.1003C11.9211 15.1003 15.0999 11.9215 15.0999 8.00027C15.0999 4.07905 11.9211 0.900269 7.9999 0.900269C4.07868 0.900269 0.899902 4.07905 0.899902 8.00027C0.899902 11.9215 4.07868 15.1003 7.9999 15.1003Z" fill="black" fill-opacity="0.42"/>
<path fill-rule="evenodd" clip-rule="evenodd" d="M10.0963 5.14652L10.4498 4.79297L11.1569 5.50008L10.8034 5.85363L8.68208 7.97493L10.8034 10.0963L11.157 10.4498L10.4499 11.1569L10.0963 10.8034L7.97497 8.68204L5.85363 10.8034L5.50008 11.1569L4.79297 10.4498L5.14652 10.0963L7.26786 7.97493L5.14656 5.85363L4.79301 5.50008L5.50012 4.79297L5.85367 5.14652L7.97497 7.26782L10.0963 5.14652Z" fill="white"/>
</g>
<defs>
<clipPath id="clip0_522_40537">
<rect width="16" height="16" fill="white"/>
</clipPath>
</defs>
</svg>
