<svg fill="none" height="20" viewBox="0 0 20 20" width="20" xmlns="http://www.w3.org/2000/svg"><path clip-rule="evenodd" d="m4.92462 8.04219.00018-.04299v-.29035c-.18689.02905-.40331.08184-.61515.17525-.26497.11684-.51257.29239-.69561.55758-.18121.26255-.32302.64734-.32302 1.22471 0 .58331.14224.97061.32336 1.23371.18276.2654.42969.4399.69373.5553.21237.0928.42946.1443.61669.1721v-3.57182zm.03643-1.34618c.05246-.00551.10182-.00961.14752-.01262.59417-2.14343 2.55944-3.71708 4.89193-3.71708 2.3329 0 4.2979 1.57366 4.892 3.71707.0457.00301.0951.00711.1476.01263.2804.02944.664.10073 1.0549.2731.3935.17352.8043.45424 1.1151.90453.3127.45294.5001 1.04287.5001 1.79275 0 .75411-.187 1.34651-.4997 1.80071-.3111.4519-.7226.7323-1.117.9046-.3917.1712-.7759.2402-1.0566.2679-.0587.0058-.1135.0098-.1637.0125-.4542 1.5545-1.6321 2.7998-3.1443 3.3471v.5347c0 .2762-.2238.5-.5.5h-2.58012c-.27614 0-.5-.2238-.5-.5v-1.8024c0-.2761.22386-.5.5-.5h2.58012c.2762 0 .5.2239.5.5v.1864c1.3873-.6501 2.3475-2.0596 2.3475-3.6923v-3.18904c-.0031-2.24829-1.8265-4.07025-4.0759-4.07025-2.23799 0-4.05502 1.80425-4.0757 4.03736v4.15093c0 .2625-.2029.4802-.46468.4988l-.03532-.4988c.03532.4988.03507.4988.0348.4988l-.00059.0001h-.00135l-.00345.0003-.00978.0005c-.00779.0005-.01809.001-.03074.0014-.02527.001-.06002.0018-.10292.0017-.0856-.0001-.20473-.0039-.34648-.0178-.28071-.0277-.66493-.0967-1.05658-.2679-.39441-.1723-.80593-.4527-1.117-.9046-.31271-.4542-.49969-1.0466-.49969-1.80071 0-.74988.1874-1.33981.50002-1.79275.3108-.45029.72165-.73101 1.11512-.90453.3909-.17237.77448-.24366 1.05489-.2731zm5.76785 8.92309v-.3876h-1.58012v.8024h1.58012v-.3849c-.0003-.01-.0003-.0199 0-.0299zm4.3475-4.3935v.4019c.1872-.0278.4043-.0793.6167-.1721.264-.1154.5109-.2899.6937-.5553.1811-.2631.3234-.6504.3234-1.23371 0-.57737-.1419-.96216-.3231-1.22471-.183-.26519-.4306-.44074-.6956-.55758-.2118-.09341-.4282-.1462-.6151-.17525v.32705.00629.00198z" fill="#000" fill-rule="evenodd" opacity=".8"/></svg>