<svg width="24" height="24" viewBox="0 0 24 24" fill="none" xmlns="http://www.w3.org/2000/svg">
<path fill-rule="evenodd" clip-rule="evenodd" d="M16.1116 13.0389C14.1456 13.0389 12.5457 14.4287 12.5457 16.1374C12.5457 17.3473 13.0089 17.9349 13.8119 18.5063L13.8155 19.9041C13.8159 20.0057 13.8728 20.0967 13.9634 20.1418C14.002 20.1611 14.0427 20.1707 14.0839 20.1707C14.1399 20.1707 14.1955 20.1528 14.2424 20.1182L15.4951 19.189C15.6983 19.2201 15.9049 19.2359 16.1116 19.2359C18.0776 19.2359 19.6771 17.8456 19.6771 16.1374C19.6771 14.4287 18.0776 13.0389 16.1116 13.0389Z" fill="white"/>
<path fill-rule="evenodd" clip-rule="evenodd" d="M9.40254 7.73323C9.40254 6.75893 10.2069 5.94526 11.2288 5.94526C12.2507 5.94526 13.0551 6.75893 13.0551 7.73323V9.02598H9.40254V7.73323ZM7.31787 9.02598V7.73323C7.31787 5.58127 9.08211 3.8606 11.2288 3.8606C13.3755 3.8606 15.1397 5.58127 15.1397 7.73323V9.02598H16.6483C17.0034 9.02598 17.2912 9.3138 17.2912 9.66884V11.6931C16.9066 11.6077 16.5105 11.5632 16.1116 11.5632C13.5324 11.5632 11.0702 13.4257 11.0702 16.1371C11.0702 16.9394 11.2266 17.6606 11.6041 18.306C11.7642 18.5797 11.9508 18.8165 12.1499 19.0248H5.63846C5.28342 19.0248 4.99561 18.7369 4.99561 18.3819V9.66884C4.99561 9.3138 5.28342 9.02598 5.63846 9.02598H7.31787Z" fill="white"/>
</svg>
