<svg fill="none" height="14" viewBox="0 0 14 14" width="14" xmlns="http://www.w3.org/2000/svg"><path clip-rule="evenodd" d="m7.96866 1.37436c0-.482857-.3915-.87436-.87436-.87436-.48285 0-.8737.391503-.8737.87436 0 .48285.39085.87435.8737.87435.48286 0 .87436-.3915.87436-.87435zm2.88444 10.20964.0104.0032 1.1399-5.99387-2.86708 2.02081-2.03778-4.5447-2.03777 4.5447-2.86776-2.02081 1.14384 5.99387c2.46582-.6257 5.04909-.627 7.51625-.0032zm.8979-7.58261c0 .48285.3915.87436.8743.87436.4829 0 .8744-.39151.8744-.87436 0-.4822-.3915-.8737-.8744-.8737-.4828 0-.8743.3915-.8743.8737zm-10.3773.90518c-.482197 0-.8737-.39216-.8737-.87436 0-.48285.391503-.87436.8737-.87436.48286 0 .87436.39151.87436.87436 0 .4822-.3915.87436-.87436.87436z" fill="#767676" fill-rule="evenodd"/></svg>