<svg fill="none" height="26" viewBox="0 0 26 26" width="26" xmlns="http://www.w3.org/2000/svg" xmlns:xlink="http://www.w3.org/1999/xlink"><clipPath id="a"><path d="m0 0h26v26h-26z"/></clipPath><clipPath id="b"><path d="m0 0h26v26h-26z"/></clipPath><g clip-path="url(#a)"><g clip-path="url(#b)" fill="#191919"><path d="m16.1 16.3002-.434-1.735c.503-.523.8412-1.1824.9725-1.8961.1312-.7137.0496-1.4503-.2346-2.118-.2842-.66772-.7584-1.23713-1.3638-1.63737-.6053-.40024-1.315-.61364-2.0406-.61364-.7257 0-1.4354.2134-2.0407.61364-.6054.40024-1.07963.96965-1.36382 1.63737-.28419.6677-.36576 1.4043-.23454 2.118.13121.7137.46941 1.3731.97256 1.8961l-.43305 1.735c-.90913-.6556-1.58701-1.5825-1.93621-2.6476-.34921-1.0651-.35176-2.2135-.00729-3.2801.34447-1.06658 1.01822-1.99653 1.92443-2.65616.90622-.65963 1.99822-1.01498 3.11912-1.01498 1.1208 0 2.2128.35535 3.119 1.01498s1.58 1.58958 1.9245 2.65616c.3444 1.0666.3419 2.215-.0073 3.2801s-1.0271 1.992-1.9362 2.6476zm1.135 4.54-.398-1.591c1.618-.8567 2.9028-2.2303 3.6496-3.9018.7469-1.6716.9129-3.5451.4715-5.3219-.4414-1.77684-1.4647-3.35487-2.9069-4.48268s-3.2204-1.74052-5.0512-1.74052c-1.8309 0-3.60907.61271-5.0513 1.74052s-2.46554 2.70584-2.90691 4.48268c-.44136 1.7768-.27539 3.6503.47147 5.3219.74686 1.6715 2.03165 3.0451 3.64969 3.9018l-.398 1.591c-1.66682-.7987-3.07378-2.0526-4.05847-3.6167-.98469-1.5642-1.50696-3.375-1.50653-5.2233 0-5.412 4.388-9.8 9.80005-9.8 5.412 0 9.8 4.388 9.8 9.8.0004 1.8483-.5219 3.6591-1.5066 5.2233-.9847 1.5641-2.3916 2.818-4.0584 3.6167z"/><path clip-rule="evenodd" d="m12.2 24h1.6v-11h-1.6z" fill-rule="evenodd"/></g></g></svg>