<svg fill="none" height="40" viewBox="0 0 40 40" width="40" xmlns="http://www.w3.org/2000/svg"><path clip-rule="evenodd" d="m18.9821 8.72417c.47-.75222 1.5655-.75222 2.0354 0l13.4 21.44783c.4993.7993-.0753 1.8358-1.0177 1.8358h-26.79993c-.94244 0-1.51706-1.0365-1.01771-1.8358zm1.0164 16.73983c-.8809 0-1.5996.7048-1.5996 1.5686 0 .8639.7187 1.5686 1.5996 1.5686.881 0 1.5996-.7047 1.5996-1.5686 0-.8638-.7186-1.5686-1.5996-1.5686zm1.5995-8.684c0 .0574-.0033.1141-.0098.1699h.0098l-.711 5.938v.0008c0 .4683-.3978.8479-.8886.8479s-.8887-.3796-.8887-.8479c0-.0003 0-.0006 0-.0009l-.7109-5.9379h.0098c-.0065-.0558-.0098-.1125-.0098-.1699 0-.8429.7161-1.5262 1.5996-1.5262.8834 0 1.5996.6833 1.5996 1.5262z" fill="#ff6229" fill-rule="evenodd"/></svg>