<svg width="41" height="40" viewBox="0 0 41 40" fill="none" xmlns="http://www.w3.org/2000/svg">
<circle cx="20.5" cy="20" r="19.5" fill="black" fill-opacity="0.5"/>
<path fill-rule="evenodd" clip-rule="evenodd" d="M22.1652 14.779C22.172 14.7205 22.1755 14.661 22.1755 14.6008C22.1755 13.7167 21.4243 13 20.4976 13C19.571 13 18.8198 13.7167 18.8198 14.6008C18.8198 14.661 18.8233 14.7205 18.8301 14.779H18.8198L19.5655 21.0074L19.5655 21.0083C19.5655 21.4994 19.9828 21.8976 20.4976 21.8976C21.0124 21.8976 21.4298 21.4994 21.4298 21.0083L21.4298 21.0074L22.1755 14.779H22.1652ZM18.8198 25.3547C18.8198 24.4486 19.5736 23.7095 20.4976 23.7095C21.4217 23.7095 22.1755 24.4486 22.1755 25.3547C22.1755 26.2608 21.4217 27 20.4976 27C19.5736 27 18.8198 26.2608 18.8198 25.3547Z" fill="white"/>
</svg>
