<svg fill="none" height="23" viewBox="0 0 23 23" width="23" xmlns="http://www.w3.org/2000/svg" xmlns:xlink="http://www.w3.org/1999/xlink"><clipPath id="a"><path d="m0 6c0-3.31371 2.68629-6 6-6h17v23h-17c-3.31371 0-6-2.6863-6-6z"/></clipPath><g clip-path="url(#a)"><path d="m0 6c0-3.31371 2.68629-6 6-6h17v23h-17c-3.31371 0-6-2.6863-6-6z" fill="#f2f2f2"/><g stroke="#000" stroke-opacity=".85" stroke-width="1.2"><path d="m16.2614 9.77499c-.7878-1.74415-2.5811-2.96249-4.6674-2.96249-2.81328 0-5.09388 2.21575-5.09388 4.9486 0 2.7332 2.2806 4.949 5.09388 4.949 1.6508 0 3.118-.7626 4.049-1.9449m0 0c.2456-.312.4539-.6532.6184-1.0173z" stroke-linejoin="bevel"/><path d="m13.3048 10.0969h3.381v-3.2844"/></g></g></svg>