<svg fill="none" height="40" viewBox="0 0 40 40" width="40" xmlns="http://www.w3.org/2000/svg"><rect fill="#ededed" height="40" rx="3" width="40"/><path clip-rule="evenodd" d="m9.6082 8.02637c-.3866 0-.7.3134-.7.7v8.36193 14.1856c0 .3866.3134.7.7.7h20.7833c.3866 0 .7-.3134.7-.7v-22.54753c0-.3866-.3134-.7-.7-.7zm.7 7.51583v-6.11583h8.9918v6.11583zm10.3918 0v-6.11583h8.9915v6.11583zm-10.3918 1.4h8.9918v6.1158h-8.9918v-5.9697zm0 7.5158v6.1159h8.9918v-6.1159zm10.3918 0v6.1159h8.9915v-6.1159zm8.9915-1.4v-6.1158h-8.9915v6.1158z" fill="#227f36" fill-rule="evenodd"/></svg>