<svg width="40" height="40" viewBox="0 0 40 40" fill="none" xmlns="http://www.w3.org/2000/svg">
<path d="M23.2998 8.7002H9.69995V31.3002H30.3V15.7M23.2998 8.7002H23.5064L30.3 15.4762V15.7M23.2998 8.7002V15.7H30.3" stroke="#7F7F7F" stroke-width="1.4" stroke-linejoin="round"/>
<path fill-rule="evenodd" clip-rule="evenodd" d="M16.004 20.3999C16.5583 20.3999 17.0081 20.8479 17.0081 21.3999C17.0081 21.9527 16.5583 22.3999 16.004 22.3999C15.4498 22.3999 15 21.9527 15 21.3999C15 20.8479 15.4498 20.3999 16.004 20.3999M19.9799 20.3999C20.5341 20.3999 20.9839 20.8479 20.9839 21.3999C20.9839 21.9527 20.5341 22.3999 19.9799 22.3999C19.4256 22.3999 18.9758 21.9527 18.9758 21.3999C18.9758 20.8479 19.4256 20.3999 19.9799 20.3999M23.996 20.3999C24.5502 20.3999 25 20.8479 25 21.3999C25 21.9527 24.5502 22.3999 23.996 22.3999C23.4418 22.3999 22.9919 21.9527 22.9919 21.3999C22.9919 20.8479 23.4418 20.3999 23.996 20.3999" fill="#7F7F7F"/>
</svg>
