<svg width="16" height="16" viewBox="0 0 16 16" fill="none" xmlns="http://www.w3.org/2000/svg">
<path fill-rule="evenodd" clip-rule="evenodd" d="M8 16C12.4183 16 16 12.4183 16 8C16 3.58172 12.4183 0 8 0C3.58172 0 0 3.58172 0 8C0 12.4183 3.58172 16 8 16ZM6.97852 11C6.97852 10.4493 7.43668 10 7.9983 10C8.55992 10 9.01808 10.4493 9.01808 11C9.01808 11.5508 8.55992 12 7.9983 12C7.43668 12 6.97852 11.5508 6.97852 11ZM8.95117 5.0166C8.95506 4.98316 8.95705 4.94917 8.95705 4.91474C8.95705 4.40954 8.5278 4 7.9983 4C7.46879 4 7.03955 4.40954 7.03955 4.91474C7.03955 4.94917 7.04154 4.98316 7.04542 5.0166H7.03955L7.46566 8.57565H7.46572L7.46572 8.57616C7.46572 8.85682 7.70419 9.08435 7.99836 9.08435C8.29253 9.08435 8.531 8.85682 8.531 8.57616L8.531 8.57516L8.95705 5.0166H8.95117Z" fill="black" fill-opacity="0.4"/>
</svg>
