<svg fill="none" height="40" viewBox="0 0 40 40" width="40" xmlns="http://www.w3.org/2000/svg"><rect fill="#ededed" height="40" rx="3" width="40"/><path clip-rule="evenodd" d="m20.5017 17.435-7.5592 12.2192c-.8275 1.2766-1.5892 1.4816-2.59 1.4816-1.59667 0-2.8525-1.25-2.8525-2.7916 0-1.0884.64583-2.0317 1.58583-2.4917 0 0 .94417-.4725 2.50087-.4725h7.1666 2.4084 7.2541c1.5559 0 2.5.4725 2.5.4725.94.46 1.5842 1.4033 1.5842 2.4917 0 1.5416-1.2942 2.7916-2.89 2.7916-1.0008 0-1.7517-.3366-2.4708-1.4058l-7.4309-12.295-2.0716-3.3458s-1.5792-2.645.685-4.32838c0 0 1.6783-1.33666 3.49 0 0 0 2.145 1.48498.6516 4.32838z" fill-rule="evenodd" stroke="#de3635" stroke-width="1.4"/></svg>