<svg width="40" height="40" viewBox="0 0 40 40" fill="none" xmlns="http://www.w3.org/2000/svg">
<path fill-rule="evenodd" clip-rule="evenodd" d="M31.5383 32C33.0776 32 34.0399 30.3339 33.2706 29.0005L21.7335 9.00275C20.9638 7.66868 19.0384 7.66868 18.2687 9.00275L6.73155 29.0005C5.96232 30.3339 6.9246 32 8.46392 32H31.5383Z" fill="#FF6229"/>
<path fill-rule="evenodd" clip-rule="evenodd" d="M19.5738 16C18.9935 16 18.5351 16.4923 18.5763 17.0711L18.9326 22.0711C18.9699 22.5945 19.4054 23 19.9301 23H20.0302C20.5524 23 20.9867 22.5982 21.0272 22.0776L21.4162 17.0776C21.4614 16.4965 21.002 16 20.4192 16H19.5738ZM20 27.5C20.8284 27.5 21.5 26.8284 21.5 26C21.5 25.1716 20.8284 24.5 20 24.5C19.1716 24.5 18.5 25.1716 18.5 26C18.5 26.8284 19.1716 27.5 20 27.5Z" fill="white"/>
</svg>
