<svg width="40" height="40" viewBox="0 0 40 40" fill="none" xmlns="http://www.w3.org/2000/svg">
<circle cx="20" cy="20" r="20" fill="black" fill-opacity="0.7"/>
<path fill-rule="evenodd" clip-rule="evenodd" d="M11.3335 13.6C11.3335 12.7163 12.0498 12 12.9335 12H27.0668C27.9505 12 28.6668 12.7163 28.6668 13.6V26.4C28.6668 27.2837 27.9505 28 27.0668 28H12.9335C12.0498 28 11.3335 27.2837 11.3335 26.4V13.6ZM24.0002 16.5C24.0002 17.3284 23.3286 18 22.5002 18C21.6717 18 21.0002 17.3284 21.0002 16.5C21.0002 15.6716 21.6717 15 22.5002 15C23.3286 15 24.0002 15.6716 24.0002 16.5ZM18.6393 19.4521L18.1054 18.9319L17.5716 19.4521L13.4663 23.4521L14.534 24.5479L18.1054 21.0681L21.6768 24.5479L22.2107 25.0681L22.7446 24.5479L26.534 20.8556L25.4663 19.7598L22.2107 22.9319L18.6393 19.4521Z" fill="white"/>
</svg>
