<svg width="14" height="14" viewBox="0 0 14 14" fill="none" xmlns="http://www.w3.org/2000/svg">
<path fill-rule="evenodd" clip-rule="evenodd" d="M7 2C4.24 2 2 4.24025 2 7C2 9.76 4.24 12 7 12C9.76 12 12 9.76 12 7C12 4.24025 9.76 2 7 2ZM7 9.25C5.755 9.25 4.75 8.24525 4.75 7C4.75 5.755 5.755 4.75 7 4.75C8.245 4.75 9.25 5.755 9.25 7C9.25 8.24525 8.245 9.25 7 9.25ZM7 6.375C6.65625 6.375 6.375 6.65625 6.375 7C6.375 7.34406 6.65625 7.625 7 7.625C7.34375 7.625 7.625 7.34406 7.625 7C7.625 6.65625 7.34375 6.375 7 6.375Z" fill="#949494"/>
</svg>
