<svg width="14" height="14" viewBox="0 0 14 14" fill="none" xmlns="http://www.w3.org/2000/svg">
<path fill-rule="evenodd" clip-rule="evenodd" d="M10 10.0293V4.30765L11.5035 5.00432V7.28975H12.5021V4.40944L9 2.69141V8.41845C8.73212 8.2741 8.42563 8.19219 8.1 8.19219C7.05066 8.19219 6.2 9.04285 6.2 10.0922C6.2 11.1415 7.05066 11.9922 8.1 11.9922C9.14934 11.9922 10 11.1415 10 10.0922C10 10.0711 9.99966 10.0502 9.99898 10.0293H10ZM1.5 3H7.5V4H1.5V3ZM1.5 5.5H7.5V6.5H1.5V5.5ZM5.5 8H1.5V9H5.5V8Z" fill="#949494"/>
</svg>
