<svg width="14" height="14" viewBox="0 0 14 14" fill="none" xmlns="http://www.w3.org/2000/svg">
<path fill-rule="evenodd" clip-rule="evenodd" d="M10.4803 3.46087V2.50024L4.04636 3.96087H4V8.62928C3.77269 8.5213 3.5184 8.46087 3.25 8.46087C2.2835 8.46087 1.5 9.24438 1.5 10.2109C1.5 11.1774 2.2835 11.9609 3.25 11.9609C4.2165 11.9609 5 11.1774 5 10.2109C5 10.126 4.99396 10.0425 4.98228 9.96087H5V4.95163L9.5 4.00122V7.62928C9.27269 7.5213 9.0184 7.46087 8.75 7.46087C7.7835 7.46087 7 8.24438 7 9.21087C7 10.1774 7.7835 10.9609 8.75 10.9609C9.63162 10.9609 10.361 10.3089 10.4823 9.46087H10.5V9.21087V3.46087H10.4803Z" fill="#949494"/>
</svg>
