<svg width="40" height="40" viewBox="0 0 40 40" fill="none" xmlns="http://www.w3.org/2000/svg">
<circle cx="20" cy="20" r="20" fill="black" fill-opacity="0.6"/>
<path fill-rule="evenodd" clip-rule="evenodd" d="M11.9863 14.7076C11.434 14.7076 10.9863 15.1553 10.9863 15.7076V24.2924C10.9863 24.8447 11.434 25.2924 11.9863 25.2924H21.9863C22.5386 25.2924 22.9863 24.8447 22.9863 24.2924V15.7076C22.9863 15.1553 22.5386 14.7076 21.9863 14.7076H11.9863ZM24.3801 19.4397C24.1506 19.7784 24.1506 20.2228 24.3801 20.5615L27.1406 24.636C27.6933 25.4519 28.9684 25.0607 28.9684 24.0751L28.9684 15.9262C28.9684 14.9406 27.6934 14.5494 27.1406 15.3653L24.3801 19.4397Z" fill="white"/>
</svg>
