<svg fill="none" height="13" viewBox="0 0 12 13" width="12" xmlns="http://www.w3.org/2000/svg" xmlns:xlink="http://www.w3.org/1999/xlink"><clipPath id="a"><path d="m0 0h12v13h-12z"/></clipPath><g clip-path="url(#a)"><path clip-rule="evenodd" d="m1.362 5.2858v-5.2858h-1.362v5.286.0002c.00031823 1.08347.430947 2.12245 1.19719 2.88846.76624.76602 1.80534 1.19634 2.88881 1.19634h4.95824l-2.76333 2.1905.84607 1.0673 3.77702-2.994.0002-.00017c.1422-.11283.2571-.25634.3361-.4198.079-.16347.12-.34266.12-.5242 0-.18153-.041-.36073-.12-.52419s-.1939-.30697-.3361-.4198l-.0001-.00012-3.77605-2.994-.8462 1.06723 2.76106 2.18925h-4.95691c-.72231 0-1.41505-.28688-1.92588-.79756-.51078-.51063-.79786-1.2032-.79812-1.92544z" fill="#000" fill-opacity=".42" fill-rule="evenodd"/></g></svg>