<svg width="22" height="15" viewBox="0 0 22 15" fill="none" xmlns="http://www.w3.org/2000/svg">
<rect width="22" height="15" rx="2" fill="black" fill-opacity="0.6"/>
<path d="M8.6709 6.18555C8.44629 5.43359 7.86035 4.97461 7.00098 4.97461C5.8584 4.97461 5.03809 5.86328 5.03809 7.45508C5.03809 9.06641 5.84863 9.95508 7.03027 9.95508C8.09473 9.95508 8.77832 9.31055 8.79785 8.30469H7.15723V7.29883H10.0283V8.14844C10.0283 9.96484 8.77832 11.0977 7.03027 11.0977C5.07715 11.0977 3.75879 9.71094 3.75879 7.46484C3.75879 5.19922 5.13574 3.83203 6.99121 3.83203C8.55371 3.83203 9.75488 4.79883 9.96973 6.18555H8.6709ZM12.4502 3.92969V11H11.1807V3.92969H12.4502ZM13.7686 11V3.92969H18.2998V4.99414H15.0381V6.92773H17.9873V7.99219H15.0381V11H13.7686Z" fill="white"/>
</svg>
