<svg width="20" height="16" viewBox="0 0 20 16" fill="none" xmlns="http://www.w3.org/2000/svg">
<g clip-path="url(#clip0_2514_17617)">
<path d="M12.4492 0H7.54922C3.48993 0 0.199219 3.35786 0.199219 7.5C0.199219 11.6421 3.48993 15 7.54922 15H12.4492C16.5085 15 19.7992 11.6421 19.7992 7.5C19.7992 3.35786 16.5085 0 12.4492 0Z" fill="#0A73DC"/>
<path fill-rule="evenodd" clip-rule="evenodd" d="M9.97862 2.7793C8.81537 2.7793 7.87237 3.7223 7.87237 4.88555V7.75891C7.87237 8.92216 8.81537 9.86516 9.97862 9.86516C11.1419 9.86516 12.0849 8.92216 12.0849 7.75891V4.88555C12.0849 3.7223 11.1419 2.7793 9.97862 2.7793ZM6.00195 7.79992C6.00195 7.89202 6.00497 7.98347 6.01093 8.07416C6.08557 9.21124 6.62034 10.2215 7.42866 10.9124L7.49004 12.2493L7.52454 13.001L8.17241 12.6183L9.50074 11.8336C9.66509 11.8545 9.83238 11.8652 10.0019 11.8652C12.1339 11.8652 13.8649 10.1744 13.9942 8.0549C13.9993 7.97052 14.0019 7.8855 14.0019 7.79992H13.0967C13.0967 7.86711 13.0946 7.93375 13.0906 7.99979C12.9894 9.65885 11.6383 10.96 10.0019 10.96C9.82554 10.96 9.6529 10.945 9.48512 10.9162L9.32141 10.8881L9.1784 10.9726L8.35983 11.4562L8.32365 10.668L8.31399 10.4576L8.14676 10.3295C7.44713 9.79349 6.97641 8.96195 6.91423 8.01486C6.90958 7.94389 6.9072 7.87222 6.9072 7.79992H6.00195Z" fill="white"/>
</g>
<defs>
<clipPath id="clip0_2514_17617">
<rect width="20" height="15" fill="white"/>
</clipPath>
</defs>
</svg>
