<svg fill="none" height="26" viewBox="0 0 26 26" width="26" xmlns="http://www.w3.org/2000/svg" xmlns:xlink="http://www.w3.org/1999/xlink"><clipPath id="a"><path d="m0 0h26v26h-26z"/></clipPath><g clip-path="url(#a)"><path d="m6.49005 13.231c-.00443 1.0072.21874 2.0025.65285 2.9114.4341.9089 1.06793 1.708 1.85415 2.3376l.1.078.312.24.1 2.184 2.09795-1.24.306.052c.356.061.72.092 1.087.092 3.439 0 6.284-2.736 6.497-6.234.006-.093.01-.186.012-.28l.001-.14h1.6901c0 .175-.0051.35-.0161.523-.267 4.381-3.844 7.821-8.184 7.821-.331 0-.66-.02-.985-.06l-.074-.01-3.99095 2.362-.194-4.221-.008-.007c-1.69096-1.4395-2.74123-3.4915-2.92-5.705l-.01-.14c-.00807-.1249-.0134-.2499-.016-.375l-.002-.19zm6.50995-9.731c1.2606 0 2.4696.50076 3.3609 1.39212.8914.89136 1.3921 2.10031 1.3921 3.36088v4.978c0 1.2606-.5007 2.4695-1.3921 3.3609-.8913.8913-2.1003 1.3921-3.3609 1.3921-1.2605 0-2.4695-.5008-3.36083-1.3921-.89136-.8914-1.39212-2.1003-1.39212-3.3609v-4.978c0-1.26057.50076-2.46952 1.39212-3.36088.89133-.89136 2.10033-1.39212 3.36083-1.39212zm0 1.69c-.7976-.00005-1.5638.31108-2.1357.86722-.5718.55614-.90412 1.31342-.92625 2.11078v5.063c.00607.801.32565 1.5677.89025 2.1358.5646.5682 1.3293.8926 2.1302.9037s1.5742-.2919 2.1544-.8442c.5801-.5523.9209-1.3098.9491-2.1103v-5.063c0-.81218-.3225-1.59112-.8967-2.16551-.5742-.5744-1.3531-.89722-2.1653-.89749z" fill="#191919"/></g></svg>