<svg width="42" height="42" viewBox="0 0 42 42" fill="none" xmlns="http://www.w3.org/2000/svg">
<circle cx="21" cy="21" r="21" fill="white" fill-opacity="0.1"/>
<g opacity="0.3">
<path d="M17.6736 20.0366V19.7676C17.6736 17.9079 17.6721 16.0481 17.6743 14.1884C17.6747 13.6231 18.0114 13.2158 18.5415 13.1248C19.0636 13.0356 19.5957 13.3847 19.7007 13.8933C19.7256 14.0123 19.7309 14.1366 19.7309 14.2587C19.7324 16.0912 19.7321 17.9237 19.7321 19.7559V20.0329H20.3328C20.3374 19.9543 20.346 19.8693 20.346 19.7846C20.3468 17.4892 20.346 15.1938 20.3472 12.8981C20.3476 12.3691 20.6559 11.9769 21.1486 11.8654C21.7358 11.7332 22.3191 12.1337 22.389 12.7201C22.3992 12.8078 22.3985 12.8969 22.3985 12.9853C22.3992 15.2467 22.3989 17.5081 22.3989 19.7699V20.0381H23.0159V19.7725C23.0159 17.9536 23.0136 16.135 23.0174 14.3165C23.0185 13.7006 23.4969 13.2627 24.1188 13.2929C24.6138 13.3171 25.0445 13.7331 25.06 14.2198C25.0721 14.5938 25.0649 14.969 25.0649 15.3435V22.4291C25.0649 22.5312 25.0649 22.858 25.0668 22.9604C25.0695 23.1161 25.1764 23.2729 25.3687 23.0957C25.759 22.7356 25.977 22.5281 26.268 22.173C26.4879 21.9073 26.7265 21.6578 26.9821 21.4263C27.2379 21.2015 27.7623 20.8611 28.3219 21.1683C28.7901 21.4252 28.9329 22.0305 28.6302 22.547C27.8073 23.9526 26.9836 25.3582 26.1478 26.7569C25.003 28.6726 23.2668 29.8492 21.0583 29.9807C17.1249 30.215 15.9332 28.3239 15.2614 26.3829C15.0593 25.7991 15.0219 25.1334 15.0158 24.5061C14.9894 21.8427 15.0037 19.1793 15.0052 16.5159C15.0052 15.8426 15.4696 15.3737 16.0904 15.4111C16.6443 15.4443 17.0547 15.8713 17.0558 16.4237C17.0577 17.5406 17.0558 18.6579 17.0558 19.7752V20.0366H17.6736V20.0366Z" fill="white"/>
</g>
</svg>
