<svg fill="none" height="42" viewBox="0 0 42 42" width="42" xmlns="http://www.w3.org/2000/svg"><g fill="#fff"><circle cx="21" cy="21" fill-opacity=".35" r="21"/><path clip-rule="evenodd" d="m15.6567 20.046v-.2689l-.0002-1.5146v-.0006c-.0002-1.3522-.0004-2.7043.001-4.0565.0006-.5645.3351-.9715.8619-1.0621.5188-.0893 1.0472.2592 1.152.7674.0246.1188.0297.2431.0298.3648.0014 1.4691.0013 2.9381.0012 4.4071v1.083.2764h.5974c.0013-.0245.0031-.0496.0048-.075h.0001c.0039-.0563.0079-.1144.008-.1726.0003-.9719.0003-1.9437.0003-2.9155.0001-1.3208.0001-2.6415.0009-3.9623.0003-.5279.3065-.92.7964-1.0311.5834-.1324 1.163.2679 1.2324.8535.0096.0814.0096.1642.0096.2465v.0183c.0004 1.8581.0004 3.7161.0003 5.5741v1.2017.268h.6129v-.2654c0-.5109-.0001-1.0218-.0002-1.5326-.0004-1.3056-.0008-2.6111.0018-3.9166.0012-.615.4765-1.052 1.0945-1.0219.4923.0239.9203.4395.9356.9255.0085.2721.0071.5445.0057.8169-.0005.1018-.001.2037-.001.3055l.0002 4.5127v2.5636.0295c0 .1247-.0001.4073.0016.5009.0027.1556.109.3124.3.1352.3878-.3594.6046-.5668.8936-.9215.1814-.2226.4736-.5367.7099-.7456.2541-.2247.7754-.5645 1.3312-.2578.4652.2568.6071.8612.3066 1.3768-.8179 1.404-1.6364 2.8078-2.467 4.2045-1.1378 1.9133-2.8628 3.0883-5.0576 3.2196-3.9084.2338-5.0929-1.6545-5.7606-3.5931-.2008-.5828-.2379-1.248-.2441-1.8744-.0199-2.0153-.0165-4.031-.0131-6.0465.0011-.6444.0022-1.2888.0025-1.9332.0003-.6723.4615-1.1405 1.0786-1.1033.5505.0331.9582.4595.9592 1.011.0013.781.0009 1.562.0005 2.3429v.0001l-.0004 1.0041v.2615zm9.4343-2.1404h4.8363v1.2091h-4.8363zm4.8363-3.2243h-4.8363v1.2091h4.8363z" fill-rule="evenodd"/></g></svg>