<svg fill="none" height="42" viewBox="0 0 42 42" width="42" xmlns="http://www.w3.org/2000/svg"><circle cx="21" cy="21" fill="#fff" fill-opacity=".85" r="21"/><path clip-rule="evenodd" d="m29.6696 13.5474-.7919-.8116-16.5539 16.5539.7919.8115 4.7592-4.7591 3.8389 2.953c.1973.1518.483.0112.483-.2377v-7.0372l2.3566-2.3566c1.1456 1.5276 1.0237 3.7046-.3657 5.0941l.99.9899c1.9368-1.9369 2.0612-4.9999.3731-7.0814l1.7271-1.7271c2.6348 3.038 2.5082 7.6414-.3795 10.5291l.9899.99c3.4347-3.4347 3.5619-8.9243.3817-12.5112zm-7.4728.3951v3.2287l-7.6621 7.6621h-1.0379c-.2762 0-.5-.2239-.5-.5v-6.6667c0-.2761.2238-.5.5-.5h3.7166l4.5004-3.4618c.1973-.1518.483-.0112.483.2377z" fill="#222" fill-rule="evenodd"/></svg>