<svg width="32" height="32" viewBox="0 0 32 32" fill="none" xmlns="http://www.w3.org/2000/svg">
<circle cx="16" cy="16" r="16" fill="white" fill-opacity="0.2"/>
<path fill-rule="evenodd" clip-rule="evenodd" d="M20.5879 7.10821C21.7989 6.54195 23.1879 7.42581 23.1879 8.76262V17.9999H21.7869V8.76262C21.7869 8.4513 21.4634 8.24547 21.1814 8.37734L12.4023 12.4825V18.5262L17 20.6764V22.223L12.4922 20.1149V25.0065H11.0912V19.6728H7.85132C7.15355 19.6728 6.58789 19.1071 6.58789 18.4093V12.6C6.58789 11.9023 7.15355 11.3366 7.85132 11.3366H11.5454L20.5879 7.10821ZM11.0013 12.7376V18.2717H7.98892V12.7376H11.0013ZM21.9498 26.2999V23.8499H19.5V22.4499H21.9498V19.9999H23.3498V22.4499H25.8V23.8499H23.3498V26.2999H21.9498Z" fill="white"/>
</svg>
