<svg width="32" height="32" viewBox="0 0 32 32" fill="none" xmlns="http://www.w3.org/2000/svg">
<circle cx="16" cy="16" r="16" fill="white" fill-opacity="0.12"/>
<path fill-rule="evenodd" clip-rule="evenodd" d="M23.1879 8.76262C23.1879 7.42581 21.7989 6.54195 20.5879 7.10821L11.5454 11.3366H7.85132C7.15355 11.3366 6.58789 11.9023 6.58789 12.6V18.4093C6.58789 19.1071 7.15355 19.6728 7.85132 19.6728H11.0912V25.0065H12.4922V20.1149L17 22.223V20.6764L12.4023 18.5262V12.4825L21.1814 8.37734C21.4634 8.24547 21.7869 8.4513 21.7869 8.76262V17.9999H23.1879V8.76262ZM11.0013 18.2717V12.7376H7.98892V18.2717H11.0013Z" fill="white"/>
<path fill-rule="evenodd" clip-rule="evenodd" d="M21.9498 23.85V26.3H23.3498V23.85H25.8V22.45H23.3498V20H21.9498V22.45H19.5V23.85H21.9498Z" fill="white"/>
</svg>
