<svg fill="none" height="42" viewBox="0 0 42 42" width="42" xmlns="http://www.w3.org/2000/svg"><g fill="#fff"><circle cx="21" cy="21" fill-opacity=".35" r="21"/><path d="m17.6736 20.0366v-.269c0-1.8597-.0015-3.7195.0007-5.5792.0004-.5653.3371-.9726.8672-1.0636.5221-.0892 1.0542.2599 1.1592.7685.0249.119.0302.2433.0302.3654.0015 1.8325.0012 3.665.0012 5.4972v.277h.6007c.0046-.0786.0132-.1636.0132-.2483.0008-2.2954 0-4.5908.0012-6.8865.0004-.529.3087-.9212.8014-1.0327.5872-.1322 1.1705.2683 1.2404.8547.0102.0877.0095.1768.0095.2652.0007 2.2614.0004 4.5228.0004 6.7846v.2682h.617v-.2656c0-1.8189-.0023-3.6375.0015-5.456.0011-.6159.4795-1.0538 1.1014-1.0236.495.0242.9257.4402.9412.9269.0121.374.0049.7492.0049 1.1237v7.0856c0 .1021 0 .4289.0019.5313.0027.1557.1096.3125.3019.1353.3903-.3601.6083-.5676.8993-.9227.2199-.2657.4585-.5152.7141-.7467.2558-.2248.7802-.5652 1.3398-.258.4682.2569.611.8622.3083 1.3787-.8229 1.4056-1.6466 2.8112-2.4824 4.2099-1.1448 1.9157-2.881 3.0923-5.0895 3.2238-3.9334.2343-5.1251-1.6568-5.7969-3.5978-.2021-.5838-.2395-1.2495-.2456-1.8768-.0264-2.6634-.0121-5.3268-.0106-7.9902 0-.6733.4644-1.1422 1.0852-1.1048.5539.0332.9643.4602.9654 1.0126.0019 1.1169 0 2.2342 0 3.3515v.2614z"/></g></svg>