<svg fill="none" height="42" viewBox="0 0 42 42" width="42" xmlns="http://www.w3.org/2000/svg"><circle cx="21" cy="21" fill="#fff" fill-opacity=".7" r="21"/><path clip-rule="evenodd" d="m20.3521 12.9856c.0001-.0823.0001-.1651-.0093-.2469v.0004c-.0697-.5857-.6493-.9859-1.2324-.8537-.4901.1113-.7964.503-.7964 1.031-.0007 1.2739-.0008 2.5477-.0008 3.8214 0 1.0188-.0001 2.0376-.0004 3.0563 0 .0565-.004.113-.0078.1678-.0019.0272-.0038.054-.0051.0801h-.5973v-3.0215l-.0012-2.7451c-.0004-.1217-.0057-.2458-.0299-.3647-.1048-.5083-.6331-.8569-1.1522-.7674-.5268.0907-.8613.4977-.8617 1.062-.0015 1.3506-.0012 2.7012-.001 4.052.0001.5066.0002 1.0132.0002 1.5199v.2688h-.6138v-.2615c0-.3719.0001-.7438.0003-1.1157.0004-.7439.0007-1.4878-.0003-2.2315-.0012-.5514-.4087-.9778-.9593-1.0108-.617-.0375-1.0785.4308-1.0785 1.1031-.0003.6294-.0014 1.2589-.0025 1.8884-.0035 2.0305-.007 4.0611.013 6.0916.0065.6263.0431 1.2913.2442 1.8741.6675 1.9386 1.852 3.8268 5.7602 3.593 2.1949-.1314 3.9203-1.3062 5.058-3.2194.8303-1.3969 1.6488-2.8007 2.4666-4.2044.3007-.5159.1588-1.12-.3063-1.3772-.5558-.3063-1.0773.0335-1.3312.258-.2541.2312-.4913.4804-.7098.7456-.2889.3546-.5058.5622-.8935.9217-.1914.1769-.2974.0202-.3002-.1354-.0009-.0383-.0013-.108-.0017-.1858v-7.421c0-.101.0005-.2019.001-.3029.0014-.2732.0027-.5464-.0058-.8192-.0153-.4864-.4433-.9016-.9358-.9257-.6179-.0299-1.0931.407-1.0943 1.022-.0026 1.3382-.0023 2.6767-.0019 4.0152.0002.4779.0003.9559.0003 1.4338v.2652h-.613v-3.6555l-.0004-3.3879c0-.006 0-.0121 0-.0182zm9.3534.6597-.0002-.0002h.0004zm0 0-1.9948 1.9948-1.995-1.9946-.8553.8544 1.995 1.995-1.9946 1.995.8549.8553 1.995-1.9951 1.995 1.9947.8552-.8549-1.995-1.995 1.9946-1.995z" fill="#222" fill-rule="evenodd"/></svg>