<svg fill="none" height="16" viewBox="0 0 16 16" width="16" xmlns="http://www.w3.org/2000/svg"><g clip-rule="evenodd" fill="#fff" fill-rule="evenodd"><path d="m8.08533 10.226c1.28929-.2034 2.28897-1.28123 2.37117-2.60637z"/><path d="m7.64579 11.4721c-.21911 0-.43299-.0225-.64283-.0564l-.62552.6876c.27953.0761.56832.1293.86557.1538v2.4372h.80556v-2.4372c2.47663-.2058 4.43053-2.28372 4.43053-4.81276h-.8055c0 2.22091-1.80689 4.02776-4.02781 4.02776z"/><path d="m13.3688 1.93732-2.9032 3.19161v-.90665c0-1.55473-1.26516-2.81945-2.81948-2.81945-1.55472 0-2.81944 1.26472-2.81944 2.81945v3.22222c0 1.015.54093 1.90393 1.3481 2.40055l-.82328.90545c-1.04601-.7286-1.73315-1.93817-1.73315-3.306h-.80556c0 1.60426.78743 3.0253 1.99456 3.9037l-3.09898 3.4063.0435.0395.55262.5027 3.20369-3.5215.56631-.6223.88772-.9764 3.50339-3.85052 3.4796-3.82518.0193-.02134z"/></g></svg>