<svg fill="none" height="16" viewBox="0 0 16 16" width="16" xmlns="http://www.w3.org/2000/svg"><path clip-rule="evenodd" d="m13.2574 7.03732c-.0697-2.79085-2.3938-5.03732-5.25745-5.03732-2.90769 0-5.25908 2.31613-5.25908 5.16651v1.65723c-.85127.22968-1.47769 1.00724-1.47769 1.93106v1.0347c0 1.1046.89544 2 2 2h1.41172c.27614 0 .5-.2239.5-.5v-4.03465c0-.27615-.22386-.5-.5-.5h-.5432v-1.58834l.00165-.1129c.06045-2.0625 1.7715-3.71104 3.8666-3.71104 2.13325 0 3.86825 1.70904 3.86825 3.82394v1.58834h-.5431c-.2762 0-.5.22385-.5.5v4.03465c0 .2761.2238.5.5.5h1.4117c1.1046 0 2-.8954 2-2v-1.0347c0-.92384-.6265-1.70142-1.4778-1.93108v-1.65721z" fill="#fff" fill-rule="evenodd"/></svg>