<svg width="16" height="16" viewBox="0 0 16 16" fill="none" xmlns="http://www.w3.org/2000/svg">
<path fill-rule="evenodd" clip-rule="evenodd" d="M13.8572 1.57477L12.0556 3.56866L12.0559 3.56903L9.69654 6.1802L9.69588 6.1802L8.82839 7.14028H8.82904L5.4554 10.874L5.45504 10.8736L2.97987 13.613L2.28864 12.9884L4.76456 10.2482L1.33325 7.14028H7.57281L13.166 0.950195L13.8572 1.57477ZM6.11586 11.4722L7.64793 12.8599C7.74219 12.9452 7.88583 12.9452 7.98009 12.8599L14.2948 7.14028H10.03L6.11586 11.4722ZM10.897 6.18075L14.2947 6.18229L12.6404 4.25131L10.897 6.18075ZM5.14525 2.60028L7.80772 5.79392C7.83823 5.76722 7.8665 5.74027 7.89006 5.71235L10.4766 2.60028H10.4823C10.4816 2.60028 10.4809 2.59998 10.4803 2.5997C10.4792 2.59917 10.4782 2.59871 10.4766 2.60028H5.14525ZM4.00787 3.07444L6.67792 6.17474L1.33325 6.18227C1.33428 6.18115 1.33504 6.17999 1.33581 6.17882L1.33581 6.17882C1.33671 6.17744 1.33761 6.17606 1.33896 6.17474L4.00787 3.07444Z" fill="white"/>
</svg>
