<svg width="16" height="16" viewBox="0 0 16 16" fill="none" xmlns="http://www.w3.org/2000/svg">
<path fill-rule="evenodd" clip-rule="evenodd" d="M7.21021 3.68788C7.57497 3.10404 8.42522 3.10404 8.78999 3.68788L14.4058 12.6765C14.7934 13.2968 14.3474 14.1014 13.6159 14.1014H2.38428C1.65281 14.1014 1.20682 13.2968 1.59439 12.6765L7.21021 3.68788ZM7.99955 11.034C7.58661 11.034 7.24974 11.3644 7.24974 11.7693C7.24974 12.1742 7.58661 12.5046 7.99955 12.5046C8.4125 12.5046 8.74937 12.1742 8.74937 11.7693C8.74937 11.3644 8.4125 11.034 7.99955 11.034ZM8.74937 6.96346C8.74937 6.99046 8.7478 7.01711 8.74475 7.04333H8.74911L8.41586 9.82678C8.41586 9.82686 8.41586 9.82695 8.41586 9.82704C8.41586 10.0465 8.22936 10.2245 7.99929 10.2245C7.76923 10.2245 7.58273 10.0465 7.58273 9.82704C7.58273 9.82695 7.58273 9.82686 7.58273 9.82678L7.24948 7.04333H7.25436C7.2513 7.01711 7.24974 6.99046 7.24974 6.96346C7.24974 6.56836 7.58544 6.24806 7.99955 6.24806C8.41367 6.24806 8.74937 6.56836 8.74937 6.96346Z" fill="white"/>
</svg>
