<svg fill="none" height="16" viewBox="0 0 16 16" width="16" xmlns="http://www.w3.org/2000/svg"><g clip-rule="evenodd" fill="#fff" fill-rule="evenodd"><path d="m9.45089 8.42234-2.32222 2.32226-.31556.3155-.31555.3156 3.112 2.612c.08178.0689.18311.1044.28578.1044.064 0 .12796-.0133.18756-.0418.1569-.0729.2569-.2297.2569-.4026v-6.11425l-.44446.44444z"/><path d="m14.8244 1.62533-.6253-.62533-3.6924 3.692v-2.59333c0-.17289-.1-.32978-.2569-.40267-.156-.07289-.34136-.04889-.47336.06222l-3.468 2.91156h-2.90622c-.24533 0-.44444.19911-.44444.44444v5.18448c0 .2453.19911.4444.44444.4444h1.05334l-2.95556 2.9556.62844.6284.004-.004 3.58045-3.58.44444-.4449.42445-.42442 3.036-3.03556.44402-.44444.4449-.44445 4.3209-4.32089z"/></g></svg>