<svg fill="none" height="16" viewBox="0 0 16 16" width="16" xmlns="http://www.w3.org/2000/svg"><path clip-rule="evenodd" d="m12.9264.858764c-.0884-.223178-.3993-.22441-.4893-.00194l-.4729 1.168346c-.0298.07359-.0903.12995-.1651.15381l-.9375.2991c-.2436.07772-.2474.42618-.0055.50935l.9486.32622c.0715.02461.1293.07916.1586.14984l.4746 1.14468c.0911.21964.3983.21841.4876-.00196l.4626-1.14074c.0291-.07184.0875-.12732.1601-.15205l.956-.32574c.2428-.08272.239-.43252-.0055-.50981l-.945-.29869c-.0758-.02396-.1369-.08123-.1665-.15597zm-8.33832 9.447036c.40602.1932.73095.5267.91651.941l1.3519 3.0179c.21442.4786.88447.4786 1.0989 0l1.35189-3.0179c.18556-.4143.51049-.7478.91652-.941l2.8746-1.36725c.4632-.2203.4632-.88874 0-1.10904l-2.8746-1.36729c-.40603-.19312-.73096-.52671-.91652-.94093l-1.35189-3.01791c-.21443-.47866-.88448-.47866-1.0989 0l-1.3519 3.0179c-.18556.41423-.51049.74782-.91651.94094l-2.87461 1.36729c-.46317.2203-.46317.88874 0 1.10904z" fill="#fff" fill-rule="evenodd"/></svg>