<svg fill="none" height="16" viewBox="0 0 16 16" width="16" xmlns="http://www.w3.org/2000/svg"><path clip-rule="evenodd" d="m9.7247 1.82168c.16587.07731.27192.24374.27192.42675v11.88097c0 .183-.10605.3494-.27192.4268-.16587.0773-.36152.0515-.50167-.0662l-3.67349-3.0844h-3.07871c-.26003 0-.47083-.2108-.47083-.4708v-5.49178c0-.26003.2108-.47083.47083-.47083h3.07871l3.67349-3.08435c.14015-.11768.3358-.14348.50167-.06616zm2.0512 3.566c.7061.72512 1.1415 1.71195 1.1415 2.80114 0 1.09062-.4358 2.07818-1.1431 2.80318l.6741.6576c.8709-.8928 1.4107-2.11343 1.4107-3.46078 0-1.34596-.5393-2.56545-1.4086-3.45811z" fill="#fff" fill-rule="evenodd"/></svg>