<svg width="16" height="16" viewBox="0 0 16 16" fill="none" xmlns="http://www.w3.org/2000/svg">
<path fill-rule="evenodd" clip-rule="evenodd" d="M5.39941 2.6001L7.99411 5.62882C8.02383 5.60279 8.05138 5.57653 8.07434 5.54932L10.5951 2.6001L5.39941 2.6001ZM4.29087 2.97862L6.89294 6.00323H1.68988L4.29087 2.97862ZM11.7212 2.97862L14.3159 6.00323H9.12017L11.7212 2.97862ZM9.12017 6.00323H9.11851C9.11872 6.00382 9.11897 6.00441 9.12017 6.00323ZM9.11851 6.00323H9.11703C9.1181 6.00207 9.1183 6.00262 9.1185 6.00319L9.11851 6.00323ZM7.83172 12.8548L1.68433 7.14316H14.3159L8.16851 12.8548C8.07357 12.943 7.92666 12.943 7.83172 12.8548Z" fill="white"/>
</svg>
