<svg width="114" height="114" viewBox="0 0 114 114" fill="none" xmlns="http://www.w3.org/2000/svg">
<path fill-rule="evenodd" clip-rule="evenodd" d="M56.9561 13.5015H57.0048C81.0134 13.5143 100.468 32.9711 100.48 56.9771V57.0232C100.468 81.0268 81.0134 100.486 57.0048 100.499H56.9561C32.9424 100.486 13.4805 81.0165 13.4805 57.0002C13.4805 32.9839 32.9424 13.5143 56.9561 13.5015ZM75.1992 41.2577C75.1992 44.0032 72.9735 46.229 70.228 46.229C67.4824 46.229 65.2567 44.0032 65.2567 41.2577C65.2567 38.5121 67.4824 36.2864 70.228 36.2864C72.9735 36.2864 75.1992 38.5121 75.1992 41.2577ZM50.2765 60.8578L36.8112 74.323L31.5384 69.0502L47.3471 53.2415C48.9649 51.6236 51.588 51.6237 53.2058 53.2415L66.0706 66.1063L77.1408 55.0361L82.4137 60.3089L69 73.7226C67.3822 75.3405 64.7591 75.3405 63.1413 73.7226L50.2765 60.8578Z" fill="#747B91"/>
</svg>
