<svg width="14" height="14" viewBox="0 0 14 14" fill="none" xmlns="http://www.w3.org/2000/svg">
<path d="M10.0978 3.54267L11.2706 2.3699L10.2508 1.3501L9.12898 2.47188C8.56809 2.06396 7.85423 1.80901 7.08938 1.75802H6.88542C4.84582 1.86 3.31611 3.49168 3.31611 5.53129V7.87683L2.95918 8.69267L1.48047 10.1204L2.50027 11.1402L3.21413 10.4263L10.0978 3.54267Z" fill="black" fill-opacity="0.42"/>
<path d="M10.6588 7.82573V5.53117C10.6588 5.22523 10.6078 4.97028 10.5568 4.71533L4.79492 10.4262H5.35581C5.35581 10.8341 5.50878 11.1911 5.81472 11.497C6.12066 11.803 6.4776 11.9559 6.88552 11.9559C7.70136 11.9559 8.41522 11.2931 8.41522 10.4262H9.23106H11.1603C11.4536 10.4262 11.6511 10.126 11.5349 9.85673L10.6588 7.82573Z" fill="black" fill-opacity="0.42"/>
</svg>
