<svg width="14" height="14" viewBox="0 0 14 14" fill="none" xmlns="http://www.w3.org/2000/svg">
<path fill-rule="evenodd" clip-rule="evenodd" d="M9.60914 7.01221C7.93268 7.01221 6.56836 8.19731 6.56836 9.65422C6.56836 10.6859 6.96339 11.1869 7.64817 11.6742L7.65115 12.866C7.65153 12.9526 7.70007 13.0303 7.77735 13.0688C7.81021 13.0852 7.84494 13.0934 7.88003 13.0934C7.92783 13.0934 7.97524 13.0781 8.0152 13.0486L9.08343 12.2563C9.25667 12.2828 9.43291 12.2962 9.60914 12.2962C11.2856 12.2962 12.6496 11.1108 12.6496 9.65422C12.6496 8.19731 11.2856 7.01221 9.60914 7.01221Z" fill="black" fill-opacity="0.42"/>
<path fill-rule="evenodd" clip-rule="evenodd" d="M4.89392 3.95879C4.89392 3.2856 5.37408 2.71694 5.94199 2.71694C6.50989 2.71694 6.99006 3.2856 6.99006 3.95879V4.81271H4.89392V3.95879ZM9.2168 6.06986C9.34935 6.06986 10.0042 6.05754 10.1338 6.06986V4.8127H8.56189V3.95879C8.56189 2.40741 7.3865 1.14502 5.94191 1.14502C4.49731 1.14502 3.32192 2.40741 3.32192 3.95879V4.8127H2.27385H1.75V11.1769C1.75 11.4245 1.9449 11.6246 2.18498 11.6246H2.27385H6.16108C5.70705 10.9025 5.61856 10.3876 5.61856 9.40599C5.61856 7.82175 7.51382 6.06986 9.2168 6.06986Z" fill="black" fill-opacity="0.42"/>
</svg>
