<svg width="18" height="18" viewBox="0 0 18 18" fill="none" xmlns="http://www.w3.org/2000/svg">
<path fill-rule="evenodd" clip-rule="evenodd" d="M9.23685 0.236816C4.39709 0.236816 0.473694 4.16022 0.473694 8.99997C0.473694 11.077 1.19633 12.9853 2.4039 14.4872L1.77151 16.7115L1.75547 16.7674C1.72926 16.8952 1.73774 17.0277 1.78003 17.1511C1.82232 17.2745 1.89688 17.3844 1.99596 17.4693C2.09505 17.5542 2.21505 17.611 2.34351 17.6338C2.47196 17.6567 2.6042 17.6447 2.72647 17.5992L5.08143 16.7172C6.318 17.3844 7.7332 17.7631 9.23685 17.7631C14.0766 17.7631 18 13.8397 18 8.99997C18 4.16022 14.0766 0.236816 9.23685 0.236816Z" fill="#B3B3B3"/>
<circle cx="5.76318" cy="8.8579" r="1.06579" fill="white"/>
<circle cx="9.47369" cy="8.85778" r="1.06579" fill="white"/>
<circle cx="13.1846" cy="8.85778" r="1.06579" fill="white"/>
</svg>
