<svg width="14" height="14" viewBox="0 0 14 14" fill="none" xmlns="http://www.w3.org/2000/svg">
<path fill-rule="evenodd" clip-rule="evenodd" d="M3.96187 1.73779C3.86073 1.73779 3.76463 1.78196 3.69877 1.85873C3.63291 1.93549 3.60386 2.03718 3.61923 2.13715L4.34067 6.82835L2.58377 8.78627C2.4924 8.88809 2.46946 9.03413 2.52521 9.15906C2.58097 9.284 2.70498 9.36446 2.84179 9.36446H5.85502V11.7911C5.85502 11.9826 6.01023 12.1378 6.20168 12.1378H7.69512C7.88658 12.1378 8.04179 11.9826 8.04179 11.7911V9.36446H11.055C11.1918 9.36446 11.3159 9.28399 11.3716 9.15905C11.4273 9.03411 11.4044 8.88806 11.313 8.78624L9.5558 6.82835L10.2776 2.13718C10.293 2.03721 10.2639 1.9355 10.198 1.85874C10.1322 1.78197 10.0361 1.73779 9.93494 1.73779H3.96187Z" fill="black" fill-opacity="0.42"/>
</svg>
