<svg width="14" height="14" viewBox="0 0 14 14" fill="none" xmlns="http://www.w3.org/2000/svg">
<path fill-rule="evenodd" clip-rule="evenodd" d="M12.5319 5.07533C12.4428 4.79999 12.209 4.60332 11.9231 4.56182L8.9258 4.11182L7.59602 1.41833C7.46827 1.15887 7.20917 0.997559 6.91976 0.997559C6.63071 0.997559 6.37088 1.1585 6.24277 1.41833L4.88881 4.12987L1.91636 4.56182C1.62983 4.60332 1.39635 4.79999 1.30722 5.07569C1.21737 5.35103 1.29098 5.6473 1.49812 5.84903L3.65826 7.97488L3.15088 10.9347C3.1018 11.2201 3.21692 11.5031 3.45076 11.673C3.68424 11.843 3.98881 11.8657 4.24538 11.7304L6.93455 10.3328L9.59341 11.7304C9.70491 11.7892 9.82544 11.8185 9.94525 11.8185C10.1015 11.8185 10.256 11.7694 10.3888 11.673C10.6226 11.5031 10.7373 11.2201 10.6886 10.9351L10.1906 7.94529L12.3414 5.84903C12.5485 5.64694 12.6214 5.35067 12.5319 5.07533Z" fill="black" fill-opacity="0.42"/>
</svg>
