<svg fill="none" height="16" viewBox="0 0 16 16" width="16" xmlns="http://www.w3.org/2000/svg" xmlns:xlink="http://www.w3.org/1999/xlink"><clipPath id="a"><path d="m.571533 1.14307h14.8571v13.1429h-14.8571z"/></clipPath><g clip-path="url(#a)" stroke="#4c4c4c" stroke-width="1.1"><path d="m13.2638 12.8036c.9675-1.1657 1.5476-2.6588 1.5476-4.28586 0-3.72902-3.0486-6.75187-6.80949-6.75187-3.76086 0-6.80953 3.02285-6.80953 6.75295 0 1.62708.58004 3.11928 1.54645 4.28478" stroke-miterlimit="10"/><path d="m11.5442 10.9384c.392-.6507.6179-1.4179.6179-2.23881 0-2.35609-1.8632-4.26624-4.16137-4.26624s-4.16137 1.91015-4.16137 4.26624c0 .82091.22594 1.58811.61787 2.23881" stroke-miterlimit="10"/><path d="m11.7147 14.235c0-1.3985-1.2412-2.4935-3.71072-2.4935h-.00713c-2.46978 0-3.71072 1.095-3.71072 2.4935"/><path d="m9.30784 8.62257c0 .73047-.59106 1.32013-1.30714 1.32013-.71609 0-1.30715-.58966-1.30715-1.32013s.59106-1.32013 1.30715-1.32013c.71608 0 1.30714.58966 1.30714 1.32013z"/></g></svg>