<svg width="40" height="40" viewBox="0 0 40 40" fill="none" xmlns="http://www.w3.org/2000/svg">
<g id="common_expired_icon_40_video_dim">
<path id="Union" fill-rule="evenodd" clip-rule="evenodd" d="M34.9834 9.39049C34.9834 8.6239 34.3595 8 33.5911 8H6.39236C5.6295 8 5 8.62297 5 9.38956V30.627C5.00103 31.3952 5.62411 32.0175 6.39236 32.0175H17.3251L18.6457 30.6167H14.352L10.1852 30.6158H9.88958L7.50028 30.6148L7.32682 30.6139H6.36998L6.36998 25.7267L6.37091 25.3956V19.5539L6.37184 19.1762V9.39889L17.9733 9.39982H18.3892L25.3818 9.40075H25.7688L29.7982 9.40168H30.0939L32.4832 9.40262L32.6566 9.40355H33.6135V14.1961L33.6125 15.374L34.9834 14.0665V9.39049ZM21.3083 32.0175L16.9214 36.5L15.9534 35.5105L38.5426 12.4298L39.5106 13.4184L34.9834 18.0442L34.9834 30.627C34.9834 31.3945 34.3539 32.0175 33.5911 32.0175H21.3083ZM22.6782 30.6177L33.6023 30.6186H33.6116L33.6116 26.9876L33.6125 20.3158V19.445L22.6782 30.6177Z" fill="white"/>
<path id="Fill-3" fill-rule="evenodd" clip-rule="evenodd" d="M23.1398 20.456C23.5169 20.2093 23.5175 19.8067 23.1414 19.5572L17.6601 15.9218C17.2839 15.6723 16.979 15.8574 16.979 16.3368V23.622C16.979 24.1008 17.2841 24.2891 17.6617 24.0419L23.1398 20.456Z" fill="white"/>
</g>
</svg>
