<svg width="50" height="50" viewBox="0 0 50 50" fill="none" xmlns="http://www.w3.org/2000/svg">
<path fill-rule="evenodd" clip-rule="evenodd" d="M39.5163 12.0071C40.3403 12.0071 41.0093 12.6761 41.0093 13.4981V36.5171C41.0093 37.3401 40.3343 38.0081 39.5163 38.0081L10.493 38.001C9.66922 38.001 9.0011 37.3338 9 36.51V13.49C9 12.668 9.675 12 10.493 12L39.5163 12.0071ZM22.911 13.501L10.471 13.5V23.984L10.47 24.389V30.653L10.469 31.008V36.495H11.495L11.681 36.496L14.243 36.497H14.56L19.028 36.498H19.443L26.941 36.499H27.387L39.5283 36.5071H39.5383V32.3671L39.5393 25.2131V24.8071L39.5403 18.6511V13.5121L38.803 13.505L38.617 13.504L36.055 13.503H35.738L31.27 13.502H30.855L23.357 13.501H22.911ZM36.441 30.185L35.403 31.223L31.307 27.164L27.758 30.714L27.5781 30.9141L27.402 31.115L21.124 24.836L14.828 31.132L13.79 30.094L21.07 22.813L21.155 22.896L21.23 22.822L27.402 28.993L31.272 25.125L31.435 25.29L31.468 25.257L36.441 30.185ZM32 20.75C32 21.7165 31.2331 22.5 30.287 22.5C29.3409 22.5 28.574 21.7165 28.574 20.75C28.574 19.7835 29.3409 19 30.287 19C31.2331 19 32 19.7835 32 20.75Z" fill="#888888"/>
</svg>
