<svg width="15" height="15" viewBox="0 0 15 15" fill="none" xmlns="http://www.w3.org/2000/svg">
<g clip-path="url(#clip0_135_23012)">
<rect width="15" height="15" rx="2" fill="black" fill-opacity="0.6"/>
<path d="M11.4241 6.46875V11.4241H6.46875" stroke="white" stroke-width="1.1" stroke-linejoin="round"/>
<path fill-rule="evenodd" clip-rule="evenodd" d="M3 4C3 3.44772 3.44772 3 4 3H9.04688C9.59916 3 10.0469 3.44772 10.0469 4V9.04688C10.0469 9.59916 9.59916 10.0469 9.04688 10.0469H4C3.44772 10.0469 3 9.59916 3 9.04688V4ZM8.07838 4.67542C8.07838 5.07029 7.75828 5.39039 7.36341 5.39039C6.96854 5.39039 6.64844 5.07029 6.64844 4.67542C6.64844 4.28055 6.96854 3.96045 7.36341 3.96045C7.75828 3.96045 8.07838 4.28055 8.07838 4.67542ZM3.70467 7.37665L3.70467 8.78281L5.68403 7.20959L7.53565 8.64816L9.34217 7.29181L9.34217 5.91408L7.54661 7.2622L5.67659 5.80933L3.70467 7.37665Z" fill="white"/>
</g>
<defs>
<clipPath id="clip0_135_23012">
<rect width="15" height="15" rx="2" fill="white"/>
</clipPath>
</defs>
</svg>
