<svg fill="none" height="32" viewBox="0 0 32 32" width="32" xmlns="http://www.w3.org/2000/svg"><g stroke="#000" stroke-linejoin="round" stroke-width="1.2"><path clip-rule="evenodd" d="m11.1633 11.0068c-4.09274 0-7.41013 2.7786-7.41013 6.2062 0 1.9863 1.11753 3.749 2.84971 4.8857v3.7108l3.29518-2.4869c.41184.0597.83284.0972 1.26524.0972 4.0928 0 7.4102-2.7785 7.4102-6.2068 0-3.4276-3.3174-6.2062-7.4102-6.2062z" fill-rule="evenodd"/><path d="m10.3213 11.0468c1.6036-2.5183 4.7709-4.2321 8.4167-4.2321 5.2646 0 9.5327 3.5746 9.5327 7.9842 0 2.5543-1.4375 4.823-3.6657 6.2842v4.774l-4.2397-3.1987c-.5297.0765-1.0716.1247-1.6273.1247-1.1635 0-2.2787-.1752-3.3097-.4944"/></g></svg>