<svg fill="none" height="40" viewBox="0 0 40 40" width="40" xmlns="http://www.w3.org/2000/svg"><path clip-rule="evenodd" d="m27.2913 33.1119c0-3.5413-2.7972-5.2318-7.3131-5.2318-4.5034 0-7.3006 1.6905-7.3006 5.2318" fill="#0084ff" fill-rule="evenodd"/><path d="m27.2913 33.1119c0-3.5413-2.7972-5.2318-7.3131-5.2318-4.5034 0-7.3006 1.6905-7.3006 5.2318" stroke="#0084ff" stroke-width="1.92"/><g clip-rule="evenodd" fill="#0084ff" fill-rule="evenodd"><path d="m23.2455 20.8719c0 1.7569-1.4443 3.1808-3.2263 3.1808s-3.2264-1.4239-3.2264-3.1808c0-1.7568 1.4444-3.1807 3.2264-3.1807s3.2263 1.4239 3.2263 3.1807z" stroke="#0084ff" stroke-linecap="round" stroke-width="1.44"/><path d="m19.998 6.50621c-7.789 0-14.1976 6.60389-14.1976 14.86919 0 2.8181.74752 5.4477 2.04273 7.6882-.4611.9702-.79374 2.0584-.98915 3.2663l-.2748-.3764c-2.14782-2.9423-3.41878-6.6099-3.41878-10.5781 0-9.6168 7.4863-17.50919 16.8376-17.50919s16.8376 7.89239 16.8376 17.50919c0 3.9682-1.2709 7.6358-3.4188 10.5781l-.2527.3461c-.1985-1.2045-.5346-2.2896-.9991-3.257 1.2878-2.2359 2.0306-4.8579 2.0306-7.6672 0-8.2653-6.4086-14.86919-14.1976-14.86919zm9.7406 19.37089.1037-.2362c.6143-1.4002.9551-2.9528.9551-4.583 0-6.1047-4.7929-11.13164-10.8-11.13164s-10.79999 5.02694-10.79999 11.13164c0 1.6302.34077 3.1828.95519 4.583l.1074.2449c.6649-.5699 1.415-1.0555 2.245-1.458-.4288-1.0307-.6676-2.1693-.6676-3.3699 0-4.733 3.6958-8.4916 8.16-8.4916s8.16 3.7586 8.16 8.4916c0 1.1994-.2383 2.3369-.6663 3.3669.8303.401 1.5813.8847 2.2475 1.4523z" opacity=".4"/></g></svg>