<svg fill="none" height="48" viewBox="0 0 48 48" width="48" xmlns="http://www.w3.org/2000/svg"><path clip-rule="evenodd" d="m33.1167 41.8068c0-4.4266-3.4965-6.5397-9.1414-6.5397-5.6292 0-9.1257 2.1131-9.1257 6.5397" fill="#0084ff" fill-rule="evenodd"/><path d="m33.1167 41.8068c0-4.4266-3.4965-6.5397-9.1414-6.5397-5.6292 0-9.1257 2.1131-9.1257 6.5397" stroke="#0084ff" stroke-width="2.4"/><g clip-rule="evenodd" fill="#0084ff" fill-rule="evenodd"><path d="m28.058 26.5067c0 2.1961-1.8054 3.976-4.0329 3.976s-4.0329-1.7799-4.0329-3.976c0-2.196 1.8054-3.9759 4.0329-3.9759s4.0329 1.7799 4.0329 3.9759z" stroke="#0084ff" stroke-linecap="round" stroke-width="1.8"/><path d="m24.0001 8.55c-9.7362 0-17.74697 8.2549-17.74697 18.5865 0 3.5237.935 6.8117 2.55499 9.613-.57611 1.2129-.99165 2.5733-1.23564 4.0834l-.34588-.4738c-2.68478-3.6778-4.27348-8.2624-4.27348-13.2226 0-12.021 9.35788-21.8865 21.04698-21.8865 11.6892 0 21.047 9.8655 21.047 21.8865 0 4.9602-1.5887 9.5448-4.2734 13.2226l-.3135.4294c-.2484-1.5056-.6688-2.8618-1.2497-4.0708 1.6087-2.7943 2.5366-6.0708 2.5366-9.5812 0-10.3316-8.0108-18.5865-17.747-18.5865zm12.1771 24.2121.1289-.2937c.7679-1.7503 1.1939-3.691 1.1939-5.7288 0-7.6308-5.9911-13.9145-13.5-13.9145s-13.5 6.2837-13.5 13.9145c0 2.0378.426 3.9785 1.1939 5.7288l.1349.3075c.831-.7126 1.7686-1.3198 2.806-1.823-.5362-1.2887-.8348-2.7122-.8348-4.2133 0-5.9162 4.6197-10.6145 10.2-10.6145s10.2 4.6983 10.2 10.6145c0 1.4989-.2977 2.9204-.8324 4.2076 1.0379.5011 1.9767 1.1056 2.8096 1.8149z" opacity=".4"/></g></svg>