<svg fill="none" height="48" viewBox="0 0 48 48" width="48" xmlns="http://www.w3.org/2000/svg"><g fill="#ccc"><path clip-rule="evenodd" d="m24.0251 30.4827c2.2275 0 4.0329-1.7799 4.0329-3.976 0-2.196-1.8054-3.9759-4.0329-3.9759s-4.0329 1.7799-4.0329 3.9759c0 2.1961 1.8054 3.976 4.0329 3.976zm-.0498 4.7845c5.6449 0 9.1414 2.1132 9.1414 6.5398h-18.2671c0-4.4266 3.4965-6.5398 9.1257-6.5398z" fill-rule="evenodd"/><path d="m33.1167 41.807v.9h.9v-.9zm-18.2671 0h-.9v.9h.9zm12.3084-15.3003c0 1.687-1.3903 3.076-3.1329 3.076v1.8c2.7124 0 4.9329-2.1708 4.9329-4.876zm-3.1329-3.0759c1.7426 0 3.1329 1.389 3.1329 3.0759h1.8c0-2.7051-2.2205-4.8759-4.9329-4.8759zm-3.1329 3.0759c0-1.6869 1.3903-3.0759 3.1329-3.0759v-1.8c-2.7125 0-4.9329 2.1708-4.9329 4.8759zm3.1329 3.076c-1.7426 0-3.1329-1.389-3.1329-3.076h-1.8c0 2.7052 2.2204 4.876 4.9329 4.876zm9.9916 12.2243c0-2.4882-1.003-4.411-2.8454-5.6725-1.7908-1.2261-4.2841-1.7673-7.196-1.7673v1.8c2.733 0 4.8104.5154 6.1791 1.4525 1.317.9018 2.0623 2.2489 2.0623 4.1873zm-19.1671.9h18.2671v-1.8h-18.2671zm9.1257-8.3398c-2.9044 0-5.3939.5414-7.1827 1.7676-1.8401 1.2615-2.843 3.1841-2.843 5.6722h1.8c0-1.9385.7454-3.2858 2.0608-4.1876 1.3668-.937 3.4401-1.4522 6.1649-1.4522z"/><path clip-rule="evenodd" d="m24.0001 8.55c-9.7362 0-17.74697 8.2549-17.74697 18.5865 0 3.5237.935 6.8117 2.55499 9.613-.57611 1.2129-.99165 2.5733-1.23564 4.0834l-.34588-.4738c-2.68478-3.6778-4.27348-8.2624-4.27348-13.2226 0-12.021 9.35788-21.8865 21.04698-21.8865 11.6892 0 21.047 9.8655 21.047 21.8865 0 4.9602-1.5887 9.5448-4.2734 13.2226l-.3135.4294c-.2484-1.5056-.6688-2.8618-1.2497-4.0708 1.6087-2.7943 2.5366-6.0708 2.5366-9.5812 0-10.3316-8.0108-18.5865-17.747-18.5865zm12.1771 24.2121.1289-.2937c.7679-1.7503 1.1939-3.691 1.1939-5.7288 0-7.6308-5.9911-13.9145-13.5-13.9145s-13.5 6.2837-13.5 13.9145c0 2.0378.426 3.9785 1.1939 5.7288l.1349.3075c.831-.7126 1.7686-1.3198 2.806-1.823-.5362-1.2887-.8348-2.7122-.8348-4.2133 0-5.9162 4.6197-10.6145 10.2-10.6145s10.2 4.6983 10.2 10.6145c0 1.4989-.2977 2.9204-.8324 4.2076 1.0379.5011 1.9767 1.1056 2.8096 1.8149z" fill-rule="evenodd"/></g></svg>