<svg width="46" height="38" viewBox="0 0 46 38" fill="none" xmlns="http://www.w3.org/2000/svg">
<g clip-path="url(#clip0_131_19885)">
<path fill-rule="evenodd" clip-rule="evenodd" d="M37.526 6C38.35 6 39.019 6.669 39.019 7.491V12.505L37.549 13.907L37.55 12.644V7.505H36.524L36.338 7.504L34.055 7.503H33.738L29.27 7.502H28.855L21.357 7.501H20.911L8.471 7.5V17.984L8.47 18.389V24.653L8.469 25.008V30.495H9.495L9.681 30.496L12.243 30.497H12.56L17.028 30.498H21.632L20.216 32H8.493C7.66922 32 7.0011 31.3328 7 30.509V7.49C7 6.668 7.675 6 8.493 6H37.526ZM19.783 36.56L24.2457 32L37.526 32C38.344 32 39.019 31.332 39.019 30.509V16.9047L44.005 11.81L42.967 10.75L18.745 35.499L19.783 36.56ZM37.538 30.5L25.7147 30.499L37.549 18.4068V19.206L37.548 26.36V30.5H37.538ZM28.287 16.5C29.2331 16.5 30 15.7165 30 14.75C30 13.7835 29.2331 13 28.287 13C27.3409 13 26.574 13.7835 26.574 14.75C26.574 15.7165 27.3409 16.5 28.287 16.5ZM30.309 20.164L25.759 24.714L25.5508 24.9375L25.402 25.115L19.124 18.836L12.828 25.132L11.79 24.094L19.07 16.813L19.155 16.896L19.23 16.822L25.402 22.993L29.272 19.125L30.309 20.164Z" fill="white"/>
</g>
<defs>
<clipPath id="clip0_131_19885">
<rect width="46" height="38" fill="white"/>
</clipPath>
</defs>
</svg>
