<svg width="46" height="38" viewBox="0 0 46 38" fill="none" xmlns="http://www.w3.org/2000/svg">
<g clip-path="url(#clip0_131_19954)">
<path fill-rule="evenodd" clip-rule="evenodd" d="M37.506 6.01013C38.33 6.01013 38.999 6.67913 38.999 7.50113V12.5151L37.529 13.9171L37.53 12.6541V7.51513H36.504L36.318 7.51413L34.055 7.51316H33.738L29.27 7.51216H28.855L21.357 7.51116H20.911L8.471 7.51016V17.9942L8.47 18.3992V24.6632L8.469 25.0182V30.5052H9.495L9.681 30.5062L12.243 30.5072H12.56L17.028 30.5082H21.632L20.216 32.0102H8.493C7.66922 32.0102 7.0011 31.3429 7 30.5192V7.50016C7 6.67816 7.675 6.01016 8.493 6.01016L37.506 6.01013ZM19.783 36.5601L24.2358 32.0102L37.506 32.0101C38.324 32.0101 38.999 31.3421 38.999 30.5191V16.9252L44.005 11.8101L42.967 10.7501L18.745 35.4991L19.783 36.5601ZM37.518 30.5101L25.7048 30.5092L37.529 18.4272V19.2161L37.528 26.3701V30.5101H37.518ZM27.0834 18.556C27.5118 18.8566 27.5112 19.3415 27.0816 19.6387L20.8415 23.9583C20.4114 24.256 20.0638 24.0292 20.0638 23.4525V14.6767C20.0638 14.0992 20.4112 13.8762 20.8397 14.1768L27.0834 18.556Z" fill="#888888"/>
</g>
<defs>
<clipPath id="clip0_131_19954">
<rect width="46" height="38" fill="white"/>
</clipPath>
</defs>
</svg>
