<svg width="46" height="38" viewBox="0 0 46 38" fill="none" xmlns="http://www.w3.org/2000/svg">
<g clip-path="url(#clip0_131_19894)">
<path fill-rule="evenodd" clip-rule="evenodd" d="M37.522 5.99597C38.346 5.99597 39.015 6.66497 39.015 7.48697V12.5625L37.545 13.9645L37.546 12.7015V7.50097H36.52L36.334 7.49997L34.055 7.49897H33.738L29.27 7.49797H28.855L21.357 7.49697H20.911L8.471 7.49597V17.0501L8.47 17.4551V23.7191L8.469 24.0741L8.491 30.5392H9.517L9.703 30.5402L12.265 30.5412H12.582L17.05 30.5422H21.654L20.238 32.0442H8.515C7.69122 32.0442 7.0231 31.3769 7.022 30.5532L7 7.48597C7 6.66397 7.675 5.99597 8.493 5.99597H37.522ZM25.6715 30.5432L37.556 30.5442H37.566L37.544 25.4261L37.545 18.4108L25.6715 30.5432ZM24.2025 32.0442L19.783 36.56L18.745 35.499L42.967 10.75L44.005 11.81L39.015 16.9088V30.5392C39.015 31.3622 38.34 32.0302 37.544 32.0442H24.2025ZM27.0816 19.6387C27.5112 19.3414 27.5118 18.8565 27.0834 18.5559L20.8397 14.1767C20.4112 13.8762 20.0638 14.0992 20.0638 14.6766V23.4524C20.0638 24.0292 20.4114 24.256 20.8415 23.9582L27.0816 19.6387Z" fill="white"/>
</g>
<defs>
<clipPath id="clip0_131_19894">
<rect width="46" height="38" fill="white"/>
</clipPath>
</defs>
</svg>
