<svg width="46" height="38" viewBox="0 0 46 38" fill="none" xmlns="http://www.w3.org/2000/svg">
<g clip-path="url(#clip0_131_19938)">
<path fill-rule="evenodd" clip-rule="evenodd" d="M37.5314 6C38.3554 6 39.0244 6.669 39.0244 7.491V12.505L37.5544 13.907L37.5554 12.644V7.505H36.5294L36.3434 7.504L34.055 7.503H33.738L29.27 7.502H28.855L21.357 7.501H20.911L8.471 7.5V17.984L8.47 18.389V24.653L8.469 25.008V30.495H9.495L9.681 30.496L12.243 30.497H12.56L17.028 30.498H21.632L20.216 32H8.493C7.66922 32 7.0011 31.3328 7 30.509V7.49C7 6.668 7.675 6 8.493 6H37.5314ZM25.7147 30.499L37.5434 30.5H37.5534V26.36L37.5544 19.206V18.4012L25.7147 30.499ZM24.2457 32L19.783 36.56L18.745 35.499L42.967 10.75L44.005 11.81L39.0244 16.8992V30.509C39.0244 31.332 38.3494 32 37.5314 32H24.2457ZM30 14.75C30 15.7165 29.2331 16.5 28.287 16.5C27.3409 16.5 26.574 15.7165 26.574 14.75C26.574 13.7835 27.3409 13 28.287 13C29.2331 13 30 13.7835 30 14.75ZM25.759 24.714L30.309 20.164L29.272 19.125L25.402 22.993L19.23 16.822L19.155 16.896L19.07 16.813L11.79 24.094L12.828 25.132L19.124 18.836L25.402 25.115L25.5703 24.918L25.759 24.714Z" fill="#888888"/>
</g>
<defs>
<clipPath id="clip0_131_19938">
<rect width="46" height="38" fill="white"/>
</clipPath>
</defs>
</svg>
