<svg width="174" height="174" viewBox="0 0 174 174" fill="none" xmlns="http://www.w3.org/2000/svg">
<rect width="174" height="174" fill="#E6E6E6"/>
<path fill-rule="evenodd" clip-rule="evenodd" d="M69 70.2399C69 69.5551 69.5551 69 70.2399 69H84.6057C85.2905 69 85.8456 69.5551 85.8456 70.2399V84.6057C85.8456 85.2905 85.2905 85.8456 84.6057 85.8456H70.2399C69.5551 85.8456 69 85.2905 69 84.6057V70.2399ZM71.4799 71.4799V83.3658H83.3658V71.4799H71.4799Z" fill="white"/>
<path fill-rule="evenodd" clip-rule="evenodd" d="M88.1543 70.2399C88.1543 69.5551 88.7094 69 89.3942 69H103.76C104.445 69 105 69.5551 105 70.2399V84.6057C105 85.2905 104.445 85.8456 103.76 85.8456H89.3942C88.7094 85.8456 88.1543 85.2905 88.1543 84.6057V70.2399ZM90.6341 71.4799V83.3658H102.52V71.4799H90.6341Z" fill="white"/>
<path fill-rule="evenodd" clip-rule="evenodd" d="M69 89.3942C69 88.7094 69.5551 88.1543 70.2399 88.1543H84.6057C85.2905 88.1543 85.8456 88.7094 85.8456 89.3942V103.761C85.8456 104.446 85.2905 105.001 84.6057 105.001H70.2399C69.5551 105.001 69 104.446 69 103.761V89.3942ZM71.4799 90.6341V102.521H83.3658V90.6341H71.4799Z" fill="white"/>
<path fill-rule="evenodd" clip-rule="evenodd" d="M88.1978 92.9863H92.9863V88.199H88.1978V92.9863Z" fill="white"/>
<path fill-rule="evenodd" clip-rule="evenodd" d="M100.169 92.9863H104.958V88.199H100.169V92.9863Z" fill="white"/>
<path fill-rule="evenodd" clip-rule="evenodd" d="M94.1831 79.8184H98.9717V75.0298H94.1831V79.8184Z" fill="white"/>
<path fill-rule="evenodd" clip-rule="evenodd" d="M75.0288 79.8184H79.8174V75.0298H75.0288V79.8184Z" fill="white"/>
<path fill-rule="evenodd" clip-rule="evenodd" d="M75.0288 98.9727H79.8174V94.1841H75.0288V98.9727Z" fill="white"/>
<path fill-rule="evenodd" clip-rule="evenodd" d="M100.169 104.958H104.958V100.169H100.169V104.958Z" fill="white"/>
<path fill-rule="evenodd" clip-rule="evenodd" d="M88.1978 104.958H92.9863V100.169H88.1978V104.958Z" fill="white"/>
<path fill-rule="evenodd" clip-rule="evenodd" d="M94.1831 98.9727H98.9717V94.1841H94.1831V98.9727Z" fill="white"/>
</svg>
