<svg width="54" height="54" viewBox="0 0 54 54" fill="none" xmlns="http://www.w3.org/2000/svg">
<path fill-rule="evenodd" clip-rule="evenodd" d="M11.449 10.7438C15.2156 7.59931 19.9317 7.2475 24.6625 9.4084C24.8662 9.50146 25.0662 9.59311 25.2626 9.68315C27.6951 10.7982 29.5966 11.6697 31.639 11.9927C33.7178 12.3213 36.0481 12.0824 39.1951 10.4979C39.4684 10.3602 39.7702 10.2885 40.0762 10.2885H40.1346C41.2167 10.2885 42.0939 11.1657 42.0939 12.2478V32.4543C42.0939 33.3373 41.5098 34.0838 40.7069 34.3287C37.033 36.1286 33.9498 36.5317 31.0271 36.0696C28.4234 35.658 26.0309 34.5571 23.7162 33.4921C23.4882 33.3872 23.261 33.2827 23.0344 33.1792C19.7878 31.6963 16.9717 31.8746 14.6639 33.4289V44.9054H10.7454V12.2478C10.7454 11.667 11.0031 11.116 11.449 10.7438Z" fill="black"/>
<path fill-rule="evenodd" clip-rule="evenodd" d="M27.1555 3.95084C27.3634 4.04579 27.5668 4.13905 27.7627 4.22884C30.3825 5.42968 31.5029 5.89663 32.576 6.06629C33.0161 6.13586 33.4492 6.14599 33.9801 6.05289C34.5371 5.95521 35.3473 5.71761 36.4968 5.13882C37.6072 4.57976 38.8331 4.28856 40.0762 4.28856H40.1346C44.5304 4.28856 48.0939 7.85205 48.0939 12.2478V32.4543C48.0939 35.8314 45.9946 38.7045 43.0414 39.8643C38.5067 42.0241 34.2759 42.6578 30.0901 41.996C26.6568 41.4532 23.6152 40.0518 21.4391 39.0492C21.361 39.0132 21.2841 38.9778 21.2083 38.9429L23.7162 33.4922C26.0309 34.5571 28.4234 35.658 31.0271 36.0696C33.9498 36.5317 37.033 36.1286 40.7069 34.3287C41.5098 34.0838 42.0939 33.3373 42.0939 32.4543V12.2478C42.0939 11.1658 41.2167 10.2886 40.1346 10.2886H40.0762C39.7702 10.2886 39.4684 10.3602 39.1951 10.4979C36.0481 12.0824 33.7178 12.3213 31.639 11.9927C29.5966 11.6698 27.6951 10.7982 25.2626 9.68316C25.0662 9.59311 24.8662 9.50147 24.6625 9.40841C19.9317 7.2475 15.2156 7.59932 11.449 10.7438C11.0031 11.116 10.7454 11.667 10.7454 12.2478V44.9054H14.6639V33.4289C15.3175 32.9887 16.0119 32.6588 16.7454 32.4458C18.6014 31.9068 20.7074 32.1163 23.0344 33.1792C23.2606 33.2825 23.4875 33.3869 23.715 33.4916L23.7162 33.4922L21.2083 38.9429C21.0219 38.8571 20.8418 38.7743 20.6639 38.6928V44.9054C20.6639 48.2191 17.9776 50.9054 14.6639 50.9054H10.7454C7.43165 50.9054 4.74536 48.2191 4.74536 44.9054V12.2478C4.74536 9.88814 5.79241 7.65008 7.60385 6.13784C13.4225 1.28026 20.6767 0.991507 27.1555 3.95084Z" fill="white"/>
</svg>
