<svg width="14" height="14" viewBox="0 0 14 14" fill="none" xmlns="http://www.w3.org/2000/svg">
<g clip-path="url(#clip0_132_19996)">
<g opacity="0.8" clip-path="url(#clip1_132_19996)">
<path d="M2.5 13.5H10.4159C12.1121 13.5 13.5 12.1121 13.5 10.4159V2.5" stroke="white"/>
<path d="M10.3929 0H1.60714C0.723214 0 0 0.723214 0 1.60714V10.3929C0 11.2768 0.723214 12 1.60714 12H10.3929C11.2768 12 12 11.2768 12 10.3929V1.60714C12 0.723214 11.2768 0 10.3929 0ZM8.30357 2.51786C8.78571 2.51786 9.16071 2.89286 9.16071 3.375C9.16071 3.85714 8.78571 4.23214 8.30357 4.23214C7.82143 4.23214 7.44643 3.85714 7.44643 3.375C7.44643 2.89286 7.82143 2.51786 8.30357 2.51786ZM8.35714 8.57143C8.25 8.67857 8.08929 8.73214 7.98214 8.73214C7.875 8.73214 7.71429 8.67857 7.60714 8.57143L4.92857 5.89286L2.19643 8.57143L1.44643 7.82143L4.55357 4.71429C4.66071 4.60714 4.76786 4.55357 4.92857 4.55357C5.08929 4.55357 5.19643 4.60714 5.30357 4.71429L7.98214 7.39286L9.91071 5.46429L10.6607 6.21429L8.35714 8.57143Z" fill="white"/>
</g>
</g>
<defs>
<clipPath id="clip0_132_19996">
<rect width="14" height="14" fill="white"/>
</clipPath>
<clipPath id="clip1_132_19996">
<rect width="14" height="14" fill="white"/>
</clipPath>
</defs>
</svg>
