<svg width="80" height="80" viewBox="0 0 80 80" fill="none" xmlns="http://www.w3.org/2000/svg">
<g clip-path="url(#clip0_136_24043)">
<path fill-rule="evenodd" clip-rule="evenodd" d="M66 22C66 20.8954 65.1046 20 64 20H16C14.8954 20 14 20.8954 14 22V58C14 59.1046 14.8954 60 16 60H38.168L40.769 57.399L16.6 57.4V22.6H63.4L63.399 34.77L66 32.169V22ZM63.3992 41.4481L47.4481 57.3992L63.4 57.4L63.3992 41.4481ZM44.8473 60L36.6565 68.1908L34.818 66.3524L71.9225 29.2479L73.761 31.0863L66 38.8473V58C66 59.1046 65.1046 60 64 60H44.8473Z" fill="#888888"/>
<path d="M48.5 36C49.8807 36 51 34.8807 51 33.5C51 32.1193 49.8807 31 48.5 31C47.1193 31 46 32.1193 46 33.5C46 34.8807 47.1193 36 48.5 36Z" fill="#888888"/>
<path d="M24.333 47.9402L33.9879 38.3979L43.6499 47.9494L50.2914 41.3839" stroke="#888888" stroke-width="2.6"/>
</g>
<defs>
<clipPath id="clip0_136_24043">
<rect width="80" height="80" fill="white"/>
</clipPath>
</defs>
</svg>
