<svg width="80" height="80" viewBox="0 0 80 80" fill="none" xmlns="http://www.w3.org/2000/svg">
<g clip-path="url(#clip0_136_24051)">
<path fill-rule="evenodd" clip-rule="evenodd" d="M65 21C65 19.8954 64.1046 19 63 19H15C13.8954 19 13 19.8954 13 21V57C13 58.1046 13.8954 59 15 59H37.168L39.769 56.399L15.6 56.4V21.6H62.4L62.399 33.77L65 31.169V21ZM62.3991 39.819L45.819 56.3991L62.4 56.4L62.3991 39.819ZM43.2181 59L35.367 66.8511L33.5285 65.0126L70.633 27.9081L72.4715 29.7466L65 37.2181V57C65 58.1046 64.1046 59 63 59H43.2181Z" fill="#888888"/>
<path d="M36.5975 32.2319L44.6038 38.1983C45.0466 38.5283 45.1381 39.1548 44.8081 39.5976C44.7502 39.6753 44.6814 39.7441 44.6038 39.8019L36.5975 45.7683C36.1547 46.0984 35.5282 46.0069 35.1982 45.5641C35.0695 45.3914 35 45.1818 35 44.9665V33.0337C35 32.4814 35.4477 32.0337 36 32.0337C36.2153 32.0337 36.4249 32.1032 36.5975 32.2319Z" fill="#888888"/>
</g>
<defs>
<clipPath id="clip0_136_24051">
<rect width="80" height="80" fill="white"/>
</clipPath>
</defs>
</svg>
