<svg fill="none" height="32" viewBox="0 0 32 32" width="32" xmlns="http://www.w3.org/2000/svg"><g fill="#fff"><circle cx="16" cy="16" fill-opacity=".35" r="16"/><path clip-rule="evenodd" d="m19.5364 10.4579.5227-1.15928c.1132-.25302.473-.25022.5831.00365l.5044 1.16183 1.1426.5149c.2362.1071.2485.4289.04.5593l-.0446.0234-1.1447.4967-.522 1.1596c-.1064.2361-.4281.2489-.5597.0405l-.0237-.0446-.5048-1.1626-1.1413-.5139c-.2362-.1064-.2485-.4286-.0404-.5594l.0445-.0235zm-6.5059 3.9149 1.6306-3.6193c.1821-.4059.7599-.4023.9368.0056l1.5763 3.6299c.007.0161.019.0283.0342.0351l3.5673 1.6067c.4051.183.401.7598-.007.9371l-3.5762 1.5525c-.0149.0065-.0276.019-.0345.0345l-1.6306 3.6198c-.1823.4054-.7605.4015-.9372-.0062l-1.5759-3.6298c-.0069-.0158-.0193-.0285-.0342-.0352l-3.5673-1.6067c-.40498-.1829-.40109-.7596.00652-.9371l3.57718-1.5527c.0147-.0063.027-.0185.034-.0342z" fill-rule="evenodd"/></g></svg>