<svg fill="none" height="20" viewBox="0 0 20 20" width="20" xmlns="http://www.w3.org/2000/svg"><g fill="#fff"><rect fill-opacity=".12" height="20" rx="3" width="20"/><path clip-rule="evenodd" d="m11.6834 5.0999h3.2138v9.7973h-9.7973v-3.2136h-1.2v3.8136c0 .3314.26863.6.6.6h10.9973c.3314 0 .6-.2686.6-.6v-10.9973c0-.33137-.2686-.6-.6-.6h-3.8138zm-7.18325-1.19106c-.33137 0-.6.26863-.6.6v5.05043c0 .33137.26863.60003.6.60003h5.05085c.33137 0 .6-.26866.6-.60003v-5.05043c0-.33137-.26863-.6-.6-.6zm.6 5.05043v-3.85043h3.85085v3.85043z" fill-opacity=".9" fill-rule="evenodd"/></g></svg>