<svg fill="none" height="32" viewBox="0 0 32 32" width="32" xmlns="http://www.w3.org/2000/svg"><g fill="#fff"><circle cx="16" cy="16" fill-opacity=".25" r="16"/><path clip-rule="evenodd" d="m15.9998 9.22754c-1.6364 0-2.9629 1.32656-2.9629 2.96296v3.3862c0 1.6364 1.3265 2.963 2.9629 2.963s2.963-1.3266 2.963-2.963v-3.3862c0-1.6364-1.3266-2.96296-2.963-2.96296zm-4.2328 6.34896c0 2.3377 1.8951 4.2328 4.2328 4.2328 2.2981 0 4.1684-1.8314 4.2312-4.1143l.0016-.1185h.8465c0 2.6627-2.0487 4.8468-4.6559 5.062v2.5572h-.8465v-2.5572c-2.5651-.2115-4.5897-2.3289-4.6547-4.9329l-.0016-.1291z" fill-rule="evenodd"/></g></svg>