<svg fill="none" height="42" viewBox="0 0 42 42" width="42" xmlns="http://www.w3.org/2000/svg"><circle cx="21" cy="21" fill="#c34418" r="21"/><path d="m21.1754 15.5h-.357c-2.6637.015-5.4755.5379-8.2787 2.1018-2.4937 1.3908-3.28374 3.7087-2.97689 6.4227.10742.9483 1.00649 1.6037 1.94969 1.434l4.1946-.7529.0929-.0214c.425-.1193.7274-.5026.7363-.9503l.0523-2.4856.0951-.0573c.2068-.1205.4659-.2425.78-.3574.9142-.3345 2.0834-.5367 3.5315-.5367s2.6172.2022 3.5311.5367c.3141.1149.573.2369.7797.3573l.0943.0574.053 2.4861c.0107.4795.3568.8849.8281.971l4.8639.8729c.5434.098 1.0662-.2571 1.1684-.8.5621-2.995-.0797-5.624-2.863-7.1765-2.8042-1.5645-5.6112-2.0869-8.2753-2.1018z" fill="#fff"/></svg>