<svg fill="none" height="42" viewBox="0 0 42 42" width="42" xmlns="http://www.w3.org/2000/svg"><g fill="#fff"><circle cx="21" cy="21" fill-opacity=".15" r="21"/><path clip-rule="evenodd" d="m25.641 13.7269.6861-1.5215c.1486-.3321.6208-.3285.7653.0047l.662 1.525 1.4997.6758c.31.1406.3261.5628.0526.734l-.0586.0307-1.5024.6519-.6852 1.522c-.1396.3099-.5619.3267-.7346.0532l-.0311-.0586-.6625-1.5259-1.498-.6745c-.31-.1396-.3262-.5624-.0531-.7342l.0585-.0309zm-8.5387 5.1384 2.1401-4.7502c.2391-.5327.9975-.528 1.2295.0073l2.0689 4.7642c.0093.0212.025.0372.045.0461l4.6821 2.1089c.5317.2401.5262.9972-.0092 1.2298l-4.6939 2.0378c-.0195.0084-.0362.0249-.0452.0452l-2.1402 4.751c-.2392.5321-.998.527-1.23-.0081l-2.0683-4.7642c-.0091-.0208-.0254-.0373-.045-.0461l-4.682-2.1089c-.5316-.24-.5265-.9969.0085-1.2298l4.6951-2.0381c.0193-.0082.0354-.0242.0446-.0449z" fill-rule="evenodd"/></g></svg>