<svg fill="none" height="42" viewBox="0 0 42 42" width="42" xmlns="http://www.w3.org/2000/svg"><circle cx="21" cy="21" fill="#1a7640" r="21"/><path d="m15.6403 12.8543-.0753.0461c-2.1486 1.4689-3.3496 3.4454-2.6056 6.0655.4314 1.5194 1.1271 2.9169 2.0059 4.1866.5952.86 1.1585 1.5115 1.7517 2.109l.1523.1523c.5966.5923 1.2483 1.1559 2.1085 1.7514 1.2711.8801 2.6694 1.5766 4.1887 2.0077 2.3472.6667 4.2247-.2563 5.6793-2.081.5101-.6408.3621-1.5846-.3132-2.0541l-2.9846-2.0759-.0746-.0464c-.3299-.1831-.7449-.133-1.0221.1329l-1.5281 1.4637-.0866-.0208c-.197-.0519-.4264-.1343-.6848-.2542-.7523-.3491-1.5788-.9317-2.4515-1.8045-.8731-.8728-1.4558-1.6992-1.805-2.4516-.12-.2584-.2024-.4878-.2544-.6848l-.0216-.0873 1.4652-1.5279c.2858-.2981.3216-.7563.0862-1.0962l-2.4062-3.4606c-.255-.3665-.7405-.4787-1.1242-.2699z" fill="#fff"/></svg>