<svg fill="none" height="32" viewBox="0 0 32 32" width="32" xmlns="http://www.w3.org/2000/svg"><circle cx="16" cy="16" fill="#fff" fill-opacity=".7" r="16"/><path clip-rule="evenodd" d="m18.9632 13.1423 3.051-3.35404.6261.56974-.0204.0224-3.6567 4.0199-3.6817 4.0466-.9329 1.026-.5951.654-3.3668 3.7007-.58073-.5282-.04572-.0415 3.25675-3.5797c-1.2686-.9232-2.0961-2.4165-2.0961-4.1024h.8465c0 1.4374.7222 2.7085 1.8214 3.4743l.8652-.9516c-.8482-.5219-1.4167-1.4561-1.4167-2.5227v-3.3863c0-1.6338 1.3291-2.96294 2.963-2.96294 1.6334 0 2.9629 1.32914 2.9629 2.96294zm-2.963 6.666c-.2303 0-.4551-.0237-.6756-.0592l-.6574.7225c.2938.08.5973.1359.9097.1617v2.5613h.8465v-2.5613c2.6028-.2163 4.6561-2.4 4.6561-5.0578h-.8465c0 2.334-1.8989 4.2328-4.2328 4.2328zm.4617-1.3092c1.3549-.2138 2.4055-1.3465 2.4918-2.7391z" fill="#222" fill-rule="evenodd"/></svg>