<svg fill="none" height="32" viewBox="0 0 32 32" width="32" xmlns="http://www.w3.org/2000/svg" xmlns:xlink="http://www.w3.org/1999/xlink"><clipPath id="a"><path d="m8.38086 8.38086h15.2381v15.2381h-15.2381z"/></clipPath><circle cx="16" cy="16" fill="#fff" fill-opacity=".25" r="16"/><g clip-path="url(#a)"><path clip-rule="evenodd" d="m22.3701 11.4882-2.9629 3.3862c-.0675.0772-.1047.1762-.1047.2787v1.2699c0 .0941.0313.1856.0891.2599l2.963 3.8095c.2474.3181.7574.1431.7574-.2599v-8.4656c0-.3908-.4845-.5729-.7419-.2787zm-4.3377-.1445h-7.619c-.70139 0-1.26985.5686-1.26985 1.2698v6.7725c0 .7012.56846 1.2698 1.26985 1.2698h7.619c.2338 0 .4233-.1895.4233-.4233v-8.4656c0-.2337-.1895-.4232-.4233-.4232zm-1.608 6.0274v-4.0817h-4.0816v.849h2.6318l-3.8463 3.8468.6004.6003 3.8461-3.8469.0006 2.6325z" fill="#fff" fill-rule="evenodd"/></g></svg>