<svg fill="none" height="32" viewBox="0 0 32 32" width="32" xmlns="http://www.w3.org/2000/svg"><circle cx="16" cy="16" fill="#fff" fill-opacity=".7" r="16"/><path clip-rule="evenodd" d="m21.4099 9.40137-2.9558 2.95573v-.59c0-.2337-.1896-.4233-.4232-.4233h-7.6191c-.70051 0-1.26983.5697-1.26983 1.2698v6.7725c0 .6206.44783 1.1361 1.03703 1.2462l-1.75957 1.7595.59852.5986 12.99045-12.99051zm-3.3793 11.25423c.2336 0 .4232-.1896.4232-.4232v-5.5721l-5.9953 5.9953zm4.3377-9.1675c.116-.1325.3027-.1786.4673-.1172.1651.0618.2743.2201.2743.3962v8.4656c0 .1807-.1147.3416-.2857.4004-.0449.0152-.0914.0228-.1376.0228-.1278 0-.2522-.0584-.3339-.1633l-2.963-3.8096c-.0576-.074-.0893-.1659-.0893-.2599v-1.2698c0-.1024.0372-.2015.105-.2789z" fill="#222" fill-rule="evenodd"/></svg>