<svg fill="none" height="32" viewBox="0 0 32 32" width="32" xmlns="http://www.w3.org/2000/svg"><circle cx="16" cy="16" fill="#c34418" r="16"/><path d="m16.1338 11.8096h-.272c-2.0295.0114-4.1718.4098-6.30759 1.6014-1.89992 1.0596-2.50186 2.8256-2.26808 4.8934.08185.7225.76689 1.2219 1.48547 1.0926l3.1959-.5736.0708-.0164c.3238-.0909.5542-.3829.561-.7239l.0398-1.8939.0725-.0436c.1576-.0918.3549-.1848.5943-.2724.6965-.2548 1.5873-.4088 2.6906-.4088 1.1034 0 1.9941.154 2.6904.4088.2393.0876.4366.1805.5941.2723l.0718.0437.0404 1.8942c.0081.3653.2719.6742.6309.7398l3.7058.6651c.4141.0747.8124-.1959.8903-.6095.4282-2.2819-.0608-4.285-2.1814-5.4679-2.1365-1.1919-4.2752-1.59-6.305-1.6013z" fill="#fff"/></svg>