<svg fill="none" height="50" viewBox="0 0 40 50" width="40" xmlns="http://www.w3.org/2000/svg"><g fill="#000" fill-opacity=".42"><path clip-rule="evenodd" d="m2 38v2h2v2h-4v-4zm8 2v2h-4v-2zm6 0v2h-4v-2zm6 0v2h-4v-2zm6 0v2h-4v-2zm6 0v2h-4v-2zm2 2v-2h2v-2h2v4zm-34-10v4h-2v-4zm38 0v4h-2v-4zm-38-6v4h-2v-4zm38 0v4h-2v-4zm-38-6v4h-2v-4zm38 0v4h-2v-4zm-38-6v4h-2v-4zm38 0v4h-2v-4zm-36-6v2h-2v2h-2v-4zm36 0v4h-2v-2h-2v-2zm-30 0v2h-4v-2zm6 0v2h-4v-2zm6 0v2h-4v-2zm6 0v2h-4v-2zm6 0v2h-4v-2z" fill-rule="evenodd"/><path d="m11.343 28.5489v-3.179h2.552v-1.045h-2.552v-2.255h3.278v-1.067h-4.63101v7.546zm5.742 0v-4.213c.363-.231.869-.374 1.375-.374.132 0 .319.011.462.033v-1.122c-.1153-.0271-.2337-.0382-.352-.033-.594 0-1.177.297-1.485.704h-.044v-.66h-1.221v5.665zm5.368.099c.957 0 1.617-.275 2.002-.528v-.88c-.5388.2836-1.1402.4274-1.749.418-1.078 0-1.683-.418-1.76-1.595h3.696v-.528c0-1.804-.726-2.739-2.398-2.739-1.441 0-2.596.935-2.596 2.838v.154c0 1.793.924 2.86 2.805 2.86zm.902-3.454h-2.409c.088-1.155.693-1.463 1.276-1.463.737 0 1.133.396 1.133 1.463zm4.939 3.454c.957 0 1.617-.275 2.002-.528v-.88c-.5388.2836-1.1402.4274-1.749.418-1.078 0-1.683-.418-1.76-1.595h3.696v-.528c0-1.804-.726-2.739-2.398-2.739-1.441 0-2.596.935-2.596 2.838v.154c0 1.793.924 2.86 2.805 2.86zm.902-3.454h-2.409c.088-1.155.693-1.463 1.276-1.463.737 0 1.133.396 1.133 1.463z"/></g></svg>