<svg fill="none" height="50" viewBox="0 0 34 50" width="34" xmlns="http://www.w3.org/2000/svg"><path clip-rule="evenodd" d="m1 9h32v32h-32z" fill-rule="evenodd" stroke="#000" stroke-opacity=".42" stroke-width="2"/><path d="m14.038 28.9999v-8.455h-1.758l-2.185 1.517v1.594l2.156-1.488h.035v6.832zm2.965-5.326c.124.0006.247-.0235.3617-.0708.1147-.0472.2189-.1168.3066-.2045.0877-.0878.1571-.1921.2043-.3069.0471-.1147.071-.2377.0704-.3618.001-.1241-.0226-.2472-.0696-.3621-.0471-.1149-.1165-.2193-.2042-.3071-.0878-.0877-.1922-.1572-.3071-.2042s-.238-.0706-.3621-.0696c-.1242-.001-.2473.0226-.3622.0696s-.2192.1165-.307.2042c-.0878.0878-.1572.1922-.2042.3071s-.0707.238-.0696.3621c0 .522.416.944.943.944zm0 4.19c.124.0006.247-.0235.3617-.0708.1147-.0472.2189-.1168.3066-.2045.0877-.0878.1571-.1921.2043-.3069.0471-.1147.071-.2377.0704-.3618.001-.1241-.0226-.2472-.0696-.3621-.0471-.1149-.1165-.2193-.2042-.3071-.0878-.0877-.1922-.1572-.3071-.2042s-.238-.0706-.3621-.0696c-.1242-.001-.2473.0226-.3622.0696s-.2192.1165-.307.2042c-.0878.0878-.1572.1922-.2042.3071s-.0707.238-.0696.3621c0 .521.416.944.943.944zm6.129 1.136v-8.455h-1.758l-2.186 1.517v1.594l2.157-1.488h.035v6.832z" fill="#000" fill-opacity=".42"/></svg>