<svg fill="none" height="50" viewBox="0 0 40 50" width="40" xmlns="http://www.w3.org/2000/svg"><path clip-rule="evenodd" d="m1 11h38v28h-38z" fill-rule="evenodd" stroke="#000" stroke-opacity=".42" stroke-width="2"/><path d="m16.9769 29.0004v-1.506h1.101v-1.418h-1.101v-5.531h-2.497c-1.734 2.555-2.654 4.037-3.392 5.443v1.506h4.207v1.506zm-1.647-2.871h-2.69v-.047c.686-1.324 1.424-2.478 2.655-4.283h.035zm4.781-2.455c.1241.0007.2472-.0233.362-.0705.1149-.0472.2192-.1167.307-.2045s.1573-.1921.2045-.3069c.0472-.1149.0712-.2379.0705-.3621.0011-.1242-.0226-.2474-.0697-.3623-.0471-.115-.1166-.2194-.2045-.3072s-.1924-.1572-.3074-.2042c-.115-.0469-.2382-.0705-.3624-.0693-.1241-.001-.2472.0226-.3621.0696s-.2193.1165-.3071.2042c-.0878.0878-.1572.1922-.2042.3071s-.0707.238-.0696.3621c0 .522.416.944.943.944zm0 4.19c.1241.0007.2472-.0233.362-.0705.1149-.0472.2192-.1167.307-.2045s.1573-.1921.2045-.3069c.0472-.1149.0712-.2379.0705-.3621.0011-.1242-.0226-.2474-.0697-.3623-.0471-.115-.1166-.2194-.2045-.3072s-.1924-.1572-.3074-.2042c-.115-.0469-.2382-.0705-.3624-.0693-.1241-.001-.2472.0226-.3621.0696s-.2193.1165-.3071.2042c-.0878.0878-.1572.1922-.2042.3071s-.0707.238-.0696.3621c0 .521.416.944.943.944zm5.368 1.323c1.95 0 3.328-1.007 3.328-2.525 0-1.172-.815-1.933-2.075-2.039v-.035c1.038-.188 1.747-.938 1.747-1.975 0-1.353-1.202-2.256-2.96-2.256-1.833 0-3.052 1.02-3.117 2.584h1.63c.046-.738.591-1.224 1.411-1.224.88 0 1.366.451 1.366 1.137 0 .697-.545 1.177-1.354 1.177h-1.025v1.278h1.043c.955 0 1.535.468 1.535 1.242 0 .715-.621 1.213-1.506 1.213-.932 0-1.518-.47-1.57-1.184h-1.694c.082 1.559 1.33 2.608 3.24 2.608z" fill="#000" fill-opacity=".42"/></svg>