<svg fill="none" height="50" viewBox="0 0 40 50" width="40" xmlns="http://www.w3.org/2000/svg"><g fill="#000" fill-opacity=".42"><path clip-rule="evenodd" d="m2 38v2h2v2h-4v-4zm8 2v2h-4v-2zm6 0v2h-4v-2zm6 0v2h-4v-2zm6 0v2h-4v-2zm6 0v2h-4v-2zm2 2v-2h2v-2h2v4zm-34-10v4h-2v-4zm38 0v4h-2v-4zm-38-6v4h-2v-4zm38 0v4h-2v-4zm-38-6v4h-2v-4zm38 0v4h-2v-4zm-38-6v4h-2v-4zm38 0v4h-2v-4zm-36-6v2h-2v2h-2v-4zm36 0v4h-2v-2h-2v-2zm-30 0v2h-4v-2zm6 0v2h-4v-2zm6 0v2h-4v-2zm6 0v2h-4v-2zm6 0v2h-4v-2z" fill-rule="evenodd"/><path d="m18.4821 29.8694v-4.961h1.397v-1.067h-1.397v-3.773h-1.287v9.801zm-7.194-2.068c1.144-.561 2.134-1.87 2.376-2.871.286.946 1.452 2.211 2.354 2.662l.715-.935c-1.474-.814-2.42-2.211-2.42-4.279v-.253h1.914v-1.056h-5.225v1.056h1.98v.264c0 2.057-.858 3.564-2.486 4.455zm13.453-2.937c2.123 0 3.487-.88 3.487-2.178 0-1.287-1.364-2.167-3.487-2.167-2.112 0-3.476.88-3.476 2.167 0 1.298 1.364 2.178 3.476 2.178zm0-1.034c-1.331 0-2.145-.495-2.145-1.144s.814-1.133 2.145-1.133c1.32 0 2.145.484 2.145 1.133s-.825 1.144-2.145 1.144zm-1.045 6.028v-3.267h2.079v3.267h1.287v-3.267h2.123v-1.023h-8.855v1.023h2.079v3.267z"/></g></svg>