<svg fill="none" height="50" viewBox="0 0 30 50" width="30" xmlns="http://www.w3.org/2000/svg"><path clip-rule="evenodd" d="m1 6h28v38h-28z" fill-rule="evenodd" stroke="#000" stroke-opacity=".42" stroke-width="2"/><path d="m9.36993 29.1884c1.94997 0 3.32697-1.008 3.32697-2.526 0-1.172-.814-1.933-2.074-2.039v-.035c1.037-.188 1.746-.938 1.746-1.975 0-1.353-1.201-2.256-2.95897-2.256-1.834 0-3.053 1.02-3.117 2.584h1.629c.047-.738.592-1.224 1.412-1.224.87897 0 1.36497.451 1.36497 1.137 0 .697-.545 1.177-1.35297 1.177h-1.026v1.278h1.043c.95497 0 1.53497.468 1.53497 1.242 0 .715-.62 1.213-1.50497 1.213-.932 0-1.518-.47-1.57-1.184h-1.695c.082 1.559 1.33 2.608 3.24 2.608zm5.52497-5.514c.1241.0006.247-.0235.3618-.0708.1147-.0472.2189-.1168.3066-.2045.0877-.0878.1571-.1921.2042-.3069.0472-.1147.0711-.2377.0704-.3618.0011-.1241-.0226-.2472-.0696-.3621s-.1164-.2193-.2042-.3071c-.0878-.0877-.1921-.1572-.307-.2042s-.238-.0706-.3622-.0696c-.1242-.0012-.2474.0224-.3624.0693-.115.047-.2195.1164-.3074.2042s-.1574.1922-.2045.3072c-.047.1149-.0707.2381-.0697.3623 0 .522.416.944.944.944zm0 4.19c.1241.0006.247-.0235.3618-.0708.1147-.0472.2189-.1168.3066-.2045.0877-.0878.1571-.1921.2042-.3069.0472-.1147.0711-.2377.0704-.3618.0011-.1241-.0226-.2472-.0696-.3621s-.1164-.2193-.2042-.3071c-.0878-.0877-.1921-.1572-.307-.2042s-.238-.0706-.3622-.0696c-.1242-.0012-.2474.0224-.3624.0693-.115.047-.2195.1164-.3074.2042s-.1574.1922-.2045.3072c-.047.1149-.0707.2381-.0697.3623 0 .521.416.944.944.944zm7.974 1.136v-1.506h1.102v-1.418h-1.102v-5.531h-2.496c-1.734 2.555-2.654 4.037-3.393 5.443v1.506h4.207v1.506zm-1.646-2.871h-2.69v-.047c.686-1.324 1.424-2.478 2.654-4.283h.036z" fill="#000" fill-opacity=".42"/></svg>