<svg width="24" height="24" viewBox="0 0 24 24" fill="none" xmlns="http://www.w3.org/2000/svg">
<path d="M19 19.4502H5C4.75147 19.4502 4.55 19.2487 4.55 19.0002V6.20081C4.55 5.95218 4.75164 5.75066 5.00028 5.75081L19.0003 5.75945C19.2487 5.75961 19.45 5.96103 19.45 6.20945V19.0002C19.45 19.2487 19.2485 19.4502 19 19.4502Z" stroke="black" stroke-width="1.1" stroke-linejoin="round"/>
<path fill-rule="evenodd" clip-rule="evenodd" d="M8.39258 12.9959H9.40018V11.9883H8.39258V12.9959Z" fill="black"/>
<path fill-rule="evenodd" clip-rule="evenodd" d="M11.5029 12.9959H12.5105V11.9883H11.5029V12.9959Z" fill="black"/>
<path fill-rule="evenodd" clip-rule="evenodd" d="M14.6133 12.9959H15.6209V11.9883H14.6133V12.9959Z" fill="black"/>
<path fill-rule="evenodd" clip-rule="evenodd" d="M8.39258 16.3548H9.40018V15.3472H8.39258V16.3548Z" fill="black"/>
<path fill-rule="evenodd" clip-rule="evenodd" d="M11.5029 16.3548H12.5105V15.3472H11.5029V16.3548Z" fill="black"/>
<path fill-rule="evenodd" clip-rule="evenodd" d="M14.6133 16.3548H15.6209V15.3472H14.6133V16.3548Z" fill="black"/>
<path d="M4.40039 8.8001H19.6004" stroke="black" stroke-width="1.1" stroke-linejoin="round"/>
<path d="M16.7996 3.6001V5.6001" stroke="black" stroke-width="1.1" stroke-linejoin="round"/>
<path d="M7.2 3.6001V5.6001" stroke="black" stroke-width="1.1" stroke-linejoin="round"/>
</svg>
