<svg width="24" height="24" viewBox="0 0 24 24" fill="none" xmlns="http://www.w3.org/2000/svg">
<g clip-path="url(#clip0_449_11302)">
<mask id="mask0_449_11302" style="mask-type:luminance" maskUnits="userSpaceOnUse" x="0" y="0" width="24" height="24">
<path d="M0 0H24V24H0V0Z" fill="white"/>
</mask>
<g mask="url(#mask0_449_11302)">
<path d="M18.9998 19.4502H4.9998C4.88046 19.4502 4.766 19.4028 4.68161 19.3184C4.59721 19.2341 4.5498 19.1196 4.5498 19.0002V5.00029C4.5498 4.88094 4.59721 4.76648 4.68161 4.68209C4.766 4.5977 4.88046 4.55029 4.9998 4.55029H18.9998C19.1192 4.55029 19.2336 4.5977 19.318 4.68209C19.4024 4.76648 19.4498 4.88094 19.4498 5.00029V19.0002C19.4498 19.1196 19.4024 19.2341 19.318 19.3184C19.2336 19.4028 19.1192 19.4502 18.9998 19.4502Z" stroke="black" stroke-width="1.1" stroke-linejoin="round"/>
<path d="M6.89502 14.7554L10.475 11.1714L14.007 14.7074L17.066 11.6454" stroke="black" stroke-width="1.1" stroke-linejoin="round"/>
<path fill-rule="evenodd" clip-rule="evenodd" d="M15.2868 9.12411C15.287 9.36293 15.1922 9.59203 15.0234 9.761C14.8547 9.92997 14.6257 10.025 14.3868 10.0251C14.148 10.0252 13.9189 9.93049 13.7499 9.76171C13.581 9.59293 13.486 9.36394 13.4858 9.12511C13.4858 8.88628 13.5807 8.65723 13.7496 8.48836C13.9185 8.31948 14.1475 8.22461 14.3863 8.22461C14.6252 8.22461 14.8542 8.31948 15.0231 8.48836C15.192 8.65723 15.2868 8.88628 15.2868 9.12511" fill="black"/>
</g>
</g>
<defs>
<clipPath id="clip0_449_11302">
<rect width="24" height="24" fill="white"/>
</clipPath>
</defs>
</svg>
