<svg width="20" height="20" viewBox="0 0 20 20" fill="none" xmlns="http://www.w3.org/2000/svg">
<rect width="20" height="20" rx="10" fill="#EDEDED"/>
<path d="M10 14.1465C7.52734 14.1465 5.98633 12.4648 5.98633 9.77539V9.76367C5.98633 7.08008 7.53906 5.39844 10 5.39844C12.4668 5.39844 14.0078 7.08008 14.0078 9.76367V9.77539C14.0078 11.334 13.4922 12.5586 12.5723 13.3086L13.6797 14.8555H12.1797L11.5 13.9062C11.0488 14.0645 10.5449 14.1465 10 14.1465ZM10 12.834C10.2402 12.834 10.4629 12.8047 10.6738 12.752L9.61914 11.2754H11.1191L11.7168 12.1074C12.1973 11.5742 12.4668 10.7715 12.4668 9.77539V9.76367C12.4668 7.88867 11.5117 6.71094 10 6.71094C8.49414 6.71094 7.5332 7.88281 7.5332 9.76367V9.77539C7.5332 11.6562 8.48828 12.834 10 12.834Z" fill="black" fill-opacity="0.54"/>
</svg>
