<svg width="16" height="16" viewBox="0 0 16 16" fill="none" xmlns="http://www.w3.org/2000/svg">
<path fill-rule="evenodd" clip-rule="evenodd" d="M11.8369 9.35103C10.6333 10.7861 10.2973 12.1315 10.1498 12.7133C10.1404 12.7501 10.1066 12.7901 10.0542 12.7901H6.02086C5.96842 12.7901 5.93464 12.7501 5.9222 12.7075C5.77731 12.1315 5.43864 10.783 4.23775 9.35103C3.51108 8.48303 3.11108 7.3777 3.11108 6.23192C3.11108 3.53147 5.32175 1.33325 8.03731 1.33325C10.7533 1.33325 12.964 3.53147 12.964 6.23192C12.964 7.37414 12.5635 8.48303 11.8369 9.35103Z" stroke="#595959" stroke-width="1.1"/>
<path d="M6.14709 13.0151V13.9142C6.14709 14.0836 6.28576 14.2222 6.45465 14.2222H9.53421C9.70309 14.2222 9.84176 14.0836 9.84176 13.9142V13.0151" stroke="#595959" stroke-width="1.1"/>
<path d="M6.71997 6.08449C6.71997 5.3752 7.29512 4.80005 8.00402 4.80005C8.7137 4.80005 9.28846 5.3752 9.28846 6.08449C9.28846 7.52256 8.00402 7.22699 8.00402 8.61554V8.7528" stroke="#595959" stroke-width="1.1"/>
<path fill-rule="evenodd" clip-rule="evenodd" d="M8.49853 9.79154C8.49853 10.0395 8.29772 10.24 8.05011 10.24C7.8025 10.24 7.60168 10.0395 7.60168 9.79154C7.60168 9.54393 7.8025 9.34351 8.05011 9.34351C8.29772 9.34351 8.49853 9.54393 8.49853 9.79154" fill="#595959"/>
</svg>
