<svg width="24" height="24" viewBox="0 0 24 24" fill="none" xmlns="http://www.w3.org/2000/svg">
<path d="M12 3.4502C14.3472 3.4502 16.4722 4.40159 18.0104 5.93979C19.5486 7.47799 20.5 9.60299 20.5 11.9502C20.5 14.2974 19.5486 16.4224 18.0104 17.9606C16.4722 19.4988 14.3472 20.4502 12 20.4502C9.65279 20.4502 7.52779 19.4988 5.98959 17.9606C4.4514 16.4224 3.5 14.2974 3.5 11.9502C3.5 9.60299 4.4514 7.47799 5.98959 5.93979C7.52779 4.40159 9.65279 3.4502 12 3.4502Z" stroke="black" stroke-width="1.1"/>
<path fill-rule="evenodd" clip-rule="evenodd" d="M15.0618 13.2144C15.3804 13.3055 15.5645 13.6364 15.473 13.9535C15.0656 15.3645 13.6034 16.3499 11.917 16.3499C10.2315 16.3499 8.76943 15.3651 8.36156 13.955C8.26986 13.6379 8.45375 13.3069 8.77231 13.2156C9.09095 13.124 9.42336 13.3075 9.51498 13.6244C9.77161 14.5115 10.7818 15.1552 11.917 15.1552C13.0528 15.1552 14.0631 14.5111 14.3193 13.6236C14.4109 13.3065 14.743 13.1231 15.0618 13.2144ZM12.3486 10.9148C12.4342 11.2107 12.2627 11.5195 11.9653 11.6048C11.8535 11.6368 11.7379 11.8009 11.7379 12.0201C11.7379 12.2394 11.8536 12.4033 11.9655 12.4354C12.2628 12.5205 12.4346 12.8293 12.3491 13.1253C12.2785 13.3697 12.0545 13.5289 11.811 13.5289C11.7598 13.5289 11.7077 13.5218 11.656 13.5071C11.0446 13.3321 10.6176 12.7207 10.6176 12.0201C10.6176 11.3198 11.0444 10.7083 11.6554 10.5333C11.9524 10.4481 12.2631 10.6189 12.3486 10.9148ZM8.54658 8.85156C8.98669 8.85156 9.34678 9.20996 9.34678 9.64801V10.3763C9.34678 10.8143 8.98669 11.1727 8.54658 11.1727H8.51993C8.07982 11.1727 7.71973 10.8143 7.71973 10.3763V9.64801C7.71973 9.20996 8.07982 8.85156 8.51993 8.85156H8.54658ZM15.2683 8.85156C15.7084 8.85156 16.0685 9.20996 16.0685 9.64801V10.3763C16.0685 10.8143 15.7084 11.1727 15.2683 11.1727H15.2417C14.8015 11.1727 14.4415 10.8143 14.4415 10.3763V9.64801C14.4415 9.20996 14.8015 8.85156 15.2417 8.85156H15.2683Z" fill="black"/>
</svg>
