<svg fill="none" height="55" viewBox="0 0 55 55" width="55" xmlns="http://www.w3.org/2000/svg"><path clip-rule="evenodd" d="m26.8 16.17c-5.9432.3615-10.6514 5.2959-10.6514 11.33 0 6.2692 5.0822 11.3513 11.3513 11.3513 6.034 0 10.9684-4.7082 11.33-10.6512h-11.3299c-.3866 0-.7-.3134-.7-.7zm12.0299 10.6301c-.3475-5.7116-4.9184-10.2826-10.6299-10.6301v10.6301zm-11.33-12.0513c-7.0423 0-12.7513 5.7089-12.7513 12.7512 0 7.0424 5.709 12.7513 12.7513 12.7513s12.7512-5.7089 12.7512-12.7513c0-7.0423-5.7089-12.7512-12.7512-12.7512z" fill="#d95600" fill-rule="evenodd"/></svg>