<svg fill="none" height="55" viewBox="0 0 55 55" width="55" xmlns="http://www.w3.org/2000/svg"><path clip-rule="evenodd" d="m28.005 24.9176-7.6096 12.3006c-.833 1.2852-1.5997 1.4916-2.6072 1.4916-1.6073 0-2.8715-1.2584-2.8715-2.8103 0-1.0956.6501-2.0452 1.5964-2.5083 0 0 .9504-.4756 2.5175-.4756h7.2144 2.4244 7.3025c1.5662 0 2.5167.4756 2.5167.4756.9463.4631 1.5947 1.4127 1.5947 2.5083 0 1.5519-1.3028 2.8103-2.9092 2.8103-1.0075 0-1.7634-.3389-2.4873-1.4152l-7.4804-12.377-2.0855-3.3681s-1.5897-2.6627.6896-4.3572c0 0 1.6895-1.3456 3.5132 0 0 0 2.1593 1.4949.656 4.3572z" fill-rule="evenodd" stroke="#de3635" stroke-width="1.4"/></svg>