<svg width="55" height="55" viewBox="0 0 55 55" fill="none" xmlns="http://www.w3.org/2000/svg">
<path d="M30.7 15.7002H16.7V39.3002H38.3V23.3002M30.7 15.7002H31.5064L38.3 22.4762V23.3002M30.7 15.7002V23.3002H38.3" stroke="#7F7F7F" stroke-width="1.4" stroke-linejoin="round"/>
<path fill-rule="evenodd" clip-rule="evenodd" d="M23.5 27.6001C24.052 27.6001 24.5 28.0481 24.5 28.6001C24.5 29.1529 24.052 29.6001 23.5 29.6001C22.948 29.6001 22.5 29.1529 22.5 28.6001C22.5 28.0481 22.948 27.6001 23.5 27.6001M27.4872 27.6001C28.0392 27.6001 28.4872 28.0481 28.4872 28.6001C28.4872 29.1529 28.0392 29.6001 27.4872 29.6001C26.9352 29.6001 26.4872 29.1529 26.4872 28.6001C26.4872 28.0481 26.9352 27.6001 27.4872 27.6001M31.5 27.6001C32.052 27.6001 32.5 28.0481 32.5 28.6001C32.5 29.1529 32.052 29.6001 31.5 29.6001C30.948 29.6001 30.5 29.1529 30.5 28.6001C30.5 28.0481 30.948 27.6001 31.5 27.6001" fill="#7F7F7F"/>
</svg>
