<svg fill="none" height="55" viewBox="0 0 55 55" width="55" xmlns="http://www.w3.org/2000/svg"><path clip-rule="evenodd" d="m16.6782 15.0596c-.3866 0-.7.3134-.7.7v8.7079 14.7726c0 .3866.3134.7.7.7h21.6433c.3866 0 .7-.3134.7-.7v-23.4805c0-.3866-.3134-.7-.7-.7zm.7 7.8268v-6.4268h9.4218v6.4268zm10.8218 0v-6.4268h9.4215v6.4268zm-10.8218 1.4h9.4218v6.4268h-9.4218v-6.2457zm0 7.8268v6.4269h9.4218v-6.4269zm10.8218 0v6.4269h9.4215v-6.4269zm9.4215-1.4v-6.4268h-9.4215v6.4268z" fill="#227f36" fill-rule="evenodd"/></svg>