<svg fill="none" height="30" viewBox="0 0 20 30" width="20" xmlns="http://www.w3.org/2000/svg"><path d="m0 0h14c3.3137 0 6 2.68629 6 6v18c0 3.3137-2.6863 6-6 6h-14z" fill="#fbfbfb"/><path clip-rule="evenodd" d="m20 6c0-3.31371-2.6863-6-6-6h-14v1h14c2.7614 0 5 2.23858 5 5v18c0 2.7614-2.2386 5-5 5h-14v1h14c3.3137 0 6-2.6863 6-6z" fill="#000" fill-opacity=".1" fill-rule="evenodd"/><path d="m12 20-4.92523-4.8232c-.09969-.0977-.09969-.2559 0-.3536l4.92523-4.8232" stroke="#808080" stroke-width="1.3"/></svg>