<svg width="144" height="20" viewBox="0 0 144 20" fill="none" xmlns="http://www.w3.org/2000/svg">
<path d="M113.902 4.57062H113.884C112.485 4.57062 111.341 5.1426 110.604 6.19556V4.82194H108.784V18.5928H110.604V13.7223C111.332 14.7276 112.476 15.2736 113.884 15.2736H113.902C116.042 15.2736 118.2 13.8089 118.2 10.5374V9.30244C118.2 6.0309 116.042 4.56628 113.902 4.56628V4.57062ZM116.402 9.48877V10.3597C116.402 12.3747 115.284 13.6746 113.559 13.6746H113.542C111.527 13.6746 110.609 11.898 110.609 10.2514V9.5971C110.609 7.94616 111.527 6.17389 113.542 6.17389H113.559C115.288 6.17389 116.402 7.47384 116.402 9.48877Z" fill="black"/>
<path d="M121.892 1H120.072V15.0221H121.892V1Z" fill="black"/>
<path d="M131.481 10.4508C131.481 12.8297 130.069 13.6746 128.747 13.6746H128.73C127.2 13.6746 126.286 12.613 126.286 10.8321V4.82629H124.466V11.0141C124.466 13.6053 125.991 15.2779 128.349 15.2779H128.366C129.662 15.2779 130.771 14.7579 131.481 13.8393V15.0266H133.301V4.82629H131.481V10.4508Z" fill="black"/>
<path d="M140.542 9.29378L138.947 8.87779C137.795 8.58314 137.279 8.15415 137.279 7.47818C137.279 6.69387 138.085 6.12189 139.199 6.12189H139.216C140.65 6.12189 141.513 7.11419 141.625 8.09349L141.643 8.24081H143.376V8.07182C143.315 5.9789 141.69 4.57495 139.324 4.57495H139.307C137.015 4.57495 135.477 5.80557 135.477 7.64284C135.477 9.4801 137.184 10.1864 138.466 10.5244L140.061 10.9404C141.465 11.3 141.66 11.8417 141.66 12.3747C141.66 13.172 140.802 13.7309 139.58 13.7309H139.563C138.358 13.7309 137.063 13.055 136.92 11.7594L136.902 11.612H135.169V11.781C135.23 13.8739 136.95 15.2779 139.454 15.2779H139.472C141.872 15.2779 143.484 14.0689 143.484 12.2663C143.484 10.3251 141.916 9.65776 140.551 9.29378H140.542Z" fill="black"/>
<path d="M8.47569 1.04773C3.79586 1.04773 0 4.56627 0 8.90377C0 12.106 1.33895 13.6356 3.17188 15.0309V18.7877C3.17188 18.9654 3.37554 19.0651 3.5142 18.9611L6.71208 16.5822C7.2754 16.6905 7.86038 16.7511 8.46269 16.7511C13.1382 16.7511 16.9297 13.2413 16.9384 8.9081H16.947C16.9514 4.56627 13.1555 1.04773 8.47569 1.04773Z" fill="black"/>
<path d="M29.2317 11.6424C29.1797 12.8903 28.3954 13.731 27.2775 13.731H27.2602C26.3415 13.731 25.2712 13.1286 25.2712 11.43V6.70255H29.7301V5.1556H25.2712V2.21338H23.4513V5.15127H21.8394V6.69821H23.4513V11.4084C23.4513 13.757 24.9116 15.2736 27.1735 15.2736H27.1908C29.3877 15.2736 30.9477 13.783 30.9823 11.6467V11.4777H29.2404V11.638L29.2317 11.6424Z" fill="black"/>
<path d="M39.4016 6.09589C38.678 5.10793 37.5427 4.57495 36.143 4.57495H36.1084C33.9591 4.57495 31.7882 6.03956 31.7882 9.31111V10.5461C31.7882 13.8176 33.9591 15.2822 36.1084 15.2822H36.143C37.5123 15.2822 38.6693 14.7016 39.4016 13.6659V15.0309H41.2215V4.82628H39.4016V6.09589ZM39.4016 9.5971V10.2514C39.4016 12.6043 37.8807 13.6746 36.468 13.6746H36.4507C34.7218 13.6746 33.6081 12.3747 33.6081 10.3597V9.48877C33.6081 7.47384 34.7261 6.17389 36.4507 6.17389H36.468C38.483 6.17389 39.4016 7.95049 39.4016 9.5971Z" fill="black"/>
<path d="M45.6111 1H43.7911V15.0221H45.6111V1Z" fill="black"/>
<path d="M51.7901 9.67068L56.7689 4.82619H54.4204L49.9962 9.23303V1H48.1763V15.0221H49.9962V10.3033L54.5114 15.0221H56.9683L51.9808 9.86134L51.7901 9.67068Z" fill="black"/>
<path d="M67.8879 6.09581C67.1643 5.10785 66.029 4.57487 64.6294 4.57487H64.5947C62.4455 4.57487 60.2745 6.03948 60.2745 9.31103V10.546C60.2745 13.8175 62.4455 15.2821 64.5947 15.2821H64.6294C65.9987 15.2821 67.1556 14.7015 67.8879 13.6659V15.0308H69.7078V1H67.8879V6.09581ZM67.8879 9.59701V10.2513C67.8879 12.6042 66.367 13.6745 64.9544 13.6745H64.937C63.2081 13.6745 62.0945 12.3746 62.0945 10.3597V9.48869C62.0945 7.47376 63.2124 6.17381 64.937 6.17381H64.9544C66.9693 6.17381 67.8879 7.95041 67.8879 9.59701Z" fill="black"/>
<path d="M76.5759 4.57068H76.5585C75.5402 4.57068 74.6563 5.017 74.0973 5.78397V4.822H72.2773V15.018H74.0973V8.76086C74.0973 7.15325 74.8772 6.11762 76.0862 6.11762H76.1035C77.1955 6.11762 77.9538 6.85426 77.9841 7.95055V7.97655L78.0491 8.16721H79.7521V7.85089C79.6957 5.9183 78.3914 4.57068 76.5759 4.57068Z" fill="black"/>
<path d="M82.0486 1.01746C81.3466 1.01746 80.7747 1.5981 80.7747 2.30874C80.7747 3.01938 81.3553 3.56536 82.0486 3.56536C82.7419 3.56536 83.3226 2.98905 83.3226 2.30874C83.3226 1.5851 82.7636 1.01746 82.0486 1.01746Z" fill="black"/>
<path d="M82.9585 4.82629H81.1385V15.0223H82.9585V4.82629Z" fill="black"/>
<path d="M89.194 13.1417L86.2648 4.82629H84.2759L88.0804 15.0223H90.3077L94.1122 4.82629H92.1233L89.194 13.1417Z" fill="black"/>
<path d="M104.338 10.4724V9.4541C104.338 7.92016 103.857 6.65054 102.947 5.77957C102.137 4.9996 101.006 4.57495 99.7669 4.57495H99.7496C98.467 4.57495 97.2883 5.01693 96.4304 5.8229C95.4814 6.71121 94.9788 7.96783 94.9788 9.45844V10.4031C94.9788 13.3236 96.92 15.2822 99.8059 15.2822H99.8232C101.089 15.2822 102.189 14.8922 103.008 14.1469C103.753 13.471 104.208 12.5567 104.286 11.573L104.299 11.3954H102.553L102.54 11.547C102.436 12.8556 101.344 13.7309 99.8232 13.7309H99.8059C97.7303 13.7309 96.7987 12.1407 96.7987 10.5634V10.4767H104.343L104.338 10.4724ZM99.6933 6.12189H99.7279C101.37 6.12189 102.449 7.27452 102.497 9.06845H96.7987C96.8897 7.04486 98.3456 6.12189 99.6933 6.12189Z" fill="black"/>
</svg>
