<svg width="110" height="20" viewBox="0 0 110 20" fill="none" xmlns="http://www.w3.org/2000/svg">
<path d="M8.49819 1C3.80594 1 0 4.52788 0 8.8769C0 12.0876 1.34251 13.6213 3.1803 15.0203V18.7871C3.1803 18.9652 3.3845 19.0652 3.52353 18.9609L6.72991 16.5757C7.29471 16.6843 7.88125 16.7451 8.48516 16.7451C13.1731 16.7451 16.9747 13.2259 16.9833 8.88124H16.992C16.9964 4.52788 13.1904 1 8.49819 1Z" fill="black"/>
<path d="M23.4178 12.8957H32.0333V16.1368H33.6887V11.4446H23.4178V12.8957Z" fill="black"/>
<path d="M29.5829 8.11663H33.845V6.66551H25.2904V5.74009H33.6104V4.33676H25.2904V3.46348H33.6886V2.02539H23.635V8.11663H27.8972V9.18108H21.8928V10.6148H35.4308V9.18108H29.5829V8.11663Z" fill="black"/>
<path d="M41.5656 5.98336V2.60754H39.8494V5.9486C39.8494 9.75454 36.9602 11.8096 35.722 12.5178L35.5352 12.6264L36.6604 13.7907L36.7734 13.7169C38.6199 12.5612 40.0493 11.0362 40.7531 9.4982C41.5352 10.9928 42.9819 12.4439 44.6068 13.3432L44.7328 13.4128L45.68 12.1832L45.5062 12.092C43.6032 11.0753 41.5699 8.93339 41.5699 5.98336H41.5656Z" fill="black"/>
<path d="M46.6098 6.19189H43.5729V7.6908H46.6098V16.0587H48.2651V1.71252H46.6098V6.19189Z" fill="black"/>
<path d="M60.1608 11.588H53.9393V9.87622H52.2839V15.8849H61.8162V9.87622H60.1608V11.588ZM53.9393 14.4468V12.987H60.1608V14.4468H53.9393Z" fill="black"/>
<path d="M61.8466 1.71252H60.1913V9.51557H61.8466V6.10499H63.767V4.63649H61.8466V1.71252Z" fill="black"/>
<path d="M59.6002 8.85527L59.7436 8.83354V7.41718L59.5568 7.4389C57.8928 7.63876 55.6683 7.65613 53.7132 7.65613H52.4489V6.27453H57.9362V2.19922H50.7936V3.63296H56.2809V4.8712H50.7936V9.10291H53.7132C55.8291 9.10291 58.0275 9.08119 59.6046 8.85092L59.6002 8.85527Z" fill="black"/>
<path d="M79.7075 5.62713H77.609L77.6916 3.5243H79.3947V2.12097H68.7763V3.5243H70.4794L70.5489 5.62713H68.4635V7.04784H79.7119V5.62713H79.7075ZM76.0493 3.5243L75.9668 5.62713H72.1869L72.1174 3.5243H76.0493Z" fill="black"/>
<path d="M80.8588 7.82983H67.3164V9.25054H80.8588V7.82983Z" fill="black"/>
<path d="M70.714 13.6518H79.1123V10.1108H69.0587V11.5272H77.457V12.2615H69.0587V15.898H79.4251V14.4642H70.714V13.6518Z" fill="black"/>
<path d="M85.1253 11.9182H83.9697V8.65096H88.8922V2.76392H82.3143V4.21504H87.2368V7.21287H82.3143V13.3823H85.121C87.0457 13.3823 89.0703 13.3389 90.8125 13.0347L90.9515 13.0087V11.5749L90.7604 11.6053C88.9182 11.8791 86.9631 11.9182 85.1253 11.9182Z" fill="black"/>
<path d="M91.8768 6.97827H89.2483V8.47719H91.8768V16.0587H93.5278V1.71252H91.8768V6.97827Z" fill="black"/>
<path d="M96.9688 10.4366C99.2715 9.6763 101.244 8.24256 102.2 6.65675C103.156 8.24256 105.128 9.6763 107.431 10.4366L107.548 10.4757L108.513 9.15059L108.287 9.08108C105.745 8.30773 103.043 6.24835 103.043 3.9587V2.35986H101.357V3.9587C101.357 6.24835 98.6545 8.30773 96.1129 9.08108L95.887 9.15059L96.8515 10.4757L96.9688 10.4366Z" fill="black"/>
<path d="M108.969 13.0348H95.4265V14.4989H108.969V13.0348Z" fill="black"/>
</svg>
