<svg width="90" height="90" viewBox="0 0 90 90" fill="none" xmlns="http://www.w3.org/2000/svg">
<path d="M70.1144 73.7742H20.0698C19.4234 73.7742 18.8035 73.5119 18.3465 73.0451C17.8894 72.5783 17.6327 71.9452 17.6328 71.2851V15.3931C17.6327 14.828 17.8525 14.286 18.2437 13.8864C18.6349 13.4868 19.1655 13.2622 19.7189 13.2621H35.6901C36.4548 13.2622 37.1582 13.6895 37.5234 14.3756L39.3801 17.8655C39.7451 18.5516 40.4485 18.9789 41.2131 18.979H70.4654C71.6175 18.9792 72.5515 19.9331 72.5515 21.1097V71.2848C72.5515 72.6592 71.4604 73.7735 70.1144 73.7735" fill="#FBB53D"/>
<path d="M64.3957 45.2441H25.7633C25.4272 45.2441 25.1048 45.1077 24.8671 44.8649C24.6295 44.6222 24.496 44.2929 24.4961 43.9496V19.2354C24.496 18.8921 24.6295 18.5629 24.8671 18.3201C25.1048 18.0773 25.4272 17.9409 25.7633 17.9409H64.3957C64.7319 17.9408 65.0543 18.0771 65.292 18.3198C65.5298 18.5625 65.6633 18.8918 65.6633 19.235V43.9496C65.6633 44.6644 65.096 45.2438 64.3961 45.2438" fill="#FFC76C"/>
<path d="M66.1382 51.2259H24.0213C23.2915 51.2257 22.6999 50.6216 22.6997 49.8763V25.2723C22.6997 24.5271 23.2916 23.9227 24.0213 23.9227H66.1386C66.8687 23.9227 67.4602 24.5271 67.4602 25.2723V49.876C67.4602 50.234 67.321 50.5773 67.0732 50.8305C66.8253 51.0837 66.4891 51.2259 66.1386 51.2259" fill="#FFE39C"/>
<path d="M67.4504 57.1316H22.7084C21.9566 57.1316 21.3472 56.5092 21.3472 55.7414V31.2181C21.3474 30.4505 21.9568 29.8284 22.7084 29.8284H67.4504C68.2022 29.8284 68.8117 30.4507 68.8117 31.2185V55.7414C68.8117 56.5092 68.2022 57.1316 67.4504 57.1316" fill="#FFF8E6"/>
<path d="M70.5989 74.0043H19.6258C18.4682 74.0043 17.4958 73.1154 17.3681 71.9405L11.7278 38.0959C11.529 36.9013 12.4303 35.8105 13.6172 35.8105H76.3834C77.5653 35.8105 78.4653 36.8921 78.2748 38.0831L72.8573 71.9365C72.7312 73.1132 71.758 74.0042 70.5989 74.0043" fill="#FFE76C"/>
<path d="M70.5989 74.0043H19.6258C18.4682 74.0043 17.4958 73.1154 17.3681 71.9405L11.7278 38.0959C11.529 36.9013 12.4303 35.8105 13.6172 35.8105H76.3834C77.5653 35.8105 78.4653 36.8921 78.2748 38.0831L72.8573 71.9365C72.7312 73.1132 71.758 74.0042 70.5989 74.0043" fill="url(#paint0_linear_4678_3816)"/>
<defs>
<linearGradient id="paint0_linear_4678_3816" x1="11.7002" y1="35.8105" x2="11.7002" y2="74.0043" gradientUnits="userSpaceOnUse">
<stop stop-color="white" stop-opacity="0.01"/>
<stop offset="1" stop-color="#FFA100" stop-opacity="0.22"/>
</linearGradient>
</defs>
</svg>
