<svg fill="none" height="24" viewBox="0 0 24 24" width="24" xmlns="http://www.w3.org/2000/svg"><path d="m12.0008 4.0498c2.1953 0 4.1828.88984 5.6215 2.32851 1.4386 1.43866 2.3285 3.42616 2.3285 5.62149 0 2.1953-.8899 4.1828-2.3285 5.6215-1.4387 1.4387-3.4262 2.3285-5.6215 2.3285-2.19535 0-4.18285-.8898-5.62152-2.3285-1.43866-1.4387-2.3285-3.4262-2.3285-5.6215 0-2.19533.88984-4.18283 2.3285-5.62149 1.43867-1.43867 3.42617-2.32851 5.62152-2.32851z" stroke="#085cb0" stroke-width="1.1"/><path clip-rule="evenodd" d="m14.8651 13.1323c.2979.0852.4701.3947.3845.6912-.381 1.3197-1.7486 2.2414-3.3258 2.2414-1.5765 0-2.94397-.9211-3.32545-2.2399-.08577-.2966.08622-.6062.38417-.6915.29803-.0857.60892.0858.69462.3822.24002.8297 1.18486 1.4318 2.24666 1.4318 1.0622 0 2.0072-.6024 2.2468-1.4325.0856-.2966.3962-.4681.6945-.3827zm-2.5377-2.1508c.0801.2768-.0804.5656-.3585.6454-.1045.0299-.2127.1834-.2127.3884s.1082.3584.2129.3884c.2781.0796.4387.3684.3588.6452-.066.2286-.2756.3775-.5033.3775-.0479 0-.0966-.0066-.1449-.0204-.5719-.1636-.9713-.7354-.9713-1.3907 0-.655.3992-1.2269.9707-1.3906.2778-.0797.5683.08.6483.3568zm-3.556-1.92974c.41163 0 .74842.33521.74842.74491v.68113c0 .4097-.33679.7449-.74842.7449h-.02493c-.41163 0-.74842-.3352-.74842-.7449v-.68113c0-.4097.33679-.74491.74842-.74491zm6.2868 0c.4116 0 .7484.33521.7484.74491v.68113c0 .4097-.3368.7449-.7484.7449h-.0249c-.4117 0-.7485-.3352-.7485-.7449v-.68113c0-.4097.3368-.74491.7485-.74491z" fill="#085cb0" fill-rule="evenodd"/></svg>