<svg width="44" height="44" viewBox="0 0 44 44" fill="none" xmlns="http://www.w3.org/2000/svg">
<g opacity="0.4">
<path d="M22 7C30.284 7 37 13.716 37 22C37 30.284 30.284 37 22 37C13.716 37 7 30.284 7 22C7 13.716 13.716 7 22 7ZM22 8.875C14.751 8.875 8.875 14.751 8.875 22C8.875 29.249 14.751 35.125 22 35.125C29.249 35.125 35.125 29.249 35.125 22C35.125 14.751 29.249 8.875 22 8.875Z" fill="#A3A3A3"/>
<path d="M26.613 24.795C26.707 24.5783 26.8792 24.405 27.0953 24.3096C27.3114 24.2142 27.5555 24.2038 27.7789 24.2804C28.0024 24.357 28.1887 24.515 28.3009 24.7228C28.413 24.9307 28.4427 25.1732 28.384 25.402C27.669 27.884 25.095 29.614 22.128 29.614C19.162 29.614 16.589 27.885 15.873 25.405C15.8067 25.1667 15.8372 24.9117 15.9579 24.6958C16.0787 24.4798 16.2798 24.3203 16.5176 24.252C16.7554 24.1837 17.0106 24.2121 17.2276 24.331C17.4445 24.4499 17.6057 24.6498 17.676 24.887C18.153 26.539 20.025 27.744 22.128 27.744C24.232 27.744 26.105 26.538 26.581 24.885L26.613 24.795ZM21.789 19.685C22.0052 19.6505 22.2265 19.6994 22.4081 19.8217C22.5897 19.9441 22.718 20.1309 22.7672 20.3443C22.8163 20.5576 22.7826 20.7817 22.6729 20.9712C22.5631 21.1607 22.3855 21.3015 22.176 21.365C21.902 21.445 21.666 21.808 21.666 22.247C21.666 22.687 21.902 23.051 22.176 23.13C22.3779 23.1856 22.5526 23.3128 22.6676 23.4878C22.7825 23.6628 22.8298 23.8737 22.8007 24.0811C22.7715 24.2884 22.6679 24.4781 22.5092 24.6146C22.3504 24.7511 22.1474 24.8252 21.938 24.823C21.8568 24.823 21.776 24.8116 21.698 24.789C20.658 24.491 19.933 23.446 19.933 22.247C19.933 21.05 20.657 20.005 21.697 19.707L21.789 19.685ZM28.221 17.02C28.878 17.02 29.414 17.555 29.414 18.21V19.609C29.414 20.263 28.877 20.798 28.221 20.798H27.961C27.6451 20.7978 27.3422 20.6724 27.1184 20.4494C26.8947 20.2264 26.7683 19.9239 26.767 19.608V18.21C26.767 17.556 27.304 17.021 27.961 17.021L28.221 17.02ZM16.104 17.02C16.76 17.02 17.297 17.555 17.297 18.21V19.609C17.297 20.263 16.76 20.798 16.103 20.798H15.843C15.5271 20.7978 15.2242 20.6724 15.0004 20.4494C14.7767 20.2264 14.6503 19.9239 14.649 19.608V18.21C14.649 17.556 15.186 17.021 15.843 17.021H16.103L16.104 17.02Z" fill="#A3A3A3"/>
</g>
</svg>
