<svg width="40" height="40" viewBox="0 0 40 40" fill="none" xmlns="http://www.w3.org/2000/svg">
<g opacity="0.4" clip-path="url(#clip0_782_6110)">
<path d="M20 0C31.046 0 40 8.954 40 20C40 31.046 31.046 40 20 40C8.954 40 0 31.046 0 20C0 8.954 8.954 0 20 0ZM20 2.5C10.335 2.5 2.5 10.335 2.5 20C2.5 29.665 10.335 37.5 20 37.5C29.665 37.5 37.5 29.665 37.5 20C37.5 10.335 29.665 2.5 20 2.5Z" fill="#A3A3A3"/>
<path d="M26.15 23.727C26.2662 23.4404 26.4843 23.2069 26.7624 23.0716C27.0404 22.9362 27.3588 22.9086 27.656 22.994C28.32 23.184 28.704 23.874 28.512 24.537C27.559 27.845 24.127 30.152 20.171 30.152C16.216 30.152 12.786 27.847 11.831 24.54C11.7857 24.3821 11.7719 24.2169 11.7905 24.0537C11.809 23.8905 11.8595 23.7326 11.9391 23.589C12.0187 23.4453 12.1258 23.3187 12.2543 23.2165C12.3828 23.1142 12.5301 23.0383 12.688 22.993C12.8458 22.9477 13.0111 22.9339 13.1742 22.9524C13.3374 22.971 13.4953 23.0215 13.639 23.1011C13.7826 23.1806 13.9092 23.2877 14.0115 23.4162C14.1137 23.5447 14.1897 23.6921 14.235 23.85C14.87 26.053 17.367 27.658 20.171 27.658C22.976 27.658 25.473 26.051 26.109 23.848L26.15 23.727ZM19.719 16.913C20.0104 16.8596 20.3111 16.9207 20.5587 17.0835C20.8062 17.2463 20.9814 17.4982 21.0479 17.7869C21.1143 18.0756 21.0669 18.3788 20.9155 18.6334C20.7641 18.888 20.5204 19.0745 20.235 19.154C19.869 19.259 19.554 19.744 19.554 20.33C19.554 20.917 19.87 21.402 20.236 21.506C20.505 21.5807 20.7376 21.7506 20.8905 21.9842C21.0434 22.2178 21.1061 22.499 21.0669 22.7754C21.0277 23.0518 20.8894 23.3045 20.6776 23.4864C20.4658 23.6683 20.1951 23.7669 19.916 23.764C19.809 23.764 19.702 23.749 19.597 23.719C18.21 23.322 17.245 21.928 17.245 20.33C17.245 18.734 18.209 17.34 19.595 16.942L19.719 16.913ZM28.295 13.361C29.17 13.361 29.885 14.073 29.885 14.946V16.812C29.885 17.684 29.17 18.397 28.295 18.397H27.947C27.5264 18.3962 27.1232 18.2291 26.8253 17.9322C26.5275 17.6352 26.3591 17.2325 26.357 16.812V14.946C26.357 14.073 27.072 13.361 27.947 13.361H28.295ZM12.138 13.361C13.013 13.361 13.729 14.073 13.729 14.946V16.812C13.729 17.684 13.013 18.397 12.138 18.397H11.79C11.3694 18.3962 10.9662 18.2291 10.6683 17.9322C10.3705 17.6352 10.2021 17.2325 10.2 16.812V14.946C10.2 14.073 10.915 13.361 11.79 13.361H12.138Z" fill="#A3A3A3"/>
</g>
<defs>
<clipPath id="clip0_782_6110">
<rect width="40" height="40" fill="white"/>
</clipPath>
</defs>
</svg>
