<svg width="33" height="33" viewBox="0 0 33 33" fill="none" xmlns="http://www.w3.org/2000/svg">
<rect width="33" height="33" rx="16.5" fill="black" fill-opacity="0.05"/>
<path d="M16.5 8C18.8472 8 20.9722 8.9514 22.5104 10.4896C24.0486 12.0278 25 14.1528 25 16.5C25 18.8472 24.0486 20.9722 22.5104 22.5104C20.9722 24.0486 18.8472 25 16.5 25C14.1528 25 12.0278 24.0486 10.4896 22.5104C8.9514 20.9722 8 18.8472 8 16.5C8 14.1528 8.9514 12.0278 10.4896 10.4896C12.0278 8.9514 14.1528 8 16.5 8Z" stroke="#595959" stroke-width="1.1761"/>
<path fill-rule="evenodd" clip-rule="evenodd" d="M19.5618 17.711C19.8804 17.8021 20.0645 18.133 19.973 18.4501C19.5656 19.861 18.1034 20.8465 16.417 20.8465C14.7315 20.8465 13.2694 19.8617 12.8616 18.4516C12.7699 18.1345 12.9537 17.8035 13.2723 17.7122C13.591 17.6206 13.9234 17.8041 14.015 18.121C14.2716 19.008 15.2818 19.6518 16.417 19.6518C17.5528 19.6518 18.5631 19.0076 18.8193 18.1202C18.9109 17.8031 19.243 17.6197 19.5618 17.711ZM16.8486 15.4114C16.9342 15.7073 16.7627 16.0161 16.4653 16.1014C16.3535 16.1334 16.2379 16.2975 16.2379 16.5167C16.2379 16.7359 16.3536 16.8999 16.4655 16.932C16.7628 17.0171 16.9346 17.3259 16.8491 17.6218C16.7785 17.8663 16.5545 18.0255 16.311 18.0255C16.2598 18.0255 16.2077 18.0184 16.156 18.0037C15.5446 17.8287 15.1176 17.2173 15.1176 16.5167C15.1176 15.8164 15.5444 15.2049 16.1554 15.0299C16.4524 14.9447 16.7631 15.1155 16.8486 15.4114ZM13.0466 13.3481C13.4867 13.3481 13.8468 13.7065 13.8468 14.1446V14.8729C13.8468 15.3109 13.4867 15.6693 13.0466 15.6693H13.0199C12.5798 15.6693 12.2197 15.3109 12.2197 14.8729V14.1446C12.2197 13.7065 12.5798 13.3481 13.0199 13.3481H13.0466ZM19.7683 13.3481C20.2084 13.3481 20.5685 13.7065 20.5685 14.1446V14.8729C20.5685 15.3109 20.2084 15.6693 19.7683 15.6693H19.7417C19.3015 15.6693 18.9415 15.3109 18.9415 14.8729V14.1446C18.9415 13.7065 19.3015 13.3481 19.7417 13.3481H19.7683Z" fill="#595959"/>
</svg>
