<svg width="33" height="33" viewBox="0 0 33 33" fill="none" xmlns="http://www.w3.org/2000/svg">
<path d="M7 24.2021L23.7027 7.5" stroke="#595959" stroke-width="1.02144" stroke-linejoin="round"/>
<path fill-rule="evenodd" clip-rule="evenodd" d="M10.3295 21.3241C10.5392 20.7979 10.713 20.1861 10.847 19.4964C10.9767 18.8302 11.0415 18.1171 11.0415 17.3783V14.5521C11.0415 11.5057 13.5202 9.02702 16.5671 9.02702C18.294 9.02702 19.8374 9.82511 20.8512 11.0699L21.5637 10.3573C20.3652 8.93168 18.5708 8.02246 16.5671 8.02246C12.9667 8.02246 10.0369 10.9517 10.0369 14.5521V17.3783C10.0369 18.0533 9.97757 18.7016 9.86099 19.3047C9.68067 20.2329 9.417 21.019 9.09885 21.578C9.0106 21.7332 9.01115 21.9245 9.10158 22.0792C9.19092 22.2339 9.35653 22.3287 9.53521 22.3287H9.59242L10.597 21.3241H10.3295Z" fill="#595959"/>
<path fill-rule="evenodd" clip-rule="evenodd" d="M16.5666 24.0952C15.5414 24.0952 14.703 23.3216 14.582 22.3285H16.5661H16.5672H18.5512C18.4297 23.3216 17.5919 24.0952 16.5666 24.0952ZM23.2722 19.3045C23.1556 18.7014 23.0962 18.0531 23.0962 17.3782V14.5519C23.0962 13.3213 22.7476 12.1723 22.1527 11.1885L21.4227 11.9185C21.8493 12.7018 22.0917 13.5991 22.0917 14.5519V17.3782C22.0917 18.1169 22.1571 18.83 22.2867 19.4962C22.4202 20.1859 22.594 20.7977 22.8037 21.3239H16.5672H16.5666H12.0173L11.0127 22.3285H13.5649C13.6892 23.8773 14.9868 25.1003 16.5666 25.1003C18.1465 25.1003 19.4441 23.8773 19.5683 22.3285H23.598C23.7772 22.3285 23.9423 22.2337 24.0322 22.079C24.1226 21.9243 24.1231 21.7331 24.0343 21.5778C23.7162 21.0194 23.4531 20.2328 23.2722 19.3045Z" fill="#595959"/>
</svg>
