<svg width="33" height="33" viewBox="0 0 33 33" fill="none" xmlns="http://www.w3.org/2000/svg">
<rect width="33" height="33" rx="16.5" fill="black" fill-opacity="0.03"/>
<path fill-rule="evenodd" clip-rule="evenodd" d="M19.6875 16.5C19.6875 18.2606 18.2606 19.6875 16.5 19.6875C14.7394 19.6875 13.3125 18.2606 13.3125 16.5C13.3125 14.7394 14.7394 13.3125 16.5 13.3125C18.2606 13.3125 19.6875 14.7394 19.6875 16.5Z" stroke="#595959" stroke-width="1.0625"/>
<path fill-rule="evenodd" clip-rule="evenodd" d="M23.8876 16.5C23.8876 16.1866 23.8642 15.8795 23.8238 15.5777L25 14.1901C24.5963 12.8089 23.8387 11.5711 22.8272 10.5713L20.9922 10.8581C20.4865 10.4841 19.9287 10.1717 19.3305 9.93269L18.6717 8.25925C17.9758 8.09031 17.2491 8 16.5 8C15.7509 8 15.0242 8.09031 14.3293 8.25925L13.6706 9.93269C13.0724 10.1717 12.5135 10.4841 12.0078 10.8571L10.1728 10.5713C9.16131 11.5711 8.40481 12.8089 8 14.1901L9.17619 15.5777C9.13581 15.8795 9.11244 16.1866 9.11244 16.5C9.11244 16.8134 9.13581 17.1205 9.17619 17.4223L8 18.8099C8.40375 20.1911 9.16131 21.4289 10.1728 22.4287L12.0078 22.1419C12.5135 22.5159 13.0724 22.8282 13.6695 23.0673L14.3293 24.7407C15.0242 24.9086 15.7509 25 16.5 25C17.2491 25 17.9769 24.9086 18.6707 24.7407L19.3305 23.0673C19.9287 22.8282 20.4865 22.5159 20.9922 22.1429L22.8272 22.4287C23.8387 21.4289 24.5963 20.1911 25 18.8099L23.8238 17.4223C23.8642 17.1205 23.8876 16.8134 23.8876 16.5V16.5Z" stroke="#595959" stroke-width="1.0625"/>
</svg>
