<svg width="33" height="33" viewBox="0 0 33 33" fill="none" xmlns="http://www.w3.org/2000/svg">
<path fill-rule="evenodd" clip-rule="evenodd" d="M9.47826 14.195C9.77811 14.325 10.0405 14.505 10.2679 14.7325C10.4953 14.96 10.6752 15.2225 10.8051 15.525C10.935 15.8225 11 16.15 11 16.5C11 16.8525 10.935 17.1775 10.8051 17.4775C10.6752 17.775 10.4953 18.04 10.2679 18.2675C10.0405 18.495 9.77811 18.675 9.47826 18.805C9.17841 18.935 8.85357 19 8.50125 19C8.15142 19 7.82659 18.935 7.52424 18.805C7.22439 18.675 6.96202 18.495 6.73213 18.2675C6.50725 18.04 6.32734 17.775 6.1974 17.4775C6.06997 17.1775 6 16.8525 6 16.5C6 16.15 6.06997 15.8225 6.1974 15.525C6.32734 15.2225 6.50725 14.96 6.73213 14.7325C6.96202 14.505 7.22439 14.325 7.52424 14.195C7.82659 14.065 8.15142 14 8.50125 14C8.85357 14 9.17841 14.065 9.47826 14.195ZM16.5012 14C16.8536 14 17.1784 14.065 17.4783 14.195C17.7781 14.325 18.0405 14.505 18.2679 14.7325C18.4953 14.96 18.6752 15.2225 18.8051 15.525C18.935 15.8225 19 16.15 19 16.5C19 16.8525 18.935 17.1775 18.8051 17.4775C18.6752 17.775 18.4953 18.04 18.2679 18.2675C18.0405 18.495 17.7781 18.675 17.4783 18.805C17.1784 18.935 16.8536 19 16.5012 19C16.1514 19 15.8266 18.935 15.5242 18.805C15.2244 18.675 14.962 18.495 14.7321 18.2675C14.5072 18.04 14.3273 17.775 14.1974 17.4775C14.07 17.1775 14 16.8525 14 16.5C14 16.15 14.07 15.8225 14.1974 15.525C14.3273 15.2225 14.5072 14.96 14.7321 14.7325C14.962 14.505 15.2244 14.325 15.5242 14.195C15.8266 14.065 16.1514 14 16.5012 14ZM25.4783 14.195C25.1784 14.065 24.8536 14 24.5012 14C24.1514 14 23.8266 14.065 23.5242 14.195C23.2244 14.325 22.962 14.505 22.7321 14.7325C22.5072 14.96 22.3273 15.2225 22.1974 15.525C22.07 15.8225 22 16.15 22 16.5C22 16.8525 22.07 17.1775 22.1974 17.4775C22.3273 17.775 22.5072 18.04 22.7321 18.2675C22.962 18.495 23.2244 18.675 23.5242 18.805C23.8266 18.935 24.1514 19 24.5012 19C24.8536 19 25.1784 18.935 25.4783 18.805C25.7781 18.675 26.0405 18.495 26.2679 18.2675C26.4953 18.04 26.6752 17.775 26.8051 17.4775C26.935 17.1775 27 16.8525 27 16.5C27 16.15 26.935 15.8225 26.8051 15.525C26.6752 15.2225 26.4953 14.96 26.2679 14.7325C26.0405 14.505 25.7781 14.325 25.4783 14.195Z" fill="black"/>
</svg>
