<svg width="22" height="22" viewBox="0 0 22 22" fill="none" xmlns="http://www.w3.org/2000/svg">
<g clip-path="url(#clip0_1417_12471)">
<path d="M20.7782 10.9999C20.7782 5.59983 16.4006 1.22217 11.0004 1.22217C5.60032 1.22217 1.22266 5.59983 1.22266 10.9999C1.22266 16.4001 5.60032 20.7777 11.0004 20.7777C16.4006 20.7777 20.7782 16.4001 20.7782 10.9999Z" fill="white"/>
<path d="M21.2782 10.9999C21.2782 5.32369 16.6767 0.722168 11.0004 0.722168C5.32417 0.722168 0.722656 5.32369 0.722656 10.9999C0.722656 16.6762 5.32417 21.2777 11.0004 21.2777C16.6767 21.2777 21.2782 16.6762 21.2782 10.9999Z" stroke="black" stroke-opacity="0.4"/>
<path d="M16.5292 8.63371L9.61529 15.5476L5.46693 11.3993L6.61896 10.2472L9.58245 13.209L15.3435 7.44797L16.5292 8.63371Z" fill="black"/>
</g>
<defs>
<clipPath id="clip0_1417_12471">
<rect width="22" height="22" fill="white"/>
</clipPath>
</defs>
</svg>
