<svg width="48" height="48" viewBox="0 0 48 48" fill="none" xmlns="http://www.w3.org/2000/svg">
<path fill-rule="evenodd" clip-rule="evenodd" d="M48 7.54839C48 6.69324 47.3068 6 46.4516 6H1.54839C0.693236 6 0 6.69324 0 7.54839V36.1935C0 37.0487 0.693236 37.7419 1.54839 37.7419H20.1291V40.8387H16.2581V42.3871H31.742V40.8387H27.871V37.7419H46.4516C47.3068 37.7419 48 37.0487 48 36.1935V7.54839ZM26.3226 40.8387V37.7419H21.6775V40.8387H26.3226ZM1.54842 7.54841H46.4516V30H1.54842V7.54841ZM1.54842 31.5484H46.4516V36.1936H1.54842V31.5484Z" fill="black"/>
<path fill-rule="evenodd" clip-rule="evenodd" d="M28.6455 25.7419H19.3552V20.8711V18H28.6455V25.7419Z" stroke="black" stroke-width="1.5" stroke-linejoin="round"/>
<path d="M24.0004 22.9046V20.7097" stroke="black" stroke-width="1.5" stroke-linejoin="round"/>
<path d="M21.2854 17.2477V16.4768C21.2854 14.9663 22.5098 13.7419 24.0202 13.7419C25.5307 13.7419 26.7551 14.9663 26.7551 16.4768V17.2477" stroke="black" stroke-width="1.5" stroke-linejoin="round"/>
</svg>
