<svg width="24" height="24" viewBox="0 0 24 24" fill="none" xmlns="http://www.w3.org/2000/svg">
<path fill-rule="evenodd" clip-rule="evenodd" d="M17.021 8.84493L20.1239 10.9529L20.3331 7.21143L17.021 8.84493Z" fill="black"/>
<path fill-rule="evenodd" clip-rule="evenodd" d="M3.6665 17.2561L6.97863 15.6226L3.87621 13.5146L3.6665 17.2561Z" fill="black"/>
<path d="M4.15552 10.6704C4.85007 6.99888 8.07544 4.22217 11.9492 4.22217C15.018 4.22217 17.6797 5.96524 18.9984 8.5144" stroke="black" stroke-width="1.1"/>
<path d="M19.7412 13.6455C19.0437 17.3136 15.8203 20.0868 11.949 20.0868C8.86937 20.0868 6.20023 18.3319 4.8855 15.7673" stroke="black" stroke-width="1.1"/>
<path d="M12.3105 8.67V9.43C12.3105 11.95 10.6605 13.53 8.92055 14.51L8.23055 13.48C9.78055 12.6 11.0505 11.35 11.0505 9.73H8.41055V8.67H12.3105ZM14.8105 8.06V10.9H16.1105V11.99H14.8105V16.42H13.5305V8.06H14.8105Z" fill="black"/>
</svg>
