<svg fill="none" height="24" viewBox="0 0 24 24" width="24" xmlns="http://www.w3.org/2000/svg"><g stroke="#191919" stroke-width="1.1"><path clip-rule="evenodd" d="m18.9231 4.63846h-13.84618c-.31846 0-.57692.25846-.57692.57692v12.61542c0 .319.25846.5769.57692.5769h5.19228l1.7308 2.3077 1.7308-2.3077h5.1923c.3184 0 .5769-.2579.5769-.5769v-12.61542c0-.31846-.2585-.57692-.5769-.57692z" fill-rule="evenodd" stroke-linejoin="round"/><path d="m16.0367 16.3677c0-2.0258-1.5549-2.9929-4.0653-2.9929-2.50338 0-4.05831.9671-4.05831 2.9929"/><path clip-rule="evenodd" d="m14.072 9.5427c0 1.158-.9386 2.0965-2.0966 2.0965-1.1579 0-2.09649-.9385-2.09649-2.0965 0-1.15798.93859-2.09653 2.09649-2.09653 1.158 0 2.0966.93855 2.0966 2.09653z" fill-rule="evenodd"/></g></svg>