<svg fill="none" height="24" viewBox="0 0 24 24" width="24" xmlns="http://www.w3.org/2000/svg"><path d="m16.4652 5.45001c.5335.00036 1.0667.20574 1.4734.61548.4083.41153.612.95066.6116 1.48953-.0004.53883-.2047 1.07763-.6123 1.48725l-9.5359 9.50773h-2.9518v-2.975l9.541-9.51145c.4071-.40925.9406-.61389 1.474-.61354z" stroke="#191919" stroke-width="1.1"/><path d="m13.5 7.5 3 3" stroke="#191919" stroke-width="1.1"/><path d="m17.5 17.8h-5c-.2761 0-.5.2686-.5.6s.2239.6.5.6h5c.2761 0 .5-.2686.5-.6s-.2239-.6-.5-.6z" fill="#191919"/></svg>