<svg fill="none" height="24" viewBox="0 0 24 24" width="24" xmlns="http://www.w3.org/2000/svg"><path clip-rule="evenodd" d="m18.9 12c0 3.8108-3.0892 6.9-6.9 6.9-3.81076 0-6.9-3.0892-6.9-6.9 0-3.81076 3.08924-6.9 6.9-6.9 1.5058 0 2.899.48236 4.0334 1.301l.3132-.27614.5299-.46727c-1.3499-1.03946-3.041-1.65759-4.8765-1.65759-4.41828 0-8 3.58172-8 8 0 4.4183 3.58172 8 8 8 4.4183 0 8-3.5817 8-8 0-.7515-.1036-1.4787-.2973-2.16828l-.0493.04342-.8844.77986c.0859.435.131.8848.131 1.345z" fill="#191919" fill-rule="evenodd"/><path d="m18 8-6.8045 6-3.1955-3" stroke="#191919" stroke-linecap="square" stroke-width="1.2"/></svg>